<svg width="44" height="44" viewBox="0 0 44 44" fill="none" xmlns="http://www.w3.org/2000/svg">
<circle opacity="0.2" r="22" transform="matrix(1 0 0 -1 22 22)" fill="#C68158"/>
<path d="M33.1547 16.9493C32.0832 16.9493 31.2113 16.0271 31.2113 14.8939C31.2113 14.4 30.8331 14 30.3661 14H13.6339C13.1669 14 12.7887 14.4 12.7887 14.8939C12.7887 16.0271 11.9168 16.9493 10.8453 16.9493C10.3782 16.9493 10 17.3492 10 17.8432V19.9669V23.4511V26.1568C10 26.6508 10.3782 27.0507 10.8453 27.0507C11.9168 27.0507 12.7887 27.9729 12.7887 29.1061C12.7887 29.6 13.1669 30 13.6339 30H30.3661C30.8323 30 31.2113 29.6 31.2113 29.1061C31.2113 27.9729 32.0832 27.0507 33.1547 27.0507C33.6218 27.0507 34 26.6508 34 26.1568V23.4511V19.9669V17.8432C34 17.3492 33.6218 16.9493 33.1547 16.9493Z" fill="#FFC76F" stroke="#985801"/>
<g clip-path="url(#clip0)">
<path d="M27.4708 16.4999C26.6078 16.4971 25.9253 17.2244 25.9247 18.1464C25.9247 19.0677 26.6131 19.8049 27.4682 19.7993C28.31 19.7937 28.9919 19.067 28.9998 18.1661C29.0084 17.2476 28.3253 16.5027 27.4708 16.4999ZM28.6414 18.1542C28.6493 18.6468 28.4793 19.0431 28.0812 19.3067C27.6831 19.5695 27.2685 19.5758 26.8664 19.3221C26.465 19.0684 26.2811 18.6742 26.2811 18.1816C26.2811 17.989 26.3519 17.8885 26.5602 17.9012C26.8671 17.9201 27.1752 17.9061 27.4827 17.9061C27.7797 17.9061 28.0766 17.9159 28.3729 17.9026C28.5534 17.8948 28.6381 17.9595 28.6414 18.1542Z" fill="url(#paint0_linear)"/>
<path d="M19.9063 16.5C19.0624 16.5084 18.3899 17.2343 18.3872 18.1402C18.3846 19.0615 19.0691 19.8008 19.9241 19.8001C20.7805 19.7994 21.4637 19.0608 21.4604 18.1395C21.4564 17.2196 20.766 16.4915 19.9063 16.5ZM19.9341 19.507C19.2807 19.5162 18.7027 18.8774 18.7404 18.1971C18.7523 17.9856 18.8184 17.8851 19.0413 17.9012C19.3362 17.9237 19.6345 17.9069 19.9308 17.9069C20.2277 17.9069 20.5246 17.9188 20.8209 17.9026C21.0193 17.8921 21.0927 17.9701 21.1072 18.1753C21.1542 18.8535 20.5921 19.4979 19.9341 19.507Z" fill="url(#paint1_linear)"/>
<path d="M25.979 25.7366C25.4163 25.1105 24.8515 24.4864 24.2894 23.8596C23.9607 23.4934 23.9633 23.4934 24.3013 23.1357C24.8244 22.5827 25.3581 22.0415 25.862 21.4695C26.1728 21.1174 26.1325 20.726 25.815 20.4625C25.5181 20.2158 25.1841 20.2565 24.8766 20.5988C24.171 21.3852 23.4733 22.1793 22.7082 23.043C22.7082 22.3023 22.7141 21.6508 22.7062 21.0001C22.7009 20.5735 22.4589 20.3198 22.07 20.305C21.7036 20.291 21.3822 20.5918 21.3802 20.9958C21.3723 22.8216 21.3723 24.6466 21.3802 26.4724C21.3822 26.8807 21.6547 27.1267 22.0495 27.1252C22.4397 27.1238 22.7009 26.8709 22.7062 26.4604C22.7148 25.7703 22.7068 25.0795 22.7121 24.3894C22.7128 24.31 22.6586 24.2067 22.7763 24.1315C23.261 24.6902 23.7392 25.2545 24.2312 25.8048C24.5876 26.2025 24.9018 26.646 25.3098 26.9875C25.575 27.2096 25.9975 27.1667 26.2158 26.925C26.4294 26.6881 26.4327 26.3375 26.2178 26.0275C26.1457 25.9242 26.063 25.8301 25.979 25.7366Z" fill="url(#paint2_linear)"/>
<path d="M18.4129 20.3702C17.2933 20.3569 16.1731 20.3541 15.0528 20.3709C14.746 20.3759 14.5456 20.5965 14.5079 20.924C14.4702 21.2508 14.5568 21.5249 14.9007 21.6226L14.9245 21.6373L14.9523 21.6324C15.3187 21.7575 15.6996 21.6324 16.0692 21.7027C16.0712 21.8896 16.0745 22.0765 16.0752 22.2635C16.0812 23.6662 16.0864 25.0688 16.0917 26.4715C16.0818 26.8264 16.2577 27.0351 16.5685 27.1068C16.9547 27.1961 17.1915 27.0562 17.341 26.6817C17.3562 26.6669 17.3601 26.6493 17.3522 26.629C17.4461 26.506 17.4091 26.3598 17.4091 26.2228C17.4117 24.8074 17.415 23.3914 17.4064 21.976C17.4051 21.7554 17.4514 21.6703 17.6762 21.6767C17.9474 21.6837 18.2245 21.7336 18.493 21.638L18.5168 21.6429L18.536 21.6275C18.8587 21.5171 19.0002 21.2972 18.9671 20.9577C18.9341 20.6331 18.7205 20.3738 18.4129 20.3702Z" fill="url(#paint3_linear)"/>
<path d="M19.936 20.305C19.5233 20.2952 19.2608 20.6023 19.2594 21.1076C19.2568 21.9839 19.2588 22.8595 19.2588 23.7359C19.2588 24.6122 19.2561 25.4878 19.2594 26.3642C19.2614 26.8575 19.5021 27.1266 19.9274 27.1252C20.3513 27.1238 20.586 26.8561 20.5874 26.3557C20.59 24.6038 20.59 22.8511 20.5874 21.0991C20.586 20.6072 20.3407 20.3149 19.936 20.305Z" fill="url(#paint4_linear)"/>
<path d="M28.1243 23.7162C28.1243 22.8518 28.1256 21.9875 28.1236 21.1224C28.1223 20.6009 27.8823 20.3072 27.4643 20.3051C27.0523 20.303 26.7951 20.6101 26.7951 21.1174C26.7931 22.8582 26.7931 24.5989 26.7951 26.3396C26.7957 26.8568 27.0371 27.1309 27.4749 27.1253C27.8955 27.1196 28.1217 26.8519 28.1236 26.3445C28.1263 25.4689 28.1243 24.5926 28.1243 23.7162Z" fill="url(#paint5_linear)"/>
<path d="M27.4826 17.9082C27.1751 17.9082 26.8662 17.9223 26.5601 17.9033C26.3517 17.8906 26.2816 17.9911 26.281 18.1837C26.281 18.6756 26.4648 19.0706 26.8662 19.3243C27.2677 19.5779 27.683 19.5716 28.0811 19.3088C28.4792 19.0453 28.6492 18.6489 28.6412 18.1563C28.6379 17.9616 28.5533 17.897 28.3727 17.9054C28.0765 17.918 27.7789 17.9082 27.4826 17.9082Z" fill="#FFC76F"/>
<path d="M21.1066 18.1742C21.0927 17.969 21.0186 17.891 20.8203 17.9015C20.5246 17.9177 20.2271 17.9057 19.9301 17.9057C19.6332 17.9057 19.3356 17.9226 19.0407 17.9001C18.8178 17.8833 18.7517 17.9845 18.7398 18.196C18.7021 18.8762 19.28 19.515 19.9334 19.5059C20.5914 19.4968 21.1536 18.8524 21.1066 18.1742Z" fill="#FFC76F"/>
</g>
<defs>
<linearGradient id="paint0_linear" x1="27.4623" y1="16.4999" x2="27.4623" y2="19.7993" gradientUnits="userSpaceOnUse">
<stop stop-color="#EA6544"/>
<stop offset="1" stop-color="#D12A1E"/>
</linearGradient>
<linearGradient id="paint1_linear" x1="19.9238" y1="16.4999" x2="19.9238" y2="19.8001" gradientUnits="userSpaceOnUse">
<stop stop-color="#EA6544"/>
<stop offset="1" stop-color="#D12A1E"/>
</linearGradient>
<linearGradient id="paint2_linear" x1="23.8759" y1="20.3046" x2="23.8759" y2="27.1324" gradientUnits="userSpaceOnUse">
<stop stop-color="#EA6544"/>
<stop offset="1" stop-color="#D12A1E"/>
</linearGradient>
<linearGradient id="paint3_linear" x1="16.7358" y1="20.3593" x2="16.7358" y2="27.1329" gradientUnits="userSpaceOnUse">
<stop stop-color="#EA6544"/>
<stop offset="1" stop-color="#D12A1E"/>
</linearGradient>
<linearGradient id="paint4_linear" x1="19.9236" y1="20.3048" x2="19.9236" y2="27.1252" gradientUnits="userSpaceOnUse">
<stop stop-color="#EA6544"/>
<stop offset="1" stop-color="#D12A1E"/>
</linearGradient>
<linearGradient id="paint5_linear" x1="27.4593" y1="20.3051" x2="27.4593" y2="27.1254" gradientUnits="userSpaceOnUse">
<stop stop-color="#EA6544"/>
<stop offset="1" stop-color="#D12A1E"/>
</linearGradient>
<clipPath id="clip0">
<rect width="14.5" height="10.6333" fill="white" transform="translate(14.5 16.5)"/>
</clipPath>
</defs>
</svg>
