<svg width="44" height="44" viewBox="0 0 44 44" fill="none" xmlns="http://www.w3.org/2000/svg">
<circle opacity="0.2" cx="22" cy="22" r="22" fill="#C68158"/>
<path d="M34.026 14.3236V17.0016H29.582L29.582 14.3236C29.5799 13.0984 30.5714 12.1035 31.7964 12.1016H31.8075C33.0314 12.1016 34.0239 13.0927 34.026 14.3165V14.3236Z" fill="#CD4005" stroke="#985801"/>
<path d="M15.8157 12.1016H31.7934C30.5684 12.1035 29.5769 13.0984 29.5791 14.3236V30.6045C29.5771 32.2524 28.2407 33.5873 26.5927 33.5873H26.5838C26.5147 33.5873 26.4465 33.5848 26.3784 33.5799C24.8128 33.4704 20.0534 33.5873 16.561 33.5799H13.5938V28.6674V28.6408L13.6993 14.1914C13.6993 13.0276 14.652 12.1016 15.8157 12.1016Z" fill="#FFC76F" stroke="#985801"/>
<path d="M27.0391 33.5549H13.5688C11.955 33.5549 11.0742 32.5015 11.0742 31.5081V29.5437H24.3195V31.5015C24.3195 32.5015 25.5059 33.4438 27.0391 33.5549Z" fill="#CD4005" stroke="#985801"/>
<circle cx="21" cy="21" r="5" fill="url(#paint0_linear)"/>
<path d="M20.5007 23.5508V18.5508H21.4956V23.5508H20.5007ZM18.5 21.5463V20.5515H23.5V21.5463H18.5Z" fill="white"/>
<defs>
<linearGradient id="paint0_linear" x1="21" y1="16" x2="21" y2="26" gradientUnits="userSpaceOnUse">
<stop stop-color="#E1590A"/>
<stop offset="1" stop-color="#C23102"/>
</linearGradient>
</defs>
</svg>
