<svg width="23" height="20" viewBox="0 0 23 20" fill="none" xmlns="http://www.w3.org/2000/svg">
<path d="M18 0.499756L5 0.5L0.75 6.25L11.5 18.8748L22.25 6.25L18 0.499756Z" stroke="#985801"/>
<path d="M17.9877 0.624756L22.0005 6.22463L11.495 18.5588L0.988281 6.22463L5.00109 0.624756H17.9877Z" fill="#81D4DE"/>
<path d="M17.9241 8.74407L11.3659 0.624756H9.89844L17.1644 9.50374L17.9241 8.74407Z" fill="#9BE1E7"/>
<path d="M16.176 10.0128L8.31175 0.624756H4.99878L4.36328 1.51198L15.4174 10.7725L16.176 10.0128Z" fill="#9BE1E7"/>
<path d="M14.832 11.5487L3.76546 2.34351L3.08594 3.29168L14.0724 12.3084L14.832 11.5487Z" fill="#9BE1E7"/>
<path d="M19.0268 7.64125L13.3592 0.624756H12.6289L18.6667 8.00133L19.0268 7.64125Z" fill="#9BE1E7"/>
<path d="M16.6918 7.56226L11.4949 18.5588L6.29688 7.56226H16.6918Z" fill="#51C7C5"/>
<path d="M6.29693 7.56026L0.988281 6.22266L11.495 18.5568L6.29693 7.56026Z" fill="#81D4DE"/>
<path d="M11.4961 18.5566L16.693 7.56002L22.0016 6.22241L11.4961 18.5566Z" fill="#40B5A5"/>
<path d="M5.00109 0.624756H9.39205L6.29693 7.56224L0.988281 6.22463L5.00109 0.624756Z" fill="#9BE1E7"/>
<path d="M17.9886 0.624756H13.5977L16.6928 7.56224L22.0014 6.22463L17.9886 0.624756Z" fill="#69C6D6"/>
<path opacity="0.1" d="M16.6919 6.82655H6.29693L0.988281 6.22266L6.29693 7.56026H16.6919L22.0005 6.22266L16.6919 6.82655Z" fill="white"/>
<path d="M7.14533 6.54463L9.16359 7.00968L7.14533 7.47361L6.68141 9.49187L6.21635 7.47361L4.19922 7.00968L6.21635 6.54463L6.68141 4.52637L7.14533 6.54463Z" fill="white"/>
<path d="M16.6647 7.79851L17.8228 8.0649L16.6647 8.33129L16.3983 9.49055L16.1308 8.33129L14.9727 8.0649L16.1308 7.79851L16.3983 6.64038L16.6647 7.79851Z" fill="white"/>
<g style="mix-blend-mode:multiply" opacity="0.05">
<path d="M11.495 15.9821L0.988281 6.22266L11.495 18.5568L22.0005 6.22266L11.495 15.9821Z" fill="black"/>
</g>
</svg>
