<svg width="44" height="44" viewBox="0 0 44 44" fill="none" xmlns="http://www.w3.org/2000/svg">
<circle opacity="0.2" cx="22" cy="22" r="22" fill="#C68158"/>
<path d="M34.0458 24.2679C34.0464 24.2668 34.0462 24.2655 34.0452 24.2647C33.8011 24.0666 33.4919 23.9667 33.178 23.9845C32.8633 24.0023 32.5667 24.1371 32.3464 24.3624L29.6002 27.1425C29.0566 27.6945 28.3187 28.012 27.5441 28.0273L25.4168 28.0111C24.5373 28.0044 24.3882 26.7492 25.2416 26.5366C25.5118 26.4776 25.7105 26.0878 25.8191 25.7253C25.8998 25.4559 25.9105 25.1636 25.8057 24.9026C25.7462 24.7544 25.6633 24.6157 25.5593 24.4922C25.4124 24.3176 25.2286 24.1794 25.0223 24.0866C24.8856 24.0252 24.7343 23.993 24.5863 24.0164L16.6514 25.1605C16.1955 25.2252 15.757 25.3794 15.361 25.6142C14.965 25.849 14.6194 26.1599 14.3439 26.5288L12.8443 28.979C12.7375 29.1536 12.6442 29.3361 12.5653 29.5249L11.9091 31.0952C10.9839 33.3095 12.2032 35.8345 14.5128 36.4868L18.271 37.5482C19.5432 37.9075 20.8064 36.9516 20.8064 35.6297C20.8064 35.4565 20.8214 35.2803 20.8977 35.1248C20.9684 34.981 21.0649 34.8504 21.1831 34.74C21.3651 34.5699 21.5914 34.4544 21.8359 34.4067L28.8738 33.1465C29.6185 33.01 30.2832 32.5949 30.7328 31.9858L34.6169 26.5183C34.8203 26.1411 34.8751 25.7015 34.7707 25.2859C34.6664 24.8706 34.4107 24.5094 34.0537 24.2731C34.0531 24.2727 34.0523 24.2724 34.0516 24.2723L34.0477 24.2717C34.0459 24.2715 34.0449 24.2695 34.0458 24.2679Z" fill="url(#paint0_linear)" stroke="#985801"/>
<path d="M10.2714 33.5927C10.4272 33.0779 10.9623 32.7787 11.4825 32.9153L20.6349 35.3192C21.1832 35.4632 21.5022 36.0337 21.338 36.5762L20.393 39.6974C20.2372 40.2121 19.7021 40.5114 19.1819 40.3748L10.0295 37.9709C9.48127 37.8269 9.1622 37.2564 9.32645 36.7139L10.2714 33.5927Z" fill="#D24606" stroke="#985801"/>
<path d="M18.6541 35.6715C19.0098 35.7759 19.3096 36.0171 19.4878 36.3422C19.666 36.6673 19.708 37.0497 19.6047 37.4057C19.5557 37.5819 19.4723 37.7466 19.3594 37.8904C19.2464 38.0341 19.1061 38.1541 18.9465 38.2434C18.7869 38.3327 18.6113 38.3895 18.4297 38.4105C18.248 38.4316 18.064 38.4165 17.8883 38.3661C17.5324 38.2622 17.2322 38.0215 17.0535 37.6967C16.8748 37.3719 16.8322 36.9895 16.9349 36.6333C16.9837 36.4568 17.0671 36.2916 17.1802 36.1475C17.2933 36.0033 17.4338 35.883 17.5937 35.7936C17.7536 35.7041 17.9297 35.6473 18.1117 35.6263C18.2937 35.6054 18.478 35.6207 18.6541 35.6715Z" fill="#FFC76F"/>
<circle cx="27.5" cy="13.5" r="7" fill="#FFC76F" stroke="#985801"/>
<path d="M26.9705 10.9978C27.3423 10.9798 27.7123 11.0621 28.0434 11.2365C28.2767 11.367 28.4828 11.5433 28.6498 11.7553V10.6095H28.0215C27.989 10.6142 27.956 10.6112 27.9249 10.6006C27.8938 10.59 27.8655 10.5721 27.8424 10.5483C27.8192 10.5246 27.8018 10.4956 27.7914 10.4638C27.7811 10.4319 27.7781 10.398 27.7828 10.3647V10.0759C27.7781 10.0426 27.7811 10.0087 27.7914 9.97685C27.8018 9.94498 27.8192 9.91602 27.8424 9.89226C27.8655 9.86851 27.8938 9.85062 27.9249 9.84001C27.956 9.8294 27.989 9.82636 28.0215 9.83113H28.6498V9.29754C28.6491 9.25834 28.6563 9.2194 28.6708 9.18311C28.6853 9.14683 28.7068 9.11396 28.7342 9.08653C28.7609 9.05851 28.793 9.03638 28.8284 9.02151C28.8638 9.00664 28.9017 8.99934 28.94 9.00005H29.3406C29.3789 8.99934 29.4168 9.00664 29.4522 9.02151C29.4876 9.03638 29.5197 9.05851 29.5464 9.08653C29.5738 9.11396 29.5953 9.14683 29.6098 9.18311C29.6243 9.2194 29.6315 9.25834 29.6308 9.29754V9.83113H30.2592C30.2916 9.82636 30.3247 9.8294 30.3557 9.84001C30.3868 9.85062 30.4151 9.86851 30.4382 9.89226C30.4614 9.91602 30.4789 9.94498 30.4892 9.97685C30.4996 10.0087 30.5025 10.0426 30.4979 10.0759V10.3647C30.5025 10.398 30.4996 10.4319 30.4892 10.4638C30.4789 10.4956 30.4614 10.5246 30.4382 10.5483C30.4151 10.5721 30.3868 10.59 30.3557 10.6006C30.3247 10.6112 30.2916 10.6142 30.2592 10.6095H29.6367V16.5871C29.6374 16.6263 29.6303 16.6652 29.6158 16.7015C29.6012 16.7378 29.5797 16.7707 29.5523 16.7981C29.5256 16.8261 29.4935 16.8482 29.4581 16.8631C29.4228 16.878 29.3848 16.8853 29.3465 16.8846H28.9425C28.9043 16.8853 28.8663 16.878 28.8309 16.8631C28.7955 16.8482 28.7635 16.8261 28.7367 16.7981C28.7094 16.7707 28.6878 16.7378 28.6733 16.7015C28.6588 16.6652 28.6517 16.6263 28.6524 16.5871V16.2411C28.4857 16.4603 28.2752 16.6402 28.0349 16.7687C27.7045 16.9355 27.3385 17.0143 26.9705 16.9979C26.646 17.0013 26.3239 16.9396 26.0224 16.8162C25.7344 16.6973 25.4741 16.5176 25.2583 16.2887C25.0342 16.0476 24.8575 15.7646 24.7379 15.455C24.6028 15.1034 24.5264 14.7309 24.5118 14.3533C24.5039 14.2426 24.5 14.1223 24.5 13.9926C24.5 13.8629 24.5039 13.7424 24.5118 13.6311C24.5271 13.254 24.6041 12.8821 24.7395 12.5311C24.8585 12.2229 25.0353 11.9417 25.26 11.7035C25.4773 11.4786 25.7374 11.3019 26.0241 11.1846C26.3247 11.0597 26.6462 10.9962 26.9705 10.9978ZM28.6498 14.4761C28.6571 14.3648 28.6608 14.2186 28.6608 14.0376C28.6608 13.8566 28.6571 13.7104 28.6498 13.5991C28.6574 13.1471 28.4921 12.7101 28.1893 12.3815C28.0415 12.2376 27.867 12.1256 27.6762 12.052C27.4854 11.9785 27.2821 11.945 27.0785 11.9534C26.8688 11.9425 26.6594 11.9787 26.4647 12.0593C26.2701 12.14 26.095 12.2632 25.9516 12.4204C25.6603 12.7753 25.4992 13.2235 25.4961 13.6873C25.4888 13.8949 25.4888 14.1022 25.4961 14.3091C25.4992 14.773 25.6603 15.2212 25.9516 15.5761C26.095 15.7333 26.2701 15.8565 26.4647 15.9372C26.6594 16.0178 26.8688 16.054 27.0785 16.0431C27.2806 16.0506 27.4823 16.0172 27.6719 15.9448C27.8615 15.8724 28.0353 15.7624 28.1834 15.6211C28.3311 15.4713 28.4483 15.293 28.5284 15.0964C28.6084 14.8999 28.6497 14.689 28.6498 14.4761Z" fill="#D14406" stroke="#D14406" stroke-width="0.3"/>
<defs>
<linearGradient id="paint0_linear" x1="24.1573" y1="20.2783" x2="13.391" y2="60.7453" gradientUnits="userSpaceOnUse">
<stop stop-color="#FFC59A"/>
<stop offset="1" stop-color="#FF7062"/>
</linearGradient>
</defs>
</svg>
