<svg width="30" height="30" viewBox="0 0 30 30" fill="none" xmlns="http://www.w3.org/2000/svg">
<path d="M15.9 29L21.6 16.6C21.5 16.3 21.4 16.3 21.4 16.3C21.4 16.3 20 13.5 17.5 13.5C12.8 13.5 13.3 17 8.4 17C3.7 17 1.1 15.6 0.999998 15.5C0.699998 15.3 0.599998 15 0.699998 14.7C5 1.6 4.6 2.3 5.1 2.2C5.3 2.1 5.5 2.1 5.7 2.2C5.7 2.2 8.1 3.5 12.4 3.5C16.6 3.5 16.2 0 21.5 0C23.8 0 26.1 2.1 27.4 3.6L28 2.2C28.2 1.8 28.6 1.7 28.9 1.8C29.3 2 29.4 2.4 29.3 2.7L28.2 5L17.1 29.4C16.8 30.4 15.5 29.8 15.9 29Z" fill="#985801"/>
<path d="M2.2 14.5C3.1 14.9 5.3 15.6 8.4 15.6C10.4 15.6 11.2 14.9 12.2 14.1C13.3 13.2 14.6 12.1 17.5 12.1C17.9 12 20.4 12.2 22.3 15L26.8 4.99999C25.3 3.19999 23.2 1.39999 21.5 1.39999C19.2 1.39999 18.2 2.19999 17.1 3.09999C16.1 3.99999 14.9 4.99999 12.4 4.99999C9.1 4.99999 6.9 4.19999 5.8 3.79999L2.2 14.5Z" fill="#FFC76F"/>
<path d="M5.6 13.2C4.7 12.9 5.2 11.6 6 11.9C6 11.9 7.5 12.4 8.9 11.9C9.8 11.6 10.2 13 9.3 13.2C8.1 13.6 6.6 13.5 5.6 13.2Z" fill="url(#paint0_linear_143_3374)"/>
<path d="M16.8 9.59999C16.3 8.19999 19.7 8.19999 21 8.69999C21.9 8.99999 21.4 10.3 20.6 9.99999C20.6 9.99999 19.1 9.49999 17.7 9.99999C17.4 10.2 17 9.99999 16.8 9.59999Z" fill="url(#paint1_linear_143_3374)"/>
<path d="M12.7 8.49999L14.4 7.39999C15.2 6.89999 15.9 8.09999 15.1 8.59999L13.4 9.69999C12.6 10.2 11.9 8.99999 12.7 8.49999Z" fill="url(#paint2_linear_143_3374)"/>
<path d="M7.2 8.10001C6.3 7.80001 6.8 6.50001 7.7 6.80001C7.7 6.80001 9.2 7.30001 10.6 6.80001C11 6.70001 11.4 6.90001 11.5 7.20001C11.6 7.60001 11.4 8.00001 11 8.10001C9.8 8.50001 8.3 8.50001 7.2 8.10001Z" fill="url(#paint3_linear_143_3374)"/>
<path d="M19.4 6.1C19 6.2 18.6 6 18.5 5.7C18 4.3 21.4 4.3 22.7 4.8C23.1 4.9 23.3 5.3 23.1 5.7C22.8 6.8 21.6 5.4 19.4 6.1Z" fill="url(#paint4_linear_143_3374)"/>
<defs>
<linearGradient id="paint0_linear_143_3374" x1="5.0772" y1="12.6085" x2="9.8455" y2="12.6085" gradientUnits="userSpaceOnUse">
<stop stop-color="#E1590A"/>
<stop offset="1" stop-color="#C23102"/>
</linearGradient>
<linearGradient id="paint1_linear_143_3374" x1="16.7955" y1="9.26419" x2="21.5724" y2="9.26419" gradientUnits="userSpaceOnUse">
<stop stop-color="#E1590A"/>
<stop offset="1" stop-color="#C23102"/>
</linearGradient>
<linearGradient id="paint2_linear_143_3374" x1="12.3306" y1="8.60979" x2="15.4735" y2="8.60979" gradientUnits="userSpaceOnUse">
<stop stop-color="#E1590A"/>
<stop offset="1" stop-color="#C23102"/>
</linearGradient>
<linearGradient id="paint3_linear_143_3374" x1="6.7517" y1="7.58221" x2="11.5236" y2="7.58221" gradientUnits="userSpaceOnUse">
<stop stop-color="#E1590A"/>
<stop offset="1" stop-color="#C23102"/>
</linearGradient>
<linearGradient id="paint4_linear_143_3374" x1="18.4711" y1="5.3527" x2="23.2489" y2="5.3527" gradientUnits="userSpaceOnUse">
<stop stop-color="#E1590A"/>
<stop offset="1" stop-color="#C23102"/>
</linearGradient>
</defs>
</svg>
