<svg width="30" height="30" viewBox="0 0 30 30" fill="none" xmlns="http://www.w3.org/2000/svg">
<g clip-path="url(#clip0_205_7631)">
<path d="M15 30C23.2843 30 30 23.2843 30 15C30 6.71573 23.2843 0 15 0C6.71573 0 0 6.71573 0 15C0 23.2843 6.71573 30 15 30Z" fill="#FFC76F"/>
<path d="M20.5 15.3998L18 12.8998L20.5 10.2998" stroke="url(#paint0_linear_205_7631)" stroke-width="1.5" stroke-miterlimit="10"/>
<path d="M9.5 10.2998L12 12.8998L9.5 15.3998" stroke="url(#paint1_linear_205_7631)" stroke-width="1.5" stroke-miterlimit="10"/>
<path d="M15 1.5C22.4 1.5 28.5 7.6 28.5 15C28.5 22.4 22.4 28.5 15 28.5C7.6 28.5 1.5 22.4 1.5 15C1.5 7.6 7.6 1.5 15 1.5ZM15 0C6.7 0 0 6.7 0 15C0 23.3 6.7 30 15 30C23.3 30 30 23.3 30 15C30 6.7 23.3 0 15 0Z" fill="#985801"/>
<path d="M4.8999 17.6001L10.5999 20.9001" stroke="url(#paint2_linear_205_7631)" stroke-width="1.5" stroke-miterlimit="10"/>
<path d="M3.99994 19.3C3.09994 18.8 2.69994 17.5 3.29994 16.6C3.79994 15.7 5.09995 15.3 5.99994 15.9C6.89995 16.4 7.29994 17.7 6.69994 18.6C6.09994 19.5 4.89994 19.9 3.99994 19.3Z" fill="url(#paint3_linear_205_7631)"/>
<path d="M15 18.3999C11.9 18.3999 9.19998 20.3999 7.59998 23.3999H9.29998C10.6 21.2999 12.7 19.8999 15 19.8999C17.3 19.8999 19.3 21.2999 20.7 23.3999H22.4C20.8 20.3999 18.1 18.3999 15 18.3999Z" fill="url(#paint4_linear_205_7631)"/>
<path d="M25.7 12.6C23.3 12.6 21.4 10.7 21.4 8.3C21.4 6.3 24.3 2 24.9 1.1L25.7 0L26.5 1.2C27.1 2 30 6.3 30 8.3C30 10.7 28.1 12.6 25.7 12.6Z" fill="#FFC76F"/>
<path d="M25.7 1.7998C25.7 1.7998 22.4 6.5998 22.4 8.3998C22.4 10.1998 23.9 11.6998 25.7 11.6998C27.5 11.6998 29 10.1998 29 8.3998C29 6.5998 25.7 1.7998 25.7 1.7998Z" fill="url(#paint5_linear_205_7631)"/>
</g>
<defs>
<linearGradient id="paint0_linear_205_7631" x1="18.9977" y1="15.8976" x2="18.9977" y2="9.809" gradientUnits="userSpaceOnUse">
<stop stop-color="#E1590A"/>
<stop offset="1" stop-color="#C23102"/>
</linearGradient>
<linearGradient id="paint1_linear_205_7631" x1="11.0023" y1="15.8976" x2="11.0023" y2="9.809" gradientUnits="userSpaceOnUse">
<stop stop-color="#E1590A"/>
<stop offset="1" stop-color="#C23102"/>
</linearGradient>
<linearGradient id="paint2_linear_205_7631" x1="7.3543" y1="19.8594" x2="8.1043" y2="18.5603" gradientUnits="userSpaceOnUse">
<stop stop-color="#E1590A"/>
<stop offset="1" stop-color="#C23102"/>
</linearGradient>
<linearGradient id="paint3_linear_205_7631" x1="4.56814" y1="18.2506" x2="5.31814" y2="16.9516" gradientUnits="userSpaceOnUse">
<stop stop-color="#E1590A"/>
<stop offset="1" stop-color="#C23102"/>
</linearGradient>
<linearGradient id="paint4_linear_205_7631" x1="7.63998" y1="20.8677" x2="22.36" y2="20.8677" gradientUnits="userSpaceOnUse">
<stop stop-color="#E1590A"/>
<stop offset="1" stop-color="#C23102"/>
</linearGradient>
<linearGradient id="paint5_linear_205_7631" x1="22.4142" y1="6.7003" x2="29" y2="6.7003" gradientUnits="userSpaceOnUse">
<stop stop-color="#E1590A"/>
<stop offset="1" stop-color="#C23102"/>
</linearGradient>
<clipPath id="clip0_205_7631">
<rect width="30" height="30" fill="white"/>
</clipPath>
</defs>
</svg>
