<svg width="40" height="31" viewBox="0 0 40 31" fill="none" xmlns="http://www.w3.org/2000/svg">
<path d="M17.5171 0.477295V8.65911C17.5171 11.0739 17.0626 13.6165 16.1535 16.2869C15.2728 18.929 14.0228 21.4716 12.4035 23.9148C10.7842 26.358 8.88079 28.4602 6.69329 30.2216L0.386475 25.7045C2.06261 23.2614 3.51147 20.6619 4.73306 17.9062C5.98306 15.1506 6.60806 12.1108 6.60806 8.78695V0.477295H17.5171ZM39.2075 0.477295V8.65911C39.2075 11.0739 38.7529 13.6165 37.8439 16.2869C36.9632 18.929 35.7132 21.4716 34.0939 23.9148C32.4745 26.358 30.5711 28.4602 28.3836 30.2216L22.0768 25.7045C23.7529 23.2614 25.2018 20.6619 26.4234 17.9062C27.6734 15.1506 28.2984 12.1108 28.2984 8.78695V0.477295H39.2075Z" fill="#292929"/>
</svg>
