<svg width="16" height="18" viewBox="0 0 16 18" fill="none" xmlns="http://www.w3.org/2000/svg">
<path d="M15.3281 5.625H0.421875C0.188895 5.625 0 5.43611 0 5.20312V3.9375C0 3.00551 0.755508 2.25 1.6875 2.25H3.375V0.421875C3.375 0.188895 3.56389 0 3.79688 0H5.20312C5.43611 0 5.625 0.188895 5.625 0.421875V2.25H10.125V0.421875C10.125 0.188895 10.3139 0 10.5469 0H11.9531C12.1861 0 12.375 0.188895 12.375 0.421875V2.25H14.0625C14.9945 2.25 15.75 3.00551 15.75 3.9375V5.20312C15.75 5.43611 15.5611 5.625 15.3281 5.625ZM0.421875 6.75H15.3281C15.5611 6.75 15.75 6.93889 15.75 7.17188V16.3125C15.75 17.2445 14.9945 18 14.0625 18H1.6875C0.755508 18 0 17.2445 0 16.3125V7.17188C0 6.93889 0.188895 6.75 0.421875 6.75ZM12.1393 10.1231L11.149 9.12477C10.9849 8.95936 10.7178 8.95827 10.5524 9.12238L6.82453 12.8203L5.20805 11.1907C5.04397 11.0253 4.77682 11.0242 4.61141 11.1883L3.61308 12.1787C3.44767 12.3427 3.44658 12.6098 3.61069 12.7753L6.51463 15.7027C6.6787 15.8681 6.94582 15.8692 7.11123 15.7051L12.1369 10.7197C12.3023 10.5557 12.3034 10.2885 12.1393 10.1231Z" fill="url(#paint0_linear_209_5652)"/>
<defs>
<linearGradient id="paint0_linear_209_5652" x1="7.875" y1="0" x2="7.875" y2="18" gradientUnits="userSpaceOnUse">
<stop stop-color="#E1590A"/>
<stop offset="1" stop-color="#C23102"/>
</linearGradient>
</defs>
</svg>
