<svg width="15" height="18" viewBox="0 0 15 18" fill="none" xmlns="http://www.w3.org/2000/svg">
<path d="M7.07144 0C5.19666 0.00221173 3.39929 0.747945 2.07362 2.07362C0.747953 3.39929 0.00221925 5.19665 7.52328e-06 7.07143C-0.00223791 8.6035 0.498209 10.094 1.42458 11.3143C1.42458 11.3143 1.61744 11.5682 1.64894 11.6049L7.07144 18L12.4965 11.6016C12.5248 11.5676 12.7183 11.3143 12.7183 11.3143L12.7189 11.3124C13.6448 10.0926 14.1451 8.6028 14.1429 7.07143C14.1407 5.19665 13.3949 3.39929 12.0692 2.07362C10.7436 0.747945 8.94622 0.00221173 7.07144 0ZM9.77786 7.52271L7.07337 10.2857L4.36501 7.52271C4.03981 7.18695 3.85798 6.73786 3.85798 6.27043C3.85798 5.803 4.03981 5.3539 4.36501 5.01814C4.52448 4.85423 4.71518 4.72394 4.92585 4.63498C5.13653 4.54602 5.36289 4.50018 5.59158 4.50018C5.82027 4.50018 6.04663 4.54602 6.2573 4.63498C6.46798 4.72394 6.65868 4.85423 6.81815 5.01814L7.07337 5.2785L7.32601 5.01814C7.48548 4.85423 7.67618 4.72394 7.88685 4.63498C8.09753 4.54602 8.32389 4.50018 8.55258 4.50018C8.78127 4.50018 9.00763 4.54602 9.2183 4.63498C9.42898 4.72394 9.61968 4.85423 9.77915 5.01814C10.1043 5.3539 10.2862 5.803 10.2862 6.27043C10.2862 6.73786 10.1043 7.18695 9.77915 7.52271H9.77786Z" fill="url(#paint0_linear_209_5656)"/>
<defs>
<linearGradient id="paint0_linear_209_5656" x1="7.07144" y1="0" x2="7.07144" y2="18" gradientUnits="userSpaceOnUse">
<stop stop-color="#E1590A"/>
<stop offset="1" stop-color="#C23102"/>
</linearGradient>
</defs>
</svg>
