<svg width="34" height="34" viewBox="0 0 34 34" fill="none" xmlns="http://www.w3.org/2000/svg">
<path d="M31.5029 11.1251C31.6053 6.78244 28.1566 3.10233 23.8129 3.05512C20.9048 3.02347 18.3609 4.58896 16.9998 6.92771C15.6384 4.58896 13.0948 3.02321 10.1866 3.05512C5.84297 3.10233 2.39424 6.78244 2.4967 11.1251C2.72601 20.829 14.3321 29.2693 16.613 30.8359C16.8462 30.9962 17.1533 30.9962 17.3865 30.8359C19.6675 29.2693 31.2735 20.829 31.5029 11.1251Z" fill="#FFC76F" stroke="#985801" stroke-width="1.2"/>
<path d="M16.9036 25.0785C16.4818 25.0785 16.1194 24.7784 16.0411 24.3634L13.8979 12.979L11.6175 18.3984C11.4847 18.7141 11.1807 18.9235 10.8385 18.9351C10.4959 18.9468 10.1786 18.7582 10.0248 18.4524L9.4152 17.2407H0.877552C0.392992 17.2407 0 16.8477 0 16.3632C0 15.8784 0.392992 15.4856 0.877552 15.4856H9.95605C10.286 15.4856 10.5879 15.6706 10.7376 15.9642L13.4118 9.60969C13.562 9.2525 13.9288 9.03616 14.3135 9.0774C14.6987 9.11839 15.0112 9.40684 15.0831 9.78764L16.8501 19.1751L17.5814 14.7827C17.6517 14.3593 18.0177 14.0491 18.4467 14.0491H21.3108C21.6075 14.0491 21.8843 14.199 22.0462 14.4475L23.3909 16.5116L23.9709 15.806C24.1377 15.6031 24.3865 15.4856 24.649 15.4856H33.1226C33.6071 15.4856 33.9999 15.8786 33.9999 16.3632C33.9999 16.8477 33.6071 17.2407 33.1226 17.2407H25.0638L23.9873 18.5504C23.8098 18.7663 23.5398 18.8848 23.261 18.8695C22.9816 18.8542 22.7266 18.7066 22.5741 18.4724L20.8356 15.8042H19.1904L17.7692 24.3449C17.6994 24.7646 17.3383 25.0738 16.9129 25.0783C16.9098 25.0783 16.9064 25.0785 16.9036 25.0785Z" fill="#CC3E04"/>
</svg>
