<svg width="32" height="32" viewBox="0 0 32 32" fill="none" xmlns="http://www.w3.org/2000/svg">
<path d="M16 32C24.8366 32 32 24.8366 32 16C32 7.16344 24.8366 0 16 0C7.16344 0 0 7.16344 0 16C0 24.8366 7.16344 32 16 32Z" fill="url(#paint0_linear_427_889)"/>
<rect width="18.2857" height="18.2857" transform="translate(6.85693 6.85722)" fill="url(#paint1_linear_427_889)"/>
<mask id="mask0_427_889" style="mask-type:alpha" maskUnits="userSpaceOnUse" x="6" y="6" width="20" height="20">
<rect x="6.85693" y="6.85722" width="18.2857" height="18.2857" fill="#C4C4C4"/>
</mask>
<g mask="url(#mask0_427_889)">
<path d="M22.5011 9.90485H9.49847C9.06851 9.90631 8.6567 10.081 8.35344 10.3906C8.05018 10.7001 7.88026 11.1192 7.88099 11.5559L7.8728 21.4601C7.87406 21.8976 8.04574 22.3168 8.35034 22.6262C8.65494 22.9356 9.06771 23.1099 9.49847 23.1112H22.5011C22.9319 23.1099 23.3446 22.9356 23.6492 22.6262C23.9538 22.3168 24.1255 21.8976 24.1268 21.4601V11.5559C24.1255 11.1184 23.9538 10.6992 23.6492 10.3898C23.3446 10.0805 22.9319 9.90613 22.5011 9.90485ZM22.5011 13.2063L15.9998 17.3329L9.49847 13.2063V11.5559L15.9998 15.6825L22.5011 11.5559V13.2063Z" fill="white"/>
</g>
<rect width="18.2857" height="18.2857" transform="translate(6.85693 6.85722)" fill="url(#paint2_linear_427_889)"/>
<mask id="mask1_427_889" style="mask-type:alpha" maskUnits="userSpaceOnUse" x="6" y="6" width="20" height="20">
<rect x="6.85693" y="6.85722" width="18.2857" height="18.2857" fill="#C4C4C4"/>
</mask>
<g mask="url(#mask1_427_889)">
<path d="M22.5011 9.90485H9.49847C9.06851 9.90631 8.6567 10.081 8.35344 10.3906C8.05018 10.7001 7.88026 11.1192 7.88099 11.5559L7.8728 21.4601C7.87406 21.8976 8.04574 22.3168 8.35034 22.6262C8.65494 22.9356 9.06771 23.1099 9.49847 23.1112H22.5011C22.9319 23.1099 23.3446 22.9356 23.6492 22.6262C23.9538 22.3168 24.1255 21.8976 24.1268 21.4601V11.5559C24.1255 11.1184 23.9538 10.6992 23.6492 10.3898C23.3446 10.0805 22.9319 9.90613 22.5011 9.90485ZM22.5011 13.2063L15.9998 17.3329L9.49847 13.2063V11.5559L15.9998 15.6825L22.5011 11.5559V13.2063Z" fill="white"/>
</g>
<defs>
<linearGradient id="paint0_linear_427_889" x1="16" y1="0" x2="16" y2="32" gradientUnits="userSpaceOnUse">
<stop stop-color="#EA6544"/>
<stop offset="1" stop-color="#D12A1E"/>
</linearGradient>
<linearGradient id="paint1_linear_427_889" x1="9.14286" y1="0" x2="9.14286" y2="18.2857" gradientUnits="userSpaceOnUse">
<stop stop-color="#EA6544"/>
<stop offset="1" stop-color="#D12A1E"/>
</linearGradient>
<linearGradient id="paint2_linear_427_889" x1="9.14286" y1="0" x2="9.14286" y2="18.2857" gradientUnits="userSpaceOnUse">
<stop stop-color="#EA6544"/>
<stop offset="1" stop-color="#D12A1E"/>
</linearGradient>
</defs>
</svg>
