<svg width="287" height="96" viewBox="0 0 287 96" fill="none" xmlns="http://www.w3.org/2000/svg">
<path d="M287 74C287 59.7295 222.753 33 143.5 33C64.2471 33 0 59.7295 0 74C0 74 64.2471 74 143.5 74C222.753 74 287 74 287 74Z" fill="url(#paint0_linear_431_18620)" fill-opacity="0.15"/>
<path d="M188 87.8533C188 82.4115 168.077 80 143.5 80C118.923 80 99 82.4115 99 87.8533C99 93.2951 118.923 96 143.5 96C168.077 96 188 93.2951 188 87.8533Z" fill="#F78D8D" fill-opacity="0.15"/>
<rect x="98.3047" y="8.29492" width="66.4496" height="76.1503" rx="7" transform="rotate(-7.03859 98.3047 8.29492)" fill="url(#paint1_linear_431_18620)"/>
<path d="M99.3114 16.1098C98.3686 12.0594 101.144 8.08516 105.271 7.57557L157.176 1.16699C161.357 0.650722 165.044 3.91827 165.034 8.13139L165.025 11.5073C165.019 14.0304 163.134 16.1536 160.63 16.4584L105.536 23.1649C103.001 23.4735 100.641 21.8222 100.062 19.3351L99.3114 16.1098Z" fill="#DD6E00" fill-opacity="0.6"/>
<path d="M99.5963 16.512C98.2489 12.3307 101.041 7.95612 105.401 7.4178L157.03 1.04333C161.406 0.502981 165.186 4.09484 164.869 8.49308L164.725 10.5018C164.553 12.8841 162.721 14.8125 160.35 15.1052L105.589 21.8665C103.207 22.1605 100.953 20.7215 100.217 18.4378L99.5963 16.512Z" fill="url(#paint2_linear_431_18620)"/>
<circle cx="131.526" cy="13.1381" r="3.89249" transform="rotate(-7.03859 131.526 13.1381)" fill="white"/>
<path opacity="0.2" d="M134.063 22.9186C134.79 16.8159 140.798 12.807 146.712 14.4784L149.496 15.2651C152.733 16.1799 155.293 18.6611 156.309 21.8679L170.859 67.7932C173.137 74.9838 166.938 82.0119 159.519 80.6489L137.111 76.532C131.92 75.5783 128.364 70.7546 128.989 65.5137L134.063 22.9186Z" fill="#9D031B" fill-opacity="0.5"/>
<rect x="137.389" y="13.4941" width="51.019" height="62.5693" rx="8" transform="rotate(10.7778 137.389 13.4941)" fill="url(#paint3_linear_431_18620)"/>
<path opacity="0.2" d="M122.874 29.6689C122.924 24.0205 127.64 19.5351 133.284 19.7671L154.062 20.6214C159.352 20.8388 163.555 25.1407 163.65 30.4336L164.376 70.9371C164.475 76.459 160.079 81.0157 154.557 81.1147L132.678 81.507C127.05 81.6079 122.448 77.0468 122.499 71.4189L122.874 29.6689Z" fill="#9D031B" fill-opacity="0.5"/>
<path opacity="0.2" d="M127.007 28.9666C127.278 23.4609 131.952 19.2124 137.459 19.4679L164.631 20.7289C167.12 20.8444 169.477 21.8851 171.239 23.6471L172.681 25.0898L173.958 26.4945C175.812 28.5334 176.742 31.2468 176.529 33.9941L173.429 73.985C173.012 79.3622 168.406 83.4402 163.018 83.2024L134.467 81.9426C128.93 81.6983 124.648 76.9974 124.92 71.4617L127.007 28.9666Z" fill="#9D031B" fill-opacity="0.5"/>
<path d="M125.037 26.9744C125.253 22.5699 128.993 19.1711 133.398 19.3755L163.337 20.7648C165.328 20.8572 167.213 21.6897 168.623 23.0994L170.613 25.0898L172.567 27.2395C173.993 28.8082 174.739 30.8788 174.639 32.9965L172.62 75.942C172.412 80.362 168.656 83.7738 164.237 83.5567L130.349 81.8921C125.936 81.6753 122.534 77.9222 122.751 73.5092L125.037 26.9744Z" fill="#F5E2E2"/>
<path d="M174.774 32.616C174.774 32.2815 174.356 30.1072 174.266 29.6891L172.922 28.0165L171.353 26.5818L171.13 26.344L167.994 23.417C167.994 23.417 166.937 22.8311 166.202 22.5807C165.306 22.2756 163.902 20.9082 163.902 20.9082L165.575 30.9435L174.774 35.1248C174.923 33.5917 174.774 32.9505 174.774 32.616Z" fill="#DD6E00" fill-opacity="0.1"/>
<path d="M174.774 32.1979C174.774 31.8634 174.774 29.689 173.938 28.8528L172.683 27.1802L171.219 25.7455L171.011 25.5077L168.084 22.5807C168.084 22.5807 166.679 21.5766 165.993 21.3263C165.157 21.0212 163.902 20.9082 163.902 20.9082L166.411 30.1072L174.774 34.7067V32.1979Z" fill="#FDB96C"/>
<rect x="136.029" y="38.4688" width="27.6469" height="2.45882" transform="rotate(1.90456 136.029 38.4688)" fill="#DE181F"/>
<rect x="129.975" y="46.9082" width="37.5631" height="2.45882" transform="rotate(1.90456 129.975 46.9082)" fill="#C4C4C4"/>
<rect x="129.695" y="52.6797" width="37.5631" height="2.45882" transform="rotate(1.90456 129.695 52.6797)" fill="#C4C4C4"/>
<defs>
<linearGradient id="paint0_linear_431_18620" x1="143.03" y1="31.5561" x2="143.03" y2="73.7901" gradientUnits="userSpaceOnUse">
<stop stop-color="#F78D8D"/>
<stop offset="1" stop-color="white"/>
</linearGradient>
<linearGradient id="paint1_linear_431_18620" x1="131.287" y1="17.7574" x2="131.287" y2="94.1329" gradientUnits="userSpaceOnUse">
<stop stop-color="#FFBF74"/>
<stop offset="1" stop-color="#F4973B"/>
</linearGradient>
<linearGradient id="paint2_linear_431_18620" x1="129.984" y1="-1.03588" x2="132.986" y2="20.4221" gradientUnits="userSpaceOnUse">
<stop stop-color="#FFBF74"/>
<stop offset="1" stop-color="#F4973B"/>
</linearGradient>
<linearGradient id="paint3_linear_431_18620" x1="166.021" y1="-60.3349" x2="162.557" y2="83.4172" gradientUnits="userSpaceOnUse">
<stop stop-color="#FFC59A"/>
<stop offset="0.774583" stop-color="#FF826E"/>
<stop offset="1" stop-color="#FF7062"/>
</linearGradient>
</defs>
</svg>
