<svg width="255" height="49" viewBox="0 0 255 49" fill="none" xmlns="http://www.w3.org/2000/svg">
<path fill-rule="evenodd" clip-rule="evenodd" d="M19.3505 0.507812H234.847C241.206 0.507812 246.596 3.30127 247.496 7.06133L254.067 34.5419C255.064 38.7151 250.211 42.5856 243.224 43.1786C242.625 43.229 242.022 43.255 241.417 43.255H12.7785C5.72147 43.255 0 39.8371 0 35.6203C5.17072e-05 35.2567 0.0429376 34.8943 0.127785 34.5406L6.70115 7.06133C7.60664 3.30127 12.9915 0.507812 19.3505 0.507812Z" fill="white"/>
<path fill-rule="evenodd" clip-rule="evenodd" d="M19.326 2.55469H234.837C241.196 2.55469 246.588 5.37405 247.487 9.16819L253.586 33.6699C255.332 40.372 250.202 45.0114 243.216 45.614C242.617 45.6658 242.014 45.6917 241.409 45.6917L127.52 48.2262L12.7554 45.689C5.69701 45.689 -0.881853 41.2977 0.591109 33.2023C0.591109 32.8383 6.6767 9.16682 6.6767 9.16682C7.57531 5.37268 12.9643 2.55469 19.326 2.55469Z" fill="url(#paint0_linear)"/>
<path d="M218.225 38.7355C225.434 38.7355 231.278 32.9369 231.278 25.7839C231.278 18.6309 225.434 12.8323 218.225 12.8323C211.016 12.8323 205.172 18.6309 205.172 25.7839C205.172 32.9369 211.016 38.7355 218.225 38.7355Z" fill="white"/>
<path d="M224.281 26.0607L214.768 32.3579L214.558 20.0879L224.281 26.0607Z" fill="#D32A30"/>
<path d="M34.6591 20.151C35.6123 20.151 36.4512 20.3226 37.1756 20.6658C37.9001 20.9962 38.4593 21.4665 38.8533 22.0766C39.2473 22.6867 39.4443 23.3921 39.4443 24.1928V29.4546C39.4443 30.2554 39.2473 30.9608 38.8533 31.5708C38.4593 32.1809 37.9001 32.6575 37.1756 33.0007C36.4512 33.3311 35.6123 33.4964 34.6591 33.4964H29.8929C29.8293 33.4964 29.7722 33.4773 29.7213 33.4392C29.6832 33.3883 29.6641 33.3311 29.6641 33.2676V27.6244C29.6641 27.5609 29.6323 27.5291 29.5688 27.5291H28.9206C28.857 27.5291 28.7999 27.51 28.749 27.4719C28.7109 27.4211 28.6918 27.3639 28.6918 27.3003V25.9277C28.6918 25.8641 28.7109 25.8133 28.749 25.7751C28.7999 25.7243 28.857 25.6989 28.9206 25.6989H29.5688C29.6323 25.6989 29.6641 25.6671 29.6641 25.6036V20.3798C29.6641 20.3163 29.6832 20.2654 29.7213 20.2273C29.7722 20.1765 29.8293 20.151 29.8929 20.151H34.6591ZM36.7562 24.6313C36.7562 23.9703 36.5719 23.4429 36.2033 23.0489C35.8475 22.6549 35.3645 22.4579 34.7544 22.4579H32.4476C32.384 22.4579 32.3523 22.4897 32.3523 22.5532V25.6036C32.3523 25.6671 32.384 25.6989 32.4476 25.6989H33.9728C34.0363 25.6989 34.0871 25.7243 34.1253 25.7751C34.1761 25.8133 34.2015 25.8641 34.2015 25.9277V27.3003C34.2015 27.3639 34.1761 27.4211 34.1253 27.4719C34.0871 27.51 34.0363 27.5291 33.9728 27.5291H32.4476C32.384 27.5291 32.3523 27.5609 32.3523 27.6244V31.0942C32.3523 31.1578 32.384 31.1895 32.4476 31.1895H34.7735C35.3581 31.1895 35.8284 30.9925 36.1843 30.5985C36.5401 30.2045 36.7308 29.6771 36.7562 29.0162V24.6313ZM47.1268 33.7061C46.1355 33.7061 45.2585 33.5027 44.4959 33.096C43.746 32.6893 43.1614 32.1237 42.7419 31.3992C42.3225 30.6621 42.1128 29.8169 42.1128 28.8636V24.7838C42.1128 23.8433 42.3225 23.0108 42.7419 22.2863C43.1614 21.5618 43.746 21.0026 44.4959 20.6086C45.2585 20.2019 46.1355 19.9985 47.1268 19.9985C48.1309 19.9985 49.0079 20.2019 49.7578 20.6086C50.5204 21.0026 51.1114 21.5618 51.5308 22.2863C51.9502 23.0108 52.1599 23.8433 52.1599 24.7838V28.8636C52.1599 29.8169 51.9502 30.6621 51.5308 31.3992C51.1114 32.1364 50.5204 32.7084 49.7578 33.1151C49.0079 33.5091 48.1309 33.7061 47.1268 33.7061ZM47.1268 31.3992C47.8259 31.3992 48.3915 31.1768 48.8236 30.732C49.2557 30.2871 49.4718 29.6961 49.4718 28.959V24.7647C49.4718 24.0275 49.2557 23.4365 48.8236 22.9917C48.4042 22.5341 47.8386 22.3054 47.1268 22.3054C46.4278 22.3054 45.8622 22.5341 45.4301 22.9917C45.0106 23.4365 44.8009 24.0275 44.8009 24.7647V28.959C44.8009 29.6961 45.0106 30.2871 45.4301 30.732C45.8622 31.1768 46.4278 31.3992 47.1268 31.3992ZM44.3243 19.0453C44.2353 19.0453 44.1718 19.0199 44.1337 18.969C44.1082 18.9055 44.121 18.8356 44.1718 18.7593L45.5635 16.7575C45.6271 16.6558 45.716 16.605 45.8304 16.605H48.366C48.4804 16.605 48.5694 16.6558 48.633 16.7575L50.0819 18.7593C50.12 18.8102 50.1391 18.8546 50.1391 18.8928C50.1391 18.9944 50.0692 19.0453 49.9294 19.0453H48.2135C48.0991 19.0453 48.0102 18.9944 47.9466 18.8928L47.184 17.7298C47.1459 17.6536 47.1078 17.6536 47.0696 17.7298L46.3071 18.8928C46.2435 18.9944 46.1545 19.0453 46.0401 19.0453H44.3243ZM49.7959 16.9482C49.618 16.91 49.5671 16.8147 49.6434 16.6622C49.7324 16.4461 49.8213 16.2745 49.9103 16.1474C49.9993 16.0076 50.1136 15.8615 50.2535 15.709C50.3933 15.5691 50.4886 15.4484 50.5394 15.3467C50.5903 15.245 50.6157 15.1116 50.6157 14.9464C50.6157 14.8193 50.5585 14.7112 50.4441 14.6223C50.3424 14.5333 50.2217 14.4888 50.0819 14.4888C49.9166 14.4888 49.7768 14.5269 49.6624 14.6032C49.5481 14.6795 49.4019 14.832 49.224 15.0608C49.1604 15.137 49.0969 15.1751 49.0333 15.1751C48.9698 15.1751 48.9189 15.1561 48.8808 15.1179L48.2326 14.6413C48.169 14.6032 48.1373 14.546 48.1373 14.4697C48.1373 14.4062 48.15 14.3554 48.1754 14.3172C48.455 13.9105 48.741 13.6245 49.0333 13.4593C49.3383 13.2814 49.7133 13.1924 50.1581 13.1924C50.7301 13.1924 51.1876 13.3513 51.5308 13.669C51.874 13.9741 52.0455 14.3998 52.0455 14.9464C52.0455 15.2387 51.982 15.4865 51.8549 15.6899C51.7405 15.8805 51.5626 16.0966 51.3211 16.3381C51.0542 16.6304 50.8889 16.8338 50.8254 16.9482C50.7491 17.088 50.6538 17.1388 50.5394 17.1007L49.7959 16.9482ZM55.4027 33.4964C55.3392 33.4964 55.282 33.4773 55.2311 33.4392C55.193 33.3883 55.1739 33.3311 55.1739 33.2676V20.3798C55.1739 20.3163 55.193 20.2654 55.2311 20.2273C55.282 20.1765 55.3392 20.151 55.4027 20.151H57.6333C57.6968 20.151 57.7477 20.1765 57.7858 20.2273C57.8367 20.2654 57.8621 20.3163 57.8621 20.3798V33.2676C57.8621 33.3311 57.8367 33.3883 57.7858 33.4392C57.7477 33.4773 57.6968 33.4964 57.6333 33.4964H55.4027ZM71.8726 20.151C72.8258 20.151 73.6647 20.3226 74.3891 20.6658C75.1136 20.9962 75.6728 21.4665 76.0668 22.0766C76.4608 22.6867 76.6578 23.3921 76.6578 24.1928V29.4546C76.6578 30.2554 76.4608 30.9608 76.0668 31.5708C75.6728 32.1809 75.1136 32.6575 74.3891 33.0007C73.6647 33.3311 72.8258 33.4964 71.8726 33.4964H67.1064C67.0428 33.4964 66.9857 33.4773 66.9348 33.4392C66.8967 33.3883 66.8776 33.3311 66.8776 33.2676V27.6244C66.8776 27.5609 66.8458 27.5291 66.7823 27.5291H66.1341C66.0705 27.5291 66.0134 27.51 65.9625 27.4719C65.9244 27.4211 65.9053 27.3639 65.9053 27.3003V25.9277C65.9053 25.8641 65.9244 25.8133 65.9625 25.7751C66.0134 25.7243 66.0705 25.6989 66.1341 25.6989H66.7823C66.8458 25.6989 66.8776 25.6671 66.8776 25.6036V20.3798C66.8776 20.3163 66.8967 20.2654 66.9348 20.2273C66.9857 20.1765 67.0428 20.151 67.1064 20.151H71.8726ZM73.9697 24.6313C73.9697 23.9703 73.7854 23.4429 73.4168 23.0489C73.061 22.6549 72.578 22.4579 71.9679 22.4579H69.6611C69.5975 22.4579 69.5657 22.4897 69.5657 22.5532V25.6036C69.5657 25.6671 69.5975 25.6989 69.6611 25.6989H71.1863C71.2498 25.6989 71.3006 25.7243 71.3388 25.7751C71.3896 25.8133 71.415 25.8641 71.415 25.9277V27.3003C71.415 27.3639 71.3896 27.4211 71.3388 27.4719C71.3006 27.51 71.2498 27.5291 71.1863 27.5291H69.6611C69.5975 27.5291 69.5657 27.5609 69.5657 27.6244V31.0942C69.5657 31.1578 69.5975 31.1895 69.6611 31.1895H71.987C72.5716 31.1895 73.0419 30.9925 73.3978 30.5985C73.7536 30.2045 73.9443 29.6771 73.9697 29.0162V24.6313ZM79.8406 33.4964C79.7771 33.4964 79.7199 33.4773 79.669 33.4392C79.6309 33.3883 79.6118 33.3311 79.6118 33.2676V20.3798C79.6118 20.3163 79.6309 20.2654 79.669 20.2273C79.7199 20.1765 79.7771 20.151 79.8406 20.151H82.0712C82.1347 20.151 82.1856 20.1765 82.2237 20.2273C82.2745 20.2654 82.3 20.3163 82.3 20.3798V33.2676C82.3 33.3311 82.2745 33.3883 82.2237 33.4392C82.1856 33.4773 82.1347 33.4964 82.0712 33.4964H79.8406ZM94.8388 22.2291C94.8388 22.2927 94.8133 22.3498 94.7625 22.4007C94.7244 22.4388 94.6735 22.4579 94.61 22.4579H88.3567C88.2932 22.4579 88.2614 22.4897 88.2614 22.5532V25.5082C88.2614 25.5718 88.2932 25.6036 88.3567 25.6036H92.4557C92.5192 25.6036 92.57 25.629 92.6082 25.6798C92.659 25.718 92.6844 25.7688 92.6844 25.8323V27.6816C92.6844 27.7452 92.659 27.8024 92.6082 27.8532C92.57 27.8913 92.5192 27.9104 92.4557 27.9104H88.3567C88.2932 27.9104 88.2614 27.9422 88.2614 28.0057V31.0942C88.2614 31.1578 88.2932 31.1895 88.3567 31.1895H94.61C94.6735 31.1895 94.7244 31.215 94.7625 31.2658C94.8133 31.3039 94.8388 31.3548 94.8388 31.4183V33.2676C94.8388 33.3311 94.8133 33.3883 94.7625 33.4392C94.7244 33.4773 94.6735 33.4964 94.61 33.4964H85.8021C85.7385 33.4964 85.6813 33.4773 85.6305 33.4392C85.5924 33.3883 85.5733 33.3311 85.5733 33.2676V20.3798C85.5733 20.3163 85.5924 20.2654 85.6305 20.2273C85.6813 20.1765 85.7385 20.151 85.8021 20.151H94.61C94.6735 20.151 94.7244 20.1765 94.7625 20.2273C94.8133 20.2654 94.8388 20.3163 94.8388 20.3798V22.2291ZM87.3463 19.0453C87.2573 19.0453 87.1938 19.0199 87.1557 18.969C87.1302 18.9055 87.1429 18.8356 87.1938 18.7593L88.5855 16.7575C88.6491 16.6558 88.738 16.605 88.8524 16.605H91.388C91.5024 16.605 91.5914 16.6558 91.6549 16.7575L93.1039 18.7593C93.142 18.8102 93.1611 18.8546 93.1611 18.8928C93.1611 18.9944 93.0912 19.0453 92.9513 19.0453H91.2355C91.1211 19.0453 91.0322 18.9944 90.9686 18.8928L90.206 17.7298C90.1679 17.6536 90.1298 17.6536 90.0916 17.7298L89.329 18.8928C89.2655 18.9944 89.1765 19.0453 89.0621 19.0453H87.3463ZM92.8179 16.9482C92.64 16.91 92.5891 16.8147 92.6654 16.6622C92.7543 16.4461 92.8433 16.2745 92.9323 16.1474C93.0212 16.0076 93.1356 15.8615 93.2754 15.709C93.4153 15.5691 93.5106 15.4484 93.5614 15.3467C93.6123 15.245 93.6377 15.1116 93.6377 14.9464C93.6377 14.8193 93.5805 14.7112 93.4661 14.6223C93.3644 14.5333 93.2437 14.4888 93.1039 14.4888C92.9386 14.4888 92.7988 14.5269 92.6844 14.6032C92.57 14.6795 92.4239 14.832 92.2459 15.0608C92.1824 15.137 92.1188 15.1751 92.0553 15.1751C91.9918 15.1751 91.9409 15.1561 91.9028 15.1179L91.2546 14.6413C91.191 14.6032 91.1593 14.546 91.1593 14.4697C91.1593 14.4062 91.172 14.3554 91.1974 14.3172C91.477 13.9105 91.763 13.6245 92.0553 13.4593C92.3603 13.2814 92.7353 13.1924 93.1801 13.1924C93.7521 13.1924 94.2096 13.3513 94.5528 13.669C94.8959 13.9741 95.0675 14.3998 95.0675 14.9464C95.0675 15.2387 95.004 15.4865 94.8769 15.6899C94.7625 15.8805 94.5846 16.0966 94.3431 16.3381C94.0762 16.6304 93.9109 16.8338 93.8474 16.9482C93.7711 17.088 93.6758 17.1388 93.5614 17.1007L92.8179 16.9482ZM106.239 20.3036C106.303 20.2019 106.392 20.151 106.506 20.151H108.737C108.8 20.151 108.851 20.1765 108.889 20.2273C108.94 20.2654 108.965 20.3163 108.965 20.3798V33.2676C108.965 33.3311 108.94 33.3883 108.889 33.4392C108.851 33.4773 108.8 33.4964 108.737 33.4964H106.506C106.443 33.4964 106.385 33.4773 106.334 33.4392C106.296 33.3883 106.277 33.3311 106.277 33.2676V24.86C106.277 24.8092 106.265 24.7838 106.239 24.7838C106.214 24.7838 106.188 24.8028 106.163 24.841L104.142 28.0057C104.079 28.1074 103.99 28.1582 103.875 28.1582H102.75C102.636 28.1582 102.547 28.1074 102.483 28.0057L100.463 24.841C100.437 24.8028 100.412 24.7901 100.386 24.8028C100.361 24.8028 100.348 24.8283 100.348 24.8791V33.2676C100.348 33.3311 100.323 33.3883 100.272 33.4392C100.234 33.4773 100.183 33.4964 100.119 33.4964H97.8888C97.8253 33.4964 97.7681 33.4773 97.7172 33.4392C97.6791 33.3883 97.66 33.3311 97.66 33.2676V20.3798C97.66 20.3163 97.6791 20.2654 97.7172 20.2273C97.7681 20.1765 97.8253 20.151 97.8888 20.151H100.119C100.234 20.151 100.323 20.2019 100.386 20.3036L103.246 24.7456C103.284 24.8219 103.322 24.8219 103.36 24.7456L106.239 20.3036ZM126.22 20.151C126.283 20.151 126.334 20.1765 126.372 20.2273C126.423 20.2654 126.449 20.3163 126.449 20.3798V22.2482C126.449 22.3117 126.423 22.3689 126.372 22.4197C126.334 22.4579 126.283 22.4769 126.22 22.4769H122.807C122.744 22.4769 122.712 22.5087 122.712 22.5723V33.2676C122.712 33.3311 122.686 33.3883 122.636 33.4392C122.597 33.4773 122.547 33.4964 122.483 33.4964H120.253C120.189 33.4964 120.132 33.4773 120.081 33.4392C120.043 33.3883 120.024 33.3311 120.024 33.2676V22.5723C120.024 22.5087 119.992 22.4769 119.928 22.4769H116.611C116.548 22.4769 116.49 22.4579 116.44 22.4197C116.401 22.3689 116.382 22.3117 116.382 22.2482V20.3798C116.382 20.3163 116.401 20.2654 116.44 20.2273C116.49 20.1765 116.548 20.151 116.611 20.151H126.22ZM136.209 20.3798C136.209 20.3163 136.228 20.2654 136.266 20.2273C136.317 20.1765 136.374 20.151 136.438 20.151H138.668C138.732 20.151 138.783 20.1765 138.821 20.2273C138.872 20.2654 138.897 20.3163 138.897 20.3798V33.2676C138.897 33.3311 138.872 33.3883 138.821 33.4392C138.783 33.4773 138.732 33.4964 138.668 33.4964H136.438C136.374 33.4964 136.317 33.4773 136.266 33.4392C136.228 33.3883 136.209 33.3311 136.209 33.2676V28.0057C136.209 27.9422 136.177 27.9104 136.114 27.9104H131.9C131.837 27.9104 131.805 27.9422 131.805 28.0057V33.2676C131.805 33.3311 131.78 33.3883 131.729 33.4392C131.691 33.4773 131.64 33.4964 131.576 33.4964H129.346C129.282 33.4964 129.225 33.4773 129.174 33.4392C129.136 33.3883 129.117 33.3311 129.117 33.2676V20.3798C129.117 20.3163 129.136 20.2654 129.174 20.2273C129.225 20.1765 129.282 20.151 129.346 20.151H131.576C131.64 20.151 131.691 20.1765 131.729 20.2273C131.78 20.2654 131.805 20.3163 131.805 20.3798V25.5082C131.805 25.5718 131.837 25.6036 131.9 25.6036H136.114C136.177 25.6036 136.209 25.5718 136.209 25.5082V20.3798ZM153.881 18.4924C154.033 18.4924 154.109 18.5687 154.109 18.7212C154.059 19.4711 153.83 20.0684 153.423 20.5133C153.016 20.9454 152.508 21.2314 151.898 21.3712C151.847 21.3839 151.822 21.4157 151.822 21.4665V29.0733C151.822 29.9757 151.612 30.7765 151.193 31.4755C150.786 32.1618 150.207 32.6956 149.458 33.0769C148.72 33.4582 147.863 33.6489 146.884 33.6489C145.905 33.6489 145.041 33.4582 144.291 33.0769C143.554 32.6956 142.976 32.1618 142.556 31.4755C142.149 30.7765 141.946 29.9757 141.946 29.0733V20.3798C141.946 20.3163 141.965 20.2654 142.003 20.2273C142.054 20.1765 142.111 20.151 142.175 20.151H144.405C144.469 20.151 144.52 20.1765 144.558 20.2273C144.609 20.2654 144.634 20.3163 144.634 20.3798V29.0924C144.634 29.766 144.838 30.3126 145.244 30.732C145.664 31.1387 146.21 31.3421 146.884 31.3421C147.557 31.3421 148.098 31.1387 148.504 30.732C148.924 30.3126 149.134 29.766 149.134 29.0924V20.3798C149.134 20.3163 149.153 20.2654 149.191 20.2273C149.242 20.1765 149.299 20.151 149.362 20.151H150.887C151.256 20.151 151.599 20.0494 151.917 19.846C152.235 19.6427 152.419 19.2677 152.47 18.7212C152.47 18.5687 152.546 18.4924 152.699 18.4924H153.881ZM163.338 21.2377C163.3 21.2504 163.28 21.2695 163.28 21.2949C163.28 21.3076 163.293 21.3267 163.319 21.3521C163.751 21.7715 164.081 22.2736 164.31 22.8582C164.539 23.4429 164.653 24.0847 164.653 24.7838V28.8636C164.653 29.8169 164.443 30.6621 164.024 31.3992C163.605 32.1364 163.014 32.7084 162.251 33.1151C161.501 33.5091 160.624 33.7061 159.62 33.7061C158.629 33.7061 157.752 33.5027 156.989 33.096C156.239 32.6893 155.655 32.1237 155.235 31.3992C154.816 30.6621 154.606 29.8169 154.606 28.8636V24.7838C154.606 23.8433 154.816 23.0108 155.235 22.2863C155.655 21.5618 156.239 21.0026 156.989 20.6086C157.752 20.2019 158.629 19.9985 159.62 19.9985C160.408 19.9985 161.126 20.1256 161.774 20.3798C161.851 20.3925 161.889 20.3925 161.889 20.3798C161.889 20.2273 161.965 20.1447 162.118 20.132C162.944 20.043 163.395 19.5727 163.471 18.7212C163.471 18.5687 163.547 18.4924 163.7 18.4924H164.882C164.945 18.4924 164.996 18.5242 165.034 18.5877C165.085 18.6386 165.104 18.7148 165.092 18.8165C165.041 19.4266 164.856 19.935 164.539 20.3417C164.221 20.7484 163.821 21.0471 163.338 21.2377ZM161.965 24.7647C161.965 24.0275 161.749 23.4365 161.317 22.9917C160.897 22.5341 160.332 22.3054 159.62 22.3054C158.921 22.3054 158.355 22.5341 157.923 22.9917C157.504 23.4365 157.294 24.0275 157.294 24.7647V28.959C157.294 29.6961 157.504 30.2871 157.923 30.732C158.355 31.1768 158.921 31.3992 159.62 31.3992C160.319 31.3992 160.885 31.1768 161.317 30.732C161.749 30.2871 161.965 29.6961 161.965 28.959V24.7647ZM159.353 19.255C159.175 19.2169 159.124 19.1215 159.201 18.969C159.29 18.753 159.379 18.5814 159.468 18.4543C159.556 18.3145 159.671 18.1683 159.811 18.0158C159.95 17.876 160.046 17.7552 160.097 17.6536C160.147 17.5519 160.173 17.4184 160.173 17.2532C160.173 17.1261 160.116 17.0181 160.001 16.9291C159.9 16.8401 159.779 16.7956 159.639 16.7956C159.474 16.7956 159.334 16.8338 159.22 16.91C159.105 16.9863 158.959 17.1388 158.781 17.3676C158.718 17.4438 158.654 17.482 158.591 17.482C158.527 17.482 158.476 17.4629 158.438 17.4248L157.79 16.9482C157.726 16.91 157.694 16.8528 157.694 16.7766C157.694 16.713 157.707 16.6622 157.733 16.6241C158.012 16.2174 158.298 15.9314 158.591 15.7662C158.896 15.5882 159.271 15.4992 159.715 15.4992C160.287 15.4992 160.745 15.6581 161.088 15.9759C161.431 16.2809 161.603 16.7067 161.603 17.2532C161.603 17.5455 161.539 17.7934 161.412 17.9967C161.298 18.1874 161.12 18.4034 160.878 18.6449C160.611 18.9373 160.446 19.1406 160.383 19.255C160.306 19.3948 160.211 19.4456 160.097 19.4075L159.353 19.255ZM175.331 20.3798C175.331 20.3163 175.35 20.2654 175.388 20.2273C175.439 20.1765 175.496 20.151 175.56 20.151H177.791C177.854 20.151 177.905 20.1765 177.943 20.2273C177.994 20.2654 178.019 20.3163 178.019 20.3798V33.2676C178.019 33.3311 177.994 33.3883 177.943 33.4392C177.905 33.4773 177.854 33.4964 177.791 33.4964H175.636C175.509 33.4964 175.42 33.4455 175.369 33.3439L170.432 25.1841C170.406 25.146 170.381 25.1333 170.355 25.146C170.33 25.146 170.317 25.1714 170.317 25.2223L170.355 33.2676C170.355 33.3311 170.33 33.3883 170.279 33.4392C170.241 33.4773 170.19 33.4964 170.126 33.4964H167.896C167.832 33.4964 167.775 33.4773 167.724 33.4392C167.686 33.3883 167.667 33.3311 167.667 33.2676V20.3798C167.667 20.3163 167.686 20.2654 167.724 20.2273C167.775 20.1765 167.832 20.151 167.896 20.151H170.05C170.177 20.151 170.266 20.2019 170.317 20.3036L175.236 28.4251C175.261 28.4633 175.287 28.4823 175.312 28.4823C175.338 28.4696 175.35 28.4379 175.35 28.387L175.331 20.3798ZM185.989 33.6489C185.01 33.6489 184.146 33.4519 183.396 33.0579C182.646 32.6639 182.062 32.1174 181.642 31.4183C181.236 30.7066 181.032 29.8868 181.032 28.959V24.6885C181.032 23.7606 181.236 22.9409 181.642 22.2291C182.062 21.5174 182.646 20.9708 183.396 20.5895C184.146 20.1955 185.01 19.9985 185.989 19.9985C186.955 19.9985 187.807 20.1892 188.544 20.5705C189.294 20.9518 189.872 21.4729 190.279 22.1338C190.698 22.782 190.908 23.5064 190.908 24.3072V24.4406C190.908 24.5042 190.882 24.5614 190.832 24.6122C190.793 24.6503 190.743 24.6694 190.679 24.6694H188.448C188.385 24.6694 188.328 24.6503 188.277 24.6122C188.239 24.5614 188.22 24.5042 188.22 24.4406V24.3834C188.22 23.7988 188.016 23.3094 187.61 22.9154C187.203 22.5087 186.663 22.3054 185.989 22.3054C185.303 22.3054 184.75 22.5214 184.33 22.9536C183.924 23.373 183.72 23.9259 183.72 24.6122V29.0352C183.72 29.7215 183.943 30.2808 184.388 30.7129C184.833 31.1323 185.398 31.3421 186.084 31.3421C186.745 31.3421 187.273 31.1705 187.667 30.8273C188.061 30.4714 188.258 29.9821 188.258 29.3593V28.5014C188.258 28.4379 188.226 28.4061 188.162 28.4061H186.027C185.964 28.4061 185.906 28.387 185.856 28.3489C185.818 28.298 185.798 28.2409 185.798 28.1773V26.4233C185.798 26.3598 185.818 26.309 185.856 26.2708C185.906 26.22 185.964 26.1946 186.027 26.1946H190.679C190.743 26.1946 190.793 26.22 190.832 26.2708C190.882 26.309 190.908 26.3598 190.908 26.4233V28.9399C190.908 29.9058 190.704 30.7447 190.298 31.4564C189.891 32.1682 189.313 32.7147 188.563 33.096C187.826 33.4646 186.968 33.6489 185.989 33.6489Z" fill="white"/>
<defs>
<linearGradient id="paint0_linear" x1="-46.0163" y1="-5.84886" x2="-28.7796" y2="90.5441" gradientUnits="userSpaceOnUse">
<stop stop-color="#EA553F"/>
<stop offset="1" stop-color="#D32A30"/>
</linearGradient>
</defs>
</svg>
