<svg width="289" height="136" viewBox="0 0 289 136" fill="none" xmlns="http://www.w3.org/2000/svg">
<path d="M8.56084 80.43C6.60169 71.873 11.1092 62.0406 13.434 57.7361C14.3019 56.05 14.7321 54.1729 14.685 52.2772C15.4701 54.0022 16.6753 55.5026 18.1905 56.6411C22.1593 59.5033 30.5014 66.3941 32.4617 74.9483C34.4639 83.6844 32.2545 88.7604 27.5879 90.6391C27.1611 90.8125 26.6868 90.8301 26.2483 90.6886C25.8098 90.5472 25.4351 90.2557 25.1901 89.8655C24.9762 89.5225 24.6607 89.2547 24.2875 89.0993C23.9143 88.944 23.502 88.9089 23.1079 88.9988C22.7138 89.0888 22.3575 89.2994 22.0887 89.6012C21.8199 89.9031 21.6518 90.2813 21.608 90.6832C21.5577 91.1418 21.3474 91.5681 21.0139 91.8871C20.6805 92.2061 20.2454 92.3973 19.7849 92.4272C18.5044 92.5269 17.218 92.3322 16.0243 91.858C12.7074 90.5244 10.0375 86.8712 8.56084 80.43ZM-17.8158 76.4018C-18.1132 76.0497 -18.2768 75.604 -18.278 75.1431C-18.2792 74.6822 -18.1178 74.2356 -17.8223 73.8819C-17.5615 73.5723 -17.4039 73.1889 -17.3715 72.7853C-17.339 72.3818 -17.4334 71.9782 -17.6414 71.6308C-17.8494 71.2835 -18.1607 71.0098 -18.5317 70.8479C-18.9028 70.6859 -19.3151 70.6439 -19.7112 70.7276C-20.1617 70.8202 -20.6303 70.7514 -21.0352 70.5332C-21.44 70.3151 -21.7551 69.9614 -21.9254 69.5343C-23.8024 64.8662 -21.6693 59.7573 -13.9785 55.1531C-6.44958 50.6452 4.29941 51.8938 9.11239 52.776C10.9833 53.0802 12.9006 52.9095 14.6883 52.2796C13.0406 51.3431 11.1838 50.8359 9.28876 50.8045C4.39449 50.8202 -6.40811 50.1475 -13.018 44.3804C-19.7742 38.4896 -20.9735 33.0837 -18.3021 28.821C-18.0588 28.4296 -17.6853 28.1365 -17.2473 27.9931C-16.8093 27.8498 -16.3348 27.8653 -15.9071 28.0371C-15.5319 28.1892 -15.1187 28.2203 -14.725 28.1262C-14.3313 28.032 -13.9768 27.8174 -13.711 27.5121C-13.4451 27.2069 -13.2812 26.8262 -13.2421 26.4233C-13.203 26.0205 -13.2906 25.6154 -13.4927 25.2647C-13.721 24.8643 -13.8009 24.3963 -13.7185 23.9428C-13.636 23.4894 -13.3965 23.0794 -13.042 22.785C-9.18298 19.5576 -3.66379 20.0079 3.09111 25.8993C9.7042 31.6666 11.8388 42.2746 12.4881 47.1251C12.7776 48.9985 13.5325 50.7693 14.6835 52.2755C13.2837 53.5541 12.2274 55.1636 11.6113 56.9565C10.1161 61.6156 6.13979 71.6789 -1.38911 76.1867C-6.8966 79.4847 -11.2862 80.1466 -14.5196 78.8412C-15.8039 78.3144 -16.9367 77.4761 -17.8158 76.4018ZM19.4907 55.1528C18.1552 53.8072 16.5032 52.8182 14.6863 52.2767C16.5707 52.0649 18.3718 51.3833 19.9242 50.2945C23.8718 47.4059 33.0033 41.6009 41.748 42.3805C50.6752 43.1756 54.8202 46.8456 55.164 51.8649C55.1979 52.3244 55.0688 52.7811 54.7994 53.1549C54.5301 53.5287 54.1376 53.7957 53.691 53.9089C53.2979 54.006 52.9448 54.2235 52.6812 54.531C52.4177 54.8385 52.2567 55.2206 52.2208 55.624C52.1849 56.0274 52.2759 56.4319 52.4811 56.7811C52.6863 57.1302 52.9954 57.4066 53.3652 57.5716C53.7858 57.7615 54.1259 58.0938 54.3255 58.5099C54.5252 58.926 54.5716 59.3991 54.4567 59.8461C53.2311 64.7242 48.5022 67.6033 39.5737 66.8088C37.5051 66.6032 35.4781 66.0936 33.5583 65.2962C27.3207 62.7718 22.0684 57.8596 19.4907 55.1528ZM14.4192 46.6833C12.8914 42.0345 10.193 31.5567 13.6337 23.4837C17.1511 15.2369 21.9232 12.4323 26.8011 13.6557C27.2486 13.7662 27.6428 14.0309 27.9145 14.4032C28.1862 14.7755 28.3179 15.2316 28.2867 15.6915C28.2577 16.0953 28.3554 16.4981 28.5663 16.8437C28.7773 17.1892 29.0908 17.4604 29.4633 17.6191C29.8357 17.7779 30.2484 17.8165 30.6438 17.7294C31.0392 17.6423 31.3975 17.434 31.6688 17.1334C31.9789 16.7924 32.3993 16.5716 32.856 16.5098C33.3128 16.4479 33.7767 16.5491 34.1663 16.7954C38.4282 19.4686 39.7055 24.8575 36.1892 33.1015C32.7479 41.1731 23.3179 46.4811 18.9062 48.5965C17.2137 49.4507 15.7627 50.7161 14.6863 52.2767C15.0669 50.4197 14.9753 48.4969 14.4197 46.6846L14.4192 46.6833Z" fill="#B9261D"/>
<path d="M21.2934 35.7257L14.3051 52.115L15.0345 52.426L22.0228 36.0367L21.2934 35.7257Z" fill="#FEB1AB"/>
<path d="M22.6637 36.3092C22.5788 36.5081 22.437 36.6773 22.256 36.7955C22.075 36.9136 21.8627 36.9754 21.6466 36.9732C21.4304 36.9709 21.2199 36.9049 21.0414 36.7829C20.863 36.6609 20.7248 36.4886 20.6442 36.288C20.5636 36.0875 20.5439 35.8677 20.5883 35.6561C20.6326 35.4446 20.7392 35.2509 20.8937 35.0996C21.0481 34.9484 21.2438 34.846 21.4562 34.8061C21.6686 34.7661 21.8879 34.7901 22.0867 34.8749C22.2188 34.9312 22.3387 35.0132 22.4391 35.1158C22.5396 35.2183 22.6189 35.3396 22.6725 35.4728C22.726 35.606 22.7526 35.7486 22.7511 35.8922C22.7495 36.0357 22.72 36.1772 22.6637 36.3092Z" fill="#FEB1AB"/>
<path d="M15.9897 41.0118C15.9233 41.1677 15.812 41.3007 15.6701 41.3935C15.5282 41.4862 15.3621 41.5346 15.1925 41.5328C15.023 41.531 14.8579 41.4788 14.7179 41.3832C14.578 41.2875 14.4696 41.1529 14.4064 40.9956C14.3431 40.8383 14.328 40.6657 14.3628 40.4998C14.3977 40.3339 14.4807 40.182 14.6018 40.0634C14.723 39.9448 14.8767 39.8649 15.0433 39.8336C15.2099 39.8024 15.3822 39.8211 15.5381 39.8877C15.747 39.9769 15.9118 40.1454 15.9965 40.3562C16.0812 40.567 16.0788 40.8028 15.9897 41.0118Z" fill="#FEB1AB"/>
<path d="M15.5968 40.6936L14.8057 40.6573L14.2747 52.2522L15.0659 52.2884L15.5968 40.6936Z" fill="#FEB1AB"/>
<path d="M21.8801 43.5243C21.8138 43.6802 21.7949 43.8521 21.8263 44.0186C21.8577 44.1852 21.938 44.3388 22.0567 44.4598C22.1754 44.5808 22.3272 44.6641 22.4931 44.6988C22.659 44.7335 22.8314 44.7179 22.9886 44.6547C23.1458 44.5914 23.2806 44.4831 23.3762 44.3431C23.4718 44.2031 23.5237 44.0378 23.5254 43.8683C23.5271 43.6988 23.4786 43.533 23.3858 43.3912C23.2931 43.2493 23.1605 43.1382 23.0046 43.0718C22.901 43.0276 22.7894 43.0042 22.6769 43.0031C22.5643 43.0019 22.453 43.0227 22.3486 43.0648C22.2442 43.1068 22.149 43.1693 22.0686 43.2481C21.9882 43.3269 21.9242 43.4207 21.8801 43.5243Z" fill="#FEB1AB"/>
<path d="M22.3817 43.5869L14.3828 51.9976L14.9566 52.5434L22.9556 44.1327L22.3817 43.5869Z" fill="#FEB1AB"/>
<path d="M1.50296 40.2607L0.98175 40.8584L14.4106 52.5694L14.9318 51.9717L1.50296 40.2607Z" fill="#FEB1AB"/>
<path d="M1.96086 39.7351C2.12403 39.8773 2.24114 40.0648 2.29783 40.2736C2.35452 40.4825 2.34823 40.7035 2.27931 40.9086C2.21039 41.1138 2.08203 41.2936 1.91075 41.4259C1.73946 41.5582 1.5326 41.6366 1.3167 41.6514C1.1008 41.6662 0.885805 41.6166 0.698082 41.5089C0.51036 41.4013 0.358531 41.2407 0.262282 41.0469C0.166032 40.8531 0.12915 40.6349 0.156826 40.4203C0.184501 40.2056 0.275433 40.0041 0.417702 39.841C0.608354 39.6225 0.878075 39.4886 1.1674 39.4688C1.45672 39.449 1.74218 39.5446 1.96086 39.7351Z" fill="#FEB1AB"/>
<path d="M4.37094 47.5362C4.49872 47.6476 4.59067 47.7943 4.63506 47.9579C4.67944 48.1214 4.67398 48.2946 4.62 48.4552C4.56602 48.6159 4.46558 48.7569 4.33144 48.8605C4.19729 48.9641 4.03577 49.0256 3.86668 49.0372C3.69758 49.0488 3.52884 49.0104 3.38178 48.9261C3.23473 48.8418 3.11593 48.7156 3.04048 48.5638C2.96503 48.4121 2.93636 48.2415 2.95795 48.0734C2.97954 47.9053 3.05019 47.7468 3.16154 47.619C3.31101 47.4479 3.52233 47.3432 3.74902 47.3276C3.9757 47.312 4.19946 47.3871 4.37094 47.5362Z" fill="#FEB1AB"/>
<path d="M14.8104 51.8993L3.94739 47.8105L3.66804 48.5527L14.531 52.6415L14.8104 51.8993Z" fill="#FEB1AB"/>
<path d="M8.58034 42.7107C8.70813 42.822 8.86597 42.893 9.03408 42.9145C9.2022 42.9361 9.37277 42.9075 9.52454 42.832C9.67632 42.7566 9.8025 42.6378 9.88678 42.4907C9.97107 42.3437 10.01 42.1751 9.99836 42.006C9.98674 41.8369 9.92504 41.6747 9.82144 41.5406C9.71783 41.4065 9.57662 41.3065 9.41595 41.2525C9.25528 41.1985 9.08261 41.1932 8.91903 41.2376C8.75545 41.282 8.6083 41.3738 8.49694 41.5016C8.423 41.5864 8.36667 41.6848 8.33083 41.7915C8.29498 41.8982 8.28061 42.0112 8.28833 42.1235C8.29604 42.2358 8.32579 42.3456 8.37589 42.4464C8.42599 42.5472 8.49549 42.6367 8.58034 42.7107Z" fill="#FEB1AB"/>
<path d="M9.4914 41.8759L8.79401 42.2535L14.3217 52.4612L15.0191 52.0835L9.4914 41.8759Z" fill="#FEB1AB"/>
<path d="M14.4594 51.9378L-0.821442 61.0793L-0.415084 61.7586L14.8657 52.6171L14.4594 51.9378Z" fill="#FEB1AB"/>
<path d="M-1.17969 60.4872C-0.994206 60.3763 -0.779973 60.3228 -0.564128 60.3336C-0.348283 60.3444 -0.140201 60.4192 0.0332927 60.5481C0.206786 60.677 0.338203 60.8542 0.410898 61.0577C0.483594 61.2612 0.493937 61.4818 0.441344 61.6914C0.388751 61.901 0.275378 62.0902 0.115215 62.2353C-0.0449478 62.3804 -0.244541 62.4748 -0.458319 62.5065C-0.672097 62.5382 -0.890527 62.506 -1.0859 62.4136C-1.28128 62.3212 -1.44468 62.1731 -1.55583 61.9878C-1.70478 61.7389 -1.74885 61.4408 -1.67827 61.1595C-1.60768 60.8781 -1.42849 60.6363 -1.17969 60.4872Z" fill="#FEB1AB"/>
<path d="M6.98629 60.6037C7.13169 60.5166 7.29977 60.4745 7.46909 60.4828C7.63841 60.4911 7.80131 60.5495 7.93746 60.6505C8.07362 60.7515 8.17649 60.8906 8.23357 61.0503C8.29066 61.2099 8.29938 61.3829 8.25814 61.5473C8.21691 61.7118 8.12761 61.8603 8.00197 61.9741C7.87632 62.0879 7.71983 62.162 7.55213 62.1868C7.38443 62.2116 7.21316 62.1859 7.05995 62.1133C6.90673 62.0408 6.77859 61.9245 6.69152 61.7791C6.57511 61.5841 6.5407 61.3509 6.59594 61.1306C6.65118 60.9103 6.79164 60.7207 6.98629 60.6037Z" fill="#FEB1AB"/>
<path d="M14.3593 52.0214L7.1178 61.0924L7.73753 61.5872L14.9791 52.5162L14.3593 52.0214Z" fill="#FEB1AB"/>
<path d="M3.69686 55.1082C3.84232 55.0211 3.95871 54.8925 4.03127 54.7393C4.10383 54.5861 4.12895 54.4151 4.10415 54.2474C4.07935 54.0797 4.00543 53.9227 3.89163 53.7971C3.77783 53.6714 3.62952 53.5828 3.46509 53.5415C3.30066 53.5003 3.12784 53.5086 2.96821 53.5657C2.80859 53.6227 2.66923 53.7261 2.56823 53.8622C2.46723 53.9984 2.4089 54.1613 2.40058 54.3306C2.39227 54.4999 2.43433 54.668 2.5215 54.8134C2.57925 54.91 2.65553 54.9939 2.74587 55.061C2.83621 55.1281 2.93907 55.1768 3.04822 55.2042C3.15737 55.2316 3.27053 55.237 3.38184 55.2205C3.49315 55.204 3.60037 55.1661 3.69686 55.1082Z" fill="#FEB1AB"/>
<path d="M14.5983 51.8793L3.18356 53.9829L3.32729 54.7628L14.7421 52.6591L14.5983 51.8793Z" fill="#FEB1AB"/>
<path d="M15.0568 52.1823L14.2848 52.3593L18.2652 69.7259L19.0371 69.549L15.0568 52.1823Z" fill="#FEB1AB"/>
<path d="M17.5858 69.8827C17.5375 69.672 17.5529 69.4516 17.6299 69.2496C17.7068 69.0476 17.8419 68.8728 18.0181 68.7476C18.1943 68.6224 18.4037 68.5525 18.6197 68.5462C18.8358 68.54 19.0493 68.5978 19.2324 68.7127C19.4155 68.8275 19.5603 68.9943 19.6487 69.1916C19.7372 69.3888 19.765 69.6075 19.729 69.8207C19.6929 70.0338 19.5945 70.2317 19.4462 70.3889C19.2978 70.5461 19.1061 70.6558 18.8954 70.7041C18.7555 70.7363 18.6106 70.7405 18.469 70.7167C18.3274 70.6928 18.1922 70.6414 18.0705 70.5651C17.9489 70.4888 17.8435 70.3889 17.7603 70.2718C17.6772 70.1547 17.6177 70.0227 17.5858 69.8827Z" fill="#FEB1AB"/>
<path d="M20.2215 62.156C20.1836 61.9908 20.1955 61.818 20.2557 61.6595C20.316 61.5011 20.4215 61.364 20.5597 61.2657C20.6978 61.1674 20.8624 61.1122 21.0318 61.1073C21.2012 61.1023 21.3683 61.148 21.5119 61.2381C21.6555 61.3281 21.7691 61.4587 21.8385 61.6133C21.9079 61.768 21.9302 61.9395 21.902 62.1066C21.8737 62.2738 21.7962 62.4287 21.6799 62.5519C21.5636 62.6752 21.4134 62.7615 21.2482 62.7993C21.0267 62.8498 20.794 62.8104 20.6015 62.6897C20.409 62.5691 20.2727 62.3773 20.2215 62.156Z" fill="#FEB1AB"/>
<path d="M15.0013 52.0531L14.3391 52.4894L20.7248 62.1819L21.387 61.7456L15.0013 52.0531Z" fill="#FEB1AB"/>
<path d="M13.9778 63.5859C13.94 63.4207 13.8539 63.2701 13.7306 63.1538C13.6073 63.0374 13.4523 62.9604 13.2851 62.9322C13.118 62.9039 12.946 62.926 12.7914 62.9955C12.6367 63.0649 12.5066 63.1786 12.4166 63.3222C12.3265 63.4658 12.2808 63.6329 12.2858 63.8023C12.2907 63.9718 12.3461 64.1359 12.4444 64.274C12.5426 64.4121 12.6796 64.5181 12.838 64.5784C12.9965 64.6386 13.1693 64.6505 13.3345 64.6126C13.556 64.5617 13.7482 64.4249 13.8689 64.2323C13.9895 64.0398 14.0286 63.8074 13.9778 63.5859Z" fill="#FEB1AB"/>
<path d="M15.0631 52.3223L14.277 52.218L12.7501 63.7242L13.5362 63.8285L15.0631 52.3223Z" fill="#FEB1AB"/>
<path d="M32.459 53.4519L14.7065 51.8717L14.6361 52.6618L32.3886 54.242L32.459 53.4519Z" fill="#FEB1AB"/>
<path d="M32.3203 54.9404C32.105 54.921 31.9006 54.8381 31.7324 54.7023C31.5642 54.5666 31.44 54.3842 31.3755 54.1779C31.311 53.9717 31.309 53.7511 31.37 53.5437C31.4309 53.3364 31.5519 53.1514 31.7178 53.0128C31.8836 52.8742 32.087 52.7879 32.3019 52.7648C32.5168 52.7417 32.7334 52.7832 32.925 52.8833C33.1165 52.9835 33.2743 53.1379 33.378 53.3276C33.4816 53.5172 33.5265 53.7333 33.5073 53.9486C33.4945 54.0916 33.4536 54.2309 33.3871 54.3582C33.3205 54.4855 33.2298 54.5983 33.1196 54.6904C33.0094 54.7825 32.8818 54.852 32.7447 54.8949C32.6076 54.9378 32.4634 54.9533 32.3203 54.9404Z" fill="#FEB1AB"/>
<path d="M25.7855 50.0482C25.6167 50.0331 25.456 49.9686 25.324 49.8623C25.192 49.7559 25.0947 49.6129 25.0441 49.4511C24.9934 49.2894 24.9914 49.1162 25.0392 48.9536C25.0869 48.7909 25.1821 48.646 25.3122 48.5372C25.4422 48.4285 25.6015 48.3607 25.77 48.3425C25.9385 48.3244 26.1089 48.3568 26.2591 48.4353C26.4093 48.5139 26.5326 48.6353 26.6138 48.784C26.6951 48.9328 26.7302 49.1022 26.7151 49.271C26.6949 49.4974 26.5857 49.7066 26.4113 49.8524C26.2369 49.9981 26.0119 50.0684 25.7855 50.0482Z" fill="#FEB1AB"/>
<path d="M25.7571 48.8119L14.5651 51.8879L14.7753 52.6526L25.9672 49.5765L25.7571 48.8119Z" fill="#FEB1AB"/>
<path d="M25.2167 56.4244C25.0479 56.4093 24.878 56.4442 24.7293 56.5255C24.5805 56.6067 24.4594 56.7306 24.3809 56.8808C24.3023 57.031 24.2701 57.2009 24.2882 57.3695C24.3064 57.538 24.374 57.6977 24.4828 57.8278C24.5915 57.9578 24.7362 58.0524 24.8988 58.1001C25.0615 58.1479 25.2344 58.1464 25.3962 58.0957C25.5579 58.045 25.7012 57.9473 25.8075 57.8153C25.9139 57.6833 25.9788 57.5228 25.9939 57.354C26.0141 57.1276 25.9434 56.9024 25.7976 56.728C25.6518 56.5536 25.4431 56.4446 25.2167 56.4244Z" fill="#FEB1AB"/>
<path d="M14.8421 51.9131L14.4999 52.6285L24.971 57.6365L25.3132 56.9211L14.8421 51.9131Z" fill="#FEB1AB"/>
<path d="M284.222 125.063C280.331 121.548 279.162 115.181 278.825 112.275C278.672 111.151 278.239 110.084 277.565 109.172C278.542 109.748 279.647 110.071 280.78 110.11C283.705 110.153 290.155 110.665 294.05 114.182C298.028 117.779 298.685 121.014 297.044 123.539C296.894 123.77 296.668 123.941 296.405 124.022C296.143 124.102 295.86 124.088 295.606 123.982C295.384 123.888 295.138 123.866 294.902 123.919C294.667 123.971 294.454 124.096 294.292 124.275C294.13 124.454 294.028 124.679 294 124.919C293.972 125.159 294.02 125.401 294.136 125.613C294.268 125.854 294.311 126.135 294.257 126.405C294.203 126.676 294.056 126.918 293.84 127.091C293.247 127.579 292.55 127.925 291.802 128.102C289.714 128.585 287.152 127.712 284.222 125.063ZM269.92 132.141C269.653 132.071 269.419 131.908 269.26 131.682C269.102 131.455 269.028 131.18 269.052 130.905C269.073 130.664 269.019 130.422 268.896 130.213C268.774 130.005 268.589 129.839 268.368 129.741C268.147 129.642 267.901 129.614 267.664 129.662C267.427 129.71 267.21 129.831 267.045 130.007C266.856 130.209 266.602 130.336 266.327 130.369C266.053 130.401 265.776 130.335 265.546 130.183C263.028 128.539 262.321 125.305 264.508 120.412C266.651 115.621 272.34 112.549 275.004 111.327C276.025 110.835 276.905 110.093 277.565 109.172C276.437 109.278 275.354 109.667 274.415 110.301C272.027 111.987 266.502 115.363 261.286 114.806C255.954 114.238 253.514 112.001 253.362 108.996C253.346 108.721 253.429 108.449 253.594 108.229C253.76 108.008 253.997 107.853 254.266 107.791C254.501 107.736 254.715 107.61 254.875 107.429C255.036 107.248 255.136 107.021 255.161 106.781C255.187 106.54 255.137 106.297 255.018 106.086C254.899 105.875 254.718 105.707 254.499 105.604C254.25 105.486 254.05 105.285 253.935 105.035C253.82 104.785 253.797 104.502 253.869 104.237C254.653 101.333 257.51 99.6605 262.84 100.229C268.058 100.785 272.742 105.25 274.724 107.404C275.508 108.222 276.485 108.831 277.566 109.174C277.319 110.28 277.353 111.43 277.666 112.52C278.532 115.315 280.035 121.609 277.894 126.398C276.327 129.903 274.405 131.733 272.372 132.202C271.562 132.386 270.72 132.365 269.92 132.141ZM280.905 108.932C279.789 108.731 278.641 108.814 277.565 109.172C278.416 108.422 279.064 107.47 279.451 106.405C280.394 103.634 282.872 97.66 287.426 95.0425C292.072 92.3699 295.36 92.7457 297.25 95.0865C297.424 95.3003 297.518 95.5685 297.513 95.844C297.509 96.1196 297.408 96.3849 297.228 96.5933C297.07 96.7759 296.974 97.0029 296.951 97.243C296.928 97.483 296.981 97.7242 297.101 97.9331C297.221 98.142 297.404 98.3084 297.623 98.4091C297.842 98.5099 298.087 98.54 298.324 98.4955C298.595 98.4441 298.875 98.49 299.116 98.6251C299.356 98.7601 299.541 98.9756 299.639 99.2336C300.711 102.043 299.382 105.076 294.736 107.749C293.653 108.357 292.485 108.803 291.271 109.071C287.841 109.72 284.316 109.673 280.905 108.932ZM275.517 106.526C273.174 104.77 268.26 100.562 267.177 95.4273C266.069 90.1831 267.445 87.1705 270.257 86.0953C270.515 85.996 270.799 85.9908 271.06 86.0807C271.321 86.1707 271.542 86.3499 271.684 86.5869C271.808 86.7956 271.994 86.9604 272.216 87.0579C272.439 87.1555 272.686 87.1811 272.923 87.131C273.161 87.0809 273.377 86.9577 273.541 86.7787C273.704 86.5997 273.808 86.3739 273.837 86.1329C273.871 85.8602 274 85.608 274.201 85.4205C274.402 85.2331 274.662 85.1222 274.937 85.1073C277.942 84.9554 280.415 87.1564 281.52 92.4012C282.603 97.5353 279.804 103.368 278.369 105.919C277.833 106.919 277.557 108.036 277.565 109.17C277.114 108.131 276.41 107.222 275.517 106.526Z" fill="#AA1D13"/>
<path d="M275.125 98.7968L277.324 109.223L277.787 109.125L275.589 98.699L275.125 98.7968Z" fill="#FEB1AB"/>
<path d="M275.996 98.6133C276.023 98.7396 276.011 98.871 275.963 98.9908C275.915 99.1106 275.832 99.2133 275.726 99.2861C275.619 99.359 275.493 99.3987 275.364 99.4002C275.235 99.4016 275.109 99.3652 275 99.2947C274.892 99.2242 274.807 99.1229 274.756 99.0042C274.706 98.8856 274.691 98.7543 274.715 98.6274C274.739 98.5005 274.799 98.3839 274.89 98.2915C274.98 98.1991 275.095 98.1353 275.222 98.1086C275.391 98.0735 275.568 98.1066 275.713 98.2012C275.858 98.2957 275.96 98.444 275.996 98.6133Z" fill="#FEB1AB"/>
<path d="M274.341 103.206C274.362 103.306 274.353 103.409 274.315 103.503C274.277 103.598 274.213 103.679 274.129 103.736C274.045 103.794 273.946 103.825 273.844 103.826C273.743 103.827 273.643 103.798 273.558 103.742C273.473 103.686 273.406 103.606 273.367 103.513C273.327 103.419 273.316 103.316 273.335 103.216C273.354 103.117 273.402 103.025 273.474 102.952C273.545 102.88 273.636 102.831 273.736 102.81C273.869 102.783 274.007 102.809 274.12 102.883C274.234 102.958 274.313 103.074 274.341 103.206Z" fill="#FEB1AB"/>
<path d="M274.04 103.185L273.639 103.439L277.356 109.301L277.757 109.047L274.04 103.185Z" fill="#FEB1AB"/>
<path d="M278.088 102.415C278.109 102.514 278.158 102.605 278.23 102.677C278.302 102.748 278.395 102.796 278.494 102.815C278.594 102.834 278.697 102.823 278.79 102.783C278.883 102.743 278.963 102.677 279.018 102.592C279.073 102.507 279.102 102.407 279.101 102.306C279.1 102.205 279.069 102.106 279.012 102.023C278.955 101.939 278.874 101.874 278.78 101.836C278.686 101.798 278.583 101.79 278.483 101.811C278.351 101.839 278.235 101.918 278.161 102.031C278.087 102.145 278.061 102.283 278.088 102.415Z" fill="#FEB1AB"/>
<path d="M278.355 102.275L277.322 109.139L277.79 109.209L278.824 102.346L278.355 102.275Z" fill="#FEB1AB"/>
<path d="M266.985 107.808L266.935 108.279L277.53 109.41L277.58 108.938L266.985 107.808Z" fill="#FEB1AB"/>
<path d="M267.03 107.393C267.159 107.407 267.28 107.459 267.38 107.543C267.479 107.626 267.551 107.736 267.587 107.86C267.623 107.985 267.622 108.117 267.583 108.241C267.544 108.364 267.469 108.473 267.368 108.554C267.267 108.635 267.144 108.684 267.015 108.695C266.886 108.706 266.757 108.679 266.644 108.616C266.53 108.554 266.438 108.459 266.378 108.344C266.319 108.229 266.295 108.099 266.31 107.97C266.329 107.798 266.415 107.641 266.55 107.533C266.686 107.425 266.858 107.374 267.03 107.393Z" fill="#FEB1AB"/>
<path d="M270.886 110.387C270.986 110.398 271.082 110.439 271.16 110.504C271.237 110.568 271.294 110.655 271.323 110.752C271.351 110.849 271.35 110.953 271.32 111.049C271.29 111.146 271.232 111.231 271.153 111.295C271.074 111.359 270.978 111.398 270.877 111.407C270.777 111.416 270.675 111.395 270.586 111.346C270.497 111.298 270.425 111.224 270.378 111.134C270.331 111.044 270.312 110.942 270.323 110.842C270.337 110.707 270.405 110.584 270.51 110.499C270.616 110.413 270.751 110.373 270.886 110.387Z" fill="#FEB1AB"/>
<path d="M277.496 108.944L270.773 110.667L270.89 111.126L277.614 109.403L277.496 108.944Z" fill="#FEB1AB"/>
<path d="M271.293 106.58C271.394 106.591 271.495 106.572 271.585 106.525C271.675 106.478 271.749 106.406 271.798 106.317C271.847 106.228 271.868 106.126 271.859 106.025C271.85 105.924 271.811 105.828 271.748 105.749C271.684 105.669 271.598 105.611 271.501 105.581C271.405 105.551 271.301 105.549 271.203 105.578C271.106 105.607 271.019 105.664 270.954 105.742C270.889 105.82 270.849 105.915 270.838 106.016C270.831 106.083 270.837 106.15 270.856 106.215C270.875 106.28 270.906 106.34 270.948 106.393C270.99 106.445 271.042 106.488 271.102 106.521C271.161 106.553 271.226 106.573 271.293 106.58Z" fill="#FEB1AB"/>
<path d="M271.452 105.859L271.24 106.282L277.449 109.386L277.661 108.962L271.452 105.859Z" fill="#FEB1AB"/>
<path d="M277.338 109.082L272.988 118.802L273.421 118.996L277.771 109.276L277.338 109.082Z" fill="#FEB1AB"/>
<path d="M272.607 118.633C272.66 118.515 272.747 118.415 272.857 118.346C272.966 118.277 273.093 118.243 273.222 118.246C273.352 118.25 273.477 118.291 273.582 118.366C273.688 118.441 273.769 118.545 273.815 118.666C273.862 118.787 273.871 118.919 273.842 119.045C273.814 119.171 273.748 119.285 273.654 119.374C273.56 119.463 273.442 119.522 273.315 119.544C273.188 119.566 273.057 119.55 272.938 119.497C272.78 119.427 272.656 119.296 272.594 119.134C272.532 118.971 272.537 118.791 272.607 118.633Z" fill="#FEB1AB"/>
<path d="M276.648 115.894C276.689 115.801 276.757 115.722 276.843 115.668C276.929 115.614 277.029 115.587 277.13 115.59C277.232 115.593 277.33 115.625 277.413 115.684C277.496 115.742 277.56 115.824 277.596 115.919C277.632 116.014 277.639 116.117 277.617 116.216C277.594 116.315 277.543 116.405 277.469 116.475C277.395 116.545 277.303 116.591 277.203 116.608C277.103 116.625 276.999 116.612 276.907 116.57C276.845 116.543 276.79 116.504 276.743 116.455C276.697 116.406 276.661 116.349 276.637 116.286C276.613 116.223 276.602 116.156 276.604 116.088C276.605 116.021 276.62 115.955 276.648 115.894Z" fill="#FEB1AB"/>
<path d="M277.316 109.158L276.88 116.085L277.353 116.115L277.789 109.188L277.316 109.158Z" fill="#FEB1AB"/>
<path d="M273.152 114.328C273.193 114.235 273.207 114.132 273.19 114.032C273.173 113.932 273.126 113.839 273.056 113.765C272.987 113.692 272.897 113.641 272.798 113.618C272.699 113.596 272.595 113.603 272.5 113.639C272.406 113.675 272.324 113.739 272.265 113.822C272.206 113.905 272.174 114.003 272.171 114.104C272.168 114.206 272.196 114.306 272.25 114.392C272.304 114.478 272.382 114.545 272.475 114.587C272.536 114.614 272.603 114.629 272.67 114.631C272.737 114.633 272.804 114.622 272.867 114.598C272.93 114.574 272.988 114.538 273.037 114.492C273.085 114.445 273.125 114.389 273.152 114.328Z" fill="#FEB1AB"/>
<path d="M277.385 109.007L272.515 113.952L272.853 114.285L277.723 109.339L277.385 109.007Z" fill="#FEB1AB"/>
<path d="M277.714 108.998L277.396 109.349L285.303 116.492L285.621 116.14L277.714 108.998Z" fill="#FEB1AB"/>
<path d="M285.026 116.801C284.93 116.714 284.862 116.601 284.83 116.476C284.799 116.35 284.805 116.218 284.849 116.096C284.892 115.974 284.971 115.868 285.075 115.791C285.178 115.714 285.303 115.669 285.432 115.663C285.562 115.656 285.689 115.689 285.8 115.755C285.911 115.822 286 115.919 286.056 116.036C286.111 116.153 286.13 116.284 286.111 116.412C286.093 116.54 286.036 116.659 285.949 116.755C285.892 116.819 285.822 116.871 285.745 116.907C285.667 116.944 285.583 116.965 285.497 116.97C285.411 116.974 285.326 116.961 285.245 116.932C285.164 116.903 285.09 116.858 285.026 116.801Z" fill="#FEB1AB"/>
<path d="M283.666 112.113C283.59 112.045 283.537 111.957 283.512 111.858C283.487 111.76 283.492 111.657 283.525 111.562C283.559 111.466 283.62 111.383 283.702 111.322C283.783 111.261 283.88 111.226 283.981 111.221C284.083 111.216 284.183 111.241 284.27 111.292C284.357 111.344 284.427 111.421 284.47 111.512C284.514 111.604 284.529 111.706 284.515 111.807C284.5 111.907 284.456 112 284.388 112.076C284.296 112.176 284.17 112.236 284.034 112.243C283.899 112.25 283.767 112.203 283.666 112.113Z" fill="#FEB1AB"/>
<path d="M277.642 108.953L277.468 109.393L283.92 111.951L284.095 111.51L277.642 108.953Z" fill="#FEB1AB"/>
<path d="M281.097 114.952C281.022 114.884 280.928 114.841 280.828 114.826C280.728 114.811 280.626 114.826 280.534 114.87C280.443 114.913 280.366 114.983 280.314 115.07C280.262 115.157 280.237 115.257 280.243 115.359C280.248 115.46 280.283 115.557 280.344 115.639C280.404 115.72 280.487 115.781 280.583 115.815C280.679 115.849 280.782 115.854 280.88 115.829C280.978 115.804 281.067 115.75 281.135 115.675C281.225 115.574 281.272 115.441 281.265 115.306C281.258 115.171 281.198 115.043 281.097 114.952Z" fill="#FEB1AB"/>
<path d="M277.765 109.064L277.345 109.282L280.543 115.442L280.964 115.224L277.765 109.064Z" fill="#FEB1AB"/>
<path d="M286.674 103.652L277.436 108.967L277.672 109.378L286.91 104.063L286.674 103.652Z" fill="#FEB1AB"/>
<path d="M287.117 104.428C287.005 104.492 286.876 104.522 286.747 104.513C286.618 104.504 286.495 104.457 286.392 104.378C286.29 104.3 286.213 104.192 286.172 104.07C286.13 103.947 286.126 103.815 286.16 103.69C286.194 103.565 286.264 103.453 286.362 103.368C286.459 103.283 286.579 103.229 286.707 103.212C286.836 103.196 286.966 103.217 287.082 103.275C287.198 103.332 287.294 103.422 287.359 103.534C287.445 103.685 287.468 103.863 287.423 104.031C287.377 104.198 287.268 104.341 287.117 104.428Z" fill="#FEB1AB"/>
<path d="M282.235 104.273C282.147 104.324 282.046 104.347 281.945 104.34C281.843 104.333 281.747 104.297 281.666 104.235C281.586 104.173 281.526 104.088 281.493 103.992C281.461 103.896 281.458 103.792 281.484 103.694C281.511 103.596 281.566 103.508 281.642 103.442C281.719 103.375 281.813 103.332 281.914 103.319C282.015 103.306 282.117 103.324 282.208 103.369C282.299 103.414 282.374 103.485 282.425 103.573C282.458 103.632 282.48 103.696 282.489 103.763C282.498 103.83 282.493 103.898 282.475 103.963C282.458 104.028 282.428 104.089 282.386 104.142C282.345 104.195 282.294 104.24 282.235 104.273Z" fill="#FEB1AB"/>
<path d="M281.799 103.678L277.372 109.024L277.737 109.326L282.164 103.98L281.799 103.678Z" fill="#FEB1AB"/>
<path d="M284.146 107.589C284.058 107.639 283.987 107.715 283.942 107.806C283.898 107.897 283.881 107.998 283.894 108.099C283.907 108.199 283.949 108.293 284.016 108.37C284.083 108.446 284.171 108.5 284.268 108.527C284.366 108.553 284.469 108.55 284.565 108.518C284.661 108.485 284.745 108.426 284.807 108.345C284.869 108.265 284.905 108.168 284.912 108.067C284.919 107.966 284.896 107.865 284.845 107.778C284.812 107.719 284.767 107.668 284.714 107.627C284.661 107.586 284.6 107.555 284.535 107.538C284.47 107.52 284.402 107.516 284.335 107.525C284.268 107.533 284.204 107.555 284.146 107.589Z" fill="#FEB1AB"/>
<path d="M277.515 108.94L277.593 109.408L284.44 108.269L284.362 107.802L277.515 108.94Z" fill="#FEB1AB"/>
</svg>
