<svg width="1142" height="130" viewBox="0 0 1142 130" fill="none" xmlns="http://www.w3.org/2000/svg">
<rect width="1142" height="130" fill="#F5F3F2"/>
<mask id="mask0" style="mask-type:alpha" maskUnits="userSpaceOnUse" x="0" y="0" width="1142" height="130">
<rect width="1142" height="130" fill="#F5F3F2"/>
</mask>
<g mask="url(#mask0)">
<g opacity="0.3">
<path d="M721.301 48.8064C730.852 38.7619 747.758 36.1009 755.46 35.4055C758.44 35.0768 761.289 34.0043 763.746 32.2864C762.156 34.8272 761.229 37.7263 761.05 40.7181C760.74 48.4471 758.951 65.4572 749.394 75.5137C739.619 85.7847 731.025 87.3019 724.463 82.7947C723.863 82.3837 723.427 81.7752 723.231 81.0754C723.035 80.3756 723.091 79.6291 723.39 78.9665C723.652 78.385 723.727 77.7363 723.604 77.1104C723.481 76.4844 723.166 75.9122 722.704 75.473C722.241 75.0339 721.653 74.7494 721.022 74.6592C720.39 74.5689 719.746 74.6773 719.179 74.9694C718.531 75.3028 717.787 75.3975 717.076 75.2367C716.365 75.0759 715.734 74.6699 715.293 74.09C714.042 72.4888 713.174 70.6224 712.757 68.634C711.621 63.0837 714.101 56.3716 721.301 48.8064ZM703.558 10.5344C703.763 9.83266 704.208 9.22583 704.817 8.82113C705.426 8.41642 706.158 8.23991 706.884 8.32278C707.52 8.39537 708.162 8.26785 708.722 7.95798C709.282 7.64812 709.731 7.17135 710.007 6.59412C710.283 6.01688 710.372 5.36795 710.261 4.73774C710.151 4.10753 709.847 3.52745 709.391 3.07834C708.872 2.56496 708.551 1.8849 708.485 1.15804C708.418 0.43118 708.611 -0.295808 709.028 -0.894759C713.541 -7.43923 722.136 -9.08861 734.92 -2.97831C747.437 3.00605 755.174 18.2496 758.222 25.3709C759.455 28.1023 761.355 30.4803 763.746 32.2864C763.54 29.2974 762.587 26.4081 760.973 23.8839C756.68 17.4591 748.129 2.62999 749.952 -11.1171C751.813 -25.1687 757.891 -31.4659 765.842 -31.6672C766.57 -31.6884 767.282 -31.4524 767.854 -31.0006C768.425 -30.5488 768.819 -29.9102 768.966 -29.1968C769.094 -28.5698 769.413 -27.9981 769.881 -27.5615C770.349 -27.1249 770.941 -26.845 771.575 -26.761C772.21 -26.677 772.854 -26.7929 773.42 -27.0927C773.985 -27.3925 774.443 -27.8611 774.729 -28.4334C775.057 -29.083 775.603 -29.5966 776.271 -29.884C776.94 -30.1715 777.688 -30.2145 778.385 -30.0054C786.006 -27.7381 790.234 -20.075 788.372 -6.02596C786.55 7.72633 774.434 19.8026 768.61 24.896C766.394 26.9136 764.72 29.4551 763.741 32.2875C760.834 31.5599 757.791 31.5735 754.891 32.327C747.446 34.427 730.711 37.9759 718.198 31.9936C709.042 27.6166 704.335 22.4124 703.231 17.0092C702.801 14.8573 702.913 12.6321 703.558 10.5344ZM764.154 41.1288C764.76 38.1937 764.62 35.1533 763.746 32.2864C765.671 34.5842 768.141 36.362 770.932 37.4569C778.189 40.1358 793.811 47.086 800.422 59.2974C807.172 71.7556 805.957 80.4219 799.643 85.259C799.067 85.7044 798.352 85.9323 797.624 85.9028C796.896 85.8733 796.201 85.5882 795.663 85.0976C795.191 84.6693 794.597 84.3983 793.964 84.3221C793.331 84.2459 792.691 84.3683 792.13 84.6724C791.57 84.9764 791.118 85.447 790.837 86.0192C790.556 86.5913 790.46 87.2366 790.562 87.8659C790.679 88.5855 790.539 89.3234 790.166 89.9498C789.793 90.5762 789.211 91.051 788.522 91.2907C781.025 93.9358 773.099 90.2195 766.35 77.7614C764.814 74.8561 763.715 71.7402 763.088 68.5141C761.603 59.4066 761.965 50.0934 764.154 41.1288ZM770.877 27.0505C775.675 20.9767 787.126 8.27515 800.77 5.75945C814.703 3.18452 822.573 7.02287 825.224 14.5274C825.47 15.2151 825.464 15.9672 825.209 16.6512C824.953 17.3352 824.465 17.907 823.829 18.2659C823.269 18.5791 822.821 19.0598 822.548 19.6406C822.275 20.2213 822.191 20.8729 822.308 21.504C822.424 22.135 822.735 22.7138 823.197 23.159C823.659 23.6043 824.249 23.8937 824.884 23.9866C825.602 24.0946 826.26 24.4517 826.742 24.9955C827.224 25.5393 827.499 26.2351 827.52 26.9614C827.719 34.9128 821.735 41.3014 807.8 43.8685C794.159 46.3837 778.932 38.5945 772.287 34.6305C769.683 33.1467 766.748 32.3404 763.751 32.2854C766.527 31.1637 768.977 29.3638 770.877 27.0505Z" fill="#DADADA"/>
<path d="M791.315 26.5237L763.614 31.6309L763.841 32.8632L791.543 27.7561L791.315 26.5237Z" fill="#C4C4C4"/>
<path d="M791.756 28.8496C791.421 28.9111 791.074 28.8719 790.761 28.7366C790.448 28.6014 790.182 28.3756 789.996 28.0891C789.811 27.8026 789.714 27.4672 789.719 27.1259C789.724 26.7847 789.829 26.4531 790.023 26.1721C790.216 25.891 790.49 25.6732 790.807 25.5469C791.124 25.4207 791.472 25.3918 791.805 25.4629C792.139 25.5341 792.443 25.7022 792.681 25.9468C792.919 26.1913 793.08 26.5012 793.142 26.8368C793.224 27.2873 793.124 27.751 792.865 28.128C792.605 28.505 792.206 28.765 791.756 28.8496Z" fill="#C4C4C4"/>
<path d="M779.708 24.1694C779.443 24.2185 779.171 24.1879 778.924 24.0817C778.677 23.9755 778.467 23.7993 778.321 23.5737C778.175 23.3482 778.1 23.0843 778.105 22.8156C778.109 22.547 778.192 22.2852 778.345 22.0643C778.498 21.8434 778.713 21.673 778.963 21.5745C779.213 21.476 779.486 21.4544 779.749 21.5116C780.011 21.5689 780.251 21.7019 780.437 21.8955C780.623 22.089 780.748 22.3338 780.795 22.5983C780.859 22.9508 780.78 23.3143 780.576 23.6088C780.372 23.9033 780.06 24.1047 779.708 24.1694Z" fill="#C4C4C4"/>
<path d="M779.787 23.3744L779.144 22.2993L763.401 31.7272L764.045 32.8023L779.787 23.3744Z" fill="#C4C4C4"/>
<path d="M781.561 34.1564C781.297 34.2039 781.054 34.328 780.861 34.5141C780.668 34.7003 780.535 34.9403 780.478 35.2022C780.422 35.4642 780.444 35.737 780.542 35.9862C780.641 36.2355 780.811 36.4494 781.032 36.6017C781.252 36.7541 781.513 36.8373 781.781 36.8413C782.049 36.8452 782.312 36.7696 782.537 36.6238C782.762 36.4781 782.939 36.2695 783.045 36.0233C783.151 35.7771 783.181 35.505 783.132 35.2415C783.066 34.8901 782.865 34.5791 782.57 34.3759C782.276 34.1727 781.913 34.0938 781.561 34.1564Z" fill="#C4C4C4"/>
<path d="M781.912 34.8883L763.843 31.6943L763.625 32.9283L781.694 36.1222L781.912 34.8883Z" fill="#C4C4C4"/>
<path d="M768.079 4.42006L766.837 4.25537L763.135 32.179L764.377 32.3437L768.079 4.42006Z" fill="#C4C4C4"/>
<path d="M769.177 4.55882C769.131 4.89798 768.985 5.2151 768.759 5.4716C768.532 5.7281 768.236 5.91181 767.905 5.99905C767.574 6.0863 767.223 6.07326 766.9 5.9618C766.576 5.85034 766.294 5.64546 766.087 5.37292C765.88 5.10038 765.758 4.77267 765.737 4.43106C765.717 4.08945 765.799 3.74982 765.972 3.45446C766.144 3.15909 766.4 2.92119 766.708 2.77179C767.016 2.62238 767.362 2.56818 767.701 2.61516C768.154 2.67797 768.563 2.91695 768.84 3.28122C769.116 3.64549 769.238 4.1055 769.177 4.55882Z" fill="#C4C4C4"/>
<path d="M760.987 14.5805C760.951 14.846 760.838 15.0953 760.661 15.2965C760.484 15.4977 760.252 15.6417 759.993 15.7108C759.735 15.7799 759.461 15.7704 759.208 15.684C758.954 15.5977 758.733 15.438 758.57 15.2253C758.407 15.0127 758.311 14.7572 758.294 14.49C758.276 14.2228 758.339 13.9565 758.473 13.7248C758.608 13.4931 758.807 13.3066 759.048 13.1886C759.288 13.0705 759.559 13.0262 759.824 13.0617C760.179 13.1098 760.5 13.2967 760.718 13.5814C760.936 13.866 761.033 14.225 760.987 14.5805Z" fill="#C4C4C4"/>
<path d="M764.358 32.1286L760.258 14.2432L759.036 14.5232L763.137 32.4086L764.358 32.1286Z" fill="#C4C4C4"/>
<path d="M771.003 15.8542C770.967 16.1201 771.01 16.3898 771.128 16.6308C771.247 16.8719 771.433 17.0729 771.665 17.2077C771.897 17.3424 772.164 17.4054 772.432 17.3884C772.7 17.3714 772.957 17.2755 773.17 17.1125C773.383 16.9495 773.543 16.7273 773.63 16.4733C773.716 16.2192 773.726 15.9444 773.657 15.6851C773.588 15.4258 773.443 15.1935 773.241 15.0164C773.04 14.8393 772.79 14.7263 772.524 14.6912C772.348 14.6675 772.169 14.678 771.997 14.7236C771.825 14.7693 771.663 14.8484 771.522 14.9564C771.38 15.0645 771.262 15.1991 771.173 15.353C771.084 15.5069 771.026 15.6778 771.003 15.8542Z" fill="#C4C4C4"/>
<path d="M772.911 16.3563L771.805 15.7676L763.183 31.9655L764.289 32.5543L772.911 16.3563Z" fill="#C4C4C4"/>
<path d="M764.003 31.6859L738.609 19.5347L738.069 20.6643L763.463 32.8156L764.003 31.6859Z" fill="#C4C4C4"/>
<path d="M739.065 18.5368C739.373 18.6844 739.631 18.9204 739.806 19.2144C739.98 19.5083 740.063 19.8465 740.045 20.1878C740.027 20.5291 739.909 20.8572 739.704 21.1309C739.499 21.4047 739.218 21.6128 738.896 21.7268C738.573 21.8408 738.224 21.8562 737.893 21.7721C737.562 21.6879 737.264 21.5069 737.035 21.253C736.806 20.999 736.658 20.6836 736.608 20.3453C736.559 20.0071 736.611 19.6617 736.758 19.3531C736.956 18.939 737.31 18.62 737.743 18.4669C738.175 18.3138 738.651 18.3393 739.065 18.5368Z" fill="#C4C4C4"/>
<path d="M746.011 29.3858C746.254 29.5013 746.457 29.6858 746.594 29.9164C746.731 30.147 746.796 30.4137 746.782 30.6817C746.768 30.9496 746.675 31.2078 746.514 31.4227C746.354 31.6377 746.133 31.8001 745.88 31.8895C745.627 31.979 745.354 31.9911 745.094 31.9248C744.834 31.8586 744.598 31.7167 744.419 31.5172C744.24 31.3176 744.124 31.0694 744.086 30.8038C744.048 30.5383 744.089 30.2667 744.205 30.0247C744.282 29.8639 744.389 29.7195 744.522 29.6004C744.654 29.4812 744.807 29.3906 744.975 29.3312C745.143 29.2719 745.322 29.2462 745.5 29.2557C745.678 29.2652 745.851 29.3089 746.011 29.3858Z" fill="#C4C4C4"/>
<path d="M763.771 31.6249L745.493 30.0059L745.383 31.2541L763.661 32.8731L763.771 31.6249Z" fill="#C4C4C4"/>
<path d="M750.398 20.2629C750.64 20.3788 750.91 20.4203 751.176 20.3821C751.441 20.3439 751.691 20.2272 751.89 20.0479C752.09 19.8685 752.23 19.6346 752.297 19.3746C752.363 19.1146 752.351 18.8404 752.261 18.5874C752.172 18.3344 752.009 18.1135 751.794 17.9529C751.579 17.7922 751.323 17.699 751.055 17.6849C750.787 17.6709 750.52 17.7369 750.29 17.8741C750.059 18.0113 749.874 18.2132 749.759 18.4554C749.681 18.6159 749.637 18.7905 749.628 18.9683C749.618 19.1462 749.642 19.3241 749.702 19.4921C749.761 19.66 749.853 19.8144 749.972 19.9467C750.092 20.0789 750.237 20.1867 750.398 20.2629Z" fill="#C4C4C4"/>
<path d="M764.167 31.8199L751.425 18.6162L750.523 19.4864L763.265 32.6901L764.167 31.8199Z" fill="#C4C4C4"/>
<path d="M764.146 32.67L763.238 31.8066L743.83 52.2214L744.738 53.0848L764.146 32.67Z" fill="#C4C4C4"/>
<path d="M743.063 51.4751C743.299 51.2274 743.602 51.0544 743.936 50.9795C744.269 50.9046 744.618 50.9311 744.938 51.0542C745.257 51.1774 745.532 51.3916 745.729 51.6713C745.926 51.951 746.035 52.2835 746.044 52.6254C746.052 52.9674 745.958 53.3032 745.775 53.5921C745.591 53.8809 745.327 54.1096 745.014 54.248C744.701 54.3864 744.355 54.4284 744.018 54.3697C743.681 54.311 743.369 54.1536 743.122 53.9176C742.957 53.7612 742.825 53.5748 742.733 53.3673C742.641 53.1597 742.59 52.9353 742.585 52.7084C742.58 52.4814 742.619 52.2561 742.701 52.0444C742.783 51.8327 742.906 51.6393 743.063 51.4751Z" fill="#C4C4C4"/>
<path d="M755.524 48.2138C755.708 48.0192 755.946 47.8834 756.207 47.824C756.468 47.7646 756.74 47.7843 756.99 47.8801C757.24 47.9759 757.457 48.1432 757.612 48.3619C757.766 48.5806 757.853 48.8405 757.86 49.1082C757.867 49.376 757.794 49.6398 757.651 49.8663C757.508 50.0928 757.302 50.2715 757.057 50.3803C756.812 50.4891 756.54 50.5234 756.276 50.4778C756.012 50.4322 755.768 50.3091 755.574 50.1244C755.315 49.8767 755.165 49.5373 755.156 49.1796C755.146 48.8218 755.279 48.4747 755.524 48.2138Z" fill="#C4C4C4"/>
<path d="M764.302 32.4976L763.149 32.0063L755.955 48.8867L757.108 49.378L764.302 32.4976Z" fill="#C4C4C4"/>
<path d="M748.238 41.2093C748.423 41.0153 748.545 40.7704 748.59 40.5064C748.636 40.2425 748.603 39.9711 748.494 39.7263C748.385 39.4816 748.207 39.2747 747.98 39.1317C747.754 38.9887 747.49 38.9158 747.222 38.9228C746.954 38.9299 746.695 39.0167 746.476 39.1714C746.257 39.3261 746.088 39.5416 745.993 39.7918C745.897 40.0419 745.877 40.3153 745.937 40.5765C745.996 40.8377 746.132 41.0757 746.326 41.2598C746.587 41.506 746.934 41.6385 747.292 41.6291C747.651 41.6197 747.991 41.4689 748.238 41.2093Z" fill="#C4C4C4"/>
<path d="M764.025 32.8071L763.476 31.6807L746.98 39.7188L747.529 40.8453L764.025 32.8071Z" fill="#C4C4C4"/>
<path d="M777.721 56.7488L764.298 31.9766L763.196 32.5737L776.619 57.346L777.721 56.7488Z" fill="#C4C4C4"/>
<path d="M775.643 57.8382C775.48 57.5375 775.41 57.1947 775.442 56.8543C775.474 56.5138 775.606 56.1911 775.822 55.9257C776.037 55.6603 776.326 55.4643 776.653 55.3634C776.979 55.2625 777.329 55.2611 777.657 55.3586C777.985 55.4562 778.275 55.6493 778.493 55.9125C778.712 56.1756 778.847 56.4969 778.882 56.837C778.918 57.177 778.852 57.5206 778.692 57.823C778.533 58.1254 778.288 58.3734 777.987 58.5362C777.583 58.7539 777.11 58.8026 776.671 58.6718C776.231 58.541 775.862 58.2412 775.643 57.8382Z" fill="#C4C4C4"/>
<path d="M776.401 44.9662C776.273 44.7302 776.218 44.4606 776.243 44.1934C776.268 43.9263 776.372 43.673 776.541 43.4647C776.71 43.2564 776.938 43.1035 777.194 43.0244C777.451 42.9452 777.724 42.9437 777.981 43.0205C778.238 43.0972 778.467 43.2488 778.638 43.4555C778.809 43.6622 778.915 43.9142 778.943 44.1811C778.97 44.4481 778.918 44.7177 778.793 44.9549C778.667 45.192 778.474 45.3862 778.237 45.5135C778.081 45.5986 777.909 45.6522 777.732 45.6707C777.555 45.6892 777.376 45.6724 777.205 45.6214C777.035 45.5705 776.875 45.487 776.737 45.3745C776.599 45.2619 776.485 45.1231 776.401 44.9662Z" fill="#C4C4C4"/>
<path d="M777.986 43.8616L764.157 31.8008L763.334 32.7452L777.163 44.806L777.986 43.8616Z" fill="#C4C4C4"/>
<path d="M767.459 49.7699C767.331 49.5346 767.136 49.3422 766.9 49.2175C766.663 49.0927 766.395 49.0414 766.129 49.0692C765.863 49.097 765.611 49.2028 765.405 49.3738C765.199 49.5448 765.048 49.7734 764.972 50.03C764.896 50.2865 764.897 50.56 764.976 50.8157C765.055 51.0714 765.208 51.2977 765.415 51.4664C765.623 51.635 765.877 51.7382 766.144 51.7629C766.411 51.7877 766.678 51.7334 766.913 51.6059C767.07 51.5215 767.209 51.4064 767.321 51.2684C767.433 51.1303 767.517 50.9709 767.568 50.8003C767.619 50.6298 767.635 50.451 767.616 50.2741C767.597 50.0971 767.544 49.9261 767.459 49.7699Z" fill="#C4C4C4"/>
<path d="M764.362 32.1776L763.121 32.3516L765.668 50.5234L766.909 50.3495L764.362 32.1776Z" fill="#C4C4C4"/>
</g>
<g opacity="0.3">
<path d="M1098.1 136.464C1101.13 127.057 1111.17 120.12 1115.9 117.292C1117.71 116.159 1119.21 114.589 1120.26 112.725C1120.02 114.849 1120.33 116.999 1121.14 118.976C1123.33 124.038 1127.44 135.52 1124.41 144.937C1121.3 154.559 1116.25 158.191 1110.64 157.324C1110.13 157.245 1109.66 156.989 1109.32 156.6C1108.97 156.211 1108.78 155.714 1108.77 155.196C1108.75 154.742 1108.6 154.302 1108.33 153.938C1108.06 153.573 1107.68 153.303 1107.24 153.164C1106.81 153.025 1106.35 153.024 1105.91 153.161C1105.48 153.298 1105.1 153.567 1104.82 153.93C1104.51 154.345 1104.06 154.636 1103.56 154.752C1103.05 154.869 1102.52 154.803 1102.06 154.567C1100.76 153.925 1099.62 152.994 1098.74 151.846C1096.29 148.631 1095.81 143.551 1098.1 136.464ZM1074.86 117.361C1074.78 116.847 1074.88 116.319 1075.14 115.871C1075.41 115.423 1075.82 115.083 1076.32 114.911C1076.75 114.762 1077.12 114.481 1077.38 114.109C1077.65 113.737 1077.79 113.291 1077.79 112.835C1077.79 112.379 1077.64 111.935 1077.38 111.564C1077.11 111.193 1076.74 110.914 1076.31 110.767C1075.81 110.597 1075.4 110.26 1075.13 109.813C1074.86 109.367 1074.76 108.84 1074.84 108.326C1075.72 102.726 1080.73 99.0086 1090.84 98.9811C1100.73 98.9558 1110.41 106.357 1114.57 109.99C1116.21 111.364 1118.17 112.304 1120.26 112.725C1119.2 110.869 1117.7 109.307 1115.88 108.184C1111.14 105.384 1101.06 98.5002 1097.98 89.1038C1094.83 79.5001 1096.79 73.5748 1101.83 70.9869C1102.29 70.7482 1102.82 70.6796 1103.33 70.7932C1103.84 70.9068 1104.29 71.1953 1104.6 71.6081C1104.88 71.9716 1105.26 72.24 1105.7 72.3759C1106.13 72.5118 1106.6 72.5084 1107.03 72.3663C1107.47 72.2242 1107.84 71.9503 1108.11 71.5829C1108.39 71.2155 1108.53 70.7729 1108.54 70.3167C1108.55 69.7979 1108.74 69.2991 1109.08 68.9077C1109.42 68.5163 1109.89 68.2573 1110.4 68.1761C1116 67.2763 1121.09 70.8926 1124.24 80.4947C1127.32 89.8941 1123.27 101.399 1121.1 106.473C1120.3 108.454 1120.01 110.605 1120.26 112.728C1118.16 113.159 1116.21 114.109 1114.58 115.49C1110.45 119.141 1100.79 126.596 1090.9 126.622C1083.67 126.64 1079.04 124.752 1076.66 121.622C1075.71 120.372 1075.1 118.908 1074.86 117.361ZM1123.26 118.281C1122.74 116.207 1121.71 114.297 1120.26 112.725C1122.21 113.607 1124.34 113.985 1126.48 113.825C1131.97 113.303 1144.15 112.937 1152.18 118.739C1160.37 124.656 1162.27 130.6 1159.7 135.66C1159.47 136.125 1159.08 136.492 1158.61 136.698C1158.13 136.905 1157.59 136.936 1157.1 136.787C1156.66 136.658 1156.2 136.668 1155.77 136.814C1155.34 136.961 1154.96 137.238 1154.7 137.606C1154.43 137.975 1154.29 138.417 1154.28 138.872C1154.28 139.326 1154.42 139.77 1154.68 140.143C1154.97 140.569 1155.11 141.087 1155.07 141.605C1155.02 142.122 1154.79 142.607 1154.42 142.974C1150.42 146.992 1144.18 147.055 1135.99 141.138C1134.11 139.746 1132.44 138.084 1131.04 136.205C1127.27 130.813 1124.62 124.717 1123.26 118.281ZM1123.22 107.156C1124.43 101.77 1127.86 90.0686 1135.85 84.2333C1144 78.2703 1150.24 78.3032 1154.27 82.3049C1154.64 82.6709 1154.87 83.1559 1154.92 83.6743C1154.96 84.1927 1154.83 84.7112 1154.53 85.1383C1154.27 85.5127 1154.13 85.9601 1154.13 86.4176C1154.13 86.8751 1154.28 87.3198 1154.55 87.6893C1154.82 88.0588 1155.2 88.3345 1155.64 88.4777C1156.07 88.6209 1156.54 88.6244 1156.97 88.4878C1157.47 88.335 1158 88.3611 1158.48 88.5614C1158.96 88.7618 1159.35 89.1237 1159.59 89.5838C1162.18 94.6312 1160.31 100.586 1152.15 106.545C1144.16 112.379 1131.97 112.082 1126.47 111.59C1124.34 111.442 1122.21 111.832 1120.26 112.723C1121.7 111.144 1122.72 109.23 1123.22 107.156Z" fill="#DADADA"/>
<path d="M1136.19 100.497L1119.97 112.344L1120.5 113.065L1136.72 101.218L1136.19 100.497Z" fill="#C4C4C4"/>
<path d="M1137.19 101.855C1137 101.999 1136.76 102.08 1136.52 102.09C1136.28 102.1 1136.04 102.037 1135.83 101.911C1135.62 101.784 1135.45 101.598 1135.35 101.378C1135.25 101.157 1135.22 100.911 1135.25 100.671C1135.29 100.43 1135.4 100.206 1135.56 100.027C1135.73 99.8477 1135.94 99.7216 1136.18 99.6641C1136.42 99.6066 1136.66 99.6205 1136.89 99.704C1137.12 99.7875 1137.32 99.9369 1137.46 100.133C1137.65 100.398 1137.73 100.726 1137.68 101.049C1137.63 101.371 1137.46 101.662 1137.19 101.855Z" fill="#C4C4C4"/>
<path d="M1128.01 102.574C1127.85 102.688 1127.67 102.752 1127.48 102.76C1127.28 102.768 1127.1 102.72 1126.93 102.62C1126.77 102.521 1126.64 102.374 1126.56 102.2C1126.48 102.026 1126.45 101.832 1126.48 101.643C1126.51 101.454 1126.6 101.278 1126.73 101.137C1126.86 100.997 1127.02 100.899 1127.21 100.854C1127.4 100.81 1127.59 100.821 1127.77 100.888C1127.95 100.955 1128.11 101.073 1128.22 101.229C1128.37 101.436 1128.43 101.693 1128.39 101.946C1128.35 102.198 1128.21 102.424 1128.01 102.574Z" fill="#C4C4C4"/>
<path d="M1127.81 102.039L1127.06 101.548L1119.87 112.473L1120.61 112.965L1127.81 102.039Z" fill="#C4C4C4"/>
<path d="M1132.29 108.417C1132.13 108.529 1132.01 108.684 1131.95 108.864C1131.88 109.043 1131.87 109.238 1131.91 109.424C1131.96 109.61 1132.06 109.778 1132.2 109.908C1132.34 110.038 1132.51 110.123 1132.7 110.152C1132.89 110.182 1133.08 110.155 1133.26 110.074C1133.43 109.994 1133.58 109.864 1133.68 109.701C1133.77 109.538 1133.82 109.349 1133.82 109.158C1133.81 108.967 1133.74 108.783 1133.63 108.629C1133.48 108.423 1133.25 108.286 1133 108.246C1132.75 108.207 1132.49 108.268 1132.29 108.417Z" fill="#C4C4C4"/>
<path d="M1132.74 108.779L1120.14 112.314L1120.38 113.174L1132.98 109.639L1132.74 108.779Z" fill="#C4C4C4"/>
<path d="M1114.43 93.4819L1113.58 93.7603L1119.83 112.846L1120.68 112.568L1114.43 93.4819Z" fill="#C4C4C4"/>
<path d="M1115.17 93.231C1115.25 93.463 1115.25 93.712 1115.19 93.9468C1115.12 94.1817 1114.99 94.3914 1114.8 94.5498C1114.62 94.7082 1114.39 94.8082 1114.15 94.8366C1113.9 94.865 1113.66 94.8208 1113.44 94.7097C1113.22 94.5986 1113.04 94.4256 1112.93 94.2125C1112.81 93.9994 1112.75 93.7559 1112.77 93.5127C1112.79 93.2694 1112.88 93.0374 1113.04 92.8462C1113.19 92.655 1113.39 92.5132 1113.63 92.4385C1113.94 92.3388 1114.27 92.3659 1114.56 92.5144C1114.85 92.6629 1115.07 92.9208 1115.17 93.231Z" fill="#C4C4C4"/>
<path d="M1113.01 102.203C1113.07 102.385 1113.07 102.58 1113.02 102.764C1112.97 102.948 1112.87 103.112 1112.72 103.237C1112.58 103.361 1112.4 103.439 1112.21 103.462C1112.02 103.485 1111.83 103.451 1111.66 103.365C1111.49 103.278 1111.35 103.144 1111.25 102.978C1111.16 102.811 1111.12 102.621 1111.13 102.431C1111.15 102.24 1111.22 102.059 1111.33 101.908C1111.45 101.758 1111.61 101.646 1111.79 101.587C1112.04 101.508 1112.3 101.529 1112.53 101.644C1112.76 101.76 1112.93 101.96 1113.01 102.203Z" fill="#C4C4C4"/>
<path d="M1120.6 112.435L1112.44 102.212L1111.74 102.77L1119.9 112.993L1120.6 112.435Z" fill="#C4C4C4"/>
<path d="M1119.84 99.9235C1119.9 100.105 1120.01 100.265 1120.16 100.384C1120.31 100.502 1120.49 100.574 1120.69 100.588C1120.88 100.603 1121.07 100.561 1121.23 100.467C1121.4 100.374 1121.54 100.233 1121.62 100.062C1121.71 99.8912 1121.74 99.699 1121.72 99.509C1121.7 99.319 1121.62 99.1393 1121.49 98.9941C1121.37 98.8489 1121.21 98.7445 1121.02 98.693C1120.84 98.6416 1120.64 98.6462 1120.46 98.7059C1120.34 98.7452 1120.23 98.8072 1120.13 98.8897C1120.03 98.9722 1119.95 99.0731 1119.9 99.1863C1119.84 99.2994 1119.81 99.4224 1119.8 99.5488C1119.79 99.6753 1119.8 99.803 1119.84 99.9235Z" fill="#C4C4C4"/>
<path d="M1121.22 99.6568L1120.33 99.6206L1119.8 112.694L1120.69 112.73L1121.22 99.6568Z" fill="#C4C4C4"/>
<path d="M1120.24 112.26L1100.17 112.305L1100.17 113.198L1120.24 113.153L1120.24 112.26Z" fill="#C4C4C4"/>
<path d="M1100.15 111.523C1100.39 111.523 1100.63 111.595 1100.84 111.729C1101.04 111.864 1101.2 112.056 1101.29 112.281C1101.38 112.506 1101.41 112.753 1101.36 112.992C1101.32 113.231 1101.2 113.452 1101.03 113.625C1100.86 113.798 1100.64 113.916 1100.4 113.964C1100.16 114.013 1099.91 113.988 1099.69 113.896C1099.46 113.804 1099.27 113.647 1099.13 113.445C1098.99 113.243 1098.92 113.005 1098.92 112.761C1098.92 112.434 1099.05 112.119 1099.28 111.887C1099.51 111.655 1099.82 111.524 1100.15 111.523Z" fill="#C4C4C4"/>
<path d="M1107.97 116.345C1108.16 116.344 1108.35 116.4 1108.51 116.506C1108.67 116.612 1108.79 116.763 1108.87 116.94C1108.94 117.116 1108.96 117.311 1108.92 117.498C1108.89 117.686 1108.79 117.859 1108.66 117.995C1108.52 118.13 1108.35 118.222 1108.17 118.26C1107.98 118.298 1107.78 118.28 1107.61 118.207C1107.43 118.134 1107.28 118.01 1107.17 117.852C1107.06 117.693 1107.01 117.506 1107.01 117.314C1107.01 117.187 1107.03 117.061 1107.08 116.944C1107.13 116.826 1107.2 116.721 1107.29 116.631C1107.38 116.54 1107.48 116.469 1107.6 116.42C1107.72 116.371 1107.84 116.345 1107.97 116.345Z" fill="#C4C4C4"/>
<path d="M1120.07 112.292L1107.83 116.904L1108.14 117.74L1120.39 113.128L1120.07 112.292Z" fill="#C4C4C4"/>
<path d="M1107.97 109.128C1108.16 109.128 1108.34 109.071 1108.5 108.964C1108.66 108.857 1108.78 108.705 1108.86 108.528C1108.93 108.351 1108.95 108.158 1108.91 107.97C1108.87 107.783 1108.78 107.61 1108.64 107.475C1108.51 107.34 1108.34 107.249 1108.15 107.212C1107.96 107.175 1107.77 107.195 1107.59 107.269C1107.41 107.342 1107.26 107.467 1107.16 107.627C1107.05 107.786 1107 107.973 1107 108.164C1107 108.291 1107.02 108.417 1107.07 108.534C1107.12 108.652 1107.19 108.759 1107.28 108.848C1107.37 108.938 1107.48 109.008 1107.59 109.056C1107.71 109.105 1107.84 109.129 1107.97 109.128Z" fill="#C4C4C4"/>
<path d="M1120.39 112.296L1108.12 107.753L1107.81 108.591L1120.08 113.134L1120.39 112.296Z" fill="#C4C4C4"/>
<path d="M1120.64 112.848L1119.79 112.574L1113.63 131.692L1114.48 131.965L1120.64 112.848Z" fill="#C4C4C4"/>
<path d="M1119.9 125.502C1119.96 125.32 1120.07 125.159 1120.22 125.04C1120.37 124.921 1120.55 124.85 1120.74 124.834C1120.93 124.818 1121.12 124.859 1121.29 124.951C1121.46 125.044 1121.59 125.184 1121.68 125.354C1121.77 125.524 1121.8 125.716 1121.78 125.906C1121.76 126.095 1121.68 126.274 1121.56 126.42C1121.43 126.565 1121.27 126.672 1121.08 126.724C1120.9 126.776 1120.71 126.773 1120.52 126.714C1120.28 126.635 1120.08 126.463 1119.96 126.236C1119.85 126.009 1119.82 125.745 1119.9 125.502Z" fill="#C4C4C4"/>
<path d="M1120.68 112.689L1119.79 112.73L1120.39 125.8L1121.28 125.759L1120.68 112.689Z" fill="#C4C4C4"/>
<path d="M1113.06 123.254C1113.11 123.072 1113.12 122.877 1113.06 122.693C1113.01 122.509 1112.91 122.345 1112.76 122.222C1112.62 122.098 1112.44 122.02 1112.25 121.998C1112.06 121.977 1111.87 122.011 1111.7 122.099C1111.53 122.186 1111.39 122.322 1111.29 122.489C1111.2 122.656 1111.16 122.847 1111.17 123.037C1111.19 123.228 1111.26 123.409 1111.38 123.559C1111.5 123.708 1111.66 123.819 1111.84 123.877C1112.09 123.955 1112.35 123.932 1112.58 123.816C1112.81 123.699 1112.98 123.497 1113.06 123.254Z" fill="#C4C4C4"/>
<path d="M1120.6 112.973L1119.9 112.419L1111.79 122.685L1112.49 123.239L1120.6 112.973Z" fill="#C4C4C4"/>
<path d="M1136.8 124.121L1120.52 112.355L1120 113.08L1136.28 124.845L1136.8 124.121Z" fill="#C4C4C4"/>
<path d="M1135.81 125.463C1135.61 125.32 1135.46 125.122 1135.37 124.893C1135.29 124.665 1135.27 124.416 1135.33 124.179C1135.39 123.942 1135.51 123.727 1135.69 123.561C1135.87 123.395 1136.09 123.286 1136.33 123.247C1136.57 123.209 1136.82 123.243 1137.04 123.345C1137.26 123.446 1137.45 123.611 1137.58 123.818C1137.7 124.026 1137.77 124.267 1137.76 124.511C1137.75 124.754 1137.67 124.989 1137.53 125.187C1137.34 125.452 1137.05 125.629 1136.72 125.681C1136.4 125.733 1136.07 125.655 1135.81 125.463Z" fill="#C4C4C4"/>
<path d="M1132.31 116.958C1132.16 116.846 1132.04 116.69 1131.97 116.511C1131.91 116.331 1131.89 116.136 1131.94 115.95C1131.98 115.764 1132.08 115.595 1132.22 115.465C1132.36 115.335 1132.54 115.25 1132.73 115.219C1132.92 115.189 1133.11 115.216 1133.28 115.296C1133.46 115.376 1133.6 115.505 1133.7 115.668C1133.8 115.831 1133.85 116.02 1133.85 116.211C1133.84 116.403 1133.77 116.587 1133.66 116.742C1133.59 116.845 1133.49 116.933 1133.39 116.999C1133.28 117.066 1133.16 117.11 1133.03 117.131C1132.91 117.151 1132.78 117.146 1132.66 117.117C1132.53 117.087 1132.42 117.033 1132.31 116.958Z" fill="#C4C4C4"/>
<path d="M1132.99 115.759L1120.37 112.286L1120.14 113.148L1132.75 116.62L1132.99 115.759Z" fill="#C4C4C4"/>
<path d="M1128.05 122.81C1127.9 122.698 1127.71 122.635 1127.52 122.628C1127.33 122.621 1127.14 122.671 1126.98 122.771C1126.82 122.871 1126.69 123.017 1126.61 123.191C1126.53 123.365 1126.5 123.558 1126.53 123.746C1126.56 123.935 1126.65 124.11 1126.78 124.25C1126.91 124.39 1127.08 124.488 1127.26 124.532C1127.45 124.576 1127.64 124.564 1127.82 124.497C1128 124.431 1128.16 124.313 1128.27 124.159C1128.34 124.056 1128.4 123.939 1128.42 123.816C1128.45 123.692 1128.46 123.564 1128.44 123.439C1128.42 123.313 1128.37 123.194 1128.31 123.086C1128.24 122.978 1128.15 122.884 1128.05 122.81Z" fill="#C4C4C4"/>
<path d="M1120.62 112.464L1119.88 112.96L1127.13 123.848L1127.88 123.352L1120.62 112.464Z" fill="#C4C4C4"/>
</g>
</g>
</svg>
