<svg width="75" height="76" viewBox="0 0 75 76" fill="none" xmlns="http://www.w3.org/2000/svg">
<circle cx="37.5" cy="38.125" r="37.5" fill="#FDE5D7"/>
<g clip-path="url(#clip0_3227_174923)">
<path d="M50.8684 40.036C52.3879 40.036 53.8451 40.6396 54.9195 41.7141C55.9939 42.7885 56.5975 44.2457 56.5975 45.7652V48.6298C56.5975 49.3895 56.2957 50.1181 55.7585 50.6553C55.2213 51.1926 54.4927 51.4944 53.733 51.4944H50.8684V47.6749C50.8696 46.1923 50.525 44.7299 49.8619 43.4038C49.1989 42.0778 48.2357 40.9246 47.0489 40.036H50.8684ZM48.9587 26.668C50.4781 26.668 51.9354 27.2716 53.0098 28.346C54.0842 29.4204 54.6878 30.8777 54.6878 32.3971C54.6878 33.9166 54.0842 35.3738 53.0098 36.4483C51.9354 37.5227 50.4781 38.1263 48.9587 38.1263C47.4392 38.1263 45.982 37.5227 44.9075 36.4483C43.8331 35.3738 43.2295 33.9166 43.2295 32.3971C43.2295 30.8777 43.8331 29.4204 44.9075 28.346C45.982 27.2716 47.4392 26.668 48.9587 26.668Z" fill="url(#paint0_linear_3227_174923)"/>
<path d="M44.8089 42.2678C43.3763 40.8352 41.4333 40.0304 39.4073 40.0304H26.0393C24.0133 40.0304 22.0703 40.8352 20.6378 42.2678C19.2052 43.7003 18.4004 45.6433 18.4004 47.6693V50.5339C18.4004 51.2936 18.7022 52.0222 19.2394 52.5594C19.7766 53.0966 20.5052 53.3984 21.265 53.3984H44.1816C44.9414 53.3984 45.67 53.0966 46.2072 52.5594C46.7444 52.0222 47.0462 51.2936 47.0462 50.5339V47.6693C47.0462 45.6433 46.2414 43.7003 44.8089 42.2678Z" fill="#FEC770"/>
<path d="M38.8 21.5405C37.1884 19.9288 35.0025 19.0234 32.7233 19.0234C30.4441 19.0234 28.2583 19.9288 26.6466 21.5405C25.035 23.1521 24.1296 25.338 24.1296 27.6172C24.1296 29.8964 25.035 32.0822 26.6466 33.6939C28.2583 35.3055 30.4441 36.2109 32.7233 36.2109C35.0025 36.2109 37.1884 35.3055 38.8 33.6939C40.4116 32.0822 41.3171 29.8964 41.3171 27.6172C41.3171 25.338 40.4116 23.1521 38.8 21.5405Z" fill="#FEC770"/>
<path d="M44.8089 42.2678C43.3763 40.8352 41.4333 40.0304 39.4073 40.0304H26.0393C24.0133 40.0304 22.0703 40.8352 20.6378 42.2678C19.2052 43.7003 18.4004 45.6433 18.4004 47.6693V50.5339C18.4004 51.2936 18.7022 52.0222 19.2394 52.5594C19.7766 53.0966 20.5052 53.3984 21.265 53.3984H44.1816C44.9414 53.3984 45.67 53.0966 46.2072 52.5594C46.7444 52.0222 47.0462 51.2936 47.0462 50.5339V47.6693C47.0462 45.6433 46.2414 43.7003 44.8089 42.2678Z" stroke="#985801" stroke-width="2.08333" stroke-miterlimit="10"/>
<path d="M38.8 21.5405C37.1884 19.9288 35.0025 19.0234 32.7233 19.0234C30.4441 19.0234 28.2583 19.9288 26.6466 21.5405C25.035 23.1521 24.1296 25.338 24.1296 27.6172C24.1296 29.8964 25.035 32.0822 26.6466 33.6939C28.2583 35.3055 30.4441 36.2109 32.7233 36.2109C35.0025 36.2109 37.1884 35.3055 38.8 33.6939C40.4116 32.0822 41.3171 29.8964 41.3171 27.6172C41.3171 25.338 40.4116 23.1521 38.8 21.5405Z" stroke="#985801" stroke-width="2.08333" stroke-miterlimit="10"/>
<path d="M19.3604 50.2843C28.1026 47.7879 37.3691 47.7879 46.1114 50.2843V50.3394C46.1114 51.49 45.1786 52.4227 44.0281 52.4227H21.4437C20.2931 52.4227 19.3604 51.49 19.3604 50.3394V50.2843Z" fill="white"/>
</g>
<defs>
<linearGradient id="paint0_linear_3227_174923" x1="43.1889" y1="39.0952" x2="56.6381" y2="39.0952" gradientUnits="userSpaceOnUse">
<stop stop-color="#E1590A"/>
<stop offset="1" stop-color="#C23102"/>
</linearGradient>
<clipPath id="clip0_3227_174923">
<rect width="45.8333" height="45.8333" fill="white" transform="translate(14.583 15.207)"/>
</clipPath>
</defs>
</svg>
