<svg width="1366" height="186" viewBox="0 0 1366 186" fill="none" xmlns="http://www.w3.org/2000/svg">
<path d="M0 45H1367V172.204C1367 172.204 1063.4 185.171 688.117 185.968C312.832 186.765 0 172.204 0 172.204V45Z" fill="#D63132"/>
<path d="M1.03968 0H1368L1366.96 173.305C1366.96 173.305 1068.14 183.266 692.865 183.969C317.591 184.671 0 173.305 0 173.305L1.03968 0Z" fill="url(#paint0_linear)"/>
<mask id="mask0" style="mask-type:alpha" maskUnits="userSpaceOnUse" x="1" y="0" width="1367" height="184">
<path d="M2.03892 0H1368L1366.96 173.305C1366.96 173.305 1068.36 183.266 693.358 183.969C318.359 184.671 1 173.305 1 173.305L2.03892 0Z" fill="#E5CDD4"/>
</mask>
<g mask="url(#mask0)">
<path d="M657 146.114V174.978H527.779C525.451 174.978 523.218 174.519 521.571 173.703C519.925 172.886 519 171.779 519 170.624C519 169.469 519.925 168.361 521.571 167.545C523.218 166.728 525.451 166.269 527.779 166.269C527.957 166.269 528.134 166.273 528.308 166.277C528.993 165.136 530.31 164.113 532.108 163.325C533.907 162.537 536.116 162.014 538.483 161.817C538.891 161.099 539.646 160.441 540.682 159.901C541.718 159.36 543.005 158.953 544.43 158.715C545.855 158.476 547.376 158.414 548.861 158.533C550.346 158.652 551.75 158.949 552.951 159.398C553.461 159.227 553.992 159.073 554.542 158.935C556.656 157.804 559.563 157.117 562.665 157.015C562.122 155.654 562.517 154.242 563.787 153.006C565.057 151.771 567.127 150.782 569.666 150.201C572.205 149.619 575.064 149.477 577.784 149.799C580.505 150.12 582.928 150.886 584.665 151.973C586.025 150.871 588.151 150.053 590.642 149.675C593.133 149.297 595.817 149.383 598.188 149.918C601.038 148.685 604.741 148.048 608.518 148.141C612.295 148.235 615.852 149.051 618.44 150.419C619.854 150.173 621.34 150.042 622.84 150.034C621.999 149.521 621.468 148.9 621.309 148.244C621.151 147.587 621.37 146.922 621.942 146.325C622.515 145.728 623.417 145.224 624.543 144.871C625.67 144.517 626.976 144.33 628.308 144.33C628.46 144.33 628.611 144.33 628.761 144.337C629.634 142.66 631.71 141.198 634.6 140.226C637.49 139.254 640.995 138.839 644.459 139.057C647.923 139.275 651.108 140.112 653.417 141.411C655.725 142.711 656.999 144.383 657 146.115V146.114Z" fill="url(#paint1_linear)"/>
<path d="M713.482 175.005V146.142C713.483 144.41 714.443 142.738 716.183 141.439C717.923 140.139 720.323 139.302 722.933 139.084C725.544 138.866 728.186 139.282 730.364 140.254C732.542 141.226 734.106 142.687 734.764 144.364C734.877 144.357 734.991 144.357 735.105 144.357C736.11 144.357 737.093 144.545 737.942 144.898C738.792 145.251 739.471 145.755 739.903 146.352C740.334 146.95 740.499 147.615 740.38 148.271C740.26 148.928 742.371 147.022 749.594 147.522C753.219 147.773 755.657 148.712 757.804 149.946C759.591 149.41 761.614 149.324 763.491 149.702C765.369 150.081 766.971 150.898 767.996 152C769.305 150.913 771.131 150.148 773.181 149.826C775.231 149.505 777.386 149.646 779.299 150.228C781.213 150.81 782.773 151.798 783.73 153.034C784.687 154.27 784.984 155.681 784.575 157.042C786.914 157.144 789.104 157.832 790.697 158.963C791.111 159.1 791.512 159.255 791.896 159.426C792.802 158.977 793.86 158.68 794.978 158.561C796.097 158.441 797.244 158.504 798.318 158.742C799.392 158.98 800.361 159.387 801.142 159.928C801.923 160.469 802.492 161.127 802.799 161.845C804.584 162.042 806.248 162.564 807.604 163.352C808.959 164.141 809.952 165.164 810.468 166.305C810.599 166.3 810.732 166.297 810.866 166.297C812.621 166.297 814.304 166.755 815.545 167.572C816.785 168.389 817.482 169.496 817.482 170.651C817.482 171.806 816.785 172.913 815.545 173.73C814.304 174.547 812.621 175.005 810.866 175.005H713.482Z" fill="url(#paint2_linear)"/>
<path d="M742 80.304H807.519C803.619 79.8371 799.594 79.3135 795.696 78.8467C795.641 78.3482 795.457 77.8726 795.16 77.467C794.864 77.0614 794.466 76.7398 794.007 76.5342C793.561 76.329 793.067 76.2467 792.578 76.2961C792.089 76.3455 791.622 76.5247 791.226 76.8149C791.433 75.4213 790.179 74.1172 788.882 73.5528C787.541 73.084 786.115 72.9105 784.7 73.0441C784.532 71.4278 783.919 69.889 782.929 68.597C781.939 67.3051 780.61 66.3101 779.088 65.7215C777.562 65.1162 775.911 64.8866 774.277 65.0523C772.642 65.218 771.072 65.774 769.7 66.6732C768.343 67.5929 767.192 68.7841 766.323 70.1709C765.454 71.5576 764.884 73.1094 764.651 74.7274C763.649 74.6175 762.636 74.79 761.728 75.2255C760.82 75.661 760.053 76.3418 759.515 77.1902C758.552 76.7344 757.457 76.6382 756.429 76.9191C755.401 77.1999 754.509 77.8392 753.915 78.7202L742 80.304Z" fill="url(#paint3_linear)"/>
<path fill-rule="evenodd" clip-rule="evenodd" d="M740.17 129.908L727.046 150.48C727.046 150.48 725.076 146.523 718.772 143.968L718.348 143.877C718.348 143.877 717.275 141.571 714.032 139.673C713.078 139.123 712.07 138.671 711.025 138.324C711.025 138.324 711.32 134.127 706.746 132.42C710.141 129.805 714.003 127.862 718.126 126.695C724.188 124.982 732.058 124.738 740.17 129.908Z" fill="#E9802D"/>
<path fill-rule="evenodd" clip-rule="evenodd" d="M751.97 161.281C750.423 159.915 748.911 159.451 747.678 159.374C746.696 159.3 745.711 159.477 744.816 159.889C741.57 156.1 736.711 155.58 736.711 155.58L736.451 155.235C732.44 151.123 727.05 150.472 727.05 150.472L740.17 129.905C750.282 136.356 752.595 146.025 752.781 152.919C752.875 155.73 752.602 158.54 751.97 161.281Z" fill="#DF6300"/>
<g style="mix-blend-mode:multiply" opacity="0.5">
<path fill-rule="evenodd" clip-rule="evenodd" d="M751.969 161.283C750.422 159.917 748.91 159.454 747.678 159.376C747.574 159.251 744.154 155.159 734.346 148.432C732.911 147.451 731.47 146.568 730.052 145.781C725.04 142.971 719.642 140.913 714.031 139.672C713.077 139.122 712.07 138.67 711.025 138.323C711.025 138.323 711.32 134.126 706.746 132.419C710.14 129.804 714.002 127.861 718.125 126.694L721.856 127.375L734.897 138.151L752.777 152.926C752.871 155.735 752.6 158.544 751.969 161.283Z" fill="#C76DA5"/>
</g>
<path fill-rule="evenodd" clip-rule="evenodd" d="M715.134 169.484L742.738 126.55C742.738 126.55 743.323 126.199 743.307 126.896L715.948 170.001L715.134 169.484Z" fill="#985801"/>
<path fill-rule="evenodd" clip-rule="evenodd" d="M751.969 161.281C751.969 161.281 751.965 161.231 751.95 161.139C751.818 160.323 750.87 156.129 745.377 154.686C745.377 154.686 744.019 148.804 737.091 148.434C737.091 148.434 736.316 145.199 732.097 142.558C728.319 140.179 724.927 140.579 724.927 140.579C720.618 133.812 715.499 135.628 715.499 135.628C711.828 130.935 707.461 132.175 706.824 132.391L706.746 132.417C723.843 118.66 739.42 129.381 740.145 129.884L740.169 129.906L740.458 130.076C742.647 131.426 756.349 140.73 752.273 159.977C752.19 160.369 752.102 160.764 752.003 161.165C751.993 161.204 751.983 161.238 751.969 161.281Z" fill="url(#paint4_radial)"/>
<path style="mix-blend-mode:multiply" opacity="0.5" fill-rule="evenodd" clip-rule="evenodd" d="M740.455 130.081C732.78 129.379 724.927 140.579 724.927 140.579C720.618 133.813 715.5 135.628 715.5 135.628C711.829 130.935 707.462 132.175 706.824 132.391C712.011 130.547 714.348 133.705 714.348 133.705C729.102 122.583 739.553 129.484 740.145 129.885L740.17 129.906C728.041 123.203 716.507 135.139 716.319 135.302C719.629 133.949 724.657 137.924 724.657 137.924C733.497 128.776 740.15 130.015 740.452 130.079L740.455 130.081Z" fill="url(#paint5_linear)"/>
<path style="mix-blend-mode:multiply" opacity="0.5" fill-rule="evenodd" clip-rule="evenodd" d="M752.001 161.171L751.956 161.132C751.824 160.315 750.875 156.121 745.383 154.678C745.383 154.678 744.025 148.796 737.096 148.427C737.096 148.427 744.433 136.801 740.74 130.263C740.859 130.425 744.6 135.744 740.006 147.689C740.006 147.689 745.751 150.587 745.904 154.147C745.975 153.909 751.55 138.255 740.745 130.253C740.745 130.253 752.167 136.66 748.186 155.266C748.186 155.266 751.27 155.896 752.279 159.974C752.189 160.375 752.1 160.769 752.001 161.171Z" fill="url(#paint6_linear)"/>
<path fill-rule="evenodd" clip-rule="evenodd" d="M721 74.6079C721 74.6079 713.125 128.417 712.884 171.802H652.27C652.27 171.802 652.27 171.802 652.27 171.745C652.27 171.568 652.209 170.981 652.137 170.032C651.699 164.1 650.339 144.087 650.331 122.087C650.331 110.934 650.665 99.2744 651.65 88.6807C652.008 84.7673 652.455 80.9988 653.01 77.4595C653.01 77.4595 685.668 72.7176 718.205 73.0877L721 74.6079Z" fill="url(#paint7_linear)"/>
<path fill-rule="evenodd" clip-rule="evenodd" d="M717.924 73.0914C717.924 73.0914 711.662 115.197 710.596 171.81H712.607C712.607 171.81 713.841 119.874 720.719 74.6157L717.924 73.0914Z" fill="#9D031B"/>
<g style="mix-blend-mode:multiply" opacity="0.5">
<path fill-rule="evenodd" clip-rule="evenodd" d="M712.852 75.1023L707.197 170.205H651.867L653.653 80.2423L712.852 75.1023Z" fill="#D82F30"/>
</g>
<path fill-rule="evenodd" clip-rule="evenodd" d="M712.848 75.9911C712.446 77.9056 702.725 126.237 706.2 169.537L661.311 169.939L651.864 170.028H651.405C651.405 170.028 647.971 160.749 646.981 142.892C646.616 135.968 646.636 129.028 647.041 122.106C647.71 110.875 649.157 99.7033 651.373 88.6722C651.909 85.9212 652.509 83.1059 653.171 80.2262C653.171 80.2262 676.152 76.4657 712.848 75.9348C712.849 75.9536 712.849 75.9724 712.848 75.9911Z" fill="url(#paint8_linear)"/>
<path style="mix-blend-mode:multiply" opacity="0.5" fill-rule="evenodd" clip-rule="evenodd" d="M664.585 78.7169C664.585 78.7169 662.827 82.8394 663.378 83.7604C663.929 84.6814 664.46 85.0273 665.341 85.0836C666.222 85.1399 698.265 83.5271 699.198 83.326C699.513 83.2685 699.805 83.1203 700.038 82.8996C700.271 82.6789 700.434 82.3953 700.509 82.0833C700.698 81.1462 701.056 76.2233 701.056 76.2233H700.38C700.38 76.2233 699.865 81.0496 698.619 81.8098C697.372 82.5699 666.286 84.0701 665.679 83.7765C665.072 83.4829 665.965 78.6204 665.965 78.6204L664.585 78.7169Z" fill="url(#paint9_linear)"/>
<path d="M665.638 84.101C665.466 84.1033 665.294 84.0966 665.123 84.0809C664.21 83.9602 663.232 83.4896 663.232 82.7416C663.232 82.6893 664.057 77.1109 664.877 76.7449C665.3 76.5639 667.669 76.3427 668.67 76.2582L668.755 77.2597C667.391 77.3803 665.855 77.5452 665.38 77.6619C665.038 78.4099 664.318 82.0377 664.242 82.7094C664.532 82.9422 664.885 83.0824 665.255 83.1116C665.694 83.1719 668.807 83.0271 673.191 82.7456C673.37 82.7342 673.542 82.6698 673.685 82.5606C675.543 81.1915 677.777 80.4263 680.084 80.3686C682.436 80.3709 684.755 80.9217 686.857 81.9774C687.001 82.0522 687.162 82.0882 687.324 82.082L688.933 82.0136C691.559 81.909 697.025 81.6918 697.612 81.547C697.95 81.4823 698.262 81.3173 698.506 81.0735C698.75 80.8297 698.915 80.5183 698.979 80.1796C699.18 79.3189 699.707 76.0249 699.832 74.9149C699.24 74.9179 698.649 74.9582 698.062 75.0356L697.942 74.0341C700.508 73.7244 700.757 74.0059 700.853 74.4363C700.95 74.8666 700.093 79.8418 699.977 80.3968C699.87 80.9161 699.615 81.393 699.241 81.7688C698.867 82.1447 698.392 82.4031 697.873 82.5123C697.238 82.6692 693.135 82.8421 688.989 83.007L687.38 83.0754C687.044 83.0904 686.71 83.0169 686.411 82.8622C684.457 81.875 682.301 81.3559 680.112 81.346C678.021 81.3971 675.996 82.0907 674.313 83.3328C674.012 83.5675 673.648 83.7075 673.267 83.735C670.902 83.8717 667.106 84.101 665.638 84.101Z" fill="url(#paint10_linear)"/>
<path fill-rule="evenodd" clip-rule="evenodd" d="M667.734 75.6838L667.4 76.2147C667.226 76.2256 667.061 76.2971 666.934 76.4168C666.807 76.5366 666.725 76.697 666.704 76.8703C666.697 77.0275 666.73 77.1841 666.8 77.3249C666.871 77.4657 666.976 77.5861 667.106 77.6746V78.4388C667.106 78.4388 687.083 77.0754 698.212 76.4037L698.634 75.5028C698.634 75.5028 697.733 74.5174 698.341 73.9705L698.634 73.3913C698.634 73.3913 681.328 74.1876 667.734 75.6838Z" fill="#E26400"/>
<path style="mix-blend-mode:screen" fill-rule="evenodd" clip-rule="evenodd" d="M666.829 76.5186C666.829 76.5186 691.242 74.8012 698.007 74.5076C698.007 74.5076 698.031 74.1054 698.313 73.9727C698.313 73.9727 676.731 75.1552 667.388 76.2009C667.4 76.2169 666.946 76.2692 666.829 76.5186Z" fill="url(#paint11_radial)"/>
<path fill-rule="evenodd" clip-rule="evenodd" d="M693.675 81.3928C693.568 81.5168 693.488 81.6611 693.438 81.8172C693.389 81.9733 693.372 82.1378 693.388 82.3007C693.404 82.4637 693.453 82.6216 693.532 82.7649C693.611 82.9082 693.719 83.0339 693.848 83.1343C693.848 83.1343 697.601 83.259 698.606 83.07C699.612 82.881 699.986 82.3782 700.175 81.3124C700.364 80.2466 700.677 77.3991 700.677 77.3991C700.432 77.2262 700.139 77.1333 699.839 77.1333C699.539 77.1333 699.246 77.2262 699 77.3991C699 77.3991 698.618 79.9932 698.53 80.3954C698.499 80.6148 698.395 80.8176 698.235 80.9713C698.076 81.1251 697.869 81.2211 697.649 81.244C697.255 81.2601 693.675 81.3928 693.675 81.3928Z" fill="#E26400"/>
<path fill-rule="evenodd" clip-rule="evenodd" d="M669.54 84.2856C669.54 84.2856 668.929 83.7426 669.516 82.5682C669.516 82.5682 666.604 82.7774 665.744 82.713C664.883 82.6487 664.835 82.162 664.815 81.7236C664.891 80.963 665.016 80.208 665.189 79.4633C664.959 79.2947 664.681 79.2038 664.396 79.2038C664.111 79.2038 663.834 79.2947 663.604 79.4633C663.604 79.4633 663.073 82.2384 663.202 82.9946C663.33 83.7507 663.934 84.3419 664.987 84.4183C666.041 84.4947 669.54 84.2856 669.54 84.2856Z" fill="#E26400"/>
<path fill-rule="evenodd" clip-rule="evenodd" d="M669.516 82.5672L669.737 82.9131H669.54C669.445 83.243 669.445 83.5927 669.54 83.9226H669.737C669.737 83.9226 669.737 84.0553 669.54 84.2846C669.427 84.1792 669.341 84.0491 669.287 83.9047C669.233 83.7602 669.214 83.6053 669.23 83.4521C669.208 83.1314 669.31 82.8145 669.516 82.5672Z" fill="url(#paint12_radial)"/>
<path style="mix-blend-mode:screen" fill-rule="evenodd" clip-rule="evenodd" d="M675.199 81.9618C675.199 81.9618 677.697 80.4898 682.571 80.8276C682.571 80.8276 677.97 79.5486 675.199 81.9618Z" fill="url(#paint13_radial)"/>
<g style="mix-blend-mode:screen" opacity="0.5">
<path fill-rule="evenodd" clip-rule="evenodd" d="M710.176 73.0997C710.176 73.0997 715.376 73.0675 716.466 73.9885C717.556 74.9096 712.042 117.164 712.151 138.818C712.151 138.818 715.428 88.0492 718.256 73.0917C718.256 73.0917 714.033 73.0313 710.176 73.0997Z" fill="#FC947D"/>
</g>
<g style="mix-blend-mode:multiply" opacity="0.2">
<path fill-rule="evenodd" clip-rule="evenodd" d="M706.188 169.539L651.393 170.046C651.393 170.046 647.962 160.767 646.969 142.91C670.404 169.205 701.808 152.337 705.061 142.636C705.934 108.048 712.462 77.481 712.832 75.9929C712.446 77.9073 702.721 126.247 706.188 169.539Z" fill="#FB8B75"/>
</g>
<path fill-rule="evenodd" clip-rule="evenodd" d="M706.188 169.539C706.188 169.539 701.035 136.559 712.84 75.9929C712.848 75.9929 702.881 126.247 706.188 169.539Z" fill="url(#paint14_linear)"/>
<path d="M680.205 167.015L680.197 166.682L702.764 166.231L702.768 166.569L680.205 167.015Z" fill="#B589B6"/>
<g style="mix-blend-mode:screen" opacity="0.5">
<path fill-rule="evenodd" clip-rule="evenodd" d="M710.596 171.81C710.596 171.81 708.955 133.425 714.215 106.84C714.199 106.84 710.125 159.483 710.596 171.81Z" fill="#D82F30"/>
</g>
<path fill-rule="evenodd" clip-rule="evenodd" d="M655.296 121.926L656.595 123.032C656.595 123.032 662.768 150.784 636.296 166.493L634.016 166.731C634.016 166.731 653.413 140.319 655.296 121.926Z" fill="#985801"/>
<path fill-rule="evenodd" clip-rule="evenodd" d="M634.015 166.732C634.015 166.732 613.431 156.07 615.096 124.048L627.833 113.317C627.833 113.317 638.363 113.8 655.295 121.928C655.295 121.928 661.448 151.039 634.015 166.732Z" fill="url(#paint15_linear)"/>
<path fill-rule="evenodd" clip-rule="evenodd" d="M616.005 125.037C616.005 125.037 613.97 150.411 632.571 163.728C632.571 163.728 655.898 153.649 653.618 123.211C645.471 118.817 636.562 116.012 627.367 114.946C627.367 114.946 619.396 121.385 616.005 125.037Z" fill="url(#paint16_radial)"/>
<path fill-rule="evenodd" clip-rule="evenodd" d="M619.564 138.953C619.642 140.715 620.07 142.443 620.823 144.037C622.706 143.239 624.639 142.567 626.611 142.026C629.952 141.506 633.361 141.607 636.666 142.324L637.583 137.067C633.83 135.948 629.906 135.512 626 135.78C626 135.78 621.953 136.951 619.564 138.953Z" fill="url(#paint17_linear)"/>
<path fill-rule="evenodd" clip-rule="evenodd" d="M623.3 129.751L625.826 128.255L630.56 129.461C630.56 129.461 629.787 137.682 630.889 148.948L627.994 149.752L626.015 149.527C626.015 149.527 622.628 139.918 623.3 129.751Z" fill="url(#paint18_linear)"/>
<path style="mix-blend-mode:multiply" opacity="0.86" fill-rule="evenodd" clip-rule="evenodd" d="M627.579 115.001C627.579 115.001 620.178 139.788 633.76 168.416C633.76 168.416 659.814 156.089 655.04 123.612C655.04 123.612 645.167 117.997 627.579 115.001Z" fill="url(#paint19_linear)" fill-opacity="0.2"/>
<path d="M694.405 93.4795C694.407 93.4396 694.161 93.4071 694.108 93.3912C694.103 93.3903 694.099 93.3885 694.095 93.3857C693.515 93.1134 677.943 91.5146 677.943 91.5146C677.943 91.5146 662.4 93.3315 661.828 93.6118C661.823 93.6144 661.817 93.6163 661.811 93.6175C661.759 93.6337 661.512 93.6697 661.513 93.71C660.593 94.0398 659.785 94.7363 659.213 95.6933C658.641 96.6504 658.336 97.8155 658.345 99.0112C658.353 100.207 658.674 101.368 659.26 102.316C659.845 103.265 660.662 103.95 661.587 104.267C661.588 104.308 661.834 104.344 661.886 104.351C661.892 104.354 661.898 104.356 661.903 104.358C662.479 104.632 678.046 106.223 678.046 106.223C678.046 106.223 693.595 104.414 694.17 104.132C694.174 104.129 694.178 104.128 694.183 104.125C694.236 104.114 694.481 104.075 694.479 104.037C695.399 103.707 696.207 103.011 696.779 102.053C697.351 101.096 697.656 99.9314 697.648 98.7357C697.639 97.54 697.318 96.3793 696.733 95.4304C696.147 94.4815 695.33 93.7964 694.405 93.4795Z" fill="#9D031B"/>
<path d="M694.751 92.0921C694.753 92.0524 694.502 92.0201 694.448 92.0043C694.444 92.0035 694.439 92.0016 694.435 91.9989C693.846 91.7283 677.998 90.1411 677.998 90.1411C677.998 90.1411 662.18 91.9502 661.597 92.229C661.592 92.2316 661.586 92.2335 661.58 92.2347C661.527 92.2508 661.275 92.2867 661.277 92.3267C660.34 92.6548 659.518 93.3474 658.936 94.2991C658.354 95.2508 658.043 96.4093 658.051 97.5982C658.06 98.7871 658.386 99.9412 658.982 100.885C659.578 101.828 660.409 102.509 661.351 102.824C661.351 102.864 661.602 102.9 661.655 102.907C661.661 102.91 661.666 102.912 661.672 102.914C662.258 103.187 678.101 104.766 678.101 104.766C678.101 104.766 693.924 102.965 694.51 102.684C694.514 102.681 694.519 102.681 694.523 102.677C694.577 102.667 694.827 102.627 694.825 102.589C695.761 102.261 696.583 101.569 697.166 100.617C697.748 99.6653 698.059 98.5067 698.05 97.3179C698.042 96.129 697.715 94.9749 697.119 94.0315C696.524 93.0881 695.692 92.407 694.751 92.0921Z" fill="#E50019"/>
<path d="M663.237 95.6642L661.587 95.6758L661.611 99.5453L663.195 99.5342C663.195 99.5342 665.001 99.5173 664.987 97.5461C664.987 97.5461 664.974 95.652 663.237 95.6642ZM664.159 97.5788C664.168 98.8736 662.995 98.8941 662.995 98.8941L662.356 98.8986L662.338 96.2851L663.022 96.2803C663.169 96.2626 663.317 96.2835 663.456 96.3414C663.596 96.3993 663.724 96.493 663.831 96.6162C663.939 96.7393 664.024 96.8891 664.08 97.0553C664.136 97.2216 664.163 97.4005 664.157 97.58" fill="white"/>
<path d="M668.098 99.4986L668.905 99.493L668.016 96.2552C667.957 96.0736 667.855 95.9175 667.722 95.807C667.59 95.6964 667.434 95.6364 667.274 95.6347C667.125 95.6138 666.974 95.6149 666.825 95.6378C666.665 95.6417 666.509 95.7039 666.379 95.8163C666.248 95.9287 666.148 96.0862 666.091 96.2687L665.248 99.5186L666.045 99.513L666.309 98.4578L667.824 98.4472L668.099 99.4986L668.098 99.4986ZM666.462 97.8378L666.794 96.5082C666.81 96.4389 666.844 96.3779 666.891 96.3343C666.938 96.2907 666.995 96.267 667.054 96.2665C667.113 96.2661 667.171 96.2891 667.218 96.332C667.266 96.375 667.301 96.4355 667.318 96.5046L667.662 97.8294L666.462 97.8378Z" fill="white"/>
<path d="M672.468 97.0277L670.847 97.039L670.851 97.657L672.472 97.6457L672.468 97.0277Z" fill="white"/>
<path d="M670.247 95.5962L669.479 95.6016L669.506 99.4873L670.274 99.4819L670.247 95.5962Z" fill="white"/>
<path d="M673.847 95.5722L673.078 95.5775L673.105 99.4633L673.874 99.4579L673.847 95.5722Z" fill="white"/>
<path d="M682.197 95.5136L681.427 95.519L681.454 99.4048L682.224 99.3994L682.197 95.5136Z" fill="white"/>
<path d="M687.897 95.4903L687.13 95.4957L687.157 99.3652L687.925 99.3598L687.897 95.4903Z" fill="white"/>
<path d="M680.061 95.5272L680.071 96.9728L678.589 96.9832L678.579 95.5376L677.811 95.543L677.838 99.4287L678.606 99.4233L678.594 97.6003L680.075 97.59L680.088 99.4121L680.857 99.4067L680.829 95.5218L680.061 95.5272Z" fill="white"/>
<path d="M686.636 98.7096L685.093 98.7204C685.037 98.7212 684.981 98.7084 684.929 98.6828C684.877 98.6572 684.829 98.6193 684.789 98.5712C684.749 98.5232 684.717 98.466 684.694 98.4029C684.672 98.3398 684.661 98.272 684.66 98.2034L684.641 95.5141L683.873 95.5195L683.891 98.1632C683.881 98.3177 683.898 98.473 683.939 98.6195C683.981 98.766 684.047 98.9005 684.134 99.0146C684.22 99.1287 684.324 99.2199 684.441 99.2825C684.557 99.3451 684.683 99.3777 684.81 99.3784L686.641 99.3656L686.636 98.7096Z" fill="white"/>
<path d="M689.736 96.1189L691.28 96.1081L691.276 95.45L689.446 95.4628C689.319 95.4653 689.193 95.4998 689.078 95.5642C688.962 95.6285 688.858 95.7214 688.774 95.8369C688.689 95.9524 688.625 96.088 688.585 96.2353C688.545 96.3826 688.531 96.5384 688.543 96.6929L688.562 99.3515L689.33 99.3461L689.32 97.8039L691.188 97.7908L691.184 97.1736L689.315 97.1867L689.312 96.6407C689.311 96.5724 689.322 96.5047 689.343 96.4414C689.364 96.3782 689.395 96.3208 689.434 96.2723C689.474 96.2239 689.521 96.1854 689.572 96.1592C689.624 96.1329 689.679 96.1194 689.736 96.1193" fill="white"/>
<path d="M692.967 98.6658C692.911 98.6665 692.855 98.6536 692.803 98.628C692.751 98.6023 692.703 98.5644 692.663 98.5164C692.623 98.4683 692.591 98.4111 692.569 98.348C692.547 98.285 692.535 98.2172 692.535 98.1487L692.531 97.6449L694.383 97.6319L694.378 97.0122L692.527 97.0251L692.524 96.6192C692.523 96.5514 692.534 96.4842 692.555 96.4217C692.576 96.3591 692.608 96.3025 692.648 96.2551C692.687 96.2078 692.734 96.1708 692.786 96.1464C692.838 96.1219 692.893 96.1105 692.949 96.1128L694.492 96.102L694.488 95.4456L692.656 95.4585C692.53 95.4587 692.405 95.4912 692.289 95.5538C692.174 95.6164 692.07 95.7077 691.986 95.8219C691.901 95.9362 691.837 96.0708 691.797 96.2171C691.758 96.3635 691.744 96.5184 691.756 96.6719L691.766 98.1085C691.756 98.2628 691.773 98.418 691.814 98.5644C691.856 98.7108 691.922 98.8452 692.008 98.9593C692.094 99.0734 692.198 99.1646 692.315 99.2273C692.431 99.29 692.556 99.3229 692.683 99.3237L694.521 99.3108L694.504 98.655L692.967 98.6658" fill="white"/>
<path d="M677.268 95.5629L676.163 95.5706C675.939 95.5408 675.712 95.569 675.498 95.6535C675.283 95.738 675.086 95.8768 674.919 96.0609C674.752 96.2449 674.619 96.4701 674.529 96.7215C674.438 96.9729 674.393 97.245 674.395 97.5198C674.396 97.7946 674.446 98.066 674.54 98.3161C674.634 98.5662 674.77 98.7895 674.94 98.9712C675.109 99.1529 675.308 99.2889 675.524 99.3704C675.739 99.4519 675.966 99.4769 676.19 99.444L677.301 99.4362L677.297 98.7824L676.292 98.7894C676.013 98.7914 675.744 98.6581 675.545 98.4188C675.346 98.1795 675.233 97.8538 675.23 97.5135C675.228 97.1731 675.336 96.8459 675.532 96.6039C675.728 96.3618 675.995 96.2248 676.274 96.2228L677.273 96.2158L677.268 95.5629Z" fill="white"/>
<path d="M657 114L695 113V116H657V114Z" fill="#C4C4C4"/>
<path d="M658 122L696 121V124H658V122Z" fill="#C4C4C4"/>
<path d="M504.468 165.855C278.103 176.034 74.5038 156.081 1 144.832V184.112H735.281V170.281C743.087 164.564 730.834 155.675 504.468 165.855Z" fill="url(#paint20_linear)"/>
<path d="M1171.86 155.896C1095.36 163.42 840.346 167.513 734.969 168.62V184.11H1367V131C1340.33 135.426 1263.96 146.601 1171.86 155.896Z" fill="url(#paint21_linear)"/>
<path d="M1222.59 160.876C1115.26 170.281 881.091 170.835 762.054 170.281V184.112H1367V142.066L1366.61 142.139C1352.48 144.811 1306.3 153.541 1222.59 160.876Z" fill="url(#paint22_linear)"/>
<path d="M367.682 171.386C207.174 172.713 69.3014 163.087 20.4287 158.108V184.11H1367V153.129C1329.06 157.002 1229.64 165.743 1135.5 169.726C1067.59 172.824 830.522 171.017 736.635 169.726C737.278 168.251 733.163 164.857 711.556 163.087C684.547 160.874 568.318 169.726 367.682 171.386Z" fill="url(#paint23_linear)"/>
</g>
<defs>
<linearGradient id="paint0_linear" x1="682.176" y1="0.162525" x2="681.502" y2="183.82" gradientUnits="userSpaceOnUse">
<stop stop-color="#FEF2ED"/>
<stop offset="1" stop-color="#FCE5D7"/>
</linearGradient>
<linearGradient id="paint1_linear" x1="595.176" y1="132.776" x2="595.157" y2="193.467" gradientUnits="userSpaceOnUse">
<stop stop-color="white"/>
<stop offset="0.536458" stop-color="white" stop-opacity="0.328375"/>
<stop offset="1" stop-color="white" stop-opacity="0.76"/>
</linearGradient>
<linearGradient id="paint2_linear" x1="760.074" y1="132.803" x2="760.1" y2="193.494" gradientUnits="userSpaceOnUse">
<stop stop-color="white"/>
<stop offset="0.536458" stop-color="white" stop-opacity="0.328375"/>
<stop offset="1" stop-color="white" stop-opacity="0.204"/>
</linearGradient>
<linearGradient id="paint3_linear" x1="778.166" y1="62.3524" x2="778.138" y2="82.5697" gradientUnits="userSpaceOnUse">
<stop stop-color="white"/>
<stop offset="0.69" stop-color="white" stop-opacity="0.635"/>
<stop offset="1" stop-color="white" stop-opacity="0.204"/>
</linearGradient>
<radialGradient id="paint4_radial" cx="0" cy="0" r="1" gradientUnits="userSpaceOnUse" gradientTransform="translate(739.024 132.53) rotate(123.179) scale(12.3817 27.2654)">
<stop stop-color="#FFBF74"/>
<stop offset="1" stop-color="#EE8D2D"/>
</radialGradient>
<linearGradient id="paint5_linear" x1="718.254" y1="139.68" x2="729.028" y2="122.791" gradientUnits="userSpaceOnUse">
<stop offset="0.02" stop-color="white"/>
<stop offset="1" stop-color="#D13392"/>
</linearGradient>
<linearGradient id="paint6_linear" x1="2141.55" y1="1955.84" x2="2857.18" y2="1126.02" gradientUnits="userSpaceOnUse">
<stop offset="0.02" stop-color="white"/>
<stop offset="1" stop-color="#D13392"/>
</linearGradient>
<linearGradient id="paint7_linear" x1="685.122" y1="28.938" x2="686.439" y2="171.795" gradientUnits="userSpaceOnUse">
<stop stop-color="#FFB59A"/>
<stop offset="1" stop-color="#F75A4A"/>
</linearGradient>
<linearGradient id="paint8_linear" x1="699.725" y1="171.866" x2="665.176" y2="75.9147" gradientUnits="userSpaceOnUse">
<stop offset="0.02" stop-color="#E2DCEB"/>
<stop offset="1" stop-color="white"/>
</linearGradient>
<linearGradient id="paint9_linear" x1="663.258" y1="80.6515" x2="701.036" y2="80.6515" gradientUnits="userSpaceOnUse">
<stop stop-color="#D9D4FF"/>
<stop offset="0.99" stop-color="#530E68"/>
</linearGradient>
<linearGradient id="paint10_linear" x1="663.232" y1="78.9971" x2="700.866" y2="78.9971" gradientUnits="userSpaceOnUse">
<stop stop-color="white"/>
<stop offset="0.21" stop-color="#D0CDDE"/>
<stop offset="1" stop-color="white"/>
</linearGradient>
<radialGradient id="paint11_radial" cx="0" cy="0" r="1" gradientUnits="userSpaceOnUse" gradientTransform="translate(682.571 75.2557) scale(11.1649)">
<stop stop-color="white"/>
<stop offset="1"/>
</radialGradient>
<radialGradient id="paint12_radial" cx="0" cy="0" r="1" gradientUnits="userSpaceOnUse" gradientTransform="translate(746.673 155.624) scale(0.809421 2.71343)">
<stop stop-color="#5178FE"/>
<stop offset="0.99" stop-color="#713592"/>
</radialGradient>
<radialGradient id="paint13_radial" cx="0" cy="0" r="1" gradientUnits="userSpaceOnUse" gradientTransform="translate(1962.09 135.072) scale(48.7301 9.73535)">
<stop stop-color="white"/>
<stop offset="1"/>
</radialGradient>
<linearGradient id="paint14_linear" x1="2642.64" y1="24083.6" x2="2642.64" y2="2325.77" gradientUnits="userSpaceOnUse">
<stop offset="0.02" stop-color="#AB9CE3"/>
<stop offset="1" stop-color="#AEB3F3"/>
</linearGradient>
<linearGradient id="paint15_linear" x1="3746.8" y1="13117.2" x2="1597.04" y2="6518.43" gradientUnits="userSpaceOnUse">
<stop stop-color="#B2C9FF"/>
<stop offset="0.21" stop-color="#8E7BBB"/>
<stop offset="1" stop-color="#F6ECF2"/>
</linearGradient>
<radialGradient id="paint16_radial" cx="0" cy="0" r="1" gradientUnits="userSpaceOnUse" gradientTransform="translate(634.857 139.337) rotate(91.0326) scale(16.1644 12.5372)">
<stop stop-color="#FFBF74"/>
<stop offset="1" stop-color="#EE8D2D"/>
</radialGradient>
<linearGradient id="paint17_linear" x1="628.566" y1="144.037" x2="628.566" y2="135.7" gradientUnits="userSpaceOnUse">
<stop offset="0.02" stop-color="#EEEBF4"/>
<stop offset="1" stop-color="white"/>
</linearGradient>
<linearGradient id="paint18_linear" x1="886.782" y1="4586.98" x2="886.782" y2="3439.68" gradientUnits="userSpaceOnUse">
<stop offset="0.02" stop-color="#E2DCEB"/>
<stop offset="1" stop-color="white"/>
</linearGradient>
<linearGradient id="paint19_linear" x1="625.568" y1="141.706" x2="655.624" y2="141.706" gradientUnits="userSpaceOnUse">
<stop offset="0.02" stop-color="#E6AC4A"/>
<stop offset="1" stop-color="white"/>
</linearGradient>
<linearGradient id="paint20_linear" x1="19.3332" y1="170.065" x2="148.574" y2="-113.579" gradientUnits="userSpaceOnUse">
<stop stop-color="#FEA98F" stop-opacity="0.4"/>
<stop offset="0.477836" stop-color="#FDF3E9" stop-opacity="0.8"/>
<stop offset="1" stop-color="#FEA98F" stop-opacity="0.502"/>
</linearGradient>
<linearGradient id="paint21_linear" x1="774.67" y1="165.117" x2="998.949" y2="-124.106" gradientUnits="userSpaceOnUse">
<stop stop-color="#FCD7C9"/>
<stop offset="0.520833" stop-color="#F8EDE2" stop-opacity="0.8"/>
<stop offset="1" stop-color="#FEA98F" stop-opacity="0.502"/>
</linearGradient>
<linearGradient id="paint22_linear" x1="1347.08" y1="169.949" x2="760.655" y2="181.813" gradientUnits="userSpaceOnUse">
<stop stop-color="#F19D99"/>
<stop offset="1" stop-color="#FCF0F1"/>
</linearGradient>
<linearGradient id="paint23_linear" x1="57.0831" y1="143.724" x2="1468.8" y2="684.104" gradientUnits="userSpaceOnUse">
<stop stop-color="#F7CDBA"/>
<stop offset="0.442137" stop-color="#FF8D7E"/>
<stop offset="1" stop-color="#F3AD95"/>
</linearGradient>
</defs>
</svg>
