<svg width="120" height="120" viewBox="0 0 120 120" fill="none" xmlns="http://www.w3.org/2000/svg">
<path d="M60 120C93.1371 120 120 93.1371 120 60C120 26.8629 93.1371 0 60 0C26.8629 0 0 26.8629 0 60C0 93.1371 26.8629 120 60 120Z" fill="#F5F3F2"/>
<rect width="57.2615" height="70.8117" rx="8" transform="matrix(0.98205 0.188622 -0.185394 0.982664 46.0928 17.2493)" fill="#DADADA"/>
<path opacity="0.2" d="M29.8191 34.2089C29.8694 28.5545 34.5862 24.0639 40.2292 24.2979L65.9603 25.3653C71.2446 25.5844 75.4423 29.8875 75.5363 35.1817L76.3966 83.5935C76.4948 89.1187 72.1006 93.6787 66.5819 93.7785L39.5459 94.2676C33.9227 94.3694 29.3243 89.8075 29.3744 84.1771L29.8191 34.2089Z" fill="#C9C9C9"/>
<path opacity="0.2" d="M34.5086 33.4563C34.7768 27.9463 39.446 23.696 44.9477 23.9536L77.1132 25.4597C79.6129 25.5767 81.9785 26.629 83.7422 28.4085L85.6915 30.3753L87.5069 32.3902C89.3432 34.4283 90.2639 37.1316 90.0537 39.8677L86.4332 86.9931C86.0196 92.3753 81.4188 96.4561 76.0345 96.2164L41.5819 94.6825C36.0494 94.4362 31.7689 89.7298 32.0387 84.1896L34.5086 33.4563Z" fill="#C9C9C9"/>
<path d="M32.2834 31.4626C32.498 27.0546 36.2333 23.6543 40.6347 23.8604L75.5683 25.4961C77.5681 25.5897 79.4606 26.4315 80.8715 27.8551L83.3692 30.3753L85.8549 33.1342C87.2679 34.7024 88.0055 36.7658 87.9073 38.8751L85.5722 88.9956C85.3661 93.4191 81.6141 96.8323 77.1982 96.6135L37.2111 94.6316C32.8018 94.4131 29.4016 90.6556 29.6166 86.2391L32.2834 31.4626Z" fill="white"/>
<path d="M88.0377 38.4224C88.0377 38.0437 88.0377 35.5822 87.0994 34.6355L85.692 32.7421L84.0488 31.1178L83.8154 30.8486L80.5313 27.5351C80.5313 27.5351 78.9553 26.3983 78.1856 26.115C77.2473 25.7695 75.8398 25.6416 75.8398 25.6416L78.6547 36.0556L88.0377 41.2626L88.0377 38.4224Z" fill="#E6E8E8"/>
<rect width="31.0434" height="2.78151" transform="matrix(0.99869 0.033508 -0.0329634 1.00019 44.5654 45.5228)" fill="#C4C4C4"/>
<rect width="42.1778" height="2.78151" transform="matrix(0.99869 0.033508 -0.0329634 1.00019 37.7734 55.0775)" fill="#C4C4C4"/>
<rect width="42.1778" height="2.78151" transform="matrix(0.99869 0.033508 -0.0329634 1.00019 37.4619 61.6094)" fill="#C4C4C4"/>
</svg>
