<svg width="287" height="110" viewBox="0 0 287 110" fill="none" xmlns="http://www.w3.org/2000/svg">
<path d="M287 91C287 76.7295 222.753 50 143.5 50C64.2471 50 0 76.7295 0 91C0 91 64.2471 91 143.5 91C222.753 91 287 91 287 91Z" fill="url(#paint0_linear_29485_55312)" fill-opacity="0.15"/>
<path d="M181 101.853C181 96.4115 161.972 94 138.5 94C115.028 94 96 96.4115 96 101.853C96 107.295 115.028 110 138.5 110C161.972 110 181 107.295 181 101.853Z" fill="#F78D8D" fill-opacity="0.15"/>
<path fill-rule="evenodd" clip-rule="evenodd" d="M152.834 42.0151C152.834 42.0151 152.699 38.8703 153.875 36.8579H157.658C157.658 36.8579 155.6 39.4528 155.355 42.1088L152.834 42.0151Z" fill="url(#paint1_linear_29485_55312)"/>
<path fill-rule="evenodd" clip-rule="evenodd" d="M147.51 46.7279L148.674 40.646H174.656L172.893 48.61L147.51 46.7279Z" fill="url(#paint2_linear_29485_55312)"/>
<path fill-rule="evenodd" clip-rule="evenodd" d="M174.656 40.646L176.311 41.253V42.1818L180.226 43.6686L178.156 50.8831L172.758 49.2617L174.656 40.646Z" fill="#DD6E00"/>
<path fill-rule="evenodd" clip-rule="evenodd" d="M170.806 47.5714L144.521 46.6182L135 86.9187L162.662 92.2266L170.806 47.5714Z" fill="url(#paint3_linear_29485_55312)"/>
<path fill-rule="evenodd" clip-rule="evenodd" d="M171.392 93.6693L179.299 50.7087C179.299 50.7087 177.504 48.5578 172.06 47.6616L162.662 92.2272L171.392 93.6693Z" fill="#DD6E00"/>
<path fill-rule="evenodd" clip-rule="evenodd" d="M168.453 73.6026C168.453 73.6026 171.527 74.1089 173.13 74.6332L176.829 55.6816C176.829 55.6816 175.645 54.3195 172.436 53.8223L168.453 73.6026Z" fill="url(#paint4_linear_29485_55312)"/>
<path opacity="0.5" d="M171.932 85.0648C172.329 82.6877 171.451 80.5626 169.97 80.3181C168.49 80.0736 166.967 81.8024 166.57 84.1794C166.173 86.5564 167.051 88.6816 168.531 88.9261C170.012 89.1705 171.534 87.4418 171.932 85.0648Z" fill="#9A2463"/>
<path fill-rule="evenodd" clip-rule="evenodd" d="M172.024 84.4871C171.626 86.8661 170.106 88.5933 168.626 88.3489C167.147 88.1045 166.269 85.9781 166.667 83.6031C167.065 81.2241 168.585 79.4969 170.065 79.7413C171.544 79.9857 172.422 82.1122 172.024 84.4871Z" fill="url(#paint5_linear_29485_55312)"/>
<path fill-rule="evenodd" clip-rule="evenodd" d="M171.528 84.4058C171.228 86.2063 170.077 87.514 168.954 87.3266C168.814 87.3021 168.683 87.2614 168.56 87.1962C167.683 86.744 167.204 85.3142 167.47 83.7336C167.732 82.1571 168.65 80.9554 169.63 80.8087C169.765 80.7884 169.905 80.7884 170.044 80.8128C171.163 81.0002 171.827 82.6093 171.528 84.4058Z" fill="#DD6E00"/>
<path fill-rule="evenodd" clip-rule="evenodd" d="M170.72 84.2712C170.458 85.8477 169.54 87.0453 168.564 87.1961C167.687 86.7439 167.207 85.314 167.474 83.7335C167.736 82.157 168.654 80.9552 169.634 80.8086C170.503 81.2689 170.982 82.6988 170.72 84.2712Z" fill="url(#paint6_linear_29485_55312)"/>
<path fill-rule="evenodd" clip-rule="evenodd" d="M172.061 47.6573L170.806 47.5718L161.453 91.9948L162.662 92.227L172.061 47.6573Z" fill="url(#paint7_linear_29485_55312)"/>
<path fill-rule="evenodd" clip-rule="evenodd" d="M176.491 48.9075L178.155 42.8826L176.803 42.3693L180.225 42.1045L177.012 49.1437L176.491 48.9075Z" fill="url(#paint8_linear_29485_55312)"/>
<path d="M114.263 6.4737L163.463 2.39844C163.463 2.39844 166.019 2.39844 166.658 8.22024C167.297 14.042 165.38 15.0123 165.38 15.0123L117.458 15.9827L114.263 6.4737Z" fill="#F6C3C4"/>
<path fill-rule="evenodd" clip-rule="evenodd" d="M166.788 10.7703C166.788 10.7703 159.53 55.8972 159.304 92.2876H103.376C103.376 92.2876 103.376 92.2707 103.373 92.2403C103.358 92.0919 103.317 91.5994 103.25 90.8033C102.846 85.8312 101.591 69.0427 101.584 50.5912C101.577 41.2406 102.798 31.4582 103.707 22.5732C104.037 19.2944 104.453 16.1337 104.961 13.1653C104.961 13.1653 134.186 9.18486 164.205 9.49857L166.788 10.7703Z" fill="url(#paint9_linear_29485_55312)"/>
<path fill-rule="evenodd" clip-rule="evenodd" d="M164.034 9.48096C164.034 9.48096 157.875 44.7965 156.826 92.2876H158.808C158.808 92.2876 160.023 48.7201 166.788 10.7596L164.034 9.48096Z" fill="#D82F30"/>
<path fill-rule="evenodd" clip-rule="evenodd" d="M159.317 4.50546C157.505 9.00573 157.063 12.9003 156.147 18.4566C153.619 33.7916 150.971 66.0711 153.303 94.9844L112.221 95.3613L103.574 95.4418L103.15 95.4454C103.15 95.4454 100.007 87.0085 99.1046 70.7603C98.8028 65.3234 98.7549 59.0159 99.1599 51.8558C99.6642 43.0018 99.9917 34.8185 102.263 23.407C102.561 21.8955 102.716 18.0066 105.433 10.806C107.076 6.45117 109.055 4.50547 110.414 3.6054C110.414 3.6054 132.828 -1.31994 162.26 0.480232C162.26 0.480232 160.51 1.54024 159.317 4.50546Z" fill="url(#paint10_linear_29485_55312)"/>
<path fill-rule="evenodd" clip-rule="evenodd" d="M153.187 89.5872C153.187 89.5872 146.95 64.8316 157.732 13.0811C157.47 14.3493 150.166 52.5974 153.187 89.5872Z" fill="#D82F30"/>
<g opacity="0.3">
<path opacity="0.8" fill-rule="evenodd" clip-rule="evenodd" d="M150.374 11.7227C137.426 11.8549 124.491 12.6734 111.547 13.0772C111.67 12.4964 111.731 12.2061 111.86 11.6255C124.789 11.1926 137.709 10.3269 150.639 10.169C150.533 10.7934 150.48 11.1055 150.374 11.7227Z" fill="#D82F30"/>
<path opacity="0.8" fill-rule="evenodd" clip-rule="evenodd" d="M148.303 19.9126C139.152 20.2895 120.763 20.8127 111.622 21.431C111.622 21.431 111.766 20.5236 111.865 19.9126C121.002 19.2797 139.391 18.7492 148.542 18.3687C148.447 18.9906 148.399 19.298 148.303 19.9126Z" fill="#D82F30"/>
<path opacity="0.8" fill-rule="evenodd" clip-rule="evenodd" d="M148.303 28.0137C139.152 28.3905 120.763 28.9137 111.622 29.532C111.622 29.532 111.766 28.6247 111.865 28.0137C121.002 27.3807 139.391 26.8502 148.542 26.4697C148.447 27.0917 148.399 27.399 148.303 28.0137Z" fill="#D82F30"/>
<path opacity="0.8" fill-rule="evenodd" clip-rule="evenodd" d="M147.078 47.6564C140.538 47.6044 133.999 47.5523 127.456 47.4891C127.477 46.8454 127.49 46.5274 127.518 45.8914C134.077 45.9297 140.633 45.9533 147.192 45.9843C147.144 46.645 147.12 46.9808 147.078 47.6564Z" fill="#D82F30"/>
<path opacity="0.8" fill-rule="evenodd" clip-rule="evenodd" d="M148.117 38.6063C139.239 38.6498 131.268 38.768 122.391 38.8007C122.436 38.1875 122.459 37.8809 122.512 37.2681C131.409 37.2182 139.403 37.0828 148.3 37.0292C148.224 37.6592 148.186 37.9723 148.117 38.6063Z" fill="#D82F30"/>
</g>
<path d="M99.3156 69.8092L103.504 71.5034L110.211 75.9286C110.211 75.9286 106.19 79.5839 103.173 83.3593C101.007 86.0698 97.448 90.2672 97.448 90.2672L96.8617 82.2715C96.8617 82.2715 95.698 82.1845 93.1027 82.8656C91.1674 83.3734 88.672 84.2591 88.672 84.2591L94.3068 76.776L99.3156 69.8092Z" fill="url(#paint11_linear_29485_55312)"/>
<path d="M102.286 75.6506L106.434 72.9672L114.608 69.7462C114.608 69.7462 115.352 75.6414 116.834 80.713C117.899 84.354 119.418 90.176 119.418 90.176L111.896 85.6767C111.896 85.6767 111.087 86.6632 110.065 89.4135C109.304 91.4643 108.528 94.2536 108.528 94.2536L105.373 84.5098L102.286 75.6506Z" fill="url(#paint12_linear_29485_55312)"/>
<circle cx="107.8" cy="65.5046" r="15.3862" transform="rotate(20.2367 107.8 65.5046)" fill="url(#paint13_radial_29485_55312)" stroke="#DD6E00" stroke-width="2"/>
<path d="M116.351 77.4662C108.85 82.5288 99.3723 81.5395 94.9103 74.9281C90.4483 68.3167 91.1381 58.7053 98.6394 53.6427C106.141 48.5801 115.839 49.8357 120.301 56.447C124.763 63.0584 123.511 71.2589 116.351 77.4662Z" fill="url(#paint14_radial_29485_55312)"/>
<circle cx="107.8" cy="65.5046" r="15.3862" transform="rotate(20.2367 107.8 65.5046)" stroke="#DD6E00" stroke-width="2"/>
<path fill-rule="evenodd" clip-rule="evenodd" d="M99.1164 61.8841L101.72 60.8145L103.621 66.656C103.621 66.656 110.385 59.41 117.552 56.9178L119.277 58.7338C119.277 58.7338 109.469 62.5392 104.148 70.034L101.241 69.015C101.252 69.0188 100.189 63.8626 99.1164 61.8841Z" fill="#D82F30"/>
<defs>
<linearGradient id="paint0_linear_29485_55312" x1="143.03" y1="48.5561" x2="143.03" y2="90.7901" gradientUnits="userSpaceOnUse">
<stop stop-color="#F78D8D"/>
<stop offset="1" stop-color="white"/>
</linearGradient>
<linearGradient id="paint1_linear_29485_55312" x1="155.243" y1="42.1053" x2="155.243" y2="36.8562" gradientUnits="userSpaceOnUse">
<stop stop-color="#FFD328"/>
<stop offset="1" stop-color="#FFA700"/>
</linearGradient>
<linearGradient id="paint2_linear_29485_55312" x1="169.267" y1="48.7642" x2="168.59" y2="39.6416" gradientUnits="userSpaceOnUse">
<stop offset="0.0171" stop-color="#FFD2D2"/>
<stop offset="1" stop-color="white"/>
</linearGradient>
<linearGradient id="paint3_linear_29485_55312" x1="152.903" y1="46.6182" x2="152.903" y2="92.2266" gradientUnits="userSpaceOnUse">
<stop stop-color="#FFBF74"/>
<stop offset="1" stop-color="#F4973B"/>
</linearGradient>
<linearGradient id="paint4_linear_29485_55312" x1="175.166" y1="75.0362" x2="164.365" y2="57.8569" gradientUnits="userSpaceOnUse">
<stop offset="0.0171" stop-color="#FFD2D2"/>
<stop offset="1" stop-color="white"/>
</linearGradient>
<linearGradient id="paint5_linear_29485_55312" x1="169.346" y1="79.7183" x2="169.346" y2="88.372" gradientUnits="userSpaceOnUse">
<stop stop-color="#FFBF74"/>
<stop offset="1" stop-color="#F4973B"/>
</linearGradient>
<linearGradient id="paint6_linear_29485_55312" x1="170.118" y1="87.3197" x2="167.261" y2="81.3244" gradientUnits="userSpaceOnUse">
<stop offset="0.0171" stop-color="#FFD2D2"/>
<stop offset="1" stop-color="white"/>
</linearGradient>
<linearGradient id="paint7_linear_29485_55312" x1="166.757" y1="47.5718" x2="166.757" y2="92.227" gradientUnits="userSpaceOnUse">
<stop stop-color="#FFBF74"/>
<stop offset="1" stop-color="#F4973B"/>
</linearGradient>
<linearGradient id="paint8_linear_29485_55312" x1="179.484" y1="49.2801" x2="176.333" y2="42.6752" gradientUnits="userSpaceOnUse">
<stop offset="0.0171" stop-color="#FFD2D2"/>
<stop offset="1" stop-color="white"/>
</linearGradient>
<linearGradient id="paint9_linear_29485_55312" x1="133.684" y1="-27.5291" x2="134.688" y2="92.2834" gradientUnits="userSpaceOnUse">
<stop stop-color="#FFB59A"/>
<stop offset="1" stop-color="#F75A4A"/>
</linearGradient>
<linearGradient id="paint10_linear_29485_55312" x1="147.383" y1="97.104" x2="116.104" y2="9.69583" gradientUnits="userSpaceOnUse">
<stop offset="0.0171" stop-color="#FFD2D2"/>
<stop offset="1" stop-color="white"/>
</linearGradient>
<linearGradient id="paint11_linear_29485_55312" x1="91.7362" y1="88.6133" x2="101.706" y2="78.6748" gradientUnits="userSpaceOnUse">
<stop stop-color="#FFBF74"/>
<stop offset="1" stop-color="#F4973B"/>
</linearGradient>
<linearGradient id="paint12_linear_29485_55312" x1="114.35" y1="94.2477" x2="111.721" y2="79.0823" gradientUnits="userSpaceOnUse">
<stop stop-color="#FFBF74"/>
<stop offset="1" stop-color="#F4973B"/>
</linearGradient>
<radialGradient id="paint13_radial_29485_55312" cx="0" cy="0" r="1" gradientUnits="userSpaceOnUse" gradientTransform="translate(107.8 65.5046) rotate(87.1857) scale(14.038)">
<stop stop-color="#FFBF74"/>
<stop offset="1" stop-color="#F4973B"/>
</radialGradient>
<radialGradient id="paint14_radial_29485_55312" cx="0" cy="0" r="1" gradientUnits="userSpaceOnUse" gradientTransform="translate(107.509 65.545) rotate(136.899) scale(28.8064 27.2193)">
<stop stop-color="#FFDC7B"/>
<stop offset="1" stop-color="#F4973B"/>
</radialGradient>
</defs>
</svg>
