<svg width="375" height="211" viewBox="0 0 375 211" fill="none" xmlns="http://www.w3.org/2000/svg">
<path d="M0.290039 69.8484H375.005V197.19C375.005 197.19 291.784 210.171 188.913 210.968C86.042 211.766 0.290039 197.19 0.290039 197.19V69.8484Z" fill="#D63132"/>
<path d="M0.285 0H375L374.715 197.018C374.715 197.018 292.801 208.343 189.93 209.142C87.059 209.941 0 197.018 0 197.018L0.285 0Z" fill="url(#paint0_linear_175_6323)"/>
<mask id="mask0_175_6323" style="mask-type:alpha" maskUnits="userSpaceOnUse" x="0" y="25" width="375" height="184">
<path d="M0.285 25H375L374.715 198.305C374.715 198.305 292.801 208.266 189.93 208.969C87.059 209.671 0 198.305 0 198.305L0.285 25Z" fill="#E5CDD4"/>
</mask>
<g mask="url(#mask0_175_6323)">
<mask id="mask1_175_6323" style="mask-type:alpha" maskUnits="userSpaceOnUse" x="44" y="103" width="288" height="108">
<rect x="44" y="103" width="288" height="108" fill="#C4C4C4"/>
</mask>
<g mask="url(#mask1_175_6323)">
<path d="M165 171.114V199.978H35.7792C33.4508 199.978 31.2177 199.519 29.5713 198.703C27.9249 197.886 27 196.779 27 195.624C27 194.469 27.9249 193.361 29.5713 192.545C31.2177 191.728 33.4508 191.269 35.7792 191.269C35.9573 191.269 36.1335 191.273 36.3078 191.277C36.9929 190.136 38.3096 189.113 40.1084 188.325C41.9071 187.537 44.1157 187.014 46.4832 186.817C46.891 186.099 47.6458 185.441 48.6821 184.901C49.7184 184.36 51.0049 183.953 52.4302 183.715C53.8554 183.476 55.3763 183.414 56.861 183.533C58.3458 183.652 59.7495 183.949 60.9506 184.398C61.4608 184.227 61.9924 184.073 62.5421 183.935C64.6562 182.804 67.5626 182.117 70.6654 182.015C70.1223 180.654 70.5173 179.242 71.787 178.006C73.0567 176.771 75.1273 175.782 77.6659 175.201C80.2046 174.619 83.0638 174.477 85.7842 174.799C88.5046 175.12 90.9281 175.886 92.6652 176.973C94.0252 175.871 96.151 175.054 98.642 174.675C101.133 174.297 103.817 174.383 106.188 174.918C109.038 173.685 112.741 173.048 116.518 173.141C120.295 173.235 123.852 174.051 126.44 175.419C127.854 175.173 129.34 175.042 130.84 175.034C129.999 174.521 129.468 173.9 129.309 173.244C129.151 172.587 129.37 171.922 129.942 171.325C130.515 170.728 131.417 170.224 132.543 169.871C133.67 169.517 134.976 169.33 136.308 169.33C136.46 169.33 136.611 169.33 136.761 169.337C137.634 167.66 139.71 166.198 142.6 165.226C145.49 164.254 148.995 163.839 152.459 164.057C155.923 164.275 159.108 165.112 161.417 166.411C163.725 167.711 164.999 169.383 165 171.115V171.114Z" fill="url(#paint1_linear_175_6323)"/>
<path d="M221.482 200.007V171.143C221.483 169.411 222.443 167.74 224.183 166.44C225.923 165.141 228.323 164.304 230.933 164.085C233.544 163.867 236.186 164.283 238.364 165.255C240.542 166.227 242.106 167.689 242.764 169.366C242.877 169.358 242.991 169.358 243.105 169.358C244.11 169.359 245.093 169.546 245.942 169.899C246.792 170.253 247.471 170.757 247.903 171.354C248.334 171.951 248.499 172.616 248.38 173.273C248.26 173.929 250.371 172.024 257.594 172.524C261.219 172.774 263.657 173.714 265.804 174.947C267.591 174.412 269.614 174.325 271.491 174.704C273.369 175.082 274.971 175.9 275.996 177.002C277.305 175.915 279.131 175.149 281.181 174.828C283.231 174.506 285.386 174.648 287.299 175.229C289.213 175.811 290.773 176.799 291.73 178.035C292.687 179.271 292.984 180.683 292.575 182.043C294.914 182.146 297.104 182.833 298.697 183.964C299.111 184.102 299.512 184.256 299.896 184.427C300.802 183.978 301.86 183.681 302.978 183.562C304.097 183.443 305.244 183.505 306.318 183.743C307.392 183.982 308.361 184.389 309.142 184.93C309.923 185.47 310.492 186.128 310.799 186.846C312.584 187.043 314.248 187.565 315.604 188.354C316.959 189.142 317.952 190.165 318.468 191.306C318.599 191.302 318.732 191.298 318.866 191.298C320.621 191.298 322.304 191.757 323.545 192.574C324.785 193.39 325.482 194.498 325.482 195.653C325.482 196.807 324.785 197.915 323.545 198.732C322.304 199.548 320.621 200.007 318.866 200.007H221.482Z" fill="url(#paint2_linear_175_6323)"/>
<path d="M208.695 181.635C208.781 181.406 210.72 181.226 210.926 181.175C212.909 180.864 214.945 180.726 216.968 180.755C222.798 180.858 227.205 182.702 232.244 185.474C236.864 188.01 244.626 190.498 258.617 188.194L261.293 198.03C261.375 198.273 243.501 202.253 232.145 197.481C229.533 196.391 226.405 195.023 223.877 193.737C222.031 192.777 220.102 192.013 218.157 191.449C214.202 190.284 209.985 189.84 205.942 190.591L208.695 181.635Z" fill="url(#paint3_linear_175_6323)"/>
<path d="M221.38 181.071L219.272 185.765L220.192 186.179L222.301 181.484L221.38 181.071Z" fill="#DD6E00"/>
<path d="M230.347 184.503L228.702 188.664L229.64 189.035L231.286 184.875L230.347 184.503Z" fill="#DD6E00"/>
<path d="M239.396 188.126L238.223 192.199L239.193 192.478L240.366 188.405L239.396 188.126Z" fill="#DD6E00"/>
<path d="M249.71 189.039L248.702 189.092L248.931 193.425L249.939 193.372L249.71 189.039Z" fill="#DD6E00"/>
<path d="M222.081 132.842C215.332 127.028 207.662 127.551 202.125 129.227C198.113 130.419 193.802 129.9 190.116 127.913C185.01 125.135 177.463 122.901 169.544 127.319C158.937 133.24 155.754 145.4 156.614 156.81C157.243 165.265 159.285 174.172 163.432 181.699C167.463 188.979 175.709 197.142 184.854 195.085C187.638 194.468 190.585 194.741 193.147 196.03C205.403 202.19 216.252 188.73 221.692 179.52C227.369 169.89 231.927 157.841 229.81 146.532C228.827 141.187 226.181 136.382 222.081 132.842Z" fill="url(#paint4_linear_175_6323)"/>
<path d="M193.31 119.769C194.807 116.718 197.475 114.202 200.196 112.702C202.917 111.202 205.667 110.582 208.332 110.191C210.689 109.843 212.999 109.659 215.295 109.644C214.589 111.679 213.515 113.684 212.446 115.622C210.868 118.43 209.186 121.263 207.095 123.725C205.005 126.188 202.47 128.31 199.902 129.181C194.586 131.044 190.155 126.195 193.31 119.769Z" fill="#D82F30"/>
<path d="M159.731 137.995C159.731 137.995 155.427 141.121 162.278 143.198C167.496 144.601 172.834 145.778 178.147 146.851C189.169 149.098 200.363 150.886 211.614 151.565C215.475 151.812 219.384 151.893 223.241 151.769C225.035 151.712 226.867 151.591 228.638 151.398C230.034 151.241 230.821 150.698 230.404 149.179C232.903 149.99 232.69 152.2 232.482 154.343C232.334 155.748 232.118 157.148 231.769 158.537C231.464 159.795 231.381 161.644 230.654 162.699C229.735 164.042 227.687 163.909 226.296 163.998C224.497 164.122 222.704 164.178 220.88 164.199C217.265 164.242 213.661 164.152 210.063 163.994C201.486 163.634 192.953 162.737 184.494 161.34C179.4 160.487 174.319 159.466 169.291 158.213C166.611 157.556 163.936 156.832 161.264 156.075C159.551 155.564 156.971 154.916 155.956 153.281C155.539 152.605 155.23 151.838 155.058 151.048C154.343 148.222 154.932 145.131 155.762 142.397C155.728 142.395 156.81 138.635 159.731 137.995Z" fill="url(#paint5_linear_175_6323)"/>
<path d="M156.621 157.553C156.621 157.553 156.703 162.353 160.199 162.941C160.199 162.941 204.885 171.639 228.528 165.192C228.528 165.192 227.802 169.959 222.997 178.006C216.719 179.25 213.541 179.734 207.178 179.959C198.985 180.271 190.802 180.044 182.627 179.311C177.701 178.877 172.795 178.208 167.935 177.374C163.673 176.656 159.76 175.392 157.59 171.368C157.122 170.487 156.762 169.512 156.47 168.543C155.913 166.676 155.633 164.729 155.213 162.839C155.063 162.185 155.02 161.473 155.005 160.831C155.072 159.587 155.27 157.984 156.621 157.553Z" fill="url(#paint6_linear_175_6323)"/>
<path d="M164.043 143.638L162.717 149.132L163.698 149.369L165.024 143.875L164.043 143.638Z" fill="#DD6E00"/>
<path d="M175.64 146.305L174.322 151.87L175.304 152.103L176.622 146.538L175.64 146.305Z" fill="#DD6E00"/>
<path d="M187.016 148.504L185.901 154.078L186.89 154.276L188.005 148.702L187.016 148.504Z" fill="#DD6E00"/>
<path d="M198.922 150.303L198.097 156.03L199.096 156.174L199.921 150.447L198.922 150.303Z" fill="#DD6E00"/>
<path d="M210.535 151.509L209.526 151.525L209.617 157.176L210.626 157.16L210.535 151.509Z" fill="#DD6E00"/>
<path d="M222.405 151.833L221.399 151.761L220.998 157.364L222.004 157.436L222.405 151.833Z" fill="#DD6E00"/>
<path d="M162.544 163.219L161.537 163.285L161.889 168.622L162.896 168.556L162.544 163.219Z" fill="#DD6E00"/>
<path d="M173.691 165.018L172.682 165.014L172.662 170.362L173.671 170.366L173.691 165.018Z" fill="#DD6E00"/>
<path d="M185.807 166.441L184.798 166.467L184.922 171.41L185.931 171.385L185.807 166.441Z" fill="#DD6E00"/>
<path d="M198.006 167.321L196.997 167.356L197.179 172.634L198.188 172.599L198.006 167.321Z" fill="#DD6E00"/>
<path d="M210.285 167.492L209.276 167.495L209.292 173.113L210.302 173.11L210.285 167.492Z" fill="#DD6E00"/>
<path d="M220.901 166.716L219.893 166.774L220.209 172.315L221.217 172.258L220.901 166.716Z" fill="#DD6E00"/>
<path d="M264.967 197.365C262.751 197.564 260.522 197.181 258.5 196.254C250.738 192.987 243.664 183.588 242.66 175.269L241.723 167.737L244.531 167.388L245.468 174.92C246.39 182.332 252.726 190.745 259.639 193.664C262.723 194.963 265.394 194.964 267.17 193.604C268.945 192.245 269.712 189.741 269.305 186.466L268.135 177.059L270.874 176.718L272.045 186.136C272.578 190.423 271.434 193.86 268.854 195.803C267.726 196.671 266.381 197.212 264.967 197.365Z" fill="url(#paint7_linear_175_6323)"/>
<path d="M234.869 139.194C234.461 139.503 234.083 139.847 233.737 140.222C232.555 141.517 231.648 143.038 231.069 144.692C230.49 146.347 230.252 148.102 230.369 149.851L231.966 162.692C232.974 170.8 239.157 173.356 245.707 168.41C252.256 163.464 256.829 152.829 255.752 144.74L254.154 131.889C253.762 128.733 251.587 127.452 249.141 128.602C248.726 128.797 248.333 129.035 247.969 129.312L248.358 132.438C248.642 132.218 248.962 132.049 249.303 131.938C250.46 131.592 251.362 132.286 251.551 133.805L253.155 146.705C253.323 148.156 253.302 149.621 253.093 151.066C252.911 152.544 252.582 153.999 252.111 155.411C250.855 159.288 248.517 162.725 245.372 165.318C242.424 167.539 239.578 167.832 237.526 166.485C236.719 165.94 236.062 165.2 235.616 164.334C235.045 163.239 234.685 162.047 234.555 160.819L232.956 147.967C232.829 146.276 233.674 144.741 234.722 143.407C234.983 143.071 235.283 142.766 235.616 142.5L234.869 139.194Z" fill="url(#paint8_linear_175_6323)"/>
<path d="M247.131 128.731C246.589 129.203 246.184 129.812 245.958 130.494C245.733 131.177 245.695 131.907 245.85 132.609C246.032 134.078 246.612 134.933 247.811 134.038C248.485 133.485 248.997 132.759 249.293 131.939C249.531 131.409 249.637 130.829 249.604 130.25C249.57 129.67 249.398 129.106 249.101 128.607C248.633 128.172 247.895 128.153 247.131 128.731Z" fill="url(#paint9_linear_175_6323)"/>
<path d="M235.395 137.597C234.572 138.276 233.982 139.195 233.707 140.226C234.536 139.437 235.685 142.496 234.5 143.5C234.787 143.623 234.927 143.391 235.234 143.333C235.541 143.275 235.823 143.127 236.046 142.908C236.584 142.436 236.987 141.828 237.211 141.148C237.434 140.468 237.472 139.74 237.318 139.041C237.165 137.569 236.577 136.725 235.395 137.597Z" fill="url(#paint10_linear_175_6323)"/>
<path d="M269.07 173.879C268.673 174.219 268.36 174.646 268.157 175.128C267.955 175.61 267.868 176.133 267.904 176.654C268.027 177.647 268.744 177.9 269.508 177.321C269.91 176.988 270.226 176.562 270.429 176.081C270.632 175.6 270.717 175.077 270.676 174.556C270.559 173.613 269.844 173.299 269.07 173.879Z" fill="white"/>
<path d="M272.465 173.225C272.551 174.406 272.355 175.589 271.895 176.68C271.436 177.77 270.724 178.737 269.819 179.5C268.077 180.805 266.451 180.13 266.179 177.937C266.092 176.756 266.286 175.572 266.746 174.481C267.206 173.39 267.919 172.424 268.825 171.662C270.541 170.391 272.197 171.072 272.465 173.225ZM269.538 177.318C269.94 176.984 270.256 176.559 270.459 176.077C270.662 175.596 270.747 175.073 270.706 174.552C270.582 173.56 269.874 173.295 269.1 173.875C268.702 174.215 268.39 174.643 268.187 175.125C267.985 175.606 267.898 176.129 267.933 176.651C268.057 177.643 268.773 177.896 269.538 177.318Z" fill="url(#paint11_linear_175_6323)"/>
<path d="M137.358 181.176L139.941 176.53C139.761 176.268 139.734 175.905 139.888 175.621L146.679 163.365C146.833 163.081 147.142 162.909 147.479 162.917L150.062 158.271L154.975 160.995L152.43 165.589C152.673 165.871 152.752 166.272 152.561 166.608L145.77 178.864C145.579 179.2 145.205 179.351 144.845 179.301L142.3 183.895L137.358 181.176Z" fill="url(#paint12_linear_175_6323)"/>
<g opacity="0.12">
<g opacity="0.12">
<path opacity="0.12" d="M149.322 159.872L154.101 162.525L153.141 164.283L149.017 160.364L149.322 159.872Z" fill="black"/>
</g>
</g>
<path d="M161.554 163.715L161.695 163.448C162.36 162.241 161.94 160.748 160.733 160.083L147.793 152.927C146.603 152.274 145.098 152.711 144.445 153.901L144.304 154.168C143.638 155.374 144.059 156.868 145.265 157.533L158.206 164.689C159.395 165.342 160.901 164.904 161.554 163.715Z" fill="url(#paint13_linear_175_6323)"/>
<path d="M164.099 159.121L164.24 158.854C164.905 157.648 164.485 156.154 163.278 155.489L150.338 148.333C149.148 147.68 147.642 148.118 146.99 149.307L146.849 149.574C146.183 150.78 146.603 152.274 147.81 152.939L160.751 160.095C161.927 160.765 163.433 160.328 164.099 159.121Z" fill="url(#paint14_linear_175_6323)"/>
<path d="M159.46 153.112L159.572 152.559C159.659 152.147 159.37 151.673 158.883 151.399L156.233 149.922C155.746 149.648 155.182 149.66 154.874 149.939L154.461 150.325C154.049 150.712 154.303 151.451 154.988 151.817L157.94 153.46C158.595 153.83 159.349 153.665 159.46 153.112Z" fill="#DD6E00"/>
<path d="M148.443 187.433L148.302 187.7C147.637 188.906 146.143 189.327 144.954 188.674L132.014 181.518C130.824 180.865 130.387 179.359 131.052 178.153L131.193 177.886C131.858 176.679 133.352 176.259 134.541 176.912L147.482 184.068C148.671 184.72 149.108 186.226 148.443 187.433Z" fill="url(#paint15_linear_175_6323)"/>
<path d="M145.911 192.009L145.77 192.276C145.104 193.483 143.611 193.903 142.422 193.25L129.481 186.094C128.292 185.442 127.854 183.936 128.52 182.729L128.661 182.462C129.326 181.255 130.82 180.835 132.009 181.488L144.949 188.644C146.139 189.297 146.576 190.803 145.911 192.009Z" fill="url(#paint16_linear_175_6323)"/>
<path d="M138.333 191.283L137.92 191.67C137.612 191.948 137.048 191.961 136.561 191.686L133.911 190.21C133.424 189.935 133.135 189.461 133.222 189.049L133.334 188.497C133.445 187.944 134.211 187.761 134.866 188.131L137.818 189.774C138.491 190.157 138.728 190.884 138.333 191.283Z" fill="#DD6E00"/>
</g>
<path d="M137.835 190.854C74.9637 201.033 18.4153 181.08 -2 169.831V209.11H201.942V195.28C204.11 189.563 200.707 180.674 137.835 190.854Z" fill="url(#paint17_linear_175_6323)"/>
<path d="M323.199 180.896C301.952 188.419 231.124 192.513 201.856 193.62V209.11H377.398V156C369.991 160.426 348.781 171.601 323.199 180.896Z" fill="url(#paint18_linear_175_6323)"/>
<path d="M337.291 185.875C307.481 195.28 242.441 195.833 209.379 195.28V209.111H377.398V167.065L377.291 167.138C373.367 169.809 360.541 178.539 337.291 185.875Z" fill="url(#paint19_linear_175_6323)"/>
<path d="M99.8434 196.386C55.2632 197.714 16.9699 188.087 3.39575 183.108V209.11H377.398V178.129C366.861 182.002 339.248 190.743 313.1 194.726C294.239 197.824 228.395 196.017 202.318 194.726C202.497 193.251 201.354 189.858 195.352 188.087C187.851 185.874 155.569 194.726 99.8434 196.386Z" fill="url(#paint20_linear_175_6323)"/>
</g>
<defs>
<linearGradient id="paint0_linear_175_6323" x1="187" y1="0.184763" x2="183.822" y2="208.927" gradientUnits="userSpaceOnUse">
<stop stop-color="#FEF2ED"/>
<stop offset="1" stop-color="#FCE5D7"/>
</linearGradient>
<linearGradient id="paint1_linear_175_6323" x1="103.176" y1="157.776" x2="103.157" y2="218.467" gradientUnits="userSpaceOnUse">
<stop stop-color="white"/>
<stop offset="0.536458" stop-color="white" stop-opacity="0.328375"/>
<stop offset="1" stop-color="white" stop-opacity="0.76"/>
</linearGradient>
<linearGradient id="paint2_linear_175_6323" x1="268.074" y1="157.805" x2="268.1" y2="218.496" gradientUnits="userSpaceOnUse">
<stop stop-color="white"/>
<stop offset="0.536458" stop-color="white" stop-opacity="0.328375"/>
<stop offset="1" stop-color="white" stop-opacity="0.204"/>
</linearGradient>
<linearGradient id="paint3_linear_175_6323" x1="234" y1="189" x2="244.45" y2="173.783" gradientUnits="userSpaceOnUse">
<stop offset="0.0171" stop-color="#FFD2D2"/>
<stop offset="1" stop-color="white"/>
</linearGradient>
<linearGradient id="paint4_linear_175_6323" x1="181.4" y1="91.335" x2="187.561" y2="165.995" gradientUnits="userSpaceOnUse">
<stop stop-color="#FFB59A"/>
<stop offset="1" stop-color="#F75A4A"/>
</linearGradient>
<linearGradient id="paint5_linear_175_6323" x1="213.266" y1="164.797" x2="213.589" y2="142.113" gradientUnits="userSpaceOnUse">
<stop offset="0.0171" stop-color="#FFD2D2"/>
<stop offset="1" stop-color="white"/>
</linearGradient>
<linearGradient id="paint6_linear_175_6323" x1="209.831" y1="181.873" x2="210.195" y2="161.667" gradientUnits="userSpaceOnUse">
<stop offset="0.0171" stop-color="#FFD2D2"/>
<stop offset="1" stop-color="white"/>
</linearGradient>
<linearGradient id="paint7_linear_175_6323" x1="254.099" y1="168.654" x2="257.064" y2="192.86" gradientUnits="userSpaceOnUse">
<stop stop-color="#FFBF74"/>
<stop offset="1" stop-color="#EE8D2D"/>
</linearGradient>
<linearGradient id="paint8_linear_175_6323" x1="239.615" y1="132.684" x2="243.368" y2="163.491" gradientUnits="userSpaceOnUse">
<stop stop-color="#FFBF74"/>
<stop offset="1" stop-color="#EE8D2D"/>
</linearGradient>
<linearGradient id="paint9_linear_175_6323" x1="246.079" y1="125.734" x2="248.299" y2="131.461" gradientUnits="userSpaceOnUse">
<stop stop-color="#FFB59A"/>
<stop offset="1" stop-color="#F75A4A"/>
</linearGradient>
<linearGradient id="paint10_linear_175_6323" x1="234.04" y1="134.693" x2="236.359" y2="140.355" gradientUnits="userSpaceOnUse">
<stop stop-color="#FFB59A"/>
<stop offset="1" stop-color="#F75A4A"/>
</linearGradient>
<linearGradient id="paint11_linear_175_6323" x1="266.713" y1="167.29" x2="269.795" y2="175.955" gradientUnits="userSpaceOnUse">
<stop stop-color="#FFB59A"/>
<stop offset="1" stop-color="#F75A4A"/>
</linearGradient>
<linearGradient id="paint12_linear_175_6323" x1="142.99" y1="168.391" x2="151.002" y2="173.265" gradientUnits="userSpaceOnUse">
<stop stop-color="#FFDC7B"/>
<stop offset="1" stop-color="#F4973B"/>
</linearGradient>
<linearGradient id="paint13_linear_175_6323" x1="145.991" y1="154.264" x2="157.967" y2="163.043" gradientUnits="userSpaceOnUse">
<stop stop-color="#FFBF74"/>
<stop offset="1" stop-color="#EE8D2D"/>
</linearGradient>
<linearGradient id="paint14_linear_175_6323" x1="148.536" y1="149.67" x2="160.511" y2="158.449" gradientUnits="userSpaceOnUse">
<stop stop-color="#FFBF74"/>
<stop offset="1" stop-color="#EE8D2D"/>
</linearGradient>
<linearGradient id="paint15_linear_175_6323" x1="132.739" y1="178.249" x2="144.715" y2="187.028" gradientUnits="userSpaceOnUse">
<stop stop-color="#FFBF74"/>
<stop offset="1" stop-color="#EE8D2D"/>
</linearGradient>
<linearGradient id="paint16_linear_175_6323" x1="127.301" y1="182.332" x2="142.165" y2="191.693" gradientUnits="userSpaceOnUse">
<stop stop-color="#FFBF74"/>
<stop offset="1" stop-color="#EE8D2D"/>
</linearGradient>
<linearGradient id="paint17_linear_175_6323" x1="3.09195" y1="195.063" x2="155.323" y2="102.269" gradientUnits="userSpaceOnUse">
<stop stop-color="#FEA98F" stop-opacity="0.4"/>
<stop offset="0.477836" stop-color="#FDF3E9" stop-opacity="0.8"/>
<stop offset="1" stop-color="#FEA98F" stop-opacity="0.502"/>
</linearGradient>
<linearGradient id="paint18_linear_175_6323" x1="212.883" y1="190.117" x2="359.905" y2="137.458" gradientUnits="userSpaceOnUse">
<stop stop-color="#FCD7C9"/>
<stop offset="0.520833" stop-color="#F8EDE2" stop-opacity="0.8"/>
<stop offset="1" stop-color="#FEA98F" stop-opacity="0.502"/>
</linearGradient>
<linearGradient id="paint19_linear_175_6323" x1="371.868" y1="194.948" x2="208.929" y2="195.863" gradientUnits="userSpaceOnUse">
<stop stop-color="#F19D99"/>
<stop offset="1" stop-color="#FCF0F1"/>
</linearGradient>
<linearGradient id="paint20_linear_175_6323" x1="13.5763" y1="168.724" x2="458.099" y2="215.984" gradientUnits="userSpaceOnUse">
<stop stop-color="#F7CDBA"/>
<stop offset="0.442137" stop-color="#FF8D7E"/>
<stop offset="1" stop-color="#F3AD95"/>
</linearGradient>
</defs>
</svg>
