<svg width="30" height="30" viewBox="0 0 30 30" fill="none" xmlns="http://www.w3.org/2000/svg">
<g clip-path="url(#clip0_209_5639)">
<path d="M29.2002 4.10001H1.2002V11.4H29.2002V4.10001Z" fill="#FFC76F"/>
<path d="M27.3 4.80001C27.9 4.80001 28.5 5.30001 28.5 6.00001V27.4C28.5 28 28 28.6 27.3 28.6H2.7C2.1 28.6 1.5 28.1 1.5 27.4V5.90001C1.5 5.30001 2 4.70001 2.7 4.70001H27.3V4.80001ZM27.3 3.20001H2.7C1.2 3.20001 0 4.40001 0 5.90001V27.3C0 28.8 1.2 30 2.7 30H27.3C28.8 30 30 28.8 30 27.3V5.90001C30 4.40001 28.8 3.20001 27.3 3.20001Z" fill="#985801"/>
<path d="M7.1001 6.4V0" stroke="#985801" stroke-width="1.5" stroke-miterlimit="10" stroke-linejoin="round"/>
<path d="M22.8999 6.4V0" stroke="#985801" stroke-width="1.5" stroke-miterlimit="10" stroke-linejoin="round"/>
<path d="M1.2002 11.3H29.1002" stroke="#985801" stroke-width="1.5" stroke-miterlimit="10" stroke-linejoin="round"/>
<path d="M12.7998 13.6H3.7998V22.6H12.7998V13.6Z" fill="url(#paint0_linear_209_5639)"/>
</g>
<defs>
<linearGradient id="paint0_linear_209_5639" x1="8.3395" y1="14.5712" x2="8.3395" y2="21.8942" gradientUnits="userSpaceOnUse">
<stop stop-color="#E1590A"/>
<stop offset="1" stop-color="#C23102"/>
</linearGradient>
<clipPath id="clip0_209_5639">
<rect width="30" height="30" fill="white"/>
</clipPath>
</defs>
</svg>
