<svg width="31" height="31" viewBox="0 0 31 31" fill="none" xmlns="http://www.w3.org/2000/svg">
<path d="M2.40323 1L1.46774 1.46774L1 4.27419V27.6613L1.93548 29.0645L4.27419 30H25.3226L24.3871 29.0645L22.9839 26.7258L23.4516 6.6129L22.9839 1.93548L22.0484 1H2.40323Z" fill="#FFC76F"/>
<path d="M23.2763 26.2581V2.7248C23.2751 2.28326 23.0991 1.86017 22.7869 1.54795C22.4746 1.23573 22.0515 1.05975 21.61 1.05847H2.72492C2.28338 1.05975 1.86029 1.23573 1.54807 1.54795C1.23585 1.86017 1.05988 2.28326 1.05859 2.7248V27.1643C1.06079 27.9002 1.3541 28.6053 1.87445 29.1257C2.3948 29.646 3.09992 29.9393 3.83581 29.9415H26.609" stroke="#985801" stroke-width="1.2" stroke-linejoin="round"/>
<path d="M26.609 29.9415C25.7252 29.9415 24.8775 29.5904 24.2525 28.9654C23.6275 28.3404 23.2764 27.4928 23.2764 26.6089V6.61292H28.2754C28.7173 6.61292 29.1411 6.78847 29.4536 7.10097C29.7661 7.41347 29.9417 7.83731 29.9417 8.27925V26.6089C29.9417 27.4928 29.5906 28.3404 28.9656 28.9654C28.3406 29.5904 27.4929 29.9415 26.609 29.9415Z" stroke="#985801" stroke-width="1.2" stroke-linejoin="round"/>
<path d="M14.3891 6.61292H18.8326M14.3891 11.0565H18.8326M5.50195 15.5H18.8326M5.50195 19.9436H18.8326M5.50195 24.3871H18.8326" stroke="url(#paint0_linear_209_5628)" stroke-width="2.375" stroke-linecap="round" stroke-linejoin="round"/>
<path d="M9.94555 12.1673H5.502C5.20737 12.1673 4.92482 12.0503 4.71648 11.842C4.50815 11.6336 4.39111 11.3511 4.39111 11.0564V6.6129C4.39111 6.31828 4.50815 6.03572 4.71648 5.82739C4.92482 5.61905 5.20737 5.50201 5.502 5.50201H9.94555C10.2402 5.50201 10.5227 5.61905 10.7311 5.82739C10.9394 6.03572 11.0564 6.31828 11.0564 6.6129V11.0564C11.0564 11.3511 10.9394 11.6336 10.7311 11.842C10.5227 12.0503 10.2402 12.1673 9.94555 12.1673Z" fill="url(#paint1_linear_209_5628)"/>
<defs>
<linearGradient id="paint0_linear_209_5628" x1="12.1673" y1="6.61292" x2="12.1673" y2="24.3871" gradientUnits="userSpaceOnUse">
<stop stop-color="#E1590A"/>
<stop offset="1" stop-color="#C23102"/>
</linearGradient>
<linearGradient id="paint1_linear_209_5628" x1="7.72377" y1="5.50201" x2="7.72377" y2="12.1673" gradientUnits="userSpaceOnUse">
<stop stop-color="#E1590A"/>
<stop offset="1" stop-color="#C23102"/>
</linearGradient>
</defs>
</svg>
