<svg width="60" height="60" viewBox="0 0 60 60" fill="none" xmlns="http://www.w3.org/2000/svg">
<circle cx="30" cy="30" r="30" fill="#C68158"/>
<path d="M29.7857 15C26.6611 15.0037 23.6655 16.2466 21.456 18.456C19.2466 20.6655 18.0037 23.6611 18 26.7857C17.9963 29.3392 18.8303 31.8233 20.3743 33.8571C20.3743 33.8571 20.6957 34.2804 20.7482 34.3414L29.7857 45L38.8275 34.3361C38.8747 34.2793 39.1972 33.8571 39.1972 33.8571L39.1982 33.8539C40.7414 31.821 41.5751 29.338 41.5714 26.7857C41.5678 23.6611 40.3249 20.6655 38.1154 18.456C35.906 16.2466 32.9104 15.0037 29.7857 15ZM34.2964 27.5379L29.7889 32.1429L25.275 27.5379C24.733 26.9783 24.43 26.2298 24.43 25.4507C24.43 24.6717 24.733 23.9232 25.275 23.3636C25.5408 23.0904 25.8586 22.8732 26.2098 22.725C26.5609 22.5767 26.9382 22.5003 27.3193 22.5003C27.7004 22.5003 28.0777 22.5767 28.4288 22.725C28.78 22.8732 29.0978 23.0904 29.3636 23.3636L29.7889 23.7975L30.21 23.3636C30.4758 23.0904 30.7936 22.8732 31.1448 22.725C31.4959 22.5767 31.8732 22.5003 32.2543 22.5003C32.6354 22.5003 33.0127 22.5767 33.3638 22.725C33.715 22.8732 34.0328 23.0904 34.2986 23.3636C34.8406 23.9232 35.1436 24.6717 35.1436 25.4507C35.1436 26.2298 34.8406 26.9783 34.2986 27.5379H34.2964Z" fill="white"/>
</svg>
