<svg width="35" height="31" viewBox="0 0 35 31" fill="none" xmlns="http://www.w3.org/2000/svg">
<path d="M30.2776 6.14417H4.42811C3.51807 6.14663 2.64613 6.50987 2.0035 7.15424C1.36087 7.79861 0.999997 8.67152 1 9.58157L1 26.5657C1.00082 27.4752 1.36206 28.3473 2.0046 28.991C2.64714 29.6347 3.5186 29.9975 4.42811 30H30.2776C31.1892 30 32.0636 29.6378 32.7082 28.9932C33.3528 28.3486 33.715 27.4742 33.715 26.5626V9.58157C33.715 8.66991 33.3528 7.7956 32.7082 7.15096C32.0636 6.50632 31.1892 6.14417 30.2776 6.14417V6.14417Z" fill="#FFC76F" stroke="#985801"/>
<g clip-path="url(#clip0_927_7570)">
<path d="M22.5109 19.6442H19.2221V22.7829C19.2221 23.6695 18.826 24.3773 17.9352 24.3773C17.0443 24.3773 16.6482 23.6623 16.6482 22.7829V19.6442H13.3594C12.4729 19.6442 11.7565 19.2296 11.7565 18.3444C11.7618 18.1453 11.8086 17.9494 11.894 17.7695C11.9794 17.5895 12.1015 17.4293 12.2524 17.2993C12.4034 17.1692 12.5798 17.0721 12.7704 17.0143C12.961 16.9564 13.1617 16.939 13.3594 16.9631H16.6482V13.64C16.6482 12.7535 17.0429 12.0457 17.9352 12.0457C18.8274 12.0457 19.2221 12.7606 19.2221 13.64V16.9631H22.5109C22.7079 16.9388 22.9077 16.9563 23.0975 17.0143C23.2873 17.0723 23.4628 17.1696 23.6125 17.2999C23.7622 17.4302 23.8828 17.5905 23.9665 17.7705C24.0501 17.9505 24.095 18.146 24.0981 18.3444C24.0967 19.231 23.396 19.6442 22.5109 19.6442Z" fill="url(#paint0_linear_927_7570)"/>
</g>
<path d="M6.13666 2.44909H28.1739C28.4986 2.44909 28.8101 2.32008 29.0397 2.09043C29.2694 1.86078 29.3984 1.54932 29.3984 1.22455C29.3984 0.899777 29.2694 0.588308 29.0397 0.358661C28.8101 0.129014 28.4986 0 28.1739 0H6.13666C5.81189 0 5.50042 0.129014 5.27077 0.358661C5.04112 0.588308 4.91211 0.899777 4.91211 1.22455C4.91211 1.54932 5.04112 1.86078 5.27077 2.09043C5.50042 2.32008 5.81189 2.44909 6.13666 2.44909Z" fill="#FFC76F"/>
<defs>
<linearGradient id="paint0_linear_927_7570" x1="17.9273" y1="12.0457" x2="17.9273" y2="24.3773" gradientUnits="userSpaceOnUse">
<stop stop-color="#E1590A"/>
<stop offset="1" stop-color="#C23102"/>
</linearGradient>
<clipPath id="clip0_927_7570">
<rect width="12.3331" height="12.333" fill="white" transform="translate(11.764 12.0441)"/>
</clipPath>
</defs>
</svg>
