<?xml version="1.0" encoding="UTF-8"?>
<svg id="Layer_2" data-name="Layer 2" xmlns="http://www.w3.org/2000/svg" xmlns:xlink="http://www.w3.org/1999/xlink" viewBox="0 0 343 90">
  <defs>
    <style>
      .cls-1 {
        fill: url(#linear-gradient-2);
      }

      .cls-2 {
        fill: #fff;
      }

      .cls-3 {
        fill: url(#New_Gradient_Swatch_copy_2);
      }

      .cls-4 {
        fill: url(#New_Gradient_Swatch_copy_2-2);
      }

      .cls-5 {
        fill: url(#linear-gradient-14);
      }

      .cls-6 {
        fill: url(#New_Gradient_Swatch);
      }

      .cls-7 {
        fill: url(#linear-gradient-6);
      }

      .cls-8 {
        fill: #dd6e00;
      }

      .cls-9 {
        fill: url(#New_Gradient_Swatch-4);
      }

      .cls-10 {
        fill: url(#linear-gradient-11);
      }

      .cls-11 {
        fill: #aa443e;
      }

      .cls-12 {
        fill: url(#linear-gradient-10);
      }

      .cls-13 {
        fill: #ebf2f9;
      }

      .cls-14 {
        fill: #35488b;
      }

      .cls-15 {
        fill: url(#New_Gradient_Swatch-3);
      }

      .cls-16 {
        fill: #d82f30;
      }

      .cls-17 {
        fill: #e50019;
      }

      .cls-18 {
        fill: url(#linear-gradient-5);
      }

      .cls-19 {
        fill: url(#New_Gradient_Swatch_copy_2-3);
      }

      .cls-20 {
        fill: #2c3a64;
      }

      .cls-21 {
        fill: url(#New_Gradient_Swatch_copy-2);
      }

      .cls-22 {
        clip-path: url(#clippath);
      }

      .cls-23 {
        fill: #ed985f;
      }

      .cls-24 {
        fill: none;
      }

      .cls-25 {
        fill: url(#linear-gradient-7);
      }

      .cls-26 {
        fill: url(#New_Gradient_Swatch_copy);
      }

      .cls-27 {
        fill: #e8945b;
      }

      .cls-28 {
        fill: url(#linear-gradient-9);
      }

      .cls-29 {
        fill: #ed7d2b;
      }

      .cls-30 {
        fill: #ffb27d;
      }

      .cls-31 {
        fill: url(#linear-gradient-3);
      }

      .cls-32 {
        fill: url(#linear-gradient);
      }

      .cls-33 {
        fill: url(#New_Gradient_Swatch_copy-3);
      }

      .cls-34 {
        fill: url(#linear-gradient-4);
      }

      .cls-35 {
        fill: #163560;
      }

      .cls-36 {
        fill: #2b478b;
      }

      .cls-37 {
        fill: url(#linear-gradient-8);
      }

      .cls-38 {
        fill: url(#linear-gradient-12);
      }

      .cls-39 {
        fill: url(#linear-gradient-13);
      }

      .cls-40 {
        fill: url(#New_Gradient_Swatch-2);
      }
    </style>
    <clipPath id="clippath">
      <rect class="cls-24" width="343" height="90"/>
    </clipPath>
    <linearGradient id="linear-gradient" x1="172.2" y1="-1.23" x2="170.78" y2="92.4" gradientUnits="userSpaceOnUse">
      <stop offset="0" stop-color="#fef2ed"/>
      <stop offset="1" stop-color="#fce5d7"/>
    </linearGradient>
    <linearGradient id="linear-gradient-2" x1="107.45" y1="1657.41" x2="107.43" y2="1601.42" gradientTransform="translate(0 1700.72) scale(1 -1)" gradientUnits="userSpaceOnUse">
      <stop offset="0" stop-color="#fff"/>
      <stop offset=".54" stop-color="#fff" stop-opacity=".33"/>
      <stop offset="1" stop-color="#fff" stop-opacity=".76"/>
    </linearGradient>
    <linearGradient id="linear-gradient-3" x1="219.06" y1="1657.41" x2="219.08" y2="1601.42" gradientTransform="translate(0 1700.72) scale(1 -1)" gradientUnits="userSpaceOnUse">
      <stop offset="0" stop-color="#fff"/>
      <stop offset=".54" stop-color="#fff" stop-opacity=".33"/>
      <stop offset="1" stop-color="#fff" stop-opacity=".2"/>
    </linearGradient>
    <linearGradient id="linear-gradient-4" x1="49.54" y1="1692.07" x2="49.52" y2="1675.9" gradientTransform="translate(0 1700.72) scale(1 -1)" gradientUnits="userSpaceOnUse">
      <stop offset="0" stop-color="#fff"/>
      <stop offset=".76" stop-color="#fff" stop-opacity=".76"/>
      <stop offset="1" stop-color="#fff" stop-opacity=".2"/>
    </linearGradient>
    <linearGradient id="linear-gradient-5" x1="297.46" y1="1678.5" x2="297.43" y2="1661.83" gradientTransform="translate(0 1700.72) scale(1 -1)" gradientUnits="userSpaceOnUse">
      <stop offset="0" stop-color="#fff"/>
      <stop offset=".69" stop-color="#fff" stop-opacity=".63"/>
      <stop offset="1" stop-color="#fff" stop-opacity=".2"/>
    </linearGradient>
    <linearGradient id="New_Gradient_Swatch" data-name="New Gradient Swatch" x1="166.73" y1="47.3" x2="166.73" y2="65.11" gradientUnits="userSpaceOnUse">
      <stop offset="0" stop-color="#ffbf74"/>
      <stop offset="1" stop-color="#ee8d2d"/>
    </linearGradient>
    <linearGradient id="New_Gradient_Swatch-2" data-name="New Gradient Swatch" x1="172.44" y1="47.3" x2="172.44" y2="65.11" xlink:href="#New_Gradient_Swatch"/>
    <linearGradient id="linear-gradient-6" x1="165.06" y1="44.34" x2="165.06" y2="16.78" gradientUnits="userSpaceOnUse">
      <stop offset="0" stop-color="#ea553f"/>
      <stop offset="1" stop-color="#d32a30"/>
    </linearGradient>
    <linearGradient id="New_Gradient_Swatch_copy" data-name="New Gradient Swatch copy" x1="153.36" y1="21.56" x2="163.24" y2="21.56" gradientUnits="userSpaceOnUse">
      <stop offset="0" stop-color="#ffdc7b"/>
      <stop offset="1" stop-color="#f4973b"/>
    </linearGradient>
    <linearGradient id="New_Gradient_Swatch_copy-2" data-name="New Gradient Swatch copy" y1="23.31" x2="155.6" y2="23.31" xlink:href="#New_Gradient_Swatch_copy"/>
    <linearGradient id="New_Gradient_Swatch_copy-3" data-name="New Gradient Swatch copy" x1="152.62" y1="17.48" x2="156.37" y2="17.48" xlink:href="#New_Gradient_Swatch_copy"/>
    <linearGradient id="linear-gradient-7" x1="158.74" y1="35.45" x2="158.74" y2="26.69" xlink:href="#linear-gradient-6"/>
    <linearGradient id="linear-gradient-8" x1="169.44" y1="37.73" x2="169.44" y2="16.81" xlink:href="#linear-gradient-6"/>
    <linearGradient id="New_Gradient_Swatch-3" data-name="New Gradient Swatch" x1="149.65" y1="69.75" x2="157.89" y2="69.75" xlink:href="#New_Gradient_Swatch"/>
    <linearGradient id="New_Gradient_Swatch-4" data-name="New Gradient Swatch" x1="146.85" y1="72.25" x2="155.82" y2="72.25" xlink:href="#New_Gradient_Swatch"/>
    <linearGradient id="New_Gradient_Swatch_copy_2" data-name="New Gradient Swatch copy 2" x1="144.5" y1="53.02" x2="159.27" y2="53.02" gradientUnits="userSpaceOnUse">
      <stop offset="0" stop-color="#ffb59a"/>
      <stop offset="1" stop-color="#f75a4a"/>
    </linearGradient>
    <linearGradient id="linear-gradient-9" x1="173.15" y1="61.86" x2="184.23" y2="61.86" xlink:href="#linear-gradient-6"/>
    <linearGradient id="linear-gradient-10" x1="180.17" y1="61.53" x2="194.62" y2="61.53" xlink:href="#linear-gradient-6"/>
    <linearGradient id="New_Gradient_Swatch_copy_2-2" data-name="New Gradient Swatch copy 2" x1="175.51" y1="35.49" x2="191.64" y2="35.49" xlink:href="#New_Gradient_Swatch_copy_2"/>
    <linearGradient id="New_Gradient_Swatch_copy_2-3" data-name="New Gradient Swatch copy 2" x1="175.51" y1="41.7" x2="179.26" y2="41.7" xlink:href="#New_Gradient_Swatch_copy_2"/>
    <linearGradient id="linear-gradient-11" x1="21.44" y1="1587.67" x2="161.08" y2="1672.79" gradientTransform="translate(0 1700.54) scale(1 -1)" gradientUnits="userSpaceOnUse">
      <stop offset="0" stop-color="#fea98f" stop-opacity=".4"/>
      <stop offset=".48" stop-color="#fdf3e9" stop-opacity=".8"/>
      <stop offset="1" stop-color="#fea98f" stop-opacity=".5"/>
    </linearGradient>
    <linearGradient id="linear-gradient-12" x1="203.37" y1="1596.47" x2="338.23" y2="1644.77" gradientTransform="translate(0 1700.54) scale(1 -1)" gradientUnits="userSpaceOnUse">
      <stop offset="0" stop-color="#fcd7c9"/>
      <stop offset=".52" stop-color="#f8ede2" stop-opacity=".8"/>
      <stop offset="1" stop-color="#fea98f" stop-opacity=".5"/>
    </linearGradient>
    <linearGradient id="linear-gradient-13" x1="337.89" y1="1629.79" x2="188.42" y2="1628.95" gradientTransform="translate(0 1700.54) scale(1 -1)" gradientUnits="userSpaceOnUse">
      <stop offset="0" stop-color="#f19d99"/>
      <stop offset="1" stop-color="#fcf0f1"/>
    </linearGradient>
    <linearGradient id="linear-gradient-14" x1="8.67" y1="1642.05" x2="416.44" y2="1598.7" gradientTransform="translate(0 1700.54) scale(1 -1)" gradientUnits="userSpaceOnUse">
      <stop offset="0" stop-color="#f7cdba"/>
      <stop offset=".44" stop-color="#ff8d7e"/>
      <stop offset="1" stop-color="#f3ad95"/>
    </linearGradient>
  </defs>
  <g id="_Layer_" data-name="&amp;lt;Layer&amp;gt;">
    <g class="cls-22">
      <g>
        <rect class="cls-32" width="343" height="90"/>
        <g>
          <path class="cls-1" d="M171.1,55.62v26.63H51.88c-2.15,0-4.21-.42-5.73-1.18-1.52-.75-2.37-1.78-2.37-2.84s.85-2.09,2.37-2.84c1.52-.75,3.58-1.18,5.73-1.18,.16,0,.33,0,.49,0,.63-1.05,1.85-2,3.51-2.72,1.66-.73,3.7-1.21,5.88-1.39,.38-.66,1.07-1.27,2.03-1.77,.96-.5,2.14-.87,3.46-1.1,1.31-.22,2.72-.28,4.09-.17,1.37,.11,2.66,.38,3.77,.8,.47-.16,.96-.3,1.47-.43,1.95-1.04,4.63-1.68,7.49-1.77-.5-1.25-.14-2.56,1.03-3.7,1.17-1.14,3.08-2.05,5.42-2.59,2.34-.54,4.98-.67,7.49-.37,2.51,.3,4.75,1,6.35,2.01,1.25-1.02,3.22-1.77,5.51-2.12,2.3-.35,4.77-.27,6.96,.22,2.63-1.14,6.04-1.73,9.53-1.64,3.49,.09,6.77,.84,9.15,2.1,1.3-.23,2.68-.35,4.06-.36-.78-.47-1.26-1.05-1.41-1.65-.15-.61,.06-1.22,.58-1.77,.53-.55,1.36-1.02,2.4-1.34,1.04-.33,2.24-.5,3.47-.5,.14,0,.28,0,.42,0,.81-1.55,2.72-2.9,5.39-3.79s5.9-1.28,9.1-1.08c3.2,.2,6.13,.97,8.26,2.17,2.13,1.2,3.31,2.74,3.31,4.34h0Z"/>
          <path class="cls-31" d="M171.1,82.25v-26.63c0-1.6,.89-3.14,2.49-4.34,1.61-1.2,3.82-1.97,6.23-2.17,2.41-.2,4.85,.18,6.86,1.08,2.01,.9,3.45,2.25,4.06,3.79,.1,0,.21,0,.31,0,.93,0,1.83,.17,2.62,.5,.78,.33,1.41,.79,1.81,1.34,.4,.55,.55,1.16,.44,1.77-.11,.61,1.84-1.15,8.5-.69,3.34,.23,5.59,1.1,7.57,2.24,1.65-.49,3.52-.57,5.25-.22,1.73,.35,3.21,1.1,4.16,2.12,1.21-1,2.89-1.71,4.78-2.01,1.89-.3,3.88-.17,5.64,.37,1.77,.54,3.21,1.45,4.09,2.59,.88,1.14,1.16,2.44,.78,3.7,2.16,.1,4.18,.73,5.65,1.77,.38,.13,.75,.27,1.11,.43,.84-.41,1.81-.69,2.84-.8,1.03-.11,2.09-.05,3.08,.17,.99,.22,1.88,.6,2.61,1.1,.72,.5,1.25,1.11,1.53,1.77,1.65,.18,3.18,.66,4.43,1.39,1.25,.73,2.17,1.67,2.64,2.72,.12,0,.24,0,.37,0,1.62,0,3.17,.42,4.32,1.18,1.14,.75,1.79,1.78,1.79,2.84s-.64,2.09-1.79,2.84c-1.14,.75-2.7,1.18-4.32,1.18h-89.84Z"/>
        </g>
        <path class="cls-34" d="M74.77,23.01H24.27l8.17-1.42c-.11-1.15,.04-2.3,.44-3.38,.4-1.08,1.04-2.06,1.88-2.85,.8-.73,1.78-1.24,2.84-1.48,1.06-.24,2.16-.19,3.2,.13,.8-1.05,1.84-1.89,3.03-2.45,1.19-.56,2.51-.83,3.83-.78,1.33,.09,2.61,.49,3.75,1.17,1.14,.68,2.1,1.62,2.8,2.74,.78-.83,1.79-1.43,2.89-1.73,1.11-.3,2.27-.28,3.37,.04,1.14,.37,2.17,1.03,3,1.9,.82,.88,1.41,1.94,1.7,3.1,.55-.35,1.19-.54,1.85-.54,.66,0,1.3,.18,1.85,.53,.56,.39,1.02,.91,1.33,1.52,.31,.61,.46,1.28,.44,1.97l4.12,1.53Z"/>
        <path class="cls-18" d="M270.42,37.03h54.02c-3.22-.39-6.53-.82-9.75-1.2-.05-.41-.2-.8-.44-1.14-.24-.33-.57-.6-.95-.77-.37-.17-.78-.24-1.18-.2-.4,.04-.79,.19-1.11,.43,.17-1.15-.86-2.22-1.93-2.69-1.11-.39-2.28-.53-3.45-.42-.14-1.33-.64-2.6-1.46-3.67s-1.91-1.89-3.17-2.37c-1.26-.5-2.62-.69-3.97-.55-1.35,.14-2.64,.59-3.77,1.34-1.12,.76-2.07,1.74-2.78,2.88-.72,1.14-1.19,2.42-1.38,3.76-.83-.09-1.66,.05-2.41,.41-.75,.36-1.38,.92-1.82,1.62-.79-.38-1.7-.46-2.54-.22-.85,.23-1.58,.76-2.07,1.49l-9.82,1.31Z"/>
        <g>
          <path class="cls-27" d="M161.49,15.4s2.95,1.4,3.62,1.22c.67-.18,3.22-.63,3.58-.47,0,0,.41,.65,.1,1.07s-2.79,1.58-3.68,1.62-4.3-.57-5.02-1.14l1.4-2.31Z"/>
          <path class="cls-27" d="M168.6,16.17s1.14-.47,1.51,.06c.37,.53,.58,1.06,.54,1.33-.05,.27-.81,.39-1.12,.18-.31-.21-1.07-.5-1.07-.5l.14-1.06Z"/>
        </g>
        <path class="cls-35" d="M174.05,82.43s-.63,1.02-.64,2.2c0,.26,.21,.48,.47,.48h3.92c.38,0,.66-.36,.57-.72-.18-.72-.57-1.8-1.36-2.46-1.25-1.05-2.96,.51-2.96,.51Z"/>
        <path class="cls-35" d="M167.85,81.39s-.23,3.63-.93,3.68c-.09,0-3.56,0-3.56,0h-4.48s.08-1.09,1.37-1.32c1.3-.23,3.46-1.14,4.25-2.85,.83-1.8,3.35,.48,3.35,.48Z"/>
        <path class="cls-6" d="M169.72,58.95c-.16,2.02-.18,3.61,.03,4.37,.92,3.38-1.67,18.63-1.67,18.63-1.91,.91-4.62,0-4.62,0,.16-2.11-.84-21.03-1.77-32.57-.39-4.85-.68-8.24-.68-8.24l11.44-1.33s-2.18,12.14-2.72,19.15Z"/>
        <path class="cls-40" d="M166.83,42.39s5.79,33.7,6.78,40.23c0,0,2.17,.61,4.38-.33,0,0,.29-15.66-.47-20.38-.76-4.72,.4-19.3-.82-20.66-1.22-1.36-9.88,1.14-9.88,1.14Z"/>
        <path class="cls-30" d="M167.43,13.65s-.44,3-.25,3.89c.19,.89,3.17,1.38,4.42,.64,1.24-.74,.87-1.01,.87-1.01,0,0-.19-3.43-.36-3.67-.17-.24-4.67,.16-4.67,.16Z"/>
        <path class="cls-7" d="M177.01,31.93c.39-3.76,.29-6.59-.08-8.73-1.09-6.25-4.49-6.46-4.49-6.42,0,.84-1.81,1.62-3.27,1.52-1.23-.08-2.03-1.02-2.03-1.52,0,0-.02,0-.06,0-.32,0-1.78,.03-3.16,.27-1,.17-1.96,.46-2.41,.93-.23,.24-1.06,.92-2.12,1.84-2.71,2.34-6.95,6.26-6.76,8.6,0,0,5.24,3.85,8.55,1.43-.18,6.26-1.32,12.89-1.04,12.88,0,0,1.85,1.6,7.47,1.6,3.07,0,5.29-.26,6.84-.57,2.1-.41,2.94-.9,2.94-.9,.47,0-.51-9.64-.38-10.93Z"/>
        <path class="cls-16" d="M177.38,42.87s-.84,.49-2.94,.9c-2.9-1.29-8.67-4.61-8.89-10.19-.3-7.42,8.77-11.85,8.77-11.85,0,0,1.22,.68,2.61,1.47,.37,2.13,.47,4.96,.08,8.73-.14,1.3,.84,10.93,.38,10.93Z"/>
        <path class="cls-27" d="M167.38,13.99s1.15,1.63,2.37,1.64c1.22,.01,2.47-1.62,2.47-1.62l-4.84-.03Z"/>
        <path class="cls-30" d="M167.27,13.91c.32,.25,1.03,.6,1.62,.83,.44,.17,.93,.18,1.38,.03,.67-.23,1.69-.6,1.95-.75,.61-.37,.57-1.12,.6-2.16,.04-1.23,.16-2.2,.02-2.91-.16-.85-.7-1.34-2.21-1.47-2.77-.24-3.93,.45-3.98,1.38-.01,.25-.02,.49-.03,.71-.11,2.9,.12,3.93,.64,4.34Z"/>
        <path class="cls-8" d="M166.64,9.2s.45-.67,1.31-.41c.85,.26,.94,.99,2.4,.88,1.46-.12,1.81-.81,2.07-.46,.26,.35,.41,2.38,.41,2.38,0,0,2.93-6.69-3.01-6.69,0,0-6.13-.37-3.18,6.43v-2.13Z"/>
        <path class="cls-30" d="M155.84,15.53h0s0,0,0,0Z"/>
        <path class="cls-27" d="M169.52,36.1s-.78,.61-1.92,.61c0,0-1.16-1.28-2.14-2.52-.63-.8-1.19-1.58-1.3-1.99-.29-1.04-5.75-1.33-6.42-2.06-.67-.73,2.71-2.56,2.71-2.56,0,0,5.54,.85,6.38,1.94,.33,.43,.83,1.56,1.3,2.77,.72,1.82,1.39,3.81,1.39,3.81Z"/>
        <path class="cls-29" d="M161.77,20.9s1.05-2.04,1.57-1.98c.52,.06-1.19,4.22-1.35,6.24-.16,2.02-.22-4.26-.22-4.26Z"/>
        <path class="cls-30" d="M165.05,34.94c-.73,1.76-1.67,3.37-1.79,3.58,0,.01-.01,.02-.01,.02h-.02c-.18,0-1.7-.04-1.85-.65,0,0-.05-2.11,.04-3.79,.04-.75,.1-1.41,.21-1.76,0,0-8.25-.06-8.11-2.39,.14-2.33,4.46-3.57,6.94-2.36,0,0,3.29,1.2,5.02,2.77,.85,.78,.33,2.76-.43,4.58Z"/>
        <path class="cls-11" d="M153.76,26.67s-1.1,1.62-.84,3.12c.26,1.51,3.39,2.31,5.59,2.41,0,0,6.28-1.44,5.3-3.94-.22-.57-10.05-1.59-10.05-1.59Z"/>
        <path class="cls-8" d="M156.04,6.82s-1-2.04-3.4-.79-.06,5.95-1.33,7.12c-1.26,1.17,.46,1.94,.2,2.79-.26,.84,.48,1.8,2.16,1.69,1.68-.11,3.46-.02,4.22-1.5,.76-1.47,.59-4.72,.29-5.17-.29-.46-2.14-4.13-2.14-4.13Z"/>
        <path class="cls-30" d="M159.94,18l-4.09-2.47s.11-.13,.41-1.02c.13-.38,.2-.71,.23-.96,0-.03,0-.05,0-.08,.04-.38,.01-.6,.01-.6l.9,.32,1.66,.6c-.02,.42,.04,.72,.13,.92,.22,.49,.62,.5,.63,.5l.11,2.78Z"/>
        <path class="cls-23" d="M159.2,14.72c-1.6,.14-2.51-.91-2.7-1.17-.03-.04-.04-.06-.04-.06,0,0,.02,0,.05-.02,.13-.04,.48-.15,.91-.27l1.66,.6c-.02,.42,.04,.72,.13,.92Z"/>
        <path class="cls-30" d="M159.28,14.15s-3.56,.39-3.63-2.02c-.07-2.41-.6-3.51,1.86-3.72,2.46-.21,3.05,.67,3.19,1.49,.45,2.55-.42,4.15-1.42,4.25Z"/>
        <path class="cls-8" d="M157.7,9.58c-1.26-.32-.78,1.91-1.1,1.76-.36-.17-.97-.17-.87,.26,.1,.43,.24,.58,.31,.85,.07,.27,0,.8-.29,.69-.29-.11-3.02-3.22-1.09-5.64,1.92-2.42,7.66-.93,5.86,1.6-.32,.45-1.91,.7-2.81,.47Z"/>
        <path class="cls-26" d="M162.28,27.58s-1.07,.57-2.75,.54c-1.07-.02-3.35-.48-4.82-1.01-.84-.3-1.41-.62-1.34-.89,.1-.39,.81-3.37,1.48-6.14,.6-2.53,1.16-4.86,1.16-4.86,0,0,1.67,1.19,2.64,.77,.97-.42,.85-.89,.85-.89,0,0,1.15-.14,1.46-.1,.5,.06,2.25,.7,2.25,.7,0,0,.23,.65-.38,1.66-.51,.84-1,1-1,1,0,0,1.43,4.51,.46,9.24Z"/>
        <path class="cls-30" d="M156.92,23.55s1.03-.19,1.43,.07c.4,.26,.52,.68,.23,.84-.91,.53-1.83-.06-1.83-.06l.17-.86Z"/>
        <path class="cls-21" d="M154.7,27.11c-.84-.3-1.41-.62-1.34-.89,.1-.39,.81-3.37,1.48-6.14,.2-.36,.32-.57,.32-.57,0,0,1.25,5.73-.46,7.6Z"/>
        <path class="cls-30" d="M156.04,15.54s-3.17,.67-4.42,5.6c-.12,.48,0,1,.34,1.37,.57,.64,1.84,1.57,4.79,1.91,.32,.04,.36-.78,.36-.78-.03,.07-2-1.27-2.84-1.99-.15-.13-.15-.4-.04-.57,.28-.43,.76-1.18,.92-1.56,.23-.56,1.77-3.72,.89-3.97Z"/>
        <path class="cls-33" d="M156,15.22s-1.86,.13-3.38,2.16c0,0,.51,1.86,2.93,2.36,0,0,1.49-3.35,.45-4.52Z"/>
        <path class="cls-13" d="M165.05,34.94c-.73,1.76-1.67,3.37-1.79,3.58,0,0-.02,.01-.03,.02-.18,0-1.7-.04-1.85-.65,0,0-.05-2.11,.04-3.79,.24,.23,1.18,.93,3.64,.84Z"/>
        <path class="cls-13" d="M169.52,36.1s-.78,.61-1.92,.61c0,0-1.16-1.28-2.14-2.52,1.1-.48,2.26-1.52,2.66-1.9,.72,1.82,1.39,3.81,1.39,3.81Z"/>
        <path class="cls-11" d="M165.59,40.82c-.03,.19-.22,.32-.42,.28-.46-.09-1.28-.27-1.62-.39-.48-.18-1.42-.73-1.9-.9-.17-.06-.57-.22-.83-.33-.14-.06-.21-.21-.17-.35,.09-.3,.25-.8,.49-1.22,.04-.08,.11-.14,.2-.18,.25,.2,.65,.42,1.18,.43,.43,0,.8-.1,1.06-.22,.03,.07,.69,1.4,1.16,1.57,.42,.15,.97,.56,.84,1.32Z"/>
        <path class="cls-11" d="M172.52,36.11c.09,.17,.02,.39-.15,.48-.42,.21-1.17,.58-1.52,.7-.49,.16-1.56,.31-2.05,.47-.17,.06-.58,.18-.85,.25-.14,.04-.29-.03-.35-.17-.12-.29-.3-.78-.37-1.26-.01-.09,0-.18,.05-.27,.32,0,.77-.07,1.19-.4,.34-.27,.56-.57,.7-.83,.07,.03,1.41,.67,1.89,.51,.43-.14,1.11-.17,1.48,.52Z"/>
        <path class="cls-25" d="M165.84,33.44s-.24,1.38-1.13,2.01c0,0-3.63-.5-7.02-1.36-2.49-.63-4.84-1.45-5.51-2.41-1.59-2.26,.83-5,.83-5,0,0,4.67,2.25,9.72,5.01,1.03,.56,2.08,1.15,3.11,1.74Z"/>
        <path class="cls-30" d="M160.37,35.45s-1.08,.09-1.49,.5c-.41,.41-1.03,1.6-.59,2.07,.44,.47,2.54-.56,2.6-.73,.06-.17-.53-1.83-.53-1.83Z"/>
        <path class="cls-16" d="M165.84,33.44s-.24,1.38-1.13,2.01c0,0-3.63-.5-7.02-1.36,1.59-1.38,3.67-2.07,5.04-2.4,1.03,.56,2.08,1.15,3.11,1.74Z"/>
        <path class="cls-37" d="M178.17,18.6c-.73-1.73-5.51-1.79-5.51-1.79-2.43,6.38-3.02,10.56-3.66,13.25-.1,0-.2-.01-.29,0,0,0-3.42,1.33-8.49,5.02,0,0-.53,1.46,.42,2.65,0,0,8.75-1.93,11.19-3.36,0,0,0,0,0,0,.02-.02,.05-.03,.07-.05,.04-.02,.07-.05,.11-.07,7.95-5.16,7.19-13.18,6.15-15.65Z"/>
        <path class="cls-20" d="M156.55,82.84s.34,.67,1.1,.83c.48,.1,.89,.35,1.14,.7,.21,.29,0,.71-.36,.71h-3.84c-.33,0-.58-.28-.55-.61,.03-.28,.06-.62,.07-.87,.03-.55,.58-1,.58-1l1.86,.24Z"/>
        <path class="cls-14" d="M157.42,73.15c.16,2.92-.24,9.56-.24,9.56,0,0-.27,.74-1.96,.92-.91,.09-1.72-.14-1.72-.14-.34-1.57-.66-3.07-.95-4.5-2.09-10.25-2.9-16.57-2.9-16.57l8.24-1.92s-.36,5.78-.47,9.73c-.03,1.23-.04,2.28,0,2.92Z"/>
        <path class="cls-15" d="M157.89,60.5s-.36,5.78-.47,9.73l-4.87,8.76c-2.09-10.25-2.9-16.57-2.9-16.57l8.24-1.92Z"/>
        <path class="cls-11" d="M149.61,47.25s-3.19-1.45-5.6-.18c-2.41,1.27-.94,11.75,2.51,12.77h0s6.47,2.07,3.09-12.59Z"/>
        <path class="cls-27" d="M158.83,62.95s-.02-.03-.03-.04c-.08-.12-.2-.4-.3-.63h0c.64-3.14,.21-4.96,.21-4.96,.08-.91,.62-7.3-.64-10.26-.61-1.43-1.62-1.43-1.62-1.43,0,0,.24,2.28,.08,3.51-.14,1.13,.93,11.68,1.11,13.4,0,0,0,0,0,0l.05,1.75,.51-.12s.04-.01,.06-.02h0c.06-.03,.12-.08,.16-.14l.42-.66c.08-.13,.07-.28,0-.4h0Zm-.98-.28h.02s-.01,0-.01,0c0,0,0,0-.01,0Z"/>
        <path class="cls-20" d="M149.86,82.84s.34,.67,1.1,.83c.48,.1,.88,.35,1.14,.7,.21,.29,0,.71-.36,.71h-3.84c-.33,0-.58-.28-.55-.61,.03-.28,.06-.62,.07-.87,.03-.55,.58-1,.58-1l1.86,.24Z"/>
        <path class="cls-8" d="M152.53,33.91c-.82,0-1.85,.35-2.41,.89-.59,.57-1.2,.6-1.64,1.28-.45,.7-.74,1.43-.51,2.42,.25,1.08,.2,2.13,.88,2.92,.34,.39,.88,.44,1.27,.8,.7,.66,1.5,.87,2.41,.87,1.71,0,2.78-1.02,3.66-2.28,.7-1.01,.56-1.7,.73-2.56,.52-2.73-1.76-4.34-4.39-4.34Z"/>
        <path class="cls-30" d="M154.95,44.92l-3.28,1.67-.66-2.27s.42-.79,.61-2.08c.08-.54,.12-1.17,.07-1.87l2.67,1.37s-.06,.25-.11,.61c-.05,.39-.07,.92,.05,1.43,.1,.43,.29,.85,.65,1.14Z"/>
        <path class="cls-9" d="M147.36,61.39s-.62,8.26-.48,21.42c0,0,.75,.4,1.66,.49,1.69,.17,2.1-.5,2.1-.5,0,0,1.73-6.42,2.16-9.32,.4-2.67,3.02-12.3,3.02-12.3l-8.46,.21Z"/>
        <path class="cls-3" d="M157.11,45.15c-.29-.14-1.21-.51-2.58-.73,.01,.47-.11,.91-.94,1.02-1.1,.14-2.08-.61-2.58-1.12,0,0,0,0,0,0h0s-.78,.08-1.68,.28c-.45,.1-.94,.23-1.37,.39-.53,.19-.98,.44-1.23,.74,0,0,0,0,0,0h0c-.85,1.04-2.24,4.17-2.24,4.17,0,0,2.32,.86,2.9,1.36v.11s.38,3.01,.38,3.01l-1.08,6c0,.05-.01,.11-.01,.16,0,.4,.27,.76,.68,.86,0,0,.09,.02,.26,.04,1.15,.16,5.79,.72,9.44-.27,.82-.22,1.36-1.01,1.29-1.85l-.59-7.46c.32-.05,.68-.11,.98-.15,.25-.03,.45-.04,.53-.01,0,0-.41-5.82-2.15-6.54Z"/>
        <path class="cls-16" d="M150.24,56.21c-.05,2.09-1.42,4.55-2.62,5.22-.17-.02-.26-.04-.26-.04-.4-.1-.68-.46-.68-.86,0-.05,0-.1,.01-.16l1.08-6-.36-3.01c.02-.05,.03-.08,.03-.08,0,0,2.88,1.23,2.8,4.93Z"/>
        <path class="cls-29" d="M158.74,51.7c-.31,.03-.98,.15-.98,.15l-.34-3.12s1.15,2.2,1.33,2.98Z"/>
        <path class="cls-11" d="M146.89,59.3l.28-1.56c4.75-6.87,5.11-8.11,2.97-11.19-.61-.88-1.73-1.44-2.18-1.56,.44-.16,.92-.29,1.37-.39,.45,.21,.87,.42,1.19,.7,6.52,5.65-3.64,14-3.64,14Z"/>
        <path class="cls-30" d="M152.43,50.48c-1.86,.13-2.12,2.03-2.12,2.03,0,0-3.12,.28-3.58,.49,0,0,.25-.69,.7-1.72-.41-.4-1.75-1-2.63-1.27-.68,1.72-.94,3.43-.56,5.07,.04,.17,.19,.3,.37,.31,.99,.05,4.28,.03,6.68-1.96h.04c.58-.05,1.12-.62,1.32-1.37,.21-.75,.22-.52,.38-1.05,.16-.53-.62-.53-.62-.53Z"/>
        <path class="cls-27" d="M154.3,43.78c-1.52-.04-2.68-1.54-2.68-1.54l2.63,.11c-.05,.39-.07,.92,.05,1.43Z"/>
        <path class="cls-30" d="M154.44,42.86s-3.35,.41-3.43-1.95c-.07-2.36,1.33-3.89,2.26-3.88,1.86,.03,2.17,.79,2.38,1.57,.22,.78,.33,4.09-1.22,4.26Z"/>
        <path class="cls-2" d="M153.55,41.5s.07,.29,.81,.24c0,0,.62-.05,.59-.37,0,0-.6-.22-1.4,.13Z"/>
        <path class="cls-8" d="M154.11,37.05s-2.87,0-2.21,1.97c.42,1.24-.97,1.43-.97,1.43l-.66-1.99,.42-1.55,3.42,.14Z"/>
        <path class="cls-30" d="M193.06,35.81c-.71-1.19-1.16-6.48-1.67-7.9-.33-.9-1.2-1.97-1.11-2.03-.93-.55-3.44-.81-3.44-.81,0,0,0,0,0,0-.1-.02-.2-.04-.29-.06-.3-.06-.59-.24-.62-.54,0-.02,0-.03,0-.05-.04-.38-.05-.76-.04-1.09,0,0,0,0,0-.01,0-.54,.05-.95,.05-.95h0s-3.26-.52-3.26-.52c-.04,1.02-.1,1.77-.17,2.34-.05,.43-.4,.77-.83,.79-.06,0-.13,0-.2,.01h0s-2.1-.08-2.9,.16c-.06,.02-.13,.05-.2,.08,.05,.05-7.73,7.85-7.53,8.75,.2,.9,3.61,6.03,4.85,6.97h1.24s-2.75-6.26-2.78-6.77c-.05-.74,6.9-4.9,6.9-5.66,0-.28,1.94-.36,3.21-.35,1.34,.01,3.87-.69,3.87-.69,0,0,1.09,8.28,2.47,10.74,1.09,1.94,5.9,6.9,5.9,6.9l1.02-.9s-2.73-5.56-4.46-8.43Z"/>
        <path class="cls-28" d="M183.2,67.69c.59,5.79-.12,13.36-.12,13.36h-1.99c-3.01-7.92-3.1-12.89-3.27-14.75-.09-1.02-1.47-5.08-2.7-8.99-1.03-3.26-1.96-6.42-1.97-7.6-.01-2.71,2.69-7.05,2.69-7.05,0,0,3.88,1.5,6.27,2.97,.8,.49,1.41,.98,1.62,1.39,.55,1.09,.97,8.86-.51,13.6-.89,2.86-.43,4.32-.43,4.32,.18,.83,.32,1.76,.42,2.75Z"/>
        <path class="cls-36" d="M181.08,81.06s-.11,1.3-.28,1.57c-.17,.27-.87,1.17-1.67,1.47-.8,.3-3.1,.15-3.28,.98h8.09s.11-1.25-.2-2.07c-.31-.82-.67-1.95-.67-1.95h-1.99Z"/>
        <path class="cls-36" d="M194.62,80.76s.91,1.24,1.13,1.73c.22,.49,1.69,2.57,1.52,2.58-.18,.02-4.1,0-4.1,0,0,0-.4-.98-.36-1.65,.04-.67-.54-1.94-.42-2.66,.11-.73,2.24,0,2.24,0Z"/>
        <path class="cls-12" d="M194.62,80.76h-2.24s-8.73-12.62-9.03-15.83c-.38-4.01-3.18-19.85-3.18-19.85l8.96-2.79s.78,2.01,1.44,4.04c.29,.88,.55,1.77,.71,2.5,.36,1.6-.65,7.66-1.34,11.96-.34,2.12-.6,3.82-.59,4.35,.05,1.61,3,1.81,5.27,15.62Z"/>
        <path class="cls-36" d="M182.62,22.72c0,.08,0,.16-.02,.24,0-.08,.01-.15,.02-.24Z"/>
        <path class="cls-36" d="M182.64,22.39c0,.09,0,.17-.01,.25,0-.08,0-.17,.01-.25Z"/>
        <path class="cls-36" d="M182.67,21.84c0,.06,0,.13,0,.19,0-.06,0-.12,0-.19h0Z"/>
        <path class="cls-4" d="M190.37,44.4c.29,.88-3.92,1.39-8.6,1.33-1.32-.02-2.55-.18-3.56-.44-2.14-.55-3.32-1.56-2.38-2.63,.27-.3,3.23-4.55,3.23-4.55,.17-.38-.01-1.62-.92-4.58-.37-1.21,.11-1.96,.29-2.44,0,0,0,0,0,0,.06-.17,.08-.3,.02-.41-.4-.7-.99-1.37-1.52-1.91-.68-.69-1.27-1.16-1.27-1.16,0,0,1.74-1.89,2.71-2.38,1,1.05,3.17,2.93,5.89,2.95,2.35,.02,4.63-1.31,6.02-2.31,.1,.06,.19,.13,.25,.19,.87,1.02,1.12,2.86,1.12,2.86,0,0-2.79,1.54-2.74,2.04,.14,1.38,.27,1.79,.21,2.28h0c-.02,.18-.07,.36-.14,.61-.48,1.5-1.51,3.81-1.25,4.59,.07,.2,2.24,4.7,2.66,5.96Z"/>
        <path class="cls-30" d="M178.57,25.15s.09-.03,.15-.04c-.05,.01-.1,.02-.15,.04h0Z"/>
        <path class="cls-30" d="M186.08,24.77c.07,.07,.15,.12,.25,.17-.1-.04-.18-.1-.25-.17Z"/>
        <path class="cls-30" d="M186.33,24.94s.07,.03,.11,.04c-.04-.01-.07-.02-.11-.04Z"/>
        <path class="cls-30" d="M197.52,44.24s1.71,.44,1.95,.68c.23,.24,.9,2.09,.67,2.11-1.23,.09-1.87-.57-1.87-.57-.74-.82-1.85-.95-1.79-1.54,.06-.6,1.05-.68,1.05-.68Z"/>
        <path class="cls-30" d="M175.69,40.96s-1.24,1.57-1.24,1.85,.25,1.47,.55,1.49c.3,.02,.4-.97,.64-1.15,.23-.18,1.07-.53,1.19-.85,.12-.32,.1-1.33,.1-1.33h-1.24Z"/>
        <path class="cls-27" d="M182.51,24.08c1.54-.2,3.41-1.71,3.41-1.71-1.09-.59-2.04-.65-2.78-.45-.18,.05-.34,.11-.49,.19l-.14,1.97Z"/>
        <g>
          <path class="cls-30" d="M181.96,22.59s3.8,1.27,4.56-1.11c.75-2.38,1.75-3.82-.64-4.73-2.4-.91-3.16-.15-3.6,.58s-1.28,4.87-.31,5.26Z"/>
          <path class="cls-2" d="M183.32,21.54s-.14,.28-.86,.05c0,0-.6-.19-.51-.5,0,0,.65-.08,1.36,.45Z"/>
        </g>
        <path class="cls-8" d="M192.16,17c-.43-.55,.97-1.68-1.87-3.03-2.16-1.03-2.82,.53-3.02,1.34-1.28-.73-3.37-2.84-4.71-1.47-1.6,1.64,.14,3.09,.14,3.09,.61,.44,.9,.32,1.79,.51,.89,.19,.32,1.22,.39,1.57,.07,.35,.67,1.04,1.49,.69,.82-.35,.72,1-.05,1.27-.22,.08-.45,1.32-.13,1.37,.27,.04,1.25,.05,1.35-.74,.06-.47,.66-.72,1.3-1.21,.44,.42,1.06,.63,1.4,.58,.5-.07,.51-.48,1.59-1.2s.77-2.24,.35-2.79Z"/>
        <path class="cls-19" d="M178.21,45.29c-2.14-.55-3.32-1.56-2.38-2.63,.27-.3,3.23-4.55,3.23-4.55,0,0,.79,4.79-.85,7.17Z"/>
        <g>
          <path class="cls-10" d="M123.24,73.25C65.57,82.59,13.7,64.29-5.03,53.97v36.03H182.05v-12.69c1.99-5.24-1.13-13.4-58.81-4.06Z"/>
          <path class="cls-38" d="M293.28,64.12c-19.49,6.9-84.46,10.66-111.31,11.67v14.21h161.03V41.28c-6.79,4.06-26.25,14.31-49.72,22.84Z"/>
          <path class="cls-39" d="M306.21,68.69c-27.35,8.63-87.01,9.13-117.34,8.63v12.69h154.13V51.43l-.1,.07c-3.6,2.45-15.37,10.46-36.69,17.19Z"/>
          <path class="cls-5" d="M88.39,78.33C47.5,79.55,12.37,70.71-.08,66.15v23.85H343v-28.42c-9.67,3.55-35,11.57-58.98,15.22-17.3,2.84-77.7,1.18-101.62,0,.16-1.35-.88-4.47-6.39-6.09-6.88-2.03-36.49,6.09-87.61,7.61Z"/>
        </g>
        <path class="cls-17" d="M199.41,35.51v-.08c0-.95,.69-1.76,1.62-1.91,.62-.1,1.25,.1,1.69,.54l.16,.16,.16-.16c.44-.44,1.07-.64,1.69-.54,.94,.16,1.62,.97,1.62,1.91v.08c0,.56-.23,1.1-.65,1.49l-2.45,2.29c-.1,.1-.24,.15-.38,.15s-.27-.05-.38-.15l-2.45-2.29c-.41-.38-.65-.92-.65-1.49Z"/>
        <path class="cls-17" d="M140.6,11.93v-.08c0-.95,.69-1.76,1.62-1.91,.62-.1,1.25,.1,1.69,.54l.16,.16,.16-.16c.44-.44,1.07-.64,1.69-.54,.94,.16,1.62,.97,1.62,1.91v.08c0,.56-.23,1.1-.65,1.49l-2.45,2.29c-.1,.1-.24,.15-.38,.15s-.27-.05-.38-.15l-2.45-2.29c-.41-.38-.65-.92-.65-1.49Z"/>
        <path class="cls-17" d="M140.56,41.09v-.05c0-.61,.44-1.14,1.05-1.24,.4-.07,.81,.06,1.1,.35l.11,.11,.11-.11c.29-.29,.69-.42,1.1-.35,.61,.1,1.05,.63,1.05,1.24v.05c0,.36-.15,.71-.42,.96l-1.59,1.48c-.07,.06-.15,.1-.24,.1s-.18-.03-.24-.1l-1.59-1.48c-.27-.25-.42-.6-.42-.96Z"/>
        <path class="cls-17" d="M194.22,10.16v-.05c0-.61,.44-1.14,1.05-1.24,.4-.07,.81,.06,1.1,.35l.11,.11,.11-.11c.29-.29,.69-.42,1.1-.35,.61,.1,1.05,.63,1.05,1.24v.05c0,.36-.15,.71-.42,.96l-1.59,1.48c-.07,.06-.15,.1-.24,.1s-.18-.03-.24-.1l-1.59-1.48c-.27-.25-.42-.6-.42-.96Z"/>
      </g>
    </g>
  </g>
</svg>