<svg width="34" height="31" viewBox="0 0 34 31" fill="none" xmlns="http://www.w3.org/2000/svg">
<path d="M24.638 7.87554V7.84754C24.624 7.12354 24.611 6.43954 24.611 5.78254C24.6108 5.30311 24.4202 4.84339 24.0812 4.50439C23.7422 4.16538 23.2825 3.97481 22.803 3.97454C21.113 4.05716 19.4239 3.79279 17.8399 3.19772C16.256 2.60266 14.8106 1.6895 13.593 0.514543C13.2566 0.184734 12.8042 0 12.333 0C11.8619 0 11.4095 0.184734 11.073 0.514543C9.85552 1.68965 8.41021 2.6029 6.82621 3.19798C5.2422 3.79305 3.55309 4.05734 1.86302 3.97454C1.38394 3.97507 0.924626 4.16562 0.585862 4.50439C0.247099 4.84315 0.0565492 5.30246 0.0560199 5.78154C0.0560199 6.45354 0.0430233 7.14454 0.0290233 7.87554C-0.0359767 11.2895 -0.116977 15.5385 1.30802 19.3945C2.05762 21.4624 3.26348 23.3347 4.83602 24.8725C6.81033 26.7171 9.16589 28.1051 11.736 28.9385C11.9264 29.0048 12.1265 29.0386 12.328 29.0385V29.0385C12.5292 29.0386 12.729 29.0048 12.919 28.9385C15.4891 28.1051 17.8447 26.717 19.819 24.8725C21.3965 23.3376 22.6078 21.4669 23.363 19.3995C24.789 15.5425 24.708 11.2935 24.643 7.87954L24.638 7.87554ZM21.763 18.8055C20.263 22.8725 17.187 25.6615 12.363 27.3315C12.3525 27.3355 12.3413 27.3375 12.33 27.3375C12.3181 27.3375 12.3063 27.3355 12.295 27.3315C7.47702 25.6615 4.40402 22.8725 2.90002 18.8055C1.58602 15.2495 1.66002 11.3495 1.72602 7.90554C1.74002 7.16654 1.75302 6.46754 1.75302 5.77954C1.75302 5.75143 1.76419 5.72447 1.78407 5.70459C1.80395 5.68471 1.83091 5.67354 1.85902 5.67354C3.77038 5.76326 5.67982 5.45999 7.46932 4.78248C9.25882 4.10497 10.8903 3.06761 12.263 1.73454C12.2828 1.71528 12.3094 1.70451 12.337 1.70454V1.70454C12.3646 1.70462 12.3912 1.71537 12.411 1.73454C13.783 3.0677 15.4137 4.10534 17.2025 4.78336C18.9913 5.46138 20.9001 5.76537 22.811 5.67654C22.8249 5.67654 22.8387 5.67928 22.8516 5.68461C22.8644 5.68994 22.8761 5.69775 22.886 5.70759C22.8958 5.71743 22.9036 5.72912 22.909 5.74198C22.9143 5.75484 22.917 5.76862 22.917 5.78254C22.917 6.45654 22.93 7.14854 22.944 7.88254V7.91054C22.959 8.67854 22.974 9.46954 22.974 10.2745C23.0767 13.1674 22.6667 16.0556 21.763 18.8055V18.8055Z" fill="#985801"/>
<path d="M23.295 8.18155C23.281 7.47455 23.269 6.80755 23.269 6.16255C23.2691 6.04223 23.2455 5.92305 23.1996 5.81186C23.1536 5.70066 23.0861 5.59963 23.001 5.51455C22.9159 5.42947 22.8149 5.362 22.7037 5.31601C22.5925 5.27002 22.4733 5.24642 22.353 5.24655C20.6302 5.32834 18.9089 5.05624 17.2952 4.44705C15.6816 3.83786 14.21 2.9045 12.971 1.70455C12.8002 1.5384 12.5713 1.44543 12.333 1.44543C12.0947 1.44543 11.8658 1.5384 11.695 1.70455C10.4558 2.90388 8.98399 3.83657 7.37038 4.44507C5.75676 5.05357 4.03558 5.32498 2.31301 5.24255C2.07007 5.24255 1.83709 5.33906 1.6653 5.51084C1.49352 5.68263 1.39701 5.91561 1.39701 6.15855C1.39701 6.80355 1.38501 7.47155 1.37101 8.17755C1.24601 14.7496 1.07101 23.7506 12.032 27.5496C12.1285 27.5829 12.2299 27.5998 12.332 27.5996V27.5996C12.4341 27.5999 12.5355 27.583 12.632 27.5496C23.592 23.7496 23.42 14.7496 23.294 8.17755L23.295 8.18155Z" fill="#FFC76F"/>
<path d="M17.053 9.32853C17.1105 9.25001 17.1841 9.18466 17.2688 9.13684C17.3535 9.08901 17.4475 9.05982 17.5444 9.05121C17.6414 9.04259 17.739 9.05476 17.8308 9.08689C17.9227 9.11902 18.0066 9.17038 18.077 9.23753C18.2253 9.38186 18.3156 9.57546 18.3308 9.78179C18.3461 9.98813 18.2854 10.1929 18.16 10.3575L11.984 18.3055C11.9256 18.385 11.8507 18.451 11.7644 18.4988C11.6781 18.5467 11.5825 18.5754 11.4842 18.5829C11.3858 18.5904 11.287 18.5765 11.1944 18.5423C11.1019 18.5081 11.0178 18.4542 10.948 18.3845L7.67803 15.2055C7.53284 15.058 7.44659 14.8626 7.43554 14.6559C7.42449 14.4492 7.48939 14.2457 7.61803 14.0835C7.6774 14.0064 7.75254 13.9429 7.83842 13.8971C7.92431 13.8514 8.01897 13.8245 8.11609 13.8182C8.2132 13.812 8.31053 13.8265 8.40157 13.8609C8.49261 13.8953 8.57527 13.9487 8.64403 14.0175L11.358 16.6565L17.053 9.32853Z" fill="url(#paint0_linear_143_3337)"/>
<path d="M32.69 19.7525C32.69 19.7315 32.69 19.7115 32.69 19.6905C32.7234 18.5345 32.2966 17.4125 31.5032 16.571C30.7099 15.7295 29.615 15.2373 28.459 15.2025V15.2025C27.5703 15.2329 26.7084 15.5147 25.9735 16.0153C25.2385 16.5159 24.6607 17.2147 24.307 18.0305C23.9533 17.2147 23.3755 16.5159 22.6405 16.0153C21.9056 15.5147 21.0437 15.2329 20.155 15.2025V15.2025C18.9996 15.2373 17.9051 15.7291 17.1119 16.5699C16.3187 17.4108 15.8914 18.532 15.924 19.6875C15.924 19.7115 15.924 19.7355 15.924 19.7595C15.9315 20.2501 16.0162 20.7364 16.175 21.2005C16.191 21.2475 16.204 21.3005 16.221 21.3415C17.073 24.1415 20.531 27.3915 22.657 28.9955C23.0275 29.2811 23.4138 29.5455 23.814 29.7875C23.911 29.8458 24.0111 29.8986 24.114 29.9455C24.1703 29.9811 24.2354 30 24.302 30C24.3685 30 24.4338 29.9811 24.49 29.9455C24.5929 29.8986 24.6931 29.8458 24.79 29.7875C25.1902 29.5454 25.5765 29.281 25.947 28.9955C28.073 27.3955 31.531 24.1455 32.383 21.3415C32.4 21.2955 32.413 21.2465 32.429 21.2005C32.592 20.7347 32.6801 20.246 32.69 19.7525V19.7525Z" fill="url(#paint1_linear_143_3337)" stroke="white" stroke-width="1.2"/>
<defs>
<linearGradient id="paint0_linear_143_3337" x1="12.8837" y1="9.04852" x2="12.8837" y2="18.5848" gradientUnits="userSpaceOnUse">
<stop stop-color="#D95E1D"/>
<stop offset="1" stop-color="#BB3301"/>
</linearGradient>
<linearGradient id="paint1_linear_143_3337" x1="24.307" y1="15.2025" x2="24.307" y2="30" gradientUnits="userSpaceOnUse">
<stop stop-color="#E1590A"/>
<stop offset="1" stop-color="#C23102"/>
</linearGradient>
</defs>
</svg>
