<svg width="30" height="30" viewBox="0 0 30 30" fill="none" xmlns="http://www.w3.org/2000/svg">
<g clip-path="url(#clip0_927_7746)">
<path d="M13.2001 0.699951C13.1001 0.699951 19.2001 4.69995 25.6001 5.59995C25.6001 9.89995 25.6001 14.6 25.6001 14.6C25.6001 19.4 22.9001 26.5 13.1001 29.2999C3.3001 26.5 0.600098 19.3 0.600098 14.6C0.600098 14.6 0.600098 9.89995 0.600098 5.59995C7.1001 4.69995 13.1001 0.699951 13.2001 0.699951H13.1001H13.2001Z" fill="white"/>
<path d="M25.6002 11.1C25.6002 9.49995 25.6002 7.49995 25.6002 5.59995C19.2002 4.69995 13.1002 0.699951 13.1002 0.699951H13.2002C13.2002 0.699951 7.2002 4.69995 0.700195 5.59995C0.700195 9.89995 0.700195 14.6 0.700195 14.6C0.700195 19.4 3.4002 26.5 13.2002 29.2999" fill="white"/>
<path d="M25.6002 11.1C25.6002 9.49995 25.6002 7.49995 25.6002 5.59995C19.2002 4.69995 13.1002 0.699951 13.1002 0.699951H13.2002C13.2002 0.699951 7.2002 4.69995 0.700195 5.59995C0.700195 9.89995 0.700195 14.6 0.700195 14.6C0.700195 19.4 3.4002 26.4999 13.2002 29.2999" stroke="#985801" stroke-width="1.2" stroke-miterlimit="10" stroke-linecap="round" stroke-linejoin="round"/>
<path d="M10.9 21.1C10.9 19.8 11.2 18.4 11.7 17.2C12.3 16 13 14.9 14 14H9.00005C8.60005 14 8.30005 14.1 8.00005 14.2C7.70005 14.3 7.40005 14.5 7.10005 14.8C6.80005 15.1 6.60005 15.4 6.50005 15.7C6.40005 16 6.30005 16.4 6.30005 16.7C6.30005 18.6 7.70005 20.6 10.9 21.1Z" fill="url(#paint0_linear_927_7746)"/>
<path d="M16.3001 9.0999C16.3001 10.0999 15.9001 10.9999 15.2001 11.6999C14.5001 12.3999 13.6001 12.7999 12.6001 12.7999C11.6001 12.7999 10.7001 12.3999 10.0001 11.6999C9.4001 10.9999 9.1001 10.0999 9.1001 9.0999C9.1001 8.0999 9.5001 7.1999 10.2001 6.4999C10.9001 5.7999 11.8001 5.3999 12.8001 5.3999C13.8001 5.3999 14.7001 5.7999 15.4001 6.4999C16.0001 7.1999 16.3001 8.0999 16.3001 9.0999Z" fill="url(#paint1_linear_927_7746)"/>
<path d="M29.4 21.2C29.4 23.4 28.5 25.5 27 27C25.5 28.5 23.4 29.4 21.2 29.4C19 29.4 16.9 28.5 15.4 27C13.9 25.5 13 23.4 13 21.2C13 19 13.9 16.9 15.4 15.4C16.9 13.9 19 13 21.2 13C23.4 13 25.5 13.9 27 15.4C28.5 17 29.4 19.1 29.4 21.2Z" fill="#FFC76F" stroke="#985801" stroke-width="1.2" stroke-miterlimit="10"/>
<path d="M25.9001 19.5C25.7001 19.1 25.5001 18.8 25.2001 18.5C24.9001 18.2 24.6001 18 24.2001 17.8C23.8001 17.6 23.4001 17.6 22.9001 17.6C22.3001 17.6 21.7001 17.8 21.2001 18.1C21.1001 18.2 21.0001 18.3 20.9001 18.3C20.8001 18.2 20.7001 18.1 20.6001 18.1C20.1001 17.8 19.5001 17.6 18.9001 17.6C18.5001 17.6 18.0001 17.7 17.6001 17.8C17.2001 18 16.9001 18.2 16.6001 18.5C16.3001 18.8 16.1001 19.1 15.9001 19.5C15.7001 19.9 15.6001 20.3 15.6001 20.7C15.6001 21.1 15.7001 21.5 15.8001 22C15.9001 22.4 16.1001 22.7 16.4001 23.1C16.8001 23.7 17.4001 24.3 18.0001 25C19.1001 26 20.3001 26.8 20.3001 26.8L20.6001 27C20.7001 27.1 20.9001 27.1 21.0001 27L21.3001 26.8C21.3001 26.8 22.5001 26 23.6001 25C24.3001 24.4 24.8001 23.7 25.2001 23.1C25.5001 22.7 25.7001 22.3 25.8001 22C26.0001 21.6 26.0001 21.1 26.0001 20.7C26.2001 20.3 26.1001 19.9 25.9001 19.5Z" fill="url(#paint2_linear_927_7746)"/>
</g>
<defs>
<linearGradient id="paint0_linear_927_7746" x1="6.33745" y1="17.5247" x2="14.0193" y2="17.5247" gradientUnits="userSpaceOnUse">
<stop stop-color="#E1590A"/>
<stop offset="1" stop-color="#C23102"/>
</linearGradient>
<linearGradient id="paint1_linear_927_7746" x1="9.0642" y1="9.0956" x2="16.3352" y2="9.0956" gradientUnits="userSpaceOnUse">
<stop stop-color="#E1590A"/>
<stop offset="1" stop-color="#C23102"/>
</linearGradient>
<linearGradient id="paint2_linear_927_7746" x1="15.5889" y1="22.2644" x2="26.1704" y2="22.2644" gradientUnits="userSpaceOnUse">
<stop stop-color="#E1590A"/>
<stop offset="1" stop-color="#C23102"/>
</linearGradient>
<clipPath id="clip0_927_7746">
<rect width="30" height="30" fill="white"/>
</clipPath>
</defs>
</svg>
