<svg width="30" height="31" viewBox="0 0 30 31" fill="none" xmlns="http://www.w3.org/2000/svg">
<path d="M28.1936 16.8961L28.1979 16.8961C28.2263 16.896 28.2554 16.902 28.2837 16.9147L28.7354 15.9117L28.2837 16.9147C28.3121 16.9275 28.3402 16.9474 28.3649 16.9751C28.3898 17.003 28.4105 17.0379 28.4239 17.0785C28.4366 17.1171 28.4421 17.1587 28.4394 17.2005C28.1674 19.8189 27.1838 22.3015 25.6058 24.3627C24.0253 26.4271 21.9142 27.9835 19.5194 28.8567C17.1249 29.7298 14.5412 29.8857 12.0655 29.3072C9.58968 28.7286 7.31871 27.438 5.51709 25.5798C3.71518 23.7213 2.45674 21.3709 1.89178 18.7988C1.32679 16.2266 1.47941 13.542 2.33128 11.0565C3.18309 8.57127 4.69794 6.39024 6.69602 4.76289C8.69376 3.13583 11.0935 2.12804 13.617 1.85167L13.6206 1.85127C13.6494 1.84802 13.6789 1.85098 13.7077 1.86059C13.7366 1.87022 13.7657 1.88686 13.7922 1.91153C13.8188 1.93629 13.8422 1.96864 13.8589 2.00765C13.8757 2.04674 13.8847 2.09037 13.8844 2.13537L13.8844 2.13537V2.14169V14.4277C13.8844 14.7472 13.9454 15.0643 14.0646 15.3613C14.1839 15.6583 14.3596 15.9303 14.5832 16.161C14.807 16.3918 15.0744 16.5767 15.3713 16.7035C15.6682 16.8304 15.9877 16.8961 16.3112 16.8961L28.1936 16.8961Z" fill="#FFC76F" stroke="#985801" stroke-width="2.2"/>
<path d="M20.8174 2.25H18.8783L18.3936 8.75V11.25L19.8478 11.75C20.6558 11.9167 22.3686 12.25 22.7564 12.25H27.6041C28.0888 12.25 28.5736 10.75 28.5736 10.25C28.5736 9.75 28.0888 8.75 28.0888 8.25C28.0888 7.75 26.6346 6.25 26.1498 5.75L24.2107 3.75L20.8174 2.25Z" fill="url(#paint0_linear_160_3444)"/>
<path d="M18.5998 13.2847H28.3244C28.6454 13.2847 28.9532 13.1532 29.1801 12.9191C29.4071 12.685 29.5345 12.3675 29.5345 12.0365C29.5345 9.04527 28.3825 6.17656 26.3318 4.06144C24.2812 1.94632 21.4998 0.758057 18.5998 0.758057C18.2788 0.758057 17.971 0.889558 17.7441 1.12363C17.5171 1.3577 17.3896 1.67518 17.3896 2.0062V12.0365C17.3896 12.3675 17.5171 12.685 17.7441 12.9191C17.971 13.1532 18.2788 13.2847 18.5998 13.2847ZM19.8099 3.35962C21.6272 3.62941 23.3111 4.49891 24.6094 5.83803C25.9077 7.17715 26.7507 8.91387 27.0123 10.7884H19.8099V3.35962Z" fill="url(#paint1_linear_160_3444)"/>
<defs>
<linearGradient id="paint0_linear_160_3444" x1="23.4836" y1="2.25" x2="23.4836" y2="12.25" gradientUnits="userSpaceOnUse">
<stop stop-color="#E1590A"/>
<stop offset="1" stop-color="#C23102"/>
</linearGradient>
<linearGradient id="paint1_linear_160_3444" x1="23.6046" y1="1.08044" x2="26.8386" y2="13.6753" gradientUnits="userSpaceOnUse">
<stop stop-color="#FFDC7B"/>
<stop offset="1" stop-color="#F4973B"/>
</linearGradient>
</defs>
</svg>
