<svg width="30" height="30" viewBox="0 0 30 30" fill="none" xmlns="http://www.w3.org/2000/svg">
<g clip-path="url(#clip0_928_7917)">
<path d="M15 0.599976C10.5 0.699976 10.5 7.19998 15 7.39998C19.5 7.29998 19.5 0.799976 15 0.599976ZM13 9.09998C10.9 9.09998 9.2 10.4 8.4 12.2L8.3 12.4L7.1 16.9C7 17.4 6.5 17.9 5.8 18.1C5.8 18.1 5.8 18.1 5.7 18.1L1 19.3L1.8 22.6L6.5 21.4H6.6V21.3C8.2 20.8 9.8 19.7 10.3 17.8V17.7H10.4L10.8 16.2V20.8L5.7 25.2C4 26.6 5.1 29.3 7.2 29.3H9.9V26.1C9.9 25.1 10.7 24.3 11.7 24.3H12.5C14.4 24.1 16.4 24.5 18.3 25.1L20 25.6L11.6 26V29.4H22.7C24.8 29.5 26 26.6 24.2 25.3L19.1 20.9V16.3L19.5 17.8H19.6V17.9C20.1 19.5 21.4 21.1 23.3 21.4V21.5L28 22.7L28.8 19.4L24 18.2L23.9 18.1H24C23.4 18 23.1 17.7 22.9 17V16.9L21.7 12.4L21.6 12.2C20.8 10.4 19.1 9.09998 17 9.09998H13Z" fill="#FFC76F" stroke="#985801" stroke-width="1.1487" stroke-miterlimit="10" stroke-linecap="round" stroke-linejoin="round"/>
<path d="M14.6999 16.3C14.3999 16.1 12.0999 14.6 12.0999 13.1C12.0999 12.2 12.8999 11.4 13.7999 11.4C14.1999 11.4 14.5999 11.5 14.8999 11.8C15.1999 11.5 15.5999 11.4 15.9999 11.4C16.8999 11.4 17.6999 12.2 17.6999 13.1C17.6999 14.6 15.3999 16.2 15.0999 16.3L14.9999 16.4L14.6999 16.3Z" fill="url(#paint0_linear_928_7917)"/>
<path d="M16.1 11.8C16.8 11.8 17.3 12.3 17.3 13C17.3 14.3 14.9 15.8 14.9 15.8C14.9 15.8 12.5 14.3 12.5 13C12.5 12.3 13.1 11.8 13.7 11.8C14.2 11.8 14.6 12.1 14.8 12.5C15.2 12.1 15.6 11.8 16.1 11.8ZM16.1 10.9C15.7 10.9 15.3 11 15 11.2C14.7 11 14.3 10.9 13.9 10.9C12.7 10.9 11.7 11.9 11.7 13.1C11.7 14.9 14 16.4 14.5 16.7L15 17L15.5 16.7C16 16.4 18.3 14.8 18.3 13.1C18.3 11.8 17.3 10.9 16.1 10.9Z" fill="white"/>
</g>
<defs>
<linearGradient id="paint0_linear_928_7917" x1="14.9997" y1="12.2355" x2="14.9997" y2="14.85" gradientUnits="userSpaceOnUse">
<stop stop-color="#E1590A"/>
<stop offset="1" stop-color="#C23102"/>
</linearGradient>
<clipPath id="clip0_928_7917">
<rect width="30" height="30" fill="white"/>
</clipPath>
</defs>
</svg>
