<svg width="33" height="32" viewBox="0 0 33 32" fill="none" xmlns="http://www.w3.org/2000/svg">
<path d="M30.5602 11.0408L30.5602 11.0408C29.5684 10.0475 28.2515 9.50094 26.8479 9.5H26.8479H26.8479H26.8478H26.8478H26.8478H26.8478H26.8478H26.8478H26.8478H26.8478H26.8478H26.8478H26.8478H26.8478H26.8477H26.8477H26.8477H26.8477H26.8477L30.5602 11.0408ZM30.5602 11.0408C31.5521 12.034 32.0969 13.3517 32.0961 14.7554C32.0952 16.1592 31.5486 17.4762 30.5555 18.4681L25.1346 23.8818M30.5602 11.0408L25.1346 23.8818M25.1346 23.8818L17.7071 16.4544L23.1327 11.0359C23.1327 11.0359 23.1327 11.0359 23.1327 11.0359C24.1253 10.0448 25.4415 9.5 26.8439 9.5H26.8439H26.8439H26.8439H26.8439H26.8439H26.8439H26.8439H26.8439H26.8439H26.8439H26.8439H26.844H26.844H26.844H26.844H26.844H26.844H26.844H26.844H26.844H26.844H26.844H26.844H26.8441H26.8441H26.8441H26.8441H26.8441H26.8441H26.8441H26.8441H26.8441H26.8441H26.8441H26.8441H26.8441H26.8442H26.8442H26.8442H26.8442H26.8442H26.8442H26.8442H26.8442H26.8442H26.8442H26.8442H26.8442H26.8443H26.8443H26.8443H26.8443H26.8443H26.8443H26.8443H26.8443H26.8443H26.8443H26.8443H26.8443H26.8443H26.8444H26.8444H26.8444H26.8444H26.8444H26.8444H26.8444H26.8444H26.8444H26.8444H26.8444H26.8444H26.8445H26.8445H26.8445H26.8445H26.8445H26.8445H26.8445H26.8445H26.8445H26.8445H26.8445H26.8445H26.8445H26.8446H26.8446H26.8446H26.8446H26.8446H26.8446H26.8446H26.8446H26.8446H26.8446H26.8446H26.8446H26.8447H26.8447H26.8447H26.8447H26.8447H26.8447H26.8447H26.8447H26.8447H26.8447H26.8447H26.8447H26.8447H26.8448H26.8448H26.8448H26.8448H26.8448H26.8448H26.8448H26.8448H26.8448H26.8448H26.8448H26.8448H26.8448H26.8449H26.8449H26.8449H26.8449H26.8449H26.8449H26.8449H26.8449H26.8449H26.8449H26.8449H26.8449H26.8449H26.845H26.845H26.845H26.845H26.845H26.845H26.845H26.845H26.845H26.845H26.845H26.845H26.845H26.8451H26.8451H26.8451H26.8451H26.8451H26.8451H26.8451H26.8451H26.8451H26.8451H26.8451H26.8451H26.8452H26.8452H26.8452H26.8452H26.8452H26.8452H26.8452H26.8452H26.8452H26.8452H26.8452H26.8452H26.8452H26.8453H26.8453H26.8453H26.8453H26.8453H26.8453H26.8453H26.8453H26.8453H26.8453H26.8453H26.8453H26.8453H26.8454H26.8454H26.8454H26.8454H26.8454H26.8454H26.8454H26.8454H26.8454H26.8454H26.8454H26.8454H26.8454H26.8455H26.8455H26.8455H26.8455H26.8455H26.8455H26.8455H26.8455H26.8455H26.8455H26.8455H26.8455H26.8455H26.8455H26.8456H26.8456H26.8456H26.8456H26.8456H26.8456H26.8456H26.8456H26.8456H26.8456H26.8456H26.8456H26.8456H26.8457H26.8457H26.8457H26.8457H26.8457H26.8457H26.8457H26.8457H26.8457H26.8457H26.8457H26.8457H26.8457H26.8458H26.8458H26.8458H26.8458H26.8458H26.8458H26.8458H26.8458H26.8458H26.8458H26.8458H26.8458H26.8458H26.8459H26.8459H26.8459H26.8459H26.8459H26.8459H26.8459H26.8459H26.8459H26.8459H26.8459H26.8459H26.8459H26.846H26.846H26.846H26.846H26.846H26.846H26.846H26.846H26.846H26.846H26.846H26.846H26.846H26.8461H26.8461H26.8461H26.8461H26.8461H26.8461H26.8461H26.8461H26.8461H26.8461H26.8461H26.8461H26.8461H26.8462H26.8462H26.8462H26.8462H26.8462H26.8462H26.8462H26.8462H26.8462H26.8462H26.8462H26.8462H26.8462H26.8463H26.8463H26.8463H26.8463H26.8463H26.8463H26.8463H26.8463H26.8463H26.8463H26.8463H26.8463H26.8463H26.8464H26.8464H26.8464H26.8464H26.8464H26.8464H26.8464H26.8464H26.8464H26.8464H26.8464H26.8464H26.8464H26.8465H26.8465H26.8465H26.8465H26.8465H26.8465H26.8465H26.8465H26.8465H26.8465H26.8465H26.8465H26.8465H26.8466H26.8466H26.8466H26.8466H26.8466H26.8466H26.8466H26.8466H26.8466H26.8466H26.8466H26.8466H26.8466H26.8467H26.8467H26.8467H26.8467H26.8467H26.8467H26.8467H26.8467H26.8467H26.8467H26.8467H26.8467H26.8467H26.8468H26.8468H26.8468H26.8468H26.8468H26.8468H26.8468H26.8468H26.8468H26.8468H26.8468H26.8468H26.8468H26.8469H26.8469H26.8469H26.8469H26.8469H26.8469H26.8469H26.8469H26.8469H26.8469H26.8469H26.8469H26.8469H26.847H26.847H26.847H26.847H26.847H26.847H26.847H26.847H26.847H26.847H26.847H26.847H26.847H26.8471H26.8471H26.8471H26.8471H26.8471H26.8471H26.8471H26.8471H26.8471H26.8471H26.8471H26.8471H26.8472H26.8472H26.8472H26.8472H26.8472H26.8472H26.8472H26.8472H26.8472H26.8472H26.8472H26.8472H26.8472H26.8473H26.8473H26.8473H26.8473H26.8473H26.8473H26.8473H26.8473H26.8473H26.8473H26.8473H26.8473H26.8474H26.8474H26.8474H26.8474H26.8474H26.8474H26.8474H26.8474H26.8474H26.8474H26.8474H26.8474H26.8474H26.8475H26.8475H26.8475H26.8475H26.8475H26.8475H26.8475H26.8475H26.8475H26.8475H26.8475H26.8475H26.8476H26.8476H26.8476H26.8476H26.8476H26.8476H26.8476H26.8476H26.8476H26.8476H26.8476H26.8476H26.8477H26.8477H26.8477H26.8477H26.8477H26.8477H26.8477H26.8477L25.1346 23.8818ZM17.3788 16.7809C17.3792 16.7804 17.3789 16.7807 17.3783 16.7814L17.3788 16.7809Z" fill="#FFC76F" stroke="#985801"/>
<path d="M12.5354 29.4207L12.5354 29.4207C11.5513 28.4041 11.0105 27.0547 11.015 25.6159C11.0196 24.1772 11.569 22.8312 12.5595 21.821L17.9543 16.3193L25.3214 23.9195L19.9036 29.4446C18.9141 30.4535 17.6068 31.0037 16.2181 31.0002L16.2144 31.0001C16.2144 31.0001 16.2143 31.0001 16.2143 31.0001C14.8243 30.9957 13.5191 30.437 12.5354 29.4207ZM25.6373 23.5987C25.6369 23.5991 25.6371 23.5989 25.6377 23.5982L25.6373 23.5987Z" fill="url(#paint0_linear_927_7540)" stroke="#985801"/>
<path d="M2.10232 9.09975C4.23527 6.96679 7.70667 6.96679 9.83963 9.09953C11.9723 11.2325 11.9723 14.7041 9.83961 16.8368C8.77333 17.9031 7.37326 18.4365 5.97096 18.4365C4.56866 18.4365 3.16859 17.9031 2.10232 16.8368C1.06841 15.8029 0.5 14.4306 0.5 12.9682C0.5 11.506 1.0684 10.1337 2.10232 9.09975Z" fill="#FFC76F" stroke="#985801"/>
<path d="M10.1932 8.74594C10.0851 8.63786 9.97279 8.53639 9.85855 8.43848L1.4397 16.8573C1.53809 16.9716 1.6412 17.0827 1.74882 17.1903C1.85714 17.2987 1.96925 17.3999 2.08348 17.498L10.5009 9.0806C10.4028 8.96661 10.3013 8.85426 10.1932 8.74594Z" fill="#985801"/>
<path d="M21.3172 1.77683C20.3075 1.29964 18.9671 1.02433 17.5428 1.00149C16.1191 0.97902 14.7701 1.21122 13.7456 1.65589C12.6323 2.13929 12.0124 2.82913 12.0002 3.59826C11.9879 4.36738 12.5855 5.07659 13.6828 5.59525C14.6925 6.07243 16.0329 6.34775 17.4572 6.3704C17.5209 6.3715 17.5845 6.37205 17.6479 6.37205C19.0014 6.37205 20.2757 6.14094 21.2542 5.716C22.3677 5.23279 22.9876 4.54295 22.9998 3.77382C23.0121 3.00469 22.4145 2.29549 21.3172 1.77683Z" fill="url(#paint1_linear_927_7540)" stroke="#985801"/>
<path d="M17.4504 1.37781L17.4071 6.02081C17.5197 6.0249 17.6329 6.02806 17.7468 6.02963C17.8131 6.03042 17.879 6.03089 17.9449 6.03089C18.009 6.03089 18.0725 6.02995 18.1363 6.02916L18.1795 1.38617C18.0656 1.38207 17.9511 1.37876 17.8358 1.37718C17.7067 1.3756 17.5782 1.37608 17.4504 1.37781Z" fill="white"/>
<defs>
<linearGradient id="paint0_linear_927_7540" x1="18.8613" y1="31.6107" x2="18.9019" y2="15.7093" gradientUnits="userSpaceOnUse">
<stop stop-color="#E1590A"/>
<stop offset="1" stop-color="#C23102"/>
</linearGradient>
<linearGradient id="paint1_linear_927_7540" x1="17.5" y1="1" x2="17.5" y2="6.37205" gradientUnits="userSpaceOnUse">
<stop stop-color="#E1590A"/>
<stop offset="1" stop-color="#C23102"/>
</linearGradient>
</defs>
</svg>
