<svg width="38" height="38" viewBox="0 0 38 38" fill="none" xmlns="http://www.w3.org/2000/svg">
<mask id="mask0_1473_51705" style="mask-type:alpha" maskUnits="userSpaceOnUse" x="0" y="0" width="38" height="38">
<rect width="38" height="38" fill="#C4C4C4"/>
</mask>
<g mask="url(#mask0_1473_51705)">
<path d="M36.0369 27.884C35.821 26.4546 35.1205 25.1429 34.0528 24.1684C32.9851 23.1939 31.615 22.6158 30.1719 22.531L30.1609 22.519L28.7609 20.731C28.4023 20.1663 28.1008 19.5674 27.8609 18.943L27.3609 17.155C27.2507 16.5642 27.1782 15.967 27.1439 15.367L26.9269 13.579C26.6201 12.3037 25.9703 11.1366 25.0479 10.204C24.8795 10.0376 24.6522 9.94425 24.4154 9.94425C24.1787 9.94425 23.9514 10.0376 23.7829 10.204L21.9949 11.992C21.2135 12.772 20.1545 13.21 19.0504 13.21C17.9464 13.21 16.8874 12.772 16.1059 11.992C15.3104 11.2105 14.8574 10.1455 14.8461 9.03038C14.8349 7.91532 15.2664 6.84131 16.0459 6.04398C16.1337 5.96199 16.204 5.86318 16.2527 5.75344C16.3015 5.64371 16.3277 5.52528 16.3297 5.40522C16.3317 5.28516 16.3096 5.16593 16.2645 5.05461C16.2195 4.94329 16.1526 4.84216 16.0677 4.75726C15.9828 4.67235 15.8816 4.6054 15.7703 4.56038C15.659 4.51537 15.5398 4.49322 15.4197 4.49524C15.2996 4.49727 15.1812 4.52344 15.0715 4.57218C14.9617 4.62093 14.8629 4.69125 14.7809 4.77898L7.77295 11.787L8.79295 14.713L19.6429 27.013C21.1669 28.706 25.1359 31.466 27.4139 31.466H34.0199L36.1069 29.678V28.784C36.1057 28.4827 36.0823 28.1819 36.0369 27.884Z" fill="#FFC76F" stroke="#985801"/>
<path d="M15.7529 12.0599C14.4819 10.8799 13.9219 7.79186 15.4849 6.16886C15.8199 5.88586 16.1849 5.28186 15.7529 4.96886C15.2979 4.67986 15.0229 5.07986 14.7839 5.29686L8.23193 11.8739L11.5959 16.4629L15.7529 12.0599Z" fill="url(#paint0_linear_1473_51705)"/>
<path d="M27.4087 29.6719C23.2087 28.4559 20.5667 27.4219 16.4377 22.9239C13.3342 19.385 10.4428 15.6655 7.77872 11.7849L5.84072 13.7189C5.67907 13.8807 5.58556 14.0982 5.57942 14.3268C5.57329 14.5554 5.65499 14.7777 5.80772 14.9479C5.80772 14.9479 7.50772 18.2479 13.5447 25.2609C19.5817 32.2739 23.0397 32.4059 25.5647 33.0759C28.0897 33.7459 36.1017 33.5699 36.1017 33.0759V29.6759C33.2459 30.3734 30.2639 30.372 27.4087 29.6719Z" fill="#F8E0CA" stroke="#985801"/>
<path d="M23.9917 18.92H27.4367C27.218 18.3397 27.0507 17.7414 26.9367 17.132H23.9917C23.7546 17.132 23.5272 17.2261 23.3595 17.3938C23.1918 17.5615 23.0977 17.7889 23.0977 18.026C23.0977 18.2631 23.1918 18.4905 23.3595 18.6581C23.5272 18.8258 23.7546 18.92 23.9917 18.92ZM23.9917 22.497H29.7367C29.2125 21.9483 28.7436 21.3494 28.3367 20.709H23.9917C23.7546 20.709 23.5272 20.8032 23.3595 20.9708C23.1918 21.1385 23.0977 21.3658 23.0977 21.603C23.0977 21.8401 23.1918 22.0674 23.3595 22.2351C23.5272 22.4028 23.7546 22.497 23.9917 22.497ZM23.9917 15.343H26.7197C26.711 15.2023 26.7037 15.063 26.6977 14.925C26.6775 14.4627 26.6122 14.0035 26.5027 13.554H23.9917C23.7546 13.554 23.5272 13.6481 23.3595 13.8158C23.1918 13.9835 23.0977 14.2108 23.0977 14.448C23.0977 14.6851 23.1918 14.9125 23.3595 15.0801C23.5272 15.2478 23.7546 15.3419 23.9917 15.3419V15.343Z" fill="url(#paint1_linear_1473_51705)"/>
<path d="M0.565918 26.53H7.75192" stroke="#985801" stroke-width="1.2" stroke-linecap="round"/>
<path d="M2.61914 29.6101H9.80514" stroke="#985801" stroke-width="1.2" stroke-linecap="round"/>
<path d="M6.72607 32.6899H13.9121" stroke="#985801" stroke-width="1.2" stroke-linecap="round"/>
</g>
<defs>
<linearGradient id="paint0_linear_1473_51705" x1="12.091" y1="4.86768" x2="12.091" y2="16.4629" gradientUnits="userSpaceOnUse">
<stop stop-color="#E1590A"/>
<stop offset="1" stop-color="#C23102"/>
</linearGradient>
<linearGradient id="paint1_linear_1473_51705" x1="26.4172" y1="13.554" x2="26.4172" y2="22.497" gradientUnits="userSpaceOnUse">
<stop stop-color="#D95E1D"/>
<stop offset="1" stop-color="#BB3301"/>
</linearGradient>
</defs>
</svg>
