<svg width="16" height="16" viewBox="0 0 16 16" fill="none" xmlns="http://www.w3.org/2000/svg">
<mask id="mask0_32097_16600" style="mask-type:alpha" maskUnits="userSpaceOnUse" x="0" y="0" width="16" height="16">
<rect y="16" width="16" height="16" transform="rotate(-90 0 16)" fill="#C4C4C4"/>
</mask>
<g mask="url(#mask0_32097_16600)">
<path d="M5.68851 1.99137C5.86349 1.98897 6.03414 2.04342 6.17288 2.14591L13.706 7.82881C13.7964 7.89707 13.8697 7.98397 13.9206 8.08311C13.9714 8.18226 13.9986 8.29113 14 8.40173C14.0013 8.51234 13.977 8.62186 13.9286 8.72225C13.8802 8.82264 13.8091 8.91135 13.7205 8.98186L6.36364 14.8211C6.28555 14.8829 6.19558 14.9293 6.09888 14.9577C6.00217 14.9861 5.90062 14.9959 5.80002 14.9866C5.59684 14.9676 5.40987 14.8718 5.28024 14.7202C5.15061 14.5686 5.08894 14.3736 5.10879 14.1781C5.12865 13.9826 5.2284 13.8026 5.3861 13.6777L12.0041 8.42597L5.22267 3.31347C5.09735 3.21909 5.00562 3.08955 4.96015 2.94277C4.91469 2.79598 4.91774 2.63919 4.96888 2.49405C5.02001 2.34891 5.11672 2.22259 5.24563 2.13255C5.37454 2.0425 5.5293 1.99317 5.68851 1.99137Z" fill="white" stroke="white" stroke-width="0.2"/>
</g>
</svg>
