<svg width="64" height="32" viewBox="0 0 64 32" fill="none" xmlns="http://www.w3.org/2000/svg">
<path d="M58.7792 2.69231C58.7792 2.64005 58.3814 2.59418 58.295 2.57604L58.2725 2.56538C57.3403 2.20804 31.9958 0 31.9958 0C31.9958 0 6.66207 2.20697 5.72659 2.56004L5.70099 2.57071C5.61352 2.58778 5.21138 2.63471 5.21352 2.68698C3.71607 3.0956 2.39452 3.98523 1.45244 5.21883C0.510352 6.45244 0 7.96157 0 9.51376C0 11.066 0.510352 12.5751 1.45244 13.8087C2.39452 15.0423 3.71607 15.9319 5.21352 16.3405C5.21352 16.3928 5.61352 16.4387 5.70099 16.4547C5.70929 16.4582 5.71785 16.461 5.72659 16.4632C6.66101 16.8238 31.9958 19.0233 31.9958 19.0233C31.9958 19.0233 57.3403 16.8248 58.2768 16.4632C58.2847 16.4616 58.2923 16.4587 58.2992 16.4547C58.3856 16.4397 58.7856 16.3928 58.7835 16.3405C60.2816 15.9326 61.6039 15.0433 62.5466 13.8096C63.4893 12.5759 64 11.0664 64 9.51376C64 7.96113 63.4893 6.45161 62.5466 5.21792C61.6039 3.98424 60.2816 3.09488 58.7835 2.68698" fill="white"/>
<path d="M9.76279 9.54877C9.76279 11.2448 7.88756 11.2555 7.88756 11.2555H6.86781V7.8378H7.9633C8.19729 7.81551 8.43334 7.8436 8.65557 7.92017C8.8778 7.99675 9.08105 8.12003 9.25165 8.28173C9.42224 8.44343 9.55622 8.6398 9.64457 8.85762C9.73293 9.07543 9.7736 9.30964 9.76386 9.54449L9.76279 9.54877ZM8.31317 7.02925H5.67526L5.66992 12.0939H8.2033C8.2033 12.0939 11.094 12.0939 11.094 9.5093C11.0882 9.15928 11.0099 8.81427 10.8641 8.49601C10.7182 8.17775 10.5081 7.89316 10.2468 7.66016C9.98556 7.42716 9.67886 7.2508 9.34606 7.14222C9.01326 7.03364 8.66157 6.99517 8.31317 7.02925ZM13.4503 9.9093L13.9943 8.17381C14.0202 8.08244 14.0752 8.00202 14.151 7.94475C14.2267 7.88748 14.3191 7.8565 14.4141 7.8565C14.509 7.8565 14.6014 7.88748 14.6772 7.94475C14.7529 8.00202 14.8079 8.08244 14.8338 8.17381L15.3672 9.9093H13.4503ZM16.0498 12.0981H17.3405L15.9538 7.8538C15.861 7.61505 15.6991 7.40944 15.4887 7.2633C15.2783 7.11716 15.0291 7.03715 14.773 7.03352C14.5339 7.00497 14.2922 7.00497 14.053 7.03352C13.7969 7.03715 13.5477 7.11716 13.3373 7.2633C13.1269 7.40944 12.965 7.61505 12.8722 7.8538L11.4855 12.0992H12.7655L13.1986 10.7211H15.6242L16.0509 12.0992L16.0498 12.0981ZM23.0718 9.7141H20.4766V8.90342H23.0718V9.7141ZM19.5315 12.0971H18.3005V7.01325H19.5315V12.0971ZM25.2916 12.0971H24.0617V7.01325H25.2927L25.2916 12.0971ZM38.6539 12.0971H37.4251V7.01325H38.6561L38.6539 12.0971ZM47.7762 12.0971H46.5474V7.03246H47.7773L47.7762 12.0971ZM35.2352 7.01325V8.90342H32.8629V7.01325H31.6341V12.0981H32.8629V9.7141H35.2342V12.0981H36.464V7.01325H35.2352ZM45.7229 11.2331H43.2524C43.1627 11.2336 43.0737 11.2165 42.9906 11.1826C42.9075 11.1488 42.8319 11.0989 42.7681 11.0358C42.7043 10.9726 42.6535 10.8976 42.6188 10.8148C42.584 10.7321 42.5659 10.6433 42.5655 10.5536V7.03352H41.3367V10.4938C41.3195 10.6962 41.3443 10.8999 41.4094 11.0923C41.4746 11.2846 41.5788 11.4614 41.7155 11.6116C41.8522 11.7618 42.0184 11.8822 42.2038 11.9651C42.3891 12.0481 42.5896 12.092 42.7927 12.0939H45.7239L45.7229 11.2331ZM50.7139 7.87407H53.1854V7.01325H50.2552C50.0521 7.01517 49.8517 7.05899 49.6663 7.14198C49.4809 7.22496 49.3147 7.34532 49.178 7.49553C49.0414 7.64573 48.9372 7.82253 48.872 8.01487C48.8068 8.2072 48.782 8.41092 48.7992 8.61328V12.0928H50.0291V10.0725H53.0158V9.26182H50.0291V8.55248C50.0294 8.46288 50.0473 8.37421 50.0819 8.29155C50.1165 8.20889 50.167 8.13386 50.2306 8.07076C50.2942 8.00765 50.3696 7.9577 50.4526 7.92376C50.5355 7.88983 50.6243 7.87365 50.7139 7.87407ZM55.8553 11.2331C55.7657 11.2335 55.6769 11.2162 55.594 11.1823C55.5111 11.1484 55.4356 11.0984 55.372 11.0353C55.3084 10.9722 55.2579 10.8972 55.2233 10.8145C55.1887 10.7319 55.1708 10.6432 55.1705 10.5536V9.89437H58.1316V9.08475H55.1694V8.55141C55.1691 8.46251 55.1867 8.37447 55.2213 8.29258C55.2559 8.21069 55.3068 8.13665 55.3708 8.07495C55.4348 8.01325 55.5106 7.96515 55.5937 7.93355C55.6768 7.90196 55.7654 7.88753 55.8542 7.89113H58.3258V7.03032H55.3966C55.1943 7.02892 54.9938 7.06986 54.8082 7.15048C54.6226 7.23111 54.4559 7.34966 54.3188 7.49851C54.1817 7.64737 54.0772 7.82324 54.0121 8.01485C53.947 8.20646 53.9226 8.40957 53.9406 8.61115V10.4906C53.9234 10.693 53.9482 10.8967 54.0134 11.0891C54.0786 11.2814 54.1828 11.4582 54.3195 11.6084C54.4561 11.7586 54.6224 11.879 54.8077 11.962C54.9931 12.0449 55.1936 12.0888 55.3966 12.0907H58.3364L58.3172 11.2299L55.8553 11.2331ZM30.769 7.02712H28.9983C28.6403 6.98486 28.2775 7.01891 27.9336 7.12701C27.5897 7.2351 27.2726 7.41481 27.0032 7.65429C26.7338 7.89377 26.5182 8.1876 26.3705 8.51643C26.2228 8.84526 26.1465 9.20163 26.1465 9.5621C26.1465 9.92256 26.2228 10.2789 26.3705 10.6078C26.5182 10.9366 26.7338 11.2304 27.0032 11.4699C27.2726 11.7094 27.5897 11.8891 27.9336 11.9972C28.2775 12.1053 28.6403 12.1393 28.9983 12.0971H30.7754V11.2437H29.1679C28.7295 11.2327 28.3128 11.0508 28.0067 10.7368C27.7005 10.4228 27.5292 10.0017 27.5292 9.56316C27.5292 9.12464 27.7005 8.70348 28.0067 8.38951C28.3128 8.07555 28.7295 7.89365 29.1679 7.8826H30.768V7.02925L30.769 7.02712Z" fill="#DE181F"/>
<path d="M8.89311 26.0199H9.79368C9.59766 24.8864 8.62891 24.1023 7.37322 24.1023C5.86754 24.1023 4.76811 25.2358 4.76811 27.0938C4.76811 28.9347 5.83629 30.0795 7.413 30.0795C8.82493 30.0795 9.83345 29.1534 9.83345 27.6847V27.0227H7.54652V27.7472H8.98402C8.96413 28.6847 8.34482 29.2784 7.413 29.2784C6.38743 29.2784 5.64027 28.5028 5.64027 27.0881C5.64027 25.679 6.39311 24.9034 7.37891 24.9034C8.15163 24.9034 8.67436 25.3295 8.89311 26.0199ZM12.1495 30.0966C12.8711 30.0966 13.2773 29.7301 13.4393 29.4034H13.4734V30H14.3029V27.1023C14.3029 25.8324 13.3029 25.5795 12.6097 25.5795C11.82 25.5795 11.0927 25.8977 10.8086 26.6932L11.6069 26.875C11.7319 26.5653 12.0501 26.267 12.6211 26.267C13.1694 26.267 13.4506 26.554 13.4506 27.0483V27.0682C13.4506 27.3778 13.1325 27.3722 12.3484 27.4631C11.5217 27.5597 10.6751 27.7756 10.6751 28.767C10.6751 29.625 11.32 30.0966 12.1495 30.0966ZM12.3342 29.4148C11.854 29.4148 11.5075 29.1989 11.5075 28.7784C11.5075 28.3239 11.9109 28.1619 12.4023 28.0966C12.6779 28.0597 13.3313 27.9858 13.4535 27.8636V28.4261C13.4535 28.9432 13.0415 29.4148 12.3342 29.4148ZM13.2148 24.2898C13.2148 24.5227 13.0501 24.733 12.6325 24.733C12.2063 24.733 12.0501 24.5227 12.0501 24.2898H11.3683C11.3683 24.7926 11.8512 25.1477 12.6325 25.1477C13.4137 25.1477 13.8995 24.7926 13.8995 24.2898H13.2148ZM12.3711 24.2301H12.8626L13.5217 23.4744H12.82L12.3711 24.2301ZM16.2837 27.4091C16.2837 26.7131 16.7099 26.3153 17.3008 26.3153C17.8775 26.3153 18.2269 26.6932 18.2269 27.3267V30H19.0763V27.2244C19.0763 26.1449 18.4826 25.5795 17.5906 25.5795C16.9343 25.5795 16.5053 25.8835 16.3036 26.3466H16.2496V25.6364H15.4343V30H16.2837V27.4091ZM22.4009 30H23.2305V29.321H23.3015C23.4549 29.5994 23.7674 30.0852 24.5629 30.0852C25.6197 30.0852 26.3867 29.2386 26.3867 27.8267C26.3867 26.4119 25.6083 25.5795 24.5543 25.5795C23.7447 25.5795 23.4521 26.0739 23.3015 26.3438H23.2504V24.1818H22.4009V30ZM23.2333 27.8182C23.2333 26.9062 23.631 26.3011 24.3725 26.3011C25.1424 26.3011 25.5288 26.9517 25.5288 27.8182C25.5288 28.6932 25.131 29.3608 24.3725 29.3608C23.6424 29.3608 23.2333 28.7358 23.2333 27.8182ZM29.1786 30.0881C30.4087 30.0881 31.2127 29.1875 31.2127 27.8381C31.2127 26.4801 30.4087 25.5795 29.1786 25.5795C27.9485 25.5795 27.1445 26.4801 27.1445 27.8381C27.1445 29.1875 27.9485 30.0881 29.1786 30.0881ZM29.1815 29.375C28.3775 29.375 28.0025 28.6733 28.0025 27.8352C28.0025 27 28.3775 26.2898 29.1815 26.2898C29.9798 26.2898 30.3548 27 30.3548 27.8352C30.3548 28.6733 29.9798 29.375 29.1815 29.375ZM28.8292 25.054H29.5082L30.3888 23.7443H29.494L28.8292 25.054ZM35.9116 30.0852C36.707 30.0852 37.0195 29.5994 37.1729 29.321H37.244V30H38.0735V24.1818H37.2241V26.3438H37.1729C37.0195 26.0739 36.7298 25.5795 35.9173 25.5795C34.8633 25.5795 34.0877 26.4119 34.0877 27.8267C34.0877 29.2386 34.8519 30.0852 35.9116 30.0852ZM36.0991 29.3608C35.3406 29.3608 34.9457 28.6932 34.9457 27.8182C34.9457 26.9517 35.332 26.3011 36.0991 26.3011C36.8406 26.3011 37.2383 26.9062 37.2383 27.8182C37.2383 28.7358 36.832 29.3608 36.0991 29.3608ZM40.5558 30.0966C41.2773 30.0966 41.6836 29.7301 41.8455 29.4034H41.8796V30H42.7092V27.1023C42.7092 25.8324 41.7092 25.5795 41.016 25.5795C40.2262 25.5795 39.4989 25.8977 39.2148 26.6932L40.0131 26.875C40.1381 26.5653 40.4563 26.267 41.0273 26.267C41.5756 26.267 41.8569 26.554 41.8569 27.0483V27.0682C41.8569 27.3778 41.5387 27.3722 40.7546 27.4631C39.9279 27.5597 39.0813 27.7756 39.0813 28.767C39.0813 29.625 39.7262 30.0966 40.5558 30.0966ZM40.7404 29.4148C40.2603 29.4148 39.9137 29.1989 39.9137 28.7784C39.9137 28.3239 40.3171 28.1619 40.8086 28.0966C41.0842 28.0597 41.7376 27.9858 41.8597 27.8636V28.4261C41.8597 28.9432 41.4478 29.4148 40.7404 29.4148ZM40.729 25.054H41.408L40.7461 23.7443H39.8512L40.729 25.054ZM43.8406 30H44.69V25.6364H43.8406V30ZM44.2695 24.9631C44.5621 24.9631 44.8065 24.7358 44.8065 24.4574C44.8065 24.179 44.5621 23.9489 44.2695 23.9489C43.9741 23.9489 43.7326 24.179 43.7326 24.4574C43.7326 24.7358 43.9741 24.9631 44.2695 24.9631ZM48.7994 24.1818H47.9499V30H48.7994V24.1818ZM51.212 30.0966C51.9336 30.0966 52.3398 29.7301 52.5018 29.4034H52.5359V30H53.3654V27.1023C53.3654 25.8324 52.3654 25.5795 51.6722 25.5795C50.8825 25.5795 50.1552 25.8977 49.8711 26.6932L50.6694 26.875C50.7944 26.5653 51.1126 26.267 51.6836 26.267C52.2319 26.267 52.5131 26.554 52.5131 27.0483V27.0682C52.5131 27.3778 52.195 27.3722 51.4109 27.4631C50.5842 27.5597 49.7376 27.7756 49.7376 28.767C49.7376 29.625 50.3825 30.0966 51.212 30.0966ZM51.3967 29.4148C50.9165 29.4148 50.57 29.1989 50.57 28.7784C50.57 28.3239 50.9734 28.1619 51.4648 28.0966C51.7404 28.0597 52.3938 27.9858 52.516 27.8636V28.4261C52.516 28.9432 52.104 29.4148 51.3967 29.4148ZM51.1325 25.1136L51.7177 24.3523L52.3001 25.1136H53.07V25.071L52.07 23.8665H51.3626L50.3654 25.071V25.1136H51.1325ZM57.261 28.1903C57.2638 28.9318 56.7127 29.2841 56.2354 29.2841C55.7099 29.2841 55.3462 28.9034 55.3462 28.3097V25.6364H54.4968V28.4119C54.4968 29.4943 55.0906 30.0568 55.9286 30.0568C56.5849 30.0568 57.0309 29.7102 57.2326 29.2443H57.2781V30H58.1133V25.6364H57.261V28.1903Z" fill="white"/>
</svg>
