<svg width="279" height="28" viewBox="0 0 279 28" fill="none" xmlns="http://www.w3.org/2000/svg">
<g clip-path="url(#clip0_14306_33879)">
<path d="M7.5 27.6918C11.6421 27.6918 15 24.3496 15 20.2268C15 16.104 11.6421 12.7618 7.5 12.7618C3.35786 12.7618 0 16.104 0 20.2268C0 24.3496 3.35786 27.6918 7.5 27.6918Z" fill="url(#paint0_radial_14306_33879)"/>
<path d="M7.63356 0.00152908C9.54056 -0.0392798 10.7726 0.741065 11.1996 1.82598C11.4887 2.4716 11.6278 3.17382 11.6066 3.88036C11.6066 3.88036 11.7386 3.72011 10.9146 3.38269C10.0906 3.04527 9.51856 5.95166 9.55356 9.10887C9.58856 12.2661 9.99256 16.0354 9.99256 16.0354C9.99256 17.839 9.08456 19.3071 7.19256 19.3071C5.30056 19.3071 4.33256 17.4677 4.07356 16.0354C3.81456 14.6031 3.75356 10.3132 3.75356 10.3132C3.75356 10.3132 3.61256 4.61691 4.28356 2.78051C4.95456 0.944114 6.28056 -0.019373 7.63356 0.00152908Z" fill="url(#paint1_linear_14306_33879)"/>
<path d="M6.48675 5.67803C6.49177 5.38398 6.25635 5.14155 5.96092 5.13655C5.66549 5.13155 5.42192 5.36588 5.4169 5.65993L5.32595 10.9852C5.32093 11.2793 5.55635 11.5217 5.85178 11.5267C6.14721 11.5317 6.39077 11.2974 6.39579 11.0033L6.48675 5.67803Z" fill="white"/>
<path d="M271.5 27.6918C275.642 27.6918 279 24.3496 279 20.2268C279 16.104 275.642 12.7618 271.5 12.7618C267.358 12.7618 264 16.104 264 20.2268C264 24.3496 267.358 27.6918 271.5 27.6918Z" fill="url(#paint2_radial_14306_33879)"/>
<path d="M271.634 0.00152908C273.541 -0.0392798 274.773 0.741065 275.2 1.82598C275.489 2.4716 275.628 3.17382 275.607 3.88036C275.607 3.88036 275.739 3.72011 274.915 3.38269C274.091 3.04527 273.519 5.95166 273.554 9.10887C273.589 12.2661 273.993 16.0354 273.993 16.0354C273.993 17.839 273.085 19.3071 271.193 19.3071C269.301 19.3071 268.333 17.4677 268.074 16.0354C267.815 14.6031 267.754 10.3132 267.754 10.3132C267.754 10.3132 267.613 4.61691 268.284 2.78051C268.955 0.944114 270.281 -0.019373 271.634 0.00152908Z" fill="url(#paint3_linear_14306_33879)"/>
<path d="M270.487 5.67803C270.492 5.38398 270.256 5.14155 269.961 5.13655C269.665 5.13155 269.422 5.36588 269.417 5.65993L269.326 10.9852C269.321 11.2793 269.556 11.5217 269.852 11.5267C270.147 11.5317 270.391 11.2974 270.396 11.0033L270.487 5.67803Z" fill="white"/>
</g>
<defs>
<radialGradient id="paint0_radial_14306_33879" cx="0" cy="0" r="1" gradientUnits="userSpaceOnUse" gradientTransform="translate(6.84228 19.5755) rotate(6.22899) scale(9.73406 9.22105)">
<stop stop-color="#50080B"/>
<stop offset="0.388" stop-color="#7F1A1E"/>
<stop offset="1" stop-color="#C9363B"/>
</radialGradient>
<linearGradient id="paint1_linear_14306_33879" x1="4.48916" y1="-2.23962" x2="18.3533" y2="5.66106" gradientUnits="userSpaceOnUse">
<stop stop-color="#FAE340"/>
<stop offset="1" stop-color="#E57333"/>
</linearGradient>
<radialGradient id="paint2_radial_14306_33879" cx="0" cy="0" r="1" gradientUnits="userSpaceOnUse" gradientTransform="translate(270.842 19.5755) rotate(6.22899) scale(9.73406 9.22105)">
<stop stop-color="#50080B"/>
<stop offset="0.388" stop-color="#7F1A1E"/>
<stop offset="1" stop-color="#C9363B"/>
</radialGradient>
<linearGradient id="paint3_linear_14306_33879" x1="268.489" y1="-2.23962" x2="282.353" y2="5.66106" gradientUnits="userSpaceOnUse">
<stop stop-color="#FAE340"/>
<stop offset="1" stop-color="#E57333"/>
</linearGradient>
<clipPath id="clip0_14306_33879">
<rect width="279" height="27.8869" fill="white"/>
</clipPath>
</defs>
</svg>
