<svg width="144" height="35" viewBox="0 0 144 35" fill="none" xmlns="http://www.w3.org/2000/svg">
<path fill-rule="evenodd" clip-rule="evenodd" d="M10.9619 0H133.038C136.641 0 139.694 2.0258 140.204 4.75257L143.926 24.6814C144.491 27.7077 141.742 30.5146 137.784 30.9446C137.445 30.9812 137.103 31 136.761 31H7.2389C3.24116 31 0 28.5214 0 25.4634C2.92916e-05 25.1997 0.0243238 24.9369 0.072389 24.6804L3.79614 4.75257C4.30909 2.0258 7.35954 0 10.9619 0Z" fill="white"/>
<path fill-rule="evenodd" clip-rule="evenodd" d="M10.7587 1H133.157C136.768 1 139.83 3.09887 140.341 5.9234L143.805 24.1636C144.797 29.153 141.883 32.6068 137.915 33.0554C137.575 33.094 137.233 33.1133 136.889 33.1133L72.2066 35L7.02692 33.1112C3.01816 33.1112 -0.718257 29.8421 0.1183 23.8155C0.1183 23.5445 3.57456 5.92239 3.57456 5.92239C4.08492 3.09785 7.14554 1 10.7587 1Z" fill="url(#paint0_linear)"/>
<path d="M121.5 27C126.747 27 131 22.7467 131 17.5C131 12.2533 126.747 8 121.5 8C116.253 8 112 12.2533 112 17.5C112 22.7467 116.253 27 121.5 27Z" fill="white"/>
<rect x="120.716" y="12" width="1.57192" height="11.0034" rx="0.785958" fill="#D32A30"/>
<rect x="116" y="18.2878" width="1.57192" height="11.0034" rx="0.785958" transform="rotate(-90 116 18.2878)" fill="#D32A30"/>
<path d="M20.8543 13.2C20.9009 13.2 20.9383 13.2187 20.9663 13.256C21.0036 13.284 21.0223 13.3213 21.0223 13.368V14.74C21.0223 14.7867 21.0036 14.8287 20.9663 14.866C20.9383 14.894 20.9009 14.908 20.8543 14.908H18.3483C18.3016 14.908 18.2783 14.9313 18.2783 14.978V22.832C18.2783 22.8787 18.2596 22.9207 18.2223 22.958C18.1943 22.986 18.1569 23 18.1103 23H16.4723C16.4256 23 16.3836 22.986 16.3463 22.958C16.3183 22.9207 16.3043 22.8787 16.3043 22.832V14.978C16.3043 14.9313 16.2809 14.908 16.2343 14.908H13.7983C13.7516 14.908 13.7096 14.894 13.6723 14.866C13.6443 14.8287 13.6303 14.7867 13.6303 14.74V13.368C13.6303 13.3213 13.6443 13.284 13.6723 13.256C13.7096 13.2187 13.7516 13.2 13.7983 13.2H20.8543ZM28.3094 23C28.2161 23 28.1554 22.9533 28.1274 22.86L27.7074 21.488C27.6887 21.4507 27.6654 21.432 27.6374 21.432H24.1934C24.1654 21.432 24.1421 21.4507 24.1234 21.488L23.7174 22.86C23.6894 22.9533 23.6287 23 23.5354 23H21.7574C21.7014 23 21.6594 22.986 21.6314 22.958C21.6034 22.9207 21.5987 22.8693 21.6174 22.804L24.6414 13.34C24.6694 13.2467 24.7301 13.2 24.8234 13.2H27.0214C27.1147 13.2 27.1754 13.2467 27.2034 13.34L30.2274 22.804C30.2367 22.8227 30.2414 22.846 30.2414 22.874C30.2414 22.958 30.1901 23 30.0874 23H28.3094ZM24.6274 19.822C24.6181 19.878 24.6367 19.906 24.6834 19.906H27.1474C27.2034 19.906 27.2221 19.878 27.2034 19.822L25.9434 15.664C25.9341 15.6267 25.9201 15.6127 25.9014 15.622C25.8827 15.622 25.8687 15.636 25.8594 15.664L24.6274 19.822ZM25.9294 26.024C25.6214 26.024 25.3694 25.9213 25.1734 25.716C24.9774 25.52 24.8794 25.2727 24.8794 24.974C24.8794 24.6567 24.9774 24.4 25.1734 24.204C25.3694 24.0173 25.6214 23.924 25.9294 23.924C26.2374 23.924 26.4894 24.0173 26.6854 24.204C26.8814 24.4 26.9794 24.6567 26.9794 24.974C26.9794 25.2727 26.8767 25.52 26.6714 25.716C26.4754 25.9213 26.2281 26.024 25.9294 26.024ZM35.3572 23.154C34.6292 23.154 33.9852 23.0047 33.4252 22.706C32.8745 22.4073 32.4452 21.992 32.1372 21.46C31.8292 20.9187 31.6752 20.298 31.6752 19.598V16.602C31.6752 15.9113 31.8292 15.3 32.1372 14.768C32.4452 14.236 32.8745 13.8253 33.4252 13.536C33.9852 13.2373 34.6292 13.088 35.3572 13.088C36.0945 13.088 36.7385 13.2373 37.2892 13.536C37.8492 13.8253 38.2832 14.236 38.5912 14.768C38.8992 15.3 39.0532 15.9113 39.0532 16.602V19.598C39.0532 20.298 38.8992 20.9187 38.5912 21.46C38.2832 22.0013 37.8492 22.4213 37.2892 22.72C36.7385 23.0093 36.0945 23.154 35.3572 23.154ZM35.3572 21.46C35.8705 21.46 36.2859 21.2967 36.6032 20.97C36.9205 20.6433 37.0792 20.2093 37.0792 19.668V16.588C37.0792 16.0467 36.9205 15.6127 36.6032 15.286C36.2952 14.95 35.8799 14.782 35.3572 14.782C34.8439 14.782 34.4285 14.95 34.1112 15.286C33.8032 15.6127 33.6492 16.0467 33.6492 16.588V19.668C33.6492 20.2093 33.8032 20.6433 34.1112 20.97C34.4285 21.2967 34.8439 21.46 35.3572 21.46ZM47.4152 22.986C47.3686 22.986 47.3266 22.972 47.2892 22.944C47.2612 22.9067 47.2472 22.8647 47.2472 22.818V19.276C47.2472 19.2387 47.2426 19.2107 47.2332 19.192L44.3492 13.396C44.3306 13.3587 44.3212 13.3307 44.3212 13.312C44.3212 13.2373 44.3726 13.2 44.4752 13.2H46.2392C46.3326 13.2 46.3979 13.242 46.4352 13.326L48.1852 17.05C48.2132 17.106 48.2412 17.106 48.2692 17.05L50.0192 13.326C50.0566 13.242 50.1219 13.2 50.2152 13.2H52.0072C52.0726 13.2 52.1146 13.2187 52.1332 13.256C52.1612 13.284 52.1612 13.3307 52.1332 13.396L49.2212 19.192C49.2119 19.2107 49.2072 19.2387 49.2072 19.276V22.818C49.2072 22.8647 49.1886 22.9067 49.1512 22.944C49.1232 22.972 49.0859 22.986 49.0392 22.986H47.4152ZM60.8318 14.726C60.8318 14.7727 60.8132 14.8147 60.7758 14.852C60.7478 14.88 60.7105 14.894 60.6638 14.894H56.0718C56.0252 14.894 56.0018 14.9173 56.0018 14.964V17.134C56.0018 17.1807 56.0252 17.204 56.0718 17.204H59.0818C59.1285 17.204 59.1658 17.2227 59.1938 17.26C59.2312 17.288 59.2498 17.3253 59.2498 17.372V18.73C59.2498 18.7767 59.2312 18.8187 59.1938 18.856C59.1658 18.884 59.1285 18.898 59.0818 18.898H56.0718C56.0252 18.898 56.0018 18.9213 56.0018 18.968V21.236C56.0018 21.2827 56.0252 21.306 56.0718 21.306H60.6638C60.7105 21.306 60.7478 21.3247 60.7758 21.362C60.8132 21.39 60.8318 21.4273 60.8318 21.474V22.832C60.8318 22.8787 60.8132 22.9207 60.7758 22.958C60.7478 22.986 60.7105 23 60.6638 23H54.1958C54.1492 23 54.1072 22.986 54.0698 22.958C54.0418 22.9207 54.0278 22.8787 54.0278 22.832V13.368C54.0278 13.3213 54.0418 13.284 54.0698 13.256C54.1072 13.2187 54.1492 13.2 54.1958 13.2H60.6638C60.7105 13.2 60.7478 13.2187 60.7758 13.256C60.8132 13.284 60.8318 13.3213 60.8318 13.368V14.726ZM55.3298 12.388C55.2645 12.388 55.2178 12.3693 55.1898 12.332C55.1712 12.2853 55.1805 12.234 55.2178 12.178L56.2398 10.708C56.2865 10.6333 56.3518 10.596 56.4358 10.596H58.2978C58.3818 10.596 58.4472 10.6333 58.4938 10.708L59.5578 12.178C59.5858 12.2153 59.5998 12.248 59.5998 12.276C59.5998 12.3507 59.5485 12.388 59.4458 12.388H58.1858C58.1018 12.388 58.0365 12.3507 57.9898 12.276L57.4298 11.422C57.4018 11.366 57.3738 11.366 57.3458 11.422L56.7858 12.276C56.7392 12.3507 56.6738 12.388 56.5898 12.388H55.3298ZM66.4596 23.112C65.7409 23.112 65.1063 22.972 64.5556 22.692C64.0143 22.412 63.5896 22.02 63.2816 21.516C62.9829 21.0027 62.8336 20.4147 62.8336 19.752V13.368C62.8336 13.3213 62.8476 13.284 62.8756 13.256C62.9129 13.2187 62.9549 13.2 63.0016 13.2H64.6396C64.6863 13.2 64.7236 13.2187 64.7516 13.256C64.7889 13.284 64.8076 13.3213 64.8076 13.368V19.766C64.8076 20.2607 64.9569 20.662 65.2556 20.97C65.5636 21.2687 65.9649 21.418 66.4596 21.418C66.9543 21.418 67.3509 21.2687 67.6496 20.97C67.9576 20.662 68.1116 20.2607 68.1116 19.766V13.368C68.1116 13.3213 68.1256 13.284 68.1536 13.256C68.1909 13.2187 68.2329 13.2 68.2796 13.2H69.9176C69.9643 13.2 70.0016 13.2187 70.0296 13.256C70.0669 13.284 70.0856 13.3213 70.0856 13.368V19.752C70.0856 20.4147 69.9316 21.0027 69.6236 21.516C69.3249 22.02 68.9003 22.412 68.3496 22.692C67.8083 22.972 67.1783 23.112 66.4596 23.112ZM79.355 23.112C78.627 23.112 77.9877 22.972 77.437 22.692C76.8864 22.4027 76.4617 22.0013 76.163 21.488C75.8644 20.9747 75.715 20.382 75.715 19.71V16.476C75.715 15.804 75.8644 15.2113 76.163 14.698C76.4617 14.1847 76.8864 13.788 77.437 13.508C77.9877 13.228 78.627 13.088 79.355 13.088C80.0737 13.088 80.7037 13.2233 81.245 13.494C81.7957 13.7553 82.2204 14.1333 82.519 14.628C82.827 15.1133 82.981 15.678 82.981 16.322C82.981 16.406 82.925 16.4573 82.813 16.476L81.175 16.574H81.147C81.0537 16.574 81.007 16.5227 81.007 16.42C81.007 15.9253 80.853 15.5287 80.545 15.23C80.2464 14.9313 79.8497 14.782 79.355 14.782C78.851 14.782 78.445 14.9313 78.137 15.23C77.8384 15.5287 77.689 15.9253 77.689 16.42V19.794C77.689 20.2793 77.8384 20.6713 78.137 20.97C78.445 21.2687 78.851 21.418 79.355 21.418C79.8497 21.418 80.2464 21.2687 80.545 20.97C80.853 20.6713 81.007 20.2793 81.007 19.794C81.007 19.6913 81.063 19.64 81.175 19.64L82.813 19.71C82.8597 19.71 82.897 19.724 82.925 19.752C82.9624 19.78 82.981 19.8127 82.981 19.85C82.981 20.494 82.827 21.0633 82.519 21.558C82.2204 22.0527 81.7957 22.4353 81.245 22.706C80.7037 22.9767 80.0737 23.112 79.355 23.112ZM91.1399 23C91.0465 23 90.9859 22.9533 90.9579 22.86L90.5379 21.488C90.5192 21.4507 90.4959 21.432 90.4679 21.432H87.0239C86.9959 21.432 86.9725 21.4507 86.9539 21.488L86.5479 22.86C86.5199 22.9533 86.4592 23 86.3659 23H84.5879C84.5319 23 84.4899 22.986 84.4619 22.958C84.4339 22.9207 84.4292 22.8693 84.4479 22.804L87.4719 13.34C87.4999 13.2467 87.5605 13.2 87.6539 13.2H89.8519C89.9452 13.2 90.0059 13.2467 90.0339 13.34L93.0579 22.804C93.0672 22.8227 93.0719 22.846 93.0719 22.874C93.0719 22.958 93.0205 23 92.9179 23H91.1399ZM87.4579 19.822C87.4485 19.878 87.4672 19.906 87.5139 19.906H89.9779C90.0339 19.906 90.0525 19.878 90.0339 19.822L88.7739 15.664C88.7645 15.6267 88.7505 15.6127 88.7319 15.622C88.7132 15.622 88.6992 15.636 88.6899 15.664L87.4579 19.822ZM86.6739 12.388C86.6085 12.388 86.5619 12.3693 86.5339 12.332C86.5152 12.2853 86.5245 12.234 86.5619 12.178L87.5839 10.708C87.6305 10.6333 87.6959 10.596 87.7799 10.596H89.6419C89.7259 10.596 89.7912 10.6333 89.8379 10.708L90.9019 12.178C90.9299 12.2153 90.9439 12.248 90.9439 12.276C90.9439 12.3507 90.8925 12.388 90.7899 12.388H89.5299C89.4459 12.388 89.3805 12.3507 89.3339 12.276L88.7739 11.422C88.7459 11.366 88.7179 11.366 88.6899 11.422L88.1299 12.276C88.0832 12.3507 88.0179 12.388 87.9339 12.388H86.6739ZM92.0359 10.484C92.0545 10.5213 92.0639 10.5493 92.0639 10.568C92.0639 10.6427 92.0172 10.68 91.9239 10.68H90.7479C90.6639 10.68 90.5985 10.6427 90.5519 10.568L89.5579 9.154C89.5392 9.126 89.5299 9.09333 89.5299 9.056C89.5299 8.98133 89.5765 8.944 89.6699 8.944H91.0839C91.1772 8.944 91.2472 8.986 91.2939 9.07L92.0359 10.484ZM98.367 23.112C97.6484 23.112 97.0137 22.972 96.463 22.692C95.9217 22.412 95.497 22.02 95.189 21.516C94.8904 21.0027 94.741 20.4147 94.741 19.752V13.368C94.741 13.3213 94.755 13.284 94.783 13.256C94.8204 13.2187 94.8624 13.2 94.909 13.2H96.547C96.5937 13.2 96.631 13.2187 96.659 13.256C96.6964 13.284 96.715 13.3213 96.715 13.368V19.766C96.715 20.2607 96.8644 20.662 97.163 20.97C97.471 21.2687 97.8724 21.418 98.367 21.418C98.8617 21.418 99.2584 21.2687 99.557 20.97C99.865 20.662 100.019 20.2607 100.019 19.766V13.368C100.019 13.3213 100.033 13.284 100.061 13.256C100.098 13.2187 100.14 13.2 100.187 13.2H101.825C101.872 13.2 101.909 13.2187 101.937 13.256C101.974 13.284 101.993 13.3213 101.993 13.368V19.752C101.993 20.4147 101.839 21.0027 101.531 21.516C101.232 22.02 100.808 22.412 100.257 22.692C99.7157 22.972 99.0857 23.112 98.367 23.112Z" fill="white"/>
<defs>
<linearGradient id="paint0_linear" x1="-26.352" y1="-5.256" x2="-9.89847" y2="64.9415" gradientUnits="userSpaceOnUse">
<stop stop-color="#EA553F"/>
<stop offset="1" stop-color="#D32A30"/>
</linearGradient>
</defs>
</svg>
