<svg width="44" height="44" viewBox="0 0 44 44" fill="none" xmlns="http://www.w3.org/2000/svg">
<g opacity="0.5">
<mask id="mask0" style="mask-type:alpha" maskUnits="userSpaceOnUse" x="0" y="0" width="44" height="44">
<rect y="44" width="44" height="44" transform="rotate(-90 0 44)" fill="#C4C4C4"/>
</mask>
<g mask="url(#mask0)">
<path d="M15.6468 5.47626C16.128 5.46967 16.5973 5.6194 16.9788 5.90124L37.6949 21.5292C37.9434 21.7169 38.1451 21.9559 38.285 22.2286C38.4249 22.5012 38.4995 22.8006 38.5033 23.1048C38.5071 23.4089 38.44 23.7101 38.307 23.9862C38.174 24.2623 37.9784 24.5062 37.7347 24.7001L17.5034 40.7579C17.2887 40.928 17.0413 41.0557 16.7753 41.1338C16.5094 41.2118 16.2301 41.2388 15.9535 41.213C15.3947 41.161 14.8806 40.8976 14.5241 40.4806C14.1676 40.0636 13.998 39.5273 14.0526 38.9897C14.1072 38.452 14.3815 37.957 14.8152 37.6136L33.0147 23.1714L14.3658 9.11205C14.0211 8.85249 13.7689 8.49627 13.6438 8.09261C13.5188 7.68895 13.5272 7.25776 13.6678 6.85864C13.8085 6.45951 14.0744 6.11213 14.4289 5.8645C14.7834 5.61687 15.209 5.48121 15.6468 5.47626Z" fill="#727272" stroke="#727272" stroke-width="0.2"/>
</g>
</g>
</svg>
