<svg width="45" height="45" viewBox="0 0 45 45" fill="none" xmlns="http://www.w3.org/2000/svg">
<circle cx="22.5713" cy="22.5024" r="22" fill="#F4E6DE"/>
<path d="M26.6845 14.1832L22.3256 13.6301C21.9951 13.5882 21.7257 13.3436 21.5485 12.8868C21.3712 12.43 21.3155 11.82 21.3931 11.2089C21.4712 10.5933 21.6695 10.0263 21.9792 9.64241C22.2756 9.27495 22.675 9.06875 23.2277 9.13888C24.2703 9.27115 25.1999 10.0482 25.8946 10.8569C26.2358 11.2541 26.5071 11.6435 26.6932 11.9339C26.786 12.0788 26.8572 12.1984 26.9047 12.2809C26.9109 12.2916 26.9166 12.3017 26.922 12.3111L26.6845 14.1832Z" fill="#FFC76F" stroke="#985801" stroke-width="0.704"/>
<path d="M30.5215 14.6704L34.8803 15.2235C35.2109 15.2654 35.5328 15.0958 35.8185 14.6978C36.1043 14.2998 36.3105 13.723 36.388 13.1119C36.4661 12.4963 36.4157 11.8977 36.2117 11.4486C36.0164 11.0188 35.6812 10.7194 35.1285 10.6492C34.086 10.517 32.9917 11.0372 32.1171 11.6468C31.6875 11.9462 31.3275 12.2555 31.0748 12.4903C30.9487 12.6074 30.85 12.7054 30.7833 12.7734C30.7747 12.7823 30.7666 12.7906 30.7591 12.7984L30.5215 14.6704Z" fill="#FFC76F" stroke="#985801" stroke-width="0.704"/>
<path d="M37.2228 17.2923L19.5405 15.0487C19.3552 15.0252 19.1634 14.8169 19.2025 14.5094L19.4324 12.6975C19.4714 12.39 19.7091 12.2362 19.8944 12.2597L37.5767 14.5032C37.762 14.5268 37.9537 14.735 37.9147 15.0426L37.6848 16.8544C37.6458 17.162 37.4081 17.3158 37.2228 17.2923Z" fill="#FFC76F" stroke="#985801" stroke-width="0.704"/>
<path d="M34.7899 29.3858L18.8761 27.3667C18.6181 27.3339 18.487 27.1301 18.5077 26.9674L20.0107 15.1215L36.7494 17.2454L35.2463 29.0913C35.2257 29.254 35.0479 29.4186 34.7899 29.3858Z" fill="#FFC76F" stroke="#985801" stroke-width="0.704"/>
<path d="M27.0757 12.5001L30.5631 12.9426L28.6431 28.075L25.1557 27.6325L27.0757 12.5001Z" fill="#CD4005" stroke="#985801" stroke-width="0.704"/>
<path d="M13.1732 33.0023C13.4188 33.4027 13.8986 33.594 14.3524 33.4724L19.248 32.1606C19.7018 32.039 20.0217 31.6335 20.0342 31.1639L20.1432 27.0727C20.1451 27.0017 20.1695 26.9276 20.2166 26.8599C20.7953 26.0283 21.1934 25.0946 21.4121 24.0627C21.6496 22.942 21.6147 21.811 21.3102 20.6744C21.0056 19.5378 20.4703 18.5409 19.7043 17.6891C18.9989 16.9048 18.1874 16.2952 17.2703 15.8644C17.1957 15.8293 17.1375 15.7774 17.1004 15.7169L14.9604 12.2283C14.7147 11.8278 14.235 11.6365 13.7812 11.7581L8.88552 13.0699C8.43171 13.1915 8.11188 13.597 8.09937 14.0667L7.99039 18.1579C7.9885 18.2288 7.96409 18.3029 7.917 18.3706C7.33824 19.2023 6.94017 20.1359 6.72147 21.1679C6.48396 22.2885 6.51883 23.4195 6.82339 24.5561C7.12795 25.6927 7.66323 26.6896 8.42925 27.5414C9.13461 28.3257 9.9462 28.9353 10.8632 29.3661C10.9379 29.4012 10.9961 29.4532 11.0332 29.5137L13.1732 33.0023Z" fill="#FFC76F" stroke="#985801" stroke-width="0.707453"/>
<circle cx="14.0656" cy="22.6127" r="5.25811" transform="rotate(-15 14.0656 22.6127)" fill="#CD4005"/>
<path d="M11.8213 25.166L10.8447 21.5215L12.2114 21.1553L13.188 24.7998L11.8213 25.166ZM13.8713 24.6167L13.1389 21.8833L14.5056 21.5171L15.238 24.2505L13.8713 24.6167ZM15.9214 24.0674L15.4331 22.2451L16.7998 21.8789L17.288 23.7012L15.9214 24.0674Z" fill="#FFC76F"/>
<mask id="mask0_109_9512" style="mask-type:alpha" maskUnits="userSpaceOnUse" x="14" y="16" width="30" height="30">
<rect width="24.5068" height="24.5068" transform="matrix(-0.977887 -0.209135 -0.209135 0.977887 43.5007 21.2512)" fill="#C4C4C4"/>
</mask>
<g mask="url(#mask0_109_9512)">
<path d="M16.8861 32.8664C17.2151 31.9941 17.8337 31.2614 18.6385 30.7908C19.4433 30.3202 20.3853 30.1405 21.3069 30.2816L21.3154 30.2755L22.4395 29.3367C22.7418 29.029 23.0127 28.6919 23.2482 28.3305L23.8047 27.2703C23.9539 26.9126 24.0802 26.5457 24.1827 26.172L24.5607 25.0736C24.9262 24.3107 25.4934 23.6623 26.2009 23.1986C26.3296 23.1164 26.4855 23.0882 26.6349 23.1201C26.7842 23.152 26.9149 23.2415 26.9987 23.3692L27.8852 24.738C28.2728 25.3353 28.8815 25.7544 29.5778 25.9033C30.2741 26.0522 31.0011 25.9188 31.5991 25.5322C32.2062 25.1467 32.6356 24.5361 32.7931 23.8344C32.9506 23.1327 32.8233 22.3972 32.4392 21.7892C32.3949 21.7257 32.3639 21.6539 32.3479 21.5781C32.332 21.5023 32.3315 21.4241 32.3464 21.3481C32.3613 21.2721 32.3914 21.1999 32.4348 21.1358C32.4782 21.0716 32.534 21.0169 32.599 20.9748C32.664 20.9327 32.7368 20.9041 32.8131 20.8907C32.8894 20.8774 32.9676 20.8795 33.043 20.8969C33.1184 20.9144 33.1896 20.9469 33.2522 20.9924C33.3149 21.038 33.3677 21.0957 33.4076 21.162L36.882 26.5269L35.8441 28.2346L27.3425 34.5283C26.1531 35.3904 23.2777 36.5957 21.8411 36.2885L17.675 35.3975L16.6 33.9884L16.7205 33.4246C16.762 33.2347 16.8173 33.0482 16.8861 32.8664Z" fill="#FFC76F" stroke="#985801" stroke-width="0.704"/>
<path d="M31.8122 25.6221C32.7729 25.0494 33.5426 23.1774 32.7758 21.9431C32.6027 21.7194 32.4539 21.2893 32.7686 21.1501C33.0945 21.0292 33.214 21.3186 33.3355 21.4877L36.5804 26.5192L33.84 28.9596L31.8122 25.6221Z" fill="url(#paint0_linear_109_9512)"/>
<path d="M24.9404 29.3138L23.0338 28.9061C23.2235 28.6108 23.3869 28.2995 23.5221 27.9757L25.152 28.3243C25.2832 28.3523 25.398 28.4314 25.4709 28.544C25.5438 28.6566 25.5691 28.7936 25.541 28.9249C25.5129 29.0561 25.4339 29.1708 25.3212 29.2437C25.2086 29.3167 25.0716 29.3419 24.9404 29.3138ZM24.517 31.2935L21.3374 30.6135C21.6925 30.3719 22.0229 30.096 22.3239 29.7897L24.7286 30.304C24.8599 30.332 24.9746 30.4111 25.0475 30.5237C25.1205 30.6363 25.1457 30.7733 25.1176 30.9046C25.0895 31.0358 25.0105 31.1505 24.8979 31.2234C24.7852 31.2964 24.6482 31.3216 24.517 31.2935ZM25.3638 27.3341L23.854 27.0112C23.8754 26.9344 23.896 26.8582 23.9156 26.7825C23.9815 26.529 24.072 26.2826 24.1858 26.0468L25.5755 26.344C25.7068 26.3721 25.8215 26.4511 25.8944 26.5638C25.9673 26.6764 25.9926 26.8134 25.9645 26.9446C25.9364 27.0758 25.8574 27.1905 25.7448 27.2635C25.6321 27.3364 25.4951 27.3616 25.3639 27.3336L25.3638 27.3341Z" fill="#985801"/>
<path d="M16.8861 32.8664C17.2151 31.9941 17.8337 31.2614 18.6385 30.7908C19.4433 30.3202 20.3853 30.1405 21.3069 30.2816L21.3154 30.2755L22.4395 29.3367C22.7418 29.029 23.0127 28.6919 23.2482 28.3305L23.8047 27.2703C23.9539 26.9126 24.0802 26.5457 24.1827 26.172L24.5607 25.0736C24.9262 24.3107 25.4934 23.6623 26.2009 23.1986C26.3296 23.1164 26.4855 23.0882 26.6349 23.1201C26.7842 23.152 26.9149 23.2415 26.9987 23.3692L27.8852 24.738C28.2728 25.3353 28.8815 25.7544 29.5778 25.9033C30.2741 26.0522 31.0011 25.9188 31.5991 25.5322C32.2062 25.1467 32.6356 24.5361 32.7931 23.8344C32.9506 23.1327 32.8233 22.3972 32.4392 21.7892C32.3949 21.7257 32.3639 21.6539 32.3479 21.5781C32.332 21.5023 32.3315 21.4241 32.3464 21.3481C32.3613 21.2721 32.3914 21.1999 32.4348 21.1358C32.4782 21.0716 32.534 21.0169 32.599 20.9748C32.664 20.9327 32.7368 20.9041 32.8131 20.8907C32.8894 20.8774 32.9676 20.8795 33.043 20.8969C33.1184 20.9144 33.1896 20.9469 33.2522 20.9924C33.3149 21.038 33.3677 21.0957 33.4076 21.162L36.882 26.5269L35.8441 28.2346L27.3425 34.5283C26.1531 35.3904 23.2777 36.5957 21.8411 36.2885L17.675 35.3975L16.6 33.9884L16.7205 33.4246C16.762 33.2347 16.8173 33.0482 16.8861 32.8664Z" stroke="#985801" stroke-width="0.644916"/>
<path d="M22.0864 35.155C24.8992 34.9546 26.7048 34.6588 29.9155 32.379C32.35 30.5658 34.6752 28.61 36.8787 26.5221L37.84 28.0031C37.9202 28.1269 37.9498 28.2768 37.9228 28.4218C37.8959 28.5668 37.8144 28.6959 37.6951 28.7827C37.6951 28.7827 36.1779 30.6345 31.4247 34.2431C26.6716 37.8516 24.473 37.4685 22.7902 37.5504C21.1075 37.6324 16.0784 36.4408 16.145 36.1293L16.6036 33.985C18.3106 34.8101 20.1913 35.2114 22.0864 35.155Z" fill="#F8E0CA" stroke="#985801" stroke-width="0.704"/>
</g>
<defs>
<linearGradient id="paint0_linear_109_9512" x1="35.0917" y1="21.5802" x2="33.5278" y2="28.8928" gradientUnits="userSpaceOnUse">
<stop stop-color="#E1590A"/>
<stop offset="1" stop-color="#C23102"/>
</linearGradient>
</defs>
</svg>
