<svg width="20" height="20" viewBox="0 0 20 20" fill="none" xmlns="http://www.w3.org/2000/svg">
<mask id="mask0" style="mask-type:alpha" maskUnits="userSpaceOnUse" x="7" y="4" width="12" height="12">
<rect width="12" height="12" transform="matrix(0 1 1 0 7 4)" fill="#C4C4C4"/>
</mask>
<g mask="url(#mask0)">
<path d="M11.2654 14.5065C11.3966 14.5083 11.5246 14.4674 11.6287 14.3906L17.2785 10.1284C17.3463 10.0772 17.4013 10.012 17.4394 9.93767C17.4776 9.86331 17.4979 9.78165 17.499 9.6987C17.5 9.61575 17.4817 9.53361 17.4455 9.45831C17.4092 9.38302 17.3558 9.31649 17.2894 9.26361L11.7718 4.8842C11.7132 4.83783 11.6457 4.803 11.5732 4.7817C11.5007 4.7604 11.4245 4.75306 11.349 4.76008C11.1967 4.77427 11.0564 4.84612 10.9592 4.95984C10.862 5.07355 10.8157 5.21982 10.8306 5.36645C10.8455 5.51308 10.9203 5.64808 11.0386 5.74174L16.0021 9.68052L10.916 13.5149C10.822 13.5857 10.7532 13.6828 10.7191 13.7929C10.685 13.903 10.6873 14.0206 10.7257 14.1295C10.764 14.2383 10.8366 14.3331 10.9332 14.4006C11.0299 14.4681 11.146 14.5051 11.2654 14.5065Z" fill="#727272" stroke="#727272" stroke-width="0.2"/>
</g>
<mask id="mask1" style="mask-type:alpha" maskUnits="userSpaceOnUse" x="1" y="4" width="12" height="12">
<rect width="12" height="12" transform="matrix(0 1 1 0 1 4)" fill="#C4C4C4"/>
</mask>
<g mask="url(#mask1)">
<path d="M5.26541 14.5065C5.39664 14.5083 5.52463 14.4674 5.62868 14.3906L11.2785 10.1284C11.3463 10.0772 11.4013 10.012 11.4394 9.93767C11.4776 9.86331 11.4979 9.78165 11.499 9.6987C11.5 9.61575 11.4817 9.53361 11.4455 9.45831C11.4092 9.38302 11.3558 9.31649 11.2894 9.26361L5.77175 4.8842C5.71319 4.83783 5.64571 4.803 5.57318 4.7817C5.50065 4.7604 5.42449 4.75306 5.34904 4.76008C5.19665 4.77427 5.05643 4.84612 4.95921 4.95984C4.86198 5.07355 4.81573 5.21982 4.83062 5.36645C4.84551 5.51308 4.92032 5.64808 5.0386 5.74174L10.0021 9.68052L4.91603 13.5149C4.82203 13.5857 4.75324 13.6828 4.71914 13.7929C4.68504 13.903 4.68733 14.0206 4.72568 14.1295C4.76403 14.2383 4.83656 14.3331 4.93325 14.4006C5.02993 14.4681 5.146 14.5051 5.26541 14.5065Z" fill="#727272" stroke="#727272" stroke-width="0.2"/>
</g>
</svg>
