<svg width="32" height="32" viewBox="0 0 32 32" fill="none" xmlns="http://www.w3.org/2000/svg">
<mask id="mask0_3741_104722" style="mask-type:alpha" maskUnits="userSpaceOnUse" x="0" y="0" width="32" height="32">
<rect x="32" width="32" height="32" transform="rotate(90 32 0)" fill="#C4C4C4"/>
</mask>
<g mask="url(#mask0_3741_104722)">
<path d="M20.623 28.0173C20.273 28.0221 19.9317 27.9132 19.6542 27.7082L4.58803 16.3424C4.40726 16.2059 4.26061 16.0321 4.15887 15.8338C4.05713 15.6355 4.00287 15.4177 4.0001 15.1965C3.99732 14.9753 4.0461 14.7563 4.14283 14.5555C4.23956 14.3547 4.3818 14.1773 4.5591 14.0363L19.2727 2.35787C19.4289 2.23421 19.6088 2.14133 19.8022 2.08454C19.9957 2.02775 20.1988 2.00816 20.4 2.02688C20.8063 2.06471 21.1803 2.25632 21.4395 2.55956C21.6988 2.86281 21.8221 3.25284 21.7824 3.64387C21.7427 4.03489 21.5432 4.39488 21.2278 4.64463L7.99178 15.1481L21.5547 25.3731C21.8053 25.5618 21.9888 25.8209 22.0797 26.1145C22.1706 26.408 22.1645 26.7216 22.0622 27.0119C21.96 27.3022 21.7666 27.5548 21.5087 27.7349C21.2509 27.915 20.9414 28.0137 20.623 28.0173Z" fill="#C6C6C6" stroke="#C6C6C6" stroke-width="0.2"/>
</g>
</svg>
