<svg width="12" height="12" viewBox="0 0 12 12" fill="none" xmlns="http://www.w3.org/2000/svg">
<path fill-rule="evenodd" clip-rule="evenodd" d="M6 11.25C8.8995 11.25 11.25 8.8995 11.25 6C11.25 3.10051 8.8995 0.75 6 0.75C3.10051 0.75 0.75 3.10051 0.75 6C0.75 8.8995 3.10051 11.25 6 11.25ZM6 12C9.31371 12 12 9.31371 12 6C12 2.68629 9.31371 0 6 0C2.68629 0 0 2.68629 0 6C0 9.31371 2.68629 12 6 12Z" fill="#DE181F"/>
<circle cx="5.99951" cy="6" r="4.5" fill="#DE181F"/>
<path d="M7.10052 6.08613C7.10052 7.14615 5.92851 7.15281 5.92851 7.15281H5.29116V5.01677H5.97584C6.12209 5.00284 6.26962 5.0204 6.40851 5.06826C6.54741 5.11611 6.67444 5.19317 6.78106 5.29423C6.88768 5.39529 6.97142 5.51802 7.02664 5.65416C7.08186 5.79029 7.10728 5.93668 7.10119 6.08346L7.10052 6.08613ZM6.19451 4.51143H4.54581L4.54248 7.67682H6.12584C6.12584 7.67682 7.93254 7.67682 7.93254 6.06146C7.92888 5.8427 7.87995 5.62706 7.78881 5.42815C7.69768 5.22925 7.56633 5.05137 7.40304 4.90575C7.23975 4.76012 7.04807 4.6499 6.84007 4.58204C6.63207 4.51417 6.41226 4.49013 6.19451 4.51143Z" fill="white"/>
</svg>
