<svg width="32" height="49" viewBox="0 0 32 49" fill="none" xmlns="http://www.w3.org/2000/svg">
<path d="M30.6872 22.1075V30.2945H2.86647C2.11362 30.3017 1.38871 30.012 0.851166 29.4892C0.31362 28.9664 0.00745607 28.2532 4.93824e-06 27.5065V23.7245C-0.000944542 23.2284 0.135041 22.7415 0.393224 22.3165C0.649748 21.8941 1.01242 21.545 1.44576 21.3033C1.87911 21.0615 2.36829 20.9355 2.86546 20.9375H29.4834C29.6399 20.9359 29.7952 20.9649 29.9404 21.0229C30.0856 21.0808 30.2178 21.1666 30.3296 21.2752C30.4414 21.3839 30.5305 21.5133 30.5919 21.6561C30.6533 21.7989 30.6857 21.9523 30.6872 22.1075Z" fill="#E8E0DC"/>
<path d="M23.4007 15.6735C23.4007 17.7629 22.5638 19.7667 21.0742 21.2441C19.5846 22.7215 17.5643 23.5515 15.4576 23.5515C14.1522 23.5515 12.8668 23.2328 11.715 22.6235C10.5411 21.9998 9.54374 21.0937 8.81446 19.9885C8.08517 18.8833 7.64726 17.6142 7.54083 16.2975C7.52403 16.0922 7.51562 15.8842 7.51562 15.6735C7.51562 13.5844 8.35237 11.5809 9.84179 10.1036C11.3312 8.62641 13.3513 7.79651 15.4576 7.79651C15.67 7.79651 15.8798 7.80484 16.0868 7.82151C18.0784 7.97753 19.9374 8.8725 21.2931 10.3279C22.6487 11.7833 23.4013 13.6921 23.4007 15.6735Z" fill="url(#paint0_linear)"/>
<path d="M14.5974 13.2491C15.0168 13.2298 15.4339 13.3198 15.8073 13.5101C16.0705 13.6519 16.3031 13.8436 16.4919 14.0741V12.8241H15.7862C15.7496 12.8293 15.7123 12.826 15.6773 12.8144C15.6422 12.8028 15.6104 12.7833 15.5843 12.7574C15.5581 12.7315 15.5385 12.6999 15.5268 12.6651C15.5151 12.6304 15.5117 12.5934 15.517 12.5571V12.2421C15.5117 12.2059 15.5151 12.1689 15.5268 12.1341C15.5385 12.0994 15.5581 12.0678 15.5843 12.0419C15.6104 12.016 15.6422 11.9965 15.6773 11.9849C15.7123 11.9733 15.7496 11.97 15.7862 11.9751H16.4919V11.3931C16.4918 11.3498 16.5007 11.307 16.5181 11.2672C16.5354 11.2275 16.5608 11.1917 16.5928 11.1621C16.6226 11.1305 16.6586 11.1053 16.6987 11.0881C16.7388 11.0709 16.782 11.062 16.8257 11.0621H17.2784C17.322 11.062 17.3653 11.0709 17.4053 11.0881C17.4454 11.1053 17.4815 11.1305 17.5113 11.1621C17.5432 11.1917 17.5686 11.2275 17.586 11.2672C17.6033 11.307 17.6122 11.3498 17.6121 11.3931V11.9751H18.3179C18.3545 11.97 18.3917 11.9733 18.4268 11.9849C18.4618 11.9965 18.4937 12.016 18.5198 12.0419C18.5459 12.0678 18.5656 12.0994 18.5773 12.1341C18.5889 12.1689 18.5923 12.2059 18.5871 12.2421V12.5571C18.5923 12.5934 18.5889 12.6304 18.5773 12.6651C18.5656 12.6999 18.5459 12.7315 18.5198 12.7574C18.4937 12.7833 18.4618 12.8028 18.4268 12.8144C18.3917 12.826 18.3545 12.8293 18.3179 12.8241H17.6121V19.3511C17.6122 19.3944 17.6033 19.4373 17.586 19.4771C17.5686 19.5168 17.5432 19.5526 17.5113 19.5821C17.4815 19.6138 17.4454 19.639 17.4053 19.6562C17.3653 19.6734 17.322 19.6822 17.2784 19.6821H16.8237C16.78 19.6822 16.7368 19.6734 16.6967 19.6562C16.6566 19.639 16.6205 19.6138 16.5907 19.5821C16.5588 19.5526 16.5334 19.5168 16.5161 19.4771C16.4987 19.4373 16.4898 19.3944 16.4899 19.3511V18.9751C16.3016 19.2145 16.0637 19.4109 15.7922 19.5511C15.4217 19.7337 15.0108 19.821 14.5974 19.8051C14.2308 19.8084 13.867 19.7405 13.5267 19.6051C13.2018 19.4752 12.908 19.279 12.6646 19.0291C12.412 18.7659 12.2128 18.457 12.0778 18.1191C11.9251 17.7342 11.8389 17.3265 11.8227 16.9131C11.8133 16.7918 11.8086 16.6601 11.8086 16.5181C11.8086 16.3761 11.8133 16.2448 11.8227 16.1241C11.8402 15.7127 11.9271 15.3071 12.0798 14.9241C12.2143 14.589 12.4137 14.2833 12.6666 14.0241C12.9114 13.7774 13.2049 13.5834 13.5287 13.4541C13.868 13.3174 14.2311 13.2477 14.5974 13.2491ZM16.494 17.0491C16.502 16.9278 16.5061 16.7681 16.5061 16.5701C16.5061 16.3721 16.502 16.2125 16.494 16.0911C16.5021 15.5981 16.3153 15.1214 15.9737 14.7631C15.8068 14.606 15.6097 14.4838 15.3943 14.4035C15.1788 14.3233 14.9494 14.2868 14.7194 14.2961C14.4827 14.2842 14.2462 14.3237 14.0264 14.4118C13.8067 14.4999 13.6089 14.6344 13.447 14.8061C13.1189 15.1924 12.9367 15.68 12.9318 16.1851C12.9237 16.4118 12.9237 16.6381 12.9318 16.8641C12.9355 17.3705 13.1174 17.8596 13.446 18.2471C13.6079 18.4188 13.8057 18.5534 14.0254 18.6415C14.2452 18.7296 14.4817 18.769 14.7184 18.7571C14.9466 18.7653 15.1743 18.7288 15.3883 18.6497C15.6023 18.5706 15.7985 18.4505 15.9656 18.2961C16.1326 18.1328 16.2653 17.9382 16.356 17.7236C16.4467 17.509 16.4936 17.2788 16.494 17.0461V17.0491Z" fill="white"/>
<path d="M30.6871 28.2995V44.9825C30.6871 45.9095 30.6135 47.7825 27.9869 47.6605H3.40571C2.66036 47.6603 1.94562 47.3664 1.41867 46.8436C0.891722 46.3208 0.595703 45.6118 0.595703 44.8725V22.8325C0.595703 23.5718 0.891722 24.2808 1.41867 24.8036C1.94562 25.3264 2.66036 25.6203 3.40571 25.6205H27.9869C28.9216 25.6215 30.8181 25.8625 30.6871 28.2995Z" fill="#FFC76F" stroke="#B16600"/>
<path d="M4.0675 26.0915V47.1915H3.47062C2.77793 47.1703 2.12204 46.8774 1.64697 46.377C1.17191 45.8765 0.916508 45.2095 0.936874 44.5225L0.925781 24.0515C0.925781 25.5255 2.07116 26.0925 3.46961 26.0925L4.0675 26.0915Z" fill="#C37D4A"/>
<path d="M25.8279 39.5471H30.7744C31.0996 39.5471 31.4114 39.4191 31.6413 39.191C31.8713 38.963 32.0004 38.6537 32.0004 38.3312V33.8762C32.0004 33.5537 31.8713 33.2444 31.6413 33.0163C31.4114 32.7883 31.0996 32.6602 30.7744 32.6602H25.8279C24.907 32.6602 24.0237 33.023 23.3725 33.6689C22.7213 34.3148 22.3555 35.1908 22.3555 36.1042C22.3557 37.0174 22.7217 37.8931 23.3729 38.5388C24.024 39.1844 24.9071 39.5471 25.8279 39.5471Z" fill="url(#paint1_linear)"/>
<path d="M25.7507 37.4825C26.518 37.4825 27.1401 36.8655 27.1401 36.1045C27.1401 35.3435 26.518 34.7265 25.7507 34.7265C24.9834 34.7265 24.3613 35.3435 24.3613 36.1045C24.3613 36.8655 24.9834 37.4825 25.7507 37.4825Z" fill="white"/>
<path d="M14.4183 6.24051C14.3272 6.24051 14.237 6.22271 14.1528 6.18814C14.0687 6.15356 13.9922 6.10289 13.9278 6.039C13.8634 5.97511 13.8123 5.89927 13.7774 5.81579C13.7425 5.73232 13.7246 5.64286 13.7246 5.55251V2.06051C13.7246 1.87791 13.7977 1.70278 13.9279 1.57366C14.0581 1.44454 14.2347 1.37201 14.4188 1.37201C14.6029 1.37201 14.7795 1.44454 14.9096 1.57366C15.0398 1.70278 15.113 1.87791 15.113 2.06051V5.54851C15.1135 5.63928 15.0959 5.72925 15.0612 5.81325C15.0266 5.89725 14.9754 5.97361 14.9109 6.03794C14.8463 6.10226 14.7695 6.15328 14.685 6.18805C14.6004 6.22281 14.5098 6.24064 14.4183 6.24051Z" fill="#D64B07"/>
<path d="M17.8909 4.8645C17.707 4.8645 17.5305 4.79201 17.4004 4.66299C17.2703 4.53396 17.1973 4.35897 17.1973 4.1765V0.688499C17.1973 0.505898 17.2704 0.330775 17.4006 0.201656C17.5308 0.0725375 17.7073 0 17.8914 0C18.0755 0 18.2521 0.0725375 18.3823 0.201656C18.5125 0.330775 18.5856 0.505898 18.5856 0.688499V4.1765C18.5856 4.26693 18.5676 4.35648 18.5327 4.44002C18.4978 4.52355 18.4466 4.59944 18.3821 4.66334C18.3176 4.72724 18.241 4.7779 18.1567 4.81242C18.0724 4.84693 17.9821 4.86463 17.8909 4.8645Z" fill="#D64B07"/>
<defs>
<linearGradient id="paint0_linear" x1="15.4582" y1="7.79651" x2="15.4582" y2="23.5515" gradientUnits="userSpaceOnUse">
<stop stop-color="#E1590A"/>
<stop offset="1" stop-color="#C23102"/>
</linearGradient>
<linearGradient id="paint1_linear" x1="27.178" y1="32.6602" x2="27.178" y2="39.5471" gradientUnits="userSpaceOnUse">
<stop stop-color="#E1590A"/>
<stop offset="1" stop-color="#C23102"/>
</linearGradient>
</defs>
</svg>
