<svg width="31" height="39" viewBox="0 0 31 39" fill="none" xmlns="http://www.w3.org/2000/svg">
<path d="M30.5305 3.52941C30.5305 1.58824 28.9423 0 27.0011 0H3.52941C1.58823 0 0 1.58824 0 3.52941V35.4706C0 37.4118 1.58823 39 3.52941 39H20.5277L30.5277 29.5882L30.5305 3.52941Z" fill="#F4E6DE"/>
<path d="M5 17.8502C5 17.4912 5.29101 17.2002 5.65 17.2002H24.35C24.709 17.2002 25 17.4912 25 17.8502C25 18.2092 24.709 18.5002 24.35 18.5002H5.65C5.29101 18.5002 5 18.2092 5 17.8502Z" fill="url(#paint0_linear)"/>
<path d="M5 21.3502C5 20.9912 5.29101 20.7002 5.65 20.7002H19.8045C20.1635 20.7002 20.4545 20.9912 20.4545 21.3502C20.4545 21.7092 20.1635 22.0002 19.8045 22.0002H5.65C5.29101 22.0002 5 21.7092 5 21.3502Z" fill="url(#paint1_linear)"/>
<rect opacity="0.5" x="5" y="24.2002" width="13.6364" height="1.3" rx="0.65" fill="#727272"/>
<path d="M23.0927 5.65352C23.0937 5.63459 22.9765 5.61913 22.9514 5.61158C22.9493 5.61119 22.9472 5.6103 22.9453 5.60897C22.6701 5.47966 15.2734 4.72022 15.2734 4.72022C15.2734 4.72022 7.89033 5.58325 7.61861 5.7164C7.61603 5.71763 7.61336 5.71853 7.61064 5.7191C7.58591 5.7268 7.46829 5.74391 7.46908 5.76303C7.03197 5.9197 6.64833 6.25053 6.3766 6.70512C6.10488 7.15971 5.95997 7.71313 5.96395 8.28108C5.96793 8.84903 6.12059 9.40037 6.39865 9.8511C6.67672 10.3018 7.06496 10.6273 7.50423 10.7778C7.50436 10.7969 7.62157 10.814 7.64638 10.8175C7.64898 10.8188 7.65166 10.82 7.65439 10.8209C7.92795 10.951 15.3224 11.7068 15.3224 11.7068C15.3224 11.7068 22.7078 10.8474 22.9811 10.7135C22.9827 10.712 22.985 10.7118 22.9871 10.71C23.0122 10.7051 23.129 10.6864 23.1279 10.6683C23.565 10.5116 23.9486 10.1808 24.2204 9.72619C24.4921 9.2716 24.637 8.71817 24.633 8.15023C24.629 7.58228 24.4764 7.03094 24.1983 6.58021C23.9202 6.12947 23.532 5.80405 23.0927 5.65352Z" fill="#9D031B"/>
<path d="M23.2568 4.99343C23.2578 4.97461 23.1386 4.95926 23.113 4.95175C23.1108 4.95136 23.1087 4.95048 23.1068 4.94916C22.8268 4.82063 15.2992 4.06672 15.2992 4.06672C15.2992 4.06672 7.78533 4.92605 7.50878 5.05849C7.50615 5.05971 7.50344 5.06061 7.50067 5.06118C7.47549 5.06884 7.35579 5.08587 7.35659 5.10488C6.91172 5.26073 6.52123 5.58974 6.24462 6.04179C5.96802 6.49384 5.82045 7.04414 5.82441 7.60886C5.82837 8.17358 5.98363 8.72176 6.26655 9.16989C6.54946 9.61801 6.94452 9.94152 7.39154 10.0911C7.39167 10.1101 7.51095 10.1271 7.5362 10.1306C7.53885 10.1319 7.54158 10.1331 7.54435 10.134C7.82274 10.2633 15.3479 11.0136 15.3479 11.0136C15.3479 11.0136 22.8642 10.1579 23.1424 10.0246C23.144 10.0232 23.1464 10.023 23.1485 10.0211C23.174 10.0163 23.2929 9.99767 23.2918 9.97968C23.7366 9.82382 24.1271 9.49481 24.4037 9.04276C24.6803 8.59071 24.8279 8.04041 24.8239 7.47569C24.82 6.91097 24.6647 6.36279 24.3818 5.91467C24.0989 5.46654 23.7038 5.14304 23.2568 4.99343Z" fill="#E50019"/>
<path d="M8.28746 6.68981L7.50386 6.6953L7.51508 8.53334L8.26732 8.52807C8.26732 8.52807 9.12542 8.52003 9.11885 7.58372C9.11885 7.58372 9.11255 6.68403 8.28746 6.68981ZM8.72532 7.59922C8.72963 8.21426 8.17258 8.22403 8.17258 8.22403L7.8689 8.22616L7.8602 6.98476L8.18529 6.98248C8.25493 6.97407 8.32527 6.98396 8.39159 7.01148C8.45791 7.039 8.51866 7.0835 8.56975 7.142C8.62085 7.2005 8.66109 7.27163 8.68779 7.35061C8.71448 7.42958 8.72699 7.51457 8.72449 7.59984" fill="#F7F5F9"/>
<path d="M10.5969 8.51163L10.9801 8.50895L10.5577 6.971C10.5296 6.88475 10.4811 6.81061 10.4183 6.7581C10.3555 6.70558 10.2813 6.67709 10.2053 6.67626C10.1344 6.66635 10.0627 6.66686 9.9919 6.67775C9.91585 6.67961 9.84205 6.70912 9.77997 6.76252C9.71789 6.81591 9.67037 6.89074 9.6435 6.97741L9.24292 8.52112L9.62144 8.51847L9.74688 8.01724L10.4668 8.0122L10.597 8.51163L10.5969 8.51163ZM9.81966 7.72275L9.9772 7.09121C9.9848 7.05829 10.001 7.0293 10.0233 7.0086C10.0456 6.9879 10.0728 6.9766 10.1009 6.9764C10.1289 6.97621 10.1563 6.98712 10.1789 7.00751C10.2015 7.0279 10.2181 7.05666 10.2261 7.08946L10.3897 7.71876L9.81966 7.72275Z" fill="#F7F5F9"/>
<path d="M12.6725 7.33786L11.9023 7.34326L11.9044 7.63682L12.6746 7.63142L12.6725 7.33786Z" fill="#F7F5F9"/>
<path d="M11.6169 6.65858L11.252 6.66113L11.2649 8.50685L11.6298 8.50429L11.6169 6.65858Z" fill="#F7F5F9"/>
<path d="M13.327 6.64637L12.9619 6.64893L12.9749 8.49464L13.3399 8.49208L13.327 6.64637Z" fill="#F7F5F9"/>
<path d="M17.2937 6.61853L16.928 6.62109L16.9409 8.46681L17.3067 8.46425L17.2937 6.61853Z" fill="#F7F5F9"/>
<path d="M20.0013 6.6078L19.6367 6.61035L19.6496 8.44838L20.0142 8.44582L20.0013 6.6078Z" fill="#F7F5F9"/>
<path d="M16.2786 6.62581L16.2834 7.31246L15.5796 7.3174L15.5748 6.63074L15.2097 6.6333L15.2227 8.47902L15.5877 8.47646L15.5817 7.61055L16.2854 7.60562L16.2915 8.47112L16.6566 8.46856L16.6437 6.62325L16.2786 6.62581Z" fill="#F7F5F9"/>
<path d="M19.4021 8.13639L18.6691 8.14153C18.6424 8.14188 18.6159 8.13579 18.5911 8.12363C18.5663 8.11147 18.5437 8.09347 18.5245 8.07065C18.5054 8.04784 18.4902 8.02066 18.4797 7.99068C18.4691 7.9607 18.4636 7.9285 18.4633 7.89593L18.4543 6.61852L18.0893 6.62108L18.0981 7.87685C18.0934 7.95021 18.1012 8.024 18.1211 8.09359C18.1409 8.16319 18.1723 8.22708 18.2132 8.28126C18.2542 8.33545 18.3039 8.37877 18.3592 8.4085C18.4145 8.43823 18.4742 8.45374 18.5346 8.45405L19.4043 8.44795L19.4021 8.13639Z" fill="#F7F5F9"/>
<path d="M20.8745 6.90624L21.6083 6.9011L21.6061 6.58852L20.7369 6.59461C20.6765 6.59579 20.6169 6.61218 20.562 6.64275C20.507 6.67333 20.4579 6.71742 20.4177 6.77228C20.3774 6.82713 20.3469 6.89157 20.3281 6.96154C20.3092 7.03151 20.3025 7.1055 20.3082 7.17889L20.3171 8.44174L20.6821 8.43918L20.677 7.7066L21.5646 7.70038L21.5626 7.40723L20.6749 7.41345L20.6731 7.15408C20.6729 7.12164 20.678 7.08948 20.688 7.05945C20.698 7.02943 20.7128 7.00213 20.7315 6.97912C20.7502 6.95611 20.7725 6.93785 20.797 6.92537C20.8216 6.9129 20.8479 6.90647 20.8745 6.90644" fill="#F7F5F9"/>
<path d="M22.4097 8.11517C22.383 8.11549 22.3565 8.10939 22.3317 8.09721C22.3069 8.08503 22.2844 8.06702 22.2653 8.0442C22.2462 8.02138 22.231 7.99421 22.2205 7.96425C22.2101 7.93428 22.2046 7.90211 22.2043 7.86957L22.2026 7.63024L23.0822 7.62407L23.0801 7.32971L22.2006 7.33587L22.1992 7.14306C22.1989 7.11086 22.204 7.07894 22.2141 7.04922C22.2242 7.0195 22.2391 6.99259 22.258 6.97012C22.2768 6.94764 22.2992 6.93007 22.3239 6.91845C22.3485 6.90683 22.3748 6.9014 22.4012 6.9025L23.1343 6.89736L23.1321 6.5856L22.2621 6.59169C22.202 6.59182 22.1426 6.60724 22.0878 6.63697C22.0329 6.6667 21.9838 6.71008 21.9436 6.76434C21.9033 6.8186 21.8729 6.88254 21.8541 6.95207C21.8353 7.02159 21.8287 7.09516 21.8346 7.16808L21.8394 7.85048C21.8347 7.92376 21.8425 7.99748 21.8622 8.06701C21.882 8.13655 21.9132 8.20041 21.9541 8.25459C21.995 8.30878 22.0446 8.35212 22.0998 8.38191C22.155 8.41169 22.2146 8.42728 22.2749 8.4277L23.1478 8.42158L23.1397 8.11006L22.4095 8.11517" fill="#F7F5F9"/>
<path d="M14.9523 6.64099L14.4272 6.64467C14.3207 6.63049 14.2131 6.64391 14.1113 6.68405C14.0095 6.72418 13.9159 6.79013 13.8365 6.87756C13.7572 6.96498 13.694 7.07192 13.6511 7.19134C13.6081 7.31077 13.5864 7.43999 13.5873 7.57052C13.5882 7.70106 13.6118 7.82996 13.6564 7.94877C13.701 8.06759 13.7657 8.17362 13.8462 8.25993C13.9268 8.34624 14.0213 8.41086 14.1237 8.44957C14.226 8.48827 14.3338 8.50018 14.4401 8.48452L14.968 8.48082L14.9658 8.17026L14.4885 8.17361C14.3559 8.17454 14.2283 8.11121 14.1337 7.99755C14.0392 7.88389 13.9854 7.72921 13.9843 7.56754C13.9831 7.40587 14.0347 7.25045 14.1277 7.13548C14.2207 7.0205 14.3474 6.95539 14.48 6.95446L14.9544 6.95114L14.9523 6.64099Z" fill="#F7F5F9"/>
<path d="M24.0294 29.4707H30.5L20.5 38.8825V33.0001C20.5 31.0589 22.0882 29.4707 24.0294 29.4707Z" fill="url(#paint2_linear)"/>
<defs>
<linearGradient id="paint0_linear" x1="5.9621" y1="17.3237" x2="24.1161" y2="20.5144" gradientUnits="userSpaceOnUse">
<stop stop-color="#EA553F"/>
<stop offset="1" stop-color="#D32A30"/>
</linearGradient>
<linearGradient id="paint1_linear" x1="5.74344" y1="21.1502" x2="19.943" y2="23.0787" gradientUnits="userSpaceOnUse">
<stop stop-color="#EA553F"/>
<stop offset="1" stop-color="#D32A30"/>
</linearGradient>
<linearGradient id="paint2_linear" x1="25" y1="6.00012" x2="25.2262" y2="39.5225" gradientUnits="userSpaceOnUse">
<stop stop-color="#FFC59A"/>
<stop offset="0.774583" stop-color="#FF826E"/>
<stop offset="1" stop-color="#FF7062"/>
</linearGradient>
</defs>
</svg>
