<svg width="18" height="18" viewBox="0 0 18 18" fill="none" xmlns="http://www.w3.org/2000/svg">
<mask id="mask0" mask-type="alpha" maskUnits="userSpaceOnUse" x="0" y="0" width="18" height="18">
<rect width="18" height="18" fill="#C4C4C4"/>
</mask>
<g mask="url(#mask0)">
<path d="M11 3.67013L14.269 6.94113L5.98997 15.2201L2.72097 11.9491L11 3.67013ZM16.753 2.88113L15.292 1.42313C15.0207 1.15219 14.6529 1 14.2695 1C13.886 1 13.5183 1.15219 13.247 1.42313L11.847 2.82313L15.118 6.09413L16.748 4.46413C16.8526 4.36068 16.9358 4.23754 16.9926 4.1018C17.0495 3.96606 17.0789 3.82042 17.0791 3.67326C17.0794 3.5261 17.0506 3.38034 16.9942 3.24439C16.9379 3.10844 16.8552 2.98498 16.751 2.88113H16.753ZM1.00997 16.5461C0.996162 16.6078 0.998282 16.6719 1.01613 16.7326C1.03398 16.7932 1.06698 16.8482 1.112 16.8925C1.15703 16.9369 1.2126 16.969 1.27348 16.9859C1.33436 17.0028 1.39854 17.0039 1.45997 16.9891L5.09997 16.1051L1.83597 12.8351L1.00997 16.5461Z" fill="#727272"/>
</g>
</svg>
