<svg width="24" height="25" viewBox="0 0 24 25" fill="none" xmlns="http://www.w3.org/2000/svg">
<path d="M4.36487 21.4672H19.9204C21.6596 21.4672 22.6644 20.4623 22.6644 18.472V7.80533C22.6644 5.82466 21.6499 4.81982 19.6306 4.81982H4.07502C2.33589 4.81982 1.33105 5.81499 1.33105 7.80533V18.472C1.33105 20.472 2.34555 21.4672 4.36487 21.4672ZM10.848 13.6314L3.55328 6.43335C3.76584 6.34639 4.01705 6.29808 4.3069 6.29808H19.6885C19.9881 6.29808 20.2489 6.34639 20.4615 6.44301L13.1861 13.6314C12.7707 14.0469 12.3939 14.2305 12.017 14.2305C11.6306 14.2305 11.2538 14.0372 10.848 13.6314ZM2.80932 18.472V7.80533C2.80932 7.72804 2.80932 7.76668 2.80932 7.69905L8.36487 13.158L2.81898 18.6362C2.80932 18.5879 2.80932 18.53 2.80932 18.472ZM21.1861 7.81499V18.4817C21.1861 18.5203 21.1861 18.5686 21.1861 18.6073L15.6692 13.158L21.1861 7.72804C21.1861 7.81499 21.1861 7.81499 21.1861 7.81499ZM4.3069 19.9889C4.03637 19.9889 3.80449 19.9503 3.60159 19.8633L9.37936 14.1532L10.0074 14.7715C10.6837 15.4382 11.3311 15.7184 12.017 15.7184C12.6934 15.7184 13.3504 15.4382 14.0267 14.7715L14.6547 14.1532L20.4228 19.8536C20.2103 19.9503 19.9687 19.9889 19.6885 19.9889H4.3069Z" fill="#727272"/>
</svg>
