<svg width="14" height="12" viewBox="0 0 14 12" fill="none" xmlns="http://www.w3.org/2000/svg">
<path d="M13.4275 9.64611H10.7029V10.8799H13.4275C13.5036 10.8801 13.5788 10.8639 13.6481 10.8324C13.7175 10.801 13.7794 10.7549 13.8297 10.6974C13.9405 10.5821 14.0016 10.4273 13.9996 10.2667C14.0026 10.1038 13.9415 9.94627 13.8297 9.82856C13.7794 9.77105 13.7175 9.72503 13.6481 9.69356C13.5788 9.6621 13.5036 9.64592 13.4275 9.64611ZM13.3986 5.39149H5.65944V6.61778H13.3986C13.4785 6.61933 13.5579 6.60389 13.6315 6.57246C13.7052 6.54102 13.7714 6.49429 13.826 6.43533C13.8823 6.37756 13.9267 6.30907 13.9565 6.23384C13.9863 6.15861 14.001 6.07815 13.9996 5.99715C14.0007 5.91721 13.9859 5.83786 13.956 5.76379C13.9262 5.68971 13.8819 5.62242 13.8258 5.56589C13.7697 5.50935 13.7029 5.46473 13.6294 5.43464C13.5559 5.40456 13.4771 5.38963 13.3978 5.39074L13.3986 5.39149ZM0.587091 5.39149C0.509344 5.38993 0.432126 5.40468 0.360338 5.4348C0.28855 5.46492 0.223761 5.50976 0.170084 5.56646C0.114479 5.62305 0.0707715 5.69035 0.0415756 5.76436C0.0123797 5.83836 -0.00170493 5.91754 0.000164452 5.99715C-0.00120728 6.07815 0.0134394 6.15861 0.0432498 6.23384C0.0730603 6.30907 0.117438 6.37756 0.173794 6.43533C0.226107 6.49328 0.289947 6.53948 0.361157 6.57092C0.432367 6.60235 0.50935 6.61832 0.587091 6.61778H3.40671V5.39149H0.587091ZM8.44196 1.1219H0.601931C0.522294 1.12024 0.443181 1.13526 0.369609 1.16603C0.296037 1.19679 0.229609 1.24262 0.174536 1.30061C0.0629109 1.41726 0.000536666 1.573 0.000536666 1.73505C0.000536666 1.8971 0.0629109 2.05283 0.174536 2.16949C0.229609 2.22748 0.296037 2.27331 0.369609 2.30407C0.443181 2.33484 0.522294 2.34986 0.601931 2.34819H8.44196V1.1219ZM13.4275 1.1219H10.616V2.3467H13.4275C13.5032 2.34703 13.5782 2.33128 13.6475 2.30049C13.7167 2.2697 13.7788 2.22456 13.8297 2.16799C13.9391 2.05022 14 1.8949 14 1.73355C14 1.5722 13.9391 1.41689 13.8297 1.29912C13.7787 1.24282 13.7166 1.19796 13.6473 1.16743C13.578 1.1369 13.5031 1.12139 13.4275 1.1219ZM8.41302 9.64611H0.601931C0.521969 9.64456 0.442579 9.66 0.368937 9.69143C0.295295 9.72287 0.229055 9.7696 0.174536 9.82856C0.11818 9.88633 0.0738022 9.95482 0.0439918 10.0301C0.0141813 10.1053 -0.00046515 10.1857 0.000906581 10.2667C-0.000139196 10.3466 0.0146848 10.4258 0.0445046 10.4998C0.0743245 10.5737 0.118537 10.641 0.174536 10.6974C0.229055 10.7564 0.295295 10.8031 0.368937 10.8346C0.442579 10.866 0.521969 10.8814 0.601931 10.8799H8.41302V9.64611ZM9.50748 2.55607C9.39938 2.55813 9.29198 2.53813 9.19175 2.49726C9.09152 2.4564 9.00053 2.39552 8.92426 2.31828C8.8455 2.24192 8.78327 2.14994 8.74151 2.04815C8.69975 1.94635 8.67936 1.83695 8.68163 1.72682C8.67916 1.61723 8.69946 1.50832 8.74125 1.4071C8.78304 1.30588 8.84538 1.21459 8.92426 1.1391C9.08296 0.986652 9.29379 0.901607 9.51304 0.901607C9.73229 0.901607 9.94313 0.986652 10.1018 1.1391C10.1797 1.21514 10.2412 1.30662 10.2823 1.40777C10.3234 1.50892 10.3433 1.61755 10.3408 1.72682C10.3431 1.83663 10.3232 1.94576 10.2821 2.04749C10.241 2.14922 10.1796 2.24138 10.1018 2.31828C10.0243 2.39706 9.93152 2.459 9.8293 2.50028C9.72708 2.54156 9.61756 2.56131 9.50748 2.55831V2.55607ZM9.50748 3.45335C9.81192 3.45735 10.1116 3.37662 10.3734 3.22006C10.6286 3.06756 10.8417 2.85286 10.993 2.5957C11.1448 2.3317 11.2248 2.03197 11.2248 1.72682C11.2248 1.42168 11.1448 1.12195 10.993 0.857953C10.8417 0.600786 10.6286 0.386085 10.3734 0.233592C10.1121 0.0805921 9.81526 0 9.51304 0C9.21083 0 8.914 0.0805921 8.65269 0.233592C8.39588 0.385252 8.18143 0.600069 8.0294 0.857953C7.87754 1.12195 7.79757 1.42168 7.79757 1.72682C7.79757 2.03197 7.87754 2.3317 8.0294 2.5957C8.18143 2.85358 8.39588 3.0684 8.65269 3.22006C8.91083 3.37608 9.20647 3.4578 9.50748 3.45634V3.45335ZM4.57314 6.83387C4.46386 6.83615 4.3553 6.81561 4.25428 6.77352C4.15327 6.73144 4.062 6.66874 3.98622 6.58936C3.90818 6.51122 3.84675 6.41788 3.80568 6.31504C3.7646 6.2122 3.74473 6.102 3.74729 5.99117C3.746 5.88152 3.76648 5.77271 3.80752 5.67115C3.84857 5.56959 3.90935 5.47733 3.98629 5.39979C4.06324 5.32225 4.1548 5.261 4.25558 5.21963C4.35636 5.17827 4.46433 5.15764 4.57314 5.15894C4.68222 5.15563 4.79079 5.17534 4.89186 5.2168C4.99294 5.25827 5.0843 5.32057 5.16007 5.39971C5.23605 5.47765 5.29575 5.57015 5.33564 5.67174C5.37553 5.77333 5.3948 5.88195 5.39232 5.99117C5.39508 6.10138 5.37604 6.21103 5.33629 6.31374C5.29654 6.41645 5.23689 6.51014 5.16081 6.58936C5.08577 6.67012 4.9946 6.73393 4.8933 6.77659C4.79201 6.81925 4.68289 6.83979 4.57314 6.83686V6.83387ZM4.57314 7.72443C4.87516 7.72774 5.17223 7.64702 5.43164 7.49113C5.6874 7.3381 5.90155 7.12359 6.05493 6.86677C6.20907 6.60425 6.29039 6.30481 6.29039 5.99977C6.29039 5.69473 6.20907 5.3953 6.05493 5.13277C5.90235 4.87433 5.6881 4.65842 5.43164 4.50467C5.17223 4.34879 4.87516 4.26806 4.57314 4.27138C4.26992 4.26856 3.97173 4.3495 3.71093 4.50542C3.4534 4.65778 3.23884 4.874 3.08765 5.13352C2.93582 5.39684 2.85585 5.69597 2.85585 6.00052C2.85585 6.30507 2.93582 6.60419 3.08765 6.86752C3.23968 7.1254 3.45412 7.34022 3.71093 7.49188C3.9715 7.64858 4.26971 7.73031 4.57314 7.72817V7.72443ZM9.50748 11.0982C9.39898 11.0982 9.29154 11.0767 9.1913 11.0348C9.09105 10.993 8.99997 10.9317 8.92325 10.8544C8.84653 10.777 8.78567 10.6853 8.74415 10.5842C8.70263 10.4832 8.68126 10.375 8.68126 10.2656C8.68126 10.1563 8.70263 10.048 8.74415 9.94699C8.78567 9.84597 8.84653 9.75419 8.92325 9.67687C8.99997 9.59956 9.09105 9.53823 9.1913 9.49639C9.29154 9.45454 9.39898 9.43301 9.50748 9.43301C9.61749 9.43021 9.7269 9.45013 9.82899 9.49153C9.93108 9.53294 10.0237 9.59496 10.1011 9.67378C10.2161 9.79117 10.294 9.94027 10.3249 10.1023C10.3559 10.2642 10.3385 10.4318 10.275 10.5838C10.2114 10.7359 10.1046 10.8655 9.96803 10.9564C9.83143 11.0473 9.67117 11.0953 9.50748 11.0945V11.0982ZM9.50748 11.9955C9.81192 11.9995 10.1116 11.9188 10.3734 11.7622C10.6293 11.609 10.8425 11.3929 10.993 11.1341C11.1448 10.8701 11.2248 10.5704 11.2248 10.2652C11.2248 9.9601 11.1448 9.66037 10.993 9.39637C10.843 9.13815 10.6296 8.92314 10.3734 8.77201C10.1113 8.62134 9.81478 8.5421 9.51304 8.5421C9.21131 8.5421 8.91478 8.62134 8.65269 8.77201C8.39482 8.92228 8.18006 9.13741 8.0294 9.39637C7.87754 9.66037 7.79757 9.9601 7.79757 10.2652C7.79757 10.5704 7.87754 10.8701 8.0294 11.1341C8.1806 11.3936 8.39516 11.6099 8.65269 11.7622C8.91068 11.9188 9.20633 12.001 9.50748 12V11.9955Z" fill="white"/>
</svg>
