<svg width="20" height="20" viewBox="0 0 20 20" fill="none" xmlns="http://www.w3.org/2000/svg">
<g clip-path="url(#clip0)">
<path d="M16.1937 -0.0390701H12.574C11.7298 -0.0390701 11.043 0.647729 11.043 1.49185V5.1117C11.043 5.95582 11.7298 6.64261 12.574 6.64261H16.1937C17.0379 6.64261 17.7247 5.95582 17.7247 5.1117V1.49185C17.7248 0.647729 17.038 -0.0390701 16.1937 -0.0390701ZM16.5529 5.1117C16.5529 5.3096 16.3918 5.47074 16.1937 5.47074H12.574C12.376 5.47074 12.215 5.3096 12.215 5.1117V1.49185C12.215 1.29394 12.376 1.13281 12.574 1.13281H16.1937C16.3918 1.13281 16.5529 1.29394 16.5529 1.49185V5.1117Z" fill="#727272"/>
<path d="M13.3906 8.10548C13.1093 8.10548 12.8443 8.17521 12.6116 8.29835C12.3118 7.84913 11.8004 7.5528 11.2211 7.5528C10.9218 7.5528 10.6408 7.63184 10.3975 7.77024C10.0931 7.35688 9.60316 7.08817 9.05155 7.08817C8.87791 7.08817 8.71037 7.11472 8.55274 7.16416V6.64261H8.6919C9.53617 6.64261 10.223 5.95581 10.223 5.11154V1.49185C10.223 0.647729 9.53617 -0.0390701 8.6919 -0.0390701H5.07221C4.22809 -0.0390701 3.54129 0.647729 3.54129 1.49185V5.1117C3.54129 5.95581 4.22809 6.64261 5.07221 6.64261H5.21152V10.2724C5.12088 10.1816 5.01911 10.1006 4.90741 10.0311C4.54746 9.8076 4.1254 9.72978 3.71158 9.80943C3.26648 9.82728 2.86716 10.0215 2.60776 10.3485C2.33523 10.692 2.24063 11.1525 2.3479 11.6121L3.11801 14.9076C3.55716 17.657 5.70194 19.7141 5.79334 19.8006C5.90213 19.9036 6.04633 19.961 6.19617 19.961H12.7865C12.9838 19.961 13.1676 19.8616 13.2761 19.6968C14.4433 17.9213 15.0605 15.8599 15.0606 13.7352L15.0612 9.77617C15.0612 9.77617 15.0612 9.77617 15.0612 9.77601C15.0612 8.85484 14.3117 8.10548 13.3906 8.10548ZM6.4423 18.7891C5.97004 18.2868 4.57843 16.6648 4.27219 14.7046C4.2699 14.6901 4.26715 14.6758 4.26379 14.6617L3.48895 11.3455C3.46316 11.2348 3.47613 11.1392 3.52573 11.0768C3.57516 11.0144 3.66 10.9818 3.77322 10.9709C3.83014 10.9656 3.85379 10.9589 3.90659 10.9557C4.03949 10.9476 4.17575 10.9563 4.28897 11.0266C4.40219 11.097 4.48108 11.2071 4.51145 11.3368L5.17978 14.1973C5.23563 14.4361 5.4343 14.6149 5.67752 14.6454L5.72452 14.6512C5.8913 14.6721 6.05899 14.6204 6.18503 14.5091C6.31107 14.3979 6.38324 14.2378 6.38324 14.0698V4.75754C6.38324 4.48242 6.60694 4.25873 6.88206 4.25873C7.15702 4.25873 7.38087 4.48242 7.38087 4.75754V10.2521C7.38087 10.5756 7.64317 10.838 7.9668 10.838C8.29044 10.838 8.55274 10.5756 8.55274 10.2521V8.75886C8.55274 8.48374 8.77644 8.26005 9.05155 8.26005C9.32652 8.26005 9.55037 8.48374 9.55037 8.75886V10.3188C9.55037 10.6424 9.81266 10.9047 10.1363 10.9047C10.4599 10.9047 10.7222 10.6424 10.7222 10.3188V9.22349C10.7222 8.94853 10.9461 8.72468 11.2211 8.72468C11.4962 8.72468 11.7199 8.94853 11.7199 9.22349V10.728C11.7199 11.0515 11.9822 11.3139 12.3058 11.3139C12.6294 11.3139 12.8917 11.0515 12.8917 10.728V9.77617C12.8917 9.50105 13.1156 9.2772 13.3906 9.2772C13.6657 9.2772 13.8894 9.50105 13.8894 9.77601L13.8888 13.7351C13.8886 15.526 13.397 17.2666 12.4643 18.7891H6.4423ZM4.71317 5.1117V1.49185C4.71317 1.29394 4.8743 1.13281 5.07221 1.13281H8.6919C8.88996 1.13281 9.0511 1.29394 9.0511 1.49185V5.1117C9.0511 5.3096 8.88996 5.47074 8.6919 5.47074H8.55274V4.75739C8.55274 3.83621 7.80323 3.0867 6.88206 3.0867C5.96088 3.0867 5.21137 3.83621 5.21137 4.75739V5.47074H5.07221C4.8743 5.47074 4.71317 5.3096 4.71317 5.1117Z" fill="#727272"/>
</g>
<defs>
<clipPath id="clip0">
<rect width="20" height="20" fill="white"/>
</clipPath>
</defs>
</svg>
