<svg width="20" height="22" viewBox="0 0 20 22" fill="none" xmlns="http://www.w3.org/2000/svg">
<path d="M17.7922 17.873H2.20887C1.29752 17.873 0.556152 17.1317 0.556152 16.2203C0.556152 15.7366 0.766785 15.2787 1.13409 14.9641C2.57065 13.7505 3.38949 11.9864 3.38949 10.1173V7.4841C3.38949 3.83867 6.35511 0.873047 10.0005 0.873047C13.6461 0.873047 16.6118 3.83867 16.6118 7.4841V10.1173C16.6118 11.9864 17.4306 13.7505 18.8576 14.9576C19.2345 15.2787 19.4451 15.7366 19.4451 16.2203C19.4451 17.1317 18.7037 17.873 17.7922 17.873Z" fill="url(#paint0_linear_3772_4906)"/>
<path d="M9.7764 21.8731C8.39772 21.8731 7.27637 20.7517 7.27637 19.3731C7.27637 19.097 7.50037 18.873 7.77637 18.873C9.56434 18.873 10.8477 18.873 11.7764 18.873C12.0524 18.873 12.2764 19.097 12.2764 19.3731C12.2764 20.7517 11.1551 21.8731 9.7764 21.8731Z" fill="url(#paint1_linear_3772_4906)"/>
<defs>
<linearGradient id="paint0_linear_3772_4906" x1="2.3506" y1="-1.09895" x2="15.2688" y2="18.9597" gradientUnits="userSpaceOnUse">
<stop stop-color="#FAE340"/>
<stop offset="1" stop-color="#E57C30"/>
</linearGradient>
<linearGradient id="paint1_linear_3772_4906" x1="7.75137" y1="18.525" x2="9.56687" y2="22.7535" gradientUnits="userSpaceOnUse">
<stop stop-color="#FAE340"/>
<stop offset="1" stop-color="#E57C30"/>
</linearGradient>
</defs>
</svg>
