<svg width="12" height="12" viewBox="0 0 12 12" fill="none" xmlns="http://www.w3.org/2000/svg">
<mask id="mask0_865_4838" style="mask-type:alpha" maskUnits="userSpaceOnUse" x="0" y="0" width="12" height="12">
<rect width="12" height="12" fill="#C4C4C4"/>
</mask>
<g mask="url(#mask0_865_4838)">
<path d="M6.81481 5.99967L10.4829 2.33155C10.7275 2.08701 10.7275 1.76096 10.4829 1.51641C10.2384 1.27187 9.91234 1.27187 9.6678 1.51641L5.99967 5.18454L2.33155 1.51641C2.08701 1.27187 1.76096 1.27187 1.51641 1.51641C1.27187 1.76096 1.27187 2.08701 1.51641 2.33155L5.18454 5.99967L1.51641 9.6678C1.27187 9.91234 1.27187 10.2384 1.51641 10.4829C1.76096 10.7275 2.08701 10.7275 2.33155 10.4829L5.99967 6.81481L9.6678 10.4829C9.91234 10.7275 10.2384 10.7275 10.4829 10.4829C10.7275 10.2384 10.7275 9.91234 10.4829 9.6678L6.81481 5.99967Z" fill="white"/>
</g>
</svg>
