<svg width="56" height="56" viewBox="0 0 56 56" fill="none" xmlns="http://www.w3.org/2000/svg">
<path d="M27.9998 56C43.4637 56 55.9998 43.464 55.9998 28C55.9998 12.536 43.4637 0 27.9998 0C12.5358 0 -0.000244141 12.536 -0.000244141 28C-0.000244141 43.464 12.5358 56 27.9998 56Z" fill="url(#paint0_linear)"/>
<mask id="mask0" style="mask-type:alpha" maskUnits="userSpaceOnUse" x="11" y="12" width="33" height="32">
<rect x="11.9998" y="12" width="32" height="32" fill="#C4C4C4"/>
</mask>
<g mask="url(#mask0)">
<path d="M40.7406 34.0735C38.9564 34.0751 37.1825 33.8021 35.4813 33.2641C35.2253 33.1741 34.9485 33.1613 34.6852 33.227C34.4219 33.2928 34.1836 33.4343 34 33.6341L30.7401 36.8927C26.5258 34.753 23.1013 31.3286 20.9615 27.1146L24.2214 23.856C24.4062 23.6623 24.5375 23.424 24.6024 23.1643C24.6673 22.9046 24.6635 22.6325 24.5915 22.3747C23.9967 20.6598 23.6961 18.8567 23.7022 17.0416C23.7022 16.6485 23.5464 16.2714 23.269 15.9929C22.9916 15.7144 22.6151 15.5572 22.222 15.5557H17.0367C16.6442 15.5569 16.2681 15.7133 15.9905 15.9909C15.713 16.2684 15.5565 16.6445 15.5553 17.037C15.5524 20.3451 16.2019 23.6213 17.4665 26.6781C18.7312 29.735 20.5862 32.5125 22.9254 34.8517C25.2646 37.191 28.0422 39.046 31.0991 40.3108C34.1561 41.5755 37.4324 42.2251 40.7406 42.2223C41.1331 42.2211 41.5092 42.0646 41.7868 41.7871C42.0643 41.5096 42.2208 41.1335 42.222 40.741V35.5606C42.2223 35.1671 42.0665 34.7895 41.7888 34.5108C41.5111 34.232 41.1341 34.0747 40.7406 34.0735Z" fill="white"/>
</g>
<defs>
<linearGradient id="paint0_linear" x1="12.0958" y1="56" x2="55.9998" y2="8.232" gradientUnits="userSpaceOnUse">
<stop stop-color="#FFDC4B"/>
<stop offset="1" stop-color="#F6A82C"/>
</linearGradient>
</defs>
</svg>
