<svg width="24" height="31" viewBox="0 0 24 31" fill="none" xmlns="http://www.w3.org/2000/svg">
<path d="M17.2544 17.7464L16.7914 17.6284L12.2844 22.2594L7.55741 17.6284L7.15741 17.7284C5.35165 18.2381 3.76678 19.3341 2.65243 20.8437C1.53808 22.3532 0.957598 24.1906 1.00241 26.0664C1.00241 28.4064 6.00241 30.3044 12.1684 30.3044C18.3344 30.3044 23.3344 28.4044 23.3344 26.0664C23.3785 24.2037 22.8065 22.3784 21.7071 20.8741C20.6078 19.3697 19.0425 18.2702 17.2544 17.7464Z" fill="#FFC76F" stroke="#985801" stroke-width="1.2"/>
<path d="M11.9177 15.9904C15.0467 15.9904 17.5917 12.9314 17.5917 10.0484C17.5285 8.6041 16.8963 7.24353 15.8331 6.26393C14.7699 5.28434 13.3623 4.76535 11.9177 4.82037C10.473 4.76535 9.06538 5.28434 8.00221 6.26393C6.93905 7.24353 6.30682 8.6041 6.24365 10.0484C6.24465 12.9304 8.79265 15.9904 11.9177 15.9904Z" fill="#F8E0CA" stroke="#985801" stroke-width="1.2"/>
<path d="M18.3916 9.11746C18.5224 8.94678 18.5927 8.73748 18.5916 8.52246V3.40546C18.5934 3.16991 18.5275 2.9388 18.4018 2.73957C18.2761 2.54033 18.096 2.38134 17.8826 2.28146L12.7086 0.100459C12.4751 0.0293473 12.2317 -0.00440239 11.9876 0.000459452C11.7505 -0.00269854 11.5144 0.0310379 11.2876 0.100459L5.87362 2.28746C5.66011 2.38556 5.47951 2.54328 5.35354 2.74163C5.22758 2.93998 5.16163 3.1705 5.16362 3.40546V8.52246C5.16249 8.73748 5.23285 8.94678 5.36362 9.11746L11.9066 7.75346L18.3916 9.11746Z" fill="url(#paint0_linear)"/>
<path d="M11.1812 1.77344L12.4657 1.80038L12.5391 6.49872L11.2546 6.47178L11.1812 1.77344Z" fill="white"/>
<path d="M14.271 3.37109L14.2921 4.72355L9.44698 4.63986L9.42589 3.2874L14.271 3.37109Z" fill="white"/>
<defs>
<linearGradient id="paint0_linear" x1="11.8776" y1="0" x2="11.8776" y2="9.11746" gradientUnits="userSpaceOnUse">
<stop stop-color="#E1590A"/>
<stop offset="1" stop-color="#C23102"/>
</linearGradient>
</defs>
</svg>
