<svg width="16" height="11" viewBox="0 0 16 11" fill="none" xmlns="http://www.w3.org/2000/svg">
<path d="M12.5887 10.6381C12.7658 10.8211 13.0491 10.8329 13.232 10.6381C13.4209 10.4434 13.4091 10.1778 13.232 9.99484L3.36407 0.132792C3.18702 -0.0442641 2.89192 -0.0442641 2.71487 0.132792C2.54371 0.303947 2.54371 0.604943 2.71487 0.776097L12.5887 10.6381ZM13.1494 8.9325C14.8727 7.79343 16 6.22944 16 5.52711C16 4.32903 12.7245 0.510513 8.00295 0.510513C6.99963 0.510513 6.05533 0.681667 5.19956 0.964958L6.73405 2.49945C7.12357 2.33419 7.54851 2.23976 8.00295 2.23976C9.82663 2.23976 11.3021 3.68572 11.3021 5.52711C11.3021 5.97565 11.2018 6.40649 11.0247 6.78421L13.1494 8.9325ZM8.00295 10.5437C9.0948 10.5437 10.1099 10.343 11.0011 10.0125L9.45481 8.46625C9.01807 8.69052 8.52232 8.81446 8.00295 8.81446C6.16156 8.81446 4.7038 7.32128 4.6979 5.52711C4.6979 4.99594 4.82184 4.49428 5.04021 4.05164L3.02176 2.02139C1.16267 3.18406 0 4.81889 0 5.52711C0 6.71929 3.33456 10.5437 8.00295 10.5437ZM9.87975 5.40317C9.87975 4.37034 9.04758 3.53228 8.00295 3.53228C7.92623 3.53228 7.8495 3.53818 7.77868 3.54408L9.86794 5.63335C9.87385 5.56252 9.87975 5.4799 9.87975 5.40317ZM6.12025 5.39137C6.12025 6.4301 6.97602 7.26817 8.00885 7.26817C8.09148 7.26817 8.1682 7.26226 8.25083 7.25636L6.13205 5.13759C6.12615 5.22021 6.12025 5.30874 6.12025 5.39137Z" fill="#727272"/>
</svg>
