<svg width="16" height="21" viewBox="0 0 16 21" fill="none" xmlns="http://www.w3.org/2000/svg">
<path d="M9.80747 4.36002C9.77366 4.31991 9.73153 4.28755 9.68398 4.26515C9.63642 4.24275 9.58456 4.23083 9.53194 4.23022H6.47039C6.41777 4.23083 6.3659 4.24275 6.31835 4.26515C6.27079 4.28755 6.22866 4.31991 6.19486 4.36002C5.63526 5.00219 0.5887 8.06206 0.729451 13.1375C0.729451 16.6462 3.99146 19.4999 8.00073 19.4999C12.01 19.4999 15.272 16.6462 15.272 13.1375C15.2242 8.2173 10.3671 5.00219 9.80747 4.36002Z" fill="#FFC76F" stroke="#985801" stroke-width="1.2"/>
<path d="M7.13753 10.0235C7.49893 10.0071 7.85849 10.0821 8.18032 10.241C8.40712 10.36 8.6074 10.5206 8.76976 10.7138V9.66968H8.15901C8.12749 9.67403 8.09535 9.67126 8.06513 9.66159C8.03492 9.65192 8.00747 9.63562 7.98495 9.61398C7.96244 9.59233 7.94548 9.56595 7.93542 9.5369C7.92536 9.50786 7.92248 9.47697 7.927 9.44667V9.18347C7.92248 9.15317 7.92536 9.12228 7.93542 9.09323C7.94548 9.06419 7.96244 9.0378 7.98495 9.01616C8.00747 8.99452 8.03492 8.97821 8.06513 8.96854C8.09535 8.95888 8.12749 8.95611 8.15901 8.96046H8.76976V8.47425C8.76909 8.43852 8.77601 8.40304 8.79011 8.36998C8.80421 8.33691 8.82518 8.30697 8.85174 8.28197C8.87775 8.25644 8.9089 8.23628 8.9433 8.22273C8.9777 8.20918 9.01461 8.20252 9.05177 8.20317H9.44118C9.47835 8.20252 9.51526 8.20918 9.54966 8.22273C9.58405 8.23628 9.61521 8.25644 9.64121 8.28197C9.66778 8.30697 9.68875 8.33691 9.70285 8.36998C9.71694 8.40304 9.72387 8.43852 9.72319 8.47425V8.96046H10.3339C10.3655 8.95611 10.3976 8.95888 10.4278 8.96854C10.458 8.97821 10.4855 8.99452 10.508 9.01616C10.5305 9.0378 10.5475 9.06419 10.5575 9.09323C10.5676 9.12228 10.5705 9.15317 10.566 9.18347V9.44667C10.5705 9.47697 10.5676 9.50786 10.5575 9.5369C10.5475 9.56595 10.5305 9.59233 10.508 9.61398C10.4855 9.63562 10.458 9.65192 10.4278 9.66159C10.3976 9.67126 10.3655 9.67403 10.3339 9.66968H9.72893V15.1165C9.72961 15.1522 9.72268 15.1877 9.70859 15.2208C9.69449 15.2538 9.67352 15.2838 9.64695 15.3088C9.62095 15.3343 9.58979 15.3545 9.5554 15.368C9.521 15.3816 9.48409 15.3882 9.44692 15.3876H9.05423C9.01707 15.3882 8.98015 15.3816 8.94576 15.368C8.91136 15.3545 8.88021 15.3343 8.8542 15.3088C8.82764 15.2838 8.80667 15.2538 8.79257 15.2208C8.77847 15.1877 8.77155 15.1522 8.77222 15.1165V14.8013C8.61028 15.0009 8.40564 15.1649 8.17213 15.282C7.85098 15.434 7.49517 15.5058 7.13753 15.4908C6.82209 15.4939 6.50907 15.4377 6.21607 15.3253C5.93615 15.217 5.68308 15.0532 5.47333 14.8446C5.25557 14.625 5.08384 14.367 4.96751 14.085C4.83628 13.7645 4.76201 13.4251 4.74781 13.081C4.74015 12.9802 4.73633 12.8706 4.73633 12.7524C4.73633 12.6342 4.74015 12.5244 4.74781 12.423C4.76271 12.0794 4.83753 11.7405 4.96915 11.4207C5.08474 11.1399 5.2566 10.8836 5.47497 10.6665C5.68617 10.4616 5.939 10.3007 6.21771 10.1937C6.50986 10.0799 6.82232 10.0221 7.13753 10.0235ZM8.76976 13.1929C8.77687 13.0915 8.78042 12.9584 8.78042 12.7934C8.78042 12.6284 8.77687 12.4953 8.76976 12.3939C8.77714 11.982 8.61647 11.5837 8.32215 11.2843C8.17846 11.1532 8.00888 11.0511 7.82343 10.9841C7.63797 10.9171 7.44043 10.8866 7.24247 10.8943C7.0387 10.8844 6.83513 10.9173 6.64596 10.9908C6.4568 11.0643 6.28659 11.1766 6.14721 11.3198C5.86412 11.6432 5.70753 12.0516 5.70452 12.4743C5.69741 12.6634 5.69741 12.8522 5.70452 13.0408C5.70753 13.4635 5.86412 13.8719 6.14721 14.1953C6.28659 14.3385 6.4568 14.4508 6.64596 14.5243C6.83513 14.5978 7.0387 14.6307 7.24247 14.6208C7.43898 14.6277 7.63497 14.5972 7.81924 14.5313C8.00351 14.4653 8.17245 14.365 8.31641 14.2363C8.45994 14.0998 8.5739 13.9373 8.65171 13.7582C8.72952 13.5791 8.76965 13.387 8.76976 13.1929Z" fill="#D14406" stroke="#D14406" stroke-width="0.3"/>
<path d="M11.4079 0.91674C10.96 0.395875 9.79477 1.07962 9.12599 1.54195C8.81975 1.09404 8.3702 0.546875 7.98036 0.546875C7.59053 0.546875 7.14098 1.09404 6.83474 1.54195C6.16767 1.07877 4.99986 0.395027 4.55286 0.91674C4.49118 0.99043 4.4451 1.07575 4.41739 1.16759C4.38969 1.25943 4.38093 1.35589 4.39164 1.45118C4.47694 2.47509 6.50546 4.16578 6.73578 4.35666C6.7836 4.39644 6.84405 4.41808 6.90639 4.41773H9.05263C9.11487 4.41832 9.1753 4.39698 9.22324 4.3575C9.45356 4.16748 11.4812 2.47764 11.5674 1.45203C11.5785 1.35671 11.5702 1.26014 11.5428 1.16814C11.5153 1.07614 11.4695 0.990615 11.4079 0.91674Z" fill="url(#paint0_linear)"/>
<defs>
<linearGradient id="paint0_linear" x1="7.97969" y1="0.546875" x2="7.97969" y2="4.41775" gradientUnits="userSpaceOnUse">
<stop stop-color="#E1590A"/>
<stop offset="1" stop-color="#C23102"/>
</linearGradient>
</defs>
</svg>
