<svg width="36" height="36" viewBox="0 0 36 36" fill="none" xmlns="http://www.w3.org/2000/svg">
<path d="M18 36C27.9411 36 36 27.9411 36 18C36 8.05887 27.9411 0 18 0C8.05887 0 0 8.05887 0 18C0 27.9411 8.05887 36 18 36Z" fill="url(#paint0_linear)"/>
<mask id="mask0" style="mask-type:alpha" maskUnits="userSpaceOnUse" x="7" y="7" width="22" height="22">
<rect x="7.7146" y="7.7146" width="20.5714" height="20.5714" fill="#C4C4C4"/>
</mask>
<g mask="url(#mask0)">
<path d="M26.1912 21.9049C25.0441 21.906 23.9038 21.7305 22.8102 21.3846C22.6456 21.3268 22.4676 21.3185 22.2984 21.3608C22.1291 21.4031 21.976 21.494 21.8579 21.6225L19.7622 23.7173C17.0531 22.3418 14.8516 20.1404 13.476 17.4313L15.5717 15.3365C15.6905 15.212 15.7749 15.0588 15.8166 14.8919C15.8583 14.7249 15.8559 14.55 15.8096 14.3843C15.4272 13.2818 15.234 12.1227 15.2379 10.9558C15.2379 10.7031 15.1378 10.4607 14.9594 10.2817C14.7811 10.1027 14.539 10.0016 14.2863 10.0006H10.9529C10.7006 10.0014 10.4588 10.102 10.2804 10.2804C10.102 10.4588 10.0014 10.7006 10.0006 10.9529C9.99876 13.0795 10.4163 15.1856 11.2293 17.1508C12.0422 19.1159 13.2347 20.9014 14.7385 22.4052C16.2423 23.909 18.0279 25.1016 19.9931 25.9146C21.9582 26.7276 24.0644 27.1452 26.1912 27.1435C26.4435 27.1427 26.6853 27.0421 26.8637 26.8637C27.0421 26.6853 27.1427 26.4435 27.1435 26.1912V22.8609C27.1437 22.608 27.0435 22.3652 26.865 22.186C26.6865 22.0068 26.4441 21.9057 26.1912 21.9049Z" fill="white"/>
</g>
<defs>
<linearGradient id="paint0_linear" x1="7.776" y1="36" x2="36" y2="5.292" gradientUnits="userSpaceOnUse">
<stop stop-color="#FFDC4B"/>
<stop offset="1" stop-color="#F6A82C"/>
</linearGradient>
</defs>
</svg>
