<svg width="90" height="90" viewBox="0 0 90 90" fill="none" xmlns="http://www.w3.org/2000/svg">
<circle cx="45" cy="45" r="45" fill="#F2DECA"/>
<path d="M45.0412 48.2727C45.0412 42.5625 41.4957 39.3068 36.8679 39.3068C32.2145 39.3068 28.6946 42.5625 28.6946 48.2727C28.6946 53.9574 32.2145 57.2386 36.8679 57.2386C37.9588 57.2386 38.9901 57.0597 39.9276 56.7017L41.3338 58.4318H44.777L42.2798 55.2955C43.9844 53.7699 45.0412 51.3835 45.0412 48.2727ZM35.5895 50.9318L37.8224 53.8807C37.5241 53.9403 37.2003 53.9744 36.8679 53.9744C34.1832 53.9744 32.4361 51.9716 32.4361 48.2727C32.4361 44.5739 34.1832 42.571 36.8679 42.571C39.544 42.571 41.2997 44.5739 41.2997 48.2727C41.2997 50.1733 40.831 51.6307 40.0213 52.5938L38.7259 50.9318H35.5895ZM46.3366 42.5881H51.6804V57H55.3281V42.5881H60.6719V39.5455H46.3366V42.5881Z" fill="#985801"/>
</svg>
