<svg width="110" height="110" viewBox="0 0 110 110" fill="none" xmlns="http://www.w3.org/2000/svg">
<path d="M55 110C85.3757 110 110 85.3757 110 55C110 24.6243 85.3757 0 55 0C24.6243 0 0 24.6243 0 55C0 85.3757 24.6243 110 55 110Z" fill="#F5F3F2"/>
<path d="M43.0217 36.0635H40.8982C38.3266 36.0635 40.0224 36.0635 37.4694 36.0635L25.8973 36.0635C23.3443 36.0635 20.7542 36.0636 20.7542 39.303V79.9294C20.7542 80.9209 21.789 81.7247 23.0655 81.7247H87.6152V39.6542C87.6152 37.6711 85.5455 36.0636 82.9925 36.0636L43.0217 36.0635Z" fill="#B5B5B5"/>
<rect x="40.5137" y="22" width="43.407" height="41.1016" rx="4" transform="rotate(10.5551 40.5137 22)" fill="#DADADA"/>
<rect opacity="0.2" x="30.5388" y="35.5376" width="27.333" height="39.2374" rx="2" transform="rotate(-9.19224 30.5388 35.5376)" fill="white"/>
<rect x="26.1814" y="35.1633" width="30.0951" height="39.2374" rx="2" transform="rotate(-9.19224 26.1814 35.1633)" fill="white"/>
<rect x="62.4016" y="39.334" width="25.3817" height="5.49215" rx="2" transform="rotate(0.657661 62.4016 39.334)" fill="white"/>
<path d="M17.8681 47.7465C17.6662 45.4102 19.5082 43.4021 21.8533 43.4021H88.1306C90.4816 43.4021 92.3256 45.4199 92.1145 47.7614L89.4546 77.2563L88.8858 84.1378C88.7143 86.2121 86.9808 87.8083 84.8994 87.8083H77.2429L34.6156 88.248H25.1507C23.0961 88.248 21.3756 86.6913 21.1707 84.6469L20.3465 76.425L17.8681 47.7465Z" fill="#C9C9C9"/>
<rect x="46" y="71.9895" width="21.1985" height="3" rx="1.5" transform="rotate(-45 46 71.9895)" fill="white"/>
<rect width="21.1985" height="3" rx="1.5" transform="matrix(-0.707107 -0.707107 -0.707107 0.707107 63.1108 71.9895)" fill="white"/>
</svg>
