<svg width="120" height="120" viewBox="0 0 120 120" fill="none" xmlns="http://www.w3.org/2000/svg">
<path d="M60 120C93.1371 120 120 93.1371 120 60C120 26.8629 93.1371 0 60 0C26.8629 0 0 26.8629 0 60C0 93.1371 26.8629 120 60 120Z" fill="#F5F3F2"/>
<path d="M100.328 57.1942L61.8179 84.6912L19.1201 64.299C19.117 64.277 19.1171 64.2547 19.1203 64.2327C19.1412 64.0813 21.2186 62.0104 24.3937 58.935C24.4233 58.9063 24.4489 58.8779 24.4794 58.8482C34.8941 48.7631 56.863 28.0566 56.863 28.0566C56.863 28.0566 82.0958 44.6335 94.0994 52.7562C97.8165 55.2688 100.264 56.9729 100.311 57.1314C100.32 57.1515 100.325 57.1726 100.328 57.1942Z" fill="#B5B5B5"/>
<path d="M72.5951 13.9347L28.7855 17.7676C26.981 17.9257 25.3133 18.794 24.149 20.1816C22.9847 21.5692 22.4191 23.3624 22.5767 25.1669L28.3718 91.4048C28.7005 95.1625 33.0606 77.9691 36.8183 77.6403L90.6653 92.81C92.4697 92.6521 94.1374 91.784 95.3018 90.3966C96.4661 89.0092 97.0317 87.2161 96.8741 85.4117L92.0488 30.2583L72.5951 13.9347Z" fill="white"/>
<path d="M36.0688 45.0104C36.0323 45.0138 35.9984 45.0059 35.9672 44.9867C35.9426 44.9595 35.9286 44.9277 35.9252 44.8911L35.6679 42.1201C35.6652 42.0909 35.6595 42.0693 35.6508 42.0554L32.9735 37.7303C32.9562 37.7025 32.9469 37.6813 32.9455 37.6667C32.9401 37.6082 32.9776 37.5753 33.0579 37.5679L34.4379 37.4397C34.511 37.4329 34.5651 37.4611 34.6004 37.5241L36.24 40.3104C36.266 40.3522 36.2879 40.3502 36.3058 40.3043L37.4044 37.2637C37.4275 37.1953 37.4755 37.1577 37.5486 37.1509L38.9505 37.0208C39.0016 37.016 39.0359 37.0276 39.0532 37.0554C39.0771 37.0753 39.0805 37.1118 39.0633 37.1649L37.2061 41.911C37.2002 41.9262 37.1986 41.9485 37.2013 41.9777L37.4586 44.7488C37.462 44.7853 37.4504 44.8195 37.4239 44.8514C37.404 44.8754 37.3759 44.889 37.3393 44.8924L36.0688 45.0104Z" fill="#727272"/>
<path d="M45.9653 37.5736C45.9687 37.6101 45.9571 37.6443 45.9306 37.6763C45.9108 37.7002 45.8826 37.7139 45.8461 37.7173L42.2535 38.0508C42.217 38.0542 42.2004 38.0742 42.2038 38.1107L42.3615 39.8084C42.3648 39.8449 42.3848 39.8614 42.4213 39.858L44.7762 39.6394C44.8127 39.636 44.8432 39.6479 44.8679 39.6751C44.8991 39.6943 44.9164 39.7221 44.9198 39.7586L45.0185 40.8211C45.0218 40.8576 45.0103 40.8918 44.9838 40.9237C44.9639 40.9476 44.9357 40.9613 44.8992 40.9647L42.5444 41.1833C42.5078 41.1867 42.4913 41.2067 42.4947 41.2432L42.6594 43.0176C42.6628 43.0541 42.6828 43.0706 42.7193 43.0672L46.3118 42.7337C46.3483 42.7303 46.3789 42.7422 46.4035 42.7694C46.4347 42.7886 46.4521 42.8164 46.4554 42.8529L46.5541 43.9154C46.5575 43.9519 46.5459 43.9861 46.5194 44.018C46.4996 44.0419 46.4714 44.0556 46.4349 44.059L41.3746 44.5288C41.3381 44.5322 41.3042 44.5243 41.273 44.5051C41.2484 44.4779 41.2344 44.4461 41.231 44.4096L40.5435 37.0054C40.5402 36.9689 40.5484 36.9387 40.5683 36.9147C40.5948 36.8828 40.6263 36.8652 40.6628 36.8618L45.723 36.392C45.7595 36.3886 45.7901 36.4005 45.8147 36.4276C45.8459 36.4468 45.8633 36.4747 45.8667 36.5112L45.9653 37.5736ZM41.491 36.1441C41.4399 36.1489 41.402 36.1377 41.3774 36.1105C41.3594 36.0753 41.363 36.0345 41.3881 35.988L42.0809 34.7637C42.112 34.7019 42.1604 34.6679 42.2261 34.6618L43.6828 34.5266C43.7485 34.5205 43.8024 34.5449 43.8443 34.6L44.7835 35.6727C44.8081 35.6999 44.8214 35.7245 44.8235 35.7464C44.8289 35.8048 44.7915 35.8377 44.7111 35.8452L43.7254 35.9367C43.6597 35.9428 43.6058 35.9183 43.5639 35.8633L43.0637 35.2359C43.0378 35.1941 43.0159 35.1961 42.998 35.242L42.6219 35.9508C42.5909 36.0126 42.5425 36.0465 42.4767 36.0526L41.491 36.1441Z" fill="#727272"/>
<path d="M50.9773 43.7256C50.4151 43.7778 49.9084 43.7144 49.4572 43.5353C49.0134 43.3556 48.6527 43.0798 48.3751 42.7078C48.1041 42.3279 47.9446 41.8787 47.8965 41.3603L47.4327 36.3658C47.4294 36.3293 47.4376 36.2991 47.4575 36.2751C47.484 36.2432 47.5155 36.2255 47.552 36.2222L48.8335 36.1032C48.87 36.0998 48.9005 36.1117 48.9252 36.1388C48.9564 36.158 48.9737 36.1859 48.9771 36.2224L49.4418 41.2279C49.4778 41.6149 49.6237 41.918 49.8798 42.1373C50.1424 42.3486 50.4673 42.4363 50.8543 42.4003C51.2413 42.3644 51.5408 42.2187 51.7527 41.9634C51.9713 41.7001 52.0626 41.3749 52.0267 40.9879L51.562 35.9824C51.5586 35.9459 51.5668 35.9157 51.5867 35.8917C51.6132 35.8598 51.6447 35.8422 51.6812 35.8388L52.9627 35.7198C52.9992 35.7164 53.0298 35.7283 53.0544 35.7555C53.0856 35.7747 53.103 35.8025 53.1063 35.839L53.5701 40.8335C53.6182 41.352 53.5404 41.8232 53.3367 42.2472C53.1397 42.6632 52.8359 43.0007 52.4255 43.2598C52.0223 43.5181 51.5396 43.6734 50.9773 43.7256Z" fill="#727272"/>
<path d="M61.066 42.7889C60.4965 42.8418 59.9861 42.7787 59.535 42.5997C59.0832 42.4133 58.7218 42.1302 58.4508 41.7503C58.1799 41.3703 58.02 40.9175 57.9712 40.3918L57.7363 37.8617C57.6875 37.3359 57.7612 36.8614 57.9576 36.4381C58.154 36.0148 58.4574 35.6736 58.8679 35.4146C59.2784 35.1555 59.7684 34.9995 60.3379 34.9467C60.9002 34.8945 61.4029 34.9546 61.8461 35.127C62.2959 35.2915 62.6556 35.5564 62.9251 35.9217C63.2014 36.279 63.3629 36.7096 63.4096 37.2134C63.4157 37.2791 63.3757 37.3233 63.2894 37.3461L62.015 37.5417L61.9931 37.5438C61.9201 37.5505 61.8799 37.5138 61.8724 37.4335C61.8365 37.0465 61.6872 36.7473 61.4245 36.536C61.1692 36.3241 60.848 36.236 60.461 36.272C60.0667 36.3086 59.7599 36.4549 59.5406 36.7109C59.3287 36.9663 59.2406 37.2875 59.2766 37.6745L59.5216 40.3141C59.5569 40.6938 59.7022 40.9896 59.9576 41.2016C60.2202 41.4129 60.5487 41.5002 60.943 41.4636C61.33 41.4277 61.6295 41.2821 61.8415 41.0267C62.0607 40.7707 62.1527 40.4528 62.1175 40.0731C62.11 39.9928 62.1501 39.9486 62.2377 39.9404L63.5243 39.8762C63.5608 39.8728 63.591 39.8811 63.615 39.9009C63.6462 39.9201 63.6632 39.9443 63.6659 39.9735C63.7127 40.4774 63.6336 40.934 63.4285 41.3433C63.2308 41.752 62.9264 42.0823 62.5152 42.334C62.1113 42.5851 61.6283 42.7367 61.066 42.7889Z" fill="#727272"/>
<path d="M70.2778 41.8453C70.2047 41.8521 70.1539 41.82 70.1252 41.749L69.697 40.7061C69.6797 40.6783 69.66 40.6654 69.6381 40.6674L66.9437 40.9175C66.9218 40.9196 66.9049 40.9359 66.893 40.9664L66.675 42.0693C66.6599 42.1444 66.6158 42.1853 66.5428 42.1921L65.1518 42.3212C65.108 42.3253 65.0741 42.3174 65.0502 42.2975C65.0256 42.2703 65.0182 42.2305 65.028 42.178L66.7064 34.5542C66.7216 34.4792 66.7656 34.4383 66.8387 34.4315L68.5583 34.2718C68.6313 34.265 68.6821 34.2972 68.7108 34.3681L71.7641 41.5526C71.7727 41.5666 71.7781 41.5845 71.7801 41.6064C71.7862 41.6721 71.7491 41.7087 71.6688 41.7161L70.2778 41.8453ZM67.1663 39.6264C67.1631 39.6709 67.1797 39.6915 67.2162 39.6881L69.1439 39.5091C69.1877 39.505 69.2003 39.4818 69.1816 39.4393L67.8939 36.2778C67.8838 36.2493 67.8719 36.2394 67.858 36.248C67.8433 36.2494 67.8334 36.2614 67.8281 36.2839L67.1663 39.6264ZM66.013 33.8674C65.9619 33.8721 65.924 33.8609 65.8994 33.8338C65.8814 33.7986 65.8849 33.7578 65.9101 33.7112L66.6029 32.487C66.634 32.4251 66.6824 32.3912 66.7481 32.3851L68.2048 32.2498C68.2705 32.2437 68.3244 32.2682 68.3663 32.3232L69.3055 33.396C69.3301 33.4232 69.3434 33.4477 69.3455 33.4696C69.3509 33.528 69.3134 33.561 69.2331 33.5684L68.2474 33.6599C68.1816 33.6661 68.1278 33.6416 68.0859 33.5866L67.5857 32.9591C67.5598 32.9173 67.5379 32.9194 67.52 32.9652L67.1439 33.674C67.1128 33.7358 67.0644 33.7698 66.9987 33.7759L66.013 33.8674ZM70.0696 31.9883C70.0869 32.0162 70.0963 32.0374 70.0976 32.052C70.1031 32.1104 70.0693 32.143 69.9962 32.1498L69.0762 32.2352C69.0105 32.2413 68.9567 32.2169 68.9147 32.1618L68.0344 31.1278C68.0177 31.1072 68.008 31.0824 68.0053 31.0532C67.9999 30.9947 68.0337 30.9621 68.1067 30.9554L69.213 30.8527C69.286 30.8459 69.3438 30.8737 69.3864 30.936L70.0696 31.9883Z" fill="#727272"/>
<path d="M75.9401 41.408C75.3778 41.4602 74.8711 41.3967 74.42 41.2177C73.9761 41.0379 73.6154 40.7621 73.3378 40.3902C73.0669 40.0103 72.9073 39.5611 72.8592 39.0426L72.3955 34.0481C72.3921 34.0116 72.4003 33.9814 72.4202 33.9575C72.4467 33.9255 72.4782 33.9079 72.5147 33.9045L73.7962 33.7855C73.8327 33.7821 73.8633 33.794 73.8879 33.8212C73.9192 33.8404 73.9365 33.8682 73.9399 33.9047L74.4046 38.9102C74.4405 39.2972 74.5865 39.6004 74.8425 39.8196C75.1052 40.0309 75.43 40.1186 75.817 40.0827C76.204 40.0467 76.5035 39.9011 76.7155 39.6457C76.9341 39.3824 77.0254 39.0572 76.9895 38.6702L76.5247 33.6647C76.5214 33.6282 76.5296 33.598 76.5495 33.5741C76.576 33.5422 76.6075 33.5245 76.644 33.5211L77.9255 33.4021C77.962 33.3987 77.9925 33.4106 78.0172 33.4378C78.0484 33.457 78.0657 33.4849 78.0691 33.5214L78.5328 38.5159C78.581 39.0343 78.5032 39.5055 78.2995 39.9295C78.1024 40.3455 77.7987 40.683 77.3882 40.9421C76.985 41.2005 76.5023 41.3558 75.9401 41.408Z" fill="#727272"/>
<rect x="36.3022" y="53.7697" width="36.5119" height="2" rx="1" transform="rotate(-5 36.3022 53.7697)" fill="#B5B5B5"/>
<rect x="36.8247" y="59.7468" width="22.1285" height="2" rx="1" transform="rotate(-5 36.8247 59.7468)" fill="#B5B5B5"/>
<rect x="37.3481" y="65.724" width="28.767" height="2" rx="1" transform="rotate(-5 37.3481 65.724)" fill="#B5B5B5"/>
<path d="M73.5641 25.0205C73.6423 25.9139 73.8957 26.7833 74.3098 27.5788C74.724 28.3743 75.2908 29.0805 75.9779 29.6569C76.665 30.2334 77.4589 30.6688 78.3143 30.9384C79.1697 31.208 80.0698 31.3065 80.9633 31.2282L92.048 30.2584L72.5942 13.9348L73.5641 25.0205Z" fill="#E6E8E8"/>
<path d="M100.291 57.45L103.699 96.4013C103.81 97.7127 103.398 99.0147 102.551 100.023C101.705 101.031 100.495 101.663 99.1838 101.781L27.8592 108.021C26.5491 108.132 25.2484 107.719 24.2422 106.873C23.236 106.027 22.6064 104.816 22.4913 103.506L19.0835 64.5548L61.7809 84.9431L100.291 57.45Z" fill="#DADADA"/>
<path d="M102.665 99.6642L74.2443 75.8144L61.8222 84.6858L48.0434 78.1067L24.1947 106.528C24.6951 106.977 25.2819 107.318 25.9191 107.531C26.5563 107.744 27.2304 107.825 27.8998 107.767L99.2273 101.527C99.8969 101.467 100.547 101.27 101.138 100.95C101.729 100.63 102.249 100.192 102.665 99.6642Z" fill="#C9C9C9"/>
</svg>
