<svg width="287" height="88" viewBox="0 0 287 88" fill="none" xmlns="http://www.w3.org/2000/svg">
<path d="M287 79C287 64.7295 222.753 38 143.5 38C64.2471 38 0 64.7295 0 79C0 79 64.2471 79 143.5 79C222.753 79 287 79 287 79Z" fill="url(#paint0_linear_4054_3941)" fill-opacity="0.15"/>
<path d="M185.932 79.6639C185.932 74.0955 166.471 71.6279 142.466 71.6279C118.46 71.6279 99 74.0955 99 79.6639C99 85.2322 118.46 88 142.466 88C166.471 88 185.932 85.2322 185.932 79.6639Z" fill="#F78D8D" fill-opacity="0.15"/>
<path d="M184.857 22.2738L187.577 32.8803C188.471 36.39 187.935 40.111 186.086 43.2257C184.238 46.3405 181.228 48.5943 177.719 49.4919L161.718 53.57C158.757 54.3311 155.625 54.0723 152.829 52.8354C150.034 51.5984 147.736 49.4556 146.308 46.7528C146.253 46.6463 146.222 46.5287 146.217 46.4087C146.213 46.2887 146.235 46.1691 146.283 46.0588C146.33 45.9485 146.402 45.8501 146.492 45.7709C146.582 45.6917 146.689 45.6335 146.805 45.6007L153.943 43.5175C154.256 43.4326 154.583 43.4191 154.902 43.4779C155.22 43.5367 155.521 43.6664 155.782 43.8573C156.292 44.2619 156.887 44.5448 157.523 44.6844C158.159 44.824 158.818 44.8166 159.45 44.6627L175.451 40.5846C176.6 40.2907 177.585 39.553 178.19 38.5334C178.795 37.5138 178.97 36.2958 178.677 35.1471L175.958 24.5372C175.662 23.3897 174.924 22.4061 173.904 21.8016C172.885 21.1971 171.668 21.0211 170.519 21.312L154.518 25.3902C154.473 25.4007 154.428 25.4143 154.385 25.431L149.116 26.7903C145.557 27.7011 142.936 23.4633 145.377 20.7037C147.188 18.6452 149.579 17.1821 152.237 16.5067L168.238 12.4285C171.747 11.5361 175.468 12.0713 178.583 13.9169C181.698 15.7624 183.955 18.7677 184.857 22.2738Z" fill="url(#paint1_linear_4054_3941)"/>
<path d="M140.669 65.4001L128.853 76.9548C126.26 79.4824 122.77 80.8783 119.149 80.8363C115.528 80.7942 112.071 79.3176 109.538 76.7305L101.882 68.914C99.3542 66.3203 97.9583 62.8299 98.001 59.2086C98.0436 55.5873 99.5215 52.1307 102.11 49.5973L113.923 38.0426C115.699 36.3038 117.917 35.0849 120.338 34.5184C123.989 33.6654 126.494 38.1072 123.873 40.7852L115.375 49.4546L108.518 56.1529C107.671 56.982 107.187 58.113 107.173 59.298C107.159 60.483 107.616 61.6251 108.443 62.474L116.099 70.2904C116.927 71.138 118.059 71.622 119.245 71.636C120.43 71.65 121.573 71.1929 122.421 70.3652L134.238 58.8275C134.698 58.3677 135.048 57.8087 135.259 57.1932C135.471 56.5776 135.539 55.9219 135.458 55.2761C135.429 54.9536 135.474 54.6288 135.588 54.3257C135.702 54.0227 135.883 53.7494 136.117 53.5259L141.601 48.52C141.689 48.4393 141.795 48.3791 141.91 48.3439C142.024 48.3086 142.145 48.2991 142.264 48.3159C142.383 48.3328 142.497 48.3757 142.597 48.4415C142.697 48.5073 142.782 48.5945 142.845 48.6967C144.413 51.3201 145.051 54.3953 144.657 57.4259C144.262 60.4565 142.857 63.2657 140.669 65.4001Z" fill="url(#paint2_linear_4054_3941)"/>
<path d="M130.57 18.8788L123.431 6.18901C122.853 5.16948 121.633 4.74808 120.711 5.26804C119.79 5.788 119.505 7.04202 120.086 8.07175L127.225 20.7615C127.802 21.7811 129.019 22.2025 129.944 21.6825C130.869 21.1625 131.147 19.9085 130.57 18.8788Z" fill="url(#paint3_linear_4054_3941)"/>
<path d="M122.027 26.7869C122.137 26.2432 122.048 25.6779 121.776 25.1943C121.504 24.7107 121.067 24.3412 120.544 24.1532L107.436 19.7148C107.194 19.6241 106.934 19.5874 106.675 19.6071C106.417 19.6268 106.166 19.7025 105.939 19.8289C105.713 19.9553 105.517 20.1294 105.364 20.3392C105.212 20.5489 105.107 20.7893 105.057 21.0436C104.947 21.5874 105.036 22.1527 105.308 22.6362C105.58 23.1198 106.017 23.4894 106.539 23.6774L119.647 28.1191C119.89 28.2104 120.15 28.2475 120.409 28.2279C120.668 28.2082 120.92 28.1323 121.146 28.0055C121.373 27.8786 121.569 27.7039 121.721 27.4934C121.873 27.283 121.977 27.0419 122.027 26.7869Z" fill="url(#paint4_linear_4054_3941)"/>
<path d="M140.788 16.2484L143.81 2.74642C143.922 2.20299 143.834 1.63738 143.563 1.15353C143.291 0.669677 142.854 0.300077 142.331 0.112633C142.088 0.0219991 141.828 -0.0146358 141.569 0.00526999C141.311 0.0251758 141.059 0.101144 140.833 0.227904C140.607 0.354663 140.41 0.529175 140.258 0.739319C140.106 0.949462 140.002 1.1902 139.952 1.44482L136.93 14.9468C136.818 15.4902 136.907 16.0555 137.178 16.5392C137.45 17.0229 137.887 17.3926 138.408 17.5806C138.652 17.6719 138.912 17.709 139.171 17.6893C139.43 17.6697 139.681 17.5938 139.908 17.467C140.134 17.3401 140.33 17.1654 140.482 16.9549C140.635 16.7444 140.739 16.5033 140.788 16.2484Z" fill="url(#paint5_linear_4054_3941)"/>
<defs>
<linearGradient id="paint0_linear_4054_3941" x1="143.03" y1="36.5561" x2="143.03" y2="78.7901" gradientUnits="userSpaceOnUse">
<stop stop-color="#F78D8D"/>
<stop offset="1" stop-color="white"/>
</linearGradient>
<linearGradient id="paint1_linear_4054_3941" x1="166.213" y1="12.0065" x2="166.213" y2="53.9982" gradientUnits="userSpaceOnUse">
<stop stop-color="#FFBF74"/>
<stop offset="1" stop-color="#F4973B"/>
</linearGradient>
<linearGradient id="paint2_linear_4054_3941" x1="121.385" y1="34.4113" x2="121.385" y2="80.8372" gradientUnits="userSpaceOnUse">
<stop stop-color="#FFBF74"/>
<stop offset="1" stop-color="#F4973B"/>
</linearGradient>
<linearGradient id="paint3_linear_4054_3941" x1="125.327" y1="5.0448" x2="125.327" y2="21.9057" gradientUnits="userSpaceOnUse">
<stop stop-color="#EA6544"/>
<stop offset="1" stop-color="#D12A1E"/>
</linearGradient>
<linearGradient id="paint4_linear_4054_3941" x1="113.542" y1="19.6019" x2="113.542" y2="28.233" gradientUnits="userSpaceOnUse">
<stop stop-color="#EA6544"/>
<stop offset="1" stop-color="#D12A1E"/>
</linearGradient>
<linearGradient id="paint5_linear_4054_3941" x1="140.37" y1="0" x2="140.37" y2="17.6944" gradientUnits="userSpaceOnUse">
<stop stop-color="#EA6544"/>
<stop offset="1" stop-color="#D12A1E"/>
</linearGradient>
</defs>
</svg>
