<svg width="287" height="106" viewBox="0 0 287 106" fill="none" xmlns="http://www.w3.org/2000/svg">
<path d="M287 86.9999C287 72.7294 222.753 45.9999 143.5 45.9999C64.2471 45.9999 0 72.7294 0 86.9999C0 86.9999 64.2471 86.9999 143.5 86.9999C222.753 86.9999 287 86.9999 287 86.9999Z" fill="url(#paint0_linear_410_754)" fill-opacity="0.15"/>
<path d="M181 97.8532C181 92.4114 161.972 89.9999 138.5 89.9999C115.028 89.9999 96 92.4114 96 97.8532C96 103.295 115.028 106 138.5 106C161.972 106 181 103.295 181 97.8532Z" fill="#F78D8D" fill-opacity="0.15"/>
<path d="M162.404 40.0357L161.75 40.2624C165.434 38.9872 167.407 34.9992 166.208 31.3076C164.97 27.4982 158.711 26.6483 154.927 27.9584L137.373 33.5821C136.662 33.8285 135.93 33.2657 135.986 32.5146L136.555 24.8484C136.586 24.4223 136.577 23.9942 136.527 23.5697L136.123 20.1589C135.336 13.4973 128.592 9.26971 122.253 11.4639C120.306 12.138 119.048 14.0297 119.18 16.0863L119.774 25.3445C119.817 26.016 119.775 26.6903 119.649 27.3514L116.589 43.4354C116.505 43.9074 116.1 45.6974 115.633 47.0141C115.257 48.0722 114.422 48.9346 113.701 49.7958C112.332 51.4329 111.902 53.6602 112.565 55.6891L120.471 79.892C121.536 83.1538 124.563 85.3728 127.994 85.4077L129.091 85.4188C129.339 85.4213 129.586 85.4354 129.833 85.4578C131.543 85.6133 138.842 86.1936 144.496 85.3493C150.944 84.3866 153.935 82.9603 156.377 82.115L170.68 75.1687C173.684 74.1289 175.408 70.8949 174.451 67.8635C173.458 64.7185 170.075 63.0315 166.979 64.1033L169.034 63.3917C172.062 62.3436 173.667 59.0396 172.619 56.012C171.571 52.9843 168.267 51.3795 165.239 52.4275L166.662 51.9348C170.016 50.774 171.767 47.0722 170.506 43.7296C169.291 40.5084 165.658 38.9094 162.404 40.0357Z" fill="url(#paint1_linear_410_754)"/>
<path opacity="0.2" d="M137.896 33.8079L132.544 37.0836C132.022 37.4028 131.235 37.0618 130.781 36.3202C130.328 35.5803 130.381 34.7222 130.903 34.403L134.691 32.0844C135.314 31.7034 136.113 32.1513 136.113 32.8811C136.113 32.9601 136.12 33.04 136.151 33.1127C136.418 33.7401 137.468 34.0695 137.896 33.8079Z" fill="#9D031B" fill-opacity="0.5"/>
<path opacity="0.2" d="M162.404 40.0349C163.905 39.5154 164.062 41.1239 162.561 41.6434L155.717 44.0127C154.895 44.2971 154.002 43.8634 153.718 43.0418C153.434 42.222 153.867 41.3272 154.689 41.0428L160.894 38.8947C162.413 38.369 163.268 39.7361 161.749 40.2618L162.404 40.0349Z" fill="#9D031B" fill-opacity="0.5"/>
<path opacity="0.2" d="M165.24 52.4283C166.722 51.9152 166.855 53.5321 165.373 54.0451L158.614 56.3848C157.792 56.6692 156.898 56.2336 156.615 55.4138C156.331 54.5941 156.764 53.6993 157.586 53.4148L165.786 50.5764C167.283 50.058 168.161 51.417 166.663 51.9354L165.24 52.4283Z" fill="#9D031B" fill-opacity="0.5"/>
<path opacity="0.2" d="M166.979 64.1035C168.463 63.5901 168.597 65.2065 167.114 65.7199L159.933 68.2054C159.112 68.4898 158.218 68.0542 157.934 67.2344C157.651 66.4147 158.084 65.5199 158.905 65.2354L168.139 62.0391C169.622 61.5259 170.517 62.879 169.034 63.3922L166.979 64.1035Z" fill="#9D031B" fill-opacity="0.5"/>
<rect x="89.1572" y="52.0822" width="23" height="48.1397" rx="8" transform="rotate(-17.6538 89.1572 52.0822)" fill="url(#paint2_linear_410_754)"/>
<circle cx="116.995" cy="86.3147" r="2.5" transform="rotate(-4.09324 116.995 86.3147)" fill="white"/>
<path d="M173.5 97C182.613 97 190 89.6127 190 80.5C190 71.3873 182.613 64 173.5 64C164.387 64 157 71.3873 157 80.5C157 89.6127 164.387 97 173.5 97Z" fill="url(#paint3_linear_410_754)"/>
<path d="M171.294 87C170.827 87 170.36 86.8153 170.004 86.4457L166.534 82.8459C165.822 82.1069 165.822 80.9087 166.534 80.1695C167.247 79.4304 168.402 79.4304 169.114 80.1695L171.013 82.1395C171.168 82.3006 171.42 82.3006 171.575 82.1395L178.886 74.5542C179.599 73.8152 180.754 73.8153 181.466 74.5542C182.178 75.2933 182.178 76.4916 181.466 77.2306L172.584 86.4457C172.228 86.8152 171.761 87 171.294 87Z" fill="#F8F3F1"/>
<defs>
<linearGradient id="paint0_linear_410_754" x1="143.03" y1="44.556" x2="143.03" y2="86.7901" gradientUnits="userSpaceOnUse">
<stop stop-color="#F78D8D"/>
<stop offset="1" stop-color="white"/>
</linearGradient>
<linearGradient id="paint1_linear_410_754" x1="135" y1="29.5" x2="159.816" y2="148.143" gradientUnits="userSpaceOnUse">
<stop stop-color="#FFC59A"/>
<stop offset="0.774583" stop-color="#FF826E"/>
<stop offset="1" stop-color="#FF7062"/>
</linearGradient>
<linearGradient id="paint2_linear_410_754" x1="63.6973" y1="-8.57761" x2="97.095" y2="99.2084" gradientUnits="userSpaceOnUse">
<stop stop-color="#FFC59A"/>
<stop offset="1" stop-color="#F95849"/>
</linearGradient>
<linearGradient id="paint3_linear_410_754" x1="190" y1="77.5" x2="154.5" y2="76.5" gradientUnits="userSpaceOnUse">
<stop stop-color="#2DAA00"/>
<stop offset="1" stop-color="#35C800"/>
</linearGradient>
</defs>
</svg>
