<svg width="460" height="432" viewBox="0 0 460 432" fill="none" xmlns="http://www.w3.org/2000/svg">
<rect width="460" height="432" rx="12" fill="white"/>
<path d="M374 121C374 106.729 309.753 80 230.5 80C151.247 80 87 106.729 87 121C87 121 151.247 121 230.5 121C309.753 121 374 121 374 121Z" fill="url(#paint0_linear_18785_58924)" fill-opacity="0.15"/>
<path d="M268 131.853C268 126.411 248.972 124 225.5 124C202.028 124 183 126.411 183 131.853C183 137.295 202.028 140 225.5 140C248.972 140 268 137.295 268 131.853Z" fill="#F78D8D" fill-opacity="0.15"/>
<path fill-rule="evenodd" clip-rule="evenodd" d="M239.834 74.189C239.834 74.189 239.699 71.0248 240.875 69H244.658C244.658 69 242.6 71.6109 242.355 74.2833L239.834 74.189Z" fill="url(#paint1_linear_18785_58924)"/>
<path fill-rule="evenodd" clip-rule="evenodd" d="M234.509 78.9309L235.673 72.8115H261.655L259.893 80.8245L234.509 78.9309Z" fill="url(#paint2_linear_18785_58924)"/>
<path fill-rule="evenodd" clip-rule="evenodd" d="M261.655 72.8115L263.311 73.4222V74.3567L267.225 75.8528L265.155 83.1116L259.757 81.4803L261.655 72.8115Z" fill="#DD6E00"/>
<path fill-rule="evenodd" clip-rule="evenodd" d="M257.806 79.7794L231.521 78.8203L222 119.369L249.662 124.71L257.806 79.7794Z" fill="url(#paint3_linear_18785_58924)"/>
<path fill-rule="evenodd" clip-rule="evenodd" d="M258.392 126.161L266.299 82.936C266.299 82.936 264.504 80.7718 259.06 79.8701L249.662 124.71L258.392 126.161Z" fill="#DD6E00"/>
<path fill-rule="evenodd" clip-rule="evenodd" d="M255.453 105.971C255.453 105.971 258.527 106.48 260.13 107.008L263.829 87.9396C263.829 87.9396 262.645 86.5691 259.436 86.0688L255.453 105.971Z" fill="url(#paint4_linear_18785_58924)"/>
<path opacity="0.5" d="M258.931 117.504C259.328 115.112 258.45 112.974 256.97 112.728C255.489 112.482 253.967 114.221 253.57 116.613C253.172 119.005 254.05 121.143 255.531 121.389C257.011 121.635 258.534 119.895 258.931 117.504Z" fill="#9A2463"/>
<path fill-rule="evenodd" clip-rule="evenodd" d="M259.024 116.923C258.626 119.316 257.106 121.054 255.626 120.808C254.147 120.562 253.269 118.423 253.667 116.033C254.065 113.64 255.585 111.902 257.065 112.148C258.544 112.394 259.422 114.533 259.024 116.923Z" fill="url(#paint5_linear_18785_58924)"/>
<path fill-rule="evenodd" clip-rule="evenodd" d="M258.528 116.841C258.228 118.652 257.077 119.968 255.954 119.779C255.814 119.755 255.683 119.714 255.56 119.648C254.683 119.193 254.204 117.755 254.47 116.164C254.732 114.578 255.65 113.369 256.63 113.221C256.765 113.201 256.905 113.201 257.044 113.226C258.163 113.414 258.827 115.033 258.528 116.841Z" fill="#DD6E00"/>
<path fill-rule="evenodd" clip-rule="evenodd" d="M257.721 116.705C257.458 118.291 256.54 119.496 255.565 119.648C254.687 119.193 254.208 117.754 254.474 116.164C254.737 114.578 255.655 113.369 256.634 113.221C257.503 113.684 257.983 115.123 257.721 116.705Z" fill="url(#paint6_linear_18785_58924)"/>
<path fill-rule="evenodd" clip-rule="evenodd" d="M259.061 79.8659L257.806 79.7798L248.453 124.476L249.662 124.71L259.061 79.8659Z" fill="url(#paint7_linear_18785_58924)"/>
<path fill-rule="evenodd" clip-rule="evenodd" d="M263.492 81.1237L265.156 75.0617L263.803 74.5452L267.226 74.2788L264.012 81.3614L263.492 81.1237Z" fill="url(#paint8_linear_18785_58924)"/>
<path d="M201.263 36.4737L250.463 32.3984C250.463 32.3984 253.019 32.3984 253.658 38.2202C254.297 44.042 252.38 45.0123 252.38 45.0123L204.458 45.9827L201.263 36.4737Z" fill="#F6C3C4"/>
<path fill-rule="evenodd" clip-rule="evenodd" d="M253.788 42.7514C253.788 42.7514 246.53 88.1562 246.304 124.771H190.376C190.376 124.771 190.376 124.754 190.373 124.723C190.358 124.574 190.317 124.078 190.25 123.277C189.846 118.275 188.591 101.383 188.584 82.8175C188.577 73.4093 189.798 63.5667 190.707 54.6269C191.037 51.328 191.453 48.1478 191.961 45.1611C191.961 45.1611 221.186 41.1562 251.205 41.4718L253.788 42.7514Z" fill="url(#paint9_linear_18785_58924)"/>
<path fill-rule="evenodd" clip-rule="evenodd" d="M251.035 41.4541C251.035 41.4541 244.875 76.9871 243.827 124.771H245.809C245.809 124.771 247.023 80.9348 253.788 42.7406L251.035 41.4541Z" fill="#D82F30"/>
<path fill-rule="evenodd" clip-rule="evenodd" d="M246.317 36.4482C244.505 40.9762 244.063 44.8947 243.147 50.4852C240.619 65.9147 237.971 98.3929 240.303 127.484L199.221 127.863L190.574 127.944L190.15 127.948C190.15 127.948 187.007 119.459 186.105 103.111C185.803 97.6407 185.755 91.2943 186.16 84.0901C186.664 75.1816 186.992 66.9479 189.263 55.4662C189.561 53.9453 189.716 50.0325 192.433 42.7876C194.076 38.4059 196.055 36.4482 197.414 35.5426C197.414 35.5426 219.828 30.5869 249.26 32.3982C249.26 32.3982 247.51 33.4647 246.317 36.4482Z" fill="url(#paint10_linear_18785_58924)"/>
<path fill-rule="evenodd" clip-rule="evenodd" d="M240.187 122.054C240.187 122.054 233.95 97.1459 244.732 45.0767C244.47 46.3527 237.166 84.8364 240.187 122.054Z" fill="#D82F30"/>
<g opacity="0.3">
<path opacity="0.8" fill-rule="evenodd" clip-rule="evenodd" d="M237.374 43.7006C224.426 43.8368 211.49 44.6636 198.546 45.0731C198.669 44.4888 198.73 44.1966 198.859 43.6125C211.789 43.1736 224.709 42.2994 237.639 42.1373C237.533 42.7655 237.48 43.0796 237.374 43.7006Z" fill="#D82F30"/>
<path opacity="0.8" fill-rule="evenodd" clip-rule="evenodd" d="M235.303 51.9509C226.152 52.3301 207.763 52.8565 198.622 53.4786C198.622 53.4786 198.766 52.5657 198.865 51.9509C208.002 51.3141 226.391 50.7803 235.542 50.3975C235.447 51.0233 235.399 51.3325 235.303 51.9509Z" fill="#D82F30"/>
<path opacity="0.8" fill-rule="evenodd" clip-rule="evenodd" d="M235.303 60.1013C226.152 60.4805 207.763 61.0069 198.622 61.629C198.622 61.629 198.766 60.7161 198.865 60.1013C208.002 59.4645 226.391 58.9307 235.542 58.5479C235.447 59.1737 235.399 59.4829 235.303 60.1013Z" fill="#D82F30"/>
<path opacity="0.8" fill-rule="evenodd" clip-rule="evenodd" d="M234.078 79.8656C227.538 79.8133 220.999 79.7609 214.456 79.6973C214.477 79.0497 214.49 78.7296 214.518 78.0897C221.077 78.1283 227.633 78.152 234.192 78.1833C234.144 78.848 234.12 79.1859 234.078 79.8656Z" fill="#D82F30"/>
<path opacity="0.8" fill-rule="evenodd" clip-rule="evenodd" d="M235.117 70.7592C226.239 70.803 218.268 70.9219 209.391 70.9547C209.436 70.3378 209.459 70.0293 209.512 69.4128C218.409 69.3625 226.403 69.2263 235.3 69.1724C235.224 69.8062 235.186 70.1213 235.117 70.7592Z" fill="#D82F30"/>
</g>
<path d="M186.327 100.163L190.588 101.665L197.49 105.78C197.49 105.78 193.639 109.614 190.797 113.523C188.757 116.33 185.393 120.685 185.393 120.685L184.443 112.724C184.443 112.724 183.276 112.69 180.715 113.489C178.805 114.084 176.352 115.082 176.352 115.082L181.64 107.35L186.327 100.163Z" fill="url(#paint11_linear_18785_58924)"/>
<path d="M189.56 105.862L193.582 102.993L201.6 99.4029C201.6 99.4029 202.612 105.258 204.324 110.257C205.553 113.846 207.336 119.592 207.336 119.592L199.616 115.44C199.616 115.44 198.853 116.463 197.958 119.257C197.29 121.34 196.643 124.162 196.643 124.162L193.047 114.572L189.56 105.862Z" fill="url(#paint12_linear_18785_58924)"/>
<circle cx="194.606" cy="95.4763" r="15.3862" transform="rotate(17.6268 194.606 95.4763)" fill="url(#paint13_radial_18785_58924)" stroke="#DD6E00" stroke-width="2"/>
<path d="M203.694 107.036C196.431 112.435 186.918 111.878 182.159 105.477C177.401 99.0754 177.652 89.4426 184.915 84.0437C192.178 78.6448 201.923 79.4574 206.682 85.8587C211.44 92.2601 210.563 100.509 203.694 107.036Z" fill="url(#paint14_radial_18785_58924)"/>
<circle cx="194.606" cy="95.4763" r="15.3862" transform="rotate(17.6268 194.606 95.4763)" stroke="#DD6E00" stroke-width="2"/>
<path fill-rule="evenodd" clip-rule="evenodd" d="M185.871 94.5485L188.423 93.3548L190.59 99.1397C190.59 99.1397 197.015 91.5486 204.06 88.7174L205.867 90.464C205.867 90.464 196.243 94.7355 191.272 102.511L188.32 101.619C188.331 101.622 187.033 96.4883 185.871 94.5485Z" fill="#D82F30"/>
<defs>
<linearGradient id="paint0_linear_18785_58924" x1="230.03" y1="78.5561" x2="230.03" y2="120.79" gradientUnits="userSpaceOnUse">
<stop stop-color="#F78D8D"/>
<stop offset="1" stop-color="white"/>
</linearGradient>
<linearGradient id="paint1_linear_18785_58924" x1="242.243" y1="74.2797" x2="242.243" y2="68.9983" gradientUnits="userSpaceOnUse">
<stop stop-color="#FFD328"/>
<stop offset="1" stop-color="#FFA700"/>
</linearGradient>
<linearGradient id="paint2_linear_18785_58924" x1="256.266" y1="80.9797" x2="255.581" y2="71.8015" gradientUnits="userSpaceOnUse">
<stop offset="0.0171" stop-color="#FFD2D2"/>
<stop offset="1" stop-color="white"/>
</linearGradient>
<linearGradient id="paint3_linear_18785_58924" x1="239.903" y1="78.8203" x2="239.903" y2="124.71" gradientUnits="userSpaceOnUse">
<stop stop-color="#FFBF74"/>
<stop offset="1" stop-color="#F4973B"/>
</linearGradient>
<linearGradient id="paint4_linear_18785_58924" x1="262.166" y1="107.413" x2="251.27" y2="90.1886" gradientUnits="userSpaceOnUse">
<stop offset="0.0171" stop-color="#FFD2D2"/>
<stop offset="1" stop-color="white"/>
</linearGradient>
<linearGradient id="paint5_linear_18785_58924" x1="256.346" y1="112.125" x2="256.346" y2="120.831" gradientUnits="userSpaceOnUse">
<stop stop-color="#FFBF74"/>
<stop offset="1" stop-color="#F4973B"/>
</linearGradient>
<linearGradient id="paint6_linear_18785_58924" x1="257.119" y1="119.772" x2="254.233" y2="113.754" gradientUnits="userSpaceOnUse">
<stop offset="0.0171" stop-color="#FFD2D2"/>
<stop offset="1" stop-color="white"/>
</linearGradient>
<linearGradient id="paint7_linear_18785_58924" x1="253.757" y1="79.7798" x2="253.757" y2="124.71" gradientUnits="userSpaceOnUse">
<stop stop-color="#FFBF74"/>
<stop offset="1" stop-color="#F4973B"/>
</linearGradient>
<linearGradient id="paint8_linear_18785_58924" x1="266.484" y1="81.4986" x2="263.302" y2="74.8682" gradientUnits="userSpaceOnUse">
<stop offset="0.0171" stop-color="#FFD2D2"/>
<stop offset="1" stop-color="white"/>
</linearGradient>
<linearGradient id="paint9_linear_18785_58924" x1="220.684" y1="4.2161" x2="221.7" y2="124.766" gradientUnits="userSpaceOnUse">
<stop stop-color="#FFB59A"/>
<stop offset="1" stop-color="#F75A4A"/>
</linearGradient>
<linearGradient id="paint10_linear_18785_58924" x1="234.383" y1="129.617" x2="202.762" y2="41.7937" gradientUnits="userSpaceOnUse">
<stop offset="0.0171" stop-color="#FFD2D2"/>
<stop offset="1" stop-color="white"/>
</linearGradient>
<linearGradient id="paint11_linear_18785_58924" x1="179.611" y1="119.292" x2="189.118" y2="108.91" gradientUnits="userSpaceOnUse">
<stop stop-color="#FFBF74"/>
<stop offset="1" stop-color="#F4973B"/>
</linearGradient>
<linearGradient id="paint12_linear_18785_58924" x1="202.458" y1="123.891" x2="199.142" y2="108.861" gradientUnits="userSpaceOnUse">
<stop stop-color="#FFBF74"/>
<stop offset="1" stop-color="#F4973B"/>
</linearGradient>
<radialGradient id="paint13_radial_18785_58924" cx="0" cy="0" r="1" gradientUnits="userSpaceOnUse" gradientTransform="translate(194.606 95.4763) rotate(87.1857) scale(14.038)">
<stop stop-color="#FFBF74"/>
<stop offset="1" stop-color="#F4973B"/>
</radialGradient>
<radialGradient id="paint14_radial_18785_58924" cx="0" cy="0" r="1" gradientUnits="userSpaceOnUse" gradientTransform="translate(194.318 95.5298) rotate(134.289) scale(28.8064 27.2193)">
<stop stop-color="#FFDC7B"/>
<stop offset="1" stop-color="#F4973B"/>
</radialGradient>
</defs>
</svg>
