<svg width="343" height="179" viewBox="0 0 343 179" fill="none" xmlns="http://www.w3.org/2000/svg">
<path d="M0 12C0 5.37262 5.37258 3.05176e-05 12 3.05176e-05H331C337.627 3.05176e-05 343 5.37261 343 12V167C343 173.627 337.627 179 331 179H12C5.37258 179 0 173.627 0 167V12Z" fill="url(#paint0_linear)"/>
<mask id="mask0" style="mask-type:alpha" maskUnits="userSpaceOnUse" x="0" y="65" width="178" height="114">
<rect y="65" width="178" height="114" fill="#C4C4C4"/>
</mask>
<g mask="url(#mask0)">
<path d="M133.345 98H178C172.594 90.2072 167.323 88.2699 159.484 89.4451C159.547 88.9142 159.579 88.38 159.58 87.8452C159.58 78.5369 150.235 71 138.706 71C127.347 71 118.114 78.3245 117.847 87.4351C115.585 86.2149 113.056 85.5912 110.494 85.6214C103.95 85.6214 98 93.3182 98 97.9535C98 97.9666 98 97.9797 98 97.9942H133.343L133.345 98Z" fill="url(#paint1_linear)"/>
<path d="M80.5552 138.137C81.0267 138.03 81.4562 137.786 81.79 137.436C82.1237 137.086 82.3469 136.645 82.4316 136.169C82.5163 135.693 82.4588 135.202 82.2663 134.759C82.0738 134.315 81.7548 133.938 81.3492 133.675C79.5722 132.627 76.9741 133.944 77.3728 136.125C77.5346 136.81 77.9585 137.404 78.5534 137.78C79.1484 138.157 79.867 138.284 80.5552 138.137Z" fill="white"/>
<path d="M92.4547 133.338C92.8306 133.242 93.1704 133.038 93.4327 132.752C93.6949 132.467 93.8684 132.111 93.9319 131.728C93.9953 131.345 93.9461 130.952 93.7901 130.597C93.6342 130.241 93.3782 129.939 93.0535 129.727C91.611 128.879 89.5144 129.947 89.8423 131.713C89.9743 132.274 90.3233 132.76 90.8129 133.065C91.3025 133.37 91.8928 133.468 92.4547 133.338Z" fill="white"/>
<path d="M80.2509 124.6C80.4805 124.536 80.6867 124.407 80.8443 124.228C81.0019 124.05 81.1042 123.829 81.1387 123.593C81.1731 123.357 81.1384 123.116 81.0385 122.9C80.9387 122.684 80.7782 122.501 80.5764 122.374C80.3715 122.245 80.1346 122.176 79.8925 122.175C79.6504 122.173 79.4127 122.239 79.2062 122.366C78.9997 122.492 78.8326 122.673 78.7236 122.89C78.6147 123.106 78.5683 123.348 78.5897 123.589C78.628 123.767 78.7021 123.935 78.8076 124.084C78.913 124.232 79.0475 124.357 79.203 124.452C79.3584 124.546 79.5315 124.608 79.7116 124.634C79.8918 124.659 80.0753 124.648 80.2509 124.6Z" fill="white"/>
<path d="M38.4458 111.057C40.3217 115.043 39.227 118.725 36.3573 121.866C34.3751 124.029 32.6799 125.884 31.9731 128.833C31.1653 132.207 32.462 135.391 34.407 138.085C37.096 141.805 40.7203 145.328 39.0835 150.308C37.4467 155.287 28.1362 158.959 31.718 165.092C31.7675 165.194 31.7768 165.311 31.744 165.419C31.7112 165.528 31.6386 165.62 31.5408 165.678C31.4431 165.736 31.3272 165.754 31.2162 165.73C31.1053 165.706 31.0074 165.642 30.9421 165.549C28.8165 161.877 31.1707 158.295 33.7587 155.627C35.9959 153.326 38.4458 151.227 38.6583 147.789C38.8656 144.494 36.0013 141.603 34.1466 139.212C31.3354 135.545 30.0972 131.639 31.4895 127.116C32.1485 124.991 33.6152 123.365 35.135 121.802C37.9675 118.858 39.5139 115.484 37.6433 111.503C37.3989 110.972 38.1748 110.526 38.4192 111.052L38.4458 111.057Z" fill="#DD6E00"/>
<path d="M46.2843 129.742C43.7176 133.85 47.6873 137.58 49.0955 141.268C49.6758 142.639 49.9606 144.116 49.9313 145.604C49.902 147.092 49.5593 148.557 48.9255 149.904C45.9336 156.493 37.7125 154.995 32.4515 158.199C31.952 158.507 31.5003 157.726 31.9945 157.423C34.6941 155.776 37.7391 155.361 40.7788 154.676C44.8495 153.757 47.8095 151.333 48.9149 147.236C50.6526 140.816 41.6344 135.502 45.5085 129.29C45.8114 128.796 46.5713 129.247 46.2843 129.742Z" fill="#DD6E00"/>
<path d="M31.3355 158.034C31.8251 156.288 31.9713 154.464 31.7659 152.662C31.6327 151.951 31.3831 151.267 31.0272 150.637C31.0804 150.733 29.4914 148.267 29.1141 149.431C28.2107 152.221 29.8794 155.595 31.835 157.471C32.2548 157.875 31.6171 158.534 31.2026 158.109C29.5797 156.572 28.5125 154.541 28.1682 152.332C28.0141 151.434 27.7005 148.485 29.0291 148.118C30.3576 147.751 31.6862 149.792 32.1113 150.775C33.1263 153.23 32.7862 155.739 32.2017 158.258C32.0741 158.826 31.2026 158.587 31.3355 158.018V158.034Z" fill="#DD6E00"/>
<path d="M31.612 157.891C33.8019 157.539 36.0443 157.721 38.1485 158.422C39.307 158.805 41.0288 159.363 40.7312 160.846C40.4708 162.137 37.7021 162.11 36.8571 161.972C35.8087 161.817 34.81 161.423 33.9383 160.821C33.0666 160.218 32.3452 159.423 31.8299 158.497C31.7851 158.395 31.7793 158.281 31.8136 158.175C31.8479 158.069 31.9199 157.98 32.0159 157.924C32.1119 157.868 32.2251 157.85 32.334 157.872C32.4428 157.894 32.5396 157.956 32.6058 158.045C33.1739 159.048 33.9995 159.881 34.9972 160.458C35.7919 160.88 36.6748 161.109 37.5746 161.127H38.1751C39.1458 161.297 39.5532 160.909 39.3973 159.963C37.2185 158.624 34.3223 158.396 31.8512 158.778C31.2879 158.863 31.0434 157.997 31.612 157.907V157.891Z" fill="#DD6E00"/>
<path d="M47.7883 126.516C49.0165 127.659 49.9734 129.063 50.5889 130.624C50.726 130.881 50.8103 131.163 50.8367 131.453C50.8632 131.743 50.8313 132.036 50.743 132.314C50.3285 133.18 48.9893 133.196 48.2559 132.574C47.5226 131.952 47.2356 130.98 46.9911 130.034C47.075 130.941 46.9288 131.855 46.566 132.691C46.1409 133.483 45.1684 134.062 44.3234 133.754C43.979 133.586 43.6915 133.321 43.4968 132.991C43.3022 132.662 43.2089 132.282 43.2287 131.899C43.2777 131.129 43.4839 130.376 43.8345 129.688C43.3882 130.356 42.7841 130.904 42.0755 131.283C41.3422 131.591 40.3378 131.432 39.9498 130.725C39.5619 130.018 39.9498 129.231 40.3537 128.599C41.3514 127.024 42.7036 125.705 44.3022 124.746" fill="#F4953D"/>
<path d="M67.6847 101.736C66.3136 94.753 59.4264 88.8861 52.0928 89.4175C48.7782 89.6595 45.5754 90.7204 42.7717 92.5051C37.4575 95.938 35.5072 102.554 35.6879 108.602C35.823 112.558 36.8339 116.435 38.6479 119.953C40.0562 122.711 42.8196 127.988 46.1516 128.583C47.2144 128.774 48.2772 128.381 49.2816 127.961C54.5958 125.713 59.6602 122.509 63.242 117.965C66.8238 113.422 68.8113 107.417 67.6847 101.736Z" fill="url(#paint2_linear)"/>
<g style="mix-blend-mode:multiply" opacity="0.18">
<g style="mix-blend-mode:multiply" opacity="0.18">
<path d="M35.6879 108.602C35.5072 102.554 37.4575 95.9381 42.7717 92.5051C45.5739 90.7213 48.7747 89.6605 52.0875 89.4176C52.8988 89.3598 53.7138 89.3794 54.5214 89.476C54.8265 90.4849 54.991 91.531 55.0103 92.5848C55.0688 95.683 53.9953 98.7068 52.518 101.428C51.0406 104.148 49.1488 106.625 47.4323 109.197C46.0931 111.19 44.7752 113.416 44.924 115.818C45.0462 118.104 46.4704 120.139 48.1816 121.664C49.8928 123.189 51.9015 124.295 53.7774 125.644L53.8837 125.724C52.3932 126.559 50.8567 127.31 49.2816 127.972C48.2826 128.392 47.2144 128.785 46.1516 128.594C42.8196 127.999 40.0562 122.722 38.6479 119.964C36.8324 116.442 35.8214 112.561 35.6879 108.602Z" fill="#DE181F"/>
</g>
</g>
<path d="M39.7215 108.278C41.136 108.793 42.3847 109.682 43.3351 110.85C43.4888 111 43.6071 111.182 43.6816 111.383C43.756 111.584 43.7847 111.8 43.7656 112.013C43.638 112.577 42.9684 112.816 42.3945 112.821C41.7502 112.823 41.1159 112.662 40.5502 112.354C39.9846 112.045 39.5058 111.599 39.1582 111.057C39.6197 111.874 39.8442 112.803 39.8065 113.741C39.6736 114.665 38.7862 115.547 37.8828 115.303C37.5741 115.182 37.3008 114.985 37.0881 114.731C36.8755 114.476 36.7302 114.172 36.6658 113.847C36.5327 113.196 36.3551 112.555 36.1344 111.928C35.8785 112.717 35.4562 113.442 34.8962 114.054C34.6073 114.355 34.2309 114.557 33.8207 114.631C33.4104 114.706 32.9872 114.649 32.6111 114.469C31.7555 113.937 31.6758 112.736 31.8299 111.742C32.1133 109.935 32.8198 108.219 33.8918 106.736" fill="#F67861"/>
<path d="M12.3585 79.2993C14.0059 70.8923 21.7647 64.4196 30.4268 65.0413C34.2497 65.3284 37.9426 66.5551 41.1774 68.6125C47.3419 72.5875 49.5898 80.2452 49.3772 87.2387C49.2245 91.8165 48.0574 96.3034 45.9602 100.375C44.3287 103.564 41.1296 109.67 37.2768 110.366C36.0492 110.584 34.811 110.127 33.6578 109.643C27.488 107.045 21.6424 103.335 17.4974 98.0744C13.3523 92.8133 11.0725 85.8677 12.3585 79.2993Z" fill="url(#paint3_linear)"/>
<g style="mix-blend-mode:multiply">
<g style="mix-blend-mode:multiply" opacity="0.18">
<path d="M37.277 110.366C36.0494 110.584 34.8112 110.127 33.658 109.643C30.5 108.336 27.4895 106.697 24.677 104.754C29.2525 104.877 33.8706 104.122 37.1547 101.088C41.4752 97.0966 43.18 89.3751 42.4414 83.5295C41.7239 77.8699 41.1829 73.603 39.5195 67.64C40.0882 67.9376 40.6462 68.2511 41.1829 68.5965C47.3474 72.5716 49.5953 80.2293 49.3827 87.2228C49.2306 91.8064 48.0617 96.299 45.9603 100.375C44.3289 103.569 41.1297 109.67 37.277 110.366Z" fill="#DE181F"/>
</g>
</g>
<path d="M70.6397 156.316C70.4988 156.053 70.2798 155.841 70.0129 155.709C68.2038 154.65 65.7195 154.577 63.6432 154.234C63.4339 152.585 62.9044 150.992 62.0844 149.546C61.9392 149.289 61.7159 149.085 61.4468 148.963C60.8668 148.775 60.3338 149.322 59.9619 149.828C59.0842 151.056 58.3297 152.368 57.7094 153.745C55.7477 153.672 53.5512 153.426 51.7604 154.086C51.4758 154.166 51.2235 154.334 51.0391 154.566C50.718 155.085 51.1222 155.743 51.5234 156.22C52.5193 157.383 53.6292 158.444 54.8366 159.386C54.0868 161.268 53.0494 163.324 53.0128 165.331C52.9916 165.627 53.0636 165.922 53.2188 166.175C53.5893 166.656 54.3502 166.508 54.9343 166.288C56.6308 165.649 58.2468 164.814 59.7492 163.799C61.0471 165.064 62.4896 166.172 64.0469 167.098C64.5776 167.415 65.3073 167.67 65.7494 167.282C65.9482 167.063 66.0732 166.788 66.1069 166.494C66.4479 164.654 65.843 162.575 65.4343 160.67C67.0135 159.901 68.4989 158.952 69.8611 157.844C70.3613 157.453 70.8699 156.876 70.6397 156.316Z" fill="url(#paint4_linear)"/>
<path d="M93.3514 158.805C93.2229 158.463 92.9843 158.175 92.6733 157.985C90.6195 156.43 87.5843 155.996 85.0831 155.279C84.9186 153.215 84.7485 151.08 83.8412 149.328C83.7005 148.99 83.4558 148.706 83.1427 148.517C82.4628 148.205 81.7137 148.793 81.2037 149.376C79.9566 150.76 78.8495 152.264 77.8987 153.865C75.5029 153.5 72.8458 152.859 70.5684 153.449C70.2084 153.503 69.8758 153.673 69.6208 153.933C69.1458 154.513 69.5462 155.383 69.9771 156.018C71.0382 157.591 72.2567 159.051 73.6137 160.377C72.4302 162.584 70.8163 164.96 70.5456 167.397C70.4735 167.756 70.5204 168.128 70.6793 168.457C71.0612 169.096 72.0131 169.02 72.7596 168.841C74.9225 168.297 77.015 167.504 78.995 166.478C80.4102 168.205 82.021 169.762 83.7951 171.117C84.4022 171.576 85.2758 172.021 85.854 171.587C86.1292 171.346 86.3185 171.022 86.3932 170.664C87.0695 168.455 86.6272 165.82 86.3951 163.437C88.4331 162.715 90.3825 161.763 92.2055 160.6C92.8473 160.169 93.5569 159.528 93.3514 158.805Z" fill="url(#paint5_linear)"/>
</g>
<mask id="mask1" style="mask-type:alpha" maskUnits="userSpaceOnUse" x="181" y="35" width="162" height="144">
<rect x="181" y="35" width="162" height="144" fill="#C4C4C4"/>
</mask>
<g mask="url(#mask1)">
<path d="M257.926 133.25L262.159 172.671C262.201 173.151 262.383 173.604 262.68 173.962C262.976 174.32 263.371 174.565 263.805 174.659C271.143 176.363 304.422 182.688 335.29 166.125C335.682 165.91 336.004 165.568 336.211 165.146C336.418 164.724 336.5 164.243 336.446 163.768L331.893 122.111L257.926 133.25Z" fill="#FFC172"/>
<g style="mix-blend-mode:multiply" opacity="0.41">
<g style="mix-blend-mode:multiply" opacity="0.41">
<path d="M336.032 159.993L334.406 145.121C327.427 145.711 320.611 148.021 314.087 150.814C308.574 153.175 303.138 155.904 297.341 157.212C291.544 158.52 285.182 158.292 280.112 154.979C274.796 151.563 271.613 145.228 269.487 138.908C269.091 137.787 268.737 136.577 268.382 135.401L258.925 137.956L262.365 172.836C262.407 173.313 262.588 173.762 262.883 174.118C263.178 174.473 263.571 174.716 264.003 174.81C271.301 176.5 304.159 178.768 334.862 162.332C335.256 162.121 335.58 161.783 335.79 161.364C335.999 160.945 336.084 160.466 336.032 159.993Z" fill="#DD6E00"/>
</g>
</g>
<path d="M262.09 123.371C259.231 123.093 254.739 123.588 252.618 125.81C250.76 127.76 249.454 131.427 249.165 134.047C248.943 135.592 249.127 137.168 249.697 138.62C249.987 139.344 250.437 139.992 251.013 140.515C251.588 141.038 252.274 141.423 253.019 141.64C253.824 141.795 254.653 141.77 255.448 141.57C256.243 141.369 256.985 140.996 257.623 140.477C258.889 139.431 259.996 138.202 260.905 136.83C260.524 137.647 260.32 138.538 260.308 139.442C260.297 140.345 260.477 141.241 260.837 142.068C261.197 142.896 261.728 143.637 262.396 144.241C263.063 144.845 263.851 145.298 264.707 145.57C265.562 145.842 266.466 145.927 267.357 145.819C268.248 145.711 269.105 145.412 269.872 144.943C270.639 144.474 271.297 143.845 271.803 143.099C272.309 142.352 272.651 141.506 272.805 140.616C272.542 141.774 272.65 142.988 273.114 144.081C273.578 145.174 274.374 146.09 275.388 146.699C276.421 147.274 277.592 147.55 278.771 147.495C279.949 147.441 281.09 147.058 282.066 146.39C283.029 145.7 283.814 144.789 284.358 143.733C284.903 142.677 285.189 141.506 285.195 140.316C284.96 141.618 285.125 142.961 285.667 144.166C286.21 145.371 287.104 146.381 288.231 147.062C293.262 149.994 298.976 144.431 298.913 139.326C298.916 140.249 299.115 141.162 299.497 142.002C299.879 142.842 300.435 143.59 301.128 144.196C301.82 144.802 302.633 145.252 303.513 145.515C304.392 145.778 305.317 145.849 306.226 145.723C307.135 145.597 308.007 145.276 308.782 144.783C309.558 144.289 310.22 143.635 310.724 142.863C311.228 142.09 311.562 141.219 311.703 140.306C311.845 139.393 311.791 138.46 311.546 137.57C312.059 141.367 316.386 144.028 320.052 143.014C324.142 141.886 325.03 137.896 326.149 134.341C327.013 136.641 329.94 137.705 332.265 136.954C338.854 134.805 338.387 125.066 336.278 119.913C334.483 115.513 329.452 114.531 325.169 116.049" fill="url(#paint6_linear)"/>
<path d="M255.316 101.148L259.061 128.607C259.111 129.032 259.296 129.429 259.587 129.739C259.879 130.05 260.262 130.258 260.68 130.332C267.741 131.681 299.734 136.559 328.929 121.233C329.299 121.034 329.6 120.724 329.789 120.346C329.978 119.968 330.046 119.541 329.984 119.122L324.73 82.3534L255.316 101.148Z" fill="white"/>
<g style="mix-blend-mode:multiply" opacity="0.41">
<g style="mix-blend-mode:multiply" opacity="0.41">
<path d="M330.004 119.122L328.117 105.895C321.413 106.573 314.903 108.781 308.685 111.414C303.43 113.639 298.258 116.192 292.707 117.485C287.156 118.777 281.028 118.712 276.076 115.868C270.887 112.937 267.686 107.358 265.503 101.767C265.097 100.776 264.73 99.7055 264.364 98.6643L255.317 101.148L259.061 128.607C259.111 129.032 259.296 129.429 259.587 129.739C259.879 130.05 260.262 130.258 260.68 130.332C267.741 131.681 299.734 136.559 328.929 121.233C329.303 121.037 329.608 120.729 329.8 120.35C329.993 119.972 330.064 119.543 330.004 119.122Z" fill="#C4B9B5"/>
</g>
</g>
<path d="M285.711 54.8377C284.612 54.6568 283.574 54.203 282.692 53.5173C281.81 52.8315 281.112 51.9355 280.66 50.9099C279.776 48.8341 279.606 46.5206 280.176 44.3364C280.753 42.1691 281.673 40.1095 282.9 38.2367C284.674 40.6365 286.489 43.1154 287.28 46.0033C288.071 48.8911 287.652 52.3092 285.449 54.3329" fill="#F9A100"/>
<g style="mix-blend-mode:overlay" opacity="0.27">
<g style="mix-blend-mode:overlay" opacity="0.27">
<path d="M284.871 52.9457C284.511 52.8223 284.18 52.6234 283.902 52.3621C283.623 52.1009 283.402 51.7833 283.254 51.4301C282.458 49.9277 282.042 48.2505 282.043 46.5474C282.044 44.8443 282.463 43.1678 283.262 41.6666C284.613 43.1263 285.497 44.9613 285.8 46.9334C286.102 48.9055 285.809 50.9237 284.958 52.7259" fill="white"/>
</g>
</g>
<path d="M328.602 94.4944C329.654 91.1194 328.858 86.8184 328.486 83.3489C328.137 80.1976 327.544 76.3921 324.786 74.4306C321.4 71.9782 316.797 72.166 312.829 71.7798C306.626 71.2099 300.385 71.1924 294.179 71.7274C284.857 72.5023 276.012 73.5509 267.041 76.6211C261.388 78.5517 251.988 80.4322 251.897 87.788C251.837 92.2941 252.255 96.7938 253.143 101.211C253.36 102.781 253.926 104.283 254.8 105.602C255.249 106.253 255.877 106.758 256.607 107.054C257.337 107.35 258.137 107.426 258.909 107.271C261.865 106.394 263.311 100.984 267.04 102.289C268.826 102.907 269.951 104.676 270.76 106.39C271.568 108.103 272.299 109.976 273.774 111.195C274.753 111.982 275.962 112.42 277.214 112.441C278.467 112.462 279.69 112.065 280.694 111.311C282.831 109.626 283.413 106.694 284.355 104.136C285.297 101.579 287.365 98.8698 290.056 99.1599C290.897 99.3224 291.686 99.6855 292.359 100.219C293.032 100.752 293.568 101.44 293.922 102.224C294.719 103.739 295.112 105.436 295.791 107.022C296.837 109.671 298.88 111.796 301.476 112.933C302.776 113.473 304.204 113.616 305.584 113.345C306.964 113.074 308.235 112.401 309.238 111.408C312.228 108.113 310.828 102.763 312.485 98.6252C312.728 97.8845 313.143 97.213 313.697 96.667C314.25 96.1209 314.925 95.7162 315.665 95.4865C318.623 94.8483 321.102 98.415 324.145 98.383C326.211 98.411 327.971 96.5313 328.602 94.4944Z" fill="url(#paint7_linear)"/>
<path d="M259.283 79.2516C255.322 80.9201 255.922 85.8033 260.079 86.893C265.684 88.3623 271.975 88.0168 277.602 87.7164C289.715 87.0717 301.705 84.9401 313.304 81.3689L315.077 80.7929C318.711 79.5696 322.03 77.5527 324.798 74.8882C324.924 74.7668 324.923 74.5467 324.776 74.4506C321.39 71.9981 316.787 72.1859 312.82 71.7998C306.616 71.2299 300.375 71.2124 294.169 71.7473C284.847 72.5223 276.003 73.5708 267.031 76.6411C264.767 77.392 261.907 78.1465 259.283 79.2516Z" fill="url(#paint8_linear)"/>
<path d="M303.113 51.992C303.113 51.992 307.374 49.1752 310.308 50.0364C313.241 50.8976 313.024 53.4005 312.155 54.3437C311.286 55.2869 309.875 54.6524 308.357 53.6455C306.84 52.6386 303.113 51.992 303.113 51.992Z" fill="url(#paint9_linear)"/>
<path d="M301.623 46.812C301.623 46.812 303.323 39.6936 307.201 37.7226C311.079 35.7517 313.275 38.5856 313.286 40.4237C313.296 42.2618 311.217 42.9805 308.667 43.4092C306.118 43.8378 301.623 46.812 301.623 46.812Z" fill="url(#paint10_linear)"/>
<path d="M298.115 43.71C298.115 43.71 299.471 39.077 297.902 36.651C296.333 34.2251 294.154 35.1043 293.547 36.1502C292.941 37.1961 293.893 38.3022 295.207 39.4053C296.521 40.5083 298.115 43.71 298.115 43.71Z" fill="url(#paint11_linear)"/>
<path d="M285.488 59.9455C285.488 59.9455 285.664 59.8342 285.879 59.5433C286.021 59.3698 286.132 59.1735 286.209 58.9626C286.338 58.6904 286.428 58.4013 286.477 58.1038C286.614 57.3378 286.589 56.5512 286.403 55.7956C286.176 54.9041 285.88 54.032 285.516 53.1875C285.141 52.3057 284.797 51.4832 284.502 50.72C284.273 50.0605 284.136 49.3718 284.096 48.6741C284.083 47.4898 284.392 46.7601 284.253 46.6819C284.114 46.6037 283.637 47.3054 283.522 48.6801C283.475 49.4484 283.563 50.2192 283.783 50.9565C284.037 51.8328 284.35 52.6907 284.719 53.5243C285.066 54.3307 285.372 55.1547 285.634 55.9928C285.828 56.6569 285.905 57.3498 285.863 58.0406C285.796 59.1958 285.348 59.8674 285.488 59.9455Z" fill="#272242"/>
<path d="M290.638 59.1662C290.573 58.0238 289.564 57.1692 288.426 57.2922L282.131 57.9728C280.984 58.0969 280.179 59.1632 280.375 60.3003L283.372 77.7396C283.553 78.7923 284.529 79.5169 285.589 79.3853L289.893 78.8508C290.938 78.721 291.703 77.803 291.643 76.7516L290.638 59.1662Z" fill="#CB2728"/>
<path d="M209.496 111.817C209.827 111.741 210.129 111.569 210.363 111.321C210.597 111.074 210.754 110.762 210.814 110.426C210.873 110.089 210.833 109.742 210.698 109.428C210.562 109.115 210.338 108.848 210.054 108.662C208.806 107.921 206.982 108.853 207.262 110.394C207.375 110.879 207.673 111.299 208.091 111.565C208.508 111.831 209.013 111.921 209.496 111.817Z" fill="white"/>
<path d="M226.601 113.944C226.865 113.876 227.104 113.732 227.288 113.53C227.472 113.328 227.594 113.076 227.638 112.806C227.683 112.535 227.648 112.257 227.539 112.006C227.429 111.755 227.25 111.541 227.022 111.391C226.009 110.791 224.537 111.547 224.767 112.795C224.86 113.192 225.105 113.536 225.449 113.751C225.792 113.966 226.207 114.036 226.601 113.944Z" fill="white"/>
<path d="M220.214 97.2565C220.375 97.2112 220.52 97.1198 220.631 96.9933C220.742 96.8668 220.814 96.7107 220.838 96.544C220.863 96.3773 220.838 96.2071 220.768 96.0542C220.698 95.9013 220.586 95.7722 220.444 95.6826C220.3 95.5917 220.134 95.5431 219.964 95.5422C219.794 95.5413 219.627 95.5882 219.482 95.6776C219.337 95.7671 219.219 95.8955 219.143 96.0484C219.066 96.2012 219.033 96.3726 219.048 96.543C219.075 96.6687 219.127 96.7876 219.201 96.8923C219.275 96.9971 219.369 97.0855 219.478 97.1523C219.587 97.219 219.709 97.2627 219.835 97.2806C219.962 97.2985 220.091 97.2903 220.214 97.2565Z" fill="white"/>
<path d="M246.475 146.803C246.649 150.249 243.083 151.237 243.083 151.237L234.782 151.985L235.332 148.694L235.518 147.591L237.315 143.897C239.664 142.175 241.498 141.64 242.885 141.824C245.294 142.142 246.366 144.616 246.475 146.803Z" fill="#D82F30"/>
<path d="M243.688 144.591C242.994 147.24 237.674 148.337 235.334 148.694L235.52 147.591L237.317 143.897C239.667 142.175 241.5 141.64 242.888 141.824C243.565 142.123 244.145 142.848 243.688 144.591Z" fill="#9D031B"/>
<path d="M236.039 148.942L233.134 149.87L232.318 149.363L229.197 147.428L227.909 142.683C227.777 141.865 227.841 141.028 228.095 140.239C228.349 139.45 228.786 138.733 229.37 138.147C230.752 136.896 232.935 136.768 235.267 138.824C239.452 142.51 236.039 148.942 236.039 148.942Z" fill="#D82F30"/>
<path d="M232.317 149.363L229.196 147.428L227.911 142.684C227.779 141.866 227.843 141.028 228.097 140.24C228.351 139.451 228.788 138.734 229.372 138.147C230.375 137.833 231.824 138.035 232.804 140.978C233.689 143.735 233.515 146.725 232.317 149.363Z" fill="#9D031B"/>
<path d="M232.044 148.87L228.401 149.351L227.203 150.404C227.203 150.404 221.001 148.632 219.388 146.181C218.907 145.446 218.71 144.561 218.835 143.69C218.834 143.685 218.834 143.683 218.834 143.68C219.099 141.704 220.85 139.736 223.746 139.197C229.787 138.072 232.044 148.87 232.044 148.87Z" fill="#D82F30"/>
<path d="M228.4 149.351L227.202 150.404C227.202 150.404 221.001 148.633 219.388 146.182C218.907 145.447 218.71 144.561 218.834 143.691C218.834 143.686 218.833 143.683 218.833 143.68C218.957 143.204 219.226 142.779 219.602 142.462C219.978 142.146 220.443 141.955 220.932 141.915C224.666 141.356 227.601 147.49 228.4 149.351Z" fill="#9D031B"/>
<path d="M226.001 148.848L224.275 150.591L223.685 151.188L217.871 153.776C216.263 153.587 215.213 152.019 214.909 150.221C214.542 148.035 215.277 145.509 217.462 144.693C221.447 143.2 226.001 148.848 226.001 148.848Z" fill="#D82F30"/>
<path d="M224.276 150.595L223.689 151.185L217.875 153.773C216.266 153.585 215.216 152.016 214.912 150.219C215.057 149.645 215.366 149.126 215.8 148.725C216.234 148.323 216.776 148.058 217.358 147.96C219.078 147.563 222.557 149.526 224.276 150.595Z" fill="#9D031B"/>
<path d="M238.955 139.92C238.955 139.92 239.893 135.996 242.035 134.9C244.177 133.804 245.39 135.357 245.396 136.369C245.402 137.38 244.254 137.781 242.846 138.026C241.438 138.271 238.955 139.92 238.955 139.92Z" fill="#D82F30"/>
<path d="M228.504 136.548C228.504 136.548 226.286 132.627 227.203 130.093C228.12 127.56 230.294 127.901 231.069 128.723C231.844 129.544 231.21 130.751 230.244 132.026C229.278 133.302 228.504 136.548 228.504 136.548Z" fill="#D82F30"/>
<path d="M216.094 142.525C216.094 142.525 214.396 139.134 212.2 138.593C210.004 138.052 209.225 139.737 209.436 140.666C209.647 141.594 210.784 141.712 212.127 141.633C213.469 141.553 216.094 142.525 216.094 142.525Z" fill="#D82F30"/>
<path d="M249.791 149.283C249.839 148.691 249.365 148.187 248.773 148.198L214.995 148.817C214.407 148.828 213.957 149.344 214.025 149.93L217.066 176.142C217.124 176.64 217.541 177.02 218.041 177.031L246.584 177.62C247.111 177.631 247.554 177.23 247.596 176.703L249.791 149.283Z" fill="url(#paint12_linear)"/>
<path d="M234.093 165.444C238.934 165.071 243.772 164.646 248.605 164.169L248.991 159.271C243.96 159.77 238.924 160.219 233.884 160.619C233.716 156.578 233.581 152.532 233.478 148.479L228.686 148.569C228.792 152.708 228.931 156.846 229.103 160.984C224.542 161.301 219.976 161.583 215.406 161.831L215.965 166.62C220.419 166.389 224.872 166.118 229.321 165.805C229.504 169.626 229.716 173.45 229.956 177.276L234.754 177.377C234.505 173.396 234.284 169.418 234.093 165.444Z" fill="#CB2728"/>
<path d="M211.355 156.028C212.058 158.725 209.399 160.1 209.399 160.1L202.955 162.074L202.85 159.379L202.816 158.476L203.631 155.254C205.207 153.501 206.569 152.772 207.697 152.687C209.654 152.537 210.909 154.316 211.355 156.028Z" fill="#F4973B"/>
<path d="M208.787 154.742C208.672 156.953 204.644 158.707 202.851 159.379L202.817 158.475L203.633 155.254C205.208 153.5 206.571 152.772 207.699 152.686C208.283 152.81 208.861 153.287 208.787 154.742Z" fill="#DD6E00"/>
<path d="M203.45 159.458L201.304 160.675L200.576 160.41L197.789 159.4L195.991 155.86C195.752 155.235 195.665 154.562 195.737 153.896C195.808 153.23 196.036 152.589 196.402 152.028C197.289 150.808 198.995 150.344 201.178 151.582C205.094 153.801 203.45 159.458 203.45 159.458Z" fill="#F4973B"/>
<path d="M200.574 160.411L197.788 159.4L195.992 155.86C195.753 155.235 195.666 154.562 195.738 153.896C195.809 153.23 196.037 152.59 196.403 152.028C197.145 151.613 198.325 151.531 199.583 153.696C200.735 155.73 201.089 158.124 200.574 160.411Z" fill="#DD6E00"/>
<path d="M200.278 160.066L197.474 161.053L196.7 162.085C196.7 162.085 191.503 161.717 189.824 160.046C189.323 159.545 189.022 158.877 188.977 158.168C188.976 158.164 188.975 158.162 188.975 158.16C188.86 156.552 189.922 154.704 192.124 153.795C196.719 151.9 200.278 160.066 200.278 160.066Z" fill="#F4973B"/>
<path d="M197.474 161.054L196.699 162.086C196.699 162.086 191.503 161.717 189.824 160.047C189.323 159.546 189.022 158.878 188.977 158.169C188.976 158.164 188.975 158.163 188.975 158.16C188.994 157.763 189.137 157.382 189.383 157.069C189.628 156.756 189.965 156.527 190.345 156.414C193.207 155.35 196.536 159.714 197.474 161.054Z" fill="#DD6E00"/>
<path d="M204.275 151.835C204.275 151.835 204.373 148.574 205.888 147.351C207.402 146.127 208.617 147.154 208.787 147.953C208.958 148.752 208.116 149.261 207.042 149.689C205.968 150.117 204.275 151.835 204.275 151.835Z" fill="#F4973B"/>
<path d="M195.454 150.908C195.454 150.908 193.055 148.175 193.365 146.018C193.675 143.861 195.45 143.769 196.198 144.29C196.946 144.811 196.643 145.871 196.088 147.041C195.533 148.21 195.454 150.908 195.454 150.908Z" fill="#F4973B"/>
<path d="M186.618 157.702C186.618 157.702 184.718 155.302 182.892 155.24C181.066 155.178 180.726 156.641 181.045 157.34C181.365 158.039 182.284 157.944 183.333 157.657C184.382 157.37 186.618 157.702 186.618 157.702Z" fill="#F4973B"/>
<path d="M214.274 156.548L185.918 163.062L193.13 184.807L217.246 180.248L214.274 156.548Z" fill="url(#paint13_linear)"/>
<path d="M204.62 172.836C208.389 171.735 212.146 170.593 215.892 169.411L215.393 165.472C211.494 166.705 207.584 167.898 203.663 169.054C202.867 165.885 202.095 162.707 201.348 159.518L197.572 160.387C198.336 163.644 199.125 166.894 199.94 170.139C196.384 171.149 192.819 172.132 189.244 173.089L190.473 176.785C193.959 175.861 197.436 174.905 200.905 173.917C201.677 176.909 202.472 179.898 203.291 182.886L207.103 182.166C206.252 179.058 205.425 175.948 204.62 172.836Z" fill="#DD6E00"/>
<path d="M209.464 56.0885H186.014L186 56.0714C189.092 54.3982 192.567 53.5741 196.076 53.6818C196.043 53.4051 196.027 53.1266 196.026 52.848C196.026 47.9953 200.933 44.063 206.987 44.063C212.952 44.063 217.801 47.8835 217.941 52.6375C219.129 52.0013 220.457 51.6761 221.802 51.6919C225.239 51.6919 228.025 53.6515 228.025 56.0693C228.025 56.0764 228.025 56.0824 228.025 56.0905H209.464V56.0885Z" fill="url(#paint14_linear)"/>
</g>
<mask id="mask2" style="mask-type:alpha" maskUnits="userSpaceOnUse" x="0" y="141" width="343" height="38">
<path d="M0 141H343V167C343 173.627 337.627 179 331 179H12C5.37258 179 0 173.627 0 167V141Z" fill="url(#paint15_linear)"/>
</mask>
<g mask="url(#mask2)">
<path d="M-1 151C-1 151 87.2952 178.601 173.229 178.601C259.163 178.601 343 151.261 343 151.261L342.739 176.696C342.739 176.696 267.596 187.092 173.229 187.825C78.8621 188.557 -1 176.696 -1 176.696V151Z" fill="url(#paint16_linear)"/>
<path d="M-1 159.495C-1 159.495 87.2952 179.22 173.229 179.22C259.163 179.22 343 159.495 343 159.495L342.739 177.255C342.739 177.255 267.596 187.982 173.229 188.738C78.8621 189.495 -1 177.255 -1 177.255V159.495Z" fill="url(#paint17_linear)"/>
</g>
<defs>
<linearGradient id="paint0_linear" x1="172" y1="-20.924" x2="172.419" y2="189.996" gradientUnits="userSpaceOnUse">
<stop offset="0.00128356" stop-color="#F5E2E2"/>
<stop offset="0.24452" stop-color="#FFF5EF"/>
<stop offset="1" stop-color="#FCE5D7"/>
</linearGradient>
<linearGradient id="paint1_linear" x1="143.185" y1="55.7285" x2="142.232" y2="102.011" gradientUnits="userSpaceOnUse">
<stop stop-color="white"/>
<stop offset="1" stop-color="white" stop-opacity="0"/>
</linearGradient>
<linearGradient id="paint2_linear" x1="74.9635" y1="94.3106" x2="42.9751" y2="124.788" gradientUnits="userSpaceOnUse">
<stop stop-color="#FFBF74"/>
<stop offset="1" stop-color="#F4973B"/>
</linearGradient>
<linearGradient id="paint3_linear" x1="-5.73111" y1="24.4718" x2="-35.0277" y2="87.9371" gradientUnits="userSpaceOnUse">
<stop stop-color="#FFC59A"/>
<stop offset="1" stop-color="#F95849"/>
</linearGradient>
<linearGradient id="paint4_linear" x1="45.9182" y1="115.399" x2="33.228" y2="160.137" gradientUnits="userSpaceOnUse">
<stop stop-color="#FFC59A"/>
<stop offset="1" stop-color="#F95849"/>
</linearGradient>
<linearGradient id="paint5_linear" x1="61.6438" y1="134.024" x2="82.6046" y2="171.982" gradientUnits="userSpaceOnUse">
<stop stop-color="#FFBF74"/>
<stop offset="1" stop-color="#F4973B"/>
</linearGradient>
<linearGradient id="paint6_linear" x1="239.115" y1="80.4993" x2="270.691" y2="103.161" gradientUnits="userSpaceOnUse">
<stop stop-color="#FFBF74"/>
<stop offset="1" stop-color="#F4973B"/>
</linearGradient>
<linearGradient id="paint7_linear" x1="196.516" y1="23.2223" x2="190.886" y2="117.836" gradientUnits="userSpaceOnUse">
<stop stop-color="#FFC59A"/>
<stop offset="1" stop-color="#F95849"/>
</linearGradient>
<linearGradient id="paint8_linear" x1="238.596" y1="45.3268" x2="239.014" y2="91.8229" gradientUnits="userSpaceOnUse">
<stop stop-color="#FFC59A"/>
<stop offset="1" stop-color="#F95849"/>
</linearGradient>
<linearGradient id="paint9_linear" x1="304.683" y1="65.9507" x2="319.333" y2="65.5691" gradientUnits="userSpaceOnUse">
<stop stop-color="#F95849"/>
<stop offset="1" stop-color="#FFC59A"/>
</linearGradient>
<linearGradient id="paint10_linear" x1="316.756" y1="59.8887" x2="331.743" y2="45.2984" gradientUnits="userSpaceOnUse">
<stop stop-color="#F95849"/>
<stop offset="1" stop-color="#FFC59A"/>
</linearGradient>
<linearGradient id="paint11_linear" x1="297.95" y1="52.1097" x2="310.505" y2="46.4284" gradientUnits="userSpaceOnUse">
<stop stop-color="#F95849"/>
<stop offset="1" stop-color="#FFC59A"/>
</linearGradient>
<linearGradient id="paint12_linear" x1="232.635" y1="109.471" x2="231.534" y2="175.621" gradientUnits="userSpaceOnUse">
<stop stop-color="#FFC59A"/>
<stop offset="1" stop-color="#FF7062"/>
</linearGradient>
<linearGradient id="paint13_linear" x1="204.029" y1="155.02" x2="199.444" y2="185.749" gradientUnits="userSpaceOnUse">
<stop stop-color="#FFBF74"/>
<stop offset="1" stop-color="#F4973B"/>
</linearGradient>
<linearGradient id="paint14_linear" x1="209.198" y1="41.9822" x2="209.17" y2="57.8711" gradientUnits="userSpaceOnUse">
<stop stop-color="white"/>
<stop offset="1" stop-color="white" stop-opacity="0"/>
</linearGradient>
<linearGradient id="paint15_linear" x1="172" y1="136.558" x2="172.019" y2="181.334" gradientUnits="userSpaceOnUse">
<stop offset="0.00128356" stop-color="#F5E2E2"/>
<stop offset="0.24452" stop-color="#FFF5EF"/>
<stop offset="1" stop-color="#FCE5D7"/>
</linearGradient>
<linearGradient id="paint16_linear" x1="7.256" y1="180.355" x2="202.406" y2="13.0777" gradientUnits="userSpaceOnUse">
<stop stop-color="#FFD9C5"/>
<stop offset="0.296" stop-color="#FF8A62"/>
<stop offset="0.64" stop-color="#FF8A62"/>
<stop offset="1" stop-color="#FFD9C5" stop-opacity="0.749"/>
</linearGradient>
<linearGradient id="paint17_linear" x1="7.256" y1="182.77" x2="164.858" y2="13.9049" gradientUnits="userSpaceOnUse">
<stop stop-color="#FEA98F" stop-opacity="0.4"/>
<stop offset="0.305" stop-color="#FFFEFD" stop-opacity="0.8"/>
<stop offset="0.606" stop-color="#FFFEFD" stop-opacity="0.8"/>
<stop offset="1" stop-color="#FEA98F" stop-opacity="0.502"/>
</linearGradient>
</defs>
</svg>
