<svg width="288" height="98" viewBox="0 0 288 98" fill="none" xmlns="http://www.w3.org/2000/svg">
<path d="M287.25 78.7457C287.25 64.4752 223.002 37.7457 143.75 37.7457C64.4967 37.7457 0.249512 64.4752 0.249512 78.7457C0.249512 78.7457 64.4967 78.7457 143.75 78.7457C223.002 78.7457 287.25 78.7457 287.25 78.7457Z" fill="url(#paint0_linear_14462_31659)" fill-opacity="0.15"/>
<path d="M186.25 89.599C186.25 84.1572 167.222 81.7457 143.75 81.7457C120.277 81.7457 101.25 84.1572 101.25 89.599C101.25 95.0409 120.277 97.7457 143.75 97.7457C167.222 97.7457 186.25 95.0409 186.25 89.599Z" fill="#F78D8D" fill-opacity="0.15"/>
<path d="M110.346 88.8625C107.851 86.3829 105.446 83.9918 102.922 81.4827C106.575 77.9109 110.346 74.221 114.087 70.5606C101.616 53.9117 105.862 31.7133 119.996 19.9646C133.536 8.68826 153.549 8.48163 167.386 19.758C175.046 26.0161 179.53 34.1043 180.718 43.9342C181.905 53.7346 179.382 62.5904 173.562 70.5901C177.273 74.3095 180.955 77.9994 184.578 81.6303C182.173 84.0214 179.768 86.4124 177.303 88.8625C173.71 85.2317 170.028 81.5713 166.346 77.8223C159.547 82.752 152.124 85.2907 143.839 85.2907C135.585 85.2907 128.132 82.752 121.421 77.8223C117.68 81.5713 113.998 85.2317 110.346 88.8625ZM139.296 30.9458C139.296 38.8864 139.296 46.6795 139.296 54.5021C142.236 54.5021 145.057 54.5021 147.848 54.5021C147.848 46.591 147.848 38.7979 147.848 30.9458C144.968 30.9458 142.176 30.9458 139.296 30.9458ZM139.207 58.9005C139.207 60.3174 139.207 61.6163 139.207 62.8856C139.207 65.1586 139.207 65.1586 141.464 65.1586C143.602 65.1586 145.74 65.1586 147.877 65.1586C147.877 62.9741 147.877 60.9373 147.877 58.9005C144.968 58.9005 142.176 58.9005 139.207 58.9005Z" fill="url(#paint1_linear_14462_31659)"/>
<path d="M103.754 24.865C98.3202 18.9021 99.3595 9.10172 105.803 3.96537C112.632 -1.46617 121.985 0.51162 126.291 6.03172C118.808 12.2898 111.296 18.5479 103.754 24.865Z" fill="url(#paint2_linear_14462_31659)"/>
<path d="M183.717 24.8353C176.175 18.5477 168.722 12.2896 161.121 5.97246C164.773 2.01688 169.138 0.186691 174.393 0.895153C180.213 1.69217 184.222 4.93929 186.33 10.3708C188.23 15.2415 187.102 21.411 183.717 24.8353Z" fill="url(#paint3_linear_14462_31659)"/>
<path d="M139.296 30.9458C142.147 30.9458 144.968 30.9458 147.848 30.9458C147.848 38.7684 147.848 46.591 147.848 54.5022C145.057 54.5022 142.206 54.5022 139.296 54.5022C139.296 46.7091 139.296 38.8865 139.296 30.9458Z" fill="white"/>
<path d="M139.207 58.9005C142.176 58.9005 144.968 58.9005 147.877 58.9005C147.877 60.9373 147.877 62.9741 147.877 65.1586C145.74 65.1586 143.602 65.1586 141.464 65.1586C139.207 65.1586 139.207 65.1586 139.207 62.8856C139.207 61.5867 139.207 60.3174 139.207 58.9005Z" fill="white"/>
<defs>
<linearGradient id="paint0_linear_14462_31659" x1="143.279" y1="36.3018" x2="143.279" y2="78.5359" gradientUnits="userSpaceOnUse">
<stop stop-color="#F78D8D"/>
<stop offset="1" stop-color="white"/>
</linearGradient>
<linearGradient id="paint1_linear_14462_31659" x1="143.75" y1="11.4033" x2="143.75" y2="88.8625" gradientUnits="userSpaceOnUse">
<stop stop-color="#FFBF74"/>
<stop offset="1" stop-color="#F4973B"/>
</linearGradient>
<linearGradient id="paint2_linear_14462_31659" x1="100.25" y1="0.754578" x2="126.725" y2="0.902633" gradientUnits="userSpaceOnUse">
<stop stop-color="#EA6544"/>
<stop offset="1" stop-color="#D12A1E"/>
</linearGradient>
<linearGradient id="paint3_linear_14462_31659" x1="161.121" y1="0.745728" x2="187.685" y2="0.894909" gradientUnits="userSpaceOnUse">
<stop stop-color="#EA6544"/>
<stop offset="1" stop-color="#D12A1E"/>
</linearGradient>
</defs>
</svg>
