<svg width="287" height="93" viewBox="0 0 287 93" fill="none" xmlns="http://www.w3.org/2000/svg">
<path d="M287 73.7236C287 59.4531 222.753 32.7236 143.5 32.7236C64.2471 32.7236 0 59.4531 0 73.7236C0 73.7236 64.2471 73.7236 143.5 73.7236C222.753 73.7236 287 73.7236 287 73.7236Z" fill="url(#paint0_linear_24914_42642)" fill-opacity="0.15"/>
<path d="M180 84.7244C180 79.2826 160.972 76.8711 137.5 76.8711C114.028 76.8711 95 79.2826 95 84.7244C95 90.1662 114.028 92.8711 137.5 92.8711C160.972 92.8711 180 90.1662 180 84.7244Z" fill="#F78D8D" fill-opacity="0.15"/>
<rect x="144.344" y="27.0911" width="26.8454" height="5.80886" rx="2" transform="rotate(0.657661 144.344 27.0911)" fill="#F8F7F7"/>
<path d="M172.587 39.9713L139.376 63.6846L102.554 46.0984C102.551 46.0794 102.551 46.0602 102.554 46.0412C102.572 45.9107 104.363 44.1247 107.102 41.4725C107.127 41.4477 107.149 41.4233 107.176 41.3976C116.157 32.7002 135.103 14.843 135.103 14.843C135.103 14.843 156.864 29.1389 167.216 36.1439C170.421 38.3108 172.532 39.7804 172.573 39.9171C172.58 39.9344 172.585 39.9526 172.587 39.9713Z" fill="#F5816E"/>
<path d="M148.671 2.66435L110.889 5.96979C109.333 6.10616 107.895 6.85501 106.891 8.05165C105.887 9.24829 105.399 10.7947 105.535 12.3509L110.533 69.4745C110.816 72.7151 114.576 57.8875 117.817 57.604L164.254 70.6863C165.81 70.5501 167.249 69.8015 168.253 68.6049C169.257 67.4084 169.745 65.8621 169.609 64.306L165.448 16.7418L148.671 2.66435Z" fill="#F5E2E2"/>
<path d="M117.105 32.0046C117.075 32.0074 117.046 32.0009 117.02 31.9851C117 31.9628 116.988 31.9368 116.985 31.9069L116.769 29.6376C116.767 29.6137 116.762 29.5961 116.755 29.5846L114.521 26.0412C114.506 26.0184 114.498 26.001 114.497 25.989C114.493 25.9412 114.524 25.9142 114.591 25.9082L115.74 25.8043C115.801 25.7988 115.846 25.8219 115.876 25.8735L117.244 28.1563C117.266 28.1905 117.284 28.1889 117.299 28.1513L118.212 25.6625C118.231 25.6065 118.271 25.5757 118.332 25.5702L119.5 25.4647C119.543 25.4608 119.571 25.4703 119.586 25.4931C119.606 25.5094 119.609 25.5393 119.594 25.5828L118.05 29.4676C118.045 29.4801 118.044 29.4983 118.046 29.5222L118.263 31.7915C118.266 31.8213 118.256 31.8494 118.234 31.8755C118.218 31.8951 118.194 31.9062 118.164 31.909L117.105 32.0046Z" fill="#DE181F"/>
<path d="M125.345 25.9227C125.348 25.9526 125.339 25.9806 125.317 26.0067C125.3 26.0263 125.277 26.0375 125.246 26.0402L122.253 26.3106C122.223 26.3134 122.209 26.3297 122.212 26.3596L122.344 27.7498C122.347 27.7797 122.364 27.7933 122.394 27.7905L124.356 27.6133C124.387 27.6106 124.412 27.6203 124.433 27.6426C124.459 27.6583 124.473 27.6811 124.476 27.711L124.559 28.5811C124.562 28.611 124.552 28.639 124.53 28.6651C124.514 28.6847 124.49 28.6958 124.46 28.6986L122.498 28.8758C122.467 28.8786 122.454 28.8949 122.456 28.9248L122.595 30.3778C122.598 30.4077 122.615 30.4213 122.645 30.4185L125.638 30.1481C125.669 30.1454 125.694 30.1552 125.715 30.1774C125.741 30.1932 125.755 30.216 125.758 30.2459L125.841 31.1159C125.844 31.1458 125.834 31.1738 125.812 31.1999C125.796 31.2195 125.772 31.2307 125.742 31.2334L121.526 31.6143C121.495 31.617 121.467 31.6105 121.441 31.5948C121.42 31.5725 121.409 31.5465 121.406 31.5166L120.828 25.4533C120.825 25.4234 120.831 25.3987 120.848 25.3791C120.87 25.353 120.896 25.3386 120.927 25.3358L125.143 24.9549C125.173 24.9522 125.199 24.9619 125.219 24.9842C125.245 25 125.26 25.0228 125.262 25.0527L125.345 25.9227ZM121.616 24.7488C121.574 24.7527 121.542 24.7434 121.522 24.7212C121.507 24.6924 121.51 24.6589 121.53 24.6209L122.107 23.6189C122.133 23.5683 122.173 23.5406 122.228 23.5356L123.441 23.426C123.496 23.421 123.541 23.4411 123.576 23.4862L124.359 24.3653C124.38 24.3876 124.391 24.4077 124.393 24.4256C124.397 24.4735 124.366 24.5004 124.299 24.5064L123.478 24.5806C123.423 24.5856 123.378 24.5655 123.343 24.5204L122.926 24.0063C122.904 23.972 122.886 23.9737 122.871 24.0112L122.558 24.5913C122.533 24.6419 122.492 24.6697 122.438 24.6746L121.616 24.7488Z" fill="#DE181F"/>
<path d="M129.526 30.9639C129.058 31.0062 128.636 30.9539 128.26 30.8069C127.89 30.6594 127.589 30.4333 127.357 30.1285C127.131 29.8173 126.998 29.4493 126.957 29.0248L126.567 24.9348C126.564 24.9049 126.571 24.8802 126.588 24.8606C126.61 24.8345 126.636 24.82 126.667 24.8173L127.734 24.7208C127.765 24.7181 127.79 24.7278 127.811 24.7501C127.837 24.7658 127.851 24.7887 127.854 24.8186L128.245 28.9175C128.275 29.2344 128.397 29.4828 128.611 29.6625C128.83 29.8357 129.1 29.9077 129.423 29.8786C129.745 29.8495 129.995 29.7305 130.171 29.5215C130.353 29.3061 130.429 29.0399 130.399 28.723L130.008 24.624C130.005 24.5941 130.012 24.5694 130.028 24.5498C130.05 24.5237 130.076 24.5092 130.107 24.5065L131.175 24.41C131.205 24.4073 131.23 24.417 131.251 24.4393C131.277 24.4551 131.291 24.4779 131.294 24.5078L131.684 28.5978C131.725 29.0223 131.661 29.4081 131.491 29.7551C131.327 30.0956 131.074 30.3717 130.733 30.5835C130.397 30.7948 129.995 30.9216 129.526 30.9639Z" fill="#DE181F"/>
<path d="M137.932 30.2046C137.457 30.2474 137.032 30.1954 136.656 30.0484C136.279 29.8955 135.978 29.6634 135.752 29.3521C135.526 29.0408 135.392 28.6699 135.351 28.2394L135.154 26.1675C135.113 25.7369 135.174 25.3484 135.337 25.002C135.5 24.6555 135.753 24.3764 136.095 24.1646C136.436 23.9528 136.845 23.8254 137.319 23.7826C137.788 23.7402 138.207 23.7898 138.576 23.9314C138.951 24.0664 139.251 24.2835 139.476 24.5829C139.706 24.8757 139.841 25.2284 139.88 25.6409C139.885 25.6948 139.852 25.7309 139.78 25.7495L138.719 25.9087L138.7 25.9104C138.639 25.9159 138.606 25.8857 138.6 25.82C138.569 25.503 138.445 25.258 138.226 25.0848C138.013 24.911 137.745 24.8387 137.423 24.8678C137.094 24.8975 136.839 25.0171 136.656 25.2266C136.48 25.4355 136.407 25.6984 136.437 26.0153L136.643 28.1769C136.673 28.4879 136.794 28.7302 137.007 28.904C137.226 29.0772 137.5 29.1489 137.828 29.1193C138.151 29.0901 138.4 28.9711 138.577 28.7622C138.759 28.5527 138.836 28.2925 138.806 27.9816C138.8 27.9158 138.833 27.8796 138.906 27.873L139.978 27.8214C140.008 27.8186 140.034 27.8254 140.053 27.8417C140.08 27.8574 140.094 27.8773 140.096 27.9012C140.135 28.3138 140.07 28.6876 139.899 29.0227C139.735 29.3572 139.481 29.6273 139.139 29.8332C138.803 30.0384 138.4 30.1622 137.932 30.2046Z" fill="#DE181F"/>
<path d="M145.607 29.4389C145.546 29.4443 145.503 29.418 145.479 29.3599L145.122 28.5056C145.107 28.4828 145.091 28.4722 145.073 28.4739L142.828 28.6767C142.81 28.6783 142.796 28.6916 142.786 28.7167L142.605 29.6196C142.592 29.681 142.556 29.7145 142.495 29.72L141.336 29.8247C141.299 29.828 141.271 29.8215 141.251 29.8052C141.231 29.7829 141.224 29.7503 141.233 29.7073L142.625 23.466C142.638 23.4046 142.675 23.3711 142.735 23.3656L144.168 23.2362C144.229 23.2307 144.271 23.257 144.295 23.3152L146.845 29.2003C146.852 29.2117 146.856 29.2264 146.858 29.2444C146.863 29.2982 146.832 29.3281 146.766 29.3342L145.607 29.4389ZM143.012 27.6196C143.01 27.6561 143.024 27.6729 143.054 27.6702L144.66 27.5251C144.697 27.5218 144.707 27.5027 144.691 27.468L143.616 24.8783C143.608 24.8549 143.598 24.8468 143.586 24.8538C143.574 24.8549 143.566 24.8647 143.561 24.8832L143.012 27.6196ZM142.047 22.9031C142.004 22.907 141.973 22.8978 141.952 22.8755C141.937 22.8467 141.94 22.8133 141.961 22.7752L142.537 21.7732C142.563 21.7226 142.604 21.6949 142.658 21.6899L143.872 21.5803C143.927 21.5753 143.972 21.5954 144.007 21.6405L144.79 22.5196C144.811 22.5419 144.822 22.562 144.823 22.5799C144.828 22.6278 144.797 22.6547 144.73 22.6607L143.909 22.7349C143.854 22.7399 143.809 22.7198 143.774 22.6747L143.357 22.1606C143.335 22.1264 143.317 22.128 143.302 22.1655L142.989 22.7456C142.963 22.7962 142.923 22.824 142.868 22.8289L142.047 22.9031ZM145.426 21.3676C145.44 21.3904 145.448 21.4078 145.449 21.4197C145.454 21.4676 145.425 21.4942 145.365 21.4997L144.598 21.569C144.543 21.5739 144.498 21.5538 144.464 21.5088L143.729 20.6614C143.715 20.6446 143.707 20.6242 143.705 20.6003C143.7 20.5524 143.729 20.5258 143.789 20.5203L144.711 20.437C144.772 20.4315 144.82 20.4543 144.856 20.5054L145.426 21.3676Z" fill="#DE181F"/>
<path d="M150.324 29.085C149.856 29.1274 149.434 29.075 149.058 28.9281C148.688 28.7806 148.387 28.5544 148.155 28.2497C147.929 27.9384 147.796 27.5705 147.755 27.1459L147.365 23.0559C147.362 23.026 147.369 23.0013 147.386 22.9817C147.408 22.9556 147.434 22.9412 147.464 22.9384L148.532 22.842C148.563 22.8392 148.588 22.849 148.609 22.8712C148.635 22.887 148.649 22.9098 148.652 22.9397L149.043 27.0387C149.073 27.3556 149.195 27.6039 149.409 27.7836C149.628 27.9568 149.898 28.0289 150.221 27.9998C150.543 27.9706 150.793 27.8516 150.969 27.6427C151.151 27.4272 151.227 27.161 151.197 26.8441L150.806 22.7451C150.803 22.7152 150.81 22.6905 150.826 22.6709C150.848 22.6448 150.874 22.6304 150.905 22.6276L151.972 22.5312C152.003 22.5284 152.028 22.5382 152.049 22.5604C152.075 22.5762 152.089 22.599 152.092 22.6289L152.482 26.7189C152.523 27.1434 152.458 27.5292 152.289 27.8762C152.125 28.2167 151.872 28.4929 151.531 28.7047C151.195 28.9159 150.793 29.0427 150.324 29.085Z" fill="#DE181F"/>
<rect x="117.37" y="37.0181" width="31.4879" height="1.7248" rx="0.862401" transform="rotate(-5 117.37 37.0181)" fill="#DE181F"/>
<rect x="117.821" y="42.1726" width="19.0836" height="1.7248" rx="0.862401" transform="rotate(-5 117.821 42.1726)" fill="#C9C9C9"/>
<rect x="118.272" y="47.3274" width="24.8086" height="1.7248" rx="0.862401" transform="rotate(-5 118.272 47.3274)" fill="#C9C9C9"/>
<path d="M148.163 13.3435C148.228 14.0823 148.444 14.8006 148.798 15.4574C149.153 16.1142 149.639 16.6966 150.23 17.1713C150.821 17.646 151.504 18.0038 152.24 18.2241C152.977 18.4445 153.753 18.5232 154.523 18.4557L165.285 16.8711L148.785 2.8711L148.163 13.3435Z" fill="#F3D6CB"/>
<path d="M149.244 12.4758C149.305 13.2261 149.521 13.9564 149.88 14.6249C150.239 15.2933 150.734 15.8869 151.335 16.3718C151.937 16.8566 152.634 17.2231 153.387 17.4504C154.139 17.6778 154.933 17.7614 155.722 17.6967L165.515 16.8944L148.784 2.87109L149.244 12.4758Z" fill="#FDB96C"/>
<path d="M172.555 40.1917L175.494 73.7832C175.59 74.9142 175.234 76.037 174.504 76.9064C173.774 77.7758 172.73 78.321 171.6 78.4229L110.09 83.8043C108.96 83.9 107.838 83.5438 106.97 82.8139C106.103 82.084 105.56 81.0399 105.46 79.9103L102.521 46.3188L139.344 63.9017L172.555 40.1917Z" fill="#FAAF40"/>
<path d="M174.603 76.5972L150.093 56.0293L139.38 63.68L127.497 58.0061L106.93 82.517C107.361 82.9037 107.867 83.198 108.417 83.3817C108.967 83.5655 109.548 83.6347 110.125 83.5853L171.638 78.2036C172.215 78.1516 172.776 77.9823 173.286 77.7061C173.796 77.4299 174.244 77.0526 174.603 76.5972Z" fill="#F5A537"/>
<path d="M180.964 70.03C179.609 68.0672 177.367 66.7711 174.785 66.7711C171.896 66.7711 169.351 68.42 168.087 70.8935C167.915 71.2309 168.049 71.644 168.386 71.8163L168.386 71.8163C168.724 71.9886 169.137 71.8549 169.309 71.5175C170.348 69.4837 172.433 68.1429 174.785 68.1429C176.728 68.1429 178.499 69.06 179.64 70.5345L179.279 70.2772L179.279 70.2772C178.971 70.057 178.543 70.1284 178.323 70.4367L178.404 70.4948L178.323 70.4367C178.103 70.745 178.174 71.1733 178.482 71.3935L178.54 71.3121L178.482 71.3935L181.016 73.2029L181.016 73.2029C181.451 73.513 182.05 73.2288 182.097 72.707L182.382 69.5861C182.416 69.2088 182.138 68.8751 181.761 68.8407C181.384 68.8063 181.05 69.0842 181.016 69.4615L181.115 69.4706L181.016 69.4615L180.964 70.03Z" fill="white" stroke="white" stroke-width="0.2"/>
<path d="M181.182 76.927L181.182 76.927C181.52 77.0993 181.654 77.5125 181.481 77.8499C180.218 80.3234 177.673 81.9723 174.784 81.9723C172.202 81.9723 169.96 80.6762 168.605 78.7133L168.553 79.2819L168.454 79.2728L168.553 79.2819C168.519 79.6588 168.186 79.937 167.808 79.9027L167.808 79.9027C167.431 79.8683 167.153 79.5346 167.187 79.1573L167.187 79.1573M181.182 76.927L167.187 79.1573M181.182 76.927C180.845 76.7548 180.432 76.8885 180.26 77.2259L180.349 77.2714L180.26 77.2259C179.221 79.2597 177.136 80.6004 174.784 80.6004C172.841 80.6004 171.069 79.6834 169.929 78.2089L170.289 78.4662L170.289 78.4662C170.598 78.6864 171.026 78.615 171.246 78.3067L171.246 78.3067C171.466 77.9984 171.395 77.5701 171.087 77.3499L171.087 77.3499L168.553 75.5405C168.553 75.5405 168.553 75.5405 168.553 75.5405C168.124 75.2337 167.52 75.5087 167.472 76.0364C167.472 76.0364 167.472 76.0364 167.472 76.0364M181.182 76.927L167.472 76.0364M167.187 79.1573L167.472 76.0364M167.187 79.1573L167.472 76.0364" fill="white" stroke="white" stroke-width="0.2"/>
<ellipse cx="173.043" cy="72.6071" rx="14.713" ry="14.736" fill="url(#paint1_linear_24914_42642)"/>
<rect width="15.1571" height="3.57236" rx="1.78618" transform="matrix(-1 8.75592e-08 8.72865e-08 1 180.623 70.5994)" fill="white"/>
<circle cx="174.784" cy="74.3711" r="16.5" fill="url(#paint2_linear_24914_42642)"/>
<circle cx="174.784" cy="74.3711" r="16.5" fill="url(#paint3_linear_24914_42642)"/>
<rect x="166.105" y="72.4846" width="16.998" height="3.41379" rx="1.7069" fill="white"/>
<defs>
<linearGradient id="paint0_linear_24914_42642" x1="143.03" y1="31.2797" x2="143.03" y2="73.5138" gradientUnits="userSpaceOnUse">
<stop stop-color="#F78D8D"/>
<stop offset="1" stop-color="white"/>
</linearGradient>
<linearGradient id="paint1_linear_24914_42642" x1="159.746" y1="72.6071" x2="187.277" y2="72.9211" gradientUnits="userSpaceOnUse">
<stop stop-color="#EA553F"/>
<stop offset="1" stop-color="#D32A30"/>
</linearGradient>
<linearGradient id="paint2_linear_24914_42642" x1="159.872" y1="74.3711" x2="190.747" y2="74.7238" gradientUnits="userSpaceOnUse">
<stop stop-color="#EA553F"/>
<stop offset="1" stop-color="#D32A30"/>
</linearGradient>
<linearGradient id="paint3_linear_24914_42642" x1="159.872" y1="74.3711" x2="190.747" y2="74.7238" gradientUnits="userSpaceOnUse">
<stop stop-color="#EA553F"/>
<stop offset="1" stop-color="#D32A30"/>
</linearGradient>
</defs>
</svg>
