<svg width="33" height="33" viewBox="0 0 33 33" fill="none" xmlns="http://www.w3.org/2000/svg">
<mask id="mask0_105_2015" style="mask-type:alpha" maskUnits="userSpaceOnUse" x="0" y="0" width="33" height="33">
<rect x="0.5" y="0.753418" width="31.9999" height="31.9999" fill="#C4C4C4"/>
</mask>
<g mask="url(#mask0_105_2015)">
<path d="M31.3115 22.8522C31.1296 21.6486 30.5397 20.544 29.6406 19.7233C28.7415 18.9027 27.5877 18.4159 26.3725 18.3444L26.3633 18.3343L25.1843 16.8286C24.8823 16.3532 24.6284 15.8488 24.4264 15.323L24.0054 13.8173C23.9126 13.3198 23.8515 12.8169 23.8226 12.3116L23.6399 10.8059C23.3815 9.73199 22.8343 8.74917 22.0576 7.96382C21.9157 7.82369 21.7244 7.7451 21.525 7.7451C21.3256 7.7451 21.1342 7.82369 20.9923 7.96382L19.4866 9.46951C18.8286 10.1263 17.9368 10.4952 17.0071 10.4952C16.0773 10.4952 15.1855 10.1263 14.5275 9.46951C13.8576 8.81145 13.4761 7.91454 13.4666 6.97554C13.4571 6.03653 13.8205 5.13211 14.477 4.46067C14.5508 4.39163 14.6101 4.30842 14.6511 4.21601C14.6922 4.1236 14.7142 4.02388 14.7159 3.92278C14.7176 3.82167 14.699 3.72126 14.6611 3.62752C14.6231 3.53378 14.5668 3.44862 14.4953 3.37712C14.4238 3.30562 14.3386 3.24924 14.2449 3.21133C14.1511 3.17343 14.0507 3.15477 13.9496 3.15648C13.8485 3.15819 13.7488 3.18022 13.6564 3.22127C13.564 3.26232 13.4808 3.32154 13.4117 3.39541L7.51025 9.29687L8.3692 11.7609L17.506 22.1187C18.7894 23.5444 22.1317 25.8686 24.05 25.8686H29.6129L31.3704 24.363V23.6101C31.3694 23.3564 31.3497 23.1031 31.3115 22.8522Z" fill="#FFC76F" stroke="#985801" stroke-width="0.842104"/>
<path d="M14.2302 9.52709C13.1599 8.53341 12.6883 5.93299 14.0045 4.56626C14.2866 4.32794 14.594 3.81931 14.2302 3.55573C13.847 3.31236 13.6155 3.64921 13.4142 3.83194L7.89673 9.37046L10.7296 13.2349L14.2302 9.52709Z" fill="url(#paint0_linear_105_2015)"/>
<path d="M21.1681 15.3034H24.0692C23.885 14.8148 23.7441 14.311 23.6481 13.7977H21.1681C20.9685 13.7977 20.777 13.877 20.6358 14.0182C20.4946 14.1594 20.4153 14.3509 20.4153 14.5506C20.4153 14.7502 20.4946 14.9417 20.6358 15.0829C20.777 15.2241 20.9685 15.3034 21.1681 15.3034ZM21.1681 18.3156H26.006C25.5646 17.8536 25.1697 17.3493 24.8271 16.8099H21.1681C20.9685 16.8099 20.777 16.8892 20.6358 17.0304C20.4946 17.1716 20.4153 17.3631 20.4153 17.5628C20.4153 17.7624 20.4946 17.9539 20.6358 18.0951C20.777 18.2363 20.9685 18.3156 21.1681 18.3156ZM21.1681 12.2912H23.4654C23.4581 12.1727 23.4519 12.0554 23.4469 11.9392C23.4299 11.5499 23.3749 11.1632 23.2826 10.7847H21.1681C20.9685 10.7847 20.777 10.864 20.6358 11.0052C20.4946 11.1464 20.4153 11.3378 20.4153 11.5375C20.4153 11.7372 20.4946 11.9287 20.6358 12.0698C20.777 12.211 20.9685 12.2903 21.1681 12.2903V12.2912Z" fill="url(#paint1_linear_105_2015)"/>
<path d="M31.3115 22.8522C31.1296 21.6486 30.5397 20.544 29.6406 19.7233C28.7415 18.9027 27.5877 18.4159 26.3725 18.3444L26.3633 18.3343L25.1843 16.8286C24.8823 16.3532 24.6284 15.8488 24.4264 15.323L24.0054 13.8173C23.9126 13.3198 23.8515 12.8169 23.8226 12.3116L23.6399 10.8059C23.3815 9.73199 22.8343 8.74917 22.0576 7.96382C21.9157 7.82369 21.7244 7.7451 21.525 7.7451C21.3256 7.7451 21.1342 7.82369 20.9923 7.96382L19.4866 9.46951C18.8286 10.1263 17.9368 10.4952 17.0071 10.4952C16.0773 10.4952 15.1855 10.1263 14.5275 9.46951C13.8576 8.81145 13.4761 7.91454 13.4666 6.97554C13.4571 6.03653 13.8205 5.13211 14.477 4.46067C14.5508 4.39163 14.6101 4.30842 14.6511 4.21601C14.6922 4.1236 14.7142 4.02388 14.7159 3.92278C14.7176 3.82167 14.699 3.72126 14.6611 3.62752C14.6231 3.53378 14.5668 3.44862 14.4953 3.37712C14.4238 3.30562 14.3386 3.24924 14.2449 3.21133C14.1511 3.17343 14.0507 3.15477 13.9496 3.15648C13.8485 3.15819 13.7488 3.18022 13.6564 3.22127C13.564 3.26232 13.4808 3.32154 13.4117 3.39541L7.51025 9.29687L8.3692 11.7609L17.506 22.1187C18.7894 23.5444 22.1317 25.8686 24.05 25.8686H29.6129L31.3704 24.363V23.6101C31.3694 23.3564 31.3497 23.1031 31.3115 22.8522Z" stroke="#985801" stroke-width="0.842104"/>
<path d="M24.0459 24.3572C20.5091 23.3332 18.2842 22.4625 14.8072 18.6747C12.1937 15.6945 9.75884 12.5623 7.51539 9.29449L5.88339 10.9231C5.74727 11.0594 5.66853 11.2426 5.66336 11.4351C5.65819 11.6276 5.72699 11.8147 5.8556 11.9581C5.8556 11.9581 7.28718 14.737 12.371 20.6427C17.4547 26.5484 20.3667 26.6595 22.493 27.2237C24.6194 27.7879 31.3663 27.6397 31.3663 27.2237V24.3606C28.9614 24.9479 26.4503 24.9468 24.0459 24.3572Z" fill="#F8E0CA" stroke="#985801" stroke-width="0.842104"/>
<path d="M1.44116 21.7123H7.49252" stroke="#985801" stroke-width="1.01052" stroke-linecap="round"/>
<path d="M3.16992 24.3059H9.22128" stroke="#985801" stroke-width="1.01052" stroke-linecap="round"/>
<path d="M6.62842 26.8997H12.6798" stroke="#985801" stroke-width="1.01052" stroke-linecap="round"/>
</g>
<defs>
<linearGradient id="paint0_linear_105_2015" x1="11.1464" y1="3.47052" x2="11.1464" y2="13.2349" gradientUnits="userSpaceOnUse">
<stop stop-color="#E1590A"/>
<stop offset="1" stop-color="#C23102"/>
</linearGradient>
<linearGradient id="paint1_linear_105_2015" x1="23.2106" y1="10.7847" x2="23.2106" y2="18.3156" gradientUnits="userSpaceOnUse">
<stop stop-color="#D95E1D"/>
<stop offset="1" stop-color="#BB3301"/>
</linearGradient>
</defs>
</svg>
