<svg width="32" height="32" viewBox="0 0 32 32" fill="none" xmlns="http://www.w3.org/2000/svg">
<path d="M6.13111 28.6942C6.00068 28.9986 6.30501 29.3029 6.60934 29.1725L7.56582 28.8682L8.13101 29.8246C8.30491 30.0855 8.6962 30.042 8.78315 29.7812L10.1744 26.39C9.13096 26.3465 8.26144 26.0857 7.43539 25.564L6.13111 28.6942Z" fill="#DE181F"/>
<path d="M13.0871 25.5205C12.3915 25.9987 11.3916 26.3466 10.3481 26.3466L11.7394 29.7377C11.8698 30.042 12.2611 30.042 12.3915 29.7812L12.9567 28.8247L13.9132 29.129C14.2175 29.216 14.4784 28.9551 14.3914 28.6508L13.0871 25.5205Z" fill="#DE181F"/>
<path d="M21.0701 4.10669L18.9999 4.10669V6.70669C18.9999 6.9276 18.8208 7.10669 18.5999 7.10669H12.6523H6.93435C6.71344 7.10669 6.53435 6.9276 6.53435 6.70669V4.10669H4.72806C3.17403 4.10669 2.7832 4.82159 2.7832 6.10669L2.78321 25.2553C2.78321 26.3483 2.78322 27.303 4.72546 27.303H5.82654L6.78301 24.9988C5.78306 24.0423 5.13092 22.6946 5.13092 21.2164C5.13092 18.3469 7.47864 16.0427 10.3046 16.0427C13.174 16.0427 15.4783 18.3904 15.4783 21.2164C15.4783 22.6946 14.8261 24.0423 13.8262 24.9988L14.7826 27.303H20.1514C22.4309 27.303 22.7822 26.8507 22.7822 24.8151L22.7822 6.10677C22.7822 4.7057 22.2642 4.10669 21.0701 4.10669ZM20.7823 21.9555L19.7824 23.3902C19.3042 24.1293 18.2607 24.0423 17.826 23.3032C17.6955 23.1293 17.4347 23.1293 17.3043 23.3032L16.8695 24.3032C16.7825 24.5206 16.5217 24.6075 16.2608 24.4771C16.0434 24.3467 15.9565 24.0858 16.0869 23.9119L16.5652 22.9554C16.9999 22.1294 18.1303 22.1294 18.6085 22.9119C18.739 23.0858 18.9998 23.0858 19.0868 22.9119L20.0867 21.4772C20.2172 21.3033 20.478 21.2164 20.6954 21.3468C20.8693 21.4772 20.9128 21.7816 20.7823 21.9555ZM20.7823 14.1062H4.73088C4.47002 14.1062 4.29612 13.8888 4.29612 13.6714C4.29612 13.454 4.47002 13.2366 4.73088 13.2366H20.7823C20.9997 13.2366 21.2171 13.454 21.2171 13.6714C21.2171 13.8888 21.0432 14.1062 20.7823 14.1062ZM21.2171 10.5411C21.2171 10.7585 20.9997 10.9759 20.7823 10.9759H4.73088C4.47002 10.9759 4.29612 10.7585 4.29612 10.5411C4.29612 10.3237 4.47002 10.1064 4.73088 10.1064H20.7823C21.0432 10.1064 21.2171 10.2803 21.2171 10.5411Z" fill="#DE181F"/>
<path d="M29.2166 9.04297H27.4341V23.651H29.2166V9.04297Z" fill="#DE181F"/>
<path d="M26.9995 4.78223C25.7822 4.78223 24.7822 5.78218 24.7822 6.99951V8.17337H29.2168V6.99951C29.2168 5.78218 28.2168 4.78223 26.9995 4.78223Z" fill="#DE181F"/>
<path d="M24.7822 25.7813C24.7822 25.8682 24.8257 25.9987 24.8692 26.0422L26.6517 28.216C26.8256 28.4333 27.1299 28.4333 27.3038 28.216L29.0864 26.0422C29.1298 25.9552 29.1733 25.8682 29.1733 25.7813V24.564H24.7822V25.7813Z" fill="#DE181F"/>
<path d="M26.5647 9.04297H24.7822V23.651H26.5647V9.04297Z" fill="#DE181F"/>
<path fill-rule="evenodd" clip-rule="evenodd" d="M10.2612 16.8689C12.6089 16.8689 14.5653 18.7818 14.5653 21.173C14.5653 23.5642 12.6524 25.4772 10.2612 25.4772C7.91346 25.4772 5.95703 23.5642 5.95703 21.173C5.95703 18.8253 7.86998 16.8689 10.2612 16.8689ZM9.50626 22.5873L9.49758 22.5784L8.36154 21.4423C8.18954 21.2703 8.18954 20.9915 8.36154 20.8195C8.53354 20.6475 8.81241 20.6475 8.9844 20.8195L9.81782 21.6529L11.7118 19.7589C11.8838 19.5869 12.1627 19.5869 12.3347 19.7589C12.5067 19.9309 12.5067 20.2097 12.3347 20.3817L10.1356 22.5809L10.1293 22.5872C10.0776 22.639 10.0161 22.6752 9.95083 22.6958C9.79911 22.7438 9.62655 22.7076 9.50626 22.5873Z" fill="#DE181F"/>
<path d="M17.8163 6.24292H7.73903C7.59357 6.24292 7.47461 6.12428 7.47461 5.9785V3.35985C7.47461 3.21407 7.59357 3.09543 7.73903 3.09543H10.8982C11.1036 2.24506 11.8694 1.61304 12.7829 1.61304C13.6967 1.61304 14.4625 2.24474 14.6676 3.09543H17.8163C17.9621 3.09543 18.0807 3.21439 18.0807 3.35985V5.9785C18.0807 6.12428 17.9617 6.24292 17.8163 6.24292Z" fill="#DE181F"/>
</svg>
