<svg width="33" height="33" viewBox="0 0 33 33" fill="none" xmlns="http://www.w3.org/2000/svg">
<path d="M30.0171 11.4021C30.0191 11.3761 29.8184 11.3538 29.7753 11.3432C29.7717 11.3426 29.7682 11.3414 29.765 11.3395C29.2948 11.1592 16.6246 10.0447 16.6246 10.0447C16.6246 10.0447 3.95826 11.1592 3.49089 11.3395C3.48645 11.3412 3.48187 11.3424 3.47719 11.3432C3.4347 11.3535 3.23288 11.3759 3.234 11.4021C2.48365 11.614 1.82301 12.0652 1.35252 12.6869C0.882037 13.3087 0.627441 14.0671 0.627441 14.8468C0.627441 15.6265 0.882037 16.3849 1.35252 17.0066C1.82301 17.6284 2.48365 18.0795 3.234 18.2914C3.234 18.3177 3.4347 18.3423 3.47719 18.3473C3.48165 18.3492 3.48622 18.3508 3.49089 18.3521C3.95826 18.5335 16.6246 19.6429 16.6246 19.6429C16.6246 19.6429 29.2948 18.5335 29.765 18.3521C29.7678 18.3501 29.7717 18.3498 29.7753 18.3473C29.8184 18.3409 30.0188 18.3163 30.0171 18.2914C30.7683 18.0804 31.4299 17.6296 31.9011 17.0078C32.3724 16.3859 32.6274 15.627 32.6274 14.8468C32.6274 14.0665 32.3724 13.3077 31.9011 12.6858C31.4299 12.0639 30.7683 11.6132 30.0171 11.4021Z" fill="#DE181F"/>
<path d="M4.78318 13.6009H3.46325L3.46045 16.1404H4.72756C4.72756 16.1404 6.173 16.1377 6.173 14.844C6.173 14.844 6.173 13.6009 4.78318 13.6009ZM5.50996 14.8616C5.50996 15.7114 4.57158 15.7195 4.57158 15.7195H4.06004V14.0043H4.60764C4.72503 13.9933 4.8434 14.0077 4.95478 14.0463C5.06616 14.085 5.16796 14.1471 5.25333 14.2284C5.3387 14.3097 5.40565 14.4084 5.44968 14.5178C5.49371 14.6271 5.51378 14.7447 5.50856 14.8624" fill="white"/>
<path d="M8.65153 16.1405H9.29697L8.60373 14.0116C8.55747 13.8921 8.47658 13.7892 8.37145 13.7161C8.26631 13.6429 8.14172 13.6028 8.01364 13.6009C7.89425 13.5866 7.77356 13.5866 7.65417 13.6009C7.52605 13.6028 7.4014 13.6428 7.2962 13.716C7.19101 13.7891 7.11008 13.8921 7.0638 14.0116L6.37085 16.1405H7.00846L7.22565 15.4492H8.43825L8.65181 16.1405H8.65153ZM7.35172 15.043L7.62454 14.172C7.63773 14.1266 7.6653 14.0867 7.7031 14.0583C7.74091 14.0299 7.78691 14.0146 7.83419 14.0146C7.88146 14.0146 7.92746 14.0299 7.96527 14.0583C8.00308 14.0867 8.03065 14.1266 8.04383 14.172L8.3119 15.043H7.35172Z" fill="white"/>
<path d="M12.1616 14.5388H10.8643V14.9444H12.1616V14.5388Z" fill="white"/>
<path d="M10.3915 13.59H9.77686V16.1401H10.3915V13.59Z" fill="white"/>
<path d="M13.2722 13.59H12.6572V16.1401H13.2722V13.59Z" fill="white"/>
<path d="M19.9537 13.59H19.3376V16.1401H19.9537V13.59Z" fill="white"/>
<path d="M24.5145 13.6009H23.9004V16.1404H24.5145V13.6009Z" fill="white"/>
<path d="M18.2438 13.59V14.5387H17.0583V13.59H16.4434V16.1401H17.0583V14.9438H18.2438V16.1396H18.8588V13.59H18.2438Z" fill="white"/>
<path d="M23.4872 15.7072H22.2525C22.2075 15.7074 22.1629 15.6987 22.1213 15.6817C22.0796 15.6647 22.0417 15.6396 22.0098 15.6079C21.9779 15.5762 21.9525 15.5385 21.9351 15.4969C21.9178 15.4554 21.9088 15.4109 21.9087 15.3659V13.6009H21.2937V15.336C21.285 15.4373 21.2973 15.5393 21.3299 15.6356C21.3625 15.732 21.4146 15.8206 21.483 15.8958C21.5513 15.9711 21.6345 16.0314 21.7273 16.073C21.8201 16.1146 21.9205 16.1366 22.0222 16.1377H23.4872V15.7072Z" fill="white"/>
<path d="M25.9818 14.0219H27.2179V13.59H25.7537C25.6519 13.591 25.5514 13.6131 25.4585 13.6548C25.3656 13.6965 25.2823 13.757 25.2139 13.8324C25.1454 13.9078 25.0933 13.9965 25.0608 14.093C25.0282 14.1895 25.0159 14.2916 25.0247 14.3931V16.1379H25.6397V15.1257H27.1349V14.7207H25.6397V14.3623C25.6397 14.3175 25.6486 14.2731 25.6659 14.2317C25.6831 14.1904 25.7083 14.1528 25.7401 14.1212C25.7719 14.0896 25.8096 14.0646 25.8511 14.0476C25.8926 14.0306 25.937 14.0219 25.9818 14.0222" fill="white"/>
<path d="M28.5536 15.7072C28.5086 15.7073 28.4641 15.6986 28.4225 15.6816C28.3809 15.6645 28.3431 15.6394 28.3113 15.6077C28.2794 15.576 28.2541 15.5383 28.2368 15.4968C28.2196 15.4553 28.2107 15.4108 28.2106 15.3658V15.0352H29.6921V14.6284H28.2106V14.3621C28.2105 14.3176 28.2194 14.2735 28.2368 14.2325C28.2541 14.1916 28.2796 14.1546 28.3116 14.1237C28.3437 14.0928 28.3816 14.0688 28.4232 14.0529C28.4648 14.0371 28.5091 14.0299 28.5536 14.0317H29.7886V13.6009H28.323C28.2218 13.6005 28.1216 13.6212 28.0289 13.6618C27.9362 13.7023 27.8529 13.7618 27.7845 13.8363C27.7161 13.9109 27.664 13.999 27.6316 14.0948C27.5991 14.1907 27.5871 14.2923 27.5962 14.3931V15.3359C27.5874 15.4371 27.5996 15.5391 27.6321 15.6353C27.6645 15.7316 27.7164 15.8201 27.7847 15.8954C27.8529 15.9706 27.9359 16.031 28.0285 16.0727C28.1212 16.1144 28.2214 16.1365 28.323 16.1376H29.7933L29.7832 15.7072H28.5533" fill="white"/>
<path d="M16.0095 13.5984H15.1251C14.9459 13.5778 14.7644 13.5953 14.5925 13.6497C14.4206 13.7042 14.2621 13.7944 14.1275 13.9144C13.9928 14.0344 13.8851 14.1816 13.8114 14.3461C13.7376 14.5107 13.6995 14.689 13.6995 14.8694C13.6995 15.0498 13.7376 15.2281 13.8114 15.3927C13.8851 15.5572 13.9928 15.7044 14.1275 15.8244C14.2621 15.9444 14.4206 16.0346 14.5925 16.0891C14.7644 16.1435 14.9459 16.161 15.1251 16.1404H16.0143V15.7113H15.2104C14.9897 15.7073 14.7794 15.6168 14.6248 15.4594C14.4701 15.3019 14.3835 15.09 14.3835 14.8693C14.3835 14.6485 14.4701 14.4367 14.6248 14.2792C14.7794 14.1217 14.9897 14.0312 15.2104 14.0272H16.0095V13.5984Z" fill="white"/>
<path d="M8.121 23.3143C7.89476 23.397 7.65579 23.4395 7.41491 23.4398C7.25871 23.4548 7.10112 23.4354 6.95321 23.383C6.80531 23.3306 6.67067 23.2465 6.55877 23.1365C6.44687 23.0265 6.36042 22.8933 6.30551 22.7463C6.25059 22.5993 6.22853 22.4421 6.24088 22.2856C6.23533 22.124 6.26405 21.963 6.32517 21.8132C6.38628 21.6635 6.47841 21.5283 6.59548 21.4167C6.71255 21.3051 6.85192 21.2196 7.00443 21.1657C7.15693 21.1118 7.31912 21.0908 7.48032 21.1041C7.67665 21.0996 7.8718 21.1355 8.05363 21.2097L7.97956 21.4504C7.8205 21.3795 7.64735 21.346 7.47333 21.3523C7.35006 21.3426 7.22615 21.3598 7.11016 21.4026C6.99416 21.4454 6.88884 21.5129 6.80144 21.6004C6.71405 21.6878 6.64666 21.7932 6.60394 21.9093C6.56121 22.0253 6.54416 22.1492 6.55396 22.2725C6.54123 22.3933 6.55498 22.5154 6.59423 22.6304C6.63349 22.7453 6.69732 22.8504 6.78128 22.9382C6.86524 23.026 6.96731 23.0944 7.08041 23.1387C7.1935 23.1831 7.3149 23.2023 7.43615 23.1949C7.56999 23.2026 7.70393 23.1818 7.82917 23.134V22.4522H7.36851V22.2146H8.12324V23.3143" fill="black"/>
<path d="M9.71653 23.0224C9.71484 23.154 9.72297 23.2856 9.74085 23.416H9.47222L9.44427 23.2083H9.43337C9.37565 23.2865 9.29993 23.3496 9.21263 23.3923C9.12533 23.4349 9.02903 23.4559 8.93189 23.4535C8.86722 23.4583 8.80223 23.4497 8.74106 23.4282C8.67989 23.4066 8.62387 23.3726 8.57656 23.3282C8.52924 23.2838 8.49167 23.2301 8.46623 23.1704C8.44078 23.1108 8.42801 23.0465 8.42874 22.9816C8.42874 22.5844 8.78207 22.3667 9.41604 22.37V22.3362C9.42286 22.2853 9.41796 22.2335 9.4017 22.1847C9.38544 22.136 9.35826 22.0916 9.32223 22.055C9.2862 22.0184 9.24227 21.9904 9.1938 21.9734C9.14534 21.9563 9.09361 21.9506 9.04259 21.9566C8.89013 21.9552 8.74045 21.9975 8.61127 22.0785L8.54363 21.8789C8.70834 21.7833 8.89577 21.7339 9.0862 21.7358C9.59242 21.7358 9.71514 22.0785 9.71514 22.4066V23.0216L9.71653 23.0224ZM9.42415 22.578C9.09821 22.5713 8.72896 22.6297 8.72896 22.9478C8.72538 22.9855 8.73006 23.0236 8.74267 23.0594C8.75527 23.0951 8.77551 23.1277 8.80197 23.1549C8.82843 23.182 8.86049 23.2031 8.89591 23.2166C8.93133 23.2301 8.96926 23.2358 9.00709 23.2332C9.0948 23.2361 9.18115 23.211 9.25369 23.1616C9.32624 23.1122 9.38123 23.0411 9.41073 22.9584C9.42036 22.9277 9.42489 22.8956 9.42415 22.8634V22.578ZM8.95286 21.2921C8.95875 21.3344 8.97637 21.3741 9.00373 21.4068C9.01872 21.4221 9.03669 21.4343 9.05654 21.4424C9.0764 21.4506 9.09771 21.4546 9.11918 21.4543C9.14097 21.4548 9.16265 21.4511 9.18298 21.4432C9.20331 21.4353 9.22188 21.4235 9.23763 21.4085C9.25337 21.3934 9.26598 21.3754 9.27472 21.3554C9.28347 21.3354 9.28818 21.3139 9.28857 21.2921H9.40709C9.40883 21.3301 9.40249 21.368 9.38848 21.4033C9.37447 21.4386 9.35313 21.4705 9.32585 21.4969C9.29858 21.5233 9.266 21.5437 9.23027 21.5566C9.19454 21.5695 9.15649 21.5746 9.11862 21.5717C9.08063 21.5752 9.04232 21.5704 9.00639 21.5576C8.97045 21.5448 8.93776 21.5242 8.9106 21.4974C8.88343 21.4707 8.86245 21.4382 8.84914 21.4025C8.83582 21.3667 8.83048 21.3285 8.8335 21.2905L8.95286 21.2921Z" fill="black"/>
<path d="M9.38361 20.8016L9.09485 21.1421H8.94922L9.15663 20.8016H9.38361Z" fill="black"/>
<path d="M10.1943 22.2177C10.1943 22.0441 10.1915 21.9102 10.1809 21.7732H10.4453L10.4627 22.0413H10.4691C10.5238 21.9461 10.6032 21.8675 10.6989 21.8138C10.7946 21.7601 10.9031 21.7332 11.0128 21.736C11.2395 21.736 11.5928 21.8719 11.5928 22.4349V23.416H11.2951V22.469C11.2951 22.2048 11.1967 21.9798 10.9147 21.9798C10.8244 21.9824 10.7372 22.0133 10.6654 22.0682C10.5936 22.1231 10.5409 22.1991 10.5147 22.2856C10.5 22.3307 10.4931 22.378 10.4943 22.4254V23.4169H10.1952V22.2182" fill="black"/>
<path d="M12.7981 21.0065H13.0969V22.0351H13.1036C13.1604 21.9388 13.2426 21.86 13.3412 21.8072C13.4398 21.7544 13.551 21.7297 13.6626 21.7358C14.0705 21.7358 14.355 22.0751 14.355 22.571C14.355 23.1616 13.9819 23.4538 13.6151 23.4538C13.5036 23.4596 13.3928 23.4337 13.2954 23.379C13.1981 23.3243 13.1183 23.2431 13.0653 23.1449H13.0591L13.0412 23.4163H12.7849C12.795 23.3045 12.7983 23.1368 12.7983 22.9917V21.007L12.7981 21.0065ZM13.0971 22.7586C13.0953 22.7948 13.0987 22.8312 13.1075 22.8665C13.132 22.9665 13.1895 23.0554 13.2706 23.1189C13.3517 23.1824 13.4517 23.2169 13.5547 23.2167C13.8703 23.2167 14.0543 22.9621 14.0543 22.5855C14.0543 22.2523 13.8846 21.9706 13.5654 21.9706C13.4601 21.9732 13.3588 22.0107 13.2772 22.0772C13.1956 22.1437 13.1383 22.2354 13.1145 22.3379C13.1027 22.3787 13.0969 22.4209 13.0971 22.4634V22.7586Z" fill="black"/>
<path d="M15.3986 23.4535C15.2899 23.4546 15.1821 23.4331 15.0822 23.3902C14.9822 23.3474 14.8923 23.2842 14.8181 23.2046C14.7439 23.1251 14.6872 23.031 14.6514 22.9283C14.6156 22.8256 14.6016 22.7166 14.6104 22.6082C14.6008 22.496 14.6148 22.3831 14.6516 22.2768C14.6884 22.1704 14.7471 22.073 14.8239 21.9907C14.9008 21.9085 14.994 21.8433 15.0976 21.7994C15.2012 21.7555 15.3129 21.7338 15.4255 21.7358C15.5343 21.7335 15.6424 21.7541 15.7428 21.7962C15.8431 21.8384 15.9335 21.9012 16.008 21.9806C16.0825 22.06 16.1395 22.1541 16.1753 22.2569C16.2111 22.3598 16.2248 22.469 16.2157 22.5774C16.2256 22.6897 16.2119 22.8028 16.1754 22.9094C16.1389 23.0161 16.0803 23.1138 16.0036 23.1964C15.9269 23.279 15.8337 23.3445 15.7301 23.3888C15.6265 23.4331 15.5147 23.4551 15.402 23.4535H15.3986ZM15.4076 23.2299C15.6941 23.2299 15.9076 22.9618 15.9076 22.5883C15.9076 22.3105 15.7679 21.9605 15.4151 21.9605C15.0624 21.9605 14.912 22.2859 14.912 22.5978C14.912 22.9582 15.1163 23.2296 15.4039 23.2296L15.4076 23.2299Z" fill="black"/>
<path d="M15.8495 21.234L15.5611 21.5731H15.4143L15.6209 21.234H15.8495Z" fill="black"/>
<path d="M18.7309 21.0065V22.9911C18.7309 23.1376 18.7345 23.3039 18.7446 23.4157H18.4765L18.4625 23.1309H18.4553C18.4026 23.2318 18.3224 23.3156 18.224 23.3727C18.1256 23.4298 18.013 23.4578 17.8993 23.4535C17.5021 23.4535 17.1926 23.1164 17.1926 22.6182C17.1901 22.0687 17.5323 21.7358 17.9295 21.7358C18.0266 21.7291 18.1237 21.7486 18.2108 21.7921C18.2979 21.8356 18.3718 21.9015 18.4248 21.9831H18.4315V21.0065H18.7309ZM18.4315 22.4416C18.4324 22.3983 18.4279 22.3551 18.4181 22.313C18.3961 22.2153 18.3415 22.128 18.2633 22.0655C18.185 22.0031 18.0878 21.9692 17.9876 21.9694C17.6801 21.9694 17.4948 22.2412 17.4948 22.6006C17.4948 22.9377 17.6609 23.2128 17.9804 23.2128C18.083 23.2118 18.1822 23.1759 18.2617 23.111C18.3412 23.0462 18.3962 22.9562 18.4178 22.8558C18.428 22.8137 18.4325 22.7703 18.4312 22.727L18.4315 22.4416Z" fill="black"/>
<path d="M20.3852 23.0225C20.3836 23.154 20.3913 23.2856 20.4081 23.4161H20.14L20.1135 23.2084H20.102C20.0441 23.2867 19.9681 23.3499 19.8805 23.3926C19.7929 23.4353 19.6963 23.4562 19.5989 23.4535C19.5342 23.4583 19.4693 23.4496 19.4081 23.428C19.347 23.4064 19.291 23.3724 19.2437 23.328C19.1964 23.2837 19.1589 23.23 19.1334 23.1704C19.1079 23.1108 19.0951 23.0465 19.0957 22.9817C19.0957 22.5845 19.4488 22.3667 20.0839 22.3701V22.3365C20.0907 22.2856 20.0858 22.2338 20.0695 22.185C20.0533 22.1363 20.0261 22.0919 19.9901 22.0552C19.954 22.0186 19.9101 21.9906 19.8616 21.9736C19.8132 21.9565 19.7615 21.9507 19.7104 21.9566C19.5581 21.955 19.4086 21.9973 19.2797 22.0785L19.2106 21.8789C19.3757 21.7833 19.5635 21.7339 19.7543 21.7358C20.2602 21.7358 20.3832 22.0785 20.3832 22.4067V23.0216L20.3852 23.0225ZM20.0906 22.5766C19.7652 22.5702 19.3951 22.6283 19.3951 22.9464C19.3914 22.9843 19.3961 23.0225 19.4088 23.0584C19.4215 23.0943 19.4418 23.127 19.4685 23.1542C19.4951 23.1814 19.5273 23.2024 19.563 23.2158C19.5986 23.2292 19.6367 23.2347 19.6746 23.2318C19.7623 23.2345 19.8486 23.2093 19.9211 23.1599C19.9937 23.1106 20.0488 23.0396 20.0785 22.9571C20.0878 22.9262 20.0922 22.8942 20.0917 22.862L20.0906 22.5766Z" fill="black"/>
<path d="M19.6921 21.234L19.9029 21.5731H19.7561L19.4648 21.234H19.6921Z" fill="black"/>
<path d="M21.007 21.4711C20.9562 21.4702 20.9078 21.4492 20.8724 21.4126C20.8371 21.376 20.8177 21.3268 20.8186 21.276C20.8195 21.2251 20.8406 21.1767 20.8772 21.1414C20.9138 21.106 20.9629 21.0867 21.0137 21.0876C21.0389 21.0867 21.064 21.091 21.0874 21.1002C21.1109 21.1094 21.1321 21.1234 21.15 21.1412C21.1678 21.159 21.1817 21.1803 21.1909 21.2037C21.2001 21.2271 21.2044 21.2522 21.2035 21.2774C21.2045 21.3031 21.2002 21.3287 21.1908 21.3526C21.1815 21.3765 21.1672 21.3983 21.1491 21.4164C21.1309 21.4346 21.1092 21.4489 21.0853 21.4583C21.0614 21.4677 21.0358 21.472 21.0101 21.4711H21.007ZM20.8642 21.7733H21.1627V23.4161H20.8642V21.7733Z" fill="black"/>
<path d="M26.8164 23.4621C26.7647 23.4617 26.7152 23.4407 26.6789 23.4039C26.6426 23.367 26.6223 23.3173 26.6226 23.2656C26.6228 23.2138 26.6435 23.1643 26.6802 23.1278C26.7169 23.0913 26.7665 23.0708 26.8182 23.0708C26.87 23.0708 26.9196 23.0913 26.9563 23.1278C26.9929 23.1643 27.0137 23.2138 27.0139 23.2656C27.0141 23.3173 26.9939 23.367 26.9575 23.4039C26.9212 23.4407 26.8718 23.4617 26.8201 23.4621H26.8164Z" fill="black"/>
<path d="M22.6752 21.0065H22.3767V23.4163H22.6752V21.0065Z" fill="black"/>
<path d="M24.328 23.0213C24.3267 23.153 24.3348 23.2846 24.3524 23.4152H24.084L24.0561 23.2075H24.0451C23.9873 23.2859 23.9113 23.3492 23.8237 23.3919C23.7361 23.4346 23.6394 23.4556 23.542 23.4529C23.4773 23.4577 23.4124 23.449 23.3512 23.4274C23.2901 23.4058 23.2341 23.3718 23.1868 23.3274C23.1395 23.2831 23.102 23.2294 23.0765 23.1698C23.051 23.1102 23.0382 23.0459 23.0388 22.9811C23.0388 22.5841 23.3922 22.3661 24.0273 22.3695V22.3356C24.034 22.2847 24.029 22.2328 24.0127 22.1841C23.9963 22.1354 23.9691 22.091 23.933 22.0543C23.897 22.0177 23.853 21.9898 23.8045 21.9727C23.7561 21.9556 23.7043 21.9498 23.6532 21.9558C23.5009 21.9542 23.3514 21.9965 23.2225 22.0776L23.1546 21.878C23.3195 21.7822 23.5072 21.7328 23.698 21.7349C24.2031 21.7349 24.325 22.0776 24.325 22.4058V23.0208L24.328 23.0213ZM24.0328 22.5757C23.7075 22.5693 23.3371 22.6275 23.3371 22.9456C23.3335 22.9834 23.3383 23.0216 23.351 23.0574C23.3637 23.0933 23.3841 23.1259 23.4107 23.1531C23.4373 23.1803 23.4695 23.2013 23.5051 23.2147C23.5406 23.2282 23.5787 23.2337 23.6166 23.231C23.7044 23.2338 23.7907 23.2087 23.8633 23.1593C23.9359 23.11 23.991 23.0388 24.0205 22.9562C24.0301 22.9254 24.0346 22.8933 24.0337 22.8611L24.0328 22.5757ZM23.7925 21.2323L24.0197 21.5714H23.8671L23.7273 21.3478H23.7242L23.5845 21.5714H23.4316L23.6552 21.2323H23.7925Z" fill="black"/>
<path d="M26.182 22.9688C26.182 23.1379 26.1848 23.2869 26.1957 23.416H25.931L25.9136 23.148H25.9066C25.8518 23.2428 25.7725 23.3212 25.677 23.375C25.5815 23.4287 25.4733 23.4558 25.3638 23.4535C25.1063 23.4535 24.7966 23.3076 24.7966 22.7337V21.773H25.096V22.6792C25.096 22.9914 25.1938 23.2053 25.4622 23.2053C25.5477 23.2039 25.6308 23.1769 25.7009 23.1279C25.771 23.0789 25.8248 23.0101 25.8555 22.9302C25.8751 22.8819 25.8846 22.83 25.8834 22.7779V21.7716H26.1817V22.9671" fill="black"/>
</svg>
