<svg width="33" height="33" viewBox="0 0 33 33" fill="none" xmlns="http://www.w3.org/2000/svg">
<path d="M15.9399 30.4926C12.2956 30.4926 8.80064 29.0449 6.22377 26.4681C3.64689 23.8912 2.19922 20.3962 2.19922 16.7519C2.19922 13.1077 3.64689 9.6127 6.22377 7.03582C8.80064 4.45895 12.2956 3.01128 15.9399 3.01128C18.1203 3.00559 20.2699 3.52561 22.2066 4.52728C21.308 5.59665 20.7978 6.93868 20.7591 8.33491C20.7204 9.73114 21.1554 11.0994 21.9933 12.2169C22.8312 13.3344 24.0227 14.1355 25.3739 14.4896C26.725 14.8437 28.1562 14.7301 29.4346 14.1673C29.8138 16.1544 29.7498 18.2008 29.2472 20.1604C28.7446 22.12 27.8157 23.9445 26.5268 25.5037C25.2379 27.063 23.6207 28.3186 21.7907 29.181C19.9607 30.0433 17.9629 30.4912 15.9399 30.4926ZM15.7399 21.4379L18.7719 23.0379C18.8782 23.0943 18.9968 23.1236 19.1172 23.1233C19.1592 23.1239 19.2012 23.1203 19.2425 23.1126C19.4362 23.0784 19.6085 22.9692 19.7221 22.8086C19.8357 22.6481 19.8814 22.4493 19.8492 22.2553L19.2666 18.8779L21.7199 16.4873C21.8182 16.3903 21.8876 16.2678 21.9202 16.1336C21.9529 15.9993 21.9475 15.8587 21.9048 15.7273C21.862 15.596 21.7835 15.4791 21.6781 15.3899C21.5727 15.3006 21.4445 15.2425 21.3079 15.2219L17.9186 14.7299L16.4012 11.6633C16.3399 11.5389 16.2449 11.4343 16.127 11.3612C16.0092 11.2881 15.8732 11.2496 15.7346 11.2499C15.5958 11.2491 15.4596 11.2875 15.3417 11.3606C15.2238 11.4337 15.1289 11.5386 15.0679 11.6633L13.5599 14.7219L10.1692 15.2139C9.99093 15.2398 9.82817 15.3298 9.71137 15.467C9.59456 15.6041 9.53171 15.7791 9.53455 15.9593C9.53553 16.0567 9.55584 16.1529 9.59429 16.2424C9.63274 16.3319 9.68858 16.4129 9.75855 16.4806L12.2106 18.8779L11.6319 22.2553C11.6085 22.3918 11.6239 22.5321 11.6761 22.6604C11.7283 22.7887 11.8154 22.8999 11.9274 22.9813C12.0395 23.0627 12.1721 23.1111 12.3102 23.1211C12.4484 23.1312 12.5866 23.1023 12.7092 23.0379L15.7399 21.4379Z" fill="#DE181F"/>
<path d="M27.0209 4.83545C27.7682 4.83545 28.4988 5.05706 29.1202 5.47227C29.7416 5.88747 30.2259 6.47762 30.5119 7.16808C30.7979 7.85854 30.8727 8.61831 30.7269 9.3513C30.5811 10.0843 30.2212 10.7576 29.6928 11.286C29.1643 11.8145 28.491 12.1744 27.758 12.3202C27.025 12.466 26.2653 12.3911 25.5748 12.1051C24.8844 11.8191 24.2942 11.3348 23.879 10.7134C23.4638 10.092 23.2422 9.36147 23.2422 8.61412C23.2422 7.61195 23.6403 6.65083 24.3489 5.9422C25.0576 5.23356 26.0187 4.83545 27.0209 4.83545Z" fill="#DE181F"/>
</svg>
