<svg width="32" height="32" viewBox="0 0 32 32" fill="none" xmlns="http://www.w3.org/2000/svg">
<path d="M29.7675 5.49739H29.1359V4.97721C29.1359 4.67997 28.9129 4.45703 28.6157 4.45703H22.2249C21.9276 4.45703 21.7047 4.67997 21.7047 4.97721V5.49739H21.0731C20.2928 5.49739 19.6611 6.12904 19.6611 6.90931V7.87536C19.6611 8.7671 20.2185 9.58453 21.0359 9.91893L23.3024 10.8107C23.3396 10.8478 23.4139 10.9221 23.451 10.9593L24.2313 11.6281C24.3428 11.7396 24.4542 11.8882 24.4542 12.074V13.0772H24.0084C23.4139 13.0772 22.968 13.5602 22.968 14.1175V14.6377C22.968 14.7863 23.0795 14.8978 23.2281 14.8978H27.6868C27.8354 14.8978 27.9469 14.7863 27.9469 14.6377V14.1175C27.9469 13.523 27.4638 13.0772 26.9065 13.0772H26.4606V12.074C26.4606 11.8882 26.535 11.7396 26.6836 11.6281L27.4638 10.9593C27.501 10.9221 27.5753 10.8478 27.6125 10.8107L29.879 9.91893C30.6964 9.58453 31.2537 8.7671 31.2537 7.87536V6.90931C31.1794 6.12904 30.5478 5.49739 29.7675 5.49739ZM21.4446 8.99003C20.9987 8.80425 20.7015 8.39554 20.7015 7.91252V6.94647C20.7015 6.72353 20.8873 6.57491 21.0731 6.57491H21.7047V7.13225C21.7047 7.91252 21.8905 8.65563 22.1877 9.32444L21.4446 8.99003ZM30.1019 7.87536C30.1019 8.35839 29.8418 8.7671 29.3959 8.95288L28.6157 9.25012C28.9501 8.58132 29.0987 7.83821 29.0987 7.05793V6.5006H29.7303C29.9533 6.5006 30.1019 6.68638 30.1019 6.87216L30.1019 7.87536Z" fill="url(#paint0_linear_281_5818)"/>
<path d="M25.4691 10.0862L27.1753 8.35759C27.6392 7.8824 27.6392 7.11913 27.1678 6.64768C26.6964 6.17624 25.9331 6.1725 25.4579 6.64019C24.9827 6.1725 24.2194 6.17624 23.748 6.64768C23.2728 7.12287 23.2728 7.89364 23.748 8.36506L25.4691 10.0862Z" fill="white"/>
<path d="M27.835 16.3301H23.0971C22.8503 16.3301 22.6483 16.532 22.6483 16.7788V21.3121H17.7309C17.484 21.3121 17.2821 21.514 17.2821 21.7608V25.5517H10.7198C10.4729 25.5517 10.271 25.7537 10.271 26.0005V28.0539H3.70023C3.45341 28.0539 3.25146 28.2559 3.25146 28.5027V29.8415C3.25146 30.0884 3.45341 30.2903 3.70023 30.2903H27.835C28.0818 30.2903 28.2838 30.0884 28.2838 29.8415V16.7788C28.2838 16.532 28.0818 16.3301 27.835 16.3301Z" fill="#F8E0CA"/>
<path d="M6.15922 16.9951L4.94422 24.4078C4.78642 25.3705 5.52935 26.2451 6.50492 26.2451C7.27793 26.2451 7.93767 25.6863 8.06488 24.9239L9.19891 18.1269L7.09699 17.4478C6.77362 17.3508 6.45025 17.1891 6.15922 16.9951Z" fill="#FFC76F" stroke="#985801" stroke-width="1.01052" stroke-linejoin="round"/>
<path d="M4.65643 14.0981L5.36785 11.5758L6.75834 10.8967L6.24095 15.9413C6.17628 16.6851 6.629 17.3642 7.34041 17.6229L11.7059 19.0134L11.7491 22.1651C11.761 23.0328 12.4678 23.73 13.3356 23.73C14.2186 23.73 14.9317 23.009 14.9221 22.126L14.875 17.8169C14.875 17.1378 14.4222 16.5557 13.7755 16.3294L11.0268 15.4563L11.8029 11.9962L13.1288 13.7101C13.4521 14.1305 14.0019 14.3245 14.4869 14.1951L17.4943 13.419C18.2057 13.225 18.6261 12.5136 18.432 11.8022C18.238 11.0908 17.5266 10.6704 16.8152 10.8644L14.6486 11.4141L12.9994 9.27989C12.9347 9.21522 12.9024 9.15054 12.8377 9.08587C12.385 8.69782 11.8676 8.43913 11.2855 8.30978L8.82792 7.79238C8.08417 7.6307 7.30807 7.72771 6.66133 8.05108L3.71866 9.47391C3.39528 9.6356 3.13659 9.92663 3.03958 10.2823L2.16647 13.3867C1.97245 14.0981 2.3605 14.8095 3.07191 15.0036C3.20126 15.0359 3.33061 15.0682 3.42762 15.0682C3.97735 15.0682 4.49475 14.6802 4.65643 14.0981Z" fill="#FFC76F" stroke="#985801" stroke-width="1.01052" stroke-linejoin="round"/>
<path d="M11.3316 6.40203C12.7661 6.40203 13.9289 5.2392 13.9289 3.80478C13.9289 2.37035 12.7661 1.20752 11.3316 1.20752C9.89721 1.20752 8.73438 2.37035 8.73438 3.80478C8.73438 5.2392 9.89721 6.40203 11.3316 6.40203Z" fill="#FFC76F" stroke="#985801" stroke-width="1.01052" stroke-linejoin="round"/>
<defs>
<linearGradient id="paint0_linear_281_5818" x1="25.4574" y1="4.45703" x2="25.4574" y2="14.4817" gradientUnits="userSpaceOnUse">
<stop stop-color="#E1590A"/>
<stop offset="1" stop-color="#C23102"/>
</linearGradient>
</defs>
</svg>
