<svg width="32" height="32" viewBox="0 0 32 32" fill="none" xmlns="http://www.w3.org/2000/svg">
<mask id="mask0_3741_104816" style="mask-type:alpha" maskUnits="userSpaceOnUse" x="0" y="0" width="32" height="32">
<rect y="32" width="32" height="32" transform="rotate(-90 0 32)" fill="#C4C4C4"/>
</mask>
<g mask="url(#mask0_3741_104816)">
<path d="M11.3768 3.98273C11.7267 3.97794 12.068 4.08684 12.3455 4.29181L27.4117 15.6576C27.5925 15.7941 27.7391 15.9679 27.8409 16.1662C27.9426 16.3645 27.9969 16.5823 27.9997 16.8035C28.0024 17.0247 27.9537 17.2437 27.8569 17.4445C27.7602 17.6453 27.618 17.8227 27.4407 17.9637L12.727 29.6421C12.5709 29.7658 12.3909 29.8587 12.1975 29.9155C12.0041 29.9723 11.801 29.9918 11.5998 29.9731C11.1934 29.9353 10.8195 29.7437 10.5602 29.4404C10.301 29.1372 10.1776 28.7472 10.2173 28.3561C10.257 27.9651 10.4565 27.6051 10.772 27.3554L24.008 16.8519L10.4451 6.62695C10.1944 6.43817 10.011 6.1791 9.92006 5.88553C9.82913 5.59196 9.83523 5.27837 9.93751 4.9881C10.0398 4.69782 10.2332 4.44519 10.491 4.26509C10.7488 4.085 11.0583 3.98633 11.3768 3.98273Z" fill="#C6C6C6" stroke="#C6C6C6" stroke-width="0.2"/>
</g>
</svg>
