<svg width="11" height="15" viewBox="0 0 11 15" fill="none" xmlns="http://www.w3.org/2000/svg">
<path d="M9.31149 14.0086C9.13651 14.011 8.96586 13.9566 8.82712 13.8541L1.29402 8.1712C1.20363 8.10293 1.13031 8.01604 1.07943 7.91689C1.02856 7.81774 1.00144 7.70887 1.00005 7.59827C0.998661 7.48766 1.02305 7.37814 1.07141 7.27775C1.11978 7.17736 1.1909 7.08865 1.27955 7.01814L8.63636 1.17893C8.71445 1.1171 8.80442 1.07066 8.90112 1.04227C8.99783 1.01387 9.09938 1.00408 9.19998 1.01344C9.40316 1.03235 9.59013 1.12816 9.71976 1.27978C9.84939 1.4314 9.91106 1.62642 9.89121 1.82193C9.87135 2.01745 9.7716 2.19744 9.6139 2.32231L2.99589 7.57403L9.77733 12.6865C9.90265 12.7809 9.99438 12.9104 10.0398 13.0572C10.0853 13.204 10.0823 13.3608 10.0311 13.506C9.97999 13.6511 9.88328 13.7774 9.75437 13.8675C9.62546 13.9575 9.4707 14.0068 9.31149 14.0086Z" fill="#985801" stroke="#985801" stroke-width="0.2"/>
</svg>
