<svg width="13" height="9" viewBox="0 0 13 9" fill="none" xmlns="http://www.w3.org/2000/svg">
<path d="M0.742446 0.97745C0.740349 1.13056 0.787991 1.27988 0.877669 1.40127L5.8502 7.99274C5.90994 8.07183 5.98597 8.13598 6.07272 8.1805C6.15947 8.22501 6.25474 8.24874 6.35152 8.24996C6.44829 8.25117 6.54413 8.22983 6.63197 8.18751C6.71981 8.14519 6.79743 8.08296 6.85913 8.0054L11.9684 1.56818C12.0225 1.49986 12.0632 1.42114 12.088 1.33652C12.1129 1.2519 12.1214 1.16304 12.1132 1.07501C12.0967 0.897236 12.0129 0.733639 11.8802 0.620213C11.7475 0.506788 11.5769 0.452824 11.4058 0.470195C11.2347 0.487566 11.0772 0.574847 10.968 0.712838L6.37273 6.5036L1.89929 0.569839C1.8167 0.460179 1.70336 0.379914 1.57492 0.340133C1.44648 0.300353 1.30929 0.30302 1.18229 0.347766C1.0553 0.392513 0.94477 0.47713 0.865978 0.589927C0.787186 0.702725 0.744021 0.838135 0.742446 0.97745Z" fill="#985801" stroke="#985801" stroke-width="0.2"/>
</svg>
