<svg width="8" height="11" viewBox="0 0 8 11" fill="none" xmlns="http://www.w3.org/2000/svg">
<path d="M1.26541 0.493524C1.39664 0.491727 1.52463 0.532563 1.62868 0.60943L7.27851 4.8716C7.3463 4.9228 7.4013 4.98797 7.43945 5.06233C7.4776 5.13669 7.49795 5.21835 7.49899 5.3013C7.50003 5.38425 7.48174 5.46639 7.44546 5.54169C7.40919 5.61698 7.35585 5.68351 7.28936 5.73639L1.77175 10.1158C1.71319 10.1622 1.64571 10.197 1.57318 10.2183C1.50065 10.2396 1.42449 10.2469 1.34904 10.2399C1.19665 10.2257 1.05643 10.1539 0.959206 10.0402C0.861984 9.92645 0.81573 9.78018 0.830619 9.63355C0.845508 9.48692 0.920321 9.35192 1.0386 9.25826L6.00211 5.31948L0.916028 1.48511C0.822034 1.41432 0.753235 1.31716 0.719137 1.20707C0.68504 1.09698 0.687326 0.97939 0.72568 0.870537C0.764034 0.761684 0.836563 0.666945 0.933246 0.599409C1.02993 0.531873 1.146 0.494875 1.26541 0.493524Z" fill="#069000"/>
</svg>
