<svg width="11" height="8" viewBox="0 0 11 8" fill="none" xmlns="http://www.w3.org/2000/svg">
<path d="M10.5065 1.26639C10.5083 1.39762 10.4674 1.52561 10.3906 1.62966L6.1284 7.27949C6.0772 7.34728 6.01203 7.40227 5.93767 7.44043C5.86331 7.47858 5.78165 7.49892 5.6987 7.49996C5.61575 7.501 5.53361 7.48272 5.45831 7.44644C5.38302 7.41016 5.31649 7.35682 5.26361 7.29034L0.884201 1.77273C0.837827 1.71416 0.802998 1.64669 0.781701 1.57416C0.760405 1.50163 0.753058 1.42546 0.760082 1.35001C0.774266 1.19763 0.84612 1.0574 0.959836 0.960183C1.07355 0.862961 1.21982 0.816707 1.36645 0.831596C1.51308 0.846485 1.64808 0.921297 1.74174 1.03958L5.68052 6.00308L9.51489 0.917005C9.58568 0.823011 9.68284 0.754212 9.79293 0.720114C9.90302 0.686017 10.0206 0.688303 10.1295 0.726657C10.2383 0.765011 10.3331 0.83754 10.4006 0.934223C10.4681 1.03091 10.5051 1.14697 10.5065 1.26639Z" fill="#069000"/>
</svg>
