<svg width="20" height="20" viewBox="0 0 20 20" fill="none" xmlns="http://www.w3.org/2000/svg">
<mask id="mask0_1420_16111" style="mask-type:alpha" maskUnits="userSpaceOnUse" x="0" y="0" width="20" height="20">
<rect x="20" width="20" height="20" transform="rotate(90 20 0)" fill="#C4C4C4"/>
</mask>
<g mask="url(#mask0_1420_16111)">
<path d="M12.8895 17.5108C12.6708 17.5138 12.4574 17.4457 12.284 17.3176L2.86764 10.214C2.75466 10.1287 2.663 10.02 2.59941 9.89611C2.53583 9.77218 2.50192 9.63609 2.50018 9.49783C2.49845 9.35958 2.52893 9.22268 2.58939 9.09719C2.64985 8.9717 2.73875 8.86081 2.84956 8.77268L12.0456 1.47367C12.1432 1.39638 12.2556 1.33833 12.3765 1.30284C12.4974 1.26734 12.6243 1.2551 12.7501 1.2668C13.0041 1.29044 13.2378 1.4102 13.3998 1.59973C13.5619 1.78925 13.6389 2.03303 13.6141 2.27742C13.5893 2.52181 13.4646 2.7468 13.2675 2.90289L4.99499 9.46753L13.4718 15.8582C13.6284 15.9761 13.7431 16.1381 13.7999 16.3215C13.8568 16.505 13.853 16.701 13.789 16.8824C13.7251 17.0639 13.6042 17.2218 13.4431 17.3343C13.2819 17.4469 13.0885 17.5085 12.8895 17.5108Z" fill="#727272" stroke="#727272" stroke-width="0.2"/>
</g>
</svg>
