<svg width="14" height="14" viewBox="0 0 14 14" fill="none" xmlns="http://www.w3.org/2000/svg">
<path d="M8.22271 7L13.7249 1.49782C14.0917 1.131 14.0917 0.641921 13.7249 0.275109C13.3581 -0.0917031 12.869 -0.0917031 12.5022 0.275109L7 5.77729L1.49782 0.275109C1.131 -0.0917031 0.641921 -0.0917031 0.275109 0.275109C-0.0917031 0.641921 -0.0917031 1.131 0.275109 1.49782L5.77729 7L0.275109 12.5022C-0.0917031 12.869 -0.0917031 13.3581 0.275109 13.7249C0.641921 14.0917 1.131 14.0917 1.49782 13.7249L7 8.22271L12.5022 13.7249C12.869 14.0917 13.3581 14.0917 13.7249 13.7249C14.0917 13.3581 14.0917 12.869 13.7249 12.5022L8.22271 7Z" fill="#727272"/>
</svg>
