<svg width="15" height="11" viewBox="0 0 15 11" fill="none" xmlns="http://www.w3.org/2000/svg">
<path d="M14.7597 1.39958C14.7624 1.59643 14.7012 1.78841 14.5859 1.94449L8.19259 10.4192C8.1158 10.5209 8.01804 10.6034 7.9065 10.6606C7.79496 10.7179 7.67248 10.7484 7.54805 10.7499C7.42362 10.7515 7.30041 10.7241 7.18747 10.6697C7.07453 10.6152 6.97473 10.5352 6.89541 10.4355L0.326302 2.15909C0.256741 2.07124 0.204496 1.97003 0.172552 1.86124C0.140607 1.75244 0.129588 1.6382 0.140123 1.52502C0.161399 1.29645 0.26918 1.08611 0.439754 0.940274C0.610328 0.794441 0.829723 0.72506 1.04968 0.747394C1.26963 0.769727 1.47212 0.881946 1.6126 1.05936L7.52078 8.50462L13.2723 0.875507C13.3785 0.734515 13.5243 0.631317 13.6894 0.580171C13.8545 0.529024 14.0309 0.532454 14.1942 0.589985C14.3575 0.647516 14.4996 0.756309 14.6009 0.901334C14.7022 1.04636 14.7577 1.22046 14.7597 1.39958Z" fill="#727272" stroke="#727272" stroke-width="0.2"/>
</svg>
