<svg width="28" height="16" viewBox="0 0 28 16" fill="none" xmlns="http://www.w3.org/2000/svg">
<path d="M16.9751 2.67013L22.3884 5.94113L8.67863 14.2201L3.26526 10.9491L16.9751 2.67013ZM26.5019 1.88113L24.0825 0.423134C23.6332 0.152186 23.0242 0 22.3893 0C21.7543 0 21.1453 0.152186 20.696 0.423134L18.3777 1.82313L23.7944 5.09413L26.4936 3.46413C26.6669 3.36068 26.8046 3.23754 26.8987 3.1018C26.9928 2.96606 27.0415 2.82042 27.042 2.67326C27.0424 2.5261 26.9947 2.38034 26.9014 2.24439C26.8081 2.10844 26.6712 1.98498 26.4986 1.88113H26.5019ZM0.43189 15.5461C0.409019 15.6078 0.41253 15.6719 0.44209 15.7326C0.471651 15.7932 0.526288 15.8482 0.600849 15.8925C0.675409 15.9369 0.767437 15.969 0.868253 15.9859C0.969069 16.0028 1.07535 16.0039 1.17708 15.9891L7.20482 15.1051L1.79972 11.8351L0.43189 15.5461Z" fill="#727272"/>
</svg>
