<svg width="18" height="18" viewBox="0 0 18 18" fill="none" xmlns="http://www.w3.org/2000/svg">
<mask id="mask0" style="mask-type:alpha" maskUnits="userSpaceOnUse" x="0" y="0" width="18" height="18">
<rect width="18" height="18" fill="#C4C4C4"/>
</mask>
<g mask="url(#mask0)">
<path d="M15.3997 3H2.60027C2.17703 3.00144 1.77165 3.1734 1.47313 3.47812C1.17461 3.78283 1.00734 4.19541 1.00806 4.62526L1 14.3747C1.00124 14.8054 1.17024 15.2181 1.47008 15.5226C1.76992 15.8271 2.17623 15.9987 2.60027 16H15.3997C15.8238 15.9987 16.2301 15.8271 16.5299 15.5226C16.8298 15.2181 16.9988 14.8054 17 14.3747V4.62526C16.9988 4.1946 16.8298 3.78194 16.5299 3.47742C16.2301 3.1729 15.8238 3.00126 15.3997 3ZM15.3997 6.24983L9 10.3119L2.60027 6.24983V4.62526L9 8.68737L15.3997 4.62526V6.24983Z" fill="#727272"/>
</g>
</svg>
