<svg width="120" height="120" viewBox="0 0 120 120" fill="none" xmlns="http://www.w3.org/2000/svg">
<path d="M59.9848 120C93.1302 120 119.97 93.1302 119.97 60.0152C119.97 26.9002 93.1302 0 59.9848 0C26.8393 0 0 26.8698 0 59.9848C0 93.0998 26.8698 120 59.9848 120Z" fill="#F5F3F2"/>
<path d="M75.4292 20.1328L37.714 19.9805C36.1603 19.9805 34.6676 20.5898 33.5708 21.6865C32.4741 22.7832 31.8343 24.276 31.8343 25.8297L31.6211 82.8289C31.6211 86.0582 36.6782 71.7093 39.9075 71.7398L84.6904 88.8914C86.2441 88.8914 87.7369 88.2821 88.8336 87.1854C89.9303 86.0886 90.5701 84.5959 90.5701 83.0422L90.7528 35.5783L75.4292 20.1328Z" fill="#C2C2C2"/>
<path d="M75.3525 29.6661C75.3525 30.4277 75.5049 31.1893 75.779 31.9205C76.0837 32.6212 76.5102 33.2914 77.0281 33.8397C77.5765 34.3881 78.2162 34.8146 78.9169 35.1193C79.6176 35.4239 80.3792 35.5762 81.1713 35.5762L90.7067 35.6067L75.383 20.1611L75.3525 29.6661Z" fill="#D8D8D8"/>
<path d="M31.6211 79.1408V86.2999C31.6211 90.5041 35.0331 93.8856 39.2068 93.8856H83.0148C87.2189 93.8856 90.6005 90.4736 90.6005 86.2999V80.9382C90.6005 77.7089 88.5594 74.8148 85.4825 73.7485L41.6744 58.6381C38.7498 57.6328 35.4901 58.4858 33.4794 60.8315C32.2913 62.2025 31.6211 63.9694 31.6211 65.8277V79.1408Z" fill="#C2C2C2"/>
<path d="M77.5385 78.6256C76.7464 79.2958 75.5888 79.2349 74.8881 78.4428L64.8348 66.9881C64.1646 66.1961 64.2255 65.0384 65.0176 64.3377C65.8097 63.6675 66.9673 63.7284 67.668 64.5205L77.7213 75.9752C78.3915 76.7673 78.3001 77.9249 77.5385 78.6256Z" fill="#F1F1F1"/>
<path d="M59.195 70.6459C66.7327 70.6459 72.8431 64.5354 72.8431 56.9977C72.8431 49.4601 66.7327 43.3496 59.195 43.3496C51.6574 43.3496 45.5469 49.4601 45.5469 56.9977C45.5469 64.5354 51.6574 70.6459 59.195 70.6459Z" fill="#F1F1F1"/>
<path d="M59.2017 67.5049C65.0064 67.5049 69.712 62.7993 69.712 56.9947C69.712 51.19 65.0064 46.4844 59.2017 46.4844C53.397 46.4844 48.6914 51.19 48.6914 56.9947C48.6914 62.7993 53.397 67.5049 59.2017 67.5049Z" fill="#CDCCCC"/>
<path d="M56 51L53 54M60 52L54 58" stroke="white" stroke-width="2" stroke-linecap="round"/>
</svg>
