<svg width="45" height="56" viewBox="0 0 45 56" fill="none" xmlns="http://www.w3.org/2000/svg">
<path d="M43.8777 17.4241V18.056L28.2787 2.45616L27.2818 1.45917H27.8352L43.8777 17.4241ZM6.0734 1.45917H26.7788L26.5795 3.03798L24.4833 19.6396L24.3336 20.8251L25.527 20.7635L43.3059 19.8456L43.8777 19.8161V50.1069C43.8777 50.6992 43.7605 51.2858 43.5326 51.8333C43.3047 52.3808 42.9706 52.8786 42.549 53.2982C42.1274 53.7177 41.6267 54.0507 41.0752 54.2781C40.5238 54.5054 39.9325 54.6224 39.3354 54.6224H6.04648C5.45101 54.6221 4.86157 54.5048 4.31202 54.2774C3.76249 54.0499 3.26381 53.7168 2.84448 53.2975C2.42515 52.8781 2.09343 52.3808 1.86809 51.8341L0.943548 52.2151L1.86809 51.8341C1.64276 51.2874 1.52818 50.702 1.53081 50.1114L1.53082 50.1075L1.55797 5.9753H1.55798L1.55796 5.97023C1.55533 5.37963 1.66991 4.79421 1.89525 4.24753C2.12058 3.70083 2.45231 3.20348 2.87163 2.78413C3.29096 2.36478 3.78964 2.03169 4.33918 1.80423C4.88857 1.57682 5.47785 1.45952 6.07316 1.45917C6.07324 1.45917 6.07332 1.45917 6.0734 1.45917ZM33.7903 44.3429H34.7897L34.7903 43.3435L34.793 39.0765L34.7937 38.0759H33.793H11.6182H10.6182V39.0759V43.3429V44.3429H11.6182H33.7903ZM33.7903 34.3766H34.7897L34.7903 33.3772L34.793 28.9994L34.7936 27.9988H33.793H11.6182H10.6182V28.9988V33.3766V34.3766H11.6182H33.7903Z" stroke="white" stroke-width="2"/>
</svg>
