<svg width="20" height="20" viewBox="0 0 20 20" fill="none" xmlns="http://www.w3.org/2000/svg">
<circle cx="10.0002" cy="10.0002" r="8.88889" fill="#DE181F"/>
<path d="M10.5796 9.9974L13.1997 7.37731C13.3744 7.20264 13.3744 6.96974 13.1997 6.79507C13.0251 6.62039 12.7922 6.62039 12.6175 6.79507L9.9974 9.41515L7.37731 6.79507C7.20264 6.62039 6.96974 6.62039 6.79507 6.79507C6.62039 6.96974 6.62039 7.20264 6.79507 7.37731L9.41515 9.9974L6.79507 12.6175C6.62039 12.7922 6.62039 13.0251 6.79507 13.1997C6.96974 13.3744 7.20264 13.3744 7.37731 13.1997L9.9974 10.5796L12.6175 13.1997C12.7922 13.3744 13.0251 13.3744 13.1997 13.1997C13.3744 13.0251 13.3744 12.7922 13.1997 12.6175L10.5796 9.9974Z" fill="white"/>
</svg>
