<svg width="51" height="50" viewBox="0 0 51 50" fill="none" xmlns="http://www.w3.org/2000/svg">
<path d="M49.4439 27.5266C49.5154 22.5661 45.2871 19.2354 40.5847 19.0122C44.7697 14.8512 42.9658 5.91986 35.1649 5.87977C33.7034 5.82701 32.2597 6.21307 31.0195 6.98822C29.7794 7.76337 28.7999 8.89208 28.207 10.2289C26.4327 9.72784 24.5529 9.7377 22.784 10.2574C22.191 8.92043 21.2135 7.79018 19.976 7.0106C18.7385 6.23101 17.297 5.83736 15.8351 5.87977C8.03417 5.91986 6.23829 14.8512 10.4153 19.0122C5.71291 19.2349 1.48399 22.5672 1.55615 27.5266C1.29959 30.0842 1.84477 33.243 4.81921 33.7962C6.05685 34.0722 7.5306 34.3666 8.95144 34.6279C8.65624 37.6652 8.98976 41.6572 12.6522 42.3427C21.0822 44.7211 30.0059 44.7211 38.436 42.3427C42.0938 41.6567 42.4376 37.6601 42.1332 34.6133C43.5282 34.3525 44.9771 34.0638 46.1808 33.7962C49.1552 33.243 49.7004 30.0842 49.4439 27.5266ZM35.1649 7.46721C43.6993 7.43658 42.7638 20.6291 34.3236 19.4895C34.5195 17.7497 34.1861 15.9913 33.3671 14.4439C32.548 12.8965 31.2813 11.6321 29.7324 10.8159C30.1924 9.77331 30.958 8.89494 31.9281 8.29699C32.8981 7.69903 34.0269 7.40968 35.1649 7.46721ZM25.5441 25.8906C15.9079 25.7223 15.9064 11.6058 25.5441 11.4358C35.18 11.6042 35.1815 25.7207 25.5441 25.8906ZM15.8351 7.46721C16.9764 7.42158 18.105 7.72069 19.0739 8.32558C20.0428 8.93048 20.8071 9.81312 21.2672 10.8586C19.7481 11.683 18.5086 12.9407 17.7064 14.4717C16.9042 16.0027 16.5757 17.7377 16.7626 19.456C8.29017 20.7832 7.25312 7.42215 15.8351 7.46721ZM5.16396 32.2248C2.95117 31.84 3.08746 29.2424 3.15962 27.5266C3.23177 22.1973 7.77618 20.7248 12.2754 20.3271C13.7536 21.0233 15.4064 21.2608 17.0208 21.0089C17.4144 22.6274 18.2723 24.0955 19.4891 25.233C14.6489 25.435 10.1206 28.3447 9.13063 33.0217C7.66065 32.746 6.20189 32.4528 5.16396 32.2248ZM38.0913 40.7713C29.8812 43.0466 21.207 43.0466 12.9969 40.7713C10.3271 40.3063 10.4394 37.2116 10.5356 35.1271C10.7979 28.5529 15.8533 27.1331 21.4078 26.5313C22.7027 27.1372 24.1149 27.4513 25.5445 27.4513C26.9742 27.4513 28.3864 27.1372 29.6813 26.5313C35.2801 27.1623 40.2501 28.5041 40.5528 35.1272C40.6488 37.2116 40.7611 40.3063 38.0913 40.7713ZM45.836 32.2248C44.8145 32.4448 43.3855 32.7402 41.9476 33.0084C40.9474 28.3083 36.49 25.4705 31.5998 25.2328C32.8068 24.1041 33.6606 22.6496 34.0577 21.0456C35.6499 21.2505 37.2677 21.0014 38.7246 20.3271C43.3008 20.7739 47.7 22.1132 47.8404 27.5266C47.9125 29.2424 48.0488 31.84 45.836 32.2248Z" fill="#985801" stroke="#985801" stroke-width="0.8"/>
</svg>
