<svg width="21" height="20" viewBox="0 0 21 20" fill="none" xmlns="http://www.w3.org/2000/svg">
<path d="M2.63063 11.9108C2.19878 11.4789 2.19878 10.7788 2.63063 10.3469C3.06248 9.91506 3.76265 9.91506 4.1945 10.3469L5.8575 12.0099L14.3044 1.69038C14.6878 1.2221 15.3781 1.15314 15.8464 1.53635C16.3148 1.91957 16.3839 2.6099 16.0008 3.07835L6.4641 14.7387C6.22188 15.0348 5.7769 15.0571 5.50638 14.7865L2.63063 11.9108ZM10.3399 13.6509C10.3399 13.0426 10.8329 12.5496 11.4412 12.5496H14.7451C15.3534 12.5496 15.8465 13.0426 15.8465 13.6509C15.8465 14.2591 15.3534 14.7522 14.7451 14.7522H11.4412C10.8329 14.7522 10.3399 14.2591 10.3399 13.6509ZM2.63063 18.0561C2.63063 17.4479 3.12371 16.9548 3.73195 16.9548H11.4412C12.0494 16.9548 12.5425 17.4479 12.5425 18.0561C12.5425 18.6644 12.0494 19.1575 11.4412 19.1575H3.73195C3.12371 19.1575 2.63063 18.6644 2.63063 18.0561ZM13.6438 9.24559C13.6438 8.63735 14.1369 8.14428 14.7451 8.14428H18.0491C18.6573 8.14428 19.1504 8.63735 19.1504 9.24559C19.1504 9.85384 18.6573 10.3469 18.0491 10.3469H14.7451C14.1369 10.3469 13.6438 9.85384 13.6438 9.24559Z" fill="#985801"/>
</svg>
