<svg width="20" height="20" viewBox="0 0 20 20" fill="none" xmlns="http://www.w3.org/2000/svg">
<circle cx="10.0002" cy="10.0002" r="8.88889" fill="#9C9C9C"/>
<path d="M10.7398 13.6888C10.7454 13.8712 10.6958 14.0512 10.5973 14.2055C10.4987 14.3599 10.3559 14.4816 10.1869 14.5551C10.018 14.6285 9.8307 14.6504 9.64912 14.6178C9.46753 14.5853 9.29993 14.4998 9.16782 14.3723C9.03571 14.2448 8.94511 14.0812 8.90766 13.9025C8.8702 13.7238 8.8876 13.538 8.95761 13.3691C9.02762 13.2002 9.14706 13.0559 9.3006 12.9546C9.45413 12.8533 9.63476 12.7997 9.8193 12.8007C9.93905 12.7979 10.0582 12.8187 10.1697 12.862C10.2812 12.9054 10.3828 12.9703 10.4685 13.0531C10.5543 13.1358 10.6225 13.2347 10.6691 13.3438C10.7156 13.453 10.7397 13.5703 10.7398 13.6888ZM10.677 10.9627C10.5289 11.9471 9.10965 11.9471 8.9616 10.9627L8.9616 5.7027C9.10965 4.71822 10.5289 4.71822 10.677 5.7027L10.677 10.9627Z" fill="white"/>
</svg>
