<svg width="51" height="50" viewBox="0 0 51 50" fill="none" xmlns="http://www.w3.org/2000/svg">
<path d="M11.6114 11.3887H33.8336V13.6109H11.6114V11.3887ZM11.6114 22.4998H22.8419V24.722H11.6114V22.4998ZM32.9697 16.9442H11.6114V19.1665H30.7489L32.9697 16.9442ZM18.2697 40.3776C18.6431 40.8057 19.1171 41.1344 19.6489 41.3342C20.1808 41.534 20.754 41.5985 21.3169 41.522H32.1558C32.4137 41.522 32.6609 41.4196 32.8433 41.2372C33.0256 41.0549 33.128 40.8076 33.128 40.5498C33.128 40.2919 33.0256 40.0446 32.8433 39.8623C32.6609 39.68 32.4137 39.5776 32.1558 39.5776H21.3169C20.0516 39.5553 20.2766 38.4567 20.4544 38.1164C20.6862 37.7171 20.8668 37.2901 20.9919 36.8456C21.075 36.488 21.0358 36.1128 20.8808 35.78C20.7257 35.4472 20.4636 35.176 20.1364 35.0095C19.6106 34.7726 19.0217 34.7146 18.4598 34.8443C17.8979 34.974 17.394 35.2842 17.0253 35.7276C16.5475 36.2206 15.8836 36.9748 15.2475 37.7081C15.6405 36.1678 16.1503 34.1914 16.6503 32.2637C16.7935 31.8244 16.765 31.3472 16.5704 30.9281C16.3758 30.5091 16.0297 30.1793 15.6016 30.0053C15.1276 29.8427 14.6096 29.8659 14.152 30.0703C13.6945 30.2748 13.3315 30.6451 13.1364 31.1067C12.5364 32.2609 7.78637 40.2206 7.73914 40.3012C7.67367 40.4108 7.63042 40.5322 7.61187 40.6586C7.59333 40.7849 7.59985 40.9136 7.63106 41.0374C7.69409 41.2875 7.85387 41.5023 8.07525 41.6345C8.29664 41.7667 8.56148 41.8056 8.81153 41.7426C9.06158 41.6796 9.27635 41.5198 9.40859 41.2984C9.58637 40.9998 13.378 34.6484 14.5739 32.5276C13.6739 35.9998 12.6822 39.8637 12.6239 40.2109C12.5582 40.4662 12.5779 40.7359 12.68 40.979C12.7821 41.222 12.9609 41.4249 13.1891 41.5567C13.4434 41.6828 13.7324 41.7207 14.0105 41.6643C14.2886 41.608 14.5401 41.4607 14.7253 41.2456C14.9003 41.0873 15.228 40.7109 16.0544 39.7512C16.8244 38.8456 17.613 37.9561 18.4197 37.0831C18.7225 36.7637 18.9058 36.9053 18.728 37.2192C18.3803 37.6587 18.1548 38.1822 18.0743 38.7368C17.9938 39.2914 18.0612 39.8574 18.2697 40.3776Z" fill="white"/>
<path d="M39.3885 30.1315V44.444H6.05512V5.55512H39.3885V12.4898L41.2357 10.6426C41.52 10.3622 41.8318 10.1109 42.1662 9.89262V4.16623C42.1662 3.79788 42.0199 3.44461 41.7594 3.18414C41.499 2.92367 41.1457 2.77734 40.7773 2.77734H4.66623C4.29788 2.77734 3.94461 2.92367 3.68414 3.18414C3.42367 3.44461 3.27734 3.79788 3.27734 4.16623V45.8329C3.27734 46.2013 3.42367 46.5545 3.68414 46.815C3.94461 47.0755 4.29788 47.2218 4.66623 47.2218H40.7773C41.1457 47.2218 41.499 47.0755 41.7594 46.815C42.0199 46.5545 42.1662 46.2013 42.1662 45.8329V29.7593C41.3143 30.2107 40.3291 30.3427 39.3885 30.1315Z" fill="white"/>
<path d="M47.8976 16.4734L47.1712 15.747C47.5425 15.2564 47.7304 14.6514 47.7025 14.0368C47.6746 13.4222 47.4326 12.8367 47.0184 12.3818C46.4808 11.9079 45.7778 11.6657 45.0624 11.7078C44.347 11.75 43.6773 12.0731 43.199 12.6068L25.8032 29.9998L24.6407 34.3637C24.6223 34.4208 24.62 34.4819 24.6342 34.5402C24.6484 34.5985 24.6784 34.6517 24.721 34.694C24.7635 34.7362 24.817 34.7659 24.8754 34.7797C24.9337 34.7935 24.9948 34.7908 25.0518 34.772L29.4004 33.5956L45.6393 17.3568L46.3254 18.0443C46.3733 18.0921 46.4113 18.1489 46.4372 18.2115C46.4632 18.2741 46.4765 18.3411 46.4765 18.4088C46.4765 18.4766 46.4632 18.5436 46.4372 18.6062C46.4113 18.6687 46.3733 18.7256 46.3254 18.7734L39.4962 25.6026C39.2879 25.8111 39.171 26.0938 39.1711 26.3885C39.1712 26.6832 39.2884 26.9658 39.4969 27.1741C39.7054 27.3824 39.9881 27.4994 40.2828 27.4992C40.5775 27.4991 40.8601 27.3819 41.0684 27.1734L47.8976 20.3443C48.4109 19.8307 48.6992 19.1343 48.6992 18.4081C48.6992 17.682 48.4109 16.9856 47.8976 16.472" fill="white"/>
</svg>
