<svg width="12" height="12" viewBox="0 0 12 12" fill="none" xmlns="http://www.w3.org/2000/svg">
<mask id="mask0_341_8155" style="mask-type:alpha" maskUnits="userSpaceOnUse" x="0" y="0" width="12" height="12">
<rect y="12" width="12" height="12" transform="rotate(-90 0 12)" fill="#C4C4C4"/>
</mask>
<g mask="url(#mask0_341_8155)">
<path d="M4.26541 1.49353C4.39664 1.49173 4.52463 1.53256 4.62868 1.60943L10.2785 5.8716C10.3463 5.9228 10.4013 5.98797 10.4394 6.06233C10.4776 6.13669 10.4979 6.21835 10.499 6.3013C10.5 6.38425 10.4817 6.46639 10.4455 6.54169C10.4092 6.61698 10.3558 6.68351 10.2894 6.73639L4.77175 11.1158C4.71319 11.1622 4.64571 11.197 4.57318 11.2183C4.50065 11.2396 4.42449 11.2469 4.34904 11.2399C4.19665 11.2257 4.05643 11.1539 3.95921 11.0402C3.86198 10.9264 3.81573 10.7802 3.83062 10.6336C3.84551 10.4869 3.92032 10.3519 4.0386 10.2583L9.0021 6.31948L3.91603 2.48511C3.82203 2.41432 3.75324 2.31716 3.71914 2.20708C3.68504 2.09699 3.68733 1.97939 3.72568 1.87054C3.76403 1.76168 3.83656 1.66695 3.93325 1.59941C4.02993 1.53187 4.146 1.49488 4.26541 1.49353Z" fill="#985801" stroke="#985801" stroke-width="0.2"/>
</g>
</svg>
