<svg width="24" height="24" viewBox="0 0 24 24" fill="none" xmlns="http://www.w3.org/2000/svg">
<path d="M22.2409 16.5494L14.7669 3.60392C13.5461 1.46536 10.459 1.46536 9.24265 3.60392L1.7643 16.5494C0.543522 18.688 2.06291 21.3447 4.52642 21.3447H19.4524C21.9159 21.3447 23.4616 18.6616 22.2409 16.5494ZM12.0004 18.4728C11.3505 18.4728 10.8103 17.9327 10.8103 17.2828C10.8103 16.6329 11.3505 16.0927 12.0004 16.0927C12.6503 16.0927 13.1904 16.6329 13.1641 17.3135C13.1948 17.9327 12.6239 18.4728 12.0004 18.4728ZM13.085 10.7793C13.0323 11.7014 12.9752 12.6192 12.9225 13.5414C12.8962 13.84 12.8962 14.1123 12.8962 14.4065C12.8699 14.8939 12.4878 15.2716 12.0004 15.2716C11.5129 15.2716 11.1353 14.9203 11.1046 14.4328C11.0255 12.9969 10.9421 11.5873 10.863 10.1513C10.8367 9.77367 10.8103 9.39163 10.7796 9.01398C10.7796 8.39042 11.1309 7.87664 11.7018 7.71416C12.2726 7.57803 12.8391 7.85029 13.085 8.39042C13.1685 8.57924 13.1948 8.76807 13.1948 8.98763C13.1685 9.58924 13.1114 10.1865 13.085 10.7793Z" fill="url(#paint0_linear_278_51787)"/>
<defs>
<linearGradient id="paint0_linear_278_51787" x1="3.36065" y1="-0.243985" x2="18.106" y2="22.4804" gradientUnits="userSpaceOnUse">
<stop stop-color="#FAE340"/>
<stop offset="1" stop-color="#E57C30"/>
</linearGradient>
</defs>
</svg>
