<svg width="13" height="13" viewBox="0 0 13 13" fill="none" xmlns="http://www.w3.org/2000/svg">
<mask id="mask0_2206_84805" style="mask-type:alpha" maskUnits="userSpaceOnUse" x="0" y="0" width="13" height="13">
<rect x="0.453125" y="12.2666" width="12" height="12" transform="rotate(-90 0.453125 12.2666)" fill="#C4C4C4"/>
</mask>
<g mask="url(#mask0_2206_84805)">
<path d="M4.71939 1.76013C4.85062 1.75833 4.97861 1.79917 5.08266 1.87603L10.7325 6.13821C10.8003 6.1894 10.8553 6.25458 10.8934 6.32893C10.9316 6.40329 10.9519 6.48495 10.953 6.5679C10.954 6.65085 10.9357 6.733 10.8994 6.80829C10.8632 6.88358 10.8098 6.95011 10.7433 7.003L5.22573 11.3824C5.16716 11.4288 5.09969 11.4636 5.02716 11.4849C4.95463 11.5062 4.87847 11.5135 4.80302 11.5065C4.65063 11.4923 4.51041 11.4205 4.41319 11.3068C4.31596 11.193 4.26971 11.0468 4.2846 10.9002C4.29949 10.7535 4.3743 10.6185 4.49258 10.5249L9.45608 6.58608L4.37001 2.75171C4.27601 2.68092 4.20721 2.58377 4.17312 2.47368C4.13902 2.36359 4.14131 2.24599 4.17966 2.13714C4.21801 2.02829 4.29054 1.93355 4.38723 1.86601C4.48391 1.79848 4.59998 1.76148 4.71939 1.76013Z" fill="#727272" stroke="#727272" stroke-width="0.2"/>
</g>
</svg>
