<svg width="14" height="14" viewBox="0 0 14 14" fill="none" xmlns="http://www.w3.org/2000/svg">
<path d="M6.30696 4.17995C6.30276 4.04171 6.33996 3.90537 6.41379 3.78843C6.48762 3.67148 6.5947 3.57926 6.72131 3.52361C6.84792 3.46795 6.98827 3.4514 7.12435 3.47608C7.26044 3.50075 7.38604 3.56553 7.48505 3.66209C7.58406 3.75865 7.65195 3.8826 7.68002 4.01802C7.70809 4.15344 7.69506 4.29416 7.64259 4.42212C7.59012 4.55008 7.50061 4.65944 7.38554 4.73618C7.27048 4.81291 7.13512 4.8535 6.99682 4.85276C6.90707 4.85492 6.81779 4.83912 6.73423 4.80629C6.65068 4.77346 6.57452 4.72426 6.51025 4.66157C6.44598 4.59889 6.39489 4.524 6.35998 4.44129C6.32507 4.35858 6.30704 4.26972 6.30696 4.17995ZM6.35403 6.2453V6.2453C6.46396 5.50632 7.52967 5.50632 7.6396 6.2453V6.2453V10.2304V10.2304C7.52967 10.9694 6.46396 10.9694 6.35403 10.2304V10.2304V6.2453Z" fill="#727272"/>
<path d="M7.00001 1.01608C8.38353 1.01674 9.72403 1.49705 10.7931 2.3752C11.8622 3.25335 12.5938 4.47501 12.8632 5.83205C13.1326 7.18908 12.9232 8.59755 12.2706 9.8175C11.6181 11.0375 10.5627 11.9934 9.28436 12.5225C8.00601 13.0516 6.58375 13.1212 5.25989 12.7193C3.93603 12.3174 2.79245 11.4689 2.02399 10.3184C1.25553 9.16797 0.90972 7.78664 1.04547 6.4098C1.18123 5.03295 1.79015 3.74576 2.7685 2.76752C3.32295 2.21026 3.98245 1.76852 4.70879 1.46788C5.43514 1.16725 6.21391 1.01368 7.00001 1.01608V1.01608ZM7.00001 0.0854493C5.63263 0.0854493 4.29596 0.490923 3.15903 1.2506C2.0221 2.01027 1.13597 3.09002 0.612694 4.35331C0.0894213 5.61661 -0.0474906 7.0067 0.219271 8.3478C0.486033 9.6889 1.14449 10.9208 2.11137 11.8877C3.07825 12.8545 4.31013 13.513 5.65123 13.7798C6.99234 14.0465 8.38243 13.9096 9.64572 13.3863C10.909 12.8631 11.9888 11.9769 12.7484 10.84C13.5081 9.70307 13.9136 8.3664 13.9136 6.99903C13.9137 6.09109 13.7349 5.19203 13.3875 4.35319C13.0401 3.51435 12.5309 2.75216 11.8889 2.11015C11.2469 1.46815 10.4847 0.958902 9.64584 0.611499C8.807 0.264097 7.90794 0.085344 7.00001 0.0854493V0.0854493Z" fill="#727272" stroke="url(#paint0_linear_18785_57335)" stroke-width="0.2"/>
<defs>
<linearGradient id="paint0_linear_18785_57335" x1="10.7721" y1="18.3815" x2="5.34012" y2="1.45405" gradientUnits="userSpaceOnUse">
<stop offset="0.0171" stop-color="#FFD2D2"/>
<stop offset="1" stop-color="white"/>
</linearGradient>
</defs>
</svg>
