<svg width="24" height="24" viewBox="0 0 24 24" fill="none" xmlns="http://www.w3.org/2000/svg">
<mask id="mask0" style="mask-type:alpha" maskUnits="userSpaceOnUse" x="0" y="0" width="24" height="24">
<rect width="24" height="24" transform="matrix(1 0 0 -1 0 24)" fill="#C4C4C4"/>
</mask>
<g mask="url(#mask0)">
</g>
<g clip-path="url(#clip0)">
<path d="M10.9307 7.64857C10.9242 7.4353 10.9816 7.22494 11.0955 7.04451C11.2094 6.86408 11.3746 6.7218 11.57 6.63594C11.7653 6.55007 11.9818 6.52453 12.1918 6.5626C12.4017 6.60067 12.5955 6.70061 12.7483 6.84959C12.901 6.99857 13.0058 7.1898 13.0491 7.39874C13.0924 7.60768 13.0723 7.82479 12.9913 8.02221C12.9104 8.21964 12.7723 8.38837 12.5948 8.50675C12.4172 8.62514 12.2084 8.68778 11.995 8.68663C11.8565 8.68996 11.7188 8.66559 11.5899 8.61493C11.461 8.56428 11.3435 8.48837 11.2443 8.39166C11.1452 8.29495 11.0663 8.17939 11.0125 8.05178C10.9586 7.92417 10.9308 7.78709 10.9307 7.64857ZM11.0033 10.8351C11.1725 9.69798 12.8176 9.69798 12.9867 10.8351V16.9835C12.8176 18.1207 11.1725 18.1207 11.0033 16.9835V10.8351Z" fill="#727272"/>
<path d="M12.0002 2.76908C14.1347 2.77009 16.2029 3.51116 17.8524 4.86602C19.5019 6.22087 20.6306 8.10572 21.0463 10.1994C21.4619 12.2931 21.1388 14.4662 20.132 16.3484C19.1252 18.2306 17.4969 19.7055 15.5246 20.5219C13.5523 21.3382 11.3579 21.4455 9.31541 20.8255C7.27288 20.2054 5.50851 18.8963 4.32289 17.1213C3.13726 15.3463 2.60372 13.2151 2.81317 11.0908C3.02262 8.96655 3.9621 6.98059 5.47155 5.4713C6.327 4.61153 7.3445 3.92999 8.46515 3.46615C9.5858 3.00231 10.7873 2.76538 12.0002 2.76908ZM12.0002 1.33325C9.8905 1.33325 7.82821 1.95884 6.07408 3.13091C4.31996 4.30298 2.95279 5.96888 2.14545 7.91796C1.33812 9.86704 1.12688 12.0117 1.53846 14.0809C1.95003 16.15 2.96594 18.0506 4.4577 19.5424C5.94945 21.0341 7.85007 22.05 9.9192 22.4616C11.9883 22.8732 14.133 22.662 16.0821 21.8546C18.0312 21.0473 19.6971 19.6801 20.8692 17.926C22.0412 16.1719 22.6668 14.1096 22.6668 11.9999C22.667 10.5991 22.3912 9.21198 21.8552 7.91777C21.3192 6.62356 20.5335 5.44761 19.543 4.45708C18.5525 3.46656 17.3765 2.68087 16.0823 2.14487C14.7881 1.60888 13.401 1.33309 12.0002 1.33325Z" fill="#727272" stroke="#727272" stroke-width="0.2"/>
</g>
<defs>
<clipPath id="clip0">
<rect width="21.6" height="21.6" fill="white" transform="translate(1.2002 1.19995)"/>
</clipPath>
</defs>
</svg>
