<?xml version="1.0" encoding="utf-8"?>
<svg viewBox="-4.424 -1.048 25.3 27.375" fill="none" xmlns="http://www.w3.org/2000/svg">
  <defs>
    <linearGradient id="paint0_linear_13743_36412" x1="10.7137" y1="7.78174" x2="10.7137" y2="13.0941" gradientUnits="userSpaceOnUse">
      <stop stop-color="#EA6544"/>
      <stop offset="1" stop-color="#D12A1E"/>
    </linearGradient>
  </defs>
  <mask id="mask0_13743_36412" style="mask-type:alpha" maskUnits="userSpaceOnUse" x="46" y="0" width="24" height="24">
    <rect x="46" width="24" height="24" fill="#C4C4C4"/>
  </mask>
  <circle cx="8.5" cy="12.5" r="6.5" fill="#FFC76F"/>
  <g mask="url(#mask0_13743_36412)"/>
  <path d="M8.50001 20C4.39891 20 1.06274 16.6639 1.06274 12.5628C1.06274 8.46165 4.39891 5.12549 8.50001 5.12549C12.6011 5.12549 15.9373 8.46165 15.9373 12.5628C15.9373 16.6639 12.6011 20 8.50001 20ZM8.50001 6.18796C4.98461 6.18796 2.12521 9.04813 2.12521 12.5628C2.12521 16.0774 4.98461 18.9376 8.50001 18.9376C12.0153 18.9376 14.8748 16.0774 14.8748 12.5628C14.8748 9.04813 12.0153 6.18796 8.50001 6.18796Z" fill="#99542D"/>
  <path d="M12.9271 13.0941H8.50023C8.20699 13.0941 7.96899 12.8561 7.96899 12.5628V8.31297C7.96899 8.01973 8.20699 7.78174 8.50023 7.78174C8.79347 7.78174 9.03146 8.01973 9.03146 8.31297V12.0316H12.9271C13.2204 12.0316 13.4584 12.2696 13.4584 12.5628C13.4584 12.8561 13.2204 13.0941 12.9271 13.0941V13.0941Z" fill="url(#paint0_linear_13743_36412)"/>
  <path d="M1.03135 7.60306C0.895297 7.60306 0.759376 7.55131 0.655879 7.44716C0.448366 7.23965 0.448366 6.90322 0.655879 6.69571L3.74836 3.74694C3.95587 3.53943 4.2923 3.53943 4.49982 3.74694C4.70733 3.95446 4.70733 4.29089 4.49982 4.49853L1.40747 7.44716C1.30332 7.55131 1.16727 7.60306 1.03135 7.60306Z" fill="#99542D"/>
  <path d="M16.5835 7.14517C16.5835 7.28122 16.5318 7.41714 16.4276 7.52063C16.2201 7.72815 15.8837 7.72815 15.6762 7.52063L12.7274 4.42815C12.5199 4.22064 12.5199 3.88421 12.7274 3.6767C12.9349 3.46918 13.2714 3.46918 13.479 3.6767L16.4276 6.76905C16.5318 6.87319 16.5835 7.00924 16.5835 7.14517Z" fill="#99542D"/>
</svg>