<svg width="19" height="23" viewBox="0 0 19 23" fill="none" xmlns="http://www.w3.org/2000/svg">
<path d="M10.8164 22.144L10.7481 22.0709L10.8164 22.144C11.0516 21.9243 11.3472 21.6643 11.6913 21.3616L11.6923 21.3607L11.6944 21.3588C12.9321 20.2701 14.7096 18.7065 16.1775 16.8033C17.6458 14.8997 18.8129 12.6456 18.8129 10.1762C18.8128 7.73966 17.8638 5.44838 16.1408 3.72537C14.4179 2.0024 12.1266 1.05332 9.68994 1.05332C7.25333 1.05332 4.96197 2.0024 3.23904 3.72537C1.51607 5.44838 0.566992 7.73966 0.566992 10.1762C0.566992 12.6456 1.73406 14.8997 3.20236 16.8033C4.67035 18.7066 6.44795 20.2703 7.68561 21.359L7.68751 21.3607C8.03207 21.6637 8.32801 21.9241 8.56347 22.144C8.87949 22.4392 9.285 22.5867 9.6899 22.5867C10.0949 22.5867 10.5003 22.4392 10.8164 22.144ZM10.7348 20.2722C10.3835 20.5813 10.0785 20.8496 9.82677 21.0847C9.75014 21.1562 9.62961 21.1562 9.55297 21.0847C9.30188 20.85 8.99775 20.5825 8.64752 20.2744L8.64494 20.2722C7.48017 19.2476 5.8213 17.788 4.45322 16.0483C3.0842 14.3074 2.01658 12.2985 2.01658 10.1763C2.01658 5.94532 5.45886 2.50303 9.68986 2.50303C13.9208 2.50303 17.3631 5.94532 17.3631 10.1763C17.3631 12.2985 16.2955 14.3074 14.9265 16.0483C13.5585 17.788 11.8996 19.2476 10.7348 20.2722Z" fill="#727272" stroke="#727272" stroke-width="0.2"/>
<path d="M9.69018 5.76035C7.4424 5.76035 5.61387 7.58884 5.61387 9.83662C5.61387 12.0844 7.4424 13.9129 9.69018 13.9129C11.938 13.9129 13.7664 12.0844 13.7664 9.83662C13.7664 7.58884 11.938 5.76035 9.69018 5.76035ZM9.69018 12.4632C8.24194 12.4632 7.06354 11.2848 7.06354 9.83658C7.06354 8.38838 8.24194 7.20998 9.69018 7.20998C11.1384 7.20998 12.3168 8.38838 12.3168 9.83658C12.3168 11.2848 11.1384 12.4632 9.69018 12.4632Z" fill="#727272" stroke="#727272" stroke-width="0.2"/>
</svg>
