<svg width="36" height="9" viewBox="0 0 36 9" fill="none" xmlns="http://www.w3.org/2000/svg">
<path fill-rule="evenodd" clip-rule="evenodd" d="M30.947 3.59493V5.58783H30.2448V3.2631C30.2448 2.65785 29.6171 2.42165 28.9964 2.42165H28.6787C28.0581 2.42165 27.4374 2.65785 27.4374 3.2631V5.58783H26.7282V1.9345H27.4304V2.111C27.5189 2.03013 27.637 1.94156 27.7481 1.90497C27.999 1.8087 28.3463 1.74965 28.8931 1.74965C29.3957 1.74965 29.7577 1.77917 30.0015 1.84528C30.2673 1.91203 30.4739 2.03013 30.644 2.21434C30.7621 2.3549 30.8436 2.50958 30.8879 2.70213C30.9245 2.86387 30.947 3.1373 30.947 3.59493ZM18.9934 1.73488H19.6956C19.7026 1.36583 19.7174 1.00383 19.7546 0.84209C19.7912 0.679705 19.858 0.546203 19.969 0.435807C20.0871 0.295245 20.2642 0.184849 20.4857 0.11874C20.693 0.0596908 21.055 0.00770204 21.5351 0H22.1923L21.5569 0.612954C21.5351 0.612954 21.3059 0.620014 21.2835 0.620014C20.3528 0.620014 20.4196 1.21115 20.4196 1.73488H22.0595L21.3945 2.40689H20.3971L20.4048 5.58013H19.6956V2.40689H18.9934V1.73488ZM18.2842 0.539143H18.9934V1.25479H18.2842V0.539143Z" fill="#FF2E17"/>
<path fill-rule="evenodd" clip-rule="evenodd" d="M12.8538 3.66888C12.8538 4.10405 12.8025 4.45834 12.6991 4.73177C12.5952 5.00519 12.2479 5.63226 10.549 5.63226C8.84233 5.63226 8.4951 5.00519 8.39176 4.73177C8.28843 4.45834 8.24414 4.10405 8.24414 3.66888C8.24414 3.23308 8.28843 2.87878 8.39176 2.61306C8.4951 2.33322 8.84233 1.70551 10.549 1.70551C12.2479 1.70551 12.5952 2.33322 12.6991 2.61306C12.8025 2.87878 12.8538 3.23308 12.8538 3.66888ZM11.9604 2.82744C11.8936 2.67275 11.7826 2.56942 11.6054 2.50973C11.4283 2.45132 11.1029 2.42179 10.549 2.40703C9.98737 2.42179 9.66966 2.45132 9.48545 2.50973C9.30766 2.56942 9.19727 2.67275 9.13052 2.82744C9.07917 2.95259 9.02012 3.24784 9.02012 3.66888C9.02012 4.09699 9.07917 4.38517 9.13052 4.51033C9.19727 4.66566 9.30766 4.76899 9.48545 4.8274C9.66966 4.88709 9.98737 4.92367 10.549 4.93073C11.1029 4.92367 11.4283 4.88709 11.6054 4.8274C11.7826 4.76899 11.8936 4.66566 11.9604 4.51033C12.0117 4.38517 12.0708 4.09699 12.0708 3.66888C12.0708 3.24784 12.0117 2.95259 11.9604 2.82744Z" fill="#005DB2"/>
<path fill-rule="evenodd" clip-rule="evenodd" d="M26.2109 3.66888C26.2109 4.10405 26.1589 4.45834 26.0556 4.73177C25.9522 5.00519 25.605 5.63226 23.9061 5.63226C22.2065 5.63226 21.8522 5.00519 21.7489 4.73177C21.6526 4.45834 21.6006 4.10405 21.6006 3.66888C21.6006 3.23308 21.6526 2.87878 21.7489 2.61306C21.8522 2.33322 22.2065 1.70551 23.9061 1.70551C25.605 1.70551 25.9522 2.33322 26.0556 2.61306C26.1589 2.87878 26.2109 3.23308 26.2109 3.66888ZM25.3168 2.82744C25.2578 2.67275 25.1397 2.56942 24.9625 2.50973C24.7847 2.45132 24.467 2.42179 23.9061 2.40703C23.3445 2.42179 23.0267 2.45132 22.8419 2.50973C22.6648 2.56942 22.5537 2.67275 22.4876 2.82744C22.4356 2.95259 22.3766 3.24784 22.3766 3.66888C22.3766 4.09699 22.4356 4.38517 22.4876 4.51033C22.5537 4.66566 22.6648 4.76899 22.8419 4.8274C23.0267 4.88709 23.3445 4.92367 23.9061 4.93073C24.467 4.92367 24.7847 4.88709 24.9625 4.8274C25.1397 4.76899 25.2578 4.66566 25.3168 4.51033C25.3759 4.38517 25.4279 4.09699 25.4279 3.66888C25.4279 3.24784 25.3759 2.95259 25.3168 2.82744Z" fill="#FF2E17"/>
<path fill-rule="evenodd" clip-rule="evenodd" d="M7.67572 2.69443C7.63144 2.50252 7.54992 2.3472 7.43183 2.20727C7.26174 2.02243 7.05507 1.90497 6.78165 1.83822C6.53775 1.77147 6.17575 1.74194 5.67319 1.74194C5.12699 1.74194 4.75729 1.78687 4.50633 1.88251H4.49863C4.29196 1.95632 4.12187 2.08918 3.99672 2.28109C3.84845 2.08212 3.66425 1.94926 3.43511 1.86774C3.17645 1.78687 2.68865 1.74194 2.08276 1.74194C1.62513 1.74194 1.30742 1.77147 1.11551 1.83822C0.97495 1.89727 0.834388 1.98584 0.701527 2.111V1.92679H0V5.58013H0.701527V3.25539C0.701527 2.65014 1.32218 2.41395 1.9499 2.41395H2.26055C2.88826 2.41395 3.51598 2.65014 3.51598 3.25539V5.58013H4.21815V3.25539C4.21815 2.65014 4.8311 2.41395 5.45946 2.41395H5.77717C6.40489 2.41395 7.0326 2.65014 7.0326 3.25539V5.58013H7.73477V3.58722C7.73477 3.1373 7.72001 2.85681 7.67572 2.69443Z" fill="#005DB2"/>
<path fill-rule="evenodd" clip-rule="evenodd" d="M35.6303 3.94166H32.1804C32.1952 4.22215 32.2394 4.4147 32.2837 4.51033C32.3428 4.66566 32.4609 4.76899 32.6387 4.8274C32.8158 4.88709 33.1335 4.92367 33.6951 4.93073C34.2561 4.92367 34.5738 4.88709 34.7586 4.8274C34.8697 4.79081 34.9583 4.73176 35.0244 4.65089H35.8742C35.8671 4.67978 35.8594 4.70224 35.8523 4.73177C35.7484 5.00519 35.3941 5.63226 33.6951 5.63226C31.9955 5.63226 31.6483 5.00519 31.545 4.73177C31.4416 4.45834 31.3896 4.10405 31.3896 3.66888C31.3896 3.23308 31.4416 2.87878 31.545 2.61306C31.6483 2.33322 31.9955 1.70551 33.6951 1.70551C35.3941 1.70551 35.7484 2.33322 35.8523 2.61306C35.948 2.87878 36 3.23308 36 3.66888C36 3.76516 36 3.85309 35.9923 3.9346H35.6303V3.94166ZM32.2837 2.82744C32.2471 2.90895 32.2099 3.06363 32.1881 3.278H35.2022C35.1797 3.06363 35.1431 2.90895 35.1136 2.82744C35.0468 2.67275 34.9358 2.56942 34.7586 2.50973C34.5738 2.45132 34.2561 2.42179 33.6951 2.40703C33.1335 2.42179 32.8158 2.45132 32.6387 2.50973C32.4609 2.56942 32.3428 2.67275 32.2837 2.82744Z" fill="#FF2E17"/>
<path fill-rule="evenodd" clip-rule="evenodd" d="M18.284 1.73488H18.9932V5.58013H18.284V1.73488ZM17.7891 3.66874C17.7891 4.1039 17.7378 4.4582 17.6415 4.73162C17.5382 5.00504 17.1832 5.63212 15.4843 5.63212C14.8341 5.63212 14.3836 5.54354 14.0658 5.41068V5.58783H13.3643V0H14.0658V1.92679C14.3836 1.79393 14.8341 1.70536 15.4843 1.70536C17.1832 1.70536 17.5382 2.33308 17.6415 2.61292C17.7378 2.87864 17.7891 3.23293 17.7891 3.66874ZM17.0138 3.66874C17.0138 3.24769 16.9541 2.95245 16.9028 2.82729C16.836 2.67261 16.7256 2.56927 16.5478 2.50958C16.3636 2.45117 16.0459 2.42165 15.4843 2.40689C14.9227 2.42165 14.7083 2.45117 14.5241 2.50958C14.3463 2.56927 14.2359 2.67261 14.1692 2.82729C14.1249 2.92357 14.0806 3.12959 14.0658 3.41778V3.9197C14.0806 4.20724 14.1249 4.41455 14.1692 4.51019C14.2359 4.66551 14.3463 4.76885 14.5241 4.82725C14.7083 4.88694 14.9227 4.92353 15.4843 4.93059C16.0459 4.92353 16.3636 4.88694 16.5478 4.82725C16.7256 4.76885 16.836 4.66551 16.9028 4.51019C16.9541 4.39209 17.0138 4.09684 17.0138 3.66874ZM0.228494 7.50692L0.627716 7.005H0.915901L0.480094 7.50692L0.893436 8.03066H0.605252L0.228494 7.50692ZM0.221434 8.03066H0V7.005H0.221434V8.03066ZM2.14245 6.59936L1.9499 6.79063H1.80998L1.9576 6.59936H2.14245ZM1.61743 6.82016L1.52179 6.92349H1.36647L1.52885 6.73928H1.706L1.87609 6.92349H1.7137L1.61743 6.82016ZM1.98713 7.005V7.18921H1.69894C1.63219 7.18921 1.5879 7.18921 1.55838 7.19691C1.51409 7.20462 1.47751 7.22644 1.44798 7.26302C1.42552 7.29255 1.41076 7.34454 1.4037 7.42541H1.98713V7.61026H1.4037C1.41076 7.70653 1.44028 7.76494 1.49227 7.80216C1.53656 7.83169 1.61037 7.84645 1.706 7.84645H1.98713V8.03066H1.69894C1.60267 8.03066 1.52885 8.0236 1.47751 8.00884C1.39599 7.99407 1.33695 7.96455 1.28496 7.91256C1.19638 7.81693 1.1521 7.68407 1.1521 7.51398C1.1521 7.32271 1.21115 7.18215 1.32924 7.08652C1.39599 7.03453 1.49227 7.005 1.61037 7.005H1.98713ZM2.69636 7.18921H2.36388V7.005H3.26502V7.18921H2.91779V8.03066H2.69636V7.18921ZM4.29196 7.27778V8.03066H4.08529V7.005H4.36577L4.78682 7.76494V7.005H4.99349V8.03066H4.72071L4.29196 7.27778Z" fill="#005DB2"/>
<path fill-rule="evenodd" clip-rule="evenodd" d="M6.35322 6.59924L6.16132 6.79051H6.02075L6.16902 6.59924H6.35322ZM5.82884 6.82004L5.73257 6.92337H5.57018L5.74027 6.73916H5.91036L6.0875 6.92337H5.92512L5.82884 6.82004ZM6.22036 7.13068C6.30188 7.21926 6.33846 7.35212 6.33846 7.52862C6.33846 7.8688 6.17608 8.03824 5.83655 8.03824C5.48931 8.03824 5.31152 7.86109 5.31152 7.52156C5.31152 7.16727 5.47455 6.99782 5.82178 6.99782C6.00599 6.99782 6.13949 7.04147 6.22036 7.13068ZM5.59971 7.2706C5.57018 7.32259 5.55542 7.40346 5.55542 7.51386C5.55542 7.6249 5.57018 7.70641 5.60741 7.75776C5.6517 7.83157 5.72551 7.86109 5.82884 7.86109C6.00599 7.86109 6.09456 7.75006 6.09456 7.51386C6.09456 7.41052 6.0798 7.32965 6.04322 7.2706C5.99893 7.2045 5.92512 7.16727 5.82884 7.16727C5.71781 7.16727 5.644 7.2045 5.59971 7.2706ZM6.62665 7.00488H6.84872V8.03054H6.62665V7.00488ZM8.14844 7.41823H8.66576V8.03054H8.20043C8.05281 8.03054 7.94947 8.00101 7.87502 7.94967C7.76462 7.86109 7.71263 7.72117 7.71263 7.52156C7.71263 7.31489 7.76462 7.17433 7.87502 7.09346C7.94947 7.03441 8.05987 7.00488 8.20749 7.00488H8.66576V7.18909H8.23701C8.12662 7.18909 8.05281 7.21156 8.01558 7.2706C7.979 7.31489 7.95653 7.39576 7.95653 7.49974C7.95653 7.63966 7.979 7.73594 8.03034 7.78728C8.06757 7.82451 8.14138 7.84633 8.24472 7.84633H8.44433V7.60308H8.14844V7.41823ZM9.01299 7.00488H9.23443V8.03054H9.01299V7.00488ZM10.3204 6.70964L10.1214 6.89385H9.98794L10.1285 6.70964H10.3204ZM9.50079 8.03054L9.9366 7.00488H10.1876L10.6234 8.03054H10.3647L10.2614 7.78728H9.86279L9.76651 8.03054H9.50079ZM10.0618 7.24878L9.91413 7.61014H10.21L10.0618 7.24878ZM11.6728 7.18909H11.3403V7.00488H12.2414V7.18909H11.9019V8.03054H11.6728V7.18909ZM12.7363 7.63966V8.03054H12.5149V7.00488H13.0245C13.1721 7.00488 13.2754 7.01965 13.3345 7.06393C13.416 7.11592 13.4532 7.18909 13.4532 7.29243C13.4532 7.44775 13.3865 7.54339 13.2536 7.58831C13.3717 7.61784 13.4385 7.71347 13.4455 7.87586C13.4455 7.94261 13.4603 7.99395 13.468 8.03054H13.2241C13.2164 8.00872 13.2093 7.96443 13.2016 7.88292C13.1869 7.78728 13.165 7.72117 13.1207 7.69165C13.0835 7.65442 13.0097 7.63966 12.9134 7.63966H12.7363ZM12.7363 7.45545H13.0469C13.1573 7.45545 13.2093 7.41823 13.2093 7.31489C13.2093 7.24878 13.1798 7.21156 13.1278 7.19679C13.113 7.18909 13.0912 7.18909 13.0469 7.18909H12.7363V7.45545ZM13.9847 8.26673H13.83V8.11911H13.9847V8.26673ZM13.7928 7.00488H14.0142V8.03054H13.7928V7.00488ZM15.7433 7.72117H15.3736V7.53632H15.7433V7.72117ZM17.3318 7.5068L17.7304 7.00488H18.0257L17.5899 7.5068L18.0038 8.03054H17.7086L17.3318 7.5068ZM17.3241 8.03054H17.1027V7.00488H17.3241V8.03054ZM19.1418 7.00488V8.03054H18.9197V7.60308H18.5135V8.03054H18.292V7.00488H18.5135V7.42529H18.9197V7.00488H19.1418ZM20.4858 6.89385V7.03441L20.3825 7.15251C20.4492 7.24878 20.4858 7.381 20.4858 7.52862C20.4858 7.8688 20.3164 8.03824 19.9839 8.03824C19.629 8.03824 19.4518 7.86109 19.4518 7.52156C19.4518 7.16727 19.6142 6.99782 19.9691 6.99782C20.1315 6.99782 20.2496 7.03441 20.3382 7.10822L20.3902 7.04917H20.3677V6.89385H20.4858ZM19.7471 7.2706C19.7105 7.32259 19.6957 7.40346 19.6957 7.51386C19.6957 7.6249 19.7175 7.70641 19.7471 7.75776C19.7914 7.83157 19.8658 7.86109 19.9691 7.86109C20.1534 7.86109 20.2426 7.75006 20.2426 7.51386C20.2426 7.41052 20.2201 7.32965 20.1906 7.2706C20.1463 7.2045 20.0725 7.16727 19.9691 7.16727C19.8658 7.16727 19.7914 7.2045 19.7471 7.2706ZM20.774 7.00488H20.9961V8.03054H20.774V7.00488ZM21.912 7.00488H22.3549C22.5545 7.00488 22.695 7.04917 22.7765 7.1448C22.8131 7.18909 22.8356 7.24878 22.8574 7.32259C22.8722 7.3887 22.8799 7.45545 22.8799 7.52156C22.8799 7.61784 22.8651 7.70641 22.8356 7.78728C22.7913 7.91244 22.7098 7.98689 22.5769 8.01578C22.5397 8.02348 22.4588 8.03054 22.3549 8.03054H21.912V7.00488ZM22.1334 7.18909V7.84633H22.3549C22.4588 7.84633 22.5249 7.82451 22.5622 7.77958C22.6135 7.72117 22.636 7.63196 22.636 7.51386C22.636 7.381 22.6065 7.28537 22.5397 7.23402C22.5031 7.2045 22.4364 7.18909 22.3549 7.18909H22.1334ZM23.7367 8.26673H23.5743V8.11911H23.7367V8.26673ZM23.0936 8.03054L23.5224 7.00488H23.781L24.2098 8.03054H23.9511L23.8548 7.78728H23.4556L23.3523 8.03054H23.0936ZM23.6552 6.82004L23.5596 6.92337H23.3966L23.5666 6.73916H23.7438L23.9139 6.92337H23.7515L23.6552 6.82004ZM23.6552 7.24878L23.5076 7.61014H23.8028L23.6552 7.24878ZM24.7637 7.58061L24.3792 7.00488H24.6456L24.8818 7.40346L25.1327 7.00488H25.3991L24.9928 7.58831V8.03054H24.7637V7.58061ZM26.4478 7.18909H26.1154V7.00488H27.0165V7.18909H26.6693V8.03054H26.4478V7.18909ZM27.2829 7.00488H27.512V8.03054H27.2829V7.00488ZM28.5235 6.59924L28.6641 6.79051H28.5312L28.3316 6.59924H28.5235ZM28.3098 6.82004L28.2135 6.92337H28.0582L28.2283 6.73916H28.3984L28.5685 6.92337H28.4131L28.3098 6.82004ZM28.6789 7.00488V7.18909H28.3907C28.3316 7.18909 28.2803 7.18909 28.2578 7.19679C28.2065 7.2045 28.1692 7.22632 28.1397 7.2629C28.1173 7.29243 28.1025 7.34442 28.0954 7.42529H28.6789V7.61014H28.0954C28.1025 7.70641 28.132 7.76482 28.184 7.80204C28.2283 7.83157 28.3021 7.84633 28.4054 7.84633H28.6789V8.03054H28.3907C28.295 8.03054 28.2212 8.02348 28.1692 8.00872C28.0954 7.99395 28.0287 7.96443 27.9773 7.91244C27.8888 7.81681 27.8445 7.68395 27.8445 7.51386C27.8445 7.32259 27.9035 7.18203 28.0216 7.0864C28.0877 7.03441 28.184 7.00488 28.3098 7.00488H28.6789ZM29.4767 7.00488L29.7353 7.80204L30.0088 7.00488H30.3335V8.03054H30.1269V7.25584L29.8464 8.03054H29.6172L29.3663 7.25584V8.03054H29.1519V7.00488H29.4767ZM31.4644 7.27766V8.03054H31.2571V7.00488H31.5382L31.9516 7.76482V7.00488H32.166V8.03054H31.8925L31.4644 7.27766ZM32.4317 8.03054L32.8675 7.00488H33.1191L33.5549 8.03054H33.2962L33.1929 7.78728H32.7937L32.698 8.03054H32.4317ZM33.2224 6.75393C33.2077 6.87202 33.1339 6.93813 32.9933 6.93813C32.8527 6.93813 32.7789 6.87202 32.7719 6.75393H32.8527C32.8675 6.81297 32.9195 6.8502 33.001 6.8502C33.0819 6.8502 33.1262 6.81297 33.1409 6.75393H33.2224ZM32.9933 7.24878L32.8457 7.61014H33.1409L32.9933 7.24878ZM34.035 7.27766V8.03054H33.8283V7.00488H34.1088L34.5228 7.76482V7.00488H34.7372V8.03054H34.4637L34.035 7.27766ZM35.4907 7.41823H36.0003V8.03054H35.535C35.3867 8.03054 35.2834 8.00101 35.2173 7.94967C35.1062 7.86109 35.0472 7.72117 35.0472 7.52156C35.0472 7.31489 35.1062 7.17433 35.2096 7.09346C35.2834 7.03441 35.3944 7.00488 35.542 7.00488H36.0003V7.18909H35.5716C35.4682 7.18909 35.3944 7.21156 35.3501 7.2706C35.3129 7.31489 35.2911 7.39576 35.2911 7.49974C35.2911 7.63966 35.3206 7.73594 35.3719 7.78728C35.4092 7.82451 35.4759 7.84633 35.5793 7.84633H35.7782V7.60308H35.4907V7.41823Z" fill="#005DB2"/>
</svg>
