<svg width="16" height="20" viewBox="0 0 16 20" fill="none" xmlns="http://www.w3.org/2000/svg">
<path d="M8.00074 2.92758C8.28441 2.92758 8.51516 3.12082 8.51516 3.35832C8.51516 3.57402 8.69008 3.74895 8.90578 3.74895C9.12148 3.74895 9.29641 3.57402 9.29641 3.35832C9.29641 2.81734 8.91547 2.35809 8.39137 2.20273V2.14844C8.39137 1.93273 8.21645 1.75781 8.00074 1.75781C7.78504 1.75781 7.61012 1.93273 7.61012 2.14844V2.20273C7.08602 2.35812 6.70508 2.81734 6.70508 3.35832C6.70508 4.0266 7.28633 4.57027 8.00074 4.57027C8.28441 4.57027 8.51516 4.76348 8.51516 5.00098C8.51516 5.23848 8.28441 5.43172 8.00074 5.43172C7.71707 5.43172 7.48633 5.23848 7.48633 5.00098C7.48633 4.78527 7.31141 4.61035 7.0957 4.61035C6.88 4.61035 6.70508 4.78527 6.70508 5.00098C6.70508 5.54195 7.08602 6.00121 7.61012 6.15656V6.21094C7.61012 6.42664 7.78504 6.60156 8.00074 6.60156C8.21645 6.60156 8.39137 6.42664 8.39137 6.21094V6.15664C8.91547 6.00125 9.29641 5.54203 9.29641 5.00105C9.29641 4.33273 8.71516 3.78906 8.00074 3.78906C7.71707 3.78906 7.48633 3.59586 7.48633 3.35836C7.48633 3.12086 7.71707 2.92758 8.00074 2.92758Z" fill="#727272"/>
<path d="M15.5 10.7121H13.7147C11.4021 10.7121 9.52066 12.5936 9.52066 14.9062V16.5296L8.39062 17.6597V8.34098C10.5128 8.14332 12.1797 6.35266 12.1797 4.17969C12.1797 3.72973 12.1085 3.28688 11.9681 2.86336C11.9002 2.65852 11.6789 2.5477 11.4744 2.61547C11.2696 2.68336 11.1586 2.90438 11.2265 3.10918C11.3406 3.45324 11.3984 3.81344 11.3984 4.17969C11.3984 6.05359 9.87391 7.57812 8 7.57812C6.12609 7.57812 4.60156 6.05359 4.60156 4.17969C4.60156 2.30578 6.12609 0.78125 8 0.78125C8.34492 0.78125 8.68496 0.832617 9.0107 0.933984C9.2166 0.998047 9.43563 0.883008 9.49977 0.677031C9.56387 0.471055 9.44879 0.25207 9.24281 0.187969C8.84184 0.0632422 8.42371 0 8 0C5.69531 0 3.82031 1.875 3.82031 4.17969C3.82031 6.35266 5.48719 8.14332 7.60938 8.34098V14.2914L6.47934 13.1614V11.538C6.47934 9.22535 4.59789 7.34391 2.28527 7.34391H0.5C0.284297 7.34391 0.109375 7.51883 0.109375 7.73453V9.5198C0.109375 11.8324 1.99082 13.7139 4.30344 13.7139H5.92691L7.60938 15.3963V19.2188H3.69684C3.48113 19.2188 3.30621 19.3937 3.30621 19.6094C3.30621 19.8251 3.48113 20 3.69684 20H12.3032C12.5189 20 12.6938 19.8251 12.6938 19.6094C12.6938 19.3937 12.5189 19.2188 12.3032 19.2188H8.39062V18.7646L10.0731 17.0821H11.6966C14.0092 17.0821 15.8906 15.2007 15.8906 12.888V11.1027C15.8906 10.887 15.7157 10.7121 15.5 10.7121ZM4.30344 12.9326C2.4216 12.9326 0.890625 11.4016 0.890625 9.51977V8.12512H2.28527C4.16711 8.12512 5.69809 9.65609 5.69809 11.5379V12.3801L3.97305 10.6551C3.82047 10.5026 3.5732 10.5026 3.42059 10.6551C3.26805 10.8076 3.26805 11.055 3.42059 11.2075L5.14566 12.9326H4.30344ZM15.1094 12.888C15.1094 14.7699 13.5784 16.3009 11.6966 16.3009H10.8544L12.5794 14.5759C12.732 14.4233 12.732 14.176 12.5794 14.0234C12.4269 13.8709 12.1796 13.8709 12.027 14.0234L10.3019 15.7484V14.9062C10.3019 13.0244 11.8329 11.4934 13.7147 11.4934H15.1094V12.888Z" fill="#727272"/>
</svg>
