<svg width="16" height="11" viewBox="0 0 16 11" fill="none" xmlns="http://www.w3.org/2000/svg">
<path d="M8 10.0882C12.7765 10.0882 16 6.23529 16 5.04118C16 3.85294 12.7706 0 8 0C3.29412 0 0 3.85294 0 5.04118C0 6.23529 3.28824 10.0882 8 10.0882ZM8.00588 8.25294C6.21176 8.25294 4.78235 6.78824 4.77647 5.04706C4.77059 3.24706 6.21176 1.83529 8.00588 1.83529C9.78824 1.83529 11.2294 3.25294 11.2294 5.04706C11.2294 6.78824 9.78824 8.25294 8.00588 8.25294ZM8.00588 6.24118C8.66471 6.24118 9.21176 5.7 9.21176 5.04706C9.21176 4.38824 8.66471 3.84118 8.00588 3.84118C7.33529 3.84118 6.79412 4.38824 6.79412 5.04706C6.79412 5.7 7.33529 6.24118 8.00588 6.24118Z" fill="#727272"/>
</svg>
