<svg width="44" height="44" viewBox="0 0 44 44" fill="none" xmlns="http://www.w3.org/2000/svg">
<circle cx="22" cy="22" r="22" fill="#F2DECA"/>
<path d="M22.3211 21.4089C22.3211 17.9641 20.1822 16 17.3904 16C14.5832 16 12.4597 17.9641 12.4597 21.4089C12.4597 24.8382 14.5832 26.8177 17.3904 26.8177C18.0485 26.8177 18.6706 26.7097 19.2362 26.4938L20.0846 27.5375H22.1617L20.6553 25.6455C21.6836 24.7251 22.3211 23.2855 22.3211 21.4089ZM16.6192 23.013L17.9663 24.792C17.7863 24.828 17.5909 24.8485 17.3904 24.8485C15.7708 24.8485 14.7168 23.6403 14.7168 21.4089C14.7168 19.1774 15.7708 17.9692 17.3904 17.9692C19.0048 17.9692 20.064 19.1774 20.064 21.4089C20.064 22.5554 19.7812 23.4346 19.2928 24.0156L18.5113 23.013H16.6192Z" fill="#985801"/>
<path d="M23.1026 17.9795H26.3263V26.6738H28.5269V17.9795H31.7506V16.144H23.1026V17.9795Z" fill="#985801"/>
</svg>
