<svg width="30" height="24" viewBox="0 0 30 24" fill="none" xmlns="http://www.w3.org/2000/svg">
<path d="M26.3769 0.332031H3.62227C2.86984 0.3346 2.14917 0.640301 1.61846 1.18202C1.08776 1.72374 0.790401 2.4572 0.79167 3.22138L0.777344 20.5538C0.779548 21.3194 1.07999 22.053 1.61304 22.5944C2.14609 23.1358 2.86842 23.4409 3.62227 23.4431H26.3769C27.1307 23.4409 27.853 23.1358 28.3861 22.5944C28.9191 22.053 29.2196 21.3194 29.2218 20.5538V3.22138C29.2196 2.45576 28.9191 1.72215 28.3861 1.18077C27.853 0.639401 27.1307 0.33427 26.3769 0.332031ZM26.3769 6.10951L14.9996 13.331L3.62227 6.10951V3.22138L14.9996 10.4429L26.3769 3.22138V6.10951Z" fill="white"/>
</svg>
