<svg width="20" height="20" viewBox="0 0 20 20" fill="none" xmlns="http://www.w3.org/2000/svg">
<path d="M11.5623 11.1716C14.6424 11.1716 17.1481 8.66581 17.1481 5.58578C17.1481 2.50575 14.6424 0 11.5623 0C8.48231 0 5.97656 2.50575 5.97656 5.58578C5.97656 8.66581 8.48235 11.1716 11.5623 11.1716ZM11.5623 1.17184C13.9962 1.17184 15.9763 3.1519 15.9763 5.58578C15.9763 8.01965 13.9962 9.99971 11.5623 9.99971C9.12846 9.99971 7.1484 8.01965 7.1484 5.58578C7.1484 3.1519 9.1285 1.17184 11.5623 1.17184Z" fill="#727272"/>
<path d="M12.212 5.01236C11.92 4.90908 11.4439 4.73561 11.2054 4.54855C11.1909 4.53718 11.1639 4.46917 11.1829 4.36812C11.192 4.31961 11.234 4.15766 11.3912 4.11028C11.6339 4.03673 11.8643 4.08504 12.0155 4.19699C12.2541 4.41429 12.6236 4.39777 12.8418 4.15965C13.0598 3.92181 13.0443 3.55283 12.8078 3.33393C12.8078 3.33393 12.5363 3.09222 12.1481 2.97785V2.92961C12.1481 2.60603 11.8858 2.34369 11.5622 2.34369C11.2386 2.34369 10.9763 2.60603 10.9763 2.92961V3.01437C9.92309 3.39741 9.67545 4.83807 10.4823 5.47071C10.8499 5.7589 11.3751 5.95925 11.821 6.11706C12.1115 6.21979 12.141 6.42806 12.1146 6.58474C12.0853 6.75907 11.9351 7.0548 11.5582 7.05726C11.1675 7.05976 11.0749 7.04543 10.7897 6.85879C10.5189 6.68161 10.1558 6.75735 9.97856 7.02816C9.80134 7.29894 9.87716 7.66209 10.1479 7.83931C10.4594 8.04317 10.7061 8.14419 10.9762 8.19149V8.24785C10.9762 8.57144 11.2386 8.83378 11.5621 8.83378C11.8857 8.83378 12.1481 8.57144 12.1481 8.24785V8.12524C13.5677 7.61217 13.756 5.55852 12.212 5.01236Z" fill="#727272"/>
<path d="M16.9546 11.4064L10.2377 12.9349C10.084 12.7953 9.90755 12.678 9.71205 12.59L6.26301 11.0427C5.2598 10.5913 4.11155 10.5968 3.1156 11.0565L0.343419 12.3179C0.048857 12.452 -0.0812564 12.7994 0.0528022 13.0939C0.186822 13.3885 0.534233 13.5186 0.828756 13.3845L3.60383 12.1217C4.29451 11.803 5.08847 11.7992 5.78275 12.1116L9.23179 13.6589C9.53323 13.7946 9.72642 14.096 9.72642 14.4239C9.72642 15.0303 9.10226 15.4406 8.54326 15.189L5.56096 13.8469C5.26577 13.7141 4.91899 13.8457 4.78622 14.1408C4.65341 14.4359 4.78501 14.7828 5.08008 14.9155L8.06237 16.2576C9.56241 16.9326 11.2045 15.6121 10.8521 13.9968C15.2272 13.0012 17.2398 12.544 17.2677 12.5357C18.0574 12.3022 18.8277 12.8953 18.8277 13.6999C18.8277 14.127 18.5995 14.5274 18.2335 14.7442L11.921 18.4621C11.2552 18.8566 10.4543 18.9362 9.72389 18.6803L4.88106 16.9854C4.75055 16.9398 4.6081 16.9417 4.47892 16.9909L0.37748 18.5534C0.0750671 18.6686 -0.0766472 19.0071 0.0385448 19.3095C0.153737 19.6119 0.492282 19.7637 0.794655 19.6484L4.69602 18.1622L9.33663 19.7863C10.3733 20.1494 11.535 20.0529 12.517 19.471L18.8295 15.7532C19.5513 15.3256 19.9996 14.5389 19.9996 13.6999C19.9996 12.1289 18.495 10.9644 16.9546 11.4064Z" fill="#727272"/>
</svg>
