<svg width="20" height="20" viewBox="0 0 20 20" fill="none" xmlns="http://www.w3.org/2000/svg">
<path d="M19.2769 0.723114C18.8107 0.256805 18.1908 0 17.5313 0H2.46872C1.80923 0 1.18927 0.256805 0.723114 0.723114C0.256805 1.18927 0 1.80923 0 2.46872V4.97925C0 5.63858 0.256805 6.25854 0.723114 6.72485C1.18942 7.19116 1.80939 7.44797 2.46872 7.44797H3.76556V18.1589C3.76556 18.6507 3.95706 19.113 4.30481 19.4608C4.65256 19.8085 5.1149 20 5.60669 20H14.3933C14.8851 20 15.3474 19.8085 15.6952 19.4608C16.0428 19.113 16.2344 18.6507 16.2344 18.1589V7.44781H17.5313C18.1908 7.44781 18.8107 7.19116 19.2769 6.72485C19.7432 6.25854 20 5.63858 20 4.97925V2.46872C20 1.80923 19.7432 1.18927 19.2769 0.723114ZM15.0626 18.1589C15.0626 18.3377 14.9928 18.5057 14.8665 18.632C14.7401 18.7585 14.572 18.8281 14.3933 18.8281H5.60669C5.42801 18.8281 5.25986 18.7585 5.13351 18.632C5.00717 18.5057 4.93744 18.3376 4.93744 18.1589V4.30984H15.0626V18.1589ZM18.8281 4.97925C18.8281 5.32562 18.6932 5.65125 18.4482 5.89615C18.2033 6.1412 17.8777 6.27609 17.5313 6.27609H16.2343V4.31H16.9037C17.2272 4.31 17.4896 4.04755 17.4896 3.72406C17.4896 3.40042 17.2272 3.13812 16.9037 3.13812H3.09631C2.77283 3.13812 2.51038 3.40042 2.51038 3.72406C2.51038 4.04755 2.77283 4.31 3.09631 4.31H3.76556V6.27609H2.46872C2.12234 6.27609 1.79672 6.1412 1.55167 5.89615C1.30676 5.65125 1.17188 5.32562 1.17188 4.97925V2.46872C1.17188 2.12234 1.30676 1.79672 1.55182 1.55167C1.79672 1.30676 2.12234 1.17188 2.46872 1.17188H17.5313C17.8777 1.17188 18.2033 1.30676 18.4483 1.55182C18.6932 1.79672 18.8281 2.12234 18.8281 2.46872V4.97925Z" fill="#727272"/>
<path d="M13.1392 15.6902H6.86328C6.53964 15.6902 6.27734 15.9525 6.27734 16.2761C6.27734 16.5996 6.53964 16.8621 6.86328 16.8621H13.1392C13.4629 16.8621 13.7252 16.5996 13.7252 16.2761C13.7252 15.9525 13.4629 15.6902 13.1392 15.6902Z" fill="#727272"/>
</svg>
