<svg width="44" height="44" viewBox="0 0 44 44" fill="none" xmlns="http://www.w3.org/2000/svg">
<circle opacity="0.2" r="22" transform="matrix(1 0 0 -1 22 22)" fill="#C68158"/>
<rect x="10.5" y="13.5" width="23" height="17" rx="2.5" fill="#FFC76F" stroke="#985801"/>
<path d="M26.8823 21.2475C27.3161 21.2273 27.7476 21.3199 28.1339 21.516C28.4062 21.6629 28.6466 21.8612 28.8415 22.0998V20.8107H28.1084C28.0705 20.816 28.0319 20.8126 27.9957 20.8007C27.9594 20.7887 27.9265 20.7686 27.8994 20.7419C27.8724 20.7152 27.8521 20.6826 27.84 20.6467C27.8279 20.6109 27.8244 20.5727 27.8299 20.5353V20.2104C27.8244 20.173 27.8279 20.1348 27.84 20.099C27.8521 20.0631 27.8724 20.0305 27.8994 20.0038C27.9265 19.9771 27.9594 19.9569 27.9957 19.945C28.0319 19.9331 28.0705 19.9297 28.1084 19.935H28.8415V19.3347C28.8407 19.2906 28.849 19.2468 28.8659 19.206C28.8828 19.1652 28.908 19.1282 28.9399 19.0973C28.9711 19.0658 29.0085 19.0409 29.0498 19.0242C29.0911 19.0075 29.1354 18.9993 29.18 19.0001H29.6474C29.692 18.9993 29.7363 19.0075 29.7776 19.0242C29.8189 19.0409 29.8563 19.0658 29.8875 19.0973C29.9194 19.1282 29.9446 19.1652 29.9615 19.206C29.9784 19.2468 29.9867 19.2906 29.9859 19.3347V19.935H30.719C30.7569 19.9297 30.7954 19.9331 30.8317 19.945C30.868 19.9569 30.9009 19.9771 30.9279 20.0038C30.955 20.0305 30.9753 20.0631 30.9874 20.099C30.9995 20.1348 31.0029 20.173 30.9975 20.2104V20.5353C31.0029 20.5727 30.9995 20.6109 30.9874 20.6467C30.9753 20.6826 30.955 20.7152 30.9279 20.7419C30.9009 20.7686 30.868 20.7887 30.8317 20.8007C30.7954 20.8126 30.7569 20.816 30.719 20.8107H29.9928V27.5355C29.9936 27.5796 29.9853 27.6234 29.9684 27.6642C29.9515 27.705 29.9263 27.742 29.8944 27.7728C29.8632 27.8044 29.8258 27.8293 29.7845 27.846C29.7432 27.8627 29.6989 27.8709 29.6543 27.8701H29.1829C29.1383 27.8709 29.094 27.8627 29.0527 27.846C29.0114 27.8293 28.974 27.8044 28.9428 27.7728C28.9109 27.742 28.8858 27.705 28.8688 27.6642C28.8519 27.6234 28.8436 27.5796 28.8444 27.5355V27.1463C28.65 27.3928 28.4044 27.5952 28.1241 27.7398C27.7386 27.9275 27.3115 28.0161 26.8823 27.9976C26.5036 28.0014 26.1279 27.932 25.7762 27.7933C25.4402 27.6595 25.1364 27.4573 24.8847 27.1998C24.6233 26.9286 24.4171 26.6102 24.2775 26.2619C24.12 25.8663 24.0308 25.4473 24.0138 25.0224C24.0046 24.8979 24 24.7626 24 24.6167C24 24.4708 24.0046 24.3352 24.0138 24.21C24.0317 23.7857 24.1215 23.3674 24.2795 22.9725C24.4182 22.6258 24.6245 22.3094 24.8866 22.0414C25.1401 21.7884 25.4436 21.5897 25.7782 21.4576C26.1288 21.3171 26.5039 21.2458 26.8823 21.2475V21.2475ZM28.8415 25.1606C28.85 25.0354 28.8543 24.871 28.8543 24.6673C28.8543 24.4636 28.85 24.2992 28.8415 24.174C28.8503 23.6655 28.6575 23.1738 28.3042 22.8042C28.1317 22.6423 27.9282 22.5163 27.7056 22.4335C27.4829 22.3508 27.2458 22.3131 27.0082 22.3226C26.7636 22.3103 26.5193 22.351 26.2922 22.4417C26.0651 22.5325 25.8608 22.6711 25.6935 22.8479C25.3537 23.2473 25.1658 23.7514 25.1622 24.2733C25.1536 24.5068 25.1536 24.7399 25.1622 24.9728C25.1658 25.4946 25.3537 25.9988 25.6935 26.3981C25.8608 26.575 26.0651 26.7136 26.2922 26.8043C26.5193 26.8951 26.7636 26.9357 27.0082 26.9235C27.2441 26.9319 27.4793 26.8944 27.7005 26.8129C27.9217 26.7314 28.1245 26.6077 28.2973 26.4487C28.4696 26.2802 28.6064 26.0796 28.6998 25.8585C28.7932 25.6374 28.8413 25.4002 28.8415 25.1606V25.1606Z" fill="#D14406" stroke="#D14406" stroke-width="0.3"/>
<rect x="11" y="16" width="22" height="2" fill="url(#paint0_linear)"/>
<defs>
<linearGradient id="paint0_linear" x1="22" y1="16" x2="22" y2="18" gradientUnits="userSpaceOnUse">
<stop stop-color="#EA6544"/>
<stop offset="1" stop-color="#D12A1E"/>
</linearGradient>
</defs>
</svg>
