<svg width="36" height="36" viewBox="0 0 36 36" fill="none" xmlns="http://www.w3.org/2000/svg">
<path d="M26.4327 9.61613C31.0766 14.26 31.0766 21.7893 26.4327 26.4332C21.7888 31.0771 14.2595 31.0771 9.61563 26.4332C4.97173 21.7893 4.97173 14.26 9.61563 9.61613C14.2595 4.97223 21.7888 4.97222 26.4327 9.61613Z" fill="#9EA8BA" stroke="#985801"/>
<path d="M24.9935 24.9944C28.8432 21.1447 28.8432 14.9031 24.9935 11.0534C21.1438 7.20374 14.9022 7.20374 11.0525 11.0534C7.20282 14.9031 7.20282 21.1447 11.0525 24.9944C14.9022 28.8441 21.1438 28.8441 24.9935 24.9944Z" fill="#C5D4EA"/>
<path d="M18.7012 13.4531L19.6412 15.4386C19.6974 15.5571 19.7804 15.6597 19.883 15.7375C19.9856 15.8152 20.1047 15.8658 20.2302 15.885L22.332 16.2037C22.4762 16.2262 22.6114 16.2901 22.7226 16.3883C22.8338 16.4865 22.9166 16.615 22.9616 16.7596C23.0067 16.9041 23.0122 17.0588 22.9775 17.2064C22.9429 17.354 22.8695 17.4886 22.7655 17.5951L21.245 19.1412C21.154 19.2334 21.086 19.3473 21.0469 19.473C21.0077 19.5988 20.9985 19.7326 21.0201 19.8629L21.3818 22.0459C21.406 22.1958 21.3895 22.3498 21.3343 22.4905C21.2792 22.6312 21.1875 22.7531 21.0695 22.8425C20.9516 22.9318 20.8121 22.9851 20.6667 22.9963C20.5213 23.0075 20.3758 22.9763 20.2465 22.906L18.3672 21.8755C18.2548 21.814 18.1299 21.7819 18.003 21.7819C17.8762 21.7819 17.7512 21.814 17.6388 21.8755L15.7589 22.906C15.6296 22.977 15.4838 23.0088 15.338 22.9979C15.1922 22.987 15.0522 22.9339 14.9339 22.8444C14.8156 22.7549 14.7236 22.6328 14.6683 22.4917C14.6131 22.3506 14.5967 22.1961 14.6212 22.0459L14.983 19.8629C15.0042 19.7326 14.9949 19.5989 14.9557 19.4732C14.9165 19.3475 14.8487 19.2335 14.7581 19.1412L13.2345 17.5951C13.1305 17.4886 13.0571 17.354 13.0225 17.2064C12.9878 17.0588 12.9933 16.9041 13.0384 16.7596C13.0834 16.615 13.1662 16.4865 13.2774 16.3883C13.3886 16.2901 13.5238 16.2262 13.668 16.2037L15.7692 15.8844C15.8947 15.8652 16.0138 15.8146 16.1164 15.7368C16.219 15.6591 16.302 15.5565 16.3582 15.438L17.2982 13.4524C17.3633 13.3165 17.4634 13.2021 17.5873 13.1222C17.7113 13.0422 17.8542 12.9999 17.9999 13C18.1456 13.0001 18.2884 13.0425 18.4123 13.1225C18.5362 13.2026 18.6363 13.317 18.7012 13.4531Z" fill="#889BB5"/>
<path opacity="0.5" d="M24.7372 10.8091C26.4502 12.6898 27.3698 15.16 27.3038 17.703C27.2377 20.2461 26.1911 22.6652 24.3828 24.4545C22.5744 26.2437 20.1443 27.2646 17.6007 27.3037C15.0571 27.3427 12.5968 26.397 10.7344 24.6641C11.6292 25.6465 12.7134 26.4378 13.9218 26.9905C15.1302 27.5433 16.4379 27.846 17.7662 27.8805C19.0946 27.915 20.4163 27.6806 21.6517 27.1913C22.8872 26.702 24.011 25.968 24.9556 25.0334C25.9002 24.0988 26.6461 22.9828 27.1484 21.7526C27.6508 20.5224 27.8992 19.2033 27.8788 17.8747C27.8584 16.546 27.5696 15.2352 27.0297 14.021C26.4898 12.8068 25.71 11.7143 24.7372 10.8091Z" fill="#DBEAFF"/>
<path d="M8.82557 18.996C8.82585 16.9367 9.47094 14.9293 10.6703 13.2553C11.8697 11.5814 13.5631 10.3251 15.5129 9.66269C17.4627 9.00029 19.571 8.96506 21.5418 9.56197C23.5126 10.1589 25.2471 11.3579 26.5017 12.9908C25.8152 11.8356 24.8998 10.8329 23.8117 10.0444C22.7237 9.25581 21.4858 8.69802 20.1743 8.40526C18.8628 8.1125 17.5053 8.09096 16.1851 8.34195C14.865 8.59294 13.6101 9.11118 12.4975 9.86482C11.385 10.6185 10.4382 11.5916 9.71545 12.7245C8.99268 13.8573 8.50913 15.126 8.29451 16.4525C8.0799 17.7791 8.13874 19.1355 8.46744 20.4384C8.79613 21.7414 9.38773 22.9634 10.2059 24.0294C9.2999 22.507 8.82293 20.7676 8.82557 18.996Z" fill="#889BB5"/>
</svg>
