<svg width="44" height="44" viewBox="0 0 44 44" fill="none" xmlns="http://www.w3.org/2000/svg">
<circle opacity="0.2" cx="22" cy="22" r="22" fill="#C68158"/>
<path d="M34.026 14.3236V17.0016H29.582L29.582 14.3236C29.5799 13.0984 30.5714 12.1035 31.7964 12.1016H31.8075C33.0314 12.1016 34.0239 13.0927 34.026 14.3165V14.3236Z" fill="#CD4005" stroke="#985801"/>
<path d="M15.8157 12.1016H31.7934C30.5684 12.1035 29.5769 13.0984 29.5791 14.3236V30.6045C29.5771 32.2524 28.2407 33.5873 26.5927 33.5873H26.5838C26.5147 33.5873 26.4465 33.5848 26.3784 33.5799C24.8128 33.4704 20.0534 33.5873 16.561 33.5799H13.5938V28.6674V28.6408L13.6993 14.1914C13.6993 13.0276 14.652 12.1016 15.8157 12.1016Z" fill="#FFC76F" stroke="#985801"/>
<path d="M25.4979 17.4887V21.3428C25.4979 22.3304 24.8575 23.5401 24.0409 24.0974L21.2485 26.0013L18.4562 24.0974C17.6396 23.5401 17 22.3304 17 21.3428V17.4826L21.2485 15.4014L25.4979 17.4887Z" fill="url(#paint0_linear)"/>
<path d="M20.9441 21.8702H20.9428C20.799 21.8697 20.6613 21.8122 20.5602 21.7101L19.4726 20.6116C19.3346 20.475 19.2805 20.2747 19.3312 20.0868C19.3818 19.8992 19.5293 19.7533 19.7175 19.7045C19.9056 19.6557 20.1053 19.7119 20.2407 19.8512L20.9462 20.5636L22.7122 18.7984C22.9233 18.5874 23.2655 18.5874 23.4763 18.7984C23.6874 19.0095 23.6874 19.3515 23.4763 19.5626L21.3264 21.7119C21.2248 21.8132 21.0874 21.8702 20.9441 21.8702Z" fill="white"/>
<path d="M27.0391 33.5551H13.5688C11.955 33.5551 11.0742 32.5018 11.0742 31.5083V29.5439H24.3195V31.5018C24.3195 32.5018 25.5059 33.4441 27.0391 33.5551Z" fill="#CD4005" stroke="#985801"/>
<defs>
<linearGradient id="paint0_linear" x1="21.2489" y1="15.4014" x2="21.2489" y2="26.0013" gradientUnits="userSpaceOnUse">
<stop stop-color="#E1590A"/>
<stop offset="1" stop-color="#C23102"/>
</linearGradient>
</defs>
</svg>
