<svg width="44" height="44" viewBox="0 0 44 44" fill="none" xmlns="http://www.w3.org/2000/svg">
<circle opacity="0.2" cx="22" cy="22" r="22" fill="#C68158"/>
<path d="M16.9925 36.9308L16.8451 26.6652C20.0831 28.4577 24.0942 28.6624 27.5878 26.949L27.7177 36.7477C27.7233 37.0695 27.5554 37.3663 27.2841 37.5292C27.2519 37.5485 27.2157 37.5681 27.1808 37.5828C26.8479 37.7264 26.4631 37.655 26.2025 37.4049L22.3044 33.6235L18.5304 37.5339C18.2797 37.7969 17.8977 37.8761 17.5605 37.745C17.2241 37.6153 17.0012 37.2926 16.9925 36.9308Z" fill="#CD4005" stroke="#985801"/>
<circle cx="22.5" cy="18.5" r="10.5" fill="#FFC76F" stroke="#985801"/>
<path fill-rule="evenodd" clip-rule="evenodd" d="M22.52 21.689L19.8225 23.0467C19.7134 23.1016 19.5905 23.1262 19.4676 23.1177C19.3446 23.1092 19.2267 23.068 19.127 22.9986C19.0273 22.9293 18.9498 22.8346 18.9033 22.7253C18.8569 22.616 18.8433 22.4965 18.8641 22.3802L19.3793 19.5041L17.1997 17.4672C17.1114 17.3848 17.0489 17.2804 17.0193 17.1659C16.9897 17.0513 16.9942 16.9311 17.0323 16.8188C17.0704 16.7066 17.1405 16.6067 17.2347 16.5307C17.329 16.4546 17.4436 16.4053 17.5656 16.3883L20.5814 15.9684L21.9255 13.3522C21.9801 13.2465 22.0645 13.1575 22.1691 13.0952C22.2738 13.033 22.3945 13 22.5177 13C22.6409 13 22.7616 13.033 22.8662 13.0952C22.9709 13.1575 23.0553 13.2465 23.1098 13.3522L24.4586 15.969L27.4744 16.3889C27.5964 16.4059 27.711 16.4552 27.8053 16.5313C27.8995 16.6074 27.9696 16.7072 28.0077 16.8194C28.0458 16.9317 28.0503 17.0519 28.0207 17.1665C27.9911 17.2811 27.9286 17.3854 27.8403 17.4678L25.6607 19.5047L26.1759 22.3808C26.1967 22.4971 26.1831 22.6167 26.1367 22.726C26.0902 22.8352 26.0128 22.9299 25.913 22.9993C25.8133 23.0686 25.6954 23.1099 25.5724 23.1184C25.4495 23.1269 25.3266 23.1023 25.2175 23.0474L22.52 21.689Z" fill="url(#paint0_linear)"/>
<defs>
<linearGradient id="paint0_linear" x1="22.52" y1="13" x2="22.52" y2="23.12" gradientUnits="userSpaceOnUse">
<stop stop-color="#E1590A"/>
<stop offset="1" stop-color="#C23102"/>
</linearGradient>
</defs>
</svg>
