<svg width="44" height="44" viewBox="0 0 44 44" fill="none" xmlns="http://www.w3.org/2000/svg">
<circle opacity="0.2" r="22" transform="matrix(1 0 0 -1 22 22)" fill="#C68158"/>
<path d="M22.1421 16.3836H22.1422C22.588 16.3836 22.9496 16.0221 22.9497 15.5761C22.9497 15.5761 22.9497 15.5761 22.9497 15.5761M22.1421 16.3836L22.9497 15.5761M22.1421 16.3836C21.696 16.3836 21.3346 16.0221 21.3346 15.5761V15.576M22.1421 16.3836L21.3346 15.576M22.9497 15.5761C22.9496 15.1301 22.5881 14.7686 22.1422 14.7686M22.9497 15.5761L22.1422 14.7686M22.1422 14.7686C22.1422 14.7686 22.1421 14.7686 22.1421 14.7686M22.1422 14.7686H22.1421M22.1421 14.7686C21.696 14.7686 21.3346 15.1301 21.3346 15.576M22.1421 14.7686L21.3346 15.576M26.1706 29.9931C26.2693 29.9931 26.3492 29.913 26.3493 29.8146C26.3492 29.7159 26.2691 29.6358 26.1706 29.6358L18.1137 29.6358C18.1137 29.6358 18.1136 29.6358 18.1136 29.6358C18.0151 29.6358 17.935 29.716 17.935 29.8144C17.935 29.913 18.015 29.9931 18.1137 29.9931L26.1706 29.9931ZM26.1706 29.9931C26.1706 29.9931 26.1706 29.9931 26.1706 29.9931L18.1137 29.9931H26.1706ZM15.6661 30.4459L15.6661 30.4459C15.6661 31.681 16.6672 32.6821 17.9023 32.6822L17.9023 32.6822L26.382 32.6821C27.6171 32.6821 28.6181 31.681 28.6181 30.4458L28.6181 15.5521V15.552C28.6181 14.8362 28.2752 14.163 27.6953 13.7423L23.4556 10.6652C22.6722 10.0966 21.6119 10.0965 20.8285 10.6653L16.5888 13.7423C16.009 14.1631 15.6661 14.8362 15.6661 15.5521L15.6661 30.4459Z" fill="#FFC76F" stroke="#985801"/>
<path d="M27.4017 14.147L23.1619 11.0699C22.5537 10.6283 21.7305 10.6283 21.1223 11.0699L16.8825 14.147C16.4324 14.4737 16.1661 14.9963 16.1661 15.5521L16.1661 30.4459C16.1661 31.4049 16.9434 32.1821 17.9023 32.1822L26.382 32.1821C27.3409 32.1821 28.1181 31.4049 28.1181 30.4458L28.1181 15.5521C28.1181 14.9963 27.8518 14.4736 27.4017 14.147ZM26.8493 29.8145C26.8493 30.1892 26.5454 30.4931 26.1706 30.4931L18.1137 30.4931C17.7389 30.4931 17.435 30.1892 17.435 29.8144C17.435 29.4399 17.7389 29.1358 18.1136 29.1358L26.1706 29.1358C26.5453 29.1358 26.8492 29.4398 26.8493 29.8145ZM23.4497 15.5761C23.4497 16.2983 22.8642 16.8837 22.1421 16.8836C21.42 16.8836 20.8346 16.2983 20.8346 15.5761C20.8346 14.8539 21.4199 14.2686 22.1421 14.2686C22.8642 14.2686 23.4496 14.854 23.4497 15.5761Z" fill="#FFC76F"/>
<path d="M23.092 16.568C22.5971 17.1297 21.717 17.0888 21.1945 16.5904C20.6295 16.0527 20.6838 15.1138 21.1729 14.6338C21.6786 14.1342 22.6145 14.1132 23.1295 14.6705C23.6279 15.2082 23.6536 16.0701 23.092 16.568Z" fill="url(#paint0_linear)"/>
<defs>
<linearGradient id="paint0_linear" x1="21.1693" y1="14.6374" x2="23.0977" y2="16.5658" gradientUnits="userSpaceOnUse">
<stop stop-color="#EA6544"/>
<stop offset="1" stop-color="#D12A1E"/>
</linearGradient>
</defs>
</svg>
