<svg width="20" height="20" viewBox="0 0 20 20" fill="none" xmlns="http://www.w3.org/2000/svg">
<path d="M1 9.99999C1 8.21996 1.52773 6.47988 2.51666 4.99983C3.5056 3.51979 4.91125 2.36624 6.55579 1.68505C8.20033 1.00386 10.0101 0.825683 11.7559 1.17295C13.5017 1.52022 15.1052 2.37734 16.3638 3.63602C17.6225 4.89469 18.4797 6.49834 18.827 8.24417C19.1742 9.99 18.9962 11.7996 18.315 13.4441C17.6338 15.0887 16.4802 16.4943 15.0002 17.4832C13.5201 18.4721 11.78 19 10 19C7.61388 18.9973 5.32617 18.0483 3.63892 16.361C1.95167 14.6738 1.00268 12.3861 1 9.99999ZM2.38373 9.99999C2.38351 11.5061 2.82981 12.9785 3.66638 14.2309C4.50296 15.4833 5.69229 16.4595 7.08368 17.0361C8.47508 17.6127 10.0062 17.7638 11.4834 17.4702C12.9607 17.1765 14.3176 16.4514 15.3828 15.3866C16.4479 14.3218 17.1734 12.965 17.4674 11.4879C17.7615 10.0107 17.611 8.47956 17.0348 7.08799C16.4587 5.69643 15.4828 4.50695 14.2306 3.67001C12.9784 2.83306 11.5061 2.3862 10 2.38598C7.98117 2.38836 6.04555 3.19122 4.6178 4.61854C3.19006 6.04586 2.38671 7.98116 2.38373 9.99999ZM12.2838 13.2625L9.51524 10.4927C9.38561 10.3628 9.31258 10.1869 9.31254 10.0034V5.84983C9.31254 5.66604 9.38555 5.48981 9.51551 5.35984C9.64547 5.22988 9.82171 5.15687 10.0055 5.15687C10.1893 5.15687 10.3658 5.22988 10.4958 5.35984C10.6257 5.48981 10.6987 5.66604 10.6987 5.84983V9.71764L13.266 12.2838C13.3917 12.4147 13.461 12.5897 13.4591 12.7712C13.4571 12.9527 13.384 13.1262 13.2555 13.2544C13.127 13.3826 12.9534 13.4553 12.7719 13.4568C12.5903 13.4583 12.4155 13.3886 12.2849 13.2625H12.2838Z" fill="#727272" stroke="#727272" stroke-width="0.5"/>
</svg>
