<svg width="60" height="61" viewBox="0 0 60 61" fill="none" xmlns="http://www.w3.org/2000/svg">
<circle cx="30" cy="31" r="30" fill="url(#paint0_linear)"/>
<ellipse cx="30" cy="30.5" rx="30" ry="30.5" fill="url(#paint1_linear)"/>
<mask id="mask0" style="mask-type:alpha" maskUnits="userSpaceOnUse" x="13" y="12" width="33" height="34">
<rect x="13.2695" y="12.9038" width="32.3077" height="32.8462" fill="#C4C4C4"/>
</mask>
<g mask="url(#mask0)">
<path d="M37.3588 42.2925H21.4883C20.238 42.2925 19.2211 41.2587 19.2211 39.9874V29.6148H16.9539C16.318 29.6148 15.8203 29.1088 15.8203 28.4622C15.8203 28.1568 15.9427 27.8572 16.1559 27.6405L29.0268 14.7968C29.2467 14.5778 29.6004 14.5778 29.8203 14.7968L42.6867 27.6359C42.9044 27.8572 43.0268 28.1568 43.0268 28.4622C43.0268 29.1088 42.5291 29.6148 41.8932 29.6148H39.626V39.9874C39.626 41.2587 38.6091 42.2925 37.3588 42.2925ZM29.4236 16.0162L16.9539 28.4588L19.7879 28.4622C20.1008 28.4622 20.3547 28.7204 20.3547 29.0385V39.9874C20.3547 40.6225 20.8637 41.14 21.4883 41.14H37.3588C37.9834 41.14 38.4924 40.6225 38.4924 39.9874V29.0385C38.4924 28.7204 38.7463 28.4622 39.0592 28.4622H41.8932C41.8932 28.4599 41.8909 28.4565 41.8898 28.4553L29.4236 16.0162Z" fill="white" stroke="white" stroke-width="0.5"/>
<path d="M29.4221 37.1062C29.2527 37.1062 29.0893 37.0461 28.962 36.9369C28.4811 36.525 28.0175 36.138 27.6085 35.7966L27.6064 35.7949C26.4073 34.7939 25.3717 33.9295 24.6513 33.078C23.8458 32.1261 23.4707 31.2235 23.4707 30.2375C23.4707 29.2796 23.8061 28.3958 24.415 27.7488C25.0311 27.0943 25.8766 26.7338 26.7959 26.7338C27.4829 26.7338 28.1122 26.9465 28.666 27.3661C28.9455 27.5779 29.1989 27.8371 29.4221 28.1394C29.6454 27.8371 29.8987 27.5779 30.1783 27.3661C30.7322 26.9465 31.3614 26.7338 32.0485 26.7338C32.9677 26.7338 33.8132 27.0943 34.4294 27.7488C35.0383 28.3958 35.3735 29.2796 35.3735 30.2375C35.3735 31.2235 34.9985 32.1261 34.1931 33.0779C33.4726 33.9295 32.4371 34.7938 31.2382 35.7947C30.8284 36.1366 30.3641 36.5242 29.8822 36.9371C29.7549 37.0461 29.5915 37.1062 29.4221 37.1062ZM26.7959 27.4167C26.0736 27.4167 25.4102 27.699 24.9275 28.2117C24.4377 28.7322 24.1679 29.4516 24.1679 30.2375C24.1679 31.0668 24.4825 31.8085 25.188 32.6423C25.8699 33.4482 26.8842 34.2948 28.0586 35.2751L28.0608 35.2769C28.4713 35.6196 28.9367 36.0082 29.4211 36.423C29.9084 36.0074 30.3745 35.6182 30.7859 35.275C31.9602 34.2947 32.9744 33.4482 33.6563 32.6423C34.3617 31.8085 34.6764 31.0668 34.6764 30.2375C34.6764 29.4516 34.4066 28.7322 33.9167 28.2117C33.4342 27.699 32.7706 27.4167 32.0485 27.4167C31.5194 27.4167 31.0337 27.5814 30.6048 27.9063C30.2225 28.1959 29.9563 28.562 29.8002 28.8182C29.7199 28.9499 29.5786 29.0285 29.4221 29.0285C29.2657 29.0285 29.1243 28.9499 29.0441 28.8182C28.8881 28.562 28.6218 28.1959 28.2395 27.9063C27.8106 27.5814 27.3248 27.4167 26.7959 27.4167Z" fill="white" stroke="white" stroke-width="0.8"/>
</g>
<defs>
<linearGradient id="paint0_linear" x1="30" y1="1" x2="30" y2="61" gradientUnits="userSpaceOnUse">
<stop stop-color="#EA6544"/>
<stop offset="1" stop-color="#D12A1E"/>
</linearGradient>
<linearGradient id="paint1_linear" x1="30" y1="0" x2="30" y2="61" gradientUnits="userSpaceOnUse">
<stop stop-color="#EA6544"/>
<stop offset="1" stop-color="#D12A1E"/>
</linearGradient>
</defs>
</svg>
