<?xml version="1.0" encoding="utf-8"?>
<svg viewBox="546.759 235.038 30.548 38.03" xmlns="http://www.w3.org/2000/svg">
  <defs>
    <linearGradient id="paint0_linear_4_10089" x1="8.27308" y1="3.63672" x2="8.27308" y2="10.9094" gradientUnits="userSpaceOnUse">
      <stop stop-color="#E1590A"/>
      <stop offset="1" stop-color="#C23102"/>
    </linearGradient>
  </defs>
  <path d="M17.7452 2.41629V4.36395H14.5132L14.5132 2.41629C14.5116 1.52525 15.2327 0.801715 16.1236 0.800293H16.1317C17.0218 0.800293 17.7436 1.52112 17.7452 2.41117V2.41629Z" fill="#CD4005" stroke="#985801" transform="matrix(1, 0, 0, 1, 552.944153, 241.386688)"/>
  <path d="M4.50369 0.800293H16.1238C15.2329 0.801715 14.5118 1.52525 14.5134 2.41629V14.257C14.512 15.4555 13.54 16.4263 12.3415 16.4263H12.335C12.2848 16.4263 12.2351 16.4245 12.1857 16.4209C11.047 16.3413 7.58565 16.4263 5.04572 16.4209H2.8877V12.8482V12.8288L2.96449 2.32016C2.96449 1.47377 3.6573 0.800293 4.50369 0.800293Z" fill="#FFC76F" stroke="#985801" transform="matrix(1, 0, 0, 1, 552.944153, 241.386688)"/>
  <path d="M12.6655 16.403H2.86891C1.69525 16.403 1.05469 15.637 1.05469 14.9145V13.4858H10.6876V14.9097C10.6876 15.637 11.5505 16.3223 12.6655 16.403Z" fill="#CD4005" stroke="#985801" transform="matrix(1, 0, 0, 1, 552.944153, 241.386688)"/>
  <circle cx="8.27308" cy="7.27308" r="3.63636" fill="url(#paint0_linear_4_10089)" transform="matrix(1, 0, 0, 1, 552.944153, 241.386688)"/>
  <path d="M7.90967 9.1266V5.49023H8.63318V9.1266H7.90967ZM6.45459 7.66882V6.94532H10.091V7.66882H6.45459Z" fill="white" transform="matrix(1, 0, 0, 1, 552.944153, 241.386688)"/>
</svg>