<svg width="60" height="60" viewBox="0 0 60 60" fill="none" xmlns="http://www.w3.org/2000/svg">
<circle cx="30" cy="30" r="30" fill="url(#paint0_linear)"/>
<path d="M32.0693 37.3254L32.0691 37.3255L32.0666 37.3277L32.0665 37.3277L32.058 37.3352C31.6315 37.7054 31.2495 38.037 30.9419 38.3206C30.7324 38.5137 30.4607 38.6133 30.1825 38.6133C29.9043 38.6133 29.6325 38.5136 29.4231 38.3206L29.4231 38.3205C29.1145 38.0362 28.7311 37.7033 28.3029 37.3315L28.2959 37.3254C26.728 35.9643 24.5522 34.0726 22.7643 31.785C20.9721 29.492 19.6448 26.8944 19.6448 24.1302C19.6448 21.3575 20.737 18.7527 22.7272 16.7885C24.7178 14.824 27.3626 13.7419 30.1825 13.7419C33.0025 13.7419 35.6472 14.824 37.6378 16.7885C39.6281 18.7527 40.7202 21.3575 40.7203 24.1303C40.7203 26.8944 39.3929 29.4919 37.6008 31.7849C35.8155 34.0693 33.6433 35.9589 32.0758 37.3196C32.0737 37.3215 32.0715 37.3234 32.0693 37.3254Z" stroke="white" stroke-width="1.7"/>
<circle cx="30.1863" cy="23.3305" r="3.8949" stroke="white" stroke-width="1.7"/>
<path d="M20.9914 36.4642H18.6906C18.251 36.4642 17.863 36.7513 17.7344 37.1716L15.3956 44.8145C15.1989 45.4572 15.6796 46.1071 16.3518 46.1071H43.6482C44.3204 46.1071 44.8011 45.4572 44.6044 44.8145L42.2656 37.1716C42.137 36.7513 41.749 36.4642 41.3094 36.4642H39.0086" stroke="white" stroke-width="1.7" stroke-linecap="round" stroke-linejoin="round"/>
<defs>
<linearGradient id="paint0_linear" x1="30" y1="0" x2="30" y2="60" gradientUnits="userSpaceOnUse">
<stop stop-color="#EA6544"/>
<stop offset="1" stop-color="#D12A1E"/>
</linearGradient>
</defs>
</svg>
