<svg width="110" height="110" viewBox="0 0 110 110" fill="none" xmlns="http://www.w3.org/2000/svg">
<path d="M55 110C85.3757 110 110 85.3757 110 55C110 24.6243 85.3757 0 55 0C24.6243 0 0 24.6243 0 55C0 85.3757 24.6243 110 55 110Z" fill="#EDEAE8"/>
<g clip-path="url(#clip0)">
<path d="M71.75 65.8842L86.3203 85.3203C84.081 87.5597 80.45 87.5597 78.2106 85.3203L65.2623 72.372L71.75 65.8842Z" fill="#C9C9C9"/>
<path d="M68.5063 69.1281L81.4547 82.0764C83.694 84.3157 85.8728 85.768 86.3205 85.3202C88.5598 83.0809 88.5598 79.4499 86.3205 77.2105L73.3722 64.2622L68.5063 69.1281Z" fill="#DADADA"/>
<path d="M71.7578 65.8808L63.6494 57.7723L58.7843 62.6374L66.8927 70.7459L71.7578 65.8808Z" fill="#B5B5B5"/>
<path d="M66.0811 53.7281L68.2005 58.6831C68.3848 59.114 68.2885 59.6138 67.9571 59.9451L60.9446 66.9575C60.6132 67.2889 60.1135 67.3854 59.6826 67.2009L54.7276 65.0815L66.0811 53.7281Z" fill="#DADADA"/>
<path fill-rule="evenodd" clip-rule="evenodd" d="M66.8812 67.5097C66.8823 67.5086 66.8834 67.5075 66.8845 67.5063L71.7503 62.6405C72.6461 61.7447 74.0984 61.7447 74.9942 62.6405C75.89 63.5363 75.89 64.9886 74.9942 65.8843L70.1283 70.7502C70.1272 70.7513 70.1261 70.7524 70.125 70.7535L66.8845 73.994C65.9887 74.8898 64.5364 74.8898 63.6406 73.994C62.7448 73.0982 62.7448 71.646 63.6406 70.7502L66.8812 67.5097Z" fill="#C9C9C9"/>
<path d="M46.5975 67.688C33.8658 67.688 23.5447 57.3669 23.5447 44.6351C23.5447 31.9034 33.8658 21.5823 46.5975 21.5823C59.3293 21.5823 69.6504 31.9034 69.6504 44.6351C69.6504 57.3669 59.3293 67.688 46.5975 67.688Z" fill="#C9C9C9"/>
<path d="M46.5977 25.2512V64.0191C35.8922 64.0191 27.2137 55.3406 27.2137 44.6352C27.2137 33.9297 35.8922 25.2512 46.5977 25.2512Z" fill="#DADADA"/>
<path d="M30.8834 44.6352C30.8834 33.9297 37.9192 25.2512 46.5984 25.2512C57.3039 25.2512 65.9824 33.9297 65.9824 44.6352C65.9824 55.3406 57.3039 64.0191 46.5984 64.0191C37.9192 64.0191 30.8834 55.3406 30.8834 44.6352Z" fill="white"/>
</g>
<defs>
<clipPath id="clip0">
<rect width="76" height="76" fill="white" transform="matrix(-1 0 0 1 88 11)"/>
</clipPath>
</defs>
</svg>
