<svg width="60" height="60" viewBox="0 0 60 60" fill="none" xmlns="http://www.w3.org/2000/svg">
<circle cx="30" cy="30" r="30" fill="url(#paint0_linear)"/>
<mask id="mask0" style="mask-type:alpha" maskUnits="userSpaceOnUse" x="11" y="11" width="38" height="38">
<rect x="11" y="11" width="38" height="38" fill="#C4C4C4"/>
</mask>
<g mask="url(#mask0)">
<path d="M13.9727 41.9617C13.9727 41.4094 14.4204 40.9617 14.9727 40.9617H19.1316C19.6839 40.9617 20.1316 41.4094 20.1316 41.9617V47.1206H13.9727V41.9617Z" fill="white"/>
<path d="M22.5957 37.0345C22.5957 36.4823 23.0434 36.0345 23.5957 36.0345H27.7546C28.3069 36.0345 28.7546 36.4823 28.7546 37.0345V47.1206H22.5957V37.0345Z" fill="white"/>
<path d="M31.2168 30.8756C31.2168 30.3233 31.6645 29.8756 32.2168 29.8756H36.3757C36.928 29.8756 37.3757 30.3233 37.3757 30.8756V47.1206H31.2168V30.8756Z" fill="white"/>
<path d="M39.8418 27.1803C39.8418 26.628 40.2895 26.1803 40.8418 26.1803H45.0007C45.553 26.1803 46.0007 26.628 46.0007 27.1803V47.1206H39.8418V27.1803Z" fill="white"/>
<path d="M14.4181 34.0727C14.0149 34.1676 13.7649 34.5713 13.8598 34.9745C13.9547 35.3777 14.3584 35.6277 14.7616 35.5328L14.4181 34.0727ZM42.3948 13.6084C42.2545 13.2187 41.8248 13.0165 41.4351 13.1568L35.0841 15.4431C34.6943 15.5834 34.4921 16.0131 34.6324 16.4028C34.7727 16.7926 35.2024 16.9948 35.5922 16.8544L41.2375 14.8221L43.2698 20.4675C43.4101 20.8572 43.8398 21.0594 44.2295 20.9191C44.6192 20.7788 44.8214 20.3491 44.6811 19.9594L42.3948 13.6084ZM14.7616 35.5328C25.4095 33.0275 37.325 24.8976 42.3677 14.1818L41.0105 13.5431C36.1989 23.7676 24.7106 31.6509 14.4181 34.0727L14.7616 35.5328Z" fill="white"/>
</g>
<defs>
<linearGradient id="paint0_linear" x1="30" y1="0" x2="30" y2="60" gradientUnits="userSpaceOnUse">
<stop stop-color="#EA6544"/>
<stop offset="1" stop-color="#D12A1E"/>
</linearGradient>
</defs>
</svg>
