<svg width="60" height="60" viewBox="0 0 60 60" fill="none" xmlns="http://www.w3.org/2000/svg">
<circle cx="30" cy="30" r="30" fill="url(#paint0_linear)"/>
<mask id="mask0" style="mask-type:alpha" maskUnits="userSpaceOnUse" x="11" y="11" width="38" height="38">
<rect x="11" y="11" width="38" height="38" fill="#C4C4C4"/>
</mask>
<g mask="url(#mask0)">
<path d="M47.7623 25.451C47.3097 25.0187 46.7101 24.774 46.0843 24.766H46.1843V21.239C46.1785 19.8517 45.6249 18.5228 44.6441 17.5416C43.6633 16.5604 42.3346 16.0063 40.9473 16H17.9363C16.5486 16.0058 15.2194 16.5596 14.2381 17.5409C13.2569 18.5221 12.7031 19.8513 12.6973 21.239V38.939C12.7031 40.3267 13.2569 41.6559 14.2381 42.6371C15.2194 43.6184 16.5486 44.1722 17.9363 44.178H40.9473C42.335 44.1722 43.6642 43.6184 44.6454 42.6371C45.6267 41.6559 46.1805 40.3267 46.1863 38.939V35.381H46.0863C46.7121 35.373 47.3117 35.1283 47.7643 34.696C48.2021 34.247 48.4479 33.6451 48.4493 33.018V27.128C48.4405 26.5022 48.195 25.903 47.7623 25.451ZM44.3033 38.908C44.2942 39.7952 43.9377 40.6436 43.3102 41.271C42.6828 41.8984 41.8345 42.2549 40.9473 42.264H17.9363C17.049 42.2549 16.2007 41.8984 15.5733 41.271C14.9459 40.6436 14.5894 39.7952 14.5803 38.908V21.239C14.5894 20.3518 14.9459 19.5034 15.5733 18.876C16.2007 18.2486 17.049 17.8921 17.9363 17.883H40.9473C41.8345 17.8921 42.6828 18.2486 43.3102 18.876C43.9377 19.5034 44.2942 20.3518 44.3033 21.239V24.766H35.5673C34.1957 24.769 32.8801 25.3102 31.9033 26.273C31.4239 26.7549 31.0442 27.3265 30.7858 27.9552C30.5274 28.5839 30.3954 29.2573 30.3973 29.937V30.177C30.4003 31.5486 30.9414 32.8642 31.9043 33.841C32.3861 34.3205 32.9577 34.7004 33.5863 34.959C34.215 35.2176 34.8885 35.3498 35.5683 35.348H44.3043L44.3033 38.908ZM46.5633 33.018C46.5606 33.1448 46.5119 33.2664 46.4263 33.36C46.3825 33.4062 46.3293 33.4424 46.2703 33.466C46.2113 33.4897 46.1478 33.5002 46.0843 33.497H35.5673C35.1351 33.4987 34.7069 33.4149 34.3074 33.2503C33.9078 33.0857 33.5447 32.8437 33.2392 32.5381C32.9336 32.2325 32.6915 31.8695 32.527 31.4699C32.3624 31.0703 32.2785 30.6421 32.2803 30.21V29.97C32.2785 29.5379 32.3624 29.1097 32.527 28.7101C32.6915 28.3105 32.9336 27.9475 33.2392 27.6419C33.5447 27.3363 33.9078 27.0943 34.3074 26.9297C34.7069 26.7651 35.1351 26.6813 35.5673 26.683H46.0843C46.2111 26.6857 46.3327 26.7344 46.4263 26.82C46.4725 26.8637 46.5086 26.9169 46.5323 26.976C46.5559 27.035 46.5665 27.0985 46.5633 27.162V33.018Z" fill="white"/>
<path d="M35.808 28.533C35.4152 28.5431 35.0419 28.7062 34.7676 28.9877C34.4933 29.2691 34.3398 29.6465 34.3398 30.0395C34.3398 30.4324 34.4933 30.8098 34.7676 31.0912C35.0419 31.3727 35.4152 31.5358 35.808 31.546C36.2172 31.5393 36.6093 31.3806 36.908 31.101C37.052 30.9567 37.1656 30.785 37.2421 30.5961C37.3185 30.4071 37.3562 30.2047 37.353 30.0009C37.3463 29.5918 37.1877 29.1997 36.908 28.901C36.5856 28.6727 36.2029 28.5447 35.808 28.533Z" fill="white"/>
</g>
<defs>
<linearGradient id="paint0_linear" x1="30" y1="0" x2="30" y2="60" gradientUnits="userSpaceOnUse">
<stop stop-color="#EA6544"/>
<stop offset="1" stop-color="#D12A1E"/>
</linearGradient>
</defs>
</svg>
