<svg width="60" height="60" viewBox="0 0 60 60" fill="none" xmlns="http://www.w3.org/2000/svg">
<circle cx="30" cy="30" r="30" fill="url(#paint0_linear)"/>
<path d="M47.7283 24.7984C47.7306 24.7549 47.4614 24.7194 47.4036 24.702C47.3987 24.7011 47.3939 24.6991 47.3896 24.6961C46.7574 24.399 29.7633 22.6541 29.7633 22.6541C29.7633 22.6541 12.8005 24.637 12.1763 24.9429C12.1703 24.9457 12.1642 24.9478 12.1579 24.9491C12.1011 24.9668 11.8309 25.0061 11.8327 25.05C10.8284 25.41 9.94701 26.17 9.32272 27.2145C8.69843 28.2589 8.3655 29.5304 8.37465 30.8353C8.38379 32.1401 8.73451 33.4068 9.37338 34.4424C10.0122 35.478 10.9042 36.2256 11.9135 36.5715C11.9138 36.6154 12.183 36.6547 12.24 36.6627C12.246 36.6658 12.2522 36.6684 12.2585 36.6705C12.887 36.9695 29.8758 38.706 29.8758 38.706C29.8758 38.706 46.8438 36.7315 47.4718 36.4237C47.4756 36.4204 47.4808 36.4199 47.4857 36.4157C47.5433 36.4045 47.8116 36.3615 47.8091 36.3199C48.8133 35.9599 49.6948 35.1998 50.319 34.1554C50.9433 33.111 51.2763 31.8395 51.2671 30.5346C51.258 29.2298 50.9072 27.963 50.2684 26.9275C49.6295 25.8919 48.7375 25.1443 47.7283 24.7984Z" fill="#9D031B"/>
<path d="M48.1072 23.2821C48.1096 23.2388 47.8356 23.2036 47.7767 23.1863C47.7718 23.1854 47.767 23.1834 47.7626 23.1804C47.1192 22.8851 29.8245 21.1529 29.8245 21.1529C29.8245 21.1529 12.5612 23.1273 11.9258 23.4315C11.9198 23.4343 11.9136 23.4364 11.9072 23.4377C11.8494 23.4553 11.5744 23.4944 11.5762 23.5381C10.5541 23.8962 9.65693 24.6521 9.02142 25.6907C8.38591 26.7293 8.04687 27.9936 8.05597 29.2911C8.06506 30.5885 8.42178 31.848 9.07179 32.8776C9.72179 33.9071 10.6295 34.6504 11.6565 34.9941C11.6568 35.0378 11.9308 35.0768 11.9888 35.0847C11.9949 35.0878 12.0012 35.0904 12.0076 35.0925C12.6472 35.3897 29.9364 37.1135 29.9364 37.1135C29.9364 37.1135 47.2051 35.1475 47.8443 34.8413C47.8481 34.8381 47.8534 34.8375 47.8584 34.8333C47.917 34.8222 48.1901 34.7794 48.1875 34.7381C49.2096 34.38 50.1068 33.6241 50.7423 32.5855C51.3778 31.5469 51.7168 30.2826 51.7077 28.9851C51.6986 27.6877 51.3419 26.4282 50.6919 25.3986C50.0419 24.3691 49.1342 23.6258 48.1072 23.2821Z" fill="white"/>
<path d="M13.7124 27.1794L11.912 27.192L11.9378 31.4149L13.6661 31.4028C13.6661 31.4028 15.6376 31.3843 15.6225 29.2331C15.6225 29.2331 15.608 27.1661 13.7124 27.1794ZM14.7183 29.2688C14.7282 30.6818 13.4484 30.7043 13.4484 30.7043L12.7507 30.7092L12.7307 27.857L13.4776 27.8518C13.6376 27.8325 13.7992 27.8552 13.9516 27.9184C14.104 27.9816 14.2435 28.0839 14.3609 28.2183C14.4783 28.3527 14.5708 28.5161 14.6321 28.6976C14.6934 28.879 14.7222 29.0743 14.7164 29.2702" fill="#DE181F"/>
<path d="M19.0213 31.365L19.9017 31.3588L18.9313 27.8254C18.8668 27.6272 18.7553 27.4569 18.6111 27.3362C18.4668 27.2156 18.2964 27.1501 18.1217 27.1482C17.9587 27.1255 17.7941 27.1266 17.6314 27.1517C17.4566 27.1559 17.2871 27.2237 17.1445 27.3464C17.0018 27.4691 16.8927 27.641 16.8309 27.8401L15.9106 31.3868L16.7803 31.3807L17.0684 30.2291L18.7224 30.2176L19.0217 31.365L19.0213 31.365ZM17.2357 29.5526L17.5976 28.1016C17.6151 28.0259 17.6522 27.9593 17.7034 27.9118C17.7547 27.8642 17.8172 27.8383 17.8817 27.8378C17.9462 27.8373 18.0091 27.8624 18.061 27.9093C18.1129 27.9561 18.151 28.0222 18.1695 28.0976L18.5453 29.5434L17.2357 29.5526Z" fill="#DE181F"/>
<path d="M23.789 28.6685L22.0195 28.6809L22.0243 29.3554L23.7937 29.343L23.789 28.6685Z" fill="#DE181F"/>
<path d="M21.3638 27.1075L20.5254 27.1134L20.5551 31.354L21.3935 31.3481L21.3638 27.1075Z" fill="#DE181F"/>
<path d="M25.2939 27.0801L24.4551 27.0859L24.4848 31.3265L25.3236 31.3206L25.2939 27.0801Z" fill="#DE181F"/>
<path d="M34.4048 27.0161L33.5645 27.022L33.5942 31.2625L34.4345 31.2566L34.4048 27.0161Z" fill="#DE181F"/>
<path d="M40.6267 26.9906L39.7891 26.9965L39.8187 31.2194L40.6563 31.2135L40.6267 26.9906Z" fill="#DE181F"/>
<path d="M32.0768 27.0326L32.0879 28.6102L30.4709 28.6215L30.4599 27.0439L29.6211 27.0498L29.6508 31.2904L30.4896 31.2845L30.4757 29.2951L32.0926 29.2837L32.1065 31.2722L32.9453 31.2663L32.9156 27.0267L32.0768 27.0326Z" fill="#DE181F"/>
<path d="M39.2505 30.5029L37.5665 30.5147C37.5051 30.5155 37.4441 30.5015 37.3871 30.4736C37.3301 30.4457 37.2782 30.4043 37.2342 30.3519C37.1903 30.2995 37.1553 30.237 37.1311 30.1681C37.107 30.0993 37.0942 30.0253 37.0935 29.9505L37.0729 27.0156L36.2342 27.0215L36.2544 29.9066C36.2437 30.0752 36.2617 30.2447 36.3072 30.4046C36.3527 30.5645 36.4249 30.7113 36.519 30.8358C36.6132 30.9603 36.7273 31.0598 36.8544 31.1281C36.9814 31.1964 37.1186 31.232 37.2573 31.2327L39.2555 31.2187L39.2505 30.5029Z" fill="#DE181F"/>
<path d="M42.6326 27.6769L44.3186 27.6651L44.3135 26.9469L42.3165 26.9609C42.1776 26.9636 42.0408 27.0013 41.9145 27.0715C41.7883 27.1417 41.6754 27.2431 41.5829 27.3691C41.4905 27.4951 41.4204 27.6432 41.3771 27.8039C41.3339 27.9647 41.3183 28.1347 41.3315 28.3033L41.3518 31.2047L42.1906 31.1988L42.1788 29.5157L44.2182 29.5014L44.2135 28.8279L42.1741 28.8422L42.1699 28.2463C42.1694 28.1717 42.181 28.0979 42.2041 28.0289C42.2271 27.9599 42.2611 27.8972 42.304 27.8443C42.347 27.7915 42.3982 27.7495 42.4546 27.7208C42.511 27.6922 42.5715 27.6774 42.6326 27.6773" fill="#DE181F"/>
<path d="M46.1625 30.4547C46.1012 30.4554 46.0404 30.4414 45.9834 30.4134C45.9265 30.3854 45.8747 30.344 45.8308 30.2916C45.787 30.2392 45.7521 30.1768 45.728 30.1079C45.704 30.0391 45.6913 29.9652 45.6907 29.8904L45.6869 29.3405L47.7076 29.3264L47.7029 28.6501L45.6821 28.6642L45.679 28.2212C45.6784 28.1473 45.69 28.0739 45.7132 28.0056C45.7364 27.9373 45.7707 27.8755 45.814 27.8239C45.8574 27.7723 45.9089 27.7319 45.9654 27.7052C46.0219 27.6785 46.0823 27.666 46.143 27.6685L47.8274 27.6567L47.8224 26.9404L45.8234 26.9545C45.6854 26.9547 45.549 26.9902 45.423 27.0585C45.297 27.1268 45.1841 27.2265 45.0917 27.3511C44.9992 27.4758 44.9292 27.6227 44.8861 27.7824C44.843 27.9422 44.8278 28.1112 44.8414 28.2787L44.8524 29.8465C44.8416 30.0149 44.8594 30.1843 44.9048 30.344C44.9501 30.5038 45.022 30.6505 45.1159 30.775C45.2099 30.8995 45.3238 30.9991 45.4506 31.0675C45.5775 31.1359 45.7144 31.1717 45.853 31.1727L47.8585 31.1586L47.8397 30.4429L46.1621 30.4547" fill="#DE181F"/>
<path d="M29.0299 27.0677L27.8235 27.0761C27.5789 27.0436 27.3315 27.0744 27.0977 27.1666C26.8638 27.2588 26.6487 27.4103 26.4665 27.6112C26.2842 27.8121 26.139 28.0577 26.0403 28.3321C25.9416 28.6065 25.8917 28.9034 25.8938 29.2033C25.8959 29.5032 25.95 29.7994 26.0525 30.0723C26.1551 30.3453 26.3037 30.5889 26.4887 30.7872C26.6737 30.9855 26.8909 31.134 27.1261 31.2229C27.3612 31.3118 27.609 31.3392 27.8532 31.3032L29.066 31.2947L29.061 30.5812L27.9644 30.5889C27.6598 30.591 27.3665 30.4455 27.1493 30.1844C26.932 29.9232 26.8085 29.5679 26.8059 29.1964C26.8033 28.825 26.9218 28.4679 27.1354 28.2038C27.349 27.9396 27.6401 27.79 27.9448 27.7879L29.0348 27.7802L29.0299 27.0677Z" fill="#DE181F"/>
<defs>
<linearGradient id="paint0_linear" x1="30" y1="0" x2="30" y2="60" gradientUnits="userSpaceOnUse">
<stop stop-color="#EA6544"/>
<stop offset="1" stop-color="#D12A1E"/>
</linearGradient>
</defs>
</svg>
