<svg width="60" height="60" viewBox="0 0 60 60" fill="none" xmlns="http://www.w3.org/2000/svg">
<g clip-path="url(#clip0_112_365)">
<mask id="mask0_112_365" style="mask-type:luminance" maskUnits="userSpaceOnUse" x="0" y="0" width="60" height="60">
<path d="M60 0H0V60H60V0Z" fill="white"/>
</mask>
<g mask="url(#mask0_112_365)">
<path d="M30 60C46.5685 60 60 46.5685 60 30C60 13.4314 46.5685 0 30 0C13.4315 0 0 13.4314 0 30C0 46.5685 13.4315 60 30 60Z" fill="url(#paint0_linear_112_365)"/>
<path d="M40.1423 14.7816H19.8579C18.2011 14.7816 16.8579 16.1027 16.8579 17.7324V41.2806C16.8579 42.9103 18.2011 44.2314 19.8579 44.2314H41.1423C42.2469 44.2314 43.1423 43.3507 43.1423 42.2642V17.7324C43.1423 16.1027 41.7992 14.7816 40.1423 14.7816Z" stroke="white" stroke-width="2" stroke-linejoin="round"/>
<path d="M43.1423 32.3639V35.5579C43.1423 36.6444 42.2469 37.5251 41.1423 37.5251H20.2751C18.3888 37.5251 16.8608 39.0309 16.8643 40.8862C16.8678 42.7366 18.3938 44.2348 20.2751 44.2348H23.3332" stroke="white" stroke-width="2" stroke-linejoin="round"/>
<path d="M24.9605 21.5851H34.9407M22.7866 26.1533H37.2134" stroke="white" stroke-width="2" stroke-linecap="round"/>
</g>
</g>
<defs>
<linearGradient id="paint0_linear_112_365" x1="30" y1="4.2e-05" x2="30" y2="60" gradientUnits="userSpaceOnUse">
<stop stop-color="#EA6544"/>
<stop offset="1" stop-color="#D12A1E"/>
</linearGradient>
<clipPath id="clip0_112_365">
<rect width="60" height="60" fill="white"/>
</clipPath>
</defs>
</svg>
