<svg width="60" height="60" viewBox="0 0 60 60" fill="none" xmlns="http://www.w3.org/2000/svg">
<circle cx="30" cy="30" r="30" fill="url(#paint0_linear)"/>
<mask id="mask0" style="mask-type:alpha" maskUnits="userSpaceOnUse" x="11" y="11" width="38" height="38">
<path d="M11 11H49V49H11V11Z" fill="#C4C4C4"/>
</mask>
<g mask="url(#mask0)">
<path d="M38.5651 29.9988V17.2927C38.5552 17.0633 38.4551 16.8469 38.2865 16.6909C38.1179 16.5349 37.8946 16.4519 37.665 16.4597C37.5155 16.459 37.3679 16.4934 37.234 16.5598L35.234 17.5657C35.0999 17.6327 34.952 17.6677 34.8021 17.6677C34.6521 17.6677 34.5042 17.6327 34.3701 17.5657L31.47 16.1038C31.3357 16.0369 31.1876 16.0022 31.0375 16.0022C30.8875 16.0022 30.7394 16.0369 30.605 16.1038L27.705 17.5657C27.5707 17.6326 27.4226 17.6675 27.2725 17.6675C27.1224 17.6675 26.9744 17.6326 26.84 17.5657L25.66 16.9658V16.9587L23.96 16.0999C23.8222 16.0333 23.6711 15.9988 23.5181 15.9988C23.365 15.9988 23.2139 16.0333 23.076 16.0999L20.181 17.5608C20.0489 17.6279 19.9027 17.6628 19.7545 17.6628C19.6063 17.6628 19.4602 17.6279 19.3281 17.5608L17.3281 16.5547C17.1934 16.4884 17.0451 16.4543 16.895 16.4548C16.87 16.4548 16.846 16.4547 16.822 16.4607H16.8C16.7481 16.4656 16.6966 16.4747 16.6461 16.4878H16.635C16.5839 16.5014 16.534 16.5195 16.486 16.5417L16.473 16.5488C16.4276 16.5713 16.3842 16.5972 16.343 16.6267L16.3231 16.6428C16.2871 16.6713 16.2537 16.7027 16.223 16.7368L16.2 16.7617C16.1709 16.7958 16.1442 16.8318 16.1201 16.8696L16.108 16.8867C16.102 16.8967 16.098 16.9067 16.092 16.9167C16.086 16.9267 16.071 16.9568 16.062 16.9778C16.0461 17.0154 16.0331 17.0542 16.023 17.0938C16.023 17.1087 16.0161 17.1246 16.0131 17.1406C16.004 17.1858 15.999 17.2318 15.998 17.2778V44.0059C15.999 44.0519 16.004 44.0977 16.0131 44.1428C16.0131 44.1588 16.019 44.1737 16.023 44.1897C16.0332 44.2296 16.0462 44.2686 16.062 44.3066C16.071 44.3266 16.082 44.3467 16.092 44.3667C16.102 44.3867 16.102 44.3877 16.108 44.3977L16.1201 44.4138C16.1443 44.4516 16.171 44.4876 16.2 44.5217L16.223 44.5479C16.2539 44.5814 16.2874 44.6123 16.3231 44.6406L16.343 44.6567C16.3842 44.6859 16.4277 44.7115 16.473 44.7336L16.486 44.7407C16.5344 44.7632 16.5846 44.7815 16.636 44.7957H16.6461C16.6969 44.809 16.7487 44.8185 16.801 44.8237H16.822C16.846 44.8237 16.87 44.8298 16.895 44.8298C17.0451 44.8303 17.1934 44.796 17.3281 44.7297L19.3281 43.7227C19.462 43.6563 19.6096 43.6222 19.759 43.6228C19.9055 43.6231 20.05 43.6572 20.181 43.7227L23.076 45.1829C23.2139 45.2492 23.365 45.2837 23.5181 45.2837C23.6711 45.2837 23.8221 45.2492 23.96 45.1829L25.66 44.3247V44.3157L26.84 43.7207" stroke="white" stroke-width="1.7" stroke-miterlimit="10"/>
<path d="M34.2859 23.3284H20.3789C19.9647 23.3284 19.6289 23.6642 19.6289 24.0784C19.6289 24.4926 19.9647 24.8284 20.3789 24.8284H34.2859C34.7001 24.8284 35.0359 24.4926 35.0359 24.0784C35.0359 23.6642 34.7001 23.3284 34.2859 23.3284Z" fill="white"/>
<path d="M28.2378 27.593H20.3828C19.9686 27.593 19.6328 27.9288 19.6328 28.343C19.6328 28.7572 19.9686 29.093 20.3828 29.093H28.2378C28.652 29.093 28.9878 28.7572 28.9878 28.343C28.9878 27.9288 28.652 27.593 28.2378 27.593Z" fill="white"/>
<path d="M42.6761 34.1579C41.3211 32.1951 39.0792 30.8989 36.497 30.8989C33.608 30.8989 31.0627 32.5478 29.7994 35.0214C29.6271 35.3588 29.7609 35.772 30.0983 35.9443L30.0983 35.9443C30.4357 36.1166 30.8489 35.9828 31.0212 35.6454C32.0599 33.6115 34.1451 32.2708 36.497 32.2708C38.44 32.2708 40.2116 33.1879 41.352 34.6624L40.9917 34.4051L40.9917 34.405C40.6834 34.1849 40.255 34.2563 40.0348 34.5646L40.1162 34.6227L40.0348 34.5646C39.8147 34.8729 39.8861 35.3012 40.1943 35.5214L40.2525 35.44L40.1943 35.5214L42.7278 37.3308L42.7279 37.3309C43.1629 37.641 43.762 37.3568 43.8095 36.8349L44.094 33.7139C44.1285 33.3366 43.8505 33.0029 43.4733 32.9685C43.096 32.9341 42.7623 33.2121 42.7279 33.5894L42.8275 33.5984L42.7279 33.5894L42.6761 34.1579Z" fill="white" stroke="white" stroke-width="0.2"/>
<path d="M42.8947 41.055L42.8947 41.055C43.2321 41.2273 43.3659 41.6405 43.1936 41.9779C41.9303 44.4514 39.385 46.1004 36.4961 46.1004C33.9138 46.1004 31.6719 44.8042 30.317 42.8413L30.2652 43.4099L30.1656 43.4008L30.2652 43.4099C30.2308 43.7868 29.8975 44.065 29.5198 44.0307L29.5198 44.0307C29.1425 43.9963 28.8646 43.6626 28.899 43.2853L28.899 43.2853M42.8947 41.055L30.2071 39.7498C29.8403 39.4878 29.3241 39.7228 29.2831 40.1734L28.9986 43.2944L28.899 43.2853M42.8947 41.055C42.5573 40.8827 42.1442 41.0165 41.9719 41.3539C40.9332 43.3877 38.8479 44.7285 36.4961 44.7285C34.553 44.7285 32.7814 43.8114 31.6411 42.3369M42.8947 41.055L31.6411 42.3369M28.899 43.2853L29.1835 40.1644C29.1835 40.1643 29.1835 40.1643 29.1835 40.1643C29.2315 39.6366 29.8358 39.3617 30.2652 39.6684C30.2652 39.6684 30.2652 39.6684 30.2652 39.6684L32.7987 41.4778L32.7987 41.4778C33.1069 41.698 33.1783 42.1264 32.9582 42.4347L32.9582 42.4347C32.738 42.743 32.3096 42.8144 32.0013 42.5942L32.0013 42.5942L31.6411 42.3369M28.899 43.2853L31.6411 42.3369" fill="white" stroke="white" stroke-width="0.2"/>
</g>
<defs>
<linearGradient id="paint0_linear" x1="30" y1="0" x2="30" y2="60" gradientUnits="userSpaceOnUse">
<stop stop-color="#EA6544"/>
<stop offset="1" stop-color="#D12A1E"/>
</linearGradient>
</defs>
</svg>
