<svg width="40" height="40" viewBox="0 0 40 40" fill="none" xmlns="http://www.w3.org/2000/svg">
<mask id="mask0" style="mask-type:alpha" maskUnits="userSpaceOnUse" x="0" y="0" width="40" height="40">
<rect width="40" height="40" transform="matrix(1 0 0 -1 0 40)" fill="#C4C4C4"/>
</mask>
<g mask="url(#mask0)">
<path d="M35.5305 3.52941C35.5305 1.58824 33.9423 0 32.0011 0H8.52941C6.58823 0 5 1.58824 5 3.52941V35.4706C5 37.4118 6.58823 39 8.52941 39H25.5277L35.5277 29.5882L35.5305 3.52941Z" fill="#F4E6DE"/>
<path d="M10 17.85C10 17.491 10.291 17.2 10.65 17.2H29.35C29.709 17.2 30 17.491 30 17.85C30 18.209 29.709 18.5 29.35 18.5H10.65C10.291 18.5 10 18.209 10 17.85Z" fill="url(#paint0_linear)"/>
<path d="M10 21.35C10 20.991 10.291 20.7 10.65 20.7H24.8045C25.1635 20.7 25.4545 20.991 25.4545 21.35C25.4545 21.709 25.1635 22 24.8045 22H10.65C10.291 22 10 21.709 10 21.35Z" fill="url(#paint1_linear)"/>
<rect opacity="0.5" x="10" y="24.2" width="13.6364" height="1.3" rx="0.65" fill="#727272"/>
<path d="M28.0927 5.65322C28.0937 5.63429 27.9765 5.61883 27.9514 5.61127C27.9493 5.61088 27.9472 5.61 27.9453 5.60867C27.6701 5.47935 20.2734 4.71992 20.2734 4.71992C20.2734 4.71992 12.8903 5.58295 12.6186 5.7161C12.616 5.71732 12.6134 5.71823 12.6106 5.7188C12.5859 5.7265 12.4683 5.7436 12.4691 5.76272C12.032 5.9194 11.6483 6.25023 11.3766 6.70481C11.1049 7.1594 10.96 7.71282 10.964 8.28077C10.9679 8.84872 11.1206 9.40006 11.3987 9.85079C11.6767 10.3015 12.065 10.6269 12.5042 10.7775C12.5044 10.7966 12.6216 10.8137 12.6464 10.8172C12.649 10.8185 12.6517 10.8197 12.6544 10.8206C12.928 10.9507 20.3224 11.7065 20.3224 11.7065C20.3224 11.7065 27.7078 10.8471 27.9811 10.7132C27.9827 10.7117 27.985 10.7115 27.9871 10.7097C28.0122 10.7048 28.129 10.6861 28.1279 10.668C28.565 10.5113 28.9486 10.1805 29.2204 9.72588C29.4921 9.27129 29.637 8.71787 29.633 8.14992C29.629 7.58197 29.4764 7.03063 29.1983 6.5799C28.9202 6.12917 28.532 5.80375 28.0927 5.65322Z" fill="#9D031B"/>
<path d="M28.2575 4.9933C28.2586 4.97447 28.1393 4.95912 28.1137 4.95161C28.1115 4.95122 28.1094 4.95035 28.1075 4.94903C27.8275 4.82049 20.3 4.06658 20.3 4.06658C20.3 4.06658 12.7861 4.92592 12.5095 5.05835C12.5069 5.05957 12.5042 5.06047 12.5014 5.06104C12.4762 5.0687 12.3565 5.08573 12.3573 5.10474C11.9124 5.26059 11.522 5.58961 11.2454 6.04166C10.9687 6.4937 10.8212 7.044 10.8251 7.60872C10.8291 8.17344 10.9844 8.72162 11.2673 9.16975C11.5502 9.61788 11.9453 9.94138 12.3923 10.091C12.3924 10.11 12.5117 10.127 12.5369 10.1304C12.5396 10.1318 12.5423 10.1329 12.5451 10.1338C12.8235 10.2632 20.3487 11.0135 20.3487 11.0135C20.3487 11.0135 27.8649 10.1577 28.1431 10.0245C28.1448 10.0231 28.1471 10.0228 28.1492 10.021C28.1748 10.0162 28.2936 9.99754 28.2925 9.97954C28.7374 9.82368 29.1279 9.49467 29.4045 9.04262C29.6811 8.59058 29.8286 8.04027 29.8247 7.47556C29.8207 6.91084 29.6655 6.36266 29.3825 5.91453C29.0996 5.4664 28.7046 5.1429 28.2575 4.9933Z" fill="#E50019"/>
<path d="M13.2872 6.68956L12.5036 6.69506L12.5148 8.53309L13.2671 8.52782C13.2671 8.52782 14.1252 8.51978 14.1186 7.58347C14.1186 7.58347 14.1123 6.68378 13.2872 6.68956ZM13.7251 7.59898C13.7294 8.21401 13.1723 8.22379 13.1723 8.22379L12.8687 8.22591L12.86 6.98451L13.185 6.98223C13.2547 6.97383 13.325 6.98372 13.3913 7.01123C13.4577 7.03875 13.5184 7.08326 13.5695 7.14176C13.6206 7.20026 13.6608 7.27139 13.6875 7.35036C13.7142 7.42934 13.7267 7.51432 13.7242 7.59959" fill="#F7F5F9"/>
<path d="M15.5974 8.51247L15.9805 8.50979L15.5582 6.97184C15.5301 6.88559 15.4816 6.81145 15.4188 6.75894C15.356 6.70642 15.2818 6.67792 15.2058 6.6771C15.1348 6.66719 15.0632 6.66769 14.9924 6.67859C14.9163 6.68045 14.8425 6.70996 14.7805 6.76336C14.7184 6.81675 14.6709 6.89158 14.644 6.97825L14.2434 8.52196L14.6219 8.51931L14.7474 8.01808L15.4672 8.01303L15.5975 8.51247L15.5974 8.51247ZM14.8201 7.72359L14.9777 7.09205C14.9853 7.05913 15.0015 7.03014 15.0238 7.00944C15.0461 6.98874 15.0733 6.97744 15.1014 6.97724C15.1294 6.97705 15.1568 6.98796 15.1794 7.00835C15.202 7.02874 15.2186 7.0575 15.2266 7.0903L15.3902 7.7196L14.8201 7.72359Z" fill="#F7F5F9"/>
<path d="M17.6725 7.33773L16.9023 7.34312L16.9044 7.63668L17.6746 7.63128L17.6725 7.33773Z" fill="#F7F5F9"/>
<path d="M16.6169 6.65835L16.252 6.66091L16.2649 8.50663L16.6298 8.50407L16.6169 6.65835Z" fill="#F7F5F9"/>
<path d="M18.328 6.64637L17.9629 6.64893L17.9758 8.49464L18.3409 8.49208L18.328 6.64637Z" fill="#F7F5F9"/>
<path d="M22.2935 6.61857L21.9277 6.62113L21.9407 8.46685L22.3064 8.46428L22.2935 6.61857Z" fill="#F7F5F9"/>
<path d="M25.0013 6.60746L24.6367 6.61002L24.6496 8.44804L25.0142 8.44549L25.0013 6.60746Z" fill="#F7F5F9"/>
<path d="M21.2798 6.62567L21.2846 7.31233L20.5808 7.31726L20.576 6.6306L20.2109 6.63316L20.2239 8.47888L20.589 8.47632L20.5829 7.61041L21.2867 7.60548L21.2927 8.47098L21.6578 8.46842L21.6449 6.62311L21.2798 6.62567Z" fill="#F7F5F9"/>
<path d="M24.4024 8.13616L23.6694 8.1413C23.6427 8.14165 23.6161 8.13557 23.5913 8.1234C23.5665 8.11124 23.5439 8.09324 23.5248 8.07043C23.5057 8.04761 23.4904 8.02044 23.4799 7.99045C23.4694 7.96047 23.4638 7.92828 23.4635 7.8957L23.4546 6.61829L23.0895 6.62085L23.0983 7.87662C23.0936 7.94998 23.1015 8.02377 23.1213 8.09337C23.1411 8.16296 23.1725 8.22685 23.2135 8.28104C23.2545 8.33522 23.3042 8.37854 23.3594 8.40827C23.4147 8.43801 23.4745 8.45351 23.5348 8.45382L24.4045 8.44773L24.4024 8.13616Z" fill="#F7F5F9"/>
<path d="M25.8748 6.90605L26.6086 6.90091L26.6064 6.58833L25.7372 6.59442C25.6767 6.5956 25.6172 6.61199 25.5622 6.64256C25.5073 6.67314 25.4581 6.71723 25.4179 6.77209C25.3776 6.82694 25.3471 6.89137 25.3283 6.96134C25.3095 7.03131 25.3027 7.10531 25.3084 7.1787L25.3173 8.44155L25.6824 8.43899L25.6772 7.70641L26.5649 7.70019L26.5628 7.40704L25.6752 7.41326L25.6734 7.15389C25.6732 7.12144 25.6782 7.08929 25.6882 7.05926C25.6983 7.02924 25.713 7.00194 25.7318 6.97893C25.7505 6.95592 25.7727 6.93766 25.7973 6.92518C25.8218 6.91271 25.8481 6.90628 25.8748 6.90625" fill="#F7F5F9"/>
<path d="M27.4109 8.1151C27.3842 8.11542 27.3577 8.10931 27.3329 8.09713C27.3082 8.08495 27.2856 8.06694 27.2665 8.04412C27.2474 8.02131 27.2322 7.99414 27.2218 7.96417C27.2113 7.9342 27.2058 7.90203 27.2055 7.8695L27.2039 7.63016L28.0834 7.624L28.0813 7.32963L27.2018 7.33579L27.2004 7.14299C27.2002 7.11079 27.2052 7.07887 27.2153 7.04914C27.2254 7.01942 27.2403 6.99252 27.2592 6.97004C27.2781 6.94757 27.3005 6.92999 27.3251 6.91837C27.3497 6.90675 27.376 6.90133 27.4024 6.90243L28.1355 6.89729L28.1334 6.58552L27.2633 6.59162C27.2032 6.59174 27.1438 6.60716 27.089 6.63689C27.0342 6.66662 26.985 6.71001 26.9448 6.76427C26.9046 6.81853 26.8741 6.88247 26.8553 6.95199C26.8366 7.02151 26.8299 7.09509 26.8358 7.168L26.8406 7.85041C26.8359 7.92369 26.8437 7.9974 26.8634 8.06694C26.8832 8.13647 26.9145 8.20033 26.9554 8.25452C26.9962 8.3087 27.0458 8.35204 27.101 8.38183C27.1562 8.41162 27.2159 8.4272 27.2762 8.42762L28.149 8.4215L28.1409 8.10998L27.4107 8.1151" fill="#F7F5F9"/>
<path d="M19.9535 6.64103L19.4284 6.64471C19.322 6.63054 19.2143 6.64396 19.1125 6.68409C19.0107 6.72423 18.9171 6.79018 18.8378 6.8776C18.7585 6.96503 18.6952 7.07196 18.6523 7.19139C18.6093 7.31082 18.5876 7.44004 18.5885 7.57057C18.5894 7.70111 18.613 7.83001 18.6576 7.94882C18.7022 8.06763 18.7669 8.17367 18.8475 8.25998C18.928 8.34628 19.0225 8.41091 19.1249 8.44961C19.2272 8.48832 19.3351 8.50023 19.4413 8.48456L19.9692 8.48086L19.967 8.17031L19.4898 8.17366C19.3572 8.17458 19.2295 8.11125 19.135 7.99759C19.0404 7.88393 18.9866 7.72925 18.9855 7.56759C18.9844 7.40592 19.036 7.2505 19.1289 7.13552C19.2219 7.02055 19.3486 6.95544 19.4812 6.95451L19.9557 6.95118L19.9535 6.64103Z" fill="#F7F5F9"/>
<path d="M29.0294 29.4688H35.5L25.5 38.8805V32.9982C25.5 31.057 27.0882 29.4688 29.0294 29.4688Z" fill="url(#paint2_linear)"/>
</g>
<defs>
<linearGradient id="paint0_linear" x1="10.9621" y1="17.3236" x2="29.1161" y2="20.5143" gradientUnits="userSpaceOnUse">
<stop stop-color="#EA553F"/>
<stop offset="1" stop-color="#D32A30"/>
</linearGradient>
<linearGradient id="paint1_linear" x1="10.7434" y1="21.15" x2="24.943" y2="23.0785" gradientUnits="userSpaceOnUse">
<stop stop-color="#EA553F"/>
<stop offset="1" stop-color="#D32A30"/>
</linearGradient>
<linearGradient id="paint2_linear" x1="30" y1="5.99817" x2="30.2262" y2="39.5205" gradientUnits="userSpaceOnUse">
<stop stop-color="#FFC59A"/>
<stop offset="0.774583" stop-color="#FF826E"/>
<stop offset="1" stop-color="#FF7062"/>
</linearGradient>
</defs>
</svg>
