<svg width="60" height="60" viewBox="0 0 60 60" fill="none" xmlns="http://www.w3.org/2000/svg">
<circle cx="30" cy="30" r="30" fill="url(#paint0_linear)"/>
<mask id="mask0" style="mask-type:alpha" maskUnits="userSpaceOnUse" x="11" y="11" width="38" height="38">
<rect x="11" y="11" width="38" height="38" fill="#C4C4C4"/>
</mask>
<g mask="url(#mask0)">
<path d="M44.8781 28.823L44.8675 19.1337C44.8676 18.9055 44.7906 18.6829 44.647 18.496C44.5034 18.309 44.3001 18.1669 44.0647 18.0887L30.6353 13.6422C30.3657 13.5529 30.0702 13.5529 29.8006 13.6422L16.3712 18.0887C16.1355 18.1666 15.9319 18.3087 15.788 18.4957C15.6441 18.6826 15.5669 18.9054 15.5669 19.1337L15.5547 28.823C15.4739 36.7573 15.4128 42.4892 29.8311 46.8677C29.9556 46.9054 30.086 46.9247 30.2172 46.9247C30.3482 46.9239 30.4784 46.9052 30.6033 46.8691C45.0201 42.492 44.9621 36.7601 44.8781 28.823Z" stroke="white" stroke-width="1.7"/>
<path fill-rule="evenodd" clip-rule="evenodd" d="M26.6428 22.3608C26.1926 22.9898 25.9375 23.7373 25.9091 24.5103H25.9161C25.8958 25.5736 26.2985 26.6014 27.0359 27.3678C27.7732 28.1342 28.785 28.5763 29.8482 28.597C30.6217 28.5971 31.3783 28.3696 32.0234 27.9428C32.6685 27.5161 33.1735 26.9089 33.4761 26.1971C33.7787 25.4852 33.8655 24.7001 33.7251 23.9394C33.5847 23.1788 33.2233 22.4762 32.6865 21.9193C32.1497 21.3624 31.4607 20.9757 30.7057 20.8074C29.9507 20.6391 29.1628 20.6967 28.4403 20.9729C27.7178 21.2491 27.093 21.7318 26.6428 22.3608ZM22.4615 37.3543C22.4429 37.6379 22.8781 38.228 23.0973 38.228L37.5578 38.2266C38.2153 38.2266 38.2253 37.5677 38.2152 37.3557C38.1749 35.2798 37.3293 33.3009 35.8568 31.8372C34.3843 30.3735 32.4004 29.5396 30.3244 29.5118C29.2915 29.5045 28.2672 29.7024 27.3113 30.0937C26.3554 30.485 25.4869 31.0621 24.7556 31.7915C24.0243 32.5209 23.4449 33.3881 23.0511 34.343C22.6574 35.2979 22.4569 36.3214 22.4615 37.3543Z" fill="white"/>
</g>
<defs>
<linearGradient id="paint0_linear" x1="30" y1="0" x2="30" y2="60" gradientUnits="userSpaceOnUse">
<stop stop-color="#EA6544"/>
<stop offset="1" stop-color="#D12A1E"/>
</linearGradient>
</defs>
</svg>
