<?xml version="1.0" encoding="utf-8"?>
<svg viewBox="36.738 6.798 60.523 60.604" fill="none" xmlns="http://www.w3.org/2000/svg">
  <defs>
    <linearGradient id="paint0_linear_4332_38584" x1="67" y1="7" x2="67" y2="67" gradientUnits="userSpaceOnUse">
      <stop stop-color="#EA6544"/>
      <stop offset="1" stop-color="#D12A1E"/>
    </linearGradient>
  </defs>
  <mask id="mask0_4332_38584" style="mask-type:alpha" maskUnits="userSpaceOnUse" x="48" y="18" width="38" height="38">
    <rect x="48" y="18" width="38" height="38" fill="#C4C4C4"/>
  </mask>
  <circle cx="67" cy="37" r="30" fill="url(#paint0_linear_4332_38584)"/>
  <g mask="url(#mask0_4332_38584)">
    <path d="M66.9993 22.1081C58.769 22.1081 52.1074 28.5388 52.1074 36.4865C52.1074 39.0084 52.7887 41.4716 54.0823 43.6441L52.1635 49.3971C52.0297 49.7981 52.1397 50.2378 52.4483 50.5358C52.7539 50.8308 53.2081 50.941 53.6276 50.8107L59.5861 48.9581C61.8361 50.2071 64.3873 50.8648 66.9993 50.8648C75.2297 50.8648 81.8912 44.4341 81.8912 36.4865C81.8912 28.5399 75.2308 22.1081 66.9993 22.1081ZM66.9993 48.6182C64.64 48.6182 62.3401 47.9826 60.3485 46.7801C60.0619 46.6072 59.7061 46.5605 59.375 46.6634L55.0737 48.0008L56.4589 43.8479C56.5639 43.5328 56.5196 43.1888 56.3378 42.908C55.0926 40.985 54.4343 38.7645 54.4343 36.4865C54.4343 29.7971 60.071 24.3547 66.9993 24.3547C73.9276 24.3547 79.5643 29.7971 79.5643 36.4865C79.5643 43.1759 73.9276 48.6182 66.9993 48.6182Z" fill="white"/>
  </g>
  <path d="M62.7322 38.1477C63.4595 38.1477 64.0902 37.5398 64.0959 36.7841C64.0902 36.0398 63.4595 35.4318 62.7322 35.4318C61.9822 35.4318 61.3629 36.0398 61.3686 36.7841C61.3629 37.5398 61.9822 38.1477 62.7322 38.1477ZM67.4979 38.1477C68.2251 38.1477 68.8558 37.5398 68.8615 36.7841C68.8558 36.0398 68.2251 35.4318 67.4979 35.4318C66.7479 35.4318 66.1286 36.0398 66.1342 36.7841C66.1286 37.5398 66.7479 38.1477 67.4979 38.1477ZM72.2635 38.1477C72.9908 38.1477 73.6214 37.5398 73.6271 36.7841C73.6214 36.0398 72.9908 35.4318 72.2635 35.4318C71.5135 35.4318 70.8942 36.0398 70.8999 36.7841C70.8942 37.5398 71.5135 38.1477 72.2635 38.1477Z" fill="white"/>
</svg>