<svg width="60" height="60" viewBox="0 0 60 60" fill="none" xmlns="http://www.w3.org/2000/svg">
<circle cx="30" cy="30" r="30" fill="url(#paint0_linear_2179_5089)"/>
<mask id="mask0_2179_5089" style="mask-type:alpha" maskUnits="userSpaceOnUse" x="11" y="11" width="38" height="38">
<rect x="11" y="11" width="38" height="38" fill="#C4C4C4"/>
</mask>
<g mask="url(#mask0_2179_5089)">
<path d="M41.9375 14H19.9375C19.4197 14 19 14.4197 19 14.9375V19.0625H17.9375C17.4197 19.0625 17 19.4822 17 20C17 20.5178 17.4197 20.9375 17.9375 20.9375H19V24.0625H17.9375C17.4197 24.0625 17 24.4822 17 25C17 25.5178 17.4197 25.9375 17.9375 25.9375H19V29.0625H17.9375C17.4197 29.0625 17 29.4822 17 30C17 30.5178 17.4197 30.9375 17.9375 30.9375H19V34.0625H17.9375C17.4197 34.0625 17 34.4822 17 35C17 35.5178 17.4197 35.9375 17.9375 35.9375H19V39.0625H17.9375C17.4197 39.0625 17 39.4822 17 40C17 40.5178 17.4197 40.9375 17.9375 40.9375H19V45.0625C19 45.5803 19.4197 46 19.9375 46H41.9375C42.4552 46 42.875 45.5803 42.875 45.0625V14.9375C42.875 14.4197 42.4552 14 41.9375 14ZM41 44.125H20.875V40.9375H21.9375C22.4552 40.9375 22.875 40.5178 22.875 40C22.875 39.4822 22.4552 39.0625 21.9375 39.0625H20.875V35.9375H21.9375C22.4552 35.9375 22.875 35.5178 22.875 35C22.875 34.4822 22.4552 34.0625 21.9375 34.0625H20.875V30.9375H21.9375C22.4552 30.9375 22.875 30.5178 22.875 30C22.875 29.4822 22.4552 29.0625 21.9375 29.0625H20.875V25.9375H21.9375C22.4552 25.9375 22.875 25.5178 22.875 25C22.875 24.4822 22.4552 24.0625 21.9375 24.0625H20.875V20.9375H21.9375C22.4552 20.9375 22.875 20.5178 22.875 20C22.875 19.4822 22.4552 19.0625 21.9375 19.0625H20.875V15.875H41V44.125Z" fill="white"/>
<path d="M25 36.5C25 37.0177 25.4197 37.4375 25.9375 37.4375C26.4552 37.4375 26.875 37.0177 26.875 36.5C26.875 34.0115 28.3946 31.4375 30.9375 31.4375C33.4804 31.4375 35 34.0115 35 36.5C35 37.0177 35.4197 37.4375 35.9375 37.4375C36.4552 37.4375 36.875 37.0177 36.875 36.5C36.875 34.1177 35.7876 31.6503 33.7962 30.3902C34.7608 29.5756 35.375 28.3584 35.375 27C35.375 24.5532 33.3843 22.5625 30.9375 22.5625C28.4907 22.5625 26.5 24.5532 26.5 27C26.5 28.3584 27.1142 29.5756 28.0787 30.3902C26.0874 31.6502 25 34.1181 25 36.5ZM28.375 27C28.375 25.5871 29.5246 24.4375 30.9375 24.4375C32.3504 24.4375 33.5 25.5871 33.5 27C33.5 28.4129 32.3504 29.5625 30.9375 29.5625C29.5246 29.5625 28.375 28.4129 28.375 27Z" fill="white"/>
</g>
<defs>
<linearGradient id="paint0_linear_2179_5089" x1="30" y1="0" x2="30" y2="60" gradientUnits="userSpaceOnUse">
<stop stop-color="#EA6544"/>
<stop offset="1" stop-color="#D12A1E"/>
</linearGradient>
</defs>
</svg>
