<svg width="60" height="60" viewBox="0 0 60 60" fill="none" xmlns="http://www.w3.org/2000/svg">
<circle cx="30" cy="30" r="30" fill="url(#paint0_linear)"/>
<mask id="mask0" style="mask-type:alpha" maskUnits="userSpaceOnUse" x="11" y="11" width="38" height="38">
<rect x="11" y="11" width="38" height="38" fill="#C4C4C4"/>
</mask>
<g mask="url(#mask0)">
<path d="M29.9993 15.1082C21.769 15.1082 15.1074 21.5389 15.1074 29.4865C15.1074 32.0085 15.7887 34.4717 17.0823 36.6441L15.1635 42.3971C15.0297 42.7982 15.1397 43.2379 15.4483 43.5358C15.7539 43.8309 16.2081 43.941 16.6276 43.8107L22.5861 41.9581C24.8361 43.2072 27.3873 43.8649 29.9993 43.8649C38.2297 43.8649 44.8912 37.4342 44.8912 29.4865C44.8912 21.54 38.2308 15.1082 29.9993 15.1082ZM29.9993 41.6183C27.64 41.6183 25.3401 40.9827 23.3485 39.7802C23.0619 39.6073 22.7061 39.5606 22.375 39.6635L18.0737 41.0009L19.4589 36.8479C19.5639 36.5329 19.5196 36.1889 19.3378 35.9081C18.0926 33.985 17.4343 31.7645 17.4343 29.4865C17.4343 22.7971 23.071 17.3548 29.9993 17.3548C36.9276 17.3548 42.5643 22.7971 42.5643 29.4865C42.5643 36.1759 36.9276 41.6183 29.9993 41.6183Z" fill="white"/>
</g>
<defs>
<linearGradient id="paint0_linear" x1="30" y1="0" x2="30" y2="60" gradientUnits="userSpaceOnUse">
<stop stop-color="#EA6544"/>
<stop offset="1" stop-color="#D12A1E"/>
</linearGradient>
</defs>
</svg>
