<svg width="44" height="44" viewBox="0 0 44 44" fill="none" xmlns="http://www.w3.org/2000/svg">
<circle opacity="0.2" r="22" transform="matrix(1 0 0 -1 22 22)" fill="#C68158"/>
<path d="M24.4862 14.2449C24.4398 14.1897 24.3818 14.1452 24.3164 14.1144C24.2511 14.0836 24.1797 14.0672 24.1074 14.0664H19.8978C19.8254 14.0672 19.7541 14.0836 19.6887 14.1144C19.6233 14.1452 19.5654 14.1897 19.5189 14.2449C18.7495 15.1279 11.8104 19.3352 12.004 26.3139C12.004 31.1383 16.4892 35.0622 22.002 35.0622C27.5147 35.0622 32 31.1383 32 26.3139C31.9343 19.5486 25.2557 15.1279 24.4862 14.2449Z" fill="#FFC76F" stroke="#985801" stroke-width="1.2"/>
<path d="M20.8134 22.0265C21.3103 22.0039 21.8047 22.107 22.2472 22.3255C22.5591 22.4891 22.8344 22.71 23.0577 22.9756V21.5399H22.2179C22.1746 21.5459 22.1304 21.5421 22.0888 21.5288C22.0473 21.5155 22.0095 21.4931 21.9786 21.4634C21.9476 21.4336 21.9243 21.3973 21.9105 21.3574C21.8966 21.3175 21.8927 21.275 21.8989 21.2333V20.8714C21.8927 20.8298 21.8966 20.7873 21.9105 20.7473C21.9243 20.7074 21.9476 20.6711 21.9786 20.6414C22.0095 20.6116 22.0473 20.5892 22.0888 20.5759C22.1304 20.5626 22.1746 20.5588 22.2179 20.5648H23.0577V19.8962C23.0568 19.8471 23.0663 19.7983 23.0857 19.7529C23.1051 19.7074 23.1339 19.6662 23.1704 19.6318C23.2062 19.5967 23.249 19.569 23.2963 19.5504C23.3436 19.5318 23.3944 19.5226 23.4455 19.5235H23.9809C24.032 19.5226 24.0828 19.5318 24.13 19.5504C24.1773 19.569 24.2202 19.5967 24.2559 19.6318C24.2925 19.6662 24.3213 19.7074 24.3407 19.7529C24.3601 19.7983 24.3696 19.8471 24.3687 19.8962V20.5648H25.2084C25.2518 20.5588 25.296 20.5626 25.3375 20.5759C25.3791 20.5892 25.4168 20.6116 25.4478 20.6414C25.4787 20.6711 25.5021 20.7074 25.5159 20.7473C25.5297 20.7873 25.5337 20.8298 25.5275 20.8714V21.2333C25.5337 21.275 25.5297 21.3175 25.5159 21.3574C25.5021 21.3973 25.4787 21.4336 25.4478 21.4634C25.4168 21.4931 25.3791 21.5155 25.3375 21.5288C25.296 21.5421 25.2518 21.5459 25.2084 21.5399H24.3766V29.0293C24.3775 29.0784 24.368 29.1272 24.3486 29.1727C24.3292 29.2182 24.3004 29.2593 24.2638 29.2937C24.2281 29.3288 24.1852 29.3565 24.1379 29.3752C24.0906 29.3938 24.0399 29.4029 23.9888 29.4021H23.4488C23.3977 29.4029 23.347 29.3938 23.2997 29.3752C23.2524 29.3565 23.2096 29.3288 23.1738 29.2937C23.1373 29.2593 23.1084 29.2182 23.089 29.1727C23.0697 29.1272 23.0601 29.0784 23.0611 29.0293V28.5959C22.8384 28.8704 22.557 29.0958 22.2359 29.2569C21.7944 29.4659 21.3051 29.5646 20.8134 29.544C20.3796 29.5483 19.9492 29.471 19.5464 29.3165C19.1615 29.1675 18.8135 28.9423 18.5251 28.6555C18.2257 28.3535 17.9895 27.9988 17.8296 27.611C17.6491 27.1704 17.547 26.7037 17.5275 26.2306C17.517 26.0919 17.5117 25.9413 17.5117 25.7787C17.5117 25.6162 17.517 25.4652 17.5275 25.3258C17.548 24.8533 17.6509 24.3874 17.8319 23.9476C17.9908 23.5615 18.2271 23.2091 18.5274 22.9106C18.8178 22.6288 19.1654 22.4075 19.5486 22.2605C19.9503 22.104 20.38 22.0245 20.8134 22.0265ZM23.0577 26.3844C23.0675 26.245 23.0723 26.0619 23.0723 25.8351C23.0723 25.6083 23.0675 25.4251 23.0577 25.2857C23.0678 24.7194 22.8469 24.1718 22.4422 23.7601C22.2447 23.5798 22.0115 23.4395 21.7565 23.3473C21.5015 23.2552 21.2299 23.2132 20.9577 23.2238C20.6775 23.2101 20.3976 23.2554 20.1375 23.3565C19.8774 23.4575 19.6433 23.6119 19.4517 23.8089C19.0624 24.2536 18.8471 24.8151 18.843 25.3962C18.8332 25.6563 18.8332 25.916 18.843 26.1753C18.8471 26.7565 19.0624 27.318 19.4517 27.7627C19.6433 27.9596 19.8774 28.114 20.1375 28.2151C20.3976 28.3161 20.6775 28.3614 20.9577 28.3478C21.2279 28.3572 21.4974 28.3153 21.7507 28.2246C22.0041 28.1339 22.2364 27.9961 22.4343 27.819C22.6317 27.6313 22.7884 27.4079 22.8954 27.1617C23.0024 26.9154 23.0575 26.6513 23.0577 26.3844Z" fill="#D14406" stroke="#D14406" stroke-width="0.3"/>
<path d="M26.6886 9.50856C26.0728 8.79237 24.4706 9.73252 23.551 10.3682C23.1299 9.75235 22.5118 9 21.9757 9C21.4397 9 20.8216 9.75235 20.4005 10.3682C19.4833 9.73135 17.8775 8.79121 17.2629 9.50856C17.1781 9.60989 17.1148 9.72721 17.0767 9.85349C17.0386 9.97976 17.0265 10.1124 17.0412 10.2434C17.1585 11.6513 19.9478 13.976 20.2644 14.2384C20.3302 14.2931 20.4133 14.3229 20.499 14.3224H23.4501C23.5357 14.3232 23.6188 14.2939 23.6847 14.2396C24.0014 13.9783 26.7894 11.6548 26.9079 10.2446C26.9232 10.1135 26.9117 9.98074 26.874 9.85424C26.8363 9.72773 26.7732 9.61014 26.6886 9.50856Z" fill="url(#paint0_linear)"/>
<defs>
<linearGradient id="paint0_linear" x1="21.9748" y1="9" x2="21.9748" y2="14.3224" gradientUnits="userSpaceOnUse">
<stop stop-color="#E1590A"/>
<stop offset="1" stop-color="#C23102"/>
</linearGradient>
</defs>
</svg>
