<svg width="60" height="60" viewBox="0 0 60 60" fill="none" xmlns="http://www.w3.org/2000/svg">
<circle cx="30" cy="30" r="30" fill="url(#paint0_linear)"/>
<mask id="mask0" style="mask-type:alpha" maskUnits="userSpaceOnUse" x="11" y="11" width="38" height="38">
<rect x="11" y="11" width="38" height="38" fill="#C4C4C4"/>
</mask>
<g mask="url(#mask0)">
</g>
<g clip-path="url(#clip0)">
<path d="M41.1682 22.2886L34.1372 15.2575C33.9704 15.0907 33.7426 15 33.5156 15H21.2109C19.7571 15 18.5742 16.1828 18.5742 17.6367V42.3633C18.5742 43.8172 19.7571 45 21.2109 45H38.7891C40.2429 45 41.4258 43.8172 41.4258 42.3633V22.9102C41.4258 22.669 41.3237 22.4439 41.1682 22.2886ZM34.3945 18.0008L38.425 22.0312H35.2734C34.7888 22.0312 34.3945 21.637 34.3945 21.1523V18.0008ZM38.7891 43.2422H21.2109C20.7263 43.2422 20.332 42.8479 20.332 42.3633V17.6367C20.332 17.1521 20.7263 16.7578 21.2109 16.7578H32.6367V21.1523C32.6367 22.6062 33.8196 23.7891 35.2734 23.7891H39.668V42.3633C39.668 42.8479 39.2737 43.2422 38.7891 43.2422Z" fill="white"/>
<path d="M35.2734 29.1797H26.4844C25.999 29.1797 25.6055 29.5732 25.6055 30.0586C25.6055 30.544 25.999 30.9375 26.4844 30.9375H35.2734C35.7588 30.9375 36.1523 30.544 36.1523 30.0586C36.1523 29.5732 35.7588 29.1797 35.2734 29.1797Z" fill="white"/>
<path d="M35.2734 32.6953H26.4844C25.999 32.6953 25.6055 33.0888 25.6055 33.5742C25.6055 34.0596 25.999 34.4531 26.4844 34.4531H35.2734C35.7588 34.4531 36.1523 34.0596 36.1523 33.5742C36.1523 33.0888 35.7588 32.6953 35.2734 32.6953Z" fill="white"/>
<path d="M35.2734 36.2109H26.4844C25.999 36.2109 25.6055 36.6045 25.6055 37.0898C25.6055 37.5752 25.999 37.9688 26.4844 37.9688H35.2734C35.7588 37.9688 36.1523 37.5752 36.1523 37.0898C36.1523 36.6045 35.7588 36.2109 35.2734 36.2109Z" fill="white"/>
<path d="M22.9688 30.9375C23.4542 30.9375 23.8477 30.544 23.8477 30.0586C23.8477 29.5732 23.4542 29.1797 22.9688 29.1797C22.4833 29.1797 22.0898 29.5732 22.0898 30.0586C22.0898 30.544 22.4833 30.9375 22.9688 30.9375Z" fill="white"/>
<path d="M22.9688 34.4531C23.4542 34.4531 23.8477 34.0596 23.8477 33.5742C23.8477 33.0888 23.4542 32.6953 22.9688 32.6953C22.4833 32.6953 22.0898 33.0888 22.0898 33.5742C22.0898 34.0596 22.4833 34.4531 22.9688 34.4531Z" fill="white"/>
<path d="M22.9688 37.9688C23.4542 37.9688 23.8477 37.5753 23.8477 37.0898C23.8477 36.6044 23.4542 36.2109 22.9688 36.2109C22.4833 36.2109 22.0898 36.6044 22.0898 37.0898C22.0898 37.5753 22.4833 37.9688 22.9688 37.9688Z" fill="white"/>
</g>
<defs>
<linearGradient id="paint0_linear" x1="30" y1="0" x2="30" y2="60" gradientUnits="userSpaceOnUse">
<stop stop-color="#EA6544"/>
<stop offset="1" stop-color="#D12A1E"/>
</linearGradient>
<clipPath id="clip0">
<rect width="30" height="30" fill="white" transform="translate(15 15)"/>
</clipPath>
</defs>
</svg>
