<svg width="60" height="61" viewBox="0 0 60 61" fill="none" xmlns="http://www.w3.org/2000/svg">
<circle cx="30" cy="30.1445" r="30" fill="url(#paint0_linear_51_956)"/>
<path d="M29.5 14.5C42.7 14.5 46 17.8 46 31C46 44.2 42.7 47.5 29.5 47.5C16.3 47.5 13 44.2 13 31C13 17.8 16.3 14.5 29.5 14.5Z" stroke="white" stroke-width="2" stroke-linecap="round" stroke-linejoin="round"/>
<path d="M25.6666 29.6667V26.3333C25.6666 25.4493 26.0178 24.6014 26.6429 23.9763C27.268 23.3512 28.1159 23 28.9999 23C29.884 23 30.7318 23.3512 31.3569 23.9763C31.9821 24.6014 32.3333 25.4493 32.3333 26.3333V29.6667M22.3333 31.3333C22.3333 30.8913 22.5088 30.4674 22.8214 30.1548C23.134 29.8423 23.5579 29.6667 23.9999 29.6667H33.9999C34.4419 29.6667 34.8659 29.8423 35.1784 30.1548C35.491 30.4674 35.6666 30.8913 35.6666 31.3333V36.3333C35.6666 36.7754 35.491 37.1993 35.1784 37.5118C34.8659 37.8244 34.4419 38 33.9999 38H23.9999C23.5579 38 23.134 37.8244 22.8214 37.5118C22.5088 37.1993 22.3333 36.7754 22.3333 36.3333V31.3333Z" stroke="white" stroke-width="2" stroke-linecap="round" stroke-linejoin="round"/>
<defs>
<linearGradient id="paint0_linear_51_956" x1="30" y1="0.144531" x2="30" y2="60.1445" gradientUnits="userSpaceOnUse">
<stop stop-color="#EA6544"/>
<stop offset="1" stop-color="#D12A1E"/>
</linearGradient>
</defs>
</svg>
