<svg width="44" height="44" viewBox="0 0 44 44" fill="none" xmlns="http://www.w3.org/2000/svg">
<circle opacity="0.2" r="22" transform="matrix(1 0 0 -1 22 22)" fill="#C68158"/>
<path d="M23.7527 31.5665L23.7524 31.5668L23.7504 31.5685L23.7502 31.5686L23.7447 31.5734C23.3689 31.8997 23.0346 32.1899 22.766 32.4375C22.5536 32.6333 22.2791 32.7334 21.9998 32.7334C21.7207 32.7334 21.4461 32.6333 21.2338 32.4375L21.2337 32.4375C20.9644 32.1892 20.629 31.8981 20.2518 31.5706L20.2471 31.5666C18.8712 30.3721 16.9502 28.7024 15.3703 26.681C13.7874 24.6557 12.5999 22.343 12.5999 19.8688C12.5999 17.3946 13.5749 15.0698 15.3503 13.3176C17.1259 11.5653 19.4854 10.6 21.9999 10.6C24.5144 10.6 26.8739 11.5653 28.6495 13.3176C30.4248 15.0697 31.3998 17.3946 31.3999 19.8689C31.3999 22.343 30.2124 24.6556 28.6295 26.6809C27.0499 28.7019 25.1293 30.3714 23.7534 31.5659C23.7532 31.5661 23.7529 31.5663 23.7527 31.5665Z" fill="#FFC76F" stroke="#985801" stroke-width="1.2"/>
<circle cx="22" cy="20" r="6" fill="url(#paint0_linear)"/>
<g clip-path="url(#clip0)">
<path d="M24.9721 20.9289H22.8388V22.9649C22.8388 23.5399 22.5818 23.9991 22.004 23.9991C21.4261 23.9991 21.1692 23.5353 21.1692 22.9649V20.9289H19.0359C18.4608 20.9289 17.9961 20.6599 17.9961 20.0858C17.9995 19.9566 18.0299 19.8296 18.0853 19.7128C18.1407 19.5961 18.2199 19.4922 18.3178 19.4078C18.4157 19.3235 18.5301 19.2605 18.6538 19.223C18.7775 19.1854 18.9076 19.1741 19.0359 19.1898H21.1692V17.0342C21.1692 16.4591 21.4252 16 22.004 16C22.5828 16 22.8388 16.4638 22.8388 17.0342V19.1898H24.9721C25.0999 19.174 25.2295 19.1853 25.3526 19.223C25.4757 19.2606 25.5895 19.3237 25.6867 19.4082C25.7838 19.4928 25.862 19.5968 25.9163 19.7135C25.9705 19.8302 25.9996 19.9571 26.0017 20.0858C26.0007 20.6609 25.5462 20.9289 24.9721 20.9289Z" fill="#FFC76F"/>
</g>
<defs>
<linearGradient id="paint0_linear" x1="22" y1="14" x2="22" y2="26" gradientUnits="userSpaceOnUse">
<stop stop-color="#EA6544"/>
<stop offset="1" stop-color="#D12A1E"/>
</linearGradient>
<clipPath id="clip0">
<rect width="8" height="8" fill="white" transform="translate(18 16)"/>
</clipPath>
</defs>
</svg>
