<svg width="32" height="45" viewBox="0 0 32 45" fill="none" xmlns="http://www.w3.org/2000/svg">
<path d="M16.0461 1C7.74969 1 1 7.74969 1 16.0461V16.1033C1 19.0772 1.79758 22.0037 3.30649 24.5664L14.8308 44.1388C15.061 44.5296 15.4801 44.7702 15.9336 44.7717H15.938C16.3899 44.7717 16.8087 44.5343 17.0407 44.1464L28.7271 24.6082C30.2744 22.0213 31.0923 19.0606 31.0923 16.0461C31.0922 7.74969 24.3425 1 16.0461 1ZM15.938 22.8859C12.3192 22.8859 9.37526 19.9418 9.37526 16.3232C9.37526 12.7045 12.3193 9.76048 15.938 9.76048C19.5566 9.76048 22.5006 12.7045 22.5006 16.3232C22.5006 19.9418 19.5566 22.8859 15.938 22.8859Z" fill="#CA4E3F"/>
<path d="M17.8377 9.5774C17.7977 9.53002 17.7479 9.49178 17.6917 9.46531C17.6356 9.43884 17.5743 9.42476 17.5121 9.42404H13.8946C13.8324 9.42476 13.7711 9.43884 13.7149 9.46531C13.6587 9.49178 13.6089 9.53002 13.569 9.5774C12.9078 10.3362 6.94477 13.9517 7.11108 19.9489C7.11108 24.0947 10.9655 27.4667 15.7028 27.4667C20.4402 27.4667 24.2946 24.0947 24.2946 19.9489C24.2381 14.1352 18.4989 10.3362 17.8377 9.5774Z" fill="#FFC76F" stroke="#FDFFFE"/>
<path d="M14.6826 16.267C15.1096 16.2477 15.5345 16.3363 15.9148 16.524C16.1827 16.6646 16.4194 16.8544 16.6112 17.0827V15.849H15.8896C15.8523 15.8541 15.8144 15.8508 15.7787 15.8394C15.743 15.828 15.7105 15.8087 15.6839 15.7832C15.6573 15.7576 15.6373 15.7264 15.6254 15.6921C15.6135 15.6578 15.6101 15.6213 15.6154 15.5855V15.2745C15.6101 15.2387 15.6135 15.2022 15.6254 15.1678C15.6373 15.1335 15.6573 15.1023 15.6839 15.0768C15.7105 15.0512 15.743 15.0319 15.7787 15.0205C15.8144 15.0091 15.8523 15.0058 15.8896 15.011H16.6112V14.4364C16.6104 14.3942 16.6186 14.3523 16.6353 14.3132C16.6519 14.2742 16.6767 14.2388 16.7081 14.2093C16.7388 14.1791 16.7757 14.1553 16.8163 14.1392C16.8569 14.1232 16.9006 14.1154 16.9445 14.1161H17.4046C17.4485 14.1154 17.4921 14.1232 17.5328 14.1392C17.5734 14.1553 17.6102 14.1791 17.641 14.2093C17.6723 14.2388 17.6971 14.2742 17.7138 14.3132C17.7304 14.3523 17.7386 14.3942 17.7378 14.4364V15.011H18.4595C18.4967 15.0058 18.5347 15.0091 18.5704 15.0205C18.6061 15.0319 18.6385 15.0512 18.6652 15.0768C18.6918 15.1023 18.7118 15.1335 18.7237 15.1678C18.7356 15.2022 18.739 15.2387 18.7336 15.2745V15.5855C18.739 15.6213 18.7356 15.6578 18.7237 15.6921C18.7118 15.7264 18.6918 15.7576 18.6652 15.7832C18.6385 15.8087 18.6061 15.828 18.5704 15.8394C18.5347 15.8508 18.4967 15.8541 18.4595 15.849H17.7446V22.2849C17.7454 22.3271 17.7372 22.3691 17.7206 22.4081C17.7039 22.4472 17.6791 22.4826 17.6477 22.5121C17.617 22.5423 17.5802 22.5661 17.5395 22.5821C17.4989 22.5981 17.4553 22.606 17.4114 22.6052H16.9474C16.9035 22.606 16.8598 22.5981 16.8192 22.5821C16.7786 22.5661 16.7417 22.5423 16.711 22.5121C16.6796 22.4826 16.6548 22.4472 16.6382 22.4081C16.6215 22.3691 16.6134 22.3271 16.6142 22.2849V21.9125C16.4228 22.1484 16.181 22.3421 15.9051 22.4805C15.5256 22.6601 15.1052 22.7449 14.6826 22.7272C14.3099 22.7309 13.94 22.6645 13.5938 22.5317C13.263 22.4036 12.964 22.2101 12.7162 21.9637C12.4589 21.7041 12.256 21.3994 12.1185 21.0661C11.9634 20.6874 11.8757 20.2864 11.8589 19.8798C11.8499 19.7606 11.8453 19.6312 11.8453 19.4915C11.8453 19.3519 11.8499 19.2221 11.8589 19.1023C11.8765 18.6962 11.9649 18.2959 12.1204 17.9179C12.257 17.5861 12.4601 17.2834 12.7181 17.0268C12.9677 16.7847 13.2664 16.5945 13.5957 16.4682C13.9409 16.3337 14.3101 16.2654 14.6826 16.267ZM16.6112 20.012C16.6196 19.8922 16.6238 19.7349 16.6238 19.54C16.6238 19.345 16.6196 19.1877 16.6112 19.0679C16.62 18.5812 16.4301 18.1106 16.0823 17.7569C15.9126 17.6019 15.7122 17.4813 15.4931 17.4021C15.2739 17.323 15.0405 17.2869 14.8066 17.2959C14.5658 17.2842 14.3253 17.3232 14.1018 17.41C13.8782 17.4968 13.6771 17.6295 13.5124 17.7988C13.1779 18.1809 12.9929 18.6634 12.9893 19.1629C12.981 19.3863 12.981 19.6095 12.9893 19.8323C12.9929 20.3318 13.1779 20.8143 13.5124 21.1964C13.6771 21.3657 13.8782 21.4983 14.1018 21.5852C14.3253 21.672 14.5658 21.711 14.8066 21.6992C15.0388 21.7073 15.2704 21.6714 15.4881 21.5934C15.7058 21.5154 15.9055 21.397 16.0756 21.2449C16.2452 21.0836 16.3798 20.8916 16.4718 20.68C16.5637 20.4684 16.6111 20.2414 16.6112 20.012Z" fill="#D14406" stroke="#D14406" stroke-width="0.3"/>
<path d="M19.7288 5.50883C19.1997 4.89337 17.8228 5.70128 17.0326 6.24757C16.6707 5.71832 16.1395 5.07179 15.6789 5.07179C15.2183 5.07179 14.6871 5.71832 14.3252 6.24757C13.537 5.70028 12.1571 4.89237 11.629 5.50883C11.5561 5.5959 11.5016 5.69672 11.4689 5.80523C11.4362 5.91375 11.4258 6.02772 11.4385 6.14032C11.5393 7.35018 13.9362 9.3479 14.2083 9.57343C14.2648 9.62044 14.3362 9.64601 14.4099 9.6456H16.9459C17.0194 9.64629 17.0908 9.62108 17.1475 9.57443C17.4196 9.3499 19.8155 7.35318 19.9173 6.14132C19.9305 6.0287 19.9206 5.91459 19.8882 5.80588C19.8558 5.69717 19.8016 5.59612 19.7288 5.50883Z" fill="url(#paint0_linear)"/>
<defs>
<linearGradient id="paint0_linear" x1="15.6781" y1="5.07179" x2="15.6781" y2="9.64561" gradientUnits="userSpaceOnUse">
<stop stop-color="white"/>
<stop offset="1" stop-color="white"/>
</linearGradient>
</defs>
</svg>
