<svg width="32" height="44" viewBox="0 0 32 44" fill="none" xmlns="http://www.w3.org/2000/svg">
<path d="M16.0461 0C7.74969 0 1 6.74969 1 15.0461V15.1033C1 18.0772 1.79758 21.0037 3.30649 23.5664L14.8308 43.1388C15.061 43.5296 15.4801 43.7702 15.9336 43.7717H15.938C16.3899 43.7717 16.8087 43.5343 17.0407 43.1464L28.7271 23.6082C30.2744 21.0213 31.0923 18.0606 31.0923 15.0461C31.0922 6.74969 24.3425 0 16.0461 0ZM15.938 21.8859C12.3192 21.8859 9.37526 18.9418 9.37526 15.3232C9.37526 11.7045 12.3193 8.76048 15.938 8.76048C19.5566 8.76048 22.5006 11.7045 22.5006 15.3232C22.5006 18.9418 19.5566 21.8859 15.938 21.8859Z" fill="#CA4E3F"/>
<path d="M15.4231 29.6551L15.4231 29.6551C15.699 29.9095 16.0548 30.0385 16.4145 30.0385C16.7741 30.0385 17.1299 29.9095 17.4058 29.6552L15.4231 29.6551ZM15.4231 29.6551C15.1196 29.3754 14.7409 29.0466 14.3117 28.6741L14.308 28.6708C12.7484 27.3169 10.5566 25.4125 8.75236 23.104C6.94563 20.7922 5.57162 18.1301 5.57162 15.2659C5.57162 12.4107 6.69717 9.72749 8.74509 7.70639C10.7932 5.68513 13.5152 4.57184 16.4145 4.57184C19.3138 4.57184 22.0358 5.68512 24.0839 7.70639C26.1318 9.72749 27.2573 12.4107 27.2573 15.2659C27.2573 18.1301 25.8834 20.7922 24.0767 23.1038C22.2725 25.4123 20.0807 27.3167 18.521 28.6707L18.5189 28.6726L18.5188 28.6727L18.5184 28.673L18.5182 28.6732M15.4231 29.6551L18.5182 28.6732M18.5182 28.6732L18.5128 28.6779M18.5182 28.6732L18.5128 28.6779M18.5128 28.6779C18.0855 29.0488 17.7083 29.3763 17.4059 29.6551L18.5128 28.6779Z" fill="#FFC76F" stroke="#FDFFFE"/>
<circle cx="16.4148" cy="15.4147" r="6.80571" fill="url(#paint0_linear)"/>
<g clip-path="url(#clip0)">
<path d="M19.7852 16.4692H17.3654V18.7785C17.3654 19.4308 17.074 19.9516 16.4185 19.9516C15.7631 19.9516 15.4716 19.4255 15.4716 18.7785V16.4692H13.0518C12.3995 16.4692 11.8724 16.164 11.8724 15.5128C11.8763 15.3663 11.9108 15.2222 11.9737 15.0897C12.0365 14.9573 12.1263 14.8395 12.2374 14.7438C12.3484 14.6481 12.4782 14.5767 12.6185 14.5341C12.7587 14.4915 12.9063 14.4787 13.0518 14.4965H15.4716V12.0514C15.4716 11.3991 15.762 10.8783 16.4185 10.8783C17.075 10.8783 17.3654 11.4044 17.3654 12.0514V14.4965H19.7852C19.9301 14.4786 20.0772 14.4914 20.2168 14.5341C20.3565 14.5768 20.4856 14.6484 20.5957 14.7443C20.7059 14.8401 20.7946 14.9581 20.8562 15.0905C20.9177 15.2229 20.9507 15.3668 20.953 15.5128C20.952 16.1651 20.4365 16.4692 19.7852 16.4692Z" fill="#FFC76F"/>
</g>
<defs>
<linearGradient id="paint0_linear" x1="16.4148" y1="8.60896" x2="16.4148" y2="22.2204" gradientUnits="userSpaceOnUse">
<stop stop-color="#EA6544"/>
<stop offset="1" stop-color="#D12A1E"/>
</linearGradient>
<clipPath id="clip0">
<rect width="9.07429" height="9.07429" fill="white" transform="translate(11.8773 10.8773)"/>
</clipPath>
</defs>
</svg>
