<svg width="31" height="45" viewBox="0 0 31 45" fill="none" xmlns="http://www.w3.org/2000/svg">
<path d="M15.6436 1C7.3471 1 0.597412 7.74969 0.597412 16.0461V16.1033C0.597412 19.0772 1.395 22.0037 2.9039 24.5664L14.4282 44.1388C14.6584 44.5296 15.0775 44.7702 15.531 44.7717H15.5355C15.9873 44.7717 16.4061 44.5343 16.6382 44.1464L28.3245 24.6082C29.8718 22.0213 30.6897 19.0606 30.6897 16.0461C30.6896 7.74969 23.9399 1 15.6436 1ZM15.5354 22.8859C11.9166 22.8859 8.97268 19.9418 8.97268 16.3232C8.97268 12.7045 11.9167 9.76048 15.5354 9.76048C19.154 9.76048 22.0981 12.7045 22.0981 16.3232C22.0981 19.9418 19.154 22.8859 15.5354 22.8859Z" fill="#CA4E3F"/>
<path d="M8.3046 9.27083V22.8312H7.72302H7.22302V23.3312V24.4128V24.9128H7.72302H22.865H23.365V24.4128V23.3312V22.8312H22.865H22.2834V9.27083C22.2834 7.80169 21.0894 6.6077 19.6203 6.6077H10.9677C9.4986 6.6077 8.3046 7.80169 8.3046 9.27083ZM16.8756 10.8524H18.0387V12.0155H16.8756V10.8524ZM16.8756 14.0971H18.0387V15.2602H16.8756V14.0971ZM16.8756 17.3418H18.0387V18.505H16.8756V17.3418ZM12.5493 10.8524H13.7124V12.0155H12.5493V10.8524ZM12.5493 14.0971H13.7124V15.2602H12.5493V14.0971ZM12.5493 17.3418H13.7124V18.505H12.5493V17.3418ZM13.6309 22.8313V20.5866H16.9572V22.8313H13.6309Z" fill="#FFC76F" stroke="white"/>
<rect x="10.9684" y="9.70354" width="8.65372" height="13.846" fill="url(#paint0_linear)"/>
<path d="M21.7834 23.3313V9.27083C21.7834 8.07783 20.8133 7.1077 19.6203 7.1077H10.9677C9.77474 7.1077 8.8046 8.07783 8.8046 9.27083V23.3312H7.72302V24.4128H22.865V23.3312H21.7834V23.3313ZM16.3756 10.3524H18.5387V12.5155H16.3756V10.3524ZM16.3756 13.5971H18.5387V15.7602H16.3756V13.5971ZM16.3756 16.8418H18.5387V19.005H16.3756V16.8418ZM12.0493 10.3524H14.2124V12.5155H12.0493V10.3524ZM12.0493 13.5971H14.2124V15.7602H12.0493V13.5971ZM12.0493 16.8418H14.2124V19.005H12.0493V16.8418ZM13.1309 23.3313V20.0866H17.4572V23.3313H13.1309Z" fill="#FFC76F"/>
<defs>
<linearGradient id="paint0_linear" x1="15.2952" y1="9.70354" x2="15.2952" y2="23.5495" gradientUnits="userSpaceOnUse">
<stop stop-color="#EA6544"/>
<stop offset="1" stop-color="#D12A1E"/>
</linearGradient>
</defs>
</svg>
