<svg width="287" height="96" viewBox="0 0 287 96" fill="none" xmlns="http://www.w3.org/2000/svg">
<path d="M287 74C287 59.7295 222.753 33 143.5 33C64.2471 33 0 59.7295 0 74C0 74 64.2471 74 143.5 74C222.753 74 287 74 287 74Z" fill="url(#paint0_linear_458_9991)" fill-opacity="0.15"/>
<path d="M188 87.8533C188 82.4115 168.077 80 143.5 80C118.923 80 99 82.4115 99 87.8533C99 93.2951 118.923 96 143.5 96C168.077 96 188 93.2951 188 87.8533Z" fill="#F78D8D" fill-opacity="0.15"/>
<rect x="98.3047" y="8.29492" width="66.4496" height="76.1503" rx="7" transform="rotate(-7.03859 98.3047 8.29492)" fill="url(#paint1_linear_458_9991)"/>
<path d="M99.3116 16.1098C98.3688 12.0594 101.144 8.08516 105.272 7.57557L157.176 1.16699C161.358 0.650722 165.044 3.91827 165.034 8.13139L165.026 11.5073C165.02 14.0304 163.134 16.1536 160.63 16.4584L105.536 23.1649C103.001 23.4735 100.641 21.8222 100.062 19.3351L99.3116 16.1098Z" fill="#DD6E00" fill-opacity="0.6"/>
<path d="M99.5963 16.512C98.2489 12.3307 101.041 7.95612 105.401 7.4178L157.03 1.04333C161.406 0.502981 165.186 4.09484 164.869 8.49308L164.725 10.5018C164.553 12.8841 162.721 14.8125 160.35 15.1052L105.589 21.8665C103.207 22.1605 100.953 20.7215 100.217 18.4378L99.5963 16.512Z" fill="url(#paint2_linear_458_9991)"/>
<circle cx="131.525" cy="13.1381" r="3.89249" transform="rotate(-7.03859 131.525 13.1381)" fill="white"/>
<path opacity="0.2" d="M134.063 22.9186C134.79 16.8159 140.798 12.807 146.712 14.4784L149.496 15.2651C152.733 16.1799 155.293 18.6611 156.309 21.8679L170.86 67.7932C173.138 74.9838 166.938 82.0119 159.52 80.6489L137.112 76.532C131.921 75.5783 128.365 70.7546 128.989 65.5137L134.063 22.9186Z" fill="#9D031B" fill-opacity="0.5"/>
<rect x="137.389" y="13.4941" width="51.019" height="62.5693" rx="8" transform="rotate(10.7778 137.389 13.4941)" fill="url(#paint3_linear_458_9991)"/>
<path opacity="0.2" d="M122.874 29.6689C122.924 24.0205 127.64 19.5351 133.284 19.7671L154.063 20.6214C159.352 20.8388 163.555 25.1407 163.65 30.4336L164.377 70.9371C164.476 76.459 160.079 81.0157 154.557 81.1147L132.678 81.507C127.05 81.6079 122.448 77.0468 122.499 71.4189L122.874 29.6689Z" fill="#9D031B" fill-opacity="0.5"/>
<path opacity="0.2" d="M127.008 28.9666C127.279 23.4609 131.953 19.2124 137.46 19.4679L164.632 20.7289C167.121 20.8444 169.478 21.8851 171.24 23.6471L172.682 25.0898L173.959 26.4945C175.813 28.5334 176.743 31.2468 176.53 33.9941L173.43 73.985C173.013 79.3622 168.407 83.4402 163.019 83.2024L134.468 81.9426C128.931 81.6983 124.649 76.9974 124.921 71.4617L127.008 28.9666Z" fill="#9D031B" fill-opacity="0.5"/>
<path d="M125.036 26.9744C125.253 22.5699 128.992 19.1711 133.397 19.3755L163.336 20.7648C165.327 20.8572 167.213 21.6897 168.622 23.0994L170.613 25.0898L172.567 27.2395C173.993 28.8082 174.738 30.8788 174.638 32.9965L172.62 75.942C172.412 80.362 168.656 83.7738 164.236 83.5567L130.348 81.8921C125.935 81.6753 122.534 77.9222 122.75 73.5092L125.036 26.9744Z" fill="#F5E2E2"/>
<path d="M174.773 32.616C174.773 32.2815 174.355 30.1072 174.265 29.6891L172.921 28.0165L171.352 26.5818L171.129 26.344L167.993 23.417C167.993 23.417 166.936 22.8311 166.201 22.5807C165.305 22.2756 163.902 20.9082 163.902 20.9082L165.574 30.9435L174.773 35.1248C174.922 33.5917 174.773 32.9505 174.773 32.616Z" fill="#DD6E00" fill-opacity="0.1"/>
<path d="M174.773 32.1979C174.773 31.8634 174.773 29.689 173.937 28.8528L172.682 27.1802L171.218 25.7455L171.01 25.5077L168.083 22.5807C168.083 22.5807 166.678 21.5766 165.992 21.3263C165.156 21.0212 163.902 20.9082 163.902 20.9082L166.41 30.1072L174.773 34.7067V32.1979Z" fill="#FDB96C"/>
<rect x="136.029" y="38.4688" width="27.6469" height="2.45882" transform="rotate(1.90456 136.029 38.4688)" fill="#DE181F"/>
<rect x="129.975" y="46.9082" width="37.5631" height="2.45882" transform="rotate(1.90456 129.975 46.9082)" fill="#C4C4C4"/>
<rect x="129.696" y="52.6797" width="37.5631" height="2.45882" transform="rotate(1.90456 129.696 52.6797)" fill="#C4C4C4"/>
<rect width="12.8606" height="3.0311" rx="1.51555" transform="matrix(-1 8.75592e-08 8.72865e-08 1 177.954 74.7988)" fill="white"/>
<circle cx="173" cy="78" r="14" fill="url(#paint4_linear_458_9991)"/>
<circle cx="173" cy="78" r="14" fill="url(#paint5_linear_458_9991)"/>
<g clip-path="url(#clip0_458_9991)">
<path d="M172.49 86C172.08 86 171.729 85.861 171.437 85.5831C171.145 85.3051 170.999 84.9196 171 84.4266C170.997 84.2172 171.036 84.0095 171.113 83.8168C171.19 83.6241 171.303 83.4505 171.447 83.307C171.586 83.1573 171.751 83.0388 171.934 82.9587C172.116 82.8786 172.312 82.8386 172.51 82.841C172.881 82.841 173.222 83.0064 173.533 83.3372C173.844 83.6679 174 84.0311 174.001 84.4266C174.001 84.9263 173.854 85.3135 173.559 85.5881C173.264 85.8627 172.908 86 172.49 86ZM171.427 79.0615L171.09 73.9817C171.03 72.9677 171 72.2671 171 71.8799C171 71.2884 171.141 70.8273 171.422 70.4965C171.703 70.1657 172.086 70.0002 172.57 70C173.119 70 173.495 70.2113 173.697 70.6338C173.9 71.0563 174.001 71.6658 174.001 72.4621C174.001 72.8564 173.978 73.3177 173.931 73.8459L173.503 79.0615C173.457 79.6884 173.361 80.1691 173.215 80.5037C173.069 80.8383 172.821 81.0056 172.47 81.0056C172.113 81.0056 171.861 80.8383 171.715 80.5037C171.569 80.1691 171.473 79.6884 171.427 79.0615Z" fill="#FDFDFD"/>
</g>
<defs>
<linearGradient id="paint0_linear_458_9991" x1="143.03" y1="31.5561" x2="143.03" y2="73.7901" gradientUnits="userSpaceOnUse">
<stop stop-color="#F78D8D"/>
<stop offset="1" stop-color="white"/>
</linearGradient>
<linearGradient id="paint1_linear_458_9991" x1="131.287" y1="17.7574" x2="131.287" y2="94.1329" gradientUnits="userSpaceOnUse">
<stop stop-color="#FFBF74"/>
<stop offset="1" stop-color="#F4973B"/>
</linearGradient>
<linearGradient id="paint2_linear_458_9991" x1="129.984" y1="-1.03588" x2="132.986" y2="20.4221" gradientUnits="userSpaceOnUse">
<stop stop-color="#FFBF74"/>
<stop offset="1" stop-color="#F4973B"/>
</linearGradient>
<linearGradient id="paint3_linear_458_9991" x1="166.021" y1="-60.3349" x2="162.557" y2="83.4172" gradientUnits="userSpaceOnUse">
<stop stop-color="#FFC59A"/>
<stop offset="0.774583" stop-color="#FF826E"/>
<stop offset="1" stop-color="#FF7062"/>
</linearGradient>
<linearGradient id="paint4_linear_458_9991" x1="160.347" y1="78" x2="186.544" y2="78.2993" gradientUnits="userSpaceOnUse">
<stop stop-color="#EA553F"/>
<stop offset="1" stop-color="#D32A30"/>
</linearGradient>
<linearGradient id="paint5_linear_458_9991" x1="173" y1="64" x2="173" y2="92" gradientUnits="userSpaceOnUse">
<stop stop-color="#EA6544"/>
<stop offset="1" stop-color="#D12A1E"/>
</linearGradient>
<clipPath id="clip0_458_9991">
<rect width="3" height="16" fill="white" transform="translate(171 70)"/>
</clipPath>
</defs>
</svg>
