<svg width="287" height="97" viewBox="0 0 287 97" fill="none" xmlns="http://www.w3.org/2000/svg">
<path d="M287 77.2871C287 63.0436 222.753 36.3648 143.5 36.3648C64.2471 36.3648 0 63.0436 0 77.2871C0 77.2871 64.2471 77.2871 143.5 77.2871C222.753 77.2871 287 77.2871 287 77.2871Z" fill="url(#paint0_linear_414_27750)" fill-opacity="0.15"/>
<path d="M188 88.6187C188 83.1872 168.972 80.7803 145.5 80.7803C122.028 80.7803 103 83.1872 103 88.6187C103 94.0503 122.028 96.75 145.5 96.75C168.972 96.75 188 94.0503 188 88.6187Z" fill="#F78D8D" fill-opacity="0.15"/>
<rect width="66.4477" height="76.0082" rx="7" transform="matrix(0.992492 -0.122309 0.122767 0.992436 97.3048 9.20996)" fill="url(#paint1_linear_414_27750)"/>
<path d="M98.3154 17.0279C97.3707 12.9772 100.145 9.00286 104.273 8.49415L156.174 2.09818C160.356 1.58279 164.044 4.85202 164.034 9.06554L164.026 12.4116C164.02 14.9341 162.135 17.056 159.631 17.3603L104.536 24.0542C102.001 24.3622 99.6407 22.7111 99.0608 20.2244L98.3154 17.0279Z" fill="#DD6E00" fill-opacity="0.6"/>
<path d="M98.6019 17.4301C97.2518 13.2482 100.043 8.87282 104.404 8.33539L156.026 1.97378C160.404 1.43432 164.185 5.0285 163.868 9.42731L163.725 11.408C163.553 13.7895 161.722 15.7164 159.352 16.0084L104.587 22.7573C102.207 23.0507 99.9521 21.6121 99.215 19.3291L98.6019 17.4301Z" fill="url(#paint2_linear_414_27750)"/>
<ellipse cx="3.89238" cy="3.88523" rx="3.89238" ry="3.88523" transform="matrix(0.992492 -0.122309 0.122767 0.992436 126.185 10.666)" fill="white"/>
<path opacity="0.2" d="M133.06 23.8275C133.789 17.7254 139.798 13.7143 145.713 15.3827L148.499 16.1686C151.735 17.0812 154.294 19.5584 155.311 22.7618L169.848 68.5602C172.13 75.7507 165.927 82.786 158.505 81.4249L136.111 77.3185C130.92 76.3666 127.365 71.5454 127.991 66.3055L133.06 23.8275Z" fill="#9D031B" fill-opacity="0.5"/>
<rect width="51.0156" height="62.455" rx="8" transform="matrix(0.982425 0.18666 -0.187344 0.982294 136.389 14.3994)" fill="url(#paint3_linear_414_27750)"/>
<path opacity="0.2" d="M121.874 30.5608C121.925 24.9136 126.64 20.4293 132.284 20.6609L153.061 21.5134C158.351 21.7305 162.556 26.0322 162.651 31.3248L163.376 71.7162C163.476 77.2375 159.079 81.7935 153.556 81.8923L131.68 82.2839C126.051 82.3846 121.449 77.8237 121.499 72.1962L121.874 30.5608Z" fill="#9D031B" fill-opacity="0.5"/>
<path opacity="0.2" d="M126.007 29.8592C126.278 24.3545 130.954 20.1064 136.462 20.3615L163.636 21.6201C166.123 21.7353 168.477 22.7735 170.239 24.5318L171.683 25.9726L172.953 27.368C174.811 29.4071 175.743 32.1226 175.529 34.8722L172.431 74.7589C172.014 80.1351 167.407 84.2124 162.018 83.9751L133.47 82.7178C127.932 82.4739 123.649 77.7742 123.922 72.2395L126.007 29.8592Z" fill="#9D031B" fill-opacity="0.5"/>
<path d="M124.036 27.8674C124.253 23.4636 127.993 20.0651 132.399 20.2692L162.339 21.6559C164.329 21.7481 166.212 22.5787 167.622 23.9853L169.613 25.9726L171.563 28.1132C172.991 29.682 173.738 31.7541 173.638 33.8736L171.621 76.7147C171.412 81.1339 167.655 84.5454 163.235 84.3287L129.35 82.6674C124.936 82.451 121.534 78.6988 121.751 74.2866L124.036 27.8674Z" fill="#F5E2E2"/>
<path d="M173.773 33.4845C173.773 33.1506 173.355 30.9804 173.266 30.563L171.922 28.8937L170.352 27.4616L170.13 27.2243L166.993 24.3029C166.993 24.3029 165.937 23.718 165.201 23.4682C164.305 23.1637 162.902 21.7988 162.902 21.7988L164.574 31.8151L173.773 35.9885C173.923 34.4583 173.773 33.8183 173.773 33.4845Z" fill="#DD6E00" fill-opacity="0.1"/>
<path d="M173.773 33.0671C173.773 32.7332 173.773 30.563 172.937 29.7284L171.683 28.059L170.218 26.6269L170.01 26.3896L167.083 23.4682C167.083 23.4682 165.678 22.466 164.992 22.2162C164.156 21.9116 162.902 21.7988 162.902 21.7988L165.411 30.9804L173.773 35.5712L173.773 33.0671Z" fill="#FDB96C"/>
<rect width="27.6425" height="2.45455" transform="matrix(0.999607 0.0331771 -0.0332925 0.999288 135.029 39.3281)" fill="#DE181F"/>
<rect width="37.5571" height="2.45455" transform="matrix(0.999607 0.0331771 -0.0332925 0.999288 128.975 47.751)" fill="#C4C4C4"/>
<rect width="37.5571" height="2.45455" transform="matrix(0.999607 0.0331771 -0.0332925 0.999288 128.696 53.5098)" fill="#C4C4C4"/>
<defs>
<linearGradient id="paint0_linear_414_27750" x1="143.03" y1="34.9236" x2="143.03" y2="77.0776" gradientUnits="userSpaceOnUse">
<stop stop-color="#F78D8D"/>
<stop offset="1" stop-color="white"/>
</linearGradient>
<linearGradient id="paint1_linear_414_27750" x1="32.9813" y1="9.4448" x2="32.9813" y2="85.6779" gradientUnits="userSpaceOnUse">
<stop stop-color="#FFBF74"/>
<stop offset="1" stop-color="#F4973B"/>
</linearGradient>
<linearGradient id="paint2_linear_414_27750" x1="128.984" y1="-0.101893" x2="131.975" y2="21.317" gradientUnits="userSpaceOnUse">
<stop stop-color="#FFBF74"/>
<stop offset="1" stop-color="#F4973B"/>
</linearGradient>
<linearGradient id="paint3_linear_414_27750" x1="28.6306" y1="-73.6942" x2="25.179" y2="69.7956" gradientUnits="userSpaceOnUse">
<stop stop-color="#FFC59A"/>
<stop offset="0.774583" stop-color="#FF826E"/>
<stop offset="1" stop-color="#FF7062"/>
</linearGradient>
</defs>
</svg>
