<svg width="59" height="69" viewBox="0 0 59 69" fill="none" xmlns="http://www.w3.org/2000/svg">
<path d="M32.8133 67.2877L32.7492 67.2191L32.8133 67.2877C33.5615 66.5887 34.5007 65.7625 35.5901 64.8043L35.5956 64.7994L35.5979 64.7974C39.5238 61.3439 45.1471 56.3972 49.7888 50.3792C54.4311 44.3606 58.1 37.2597 58.1 29.4983C58.0999 21.8299 55.1135 14.6198 49.6909 9.19711C44.2685 3.77455 37.0583 0.788031 29.3897 0.788031C21.7212 0.788031 14.5108 3.77455 9.08838 9.19711C3.66582 14.6198 0.679297 21.8299 0.679297 29.4983C0.679297 37.2597 4.34823 44.3606 8.99045 50.3792C13.6324 56.3976 19.2561 61.3445 23.1819 64.7979L23.1837 64.7994C24.2754 65.7597 25.2165 66.5877 25.966 67.2877C26.9261 68.1845 28.1582 68.6328 29.3896 68.6328C30.6212 68.6328 31.8531 68.1845 32.8133 67.2877ZM32.8462 61.6742C31.7314 62.6549 30.7671 63.5032 29.9718 64.246C29.6454 64.5506 29.1338 64.5508 28.8073 64.2461C28.0136 63.5044 27.0513 62.6579 25.9391 61.6796L25.9328 61.6741C22.2408 58.4264 16.9662 53.7862 12.6142 48.252C8.26128 42.7166 4.84155 36.2993 4.84155 29.4984C4.84155 15.9628 15.8537 4.95068 29.3894 4.95068C42.9251 4.95068 53.9372 15.9628 53.9372 29.4984C53.9373 36.2993 50.5176 42.7166 46.1647 48.252C41.8128 53.7862 36.5382 58.4264 32.8462 61.6742Z" fill="#727272" stroke="#727272" stroke-width="0.2"/>
<path d="M29.3935 15.7134C22.3861 15.7134 16.6853 21.414 16.6853 28.4215C16.6853 35.429 22.3861 41.1297 29.3935 41.1297C36.401 41.1297 42.1017 35.429 42.1017 28.4215C42.1017 21.414 36.401 15.7134 29.3935 15.7134ZM29.3935 36.967C24.6815 36.967 20.8478 33.1333 20.8478 28.4214C20.8478 23.7095 24.6815 19.8758 29.3935 19.8758C34.1056 19.8758 37.9392 23.7095 37.9392 28.4214C37.9392 33.1333 34.1056 36.967 29.3935 36.967Z" fill="#727272" stroke="#727272" stroke-width="0.2"/>
</svg>
