<svg width="24" height="24" viewBox="0 0 24 24" fill="none" xmlns="http://www.w3.org/2000/svg">
<path d="M22.2401 16.5494L14.7662 3.60392C13.5454 1.46536 10.4583 1.46536 9.24192 3.60392L1.76357 16.5494C0.542789 18.688 2.06217 21.3447 4.52568 21.3447H19.4517C21.9152 21.3447 23.4609 18.6616 22.2401 16.5494ZM11.9996 18.4728C11.3497 18.4728 10.8096 17.9327 10.8096 17.2828C10.8096 16.6329 11.3497 16.0927 11.9996 16.0927C12.6496 16.0927 13.1897 16.6329 13.1633 17.3135C13.1941 17.9327 12.6232 18.4728 11.9996 18.4728ZM13.0843 10.7793C13.0316 11.7014 12.9745 12.6192 12.9218 13.5414C12.8955 13.84 12.8955 14.1123 12.8955 14.4065C12.8691 14.8939 12.4871 15.2716 11.9996 15.2716C11.5122 15.2716 11.1346 14.9203 11.1038 14.4328C11.0248 12.9969 10.9413 11.5873 10.8623 10.1513C10.836 9.77367 10.8096 9.39163 10.7789 9.01398C10.7789 8.39042 11.1302 7.87664 11.701 7.71416C12.2719 7.57803 12.8384 7.85029 13.0843 8.39042C13.1677 8.57924 13.1941 8.76807 13.1941 8.98763C13.1677 9.58924 13.1106 10.1865 13.0843 10.7793Z" fill="url(#paint0_linear)"/>
<defs>
<linearGradient id="paint0_linear" x1="3.35992" y1="-0.243985" x2="18.1052" y2="22.4804" gradientUnits="userSpaceOnUse">
<stop stop-color="#FAE340"/>
<stop offset="1" stop-color="#E57C30"/>
</linearGradient>
</defs>
</svg>
