<svg width="33" height="33" viewBox="0 0 33 33" fill="none" xmlns="http://www.w3.org/2000/svg">
<path d="M19.3242 3.26123H8.4362C8.07951 3.2614 7.72636 3.33201 7.39702 3.46899C7.06767 3.60598 6.76862 3.80665 6.51702 4.05949C6.26542 4.31233 6.06622 4.61236 5.93086 4.94237C5.79549 5.27238 5.72662 5.62587 5.7282 5.98256L5.71487 27.7572C5.71329 28.1139 5.78216 28.4674 5.91752 28.7974C6.05289 29.1274 6.25209 29.4275 6.50369 29.6803C6.75529 29.9331 7.05434 30.1338 7.38368 30.2708C7.71303 30.4078 8.06618 30.4784 8.42287 30.4786H24.7682C25.1256 30.4786 25.4794 30.4082 25.8096 30.2714C26.1398 30.1347 26.4398 29.9342 26.6925 29.6815C26.9452 29.4288 27.1456 29.1288 27.2824 28.7986C27.4191 28.4685 27.4895 28.1146 27.4895 27.7572V11.4266L19.3242 3.26123ZM22.0455 24.4199H11.1589V22.3146H22.0469L22.0455 24.4199ZM22.0455 19.5026H11.1589V17.3426H22.0469L22.0455 19.5026ZM17.9629 12.7866V5.30256L25.4482 12.7879L17.9629 12.7866Z" fill="#DE181F"/>
</svg>
