<svg width="121" height="120" viewBox="0 0 121 120" fill="none" xmlns="http://www.w3.org/2000/svg">
<path d="M60.5 120C93.6371 120 120.5 93.1371 120.5 60C120.5 26.8629 93.6371 0 60.5 0C27.3629 0 0.5 26.8629 0.5 60C0.5 93.1371 27.3629 120 60.5 120Z" fill="#F5F3F2"/>
<g clip-path="url(#clip0_53_1298)">
<path d="M42.3817 28.0091C41.1631 23.4613 43.8725 18.7686 48.4202 17.55C52.968 16.3314 57.6608 19.0408 58.8794 23.5886C60.0979 28.1363 57.3886 32.8291 52.8408 34.0477C48.293 35.2663 43.602 32.5633 42.3817 28.0091ZM47.1796 26.7235C47.6901 28.6286 49.6501 29.7602 51.5552 29.2498C53.4602 28.7393 54.5919 26.7792 54.0814 24.8742C53.571 22.9691 51.6109 21.8375 49.7058 22.3479C47.8008 22.8584 46.6709 24.8249 47.1796 26.7235Z" fill="#C9C9C9"/>
<path d="M56.6044 19.716C56.6044 19.716 57.3601 21.0741 55.8863 22.3215C54.4107 23.5625 53.1382 23.2778 53.1382 23.2778C53.5772 23.7102 53.9132 24.2458 54.0833 24.8808C54.5938 26.7858 53.4621 28.7459 51.5571 29.2564C49.652 29.7668 47.6919 28.6352 47.1815 26.7301C47.1299 26.5377 46.9806 25.8008 47.1269 25.1154C44.6305 27.2418 42.145 26.6634 42.145 26.6634C42.1896 27.1121 42.2632 27.5667 42.3836 28.0157C43.6021 32.5635 48.2949 35.2729 52.8427 34.0543C57.3905 32.8357 60.0998 28.1429 58.8795 23.5888C58.4705 22.0621 57.6639 20.7452 56.6044 19.716Z" fill="#B5B5B5"/>
<path d="M28.4677 86.0489C31.6673 80.6198 33.9891 78.4577 33.4355 71.9786C32.882 65.4996 28.5061 52.7092 31.0822 42.8753C33.4276 33.8733 40.7076 28.4577 48.6549 26.3282C48.8474 26.2766 49.0432 26.2379 49.2357 26.1863C49.4264 26.1284 49.6171 26.0704 49.8095 26.0188C57.7569 23.8893 66.7694 24.9394 73.2998 31.5563C80.4431 38.7927 83.055 52.0557 85.8134 57.9371C88.5735 63.825 91.6654 64.5365 97.1508 67.6384C99.5171 68.9775 102.567 71.3021 103.079 73.1862C103.59 75.0703 102.812 76.0145 100.78 77.5902C95.0319 82.0522 87.0806 87.0152 66.978 92.4017C46.8754 97.7882 37.508 97.4657 30.299 96.4755C27.7513 96.127 26.6069 95.7048 26.1063 93.8109C25.6092 91.9298 27.088 88.3917 28.4677 86.0489Z" fill="#DADADA"/>
<path d="M96.5081 75.0915C95.7468 72.2499 80.8578 73.7713 63.2504 78.4892C45.643 83.2071 31.9881 89.334 32.7495 92.1756C33.5109 95.0171 48.692 94.5862 66.2994 89.8683C83.9068 85.1504 97.2695 77.933 96.5081 75.0915Z" fill="#B5B5B5"/>
<path d="M72.8397 37.7161C73.3194 38.5569 73.7606 39.4081 74.1581 40.2503C76.1862 44.5605 77.283 49.244 78.8775 53.7323C81.0162 59.7385 82.9729 62.6792 86.2287 64.9005C86.6572 65.1913 86.4801 65.8644 85.9655 65.9197C82.5135 66.3016 79.7158 66.5081 76.1456 65.3198C70.8178 63.5505 68.1978 58.237 66.8149 53.204C64.7526 45.7129 62.9464 38.4076 61.6109 35.8093C59.7539 32.1888 58.4359 30.3489 56.6785 28.8192C53.9975 26.4851 62.5033 28.4409 63.9062 29.0069C67.8166 30.5922 70.7419 34.0433 72.8397 37.7161Z" fill="#C9C9C9"/>
<path d="M35.1307 58.4964C33.7509 53.655 32.442 48.6158 33.1829 43.6324C33.6289 40.6529 34.9536 37.7199 37.0675 35.5516C38.7286 33.8484 42.3968 31.4768 44.5533 33.752C44.9846 34.2071 45.2668 34.7983 45.4493 35.4025C46.0695 37.5119 45.4922 39.7704 44.9125 41.8919C43.2013 48.1803 43.5309 54.465 43.4724 60.9431C43.4529 63.6157 43.2457 66.3319 42.3149 68.8362C41.6753 70.5544 37.3351 77.2173 37.401 72.2291C37.4568 67.4086 36.4525 63.1472 35.1307 58.4964Z" fill="white"/>
<path d="M70.1909 81.0705C69.8889 79.9689 69.1222 79.4938 67.6223 79.3869C64.5114 79.1686 60.9931 80.3038 59.2139 81.9768C57.3459 83.7286 60.5938 89.795 65.8985 88.3737C71.2032 86.9523 70.4225 81.9091 70.1909 81.0705Z" fill="#DADADA"/>
<path d="M42.0531 78.2772C36.686 80.774 33.1788 84.0031 31.8789 86.2076C30.8466 87.9485 31.1354 89.0262 33.2977 87.2437C34.9246 85.9003 40.4037 82.5897 45.4665 80.6762C54.1611 77.384 59.6722 75.8867 60.5946 75.6602C62.7555 75.1293 62.4917 73.4263 57.9927 74.0061C53.4955 74.5924 47.4219 75.7867 42.0531 78.2772ZM63.2929 87.7313C64.1744 88.0451 65.2293 88.0306 65.9703 87.4608C66.7114 86.891 66.9666 85.6882 66.3412 84.9964C66.0967 84.7251 65.7572 84.5617 65.423 84.4175C64.4998 84.0255 63.5225 83.7649 62.5283 83.6463C62.1377 83.5997 61.7313 83.5711 61.3533 83.6999C60.98 83.8205 60.6356 84.1259 60.5826 84.5182C60.3343 86.1316 62.0031 87.2794 63.2929 87.7313Z" fill="white"/>
</g>
<defs>
<clipPath id="clip0_53_1298">
<rect width="85" height="85" fill="white" transform="translate(21 14.5)"/>
</clipPath>
</defs>
</svg>
