<svg width="33" height="33" viewBox="0 0 33 33" fill="none" xmlns="http://www.w3.org/2000/svg">
<mask id="mask0_105_1991" style="mask-type:alpha" maskUnits="userSpaceOnUse" x="0" y="0" width="33" height="33">
<rect x="0.5" y="0.753418" width="31.9999" height="31.9999" fill="#C4C4C4"/>
</mask>
<g mask="url(#mask0_105_1991)">
<path d="M20.9247 19.0666L20.5348 18.9672L17.918 21.656C17.2677 22.3242 16.1984 22.3369 15.5324 21.6845L12.7588 18.9672L12.422 19.0514C10.9014 19.4807 9.56673 20.4036 8.62833 21.6748C7.68994 22.946 7.20111 24.4933 7.23885 26.0729C7.23885 28.0434 11.4494 29.6417 16.6418 29.6417C21.8342 29.6417 26.0447 28.0417 26.0447 26.0729C26.0818 24.5043 25.6001 22.9672 24.6744 21.7004C23.7486 20.4335 22.4305 19.5077 20.9247 19.0666Z" fill="#FFC76F" stroke="#985801" stroke-width="1.01052"/>
<path d="M16.4302 17.589C19.0651 17.589 21.2083 15.013 21.2083 12.5852C21.1551 11.369 20.6227 10.2233 19.7274 9.39835C18.8321 8.57343 17.6467 8.13639 16.4302 8.18272C15.2137 8.13639 14.0283 8.57343 13.133 9.39835C12.2377 10.2233 11.7053 11.369 11.6521 12.5852C11.6529 15.0122 13.7986 17.589 16.4302 17.589Z" fill="#F8E0CA" stroke="#985801" stroke-width="1.01052"/>
<path d="M21.8821 11.7997C21.9922 11.6559 22.0514 11.4797 22.0505 11.2986V6.98958C22.052 6.79122 21.9965 6.5966 21.8907 6.42883C21.7848 6.26105 21.6331 6.12716 21.4534 6.04305L17.0964 4.20642C16.8997 4.14654 16.6948 4.11812 16.4892 4.12221C16.2896 4.11955 16.0907 4.14796 15.8998 4.20642L11.3406 6.0481C11.1608 6.13072 11.0087 6.26353 10.9027 6.43056C10.7966 6.59759 10.741 6.79172 10.7427 6.98958V11.2986C10.7418 11.4797 10.801 11.6559 10.9111 11.7997L16.421 10.651L21.8821 11.7997Z" fill="url(#paint0_linear_105_1991)"/>
<path d="M15.8108 5.61688L16.8925 5.63957L16.9544 9.59606L15.8726 9.57337L15.8108 5.61688Z" fill="white"/>
<path d="M18.4128 6.95734L18.4306 8.09625L14.3505 8.02577L14.3328 6.88686L18.4128 6.95734Z" fill="white"/>
</g>
<defs>
<linearGradient id="paint0_linear_105_1991" x1="16.3966" y1="4.12183" x2="16.3966" y2="11.7997" gradientUnits="userSpaceOnUse">
<stop stop-color="#E1590A"/>
<stop offset="1" stop-color="#C23102"/>
</linearGradient>
</defs>
</svg>
