<svg width="32" height="32" viewBox="0 0 32 32" fill="none" xmlns="http://www.w3.org/2000/svg">
<mask id="mask0_281_5831" style="mask-type:alpha" maskUnits="userSpaceOnUse" x="0" y="0" width="32" height="32">
<rect width="31.9999" height="31.9999" fill="#C4C4C4"/>
</mask>
<g mask="url(#mask0_281_5831)">
<path d="M23.2741 10.0004V9.97685C23.2623 9.36717 23.2514 8.79117 23.2514 8.23791C23.2512 7.83418 23.0907 7.44705 22.8052 7.16157C22.5197 6.87609 22.1326 6.71561 21.7289 6.71539C20.3057 6.78496 18.8833 6.56233 17.5494 6.06122C16.2156 5.56012 14.9984 4.79115 13.9731 3.80171C13.6898 3.52397 13.3088 3.36841 12.912 3.36841C12.5153 3.36841 12.1343 3.52397 11.851 3.80171C10.8257 4.79127 9.60864 5.56032 8.27474 6.06144C6.94085 6.56255 5.51844 6.78511 4.09523 6.71539C3.69179 6.71583 3.305 6.87629 3.01972 7.16157C2.73445 7.44684 2.57399 7.83363 2.57354 8.23707C2.57354 8.80296 2.5626 9.38485 2.55081 10.0004C2.49607 12.8754 2.42786 16.4535 3.62786 19.7006C4.25909 21.4419 5.27455 23.0187 6.5988 24.3137C8.26137 25.8669 10.245 27.0358 12.4093 27.7377C12.5696 27.7934 12.7381 27.8219 12.9078 27.8219C13.0773 27.8219 13.2455 27.7934 13.4055 27.7377C15.5698 27.0358 17.5534 25.8669 19.216 24.3137C20.5444 23.0211 21.5645 21.4458 22.2005 19.7048C23.4013 16.4568 23.3331 12.8787 23.2783 10.0038L23.2741 10.0004ZM20.8531 19.2046C19.5899 22.6295 16.9996 24.9781 12.9373 26.3844C12.9284 26.3877 12.919 26.3894 12.9095 26.3895C12.8995 26.3894 12.8895 26.3877 12.8801 26.3844C8.82279 24.9781 6.23501 22.6295 4.96849 19.2046C3.86196 16.2101 3.92428 12.9259 3.97986 10.0257C3.99165 9.40338 4.00259 8.81475 4.00259 8.23538C4.00259 8.21171 4.012 8.189 4.02874 8.17226C4.04548 8.15552 4.06818 8.14612 4.09186 8.14612C5.70142 8.22167 7.30937 7.96629 8.81631 7.39575C10.3233 6.82521 11.6972 5.95166 12.8531 4.82907C12.8698 4.81285 12.8921 4.80379 12.9154 4.80381C12.9387 4.80387 12.961 4.81293 12.9777 4.82907C14.133 5.95173 15.5063 6.82553 17.0126 7.3965C18.519 7.96746 20.1264 8.22345 21.7356 8.14865C21.7473 8.14865 21.7589 8.15095 21.7698 8.15544C21.7806 8.15993 21.7904 8.1665 21.7987 8.17479C21.807 8.18308 21.8136 8.19292 21.8181 8.20375C21.8226 8.21458 21.8249 8.22619 21.8249 8.23791C21.8249 8.80549 21.8358 9.38822 21.8476 10.0063V10.0299C21.8602 10.6766 21.8729 11.3427 21.8729 12.0206C21.9593 14.4567 21.6141 16.8889 20.8531 19.2046Z" fill="#985801"/>
<path d="M22.1432 10.258C22.1314 9.66259 22.1213 9.10091 22.1213 8.55775C22.1215 8.45642 22.1016 8.35607 22.0629 8.26243C22.0241 8.16879 21.9673 8.08372 21.8957 8.01207C21.824 7.94042 21.7389 7.8836 21.6453 7.84488C21.5517 7.80615 21.4513 7.78627 21.35 7.78638C19.8992 7.85525 18.4496 7.62612 17.0908 7.11312C15.732 6.60012 14.4927 5.81413 13.4494 4.80365C13.3055 4.66373 13.1128 4.58545 12.9121 4.58545C12.7114 4.58545 12.5187 4.66373 12.3748 4.80365C11.3313 5.81361 10.0919 6.59903 8.73304 7.11145C7.37421 7.62387 5.92479 7.85243 4.47422 7.78302C4.26964 7.78302 4.07344 7.86428 3.92878 8.00894C3.78412 8.1536 3.70285 8.3498 3.70285 8.55438C3.70285 9.09754 3.69274 9.66007 3.68095 10.2546C3.57569 15.7889 3.42833 23.3687 12.6586 26.5678C12.7399 26.5959 12.8253 26.6101 12.9113 26.6099C12.9972 26.6102 13.0826 26.596 13.1639 26.5678C22.3933 23.3678 22.2485 15.7889 22.1424 10.2546L22.1432 10.258Z" fill="#FFC76F"/>
<path d="M16.8866 11.2243C16.935 11.1582 16.9969 11.1032 17.0683 11.0629C17.1396 11.0226 17.2188 10.998 17.3004 10.9908C17.382 10.9835 17.4642 10.9938 17.5416 11.0208C17.6189 11.0479 17.6896 11.0911 17.7489 11.1477C17.8737 11.2692 17.9497 11.4323 17.9626 11.606C17.9755 11.7798 17.9243 11.9522 17.8188 12.0908L12.6179 18.7839C12.5687 18.8508 12.5057 18.9064 12.433 18.9467C12.3604 18.987 12.2798 19.0111 12.197 19.0174C12.1142 19.0237 12.0309 19.0121 11.953 18.9833C11.8751 18.9544 11.8043 18.9091 11.7455 18.8504L8.99184 16.1734C8.86958 16.0492 8.79695 15.8845 8.78764 15.7105C8.77833 15.5365 8.83299 15.365 8.94132 15.2285C8.99131 15.1636 9.05459 15.1101 9.12691 15.0715C9.19924 15.033 9.27895 15.0104 9.36073 15.0051C9.44251 14.9998 9.52447 15.0121 9.60114 15.041C9.67781 15.07 9.74742 15.115 9.80532 15.1729L12.0908 17.3953L16.8866 11.2243Z" fill="url(#paint0_linear_281_5831)"/>
<path d="M30.0547 20.0027C30.0547 19.985 30.0547 19.9682 30.0547 19.9505C30.0828 18.977 29.7234 18.0322 29.0554 17.3235C28.3873 16.6149 27.4653 16.2004 26.4918 16.1711C25.7434 16.1967 25.0176 16.434 24.3987 16.8555C23.7798 17.2771 23.2932 17.8656 22.9954 18.5526C22.6976 17.8656 22.2109 17.2771 21.592 16.8555C20.9731 16.434 20.2474 16.1967 19.499 16.1711C18.526 16.2004 17.6043 16.6145 16.9364 17.3226C16.2684 18.0307 15.9086 18.9749 15.936 19.948C15.936 19.9682 15.936 19.9884 15.936 20.0086C15.9423 20.4217 16.0137 20.8312 16.1474 21.2221C16.1609 21.2617 16.1718 21.3063 16.1861 21.3408C16.9036 23.6987 19.8156 26.4355 21.6059 27.7863C21.9179 28.0267 22.2432 28.2494 22.5802 28.4532C22.6619 28.5023 22.7462 28.5467 22.8329 28.5863C22.8802 28.6162 22.9351 28.6321 22.9912 28.6321C23.0472 28.6321 23.1021 28.6162 23.1495 28.5863C23.2362 28.5467 23.3205 28.5023 23.4021 28.4532C23.7391 28.2494 24.0644 28.0267 24.3764 27.7863C26.1668 26.4389 29.0788 23.7021 29.7962 21.3408C29.8105 21.3021 29.8215 21.2608 29.835 21.2221C29.9722 20.8298 30.0464 20.4182 30.0547 20.0027Z" fill="url(#paint1_linear_281_5831)" stroke="white" stroke-width="1.01052"/>
</g>
<defs>
<linearGradient id="paint0_linear_281_5831" x1="13.3756" y1="10.9885" x2="13.3756" y2="19.0191" gradientUnits="userSpaceOnUse">
<stop stop-color="#D95E1D"/>
<stop offset="1" stop-color="#BB3301"/>
</linearGradient>
<linearGradient id="paint1_linear_281_5831" x1="22.9954" y1="16.1711" x2="22.9954" y2="28.6321" gradientUnits="userSpaceOnUse">
<stop stop-color="#E1590A"/>
<stop offset="1" stop-color="#C23102"/>
</linearGradient>
</defs>
</svg>
