<svg width="32" height="32" viewBox="0 0 32 32" fill="none" xmlns="http://www.w3.org/2000/svg">
<path d="M31.6577 7.23856C31.6565 7.19305 31.6554 7.14725 31.6542 7.10174C31.6522 7.0571 31.651 7.01274 31.649 6.96809C31.649 6.96809 31.6499 6.96492 31.649 6.96262C31.6435 6.87246 31.6381 6.78345 31.6306 6.6956C31.6196 6.56079 31.6044 6.42743 31.586 6.29493C31.5805 6.25028 31.5739 6.20592 31.5664 6.16243C31.5589 6.11893 31.5523 6.07457 31.5448 6.03108C31.5307 5.94294 31.5131 5.85624 31.4947 5.7704C31.4762 5.68341 31.4567 5.59786 31.4351 5.51202C31.4241 5.46968 31.4135 5.42734 31.4025 5.385C31.3916 5.34035 31.3786 5.29599 31.3657 5.2525C31.3657 5.24817 31.3645 5.24385 31.3634 5.23953C31.1681 4.55082 30.5787 2.90695 29.3289 1.72452C29.3237 1.71905 29.3194 1.71358 29.3116 1.7081C29.2857 1.68103 29.2595 1.65482 29.2324 1.62889C29.1575 1.55602 29.0784 1.4866 28.9969 1.4192C28.9643 1.39212 28.9306 1.36504 28.8969 1.33998C28.8883 1.33249 28.8797 1.32472 28.8699 1.31723C28.8382 1.29332 28.8056 1.26941 28.7731 1.24551C28.7374 1.21958 28.7005 1.19337 28.6637 1.16745C28.63 1.1444 28.5963 1.12165 28.5626 1.10004C28.541 1.08593 28.5191 1.07066 28.4964 1.0577C28.4529 1.02832 28.4085 1.00124 28.3628 0.975031C28.3334 0.957749 28.3052 0.94133 28.2761 0.9252C28.2314 0.898987 28.1871 0.875368 28.1413 0.850308C28.1099 0.832737 28.0774 0.816607 28.0448 0.800188C28.01 0.782905 27.9752 0.764471 27.9394 0.748052C27.7909 0.675465 27.6377 0.609215 27.4801 0.547285C27.4433 0.532019 27.4053 0.517904 27.3673 0.50379C27.339 0.493133 27.31 0.483339 27.2814 0.473545C27.2457 0.460295 27.2109 0.447333 27.174 0.435524C27.0741 0.401822 26.9733 0.369273 26.8702 0.338741C26.8095 0.321458 26.7476 0.304175 26.6845 0.287757C26.6292 0.273642 26.5739 0.259528 26.5175 0.245414C26.4607 0.232452 26.4043 0.21949 26.3479 0.20624C26.2341 0.181468 26.1189 0.158425 26.0029 0.137973C25.8865 0.118386 25.7693 0.0999515 25.6521 0.083533C25.5349 0.0685546 25.4166 0.0541524 25.2971 0.0423426C25.2363 0.0368697 25.1756 0.0313969 25.1148 0.0270762C25.0552 0.0227555 24.9941 0.0184349 24.9334 0.0152664C24.8726 0.0118098 24.813 0.00864134 24.7511 0.00662503C24.6339 0.00230436 24.5167 0 24.3995 0H24.3733C24.2388 0 24.104 0.00432067 23.9696 0.00979352C23.937 0.0109457 23.9042 0.012962 23.8716 0.0141142C23.736 0.0216034 23.5992 0.0305327 23.4624 0.0434947C23.4429 0.0455111 23.4233 0.0478154 23.404 0.0498317C23.2747 0.0630818 23.1454 0.0780601 23.0164 0.096783C22.9957 0.0987993 22.9749 0.101104 22.9556 0.104272C22.8177 0.125011 22.6798 0.147767 22.543 0.173691C22.5159 0.179164 22.4877 0.184637 22.4595 0.190109C22.3215 0.218338 22.1824 0.247718 22.0457 0.281132C22.0457 0.281132 22.0425 0.282284 22.0405 0.282284C21.9644 0.300719 21.8896 0.323474 21.8147 0.344213C21.5823 0.407295 21.3522 0.477866 21.1273 0.558231C20.9842 0.610367 20.842 0.665671 20.7017 0.724144H20.7009C20.5367 0.792699 20.376 0.867591 20.2176 0.947955H20.2165C20.0593 1.02717 19.9049 1.11185 19.754 1.20201C19.716 1.2239 19.678 1.24666 19.64 1.27057C19.2676 1.50071 18.9192 1.76341 18.6033 2.05981H18.6022C18.5394 2.11972 18.4775 2.1805 18.4167 2.24128C17.9617 2.70272 17.583 3.2382 17.306 3.84943C17.141 3.48131 16.9294 3.15236 16.6785 2.85913C15.1641 1.08362 12.2407 0.654726 9.59833 1.27604C8.08824 1.62889 6.67059 2.32481 5.65983 3.30762C5.50346 3.4597 5.35602 3.61928 5.22039 3.78548C5.03897 3.97329 4.86965 4.16541 4.71012 4.36301C4.6937 4.38375 4.67758 4.40334 4.66116 4.42379V4.42494C4.57333 4.53354 4.48953 4.64443 4.41034 4.75504C4.36916 4.8115 4.33 4.86796 4.29199 4.92441C4.17594 5.09378 4.06738 5.26546 3.9663 5.43915C1.67697 9.38104 3.02206 14.6085 7.31534 18.8923C7.38388 18.9617 7.45443 19.0302 7.52498 19.0985C9.0057 20.5341 10.8207 21.8577 12.9454 22.9851L14.1804 23.5986C14.4503 23.5197 16.24 22.9986 17.0869 22.619C20.6378 21.2084 23.5189 19.4992 25.7521 17.6522C25.9464 17.4915 26.1353 17.3308 26.3196 17.1678C26.6888 16.842 27.0384 16.513 27.3684 16.1809C27.6161 15.932 27.8525 15.6823 28.0774 15.4306C28.2283 15.2632 28.3749 15.0938 28.516 14.9245C28.7265 14.6716 28.9275 14.4172 29.1164 14.1632C29.1803 14.0773 29.2422 13.9926 29.303 13.9071C29.4245 13.7366 29.5417 13.5672 29.6537 13.3967C29.9336 12.9698 30.1844 12.542 30.4059 12.1143C30.4949 11.9438 30.5775 11.7744 30.6567 11.6039C30.8542 11.1782 31.0224 10.7536 31.1603 10.3322C31.5111 9.27245 31.6749 8.23318 31.6577 7.23856Z" fill="url(#paint0_linear_281_5809)"/>
<path d="M15.6744 21.4103C7.23169 16.8754 3.16898 10.2011 5.49679 4.78574C6.23126 3.1304 8.47161 2.47081 9.94329 2.33254C9.99103 2.3284 10.0379 2.32426 10.0848 2.32122C12.5156 2.14653 15.2542 2.8914 16.3038 5.53917C16.6605 6.44025 16.6199 6.8407 16.6199 6.8407L18.7116 6.03235C19.4563 0.741782 27.0357 -0.285146 29.505 3.05147C30.357 4.36956 30.6774 5.55794 30.7615 6.53795C31.2253 11.9243 25.1501 17.8855 15.6744 21.4103Z" fill="white"/>
<mask id="path-3-outside-1_281_5809" maskUnits="userSpaceOnUse" x="-0.0854492" y="13.2397" width="23" height="19" fill="black">
<rect fill="white" x="-0.0854492" y="13.2397" width="23" height="19"/>
<path d="M19.1001 14.2397C18.7571 14.2397 18.4218 14.3415 18.1366 14.532C17.8515 14.7226 17.6292 14.9934 17.4979 15.3103C17.3667 15.6271 17.3323 15.9758 17.3993 16.3122C17.4662 16.6486 17.6313 16.9576 17.8739 17.2001C18.1164 17.4426 18.4254 17.6078 18.7618 17.6747C19.0982 17.7416 19.4468 17.7073 19.7637 17.576C20.0806 17.4448 20.3514 17.2225 20.542 16.9373C20.7325 16.6521 20.8342 16.3169 20.8342 15.9739C20.8337 15.5141 20.6508 15.0734 20.3257 14.7483C20.0006 14.4232 19.5598 14.2403 19.1001 14.2397ZM14.043 25.7635L14.0241 25.7129C13.9086 25.4064 13.7317 25.1268 13.5041 24.8912C13.2765 24.6557 13.0032 24.4692 12.7008 24.3433L11.6789 23.9219C11.664 23.9158 11.6507 23.9066 11.6398 23.8947C11.629 23.8829 11.621 23.8687 11.6163 23.8534C11.6117 23.838 11.6105 23.8218 11.613 23.806C11.6154 23.7901 11.6214 23.775 11.6304 23.7617L13.5437 20.8666C13.8451 20.4082 13.9927 19.8658 13.9651 19.3179C13.9661 19.302 13.9704 19.2865 13.9776 19.2724C13.9849 19.2583 13.9949 19.2458 14.0072 19.2357C14.0334 19.2147 14.0664 19.2041 14.0999 19.2062C14.1526 19.2062 14.2053 19.2062 14.2601 19.2062C14.836 19.2053 15.3936 19.0039 15.8373 18.6368C16.281 18.2696 16.583 17.7595 16.6917 17.1939C16.6947 17.1777 16.7014 17.1625 16.7113 17.1494C16.7211 17.1362 16.7339 17.1255 16.7486 17.118C16.7633 17.1108 16.7795 17.107 16.796 17.107C16.8124 17.107 16.8286 17.1108 16.8434 17.118C16.9206 17.1543 16.9952 17.1958 17.0667 17.2424C17.4585 17.502 17.7388 17.8989 17.8527 18.3549C17.8608 18.3706 17.8678 18.3868 17.8737 18.4034L18.7166 20.9319L20.8469 20.0891C21.0474 20.0335 21.2615 20.0542 21.4477 20.147C21.634 20.2399 21.7793 20.3984 21.8557 20.592C21.9321 20.7856 21.9342 21.0006 21.8615 21.1956C21.7888 21.3907 21.6466 21.5519 21.4621 21.6483L18.5122 22.8135C18.4069 22.8559 18.294 22.8765 18.1805 22.8742C18.067 22.8718 17.9552 22.8466 17.8517 22.7999C17.7481 22.7533 17.6551 22.6862 17.5782 22.6027C17.5012 22.5193 17.4419 22.4211 17.4039 22.3142L16.9298 20.8771L14.9238 23.9092L17.1089 24.8069C17.3165 24.8935 17.5042 25.0218 17.6604 25.1838C17.8166 25.3458 17.938 25.538 18.017 25.7487L19.3845 29.3961C19.4538 29.5284 19.4943 29.6738 19.5031 29.8229C19.5119 29.9719 19.489 30.1211 19.4358 30.2606C19.3826 30.4001 19.3004 30.5267 19.1945 30.632C19.0887 30.7374 18.9617 30.819 18.8219 30.8715C18.6821 30.924 18.5328 30.9462 18.3838 30.9366C18.2348 30.927 18.0896 30.8859 17.9577 30.8159C17.8258 30.746 17.7103 30.6487 17.6188 30.5308C17.5273 30.4128 17.4619 30.2767 17.427 30.1315L16.1291 26.6674L14.102 25.8246C14.0882 25.8192 14.0756 25.811 14.0651 25.8004C14.0545 25.7899 14.0463 25.7773 14.0409 25.7635H14.043ZM2.1927 25.1798L5.0099 25.5317L6.51226 23.5384L9.0766 19.6655C7.93639 19.8378 6.7758 19.8243 5.63992 19.6255L5.13422 19.537C5.02699 19.5185 4.92447 19.479 4.8325 19.4208C4.74053 19.3627 4.66092 19.287 4.59821 19.198C4.5355 19.1091 4.49092 19.0087 4.46702 18.9025C4.44311 18.7964 4.44035 18.6865 4.45889 18.5793C4.47743 18.4721 4.51691 18.3696 4.57507 18.2776C4.63323 18.1856 4.70894 18.106 4.79786 18.0433C4.88679 17.9806 4.9872 17.936 5.09336 17.9121C5.19952 17.8882 5.30934 17.8855 5.41657 17.904L5.79374 17.9714C7.00777 18.1869 8.25027 18.1869 9.46431 17.9714L10.9856 17.6785H11.0889L11.1816 17.6617H11.2153C11.6163 17.627 12.0172 17.7287 12.3531 17.9503C12.7464 18.2114 13.02 18.6178 13.114 19.0804C13.208 19.5429 13.1147 20.0239 12.8546 20.4178L10.3135 24.2506L12.3826 25.1082C12.5801 25.1906 12.7587 25.3125 12.9072 25.4665C13.0558 25.6206 13.1713 25.8034 13.2465 26.0037L14.5424 29.4614C14.5951 29.5855 14.6222 29.719 14.622 29.8538C14.6217 29.9887 14.5942 30.122 14.541 30.2459C14.4878 30.3698 14.4101 30.4817 14.3125 30.5748C14.215 30.6678 14.0996 30.7402 13.9733 30.7874C13.847 30.8347 13.7125 30.8559 13.5778 30.8498C13.4431 30.8436 13.3111 30.8103 13.1896 30.7518C13.0681 30.6932 12.9598 30.6107 12.8711 30.5092C12.7824 30.4077 12.7151 30.2892 12.6734 30.161L11.4429 26.8802L7.67116 25.3168L6.45115 26.9371C6.28331 27.1574 6.0603 27.3296 5.80466 27.4361C5.54901 27.5427 5.26977 27.5799 4.99515 27.544L1.92721 27.1605C1.79741 27.1431 1.67231 27.1003 1.55905 27.0346C1.4458 26.9688 1.34661 26.8814 1.26716 26.7773C1.18771 26.6732 1.12956 26.5544 1.09602 26.4278C1.06249 26.3013 1.05423 26.1693 1.07173 26.0395C1.10791 25.7776 1.24587 25.5404 1.45571 25.3795C1.66554 25.2186 1.93033 25.1468 2.1927 25.1798ZM14.2664 18.3865C13.9401 18.3865 13.6211 18.2898 13.3498 18.1085C13.0785 17.9272 12.867 17.6695 12.7421 17.368C12.6172 17.0666 12.5846 16.7348 12.6482 16.4148C12.7119 16.0947 12.869 15.8008 13.0998 15.57C13.3305 15.3393 13.6245 15.1822 13.9445 15.1185C14.2646 15.0548 14.5963 15.0875 14.8978 15.2124C15.1992 15.3373 15.4569 15.5487 15.6382 15.82C15.8195 16.0914 15.9162 16.4103 15.9162 16.7367C15.9157 17.1741 15.7417 17.5934 15.4324 17.9027C15.1231 18.212 14.7038 18.386 14.2664 18.3865Z"/>
</mask>
<path d="M19.1001 14.2397C18.7571 14.2397 18.4218 14.3415 18.1366 14.532C17.8515 14.7226 17.6292 14.9934 17.4979 15.3103C17.3667 15.6271 17.3323 15.9758 17.3993 16.3122C17.4662 16.6486 17.6313 16.9576 17.8739 17.2001C18.1164 17.4426 18.4254 17.6078 18.7618 17.6747C19.0982 17.7416 19.4468 17.7073 19.7637 17.576C20.0806 17.4448 20.3514 17.2225 20.542 16.9373C20.7325 16.6521 20.8342 16.3169 20.8342 15.9739C20.8337 15.5141 20.6508 15.0734 20.3257 14.7483C20.0006 14.4232 19.5598 14.2403 19.1001 14.2397ZM14.043 25.7635L14.0241 25.7129C13.9086 25.4064 13.7317 25.1268 13.5041 24.8912C13.2765 24.6557 13.0032 24.4692 12.7008 24.3433L11.6789 23.9219C11.664 23.9158 11.6507 23.9066 11.6398 23.8947C11.629 23.8829 11.621 23.8687 11.6163 23.8534C11.6117 23.838 11.6105 23.8218 11.613 23.806C11.6154 23.7901 11.6214 23.775 11.6304 23.7617L13.5437 20.8666C13.8451 20.4082 13.9927 19.8658 13.9651 19.3179C13.9661 19.302 13.9704 19.2865 13.9776 19.2724C13.9849 19.2583 13.9949 19.2458 14.0072 19.2357C14.0334 19.2147 14.0664 19.2041 14.0999 19.2062C14.1526 19.2062 14.2053 19.2062 14.2601 19.2062C14.836 19.2053 15.3936 19.0039 15.8373 18.6368C16.281 18.2696 16.583 17.7595 16.6917 17.1939C16.6947 17.1777 16.7014 17.1625 16.7113 17.1494C16.7211 17.1362 16.7339 17.1255 16.7486 17.118C16.7633 17.1108 16.7795 17.107 16.796 17.107C16.8124 17.107 16.8286 17.1108 16.8434 17.118C16.9206 17.1543 16.9952 17.1958 17.0667 17.2424C17.4585 17.502 17.7388 17.8989 17.8527 18.3549C17.8608 18.3706 17.8678 18.3868 17.8737 18.4034L18.7166 20.9319L20.8469 20.0891C21.0474 20.0335 21.2615 20.0542 21.4477 20.147C21.634 20.2399 21.7793 20.3984 21.8557 20.592C21.9321 20.7856 21.9342 21.0006 21.8615 21.1956C21.7888 21.3907 21.6466 21.5519 21.4621 21.6483L18.5122 22.8135C18.4069 22.8559 18.294 22.8765 18.1805 22.8742C18.067 22.8718 17.9552 22.8466 17.8517 22.7999C17.7481 22.7533 17.6551 22.6862 17.5782 22.6027C17.5012 22.5193 17.4419 22.4211 17.4039 22.3142L16.9298 20.8771L14.9238 23.9092L17.1089 24.8069C17.3165 24.8935 17.5042 25.0218 17.6604 25.1838C17.8166 25.3458 17.938 25.538 18.017 25.7487L19.3845 29.3961C19.4538 29.5284 19.4943 29.6738 19.5031 29.8229C19.5119 29.9719 19.489 30.1211 19.4358 30.2606C19.3826 30.4001 19.3004 30.5267 19.1945 30.632C19.0887 30.7374 18.9617 30.819 18.8219 30.8715C18.6821 30.924 18.5328 30.9462 18.3838 30.9366C18.2348 30.927 18.0896 30.8859 17.9577 30.8159C17.8258 30.746 17.7103 30.6487 17.6188 30.5308C17.5273 30.4128 17.4619 30.2767 17.427 30.1315L16.1291 26.6674L14.102 25.8246C14.0882 25.8192 14.0756 25.811 14.0651 25.8004C14.0545 25.7899 14.0463 25.7773 14.0409 25.7635H14.043ZM2.1927 25.1798L5.0099 25.5317L6.51226 23.5384L9.0766 19.6655C7.93639 19.8378 6.7758 19.8243 5.63992 19.6255L5.13422 19.537C5.02699 19.5185 4.92447 19.479 4.8325 19.4208C4.74053 19.3627 4.66092 19.287 4.59821 19.198C4.5355 19.1091 4.49092 19.0087 4.46702 18.9025C4.44311 18.7964 4.44035 18.6865 4.45889 18.5793C4.47743 18.4721 4.51691 18.3696 4.57507 18.2776C4.63323 18.1856 4.70894 18.106 4.79786 18.0433C4.88679 17.9806 4.9872 17.936 5.09336 17.9121C5.19952 17.8882 5.30934 17.8855 5.41657 17.904L5.79374 17.9714C7.00777 18.1869 8.25027 18.1869 9.46431 17.9714L10.9856 17.6785H11.0889L11.1816 17.6617H11.2153C11.6163 17.627 12.0172 17.7287 12.3531 17.9503C12.7464 18.2114 13.02 18.6178 13.114 19.0804C13.208 19.5429 13.1147 20.0239 12.8546 20.4178L10.3135 24.2506L12.3826 25.1082C12.5801 25.1906 12.7587 25.3125 12.9072 25.4665C13.0558 25.6206 13.1713 25.8034 13.2465 26.0037L14.5424 29.4614C14.5951 29.5855 14.6222 29.719 14.622 29.8538C14.6217 29.9887 14.5942 30.122 14.541 30.2459C14.4878 30.3698 14.4101 30.4817 14.3125 30.5748C14.215 30.6678 14.0996 30.7402 13.9733 30.7874C13.847 30.8347 13.7125 30.8559 13.5778 30.8498C13.4431 30.8436 13.3111 30.8103 13.1896 30.7518C13.0681 30.6932 12.9598 30.6107 12.8711 30.5092C12.7824 30.4077 12.7151 30.2892 12.6734 30.161L11.4429 26.8802L7.67116 25.3168L6.45115 26.9371C6.28331 27.1574 6.0603 27.3296 5.80466 27.4361C5.54901 27.5427 5.26977 27.5799 4.99515 27.544L1.92721 27.1605C1.79741 27.1431 1.67231 27.1003 1.55905 27.0346C1.4458 26.9688 1.34661 26.8814 1.26716 26.7773C1.18771 26.6732 1.12956 26.5544 1.09602 26.4278C1.06249 26.3013 1.05423 26.1693 1.07173 26.0395C1.10791 25.7776 1.24587 25.5404 1.45571 25.3795C1.66554 25.2186 1.93033 25.1468 2.1927 25.1798ZM14.2664 18.3865C13.9401 18.3865 13.6211 18.2898 13.3498 18.1085C13.0785 17.9272 12.867 17.6695 12.7421 17.368C12.6172 17.0666 12.5846 16.7348 12.6482 16.4148C12.7119 16.0947 12.869 15.8008 13.0998 15.57C13.3305 15.3393 13.6245 15.1822 13.9445 15.1185C14.2646 15.0548 14.5963 15.0875 14.8978 15.2124C15.1992 15.3373 15.4569 15.5487 15.6382 15.82C15.8195 16.0914 15.9162 16.4103 15.9162 16.7367C15.9157 17.1741 15.7417 17.5934 15.4324 17.9027C15.1231 18.212 14.7038 18.386 14.2664 18.3865Z" fill="#FFC76F"/>
<path d="M19.1001 14.2397C18.7571 14.2397 18.4218 14.3415 18.1366 14.532C17.8515 14.7226 17.6292 14.9934 17.4979 15.3103C17.3667 15.6271 17.3323 15.9758 17.3993 16.3122C17.4662 16.6486 17.6313 16.9576 17.8739 17.2001C18.1164 17.4426 18.4254 17.6078 18.7618 17.6747C19.0982 17.7416 19.4468 17.7073 19.7637 17.576C20.0806 17.4448 20.3514 17.2225 20.542 16.9373C20.7325 16.6521 20.8342 16.3169 20.8342 15.9739C20.8337 15.5141 20.6508 15.0734 20.3257 14.7483C20.0006 14.4232 19.5598 14.2403 19.1001 14.2397ZM14.043 25.7635L14.0241 25.7129C13.9086 25.4064 13.7317 25.1268 13.5041 24.8912C13.2765 24.6557 13.0032 24.4692 12.7008 24.3433L11.6789 23.9219C11.664 23.9158 11.6507 23.9066 11.6398 23.8947C11.629 23.8829 11.621 23.8687 11.6163 23.8534C11.6117 23.838 11.6105 23.8218 11.613 23.806C11.6154 23.7901 11.6214 23.775 11.6304 23.7617L13.5437 20.8666C13.8451 20.4082 13.9927 19.8658 13.9651 19.3179C13.9661 19.302 13.9704 19.2865 13.9776 19.2724C13.9849 19.2583 13.9949 19.2458 14.0072 19.2357C14.0334 19.2147 14.0664 19.2041 14.0999 19.2062C14.1526 19.2062 14.2053 19.2062 14.2601 19.2062C14.836 19.2053 15.3936 19.0039 15.8373 18.6368C16.281 18.2696 16.583 17.7595 16.6917 17.1939C16.6947 17.1777 16.7014 17.1625 16.7113 17.1494C16.7211 17.1362 16.7339 17.1255 16.7486 17.118C16.7633 17.1108 16.7795 17.107 16.796 17.107C16.8124 17.107 16.8286 17.1108 16.8434 17.118C16.9206 17.1543 16.9952 17.1958 17.0667 17.2424C17.4585 17.502 17.7388 17.8989 17.8527 18.3549C17.8608 18.3706 17.8678 18.3868 17.8737 18.4034L18.7166 20.9319L20.8469 20.0891C21.0474 20.0335 21.2615 20.0542 21.4477 20.147C21.634 20.2399 21.7793 20.3984 21.8557 20.592C21.9321 20.7856 21.9342 21.0006 21.8615 21.1956C21.7888 21.3907 21.6466 21.5519 21.4621 21.6483L18.5122 22.8135C18.4069 22.8559 18.294 22.8765 18.1805 22.8742C18.067 22.8718 17.9552 22.8466 17.8517 22.7999C17.7481 22.7533 17.6551 22.6862 17.5782 22.6027C17.5012 22.5193 17.4419 22.4211 17.4039 22.3142L16.9298 20.8771L14.9238 23.9092L17.1089 24.8069C17.3165 24.8935 17.5042 25.0218 17.6604 25.1838C17.8166 25.3458 17.938 25.538 18.017 25.7487L19.3845 29.3961C19.4538 29.5284 19.4943 29.6738 19.5031 29.8229C19.5119 29.9719 19.489 30.1211 19.4358 30.2606C19.3826 30.4001 19.3004 30.5267 19.1945 30.632C19.0887 30.7374 18.9617 30.819 18.8219 30.8715C18.6821 30.924 18.5328 30.9462 18.3838 30.9366C18.2348 30.927 18.0896 30.8859 17.9577 30.8159C17.8258 30.746 17.7103 30.6487 17.6188 30.5308C17.5273 30.4128 17.4619 30.2767 17.427 30.1315L16.1291 26.6674L14.102 25.8246C14.0882 25.8192 14.0756 25.811 14.0651 25.8004C14.0545 25.7899 14.0463 25.7773 14.0409 25.7635H14.043ZM2.1927 25.1798L5.0099 25.5317L6.51226 23.5384L9.0766 19.6655C7.93639 19.8378 6.7758 19.8243 5.63992 19.6255L5.13422 19.537C5.02699 19.5185 4.92447 19.479 4.8325 19.4208C4.74053 19.3627 4.66092 19.287 4.59821 19.198C4.5355 19.1091 4.49092 19.0087 4.46702 18.9025C4.44311 18.7964 4.44035 18.6865 4.45889 18.5793C4.47743 18.4721 4.51691 18.3696 4.57507 18.2776C4.63323 18.1856 4.70894 18.106 4.79786 18.0433C4.88679 17.9806 4.9872 17.936 5.09336 17.9121C5.19952 17.8882 5.30934 17.8855 5.41657 17.904L5.79374 17.9714C7.00777 18.1869 8.25027 18.1869 9.46431 17.9714L10.9856 17.6785H11.0889L11.1816 17.6617H11.2153C11.6163 17.627 12.0172 17.7287 12.3531 17.9503C12.7464 18.2114 13.02 18.6178 13.114 19.0804C13.208 19.5429 13.1147 20.0239 12.8546 20.4178L10.3135 24.2506L12.3826 25.1082C12.5801 25.1906 12.7587 25.3125 12.9072 25.4665C13.0558 25.6206 13.1713 25.8034 13.2465 26.0037L14.5424 29.4614C14.5951 29.5855 14.6222 29.719 14.622 29.8538C14.6217 29.9887 14.5942 30.122 14.541 30.2459C14.4878 30.3698 14.4101 30.4817 14.3125 30.5748C14.215 30.6678 14.0996 30.7402 13.9733 30.7874C13.847 30.8347 13.7125 30.8559 13.5778 30.8498C13.4431 30.8436 13.3111 30.8103 13.1896 30.7518C13.0681 30.6932 12.9598 30.6107 12.8711 30.5092C12.7824 30.4077 12.7151 30.2892 12.6734 30.161L11.4429 26.8802L7.67116 25.3168L6.45115 26.9371C6.28331 27.1574 6.0603 27.3296 5.80466 27.4361C5.54901 27.5427 5.26977 27.5799 4.99515 27.544L1.92721 27.1605C1.79741 27.1431 1.67231 27.1003 1.55905 27.0346C1.4458 26.9688 1.34661 26.8814 1.26716 26.7773C1.18771 26.6732 1.12956 26.5544 1.09602 26.4278C1.06249 26.3013 1.05423 26.1693 1.07173 26.0395C1.10791 25.7776 1.24587 25.5404 1.45571 25.3795C1.66554 25.2186 1.93033 25.1468 2.1927 25.1798ZM14.2664 18.3865C13.9401 18.3865 13.6211 18.2898 13.3498 18.1085C13.0785 17.9272 12.867 17.6695 12.7421 17.368C12.6172 17.0666 12.5846 16.7348 12.6482 16.4148C12.7119 16.0947 12.869 15.8008 13.0998 15.57C13.3305 15.3393 13.6245 15.1822 13.9445 15.1185C14.2646 15.0548 14.5963 15.0875 14.8978 15.2124C15.1992 15.3373 15.4569 15.5487 15.6382 15.82C15.8195 16.0914 15.9162 16.4103 15.9162 16.7367C15.9157 17.1741 15.7417 17.5934 15.4324 17.9027C15.1231 18.212 14.7038 18.386 14.2664 18.3865Z" stroke="#985801" stroke-width="1.68421" mask="url(#path-3-outside-1_281_5809)"/>
<path d="M5.49043 17.4877L5.48808 17.4873C5.32636 17.4593 5.16073 17.4635 5.00063 17.4995C4.84053 17.5356 4.6891 17.6028 4.55498 17.6974C4.42087 17.7919 4.30669 17.912 4.21898 18.0507C4.13126 18.1894 4.07172 18.344 4.04377 18.5057C4.01581 18.6674 4.01997 18.8331 4.05602 18.9932C4.09207 19.1533 4.15931 19.3047 4.25388 19.4388C4.34845 19.5729 4.46852 19.6871 4.60722 19.7748C4.74577 19.8625 4.9002 19.922 5.06172 19.95C5.06189 19.95 5.06207 19.95 5.06225 19.9501L5.5671 20.0384C5.5671 20.0384 5.5671 20.0384 5.56711 20.0384C6.44694 20.1924 7.34102 20.2394 8.22998 20.1793L6.16805 23.2934L4.82008 25.0819L2.24498 24.7602L5.49043 17.4877ZM5.49043 17.4877L5.86711 17.555M5.49043 17.4877L5.86711 17.555M5.86711 17.555C5.86717 17.555 5.86723 17.555 5.86729 17.555C7.03159 17.7617 8.22316 17.7619 9.3875 17.5555M5.86711 17.555L9.3875 17.5555M9.3875 17.5555L10.9058 17.2632L10.9452 17.2556H10.9854H11.0507L11.106 17.2456L11.1434 17.2388H11.1814H11.1979C11.5861 17.2086 11.9738 17.2818 12.3221 17.4485C12.1911 17.0915 12.1606 16.7048 12.235 16.3308C12.3149 15.9291 12.5122 15.5601 12.8018 15.2705C13.0914 14.9808 13.4604 14.7836 13.8621 14.7037C14.2639 14.6238 14.6802 14.6648 15.0587 14.8215C15.4371 14.9783 15.7605 15.2437 15.9881 15.5843C16.2156 15.9248 16.3371 16.3252 16.3371 16.7348L16.3371 16.7354C16.3364 17.2842 16.118 17.8104 15.7299 18.1986C15.3418 18.5867 14.8156 18.805 14.2667 18.8057H14.2662C13.9718 18.8057 13.6822 18.743 13.4162 18.6233C13.4634 18.7428 13.5004 18.867 13.5264 18.9947C13.6426 19.5665 13.5273 20.161 13.2057 20.648L13.2053 20.6486L10.9466 24.0554L12.5436 24.7174L12.5445 24.7177C12.7951 24.8223 13.0216 24.977 13.21 25.1724C13.3985 25.3677 13.545 25.5996 13.6405 25.8538L13.6406 25.8541L14.9335 29.3041C15.006 29.4779 15.0431 29.6644 15.0428 29.8528C15.0424 30.0444 15.0033 30.234 14.9277 30.4102C14.8521 30.5863 14.7416 30.7453 14.6029 30.8776C14.4642 31.0099 14.3002 31.1127 14.1207 31.1799L13.9756 30.7923L14.1207 31.1799C13.9412 31.2471 13.7499 31.2773 13.5584 31.2685C13.367 31.2598 13.1792 31.2124 13.0066 31.1292L13.1894 30.7499L13.0066 31.1292C12.8339 31.046 12.6799 30.9287 12.5538 30.7844C12.4299 30.6426 12.3355 30.4776 12.276 30.2991L11.1126 27.1974L7.81107 25.8288L6.7873 27.1886L6.78585 27.1905C6.5731 27.4697 6.29044 27.6879 5.96641 27.8229C5.64273 27.9578 5.28921 28.005 4.94148 27.9598C4.9411 27.9597 4.94073 27.9597 4.94035 27.9596L1.87475 27.5764L1.87475 27.5765L1.87111 27.576C1.68648 27.5513 1.50852 27.4904 1.34742 27.3969C1.18631 27.3033 1.04522 27.179 0.932214 27.0309C0.819202 26.8828 0.73648 26.7139 0.688779 26.5338C0.64108 26.3538 0.629333 26.166 0.654214 25.9814L0.654405 25.98C0.705751 25.6084 0.901506 25.2719 1.19924 25.0436C1.49689 24.8153 1.87248 24.7135 2.24466 24.7602L9.3875 17.5555Z" fill="#F8E0CA" stroke="#985801" stroke-width="0.842104"/>
<defs>
<linearGradient id="paint0_linear_281_5809" x1="17.2606" y1="0" x2="17.2606" y2="23.5986" gradientUnits="userSpaceOnUse">
<stop stop-color="#E1590A"/>
<stop offset="1" stop-color="#C23102"/>
</linearGradient>
</defs>
</svg>
