<svg width="33" height="33" viewBox="0 0 33 33" fill="none" xmlns="http://www.w3.org/2000/svg">
<path d="M28.711 11.8061C28.7973 8.14921 25.8931 5.05017 22.2353 5.01041C19.7864 4.98376 17.6441 6.30206 16.4979 8.27153C15.3515 6.30206 13.2095 4.98354 10.7605 5.01041C7.10274 5.05017 4.19855 8.14921 4.28483 11.8061C4.47794 19.9778 14.2515 27.0855 16.1722 28.4047C16.3686 28.5397 16.6272 28.5397 16.8236 28.4047C18.7444 27.0855 28.5179 19.9778 28.711 11.8061Z" fill="#FFC76F" stroke="#985801" stroke-width="1.01052"/>
<path d="M16.4189 23.5546C16.0637 23.5546 15.7585 23.3018 15.6926 22.9523L13.8878 13.3656L11.9675 17.9292C11.8556 18.1951 11.5996 18.3714 11.3115 18.3812C11.0229 18.391 10.7558 18.2322 10.6262 17.9747L10.1129 16.9543H2.92332C2.51527 16.9543 2.18433 16.6234 2.18433 16.2153C2.18433 15.8071 2.51527 15.4764 2.92332 15.4764H10.5684C10.8462 15.4764 11.1005 15.6321 11.2265 15.8794L13.4784 10.5282C13.6049 10.2274 13.9138 10.0452 14.2377 10.08C14.5621 10.1145 14.8253 10.3574 14.8859 10.6781L16.3739 18.5833L16.9897 14.8844C17.0489 14.5279 17.3571 14.2666 17.7184 14.2666H20.1302C20.3801 14.2666 20.6132 14.3929 20.7495 14.6022L21.8819 16.3403L22.3703 15.7461C22.5108 15.5753 22.7203 15.4764 22.9413 15.4764H30.077C30.485 15.4764 30.8157 15.8073 30.8157 16.2153C30.8157 16.6234 30.485 16.9543 30.077 16.9543H23.2906L22.3841 18.0573C22.2347 18.239 22.0073 18.3388 21.7725 18.3259C21.5372 18.313 21.3225 18.1888 21.194 17.9915L19.73 15.7446H18.3447L17.1478 22.9368C17.0891 23.2902 16.785 23.5506 16.4267 23.5543C16.4241 23.5543 16.4213 23.5546 16.4189 23.5546Z" fill="#CC3E04"/>
</svg>
