<svg width="32" height="32" viewBox="0 0 32 32" fill="none" xmlns="http://www.w3.org/2000/svg">
<path d="M28.9538 20.4802C28.4317 20.4512 27.3003 21.0604 27.0102 21.2345C25.9368 21.7857 24.4283 22.685 23.442 23.3812C23.384 23.4392 23.2679 23.4972 23.2099 23.5262C22.7748 23.8163 22.3106 24.0194 21.7884 24.1354C18.9165 24.7736 14.7391 24.8317 14.7391 24.8317H14.507C14.333 24.8317 14.1589 24.7156 14.1299 24.5126C14.1009 24.3095 14.2459 24.1354 14.449 24.1064L20.6571 23.4972C21.3533 23.4102 21.8755 22.743 21.8175 22.0177C21.7594 21.2925 21.0922 20.7123 20.396 20.7993L14.8841 20.7413C14.507 20.7413 13.8978 20.6253 13.5497 20.5382C9.98149 19.4649 7.97983 20.4802 6.90647 20.9444C6.67439 20.5382 6.21023 20.2771 5.71707 20.3062L3.33827 20.4802C2.55501 20.5382 1.94581 21.2345 2.00383 22.0177L2.35194 27.4716C2.40996 28.2548 3.10619 28.864 3.88946 28.806L6.26825 28.6319C6.76142 28.6029 7.16755 28.2838 7.37062 27.8487L17.8431 28.3128C19.0035 28.4289 20.1059 28.2838 21.1212 27.7326L21.4113 27.5586L29.331 22.772C29.7081 22.5399 29.9982 22.1338 29.9982 21.6696C30.0272 21.1474 29.7081 20.5382 28.9538 20.4802ZM4.75975 27.5296C4.3246 27.5296 3.94748 27.1524 3.94748 26.7173C3.94748 26.2822 4.3246 25.905 4.75975 25.905C5.19489 25.905 5.57202 26.2822 5.57202 26.7173C5.57202 27.1524 5.2239 27.5296 4.75975 27.5296ZM27.6194 19.784C27.3003 19.9 27.0102 20.0451 26.7201 20.1901C25.7918 20.6833 24.1382 21.6116 23.326 22.1918C23.2389 22.2498 23.1519 22.3078 23.0649 22.3658C23.0649 22.2208 23.0649 22.0757 23.0649 21.9017C23.0359 21.6986 23.0069 21.5246 22.9488 21.3505V21.3215C23.7901 20.8573 25.4147 20.0451 26.314 19.6679C26.7781 19.4649 27.2133 19.4939 27.6194 19.784ZM25.4727 19.1168C24.8345 19.4069 23.587 19.871 23.0069 20.1901L22.6007 20.4222C22.5717 20.4512 22.5427 20.4802 22.4847 20.5092C22.3106 20.3062 22.1076 20.1031 21.8755 19.958C22.4267 19.6679 23.6451 19.2328 24.1963 19.0297C24.6314 18.8267 25.0665 18.8267 25.4727 19.1168ZM17.1179 3.19043C12.7954 3.19043 9.28526 6.7006 9.28526 11.0231C9.28526 15.3455 12.7954 18.8557 17.1179 18.8557C21.4403 18.8557 24.9505 15.3455 24.9505 11.0231C24.9505 6.7006 21.4403 3.19043 17.1179 3.19043ZM17.437 6.20744C18.1332 6.20744 18.7134 6.78763 18.7134 7.51288C18.7134 8.20911 18.1332 8.7893 17.437 8.7893C16.7117 8.7893 16.1606 8.20911 16.1606 7.48387C16.1606 6.75862 16.7408 6.20744 17.437 6.20744ZM19.2646 14.8233C19.2356 14.9394 19.1776 15.0554 19.0905 15.1424C18.6264 15.6066 18.0752 15.8967 17.408 15.8967C17.0889 15.8967 16.7698 15.8967 16.4797 15.8387C15.9575 15.7806 15.3193 15.1424 15.4063 14.4462C15.4643 13.982 15.5514 13.5179 15.6094 13.0537C15.7544 12.2415 15.8995 11.4582 16.0155 10.6459C16.0155 10.5879 16.0155 10.5299 16.0155 10.5009C16.0155 10.1528 15.8995 10.0367 15.5804 10.0077C15.4353 9.9787 15.2903 9.9787 15.1452 9.92068C14.9712 9.86266 14.9131 9.74662 14.9131 9.60157C14.9422 9.45653 15.0292 9.3695 15.2032 9.34049C15.2903 9.31148 15.4063 9.31148 15.4933 9.31148C15.8995 9.31148 16.2766 9.31148 16.6827 9.31148C17.0889 9.31148 17.524 9.31148 17.9302 9.31148C18.2203 9.31148 18.3943 9.45653 18.4233 9.74662C18.4233 10.0077 18.3943 10.2398 18.3363 10.5009C18.1622 11.4002 18.0172 12.3285 17.8431 13.2278C17.7851 13.5179 17.7271 13.837 17.6981 14.1271C17.6691 14.2721 17.6981 14.4172 17.7271 14.5622C17.7851 14.7653 17.9302 14.8523 18.1042 14.8233C18.2783 14.7943 18.4233 14.7363 18.5684 14.6783C18.6844 14.6203 18.8004 14.5332 18.9165 14.5042C19.1486 14.5042 19.3226 14.6203 19.2646 14.8233Z" fill="#DE181F"/>
</svg>
