<svg width="110" height="110" viewBox="0 0 110 110" fill="none" xmlns="http://www.w3.org/2000/svg">
<path d="M55 110C85.3757 110 110 85.3757 110 55C110 24.6243 85.3757 0 55 0C24.6243 0 0 24.6243 0 55C0 85.3757 24.6243 110 55 110Z" fill="#F5F3F2"/>
<g clip-path="url(#clip0)">
<path d="M71.7502 65.8838L86.3206 85.32C84.0812 87.5593 80.4502 87.5593 78.2109 85.32L65.2626 72.3716L71.7502 65.8838Z" fill="#C9C9C9"/>
<path d="M68.5063 69.1276L81.4547 82.0759C83.694 84.3152 85.8728 85.7675 86.3205 85.3197C88.5598 83.0804 88.5598 79.4494 86.3205 77.21L73.3722 64.2617L68.5063 69.1276Z" fill="#DADADA"/>
<path d="M71.7571 65.8804L63.6486 57.7719L58.7835 62.637L66.892 70.7455L71.7571 65.8804Z" fill="#B5B5B5"/>
<path d="M66.0815 53.728L68.2009 58.683C68.3852 59.1139 68.2888 59.6137 67.9575 59.9451L60.945 66.9574C60.6136 67.2888 60.1138 67.3853 59.6829 67.2008L54.7279 65.0814L66.0815 53.728Z" fill="#DADADA"/>
<path fill-rule="evenodd" clip-rule="evenodd" d="M66.8809 67.5093C66.882 67.5082 66.8831 67.5071 66.8842 67.5059L71.7501 62.6401C72.6459 61.7443 74.0981 61.7443 74.9939 62.6401C75.8897 63.5359 75.8897 64.9882 74.9939 65.884L70.1281 70.7498C70.127 70.7509 70.1259 70.752 70.1247 70.7531L66.8842 73.9936C65.9884 74.8894 64.5362 74.8894 63.6404 73.9936C62.7446 73.0978 62.7446 71.6456 63.6404 70.7498L66.8809 67.5093Z" fill="#C9C9C9"/>
<path d="M46.5972 67.6877C33.8654 67.6877 23.5443 57.3666 23.5443 44.6349C23.5443 31.9031 33.8654 21.582 46.5972 21.582C59.3289 21.582 69.65 31.9031 69.65 44.6349C69.65 57.3666 59.3289 67.6877 46.5972 67.6877Z" fill="#C9C9C9"/>
<path d="M46.5972 25.251V64.0189C35.8917 64.0189 27.2132 55.3404 27.2132 44.6349C27.2132 33.9295 35.8917 25.251 46.5972 25.251Z" fill="#DADADA"/>
<path d="M30.8821 44.6349C30.8821 33.9295 37.918 25.251 46.5972 25.251C57.3027 25.251 65.9812 33.9295 65.9812 44.6349C65.9812 55.3404 57.3027 64.0189 46.5972 64.0189C37.918 64.0189 30.8821 55.3404 30.8821 44.6349Z" fill="white"/>
</g>
<defs>
<clipPath id="clip0">
<rect width="76" height="76" fill="white" transform="matrix(-1 0 0 1 88 11)"/>
</clipPath>
</defs>
</svg>
