<?xml version="1.0" encoding="UTF-8"?>
<svg width="20px" height="20px" viewBox="0 0 20 20" version="1.1" xmlns="http://www.w3.org/2000/svg" xmlns:xlink="http://www.w3.org/1999/xlink">
    <title>icon-call</title>
    <g id="Page-1" stroke="none" stroke-width="1" fill="none" fill-rule="evenodd">
        <g id="icon-call">
            <circle id="Oval" fill="#E71D1C" cx="9.96226415" cy="9.96981132" r="7.96981132"></circle>
            <g id="Call-Accept-Line" transform="translate(3.984906, 4.656604)">
                <rect id="Rectangle" x="1.01509434" y="0.343396226" width="10" height="10"></rect>
                <path d="M7.29053885,9.34334258 C6.75112902,9.34721322 6.2310994,9.1414951 5.83922434,8.76916301 L1.60138598,4.52153951 C1.40799693,4.33055041 1.25596808,4.10149787 1.15482768,3.84873748 C1.05363307,3.59838799 1.00645066,3.3293281 1.0163946,3.05931643 C1.0209232,2.82075657 1.07411774,2.58566471 1.17269001,2.36857301 C1.2711398,2.14984294 1.41413488,1.95426445 1.59245482,1.79444861 C1.8732829,1.53894191 2.22889893,1.38158953 2.60614218,1.34591392 C2.69407736,1.33761508 2.78273098,1.34989729 2.865146,1.3817967 C2.9486371,1.4153374 3.02345589,1.46748224 3.08395957,1.53429849 L4.450428,2.91129998 C4.52058384,2.97786718 4.5728169,3.06119274 4.60225783,3.15350871 C4.63335368,3.24423817 4.64253716,3.34109145 4.62905132,3.43608557 C4.58156432,3.83475521 4.40231121,4.20590358 4.11997485,4.49014208 C4.07309452,4.5345882 4.02390426,4.57651011 3.97261061,4.6157318 L5.75884385,6.40987055 C5.7990341,6.36053173 5.84368993,6.31119292 5.88834576,6.26633945 C6.16889128,5.98035694 6.53682913,5.79715315 6.9332922,5.74603921 C7.02822549,5.73625619 7.12414412,5.74696099 7.21462394,5.77743664 C7.30388434,5.80983931 7.38476463,5.86195441 7.45129984,5.92993843 L8.83116502,7.28451319 C8.89413375,7.34472175 8.94295017,7.41827047 8.97406368,7.49980984 C9.00509227,7.58439639 9.01876322,7.67441373 9.01425392,7.76444531 C8.97153522,8.13743268 8.81563398,8.48819703 8.56769561,8.76916301 C8.24847851,9.13192471 7.79040963,9.3407627 7.30840118,9.34334258 L7.29053885,9.34334258 Z M2.6552636,1.75408049 C2.36593541,1.7852064 2.09388983,1.90769759 1.87825214,2.10393754 C1.741382,2.23055293 1.63062055,2.38295246 1.55226457,2.55247223 C1.47514964,2.72009195 1.43261663,2.90165727 1.42722824,3.08622851 C1.42327241,3.29836759 1.46279269,3.5090574 1.5433334,3.70520638 C1.62374809,3.90022688 1.7421748,4.07712813 1.89164889,4.22550662 L6.15181516,8.48210081 C6.30229658,8.63418407 6.48142714,8.75464124 6.67875397,8.83644321 C6.87706201,8.91768951 7.08980815,8.95737437 7.3039356,8.95306223 C7.48823673,8.9480974 7.66998647,8.90854401 7.83980557,8.83644321 C8.00855264,8.75968345 8.16036573,8.64989427 8.28636388,8.51349824 C8.48325269,8.29305388 8.6038726,8.01455759 8.63021378,7.71959184 C8.63447103,7.69284962 8.63447103,7.66559782 8.63021378,7.63885559 C8.6177952,7.6150866 8.60114662,7.59380372 8.58109236,7.57606074 L7.1967616,6.20354459 C7.17322875,6.17897605 7.14411458,6.16050677 7.11191553,6.14972043 C7.07951487,6.14294911 7.04607335,6.14294911 7.0136727,6.14972043 C6.6862946,6.17509145 6.37959342,6.32034187 6.15181516,6.557887 C6.06791997,6.64132883 5.99444239,6.73471193 5.93300159,6.8359785 L5.7990341,7.06473119 L3.32063548,4.53051021 L3.55731138,4.3959498 C3.6591695,4.3414118 3.75123768,4.27016006 3.82971195,4.1851385 C4.06015566,3.96612778 4.20574003,3.67208095 4.24054559,3.35534932 C4.24718402,3.3243059 4.24718402,3.29220046 4.24054559,3.26115704 C4.22965098,3.23018501 4.21123195,3.20243419 4.1869586,3.1804208 L2.79369667,1.83481673 C2.75998326,1.79059234 2.71021487,1.76156667 2.6552636,1.75408049 Z" id="Shape" fill="#FFFFFF" fill-rule="nonzero"></path>
                <path d="M3.73962385,4.33835516 C3.70279148,4.34507658 3.66503281,4.34507658 3.62820044,4.33835516 C3.59763398,4.31448274 3.57108548,4.28594028 3.54954862,4.25379614 L2.11415291,2.83580638 C2.05788437,2.77797086 2.02519493,2.70150238 2.02239246,2.62115655 C2.01266163,2.58493001 2.01266163,2.54680591 2.02239246,2.51057937 C2.06444783,2.42542061 2.14469373,2.36508996 2.23868496,2.34796586 C2.27777125,2.34187301 2.3175764,2.34187301 2.35666269,2.34796586 C2.39574898,2.34187301 2.43555413,2.34187301 2.47464042,2.34796586 C2.50915792,2.36358922 2.54031406,2.38567459 2.56640088,2.41301127 L3.92969908,3.82449649 C3.95874336,3.85164589 3.98116037,3.88501602 3.99524227,3.92206459 C4.0217117,3.99790899 4.0217117,4.08038364 3.99524227,4.15622804 C3.97806726,4.19161418 3.95600741,4.22445264 3.92969908,4.25379614 C3.88037273,4.30619638 3.81186093,4.33667532 3.73962385,4.33835516 L3.73962385,4.33835516 Z" id="Path" fill="#FFFFFF" fill-rule="nonzero"></path>
                <path d="M8.73437667,8.33874831 C8.69555644,8.34494553 8.65599649,8.34494553 8.61717626,8.33874831 C8.57888928,8.3272179 8.54489591,8.30459274 8.51950925,8.27374351 L7.10659315,6.85663887 C7.07838112,6.82897139 7.0562121,6.79577227 7.0414818,6.75913167 C7.00629852,6.68508016 7.00629852,6.59916591 7.0414818,6.52511439 C7.05303111,6.48689006 7.07569336,6.45295232 7.10659315,6.42760719 C7.22273264,6.3153259 7.40716623,6.3153259 7.52330573,6.42760719 L8.94273296,7.84471183 C8.97363275,7.87005696 8.996295,7.9039947 9.00784431,7.94221903 C9.01749192,7.98062726 9.01749192,8.02081944 9.00784431,8.05922767 C9.01751102,8.0954316 9.01751102,8.1335319 9.00784431,8.16973583 C8.996295,8.20796017 8.97363275,8.24189791 8.94273296,8.26724303 C8.91863937,8.29657701 8.88718506,8.31900761 8.85157709,8.33224783 C8.81310302,8.34060784 8.77354153,8.3428021 8.73437667,8.33874831 Z" id="Path" fill="#FFFFFF" fill-rule="nonzero"></path>
                <path d="M10.0139847,5.34339623 L9.63269514,5.34339623 C9.65186424,4.38044782 9.27688405,3.45128625 8.59425263,2.77024464 C7.9116212,2.08920302 6.98029062,1.71509613 6.01509434,1.73422059 L6.01509434,1.34454096 C7.64767572,1.3051711 9.13207461,2.28444387 9.73499234,3.79859483 C9.93168154,4.28942512 10.0265905,4.81494295 10.0139847,5.34339623 L10.0139847,5.34339623 Z" id="Path" fill="#FFFFFF" fill-rule="nonzero"></path>
                <path d="M8.01071995,5.34339623 L7.70990874,5.34339623 C7.7138014,5.11975803 7.6726303,4.89762579 7.58885057,4.69024569 C7.50422744,4.48319853 7.37956182,4.29490442 7.22200762,4.13616856 C7.06261467,3.983077 6.87429734,3.86332089 6.66807478,3.78390759 C6.46034212,3.70150949 6.23855089,3.66038018 6.01509434,3.66281789 L6.01509434,3.34358139 C6.27965448,3.34003818 6.54243104,3.3873752 6.78913295,3.48301802 C7.03381475,3.58171535 7.25594986,3.72901182 7.44211339,3.91600545 C7.62820689,4.10291384 7.77534366,4.32492373 7.87498807,4.56915599 C7.97410195,4.8149265 8.02155426,5.0784803 8.01438838,5.34339623 L8.01071995,5.34339623 Z" id="Path" fill="#FFFFFF" fill-rule="nonzero"></path>
            </g>
        </g>
    </g>
</svg>