<?xml version="1.0" encoding="UTF-8"?>
<svg width="77px" height="77px" viewBox="0 0 77 77" version="1.1" xmlns="http://www.w3.org/2000/svg" xmlns:xlink="http://www.w3.org/1999/xlink">
    <title>mail</title>
    <defs>
        <linearGradient x1="50%" y1="0%" x2="50%" y2="100%" id="linearGradient-1">
            <stop stop-color="#AF0C22" offset="0%"></stop>
            <stop stop-color="#ED1C24" offset="100%"></stop>
        </linearGradient>
    </defs>
    <g id="Page-1" stroke="none" stroke-width="1" fill="none" fill-rule="evenodd">
        <g id="icon" transform="translate(-252.000000, -311.000000)">
            <g id="Group-21" transform="translate(252.000000, 303.000000)">
                <g id="Group-2" transform="translate(0.000000, 8.000000)">
                    <circle id="Oval" fill="#FFFFFF" opacity="0.501892816" cx="38.5" cy="38.5" r="38.5"></circle>
                    <circle id="Oval" fill="url(#linearGradient-1)" cx="38.1333333" cy="38.1333333" r="32.2666667"></circle>
                    <g id="Mail-Closed-Line" transform="translate(15.227741, 15.227741)">
                        <rect id="Rectangle" x="0" y="0" width="48.3704701" height="48.3704701"></rect>
                        <path d="M37.2049532,39.0793089 L11.1655168,39.0793089 C9.93260257,39.0734624 8.75189453,38.5808971 7.88035575,37.7088123 C7.00072145,36.8423532 6.50678435,35.658357 6.50984483,34.4236512 L6.50984483,13.9468189 C6.50678435,12.7121131 7.00072145,11.5281168 7.88035575,10.6616578 C8.75393728,9.79510159 9.9350448,9.30961568 11.1655168,9.31131104 L37.2049532,9.31131104 C38.4354253,9.30961568 39.6165328,9.79510159 40.4901143,10.6616578 C41.3585286,11.535652 41.8504371,12.7147857 41.860611,13.9468189 L41.860611,34.4236512 C41.8504371,35.6556844 41.3585286,36.834818 40.4901143,37.7088123 C39.6137184,38.5736228 38.436115,39.064893 37.2049532,39.0793089 Z M11.1655168,11.1655168 C10.4139062,11.1591542 9.68996234,11.4487317 9.15008059,11.9716913 C8.61597144,12.5058159 8.31832135,13.2317918 8.3236787,13.9871276 L8.3236787,34.4236512 C8.31832135,35.178987 8.61597144,35.9049628 9.15008059,36.4390874 C9.68496914,36.9697021 10.4122426,37.2606115 11.1655168,37.2452619 L37.2049532,37.2452619 C37.9582275,37.2606115 38.6855009,36.9697021 39.2203895,36.4390874 C39.7544986,35.9049628 40.0521487,35.178987 40.0467914,34.4236512 L40.0467914,13.9468189 C40.0477015,13.1923495 39.7507232,12.468012 39.2203895,11.9313826 C38.6875527,11.3953417 37.960728,11.0973435 37.2049532,11.1049078 L11.1655168,11.1655168 Z" id="Shape" fill="#F7F7F7" fill-rule="nonzero"></path>
                        <path d="M24.185235,24.406933 C23.796294,24.4027596 23.4200611,24.2678836 23.1170538,24.0240001 L14.289443,16.7684296 C14.2144975,16.6845156 14.1532798,16.589288 14.1080538,16.4862685 C14.090114,16.3660077 14.090114,16.2437508 14.1080538,16.12349 C14.0781908,16.0044075 14.0781908,15.879794 14.1080538,15.7607115 C14.0900126,15.6539786 14.0900126,15.5449746 14.1080538,15.4382417 C14.2672343,15.2545794 14.4909201,15.1391287 14.732839,15.1157719 C14.9792075,15.086393 15.2268553,15.1592306 15.4180873,15.3173155 L24.185235,22.4922686 L32.8919196,15.3173155 C33.0842499,15.161309 33.3310014,15.0887351 33.577168,15.1157719 C33.8190869,15.1391287 34.0427726,15.2545794 34.2019532,15.4382417 C34.2827237,15.5299505 34.3382833,15.6410698 34.3631881,15.7607115 C34.393051,15.879794 34.393051,16.0044075 34.3631881,16.12349 C34.357962,16.2505597 34.3234763,16.3747083 34.2624163,16.4862685 C34.1989048,16.5937312 34.1170488,16.6892298 34.0205639,16.7684296 L25.2131075,24.0038458 C24.9268228,24.2520671 24.5639369,24.3943753 24.185235,24.406933 Z" id="Path" fill="#F7F7F7" fill-rule="nonzero"></path>
                    </g>
                </g>
            </g>
        </g>
    </g>
</svg>