<svg width="20" height="20" viewBox="0 0 20 20" fill="none" xmlns="http://www.w3.org/2000/svg">
<g clip-path="url(#clip0)">
<path d="M18.6717 10.2591C18.5913 10.0944 18.5913 9.90559 18.6717 9.74098L19.4177 8.21501C19.833 7.36536 19.5039 6.35267 18.6685 5.90943L17.1681 5.11335C17.0063 5.02749 16.8953 4.87467 16.8636 4.69425L16.5702 3.02125C16.4068 2.08977 15.5451 1.46383 14.6089 1.59629L12.9272 1.83418C12.7457 1.85981 12.5662 1.80145 12.4345 1.67407L11.2138 0.493135C10.534 -0.16444 9.4692 -0.164479 8.78952 0.493135L7.56875 1.67418C7.43703 1.8016 7.25754 1.85985 7.07606 1.8343L5.39431 1.59641C4.45779 1.46387 3.59647 2.08988 3.43307 3.02136L3.13963 4.69428C3.10795 4.87475 2.99698 5.02753 2.83514 5.11342L1.33476 5.90951C0.499375 6.35271 0.170314 7.36548 0.585624 8.21513L1.33152 9.74106C1.41199 9.9057 1.41199 10.0945 1.33152 10.2591L0.585585 11.7851C0.170275 12.6347 0.499336 13.6474 1.33472 14.0906L2.8351 14.8867C2.99698 14.9726 3.10795 15.1254 3.13963 15.3058L3.43307 16.9788C3.58182 17.8268 4.30892 18.4215 5.14458 18.4214C5.22689 18.4214 5.3104 18.4156 5.39435 18.4037L7.07609 18.1659C7.25746 18.1401 7.43707 18.1986 7.56879 18.326L8.78952 19.5069C9.12944 19.8357 9.56546 20.0001 10.0016 20.0001C10.4377 20 10.874 19.8357 11.2137 19.5069L12.4345 18.326C12.5662 18.1986 12.7457 18.1404 12.9272 18.1659L14.6089 18.4037C15.5456 18.5362 16.4068 17.9103 16.5702 16.9788L16.8637 15.3059C16.8953 15.1254 17.0063 14.9726 17.1681 14.8867L18.6685 14.0906C19.5039 13.6474 19.833 12.6347 19.4177 11.785L18.6717 10.2591ZM18.1279 13.0716L16.6275 13.8677C16.1491 14.1216 15.821 14.5731 15.7275 15.1065L15.4341 16.7795C15.3788 17.0946 15.0874 17.3063 14.7705 17.2616L13.0888 17.0237C12.5524 16.9477 12.0217 17.1203 11.6325 17.4968L10.4117 18.6777C10.1818 18.9001 9.82151 18.9001 9.59151 18.6777L8.37077 17.4968C8.04179 17.1786 7.61172 17.0061 7.16273 17.0061C7.08047 17.0061 6.99754 17.0119 6.91449 17.0236L5.23275 17.2615C4.91611 17.3063 4.62451 17.0946 4.56919 16.7794L4.27572 15.1064C4.18213 14.573 3.85408 14.1215 3.37569 13.8677L1.8753 13.0716C1.59265 12.9216 1.48132 12.579 1.62183 12.2916L2.36776 10.7656C2.60557 10.279 2.60557 9.72098 2.36776 9.23442L1.62183 7.70845C1.48132 7.42099 1.59265 7.07837 1.8753 6.92841L3.37569 6.13232C3.85404 5.87846 4.18213 5.42698 4.27568 4.89354L4.56912 3.22058C4.62443 2.90543 4.91576 2.69371 5.23267 2.73847L6.91442 2.97636C7.45054 3.05226 7.98144 2.87972 8.3707 2.5032L9.59147 1.32227C9.82139 1.09985 10.1817 1.09985 10.4117 1.32227L11.6324 2.5032C12.0217 2.87976 12.5525 3.05226 13.0887 2.97636L14.7704 2.73847C15.0871 2.69367 15.3787 2.90543 15.434 3.22058L15.7274 4.89358C15.821 5.42702 16.149 5.87854 16.6274 6.13232L18.1278 6.92841C18.4105 7.07837 18.5218 7.42099 18.3813 7.70845L17.6354 9.23438C17.3976 9.7209 17.3976 10.279 17.6354 10.7655L18.3813 12.2915C18.5218 12.579 18.4105 12.9217 18.1279 13.0716Z" fill="#727272"/>
<path d="M14.2146 5.78575C13.9894 5.56051 13.6242 5.56051 13.3989 5.78575L5.78611 13.3986C5.56088 13.6238 5.56088 13.989 5.78611 14.2143C5.89873 14.3269 6.04635 14.3832 6.19392 14.3832C6.3415 14.3832 6.48916 14.3269 6.60173 14.2143L14.2146 6.60144C14.4399 6.37617 14.4399 6.01102 14.2146 5.78575Z" fill="#727272"/>
<path d="M7.69292 4.8092C6.52683 4.8092 5.57812 5.75791 5.57812 6.924C5.57812 8.09008 6.52683 9.03879 7.69292 9.03879C8.859 9.03879 9.80771 8.09008 9.80771 6.924C9.80771 5.75791 8.859 4.8092 7.69292 4.8092ZM7.69292 7.88524C7.16288 7.88524 6.73167 7.45403 6.73167 6.92396C6.73167 6.39392 7.16288 5.96271 7.69292 5.96271C8.22295 5.96271 8.6542 6.39392 8.6542 6.92396C8.65416 7.45403 8.22295 7.88524 7.69292 7.88524Z" fill="#727272"/>
<path d="M12.3062 10.9613C11.1401 10.9613 10.1914 11.91 10.1914 13.0761C10.1914 14.2422 11.1401 15.1909 12.3062 15.1909C13.4723 15.1909 14.421 14.2422 14.421 13.0761C14.421 11.91 13.4723 10.9613 12.3062 10.9613ZM12.3062 14.0373C11.7762 14.0373 11.3449 13.6061 11.3449 13.0761C11.3449 12.546 11.7761 12.1148 12.3062 12.1148C12.8362 12.1148 13.2674 12.546 13.2674 13.0761C13.2674 13.6061 12.8362 14.0373 12.3062 14.0373Z" fill="#727272"/>
</g>
<defs>
<clipPath id="clip0">
<rect width="20" height="20" fill="white"/>
</clipPath>
</defs>
</svg>
