<svg width="44" height="44" viewBox="0 0 44 44" fill="none" xmlns="http://www.w3.org/2000/svg">
<circle opacity="0.2" cx="22" cy="22" r="22" fill="#C68158"/>
<path fill-rule="evenodd" clip-rule="evenodd" d="M24.4448 8.07298C23.9877 7.763 23.3659 7.88226 23.0559 8.33936L9.36113 28.5337C9.05116 28.9908 9.17042 29.6127 9.62751 29.9226L12.687 31.9974C13.5689 31.6245 14.8329 31.807 15.9363 32.5553C17.0397 33.3036 17.6769 34.4103 17.6567 35.3677L20.7179 37.4435C21.175 37.7535 21.7968 37.6343 22.1068 37.1772L35.8016 16.9828C36.1115 16.5257 35.9923 15.9039 35.5352 15.5939L24.4448 8.07298Z" fill="#D24606"/>
<path d="M23.4387 7.82764C23.7487 7.37055 24.3705 7.25129 24.8276 7.56126L35.5869 14.8577C36.044 15.1676 36.1633 15.7895 35.8533 16.2466L26.3119 30.3164L13.8973 21.8975L23.4387 7.82764Z" fill="#FFC76F"/>
<path d="M23.0559 8.33936L22.6421 8.05873L23.0559 8.33936ZM9.36113 28.5337L9.77495 28.8144L9.36113 28.5337ZM9.62751 29.9226L9.90814 29.5088L9.62751 29.9226ZM12.6058 31.9424L12.3252 32.3562L12.5835 32.5314L12.8544 32.3762L12.6058 31.9424ZM17.7399 35.4241L17.2449 35.3536L17.201 35.6627L17.4593 35.8379L17.7399 35.4241ZM22.1068 37.1772L22.5206 37.4578L22.1068 37.1772ZM35.8016 16.9828L35.3877 16.7022L35.8016 16.9828ZM23.4697 8.61999C23.6247 8.39144 23.9356 8.33181 24.1642 8.4868L24.7255 7.65916C24.0398 7.1942 23.1071 7.37309 22.6421 8.05873L23.4697 8.61999ZM9.77495 28.8144L23.4697 8.61999L22.6421 8.05873L8.94731 28.2531L9.77495 28.8144ZM9.90814 29.5088C9.67959 29.3538 9.61996 29.0429 9.77495 28.8144L8.94731 28.2531C8.48235 28.9387 8.66124 29.8715 9.34688 30.3365L9.90814 29.5088ZM12.8864 31.5285L9.90814 29.5088L9.34688 30.3365L12.3252 32.3562L12.8864 31.5285ZM12.8544 32.3762C13.555 31.9747 14.7301 32.0325 15.8002 32.7582L16.3614 31.9305C15.0713 31.0557 13.4794 30.8655 12.3572 31.5085L12.8544 32.3762ZM15.8002 32.7582C16.8702 33.4838 17.3587 34.5542 17.2449 35.3536L18.235 35.4945C18.4172 34.214 17.6515 32.8054 16.3614 31.9305L15.8002 32.7582ZM20.9985 37.0297L18.0206 35.0102L17.4593 35.8379L20.4372 37.8574L20.9985 37.0297ZM21.6929 36.8965C21.538 37.1251 21.227 37.1847 20.9985 37.0297L20.4372 37.8574C21.1229 38.3223 22.0556 38.1434 22.5206 37.4578L21.6929 36.8965ZM35.3877 16.7022L21.6929 36.8965L22.5206 37.4578L36.2154 17.2634L35.3877 16.7022ZM35.2545 16.0077C35.4831 16.1627 35.5427 16.4736 35.3877 16.7022L36.2154 17.2634C36.6803 16.5778 36.5014 15.645 35.8158 15.1801L35.2545 16.0077ZM24.1642 8.4868L35.2545 16.0077L35.8158 15.1801L24.7255 7.65916L24.1642 8.4868Z" fill="#985801"/>
<path d="M22.7671 18.3633C23.0396 17.918 23.4175 17.5469 23.8632 17.2872C24.1855 17.1097 24.5351 16.9968 24.8921 16.955L23.6705 16.131L23.1776 16.8618C23.1572 16.903 23.128 16.9392 23.0923 16.9678C23.0566 16.9963 23.0154 17.0163 22.9719 17.0261C22.9284 17.036 22.8838 17.0355 22.8417 17.0246C22.7997 17.0137 22.7612 16.9928 22.7294 16.9634L22.4214 16.7557C22.3823 16.7372 22.3485 16.7094 22.3227 16.6744C22.2968 16.6395 22.2796 16.5984 22.2725 16.5543C22.2653 16.5103 22.2684 16.4646 22.2815 16.4208C22.2945 16.377 22.3172 16.3364 22.3478 16.3021L22.8407 15.5713L22.2719 15.1876C22.2295 15.1602 22.1936 15.1239 22.1663 15.081C22.139 15.038 22.1209 14.9893 22.1131 14.9378C22.1042 14.8865 22.1057 14.8333 22.1176 14.7814C22.1295 14.7296 22.1515 14.6802 22.1823 14.6362L22.4966 14.1703C22.5258 14.1253 22.5634 14.0863 22.607 14.0559C22.6506 14.0254 22.6994 14.004 22.7502 13.9931C22.8009 13.981 22.8529 13.9796 22.903 13.9888C22.953 13.998 23.0001 14.0177 23.0414 14.0467L23.6102 14.4304L24.1032 13.6996C24.1235 13.6585 24.1527 13.6222 24.1884 13.5937C24.2241 13.5651 24.2653 13.5452 24.3088 13.5353C24.3523 13.5254 24.3969 13.526 24.439 13.5368C24.4811 13.5477 24.5196 13.5687 24.5514 13.598L24.8593 13.8057C24.8984 13.8242 24.9322 13.852 24.9581 13.887C24.9839 13.9219 25.0011 13.9631 25.0083 14.0071C25.0154 14.0511 25.0123 14.0968 24.9993 14.1406C24.9862 14.1844 24.9635 14.225 24.933 14.2593L24.4447 14.9833L30.8174 19.2817C30.8598 19.3091 30.8957 19.3454 30.923 19.3884C30.9503 19.4313 30.9684 19.4801 30.9762 19.5316C30.9851 19.5828 30.9835 19.636 30.9716 19.6879C30.9597 19.7397 30.9377 19.7892 30.907 19.8331L30.59 20.303C30.5608 20.348 30.5232 20.3869 30.4796 20.4174C30.436 20.4478 30.3872 20.4692 30.3364 20.4802C30.2857 20.4922 30.2337 20.4937 30.1837 20.4845C30.1336 20.4753 30.0865 20.4555 30.0452 20.4265L29.6765 20.1778C29.7793 20.5291 29.806 20.9034 29.7545 21.2752C29.6732 21.7794 29.47 22.2619 29.1638 22.678C28.9129 23.0579 28.5944 23.3881 28.2265 23.65C27.8738 23.8994 27.4779 24.073 27.0646 24.1594C26.6318 24.2466 26.1915 24.2486 25.7676 24.1652C25.2867 24.0693 24.8297 23.8903 24.4156 23.6358C24.2914 23.5653 24.1602 23.4835 24.0219 23.3902C23.8836 23.2969 23.7582 23.2057 23.6458 23.1165C23.2557 22.8274 22.9197 22.4705 22.6516 22.0606C22.4164 21.7007 22.2553 21.2928 22.1776 20.8602C22.1083 20.4457 22.124 20.0162 22.2238 19.5983C22.3265 19.1589 22.511 18.7394 22.7671 18.3633ZM27.7927 18.9115C27.6798 18.8229 27.5269 18.7136 27.3339 18.5834C27.1409 18.4532 26.9822 18.3524 26.8578 18.2809C26.3819 17.947 25.7862 17.825 25.1984 17.9408C24.929 18.0093 24.6727 18.1317 24.4446 18.3007C24.2166 18.4697 24.0214 18.682 23.8706 18.9249C23.6945 19.161 23.5688 19.4305 23.5021 19.7149C23.4354 19.9993 23.4294 20.2915 23.4845 20.5713C23.6344 21.1653 23.9858 21.675 24.4779 22.0121C24.6934 22.1699 24.9144 22.3189 25.1408 22.4593C25.6377 22.7892 26.2419 22.9241 26.8488 22.8406C27.1289 22.7869 27.3976 22.6718 27.6363 22.5034C27.8749 22.3351 28.0778 22.1175 28.2306 21.8659C28.3973 21.6361 28.5198 21.3776 28.5914 21.105C28.6629 20.8324 28.682 20.5512 28.6475 20.2773C28.6036 19.9978 28.5055 19.7333 28.3588 19.4988C28.2121 19.2644 28.0197 19.0647 27.7927 18.9115Z" fill="#D14406" stroke="#D14406" stroke-width="0.3"/>
</svg>
