<svg width="36" height="36" viewBox="0 0 36 36" fill="none" xmlns="http://www.w3.org/2000/svg">
<path d="M26.4327 9.61613C31.0766 14.26 31.0766 21.7893 26.4327 26.4332C21.7888 31.0771 14.2595 31.0771 9.61563 26.4332C4.97173 21.7893 4.97173 14.26 9.61563 9.61613C14.2595 4.97223 21.7888 4.97222 26.4327 9.61613Z" fill="#FFBF1F" stroke="#985801"/>
<path d="M24.9935 24.9944C28.8432 21.1447 28.8432 14.9031 24.9935 11.0534C21.1438 7.20374 14.9022 7.20374 11.0525 11.0534C7.20282 14.9031 7.20282 21.1447 11.0525 24.9944C14.9022 28.8441 21.1438 28.8441 24.9935 24.9944Z" fill="#FFD31D"/>
<path opacity="0.5" d="M24.7372 10.8091C26.4502 12.6898 27.3698 15.16 27.3038 17.703C27.2377 20.2461 26.1911 22.6652 24.3828 24.4545C22.5744 26.2437 20.1443 27.2646 17.6007 27.3037C15.0571 27.3427 12.5968 26.397 10.7344 24.6641C11.6292 25.6465 12.7134 26.4378 13.9218 26.9905C15.1302 27.5433 16.4379 27.846 17.7662 27.8805C19.0946 27.915 20.4163 27.6806 21.6517 27.1913C22.8872 26.702 24.011 25.968 24.9556 25.0334C25.9002 24.0988 26.6461 22.9828 27.1484 21.7526C27.6508 20.5224 27.8992 19.2033 27.8788 17.8747C27.8584 16.546 27.5696 15.2352 27.0297 14.021C26.4898 12.8068 25.71 11.7143 24.7372 10.8091Z" fill="#FFEFAB"/>
<path d="M8.82557 18.996C8.82585 16.9367 9.47094 14.9293 10.6703 13.2553C11.8697 11.5814 13.5631 10.3251 15.5129 9.66269C17.4627 9.00029 19.571 8.96506 21.5418 9.56197C23.5126 10.1589 25.2471 11.3579 26.5017 12.9908C25.8152 11.8356 24.8998 10.8329 23.8117 10.0444C22.7237 9.25581 21.4858 8.69802 20.1743 8.40526C18.8628 8.1125 17.5053 8.09096 16.1851 8.34195C14.865 8.59294 13.6101 9.11118 12.4975 9.86482C11.385 10.6185 10.4382 11.5916 9.71545 12.7245C8.99268 13.8573 8.50913 15.126 8.29451 16.4525C8.0799 17.7791 8.13874 19.1355 8.46744 20.4384C8.79613 21.7414 9.38773 22.9634 10.2059 24.0294C9.2999 22.507 8.82293 20.7676 8.82557 18.996Z" fill="#FFAB2E"/>
<path d="M19.3566 18.2744C18.3632 11.852 18 11.75 18 11.75V24.25H20.8896C20.8896 24.25 21.2877 17.412 23 16.5485C23 16.5485 20.4321 16.953 19.3566 18.2744Z" fill="#FFA013"/>
<path d="M16.6434 18.2744C17.6368 11.852 18 11.75 18 11.75V24.25H15.1104C15.1104 24.25 14.7123 17.412 13 16.5485C13 16.5485 15.5679 16.953 16.6434 18.2744Z" fill="#FFA013"/>
</svg>
