<svg width="20" height="20" viewBox="0 0 20 20" fill="none" xmlns="http://www.w3.org/2000/svg">
<path d="M18.7905 7.45736C19.4369 7.45736 19.9628 6.93151 19.9628 6.28515V4.76737C19.9628 4.28611 19.6745 3.85954 19.2282 3.67992L10.4385 0.085923C10.1523 -0.0293833 9.84252 -0.0273515 9.56358 0.0842819C9.55709 0.0868998 9.71069 0.0241083 0.769741 3.67996C0.323402 3.85954 0.0351562 4.28614 0.0351562 4.76741V6.28523C0.0351562 6.93159 0.561009 7.45744 1.20737 7.45744H1.91069V16.2881H1.20737C0.561009 16.2881 0.0351562 16.8139 0.0351562 17.4603V18.8279C0.0351562 19.4742 0.561009 20.0001 1.20737 20.0001H18.7905C19.4369 20.0001 19.9627 19.4742 19.9627 18.8279V17.4603C19.9627 16.8139 19.4369 16.2881 18.7905 16.2881H18.0872V7.45744H18.7905V7.45736ZM18.7905 17.4602C18.7913 18.8591 18.7945 18.8278 18.7905 18.8278H1.2074V17.4602H18.7905ZM3.08294 16.288V7.45736H4.41144V16.288H3.08294ZM5.58365 16.288V7.45736H8.16251V16.288H5.58365ZM9.33472 16.288V7.45736H10.6632V16.288H9.33472ZM11.8354 16.288V7.45736H14.4143V16.288H11.8354ZM15.5865 16.288V7.45736H16.915V16.288H15.5865ZM1.2074 6.28515C1.2074 4.65019 1.20565 4.76808 1.21151 4.7657L9.99897 1.1726L18.7864 4.7657C18.7925 4.76812 18.7905 4.65406 18.7905 6.28515C18.5957 6.28515 1.43892 6.28515 1.2074 6.28515Z" fill="#727272"/>
</svg>
