<svg width="44" height="44" viewBox="0 0 44 44" fill="none" xmlns="http://www.w3.org/2000/svg">
<circle opacity="0.2" cx="22" cy="22" r="22" fill="#C68158"/>
<circle cx="22" cy="22" r="11.5" fill="#FFC76F" stroke="#985801"/>
<path d="M21.1175 18.3296C21.7372 18.2997 22.3538 18.4368 22.9056 18.7274C23.2946 18.945 23.638 19.2389 23.9164 19.5923V17.6824H22.8691C22.815 17.6904 22.7599 17.6853 22.7081 17.6677C22.6563 17.65 22.6092 17.6202 22.5706 17.5806C22.532 17.541 22.5029 17.4927 22.4857 17.4396C22.4684 17.3865 22.4635 17.33 22.4713 17.2745V16.7931C22.4635 16.7377 22.4684 16.6812 22.4857 16.6281C22.5029 16.575 22.532 16.5267 22.5706 16.4871C22.6092 16.4475 22.6563 16.4177 22.7081 16.4C22.7599 16.3823 22.815 16.3773 22.8691 16.3852H23.9164V15.4959C23.9152 15.4306 23.9271 15.3657 23.9513 15.3052C23.9755 15.2447 24.0114 15.1899 24.057 15.1442C24.1016 15.0975 24.155 15.0606 24.214 15.0359C24.2729 15.0111 24.3362 14.9989 24.4 15.0001H25.0677C25.1315 14.9989 25.1947 15.0111 25.2537 15.0359C25.3127 15.0606 25.3661 15.0975 25.4107 15.1442C25.4563 15.1899 25.4922 15.2447 25.5164 15.3052C25.5406 15.3657 25.5525 15.4306 25.5513 15.4959V16.3852H26.5986C26.6527 16.3773 26.7078 16.3823 26.7596 16.4C26.8114 16.4177 26.8585 16.4475 26.8971 16.4871C26.9357 16.5267 26.9648 16.575 26.982 16.6281C26.9993 16.6812 27.0042 16.7377 26.9964 16.7931V17.2745C27.0042 17.33 26.9993 17.3865 26.982 17.4396C26.9648 17.4927 26.9357 17.541 26.8971 17.5806C26.8585 17.6202 26.8114 17.65 26.7596 17.6677C26.7078 17.6853 26.6527 17.6904 26.5986 17.6824H25.5611V27.6451C25.5623 27.7105 25.5504 27.7754 25.5263 27.8359C25.5021 27.8963 25.4661 27.9511 25.4206 27.9968C25.376 28.0435 25.3226 28.0804 25.2636 28.1052C25.2046 28.13 25.1413 28.1421 25.0776 28.141H24.4042C24.3405 28.1421 24.2772 28.13 24.2182 28.1052C24.1592 28.0804 24.1058 28.0435 24.0612 27.9968C24.0156 27.9511 23.9797 27.8963 23.9555 27.8359C23.9313 27.7754 23.9195 27.7105 23.9206 27.6451V27.0686C23.6429 27.4338 23.292 27.7336 22.8916 27.9478C22.3409 28.2259 21.7308 28.3572 21.1175 28.3298C20.5766 28.3355 20.0398 28.2326 19.5374 28.0271C19.0574 27.8289 18.6235 27.5293 18.2638 27.1479C17.8904 26.7461 17.5959 26.2743 17.3964 25.7584C17.1714 25.1723 17.044 24.5515 17.0197 23.9221C17.0066 23.7376 17 23.5373 17 23.321C17 23.1048 17.0066 22.904 17.0197 22.7186C17.0452 22.09 17.1735 21.4702 17.3992 20.8852C17.5974 20.3715 17.8921 19.9029 18.2666 19.5058C18.6288 19.1309 19.0623 18.8366 19.5402 18.641C20.0412 18.4328 20.577 18.327 21.1175 18.3296ZM23.9164 24.1268C23.9286 23.9413 23.9347 23.6977 23.9347 23.396C23.9347 23.0943 23.9286 22.8507 23.9164 22.6652C23.929 21.9119 23.6535 21.1834 23.1488 20.6358C22.9025 20.396 22.6117 20.2093 22.2936 20.0867C21.9756 19.9642 21.6369 19.9083 21.2974 19.9223C20.948 19.9042 20.5989 19.9645 20.2746 20.0989C19.9502 20.2333 19.6583 20.4387 19.4193 20.7007C18.9339 21.2922 18.6654 22.0392 18.6602 22.8122C18.648 23.1582 18.648 23.5036 18.6602 23.8486C18.6654 24.6217 18.9339 25.3686 19.4193 25.9602C19.6583 26.2222 19.9502 26.4275 20.2746 26.562C20.5989 26.6964 20.948 26.7566 21.2974 26.7385C21.6344 26.751 21.9705 26.6954 22.2865 26.5747C22.6025 26.454 22.8921 26.2706 23.139 26.0351C23.3851 25.7855 23.5805 25.4883 23.714 25.1607C23.8474 24.8332 23.9162 24.4817 23.9164 24.1268Z" fill="#D14406" stroke="#D14406" stroke-width="0.3"/>
</svg>
