<svg width="10" height="10" viewBox="0 0 10 10" fill="none" xmlns="http://www.w3.org/2000/svg">
<path fill-rule="evenodd" clip-rule="evenodd" d="M5 9.375C7.41625 9.375 9.375 7.41625 9.375 5C9.375 2.58375 7.41625 0.625 5 0.625C2.58375 0.625 0.625 2.58375 0.625 5C0.625 7.41625 2.58375 9.375 5 9.375ZM5 10C7.76142 10 10 7.76142 10 5C10 2.23858 7.76142 0 5 0C2.23858 0 0 2.23858 0 5C0 7.76142 2.23858 10 5 10Z" fill="white"/>
<circle cx="5" cy="5" r="4" fill="white"/>
<path d="M5.91686 5.07242C5.91686 5.95577 4.94018 5.96133 4.94018 5.96133H4.40906V4.1813H4.97962C5.10149 4.16969 5.22444 4.18431 5.34018 4.2242C5.45593 4.26408 5.56179 4.32829 5.65064 4.41251C5.73949 4.49673 5.80927 4.599 5.85529 4.71245C5.9013 4.8259 5.92249 4.94788 5.91742 5.0702L5.91686 5.07242ZM5.16185 3.76018H3.78793L3.78516 6.398H5.10462C5.10462 6.398 6.61021 6.398 6.61021 5.05187C6.60716 4.86957 6.56638 4.68987 6.49043 4.52411C6.41449 4.35836 6.30503 4.21013 6.16896 4.08877C6.03288 3.96742 5.87315 3.87557 5.69981 3.81901C5.52648 3.76246 5.34331 3.74243 5.16185 3.76018Z" fill="#DE181F"/>
</svg>
