<svg width="12" height="12" viewBox="0 0 12 12" fill="none" xmlns="http://www.w3.org/2000/svg">
<path fill-rule="evenodd" clip-rule="evenodd" d="M6 11.25C8.8995 11.25 11.25 8.89948 11.25 5.99998C11.25 3.10049 8.8995 0.749985 6 0.749985C3.10051 0.749985 0.75 3.10049 0.75 5.99998C0.75 8.89948 3.10051 11.25 6 11.25ZM6 12C9.31371 12 12 9.31369 12 5.99998C12 2.68628 9.31371 -1.52588e-05 6 -1.52588e-05C2.68629 -1.52588e-05 0 2.68628 0 5.99998C0 9.31369 2.68629 12 6 12Z" fill="#DE181F"/>
<circle cx="6" cy="5.99998" r="4.5" fill="#DE181F"/>
<path d="M7.10199 6.08707C7.10199 7.14708 5.92997 7.15375 5.92997 7.15375H5.29263V5.01771H5.9773C6.12355 5.00378 6.27108 5.02133 6.40998 5.06919C6.54887 5.11705 6.6759 5.19411 6.78252 5.29517C6.88915 5.39623 6.97288 5.51896 7.0281 5.6551C7.08332 5.79123 7.10875 5.93761 7.10266 6.0844L7.10199 6.08707ZM6.19597 4.51237H4.54728L4.54395 7.67776H6.12731C6.12731 7.67776 7.93401 7.67776 7.93401 6.0624C7.93035 5.84364 7.88141 5.628 7.79028 5.42909C7.69915 5.23018 7.5678 5.05231 7.40451 4.90668C7.24122 4.76106 7.04953 4.65084 6.84153 4.58297C6.63353 4.51511 6.41373 4.49107 6.19597 4.51237Z" fill="white"/>
</svg>
