<svg width="287" height="101" viewBox="0 0 287 101" fill="none" xmlns="http://www.w3.org/2000/svg">
<path d="M176.428 24.4303V24.3435C176.385 22.0976 176.345 19.9758 176.345 17.9377C176.344 16.4505 175.753 15.0245 174.701 13.9728C173.649 12.9212 172.223 12.3301 170.736 12.3292C165.494 12.5855 160.254 11.7654 155.34 9.9195C150.427 8.07358 145.943 5.24093 142.166 1.59614C141.122 0.573056 139.719 0 138.258 0C136.796 0 135.393 0.573056 134.349 1.59614C130.572 5.24138 126.089 8.07433 121.175 9.92028C116.262 11.7662 111.022 12.5861 105.779 12.3292C104.293 12.3309 102.868 12.922 101.817 13.9728C100.767 15.0237 100.175 16.4485 100.174 17.9346C100.174 20.0192 100.133 22.1627 100.09 24.4303C99.8884 35.0207 99.6371 48.2013 104.058 60.1629C106.383 66.5773 110.123 72.3855 115.002 77.1559C121.126 82.8777 128.433 87.1836 136.406 89.7688C136.996 89.9743 137.617 90.0792 138.242 90.079C138.866 90.0792 139.486 89.9743 140.075 89.7688C148.048 87.1834 155.355 82.8775 161.48 77.1559C166.373 72.3944 170.131 66.5915 172.473 60.1784C176.897 48.2138 176.646 35.0331 176.444 24.4427L176.428 24.4303ZM167.51 58.3357C162.857 70.9518 153.315 79.6034 138.351 84.7838C138.318 84.7961 138.283 84.8024 138.248 84.8024C138.211 84.8023 138.175 84.796 138.14 84.7838C123.194 79.6034 113.661 70.9518 108.996 58.3357C104.92 47.3049 105.149 35.2069 105.354 24.5234C105.398 22.231 105.438 20.0626 105.438 17.9284C105.438 17.8412 105.473 17.7576 105.534 17.6959C105.596 17.6343 105.68 17.5996 105.767 17.5996C111.696 17.8779 117.619 16.9372 123.17 14.8355C128.721 12.7338 133.782 9.51589 138.041 5.38064C138.102 5.32088 138.184 5.28749 138.27 5.28758C138.356 5.28782 138.438 5.32116 138.5 5.38064C142.755 9.51615 147.814 12.735 153.363 14.8382C158.912 16.9415 164.833 17.8845 170.761 17.6089C170.804 17.6089 170.847 17.6174 170.887 17.634C170.927 17.6505 170.963 17.6747 170.993 17.7052C171.024 17.7358 171.048 17.772 171.065 17.8119C171.081 17.8518 171.09 17.8946 171.09 17.9377C171.09 20.0285 171.13 22.1751 171.174 24.452V24.5389C171.22 26.9213 171.267 29.375 171.267 31.8722C171.585 40.8459 170.313 49.8052 167.51 58.3357Z" fill="#DD6E00"/>
<path d="M172.262 25.3787C172.219 23.1855 172.182 21.1165 172.182 19.1157C172.182 18.7424 172.109 18.3727 171.966 18.0278C171.824 17.6828 171.614 17.3695 171.35 17.1055C171.086 16.8416 170.773 16.6323 170.428 16.4896C170.083 16.347 169.713 16.2738 169.34 16.2742C163.996 16.5279 158.656 15.6838 153.651 13.7941C148.645 11.9043 144.08 9.00901 140.237 5.28671C139.707 4.77129 138.997 4.48291 138.258 4.48291C137.518 4.48291 136.808 4.77129 136.279 5.28671C132.434 9.00708 127.869 11.9003 122.863 13.7879C117.858 15.6755 112.519 16.5175 107.175 16.2618C106.421 16.2618 105.699 16.5611 105.166 17.094C104.633 17.6269 104.334 18.3496 104.334 19.1032C104.334 21.1041 104.296 23.1762 104.253 25.3663C103.865 45.753 103.322 73.6745 137.324 85.4592C137.623 85.5625 137.938 85.6149 138.255 85.6143C138.571 85.6153 138.886 85.5629 139.185 85.4592C173.184 73.6714 172.65 45.753 172.259 25.3663L172.262 25.3787Z" fill="url(#paint0_linear)"/>
<path d="M287 82C287 67.7295 222.753 41 143.5 41C64.2471 41 0 67.7295 0 82C0 82 64.2471 82 143.5 82C222.753 82 287 82 287 82Z" fill="url(#paint1_linear)" fill-opacity="0.15"/>
<path d="M181 92.8533C181 87.4115 161.972 85 138.5 85C115.028 85 96 87.4115 96 92.8533C96 98.2951 115.028 101 138.5 101C161.972 101 181 98.2951 181 92.8533Z" fill="#F78D8D" fill-opacity="0.15"/>
<circle cx="137.5" cy="45.5" r="16.5" fill="url(#paint2_linear)"/>
<rect x="130.104" y="50.1228" width="16.998" height="3.41379" rx="1.7069" transform="rotate(-45 130.104 50.1228)" fill="white"/>
<rect width="16.998" height="3.41379" rx="1.7069" transform="matrix(-0.707107 -0.707107 -0.707107 0.707107 144.896 50.1228)" fill="white"/>
<defs>
<linearGradient id="paint0_linear" x1="138.256" y1="4.48291" x2="138.256" y2="86" gradientUnits="userSpaceOnUse">
<stop stop-color="#FFBF74"/>
<stop offset="0.0001" stop-color="#FFBE73" stop-opacity="0.979167"/>
<stop offset="0.0002" stop-color="#FFBF74"/>
<stop offset="0.9996" stop-color="#F4973B"/>
<stop offset="0.9997" stop-color="#F4983C" stop-opacity="0.0212354"/>
<stop offset="0.9998" stop-color="#F4983C" stop-opacity="0.0183554"/>
<stop offset="0.9999" stop-color="#F4983C" stop-opacity="0.0150649"/>
<stop offset="1" stop-color="#F4973B"/>
</linearGradient>
<linearGradient id="paint1_linear" x1="143.03" y1="39.5561" x2="143.03" y2="81.7901" gradientUnits="userSpaceOnUse">
<stop stop-color="#F78D8D"/>
<stop offset="1" stop-color="white"/>
</linearGradient>
<linearGradient id="paint2_linear" x1="122.587" y1="45.5" x2="153.463" y2="45.8527" gradientUnits="userSpaceOnUse">
<stop stop-color="#EA553F"/>
<stop offset="1" stop-color="#D32A30"/>
</linearGradient>
</defs>
</svg>
