<svg width="20" height="20" viewBox="0 0 20 20" fill="none" xmlns="http://www.w3.org/2000/svg">
<mask id="mask0" style="mask-type:alpha" maskUnits="userSpaceOnUse" x="4" y="4" width="12" height="12">
<rect width="12" height="12" transform="matrix(0 1 1 0 4 4)" fill="#C4C4C4"/>
</mask>
<g mask="url(#mask0)">
<path d="M8.26541 14.5065C8.39664 14.5083 8.52463 14.4674 8.62868 14.3906L14.2785 10.1284C14.3463 10.0772 14.4013 10.012 14.4394 9.93767C14.4776 9.86331 14.4979 9.78165 14.499 9.6987C14.5 9.61575 14.4817 9.53361 14.4455 9.45831C14.4092 9.38302 14.3558 9.31649 14.2894 9.26361L8.77175 4.8842C8.71319 4.83783 8.64571 4.803 8.57318 4.7817C8.50065 4.7604 8.42449 4.75306 8.34904 4.76008C8.19665 4.77427 8.05643 4.84612 7.95921 4.95984C7.86198 5.07355 7.81573 5.21982 7.83062 5.36645C7.84551 5.51308 7.92032 5.64808 8.0386 5.74174L13.0021 9.68052L7.91603 13.5149C7.82203 13.5857 7.75324 13.6828 7.71914 13.7929C7.68504 13.903 7.68733 14.0206 7.72568 14.1295C7.76403 14.2383 7.83656 14.3331 7.93325 14.4006C8.02993 14.4681 8.146 14.5051 8.26541 14.5065Z" fill="#727272" stroke="#727272" stroke-width="0.2"/>
</g>
</svg>
