<svg width="22" height="22" viewBox="0 0 22 22" fill="none" xmlns="http://www.w3.org/2000/svg">
<g clip-path="url(#clip0)">
<path d="M9.93067 6.6487C9.92419 6.43542 9.98158 6.22506 10.0955 6.04463C10.2094 5.8642 10.3746 5.72192 10.57 5.63606C10.7653 5.55019 10.9818 5.52465 11.1918 5.56272C11.4017 5.60079 11.5955 5.70073 11.7483 5.84971C11.901 5.99869 12.0058 6.18992 12.0491 6.39886C12.0924 6.6078 12.0723 6.82491 11.9913 7.02234C11.9104 7.21976 11.7723 7.38849 11.5948 7.50688C11.4172 7.62526 11.2084 7.6879 10.995 7.68675C10.8565 7.69009 10.7188 7.66571 10.5899 7.61506C10.461 7.5644 10.3435 7.48849 10.2443 7.39178C10.1452 7.29507 10.0663 7.17951 10.0125 7.0519C9.95861 6.9243 9.9308 6.78721 9.93067 6.6487ZM10.0033 9.83525C10.1725 8.6981 11.8176 8.6981 11.9867 9.83525V15.9837C11.8176 17.1208 10.1725 17.1208 10.0033 15.9837V9.83525Z" fill="#727272"/>
<path d="M11.0002 1.7692C13.1347 1.77022 15.2029 2.51128 16.8524 3.86614C18.5019 5.221 19.6306 7.10584 20.0463 9.19955C20.4619 11.2933 20.1388 13.4663 19.132 15.3485C18.1252 17.2308 16.4969 18.7057 14.5246 19.522C12.5523 20.3384 10.3579 20.4456 8.31541 19.8256C6.27288 19.2055 4.50851 17.8965 3.32289 16.1214C2.13726 14.3464 1.60372 12.2152 1.81317 10.0909C2.02262 7.96667 2.9621 5.98072 4.47155 4.47142C5.327 3.61165 6.3445 2.93011 7.46515 2.46627C8.5858 2.00243 9.78732 1.7655 11.0002 1.7692ZM11.0002 0.333374C8.8905 0.333374 6.82821 0.958963 5.07408 2.13103C3.31996 3.3031 1.95279 4.969 1.14545 6.91808C0.338118 8.86716 0.126882 11.0119 0.538458 13.081C0.950033 15.1501 1.96594 17.0508 3.4577 18.5425C4.94945 20.0343 6.85007 21.0502 8.9192 21.4617C10.9883 21.8733 13.133 21.6621 15.0821 20.8547C17.0312 20.0474 18.6971 18.6802 19.8692 16.9261C21.0412 15.172 21.6668 13.1097 21.6668 11C21.667 9.59923 21.3912 8.2121 20.8552 6.91789C20.3192 5.62368 19.5335 4.44773 18.543 3.45721C17.5525 2.46668 16.3765 1.68099 15.0823 1.14499C13.7881 0.609002 12.401 0.333212 11.0002 0.333374Z" fill="#727272" stroke="#727272" stroke-width="0.2"/>
</g>
<defs>
<clipPath id="clip0">
<rect width="21.6" height="21.6" fill="white" transform="translate(0.200195 0.199951)"/>
</clipPath>
</defs>
</svg>
