<svg width="24" height="25" viewBox="0 0 24 25" fill="none" xmlns="http://www.w3.org/2000/svg">
<mask id="mask0" mask-type="alpha" maskUnits="userSpaceOnUse" x="0" y="0" width="24" height="25">
<rect width="24" height="24.2988" fill="#C4C4C4"/>
</mask>
<g mask="url(#mask0)">
</g>
<g clip-path="url(#clip0)">
<path d="M12 22.3803C7.12441 22.3803 3.1582 18.3648 3.1582 13.4285C3.1582 8.49214 7.12441 4.47656 12 4.47656C16.8757 4.47656 20.8419 8.49214 20.8419 13.4285C20.8419 18.3648 16.8757 22.3803 12 22.3803ZM12 5.7554C7.82073 5.7554 4.42132 9.19807 4.42132 13.4285C4.42132 17.6588 7.82073 21.1015 12 21.1015C16.1792 21.1015 19.5787 17.6588 19.5787 13.4285C19.5787 9.19807 16.1792 5.7554 12 5.7554Z" fill="#DE181F"/>
<path d="M17.2627 14.0679H11.9997C11.6511 14.0679 11.3682 13.7815 11.3682 13.4285V8.31313C11.3682 7.96017 11.6511 7.67371 11.9997 7.67371C12.3483 7.67371 12.6313 7.96017 12.6313 8.31313V12.7891H17.2627C17.6113 12.7891 17.8942 13.0755 17.8942 13.4285C17.8942 13.7815 17.6113 14.0679 17.2627 14.0679Z" fill="#DE181F"/>
<path d="M3.12066 7.4606C2.95892 7.4606 2.79733 7.39831 2.67428 7.27296C2.42758 7.02318 2.42758 6.61824 2.67428 6.36846L6.3508 2.81917C6.5975 2.5694 6.99747 2.5694 7.24417 2.81917C7.49087 3.06895 7.49087 3.47389 7.24417 3.72382L3.56781 7.27296C3.444 7.39831 3.28225 7.4606 3.12066 7.4606Z" fill="#DE181F"/>
<path d="M21.6102 6.90773C21.6102 7.07149 21.5487 7.23509 21.4249 7.35967C21.1782 7.60944 20.7782 7.60944 20.5315 7.35967L17.0259 3.63739C16.7792 3.38762 16.7792 2.98267 17.0259 2.7329C17.2726 2.48312 17.6725 2.48312 17.9194 2.7329L21.4249 6.45502C21.5487 6.58037 21.6102 6.74413 21.6102 6.90773Z" fill="#DE181F"/>
</g>
<defs>
<clipPath id="clip0">
<rect width="20.2105" height="20.4621" fill="white" transform="translate(1.89453 1.91833)"/>
</clipPath>
</defs>
</svg>
