<svg width="38" height="42" viewBox="0 0 38 42" fill="none" xmlns="http://www.w3.org/2000/svg">
<mask id="path-1-inside-1" fill="white">
<path fill-rule="evenodd" clip-rule="evenodd" d="M4 0C1.79086 0 0 1.79086 0 4V37C0 39.2091 1.79086 41 4 41H21.4501C19.3258 38.9945 18 36.1521 18 33C18 26.9249 22.9249 22 29 22C30.04 22 31.0463 22.1443 32 22.4141V4C32 1.79086 30.2091 0 28 0H4Z"/>
</mask>
<path fill-rule="evenodd" clip-rule="evenodd" d="M4 0C1.79086 0 0 1.79086 0 4V37C0 39.2091 1.79086 41 4 41H21.4501C19.3258 38.9945 18 36.1521 18 33C18 26.9249 22.9249 22 29 22C30.04 22 31.0463 22.1443 32 22.4141V4C32 1.79086 30.2091 0 28 0H4Z" fill="#FFC76F"/>
<path d="M21.4501 41V42H23.9661L22.1366 40.2729L21.4501 41ZM32 22.4141L31.7278 23.3763L33 23.7361V22.4141H32ZM1 4C1 2.34315 2.34315 1 4 1V-1C1.23858 -1 -1 1.23858 -1 4H1ZM1 37V4H-1V37H1ZM4 40C2.34315 40 1 38.6569 1 37H-1C-1 39.7614 1.23858 42 4 42V40ZM21.4501 40H4V42H21.4501V40ZM22.1366 40.2729C20.204 38.4484 19 35.8656 19 33H17C17 36.4385 18.4475 39.5406 20.7636 41.7271L22.1366 40.2729ZM19 33C19 27.4772 23.4772 23 29 23V21C22.3726 21 17 26.3726 17 33H19ZM29 23C29.9471 23 30.8619 23.1314 31.7278 23.3763L32.2722 21.4518C31.2308 21.1573 30.1329 21 29 21V23ZM31 4V22.4141H33V4H31ZM28 1C29.6569 1 31 2.34315 31 4H33C33 1.23858 30.7614 -1 28 -1V1ZM4 1H28V-1H4V1Z" fill="#B16600" mask="url(#path-1-inside-1)"/>
<circle cx="29" cy="33" r="9" fill="url(#paint0_linear)"/>
<rect x="28" y="29" width="2" height="8" rx="1" fill="white"/>
<rect x="25" y="34" width="2" height="8" rx="1" transform="rotate(-90 25 34)" fill="white"/>
<rect x="5" y="10" width="2" height="21" rx="1" transform="rotate(-90 5 10)" fill="#D64B07"/>
<rect x="5" y="16" width="2" height="15" rx="1" transform="rotate(-90 5 16)" fill="#D64B07"/>
<defs>
<linearGradient id="paint0_linear" x1="29" y1="24" x2="29" y2="42" gradientUnits="userSpaceOnUse">
<stop stop-color="#E1590A"/>
<stop offset="1" stop-color="#C23102"/>
</linearGradient>
</defs>
</svg>
