<svg width="54" height="59" viewBox="0 0 54 59" fill="none" xmlns="http://www.w3.org/2000/svg">
<path d="M30.9971 43.1679L30.997 43.168L29.633 45.5056L29.0569 44.8806C29.0569 44.8806 29.0569 44.8806 29.0569 44.8806C28.5728 45.3268 27.9487 45.553 27.318 45.553C26.6875 45.553 26.0633 45.3268 25.5793 44.8806L25.5793 44.8806C25.0511 44.3938 24.392 43.8216 23.6446 43.1727L23.6393 43.1681C20.9253 40.812 17.1098 37.4968 13.9687 33.4778C10.8234 29.4534 8.42931 24.8165 8.42931 19.8257C8.42931 14.8517 10.3902 10.1773 13.9577 6.65642C17.5256 3.1353 22.2676 1.1959 27.3181 1.1959C32.3687 1.1959 37.1106 3.13529 40.6784 6.65642C44.246 10.1773 46.2068 14.8517 46.2069 19.8257C46.2069 24.8164 43.8129 29.4533 40.6676 33.4777C37.527 37.4961 33.7121 40.811 30.9981 43.1671C30.9978 43.1674 30.9974 43.1676 30.9971 43.1679Z" stroke="white" stroke-width="1.7"/>
<circle cx="27.3241" cy="18.4394" r="7.37449" stroke="white" stroke-width="1.7"/>
<path d="M11.3851 41.2046H6.85457C6.415 41.2046 6.02697 41.4916 5.89834 41.912L1.39556 56.6263C1.19887 57.269 1.67962 57.9189 2.35179 57.9189H51.6482C52.3204 57.9189 52.8011 57.269 52.6044 56.6263L48.1017 41.912C47.973 41.4916 47.585 41.2046 47.1454 41.2046H42.6149" stroke="white" stroke-width="1.7" stroke-linecap="round" stroke-linejoin="round"/>
</svg>
