<svg width="40" height="10" viewBox="0 0 40 10" fill="none" xmlns="http://www.w3.org/2000/svg">
<path fill-rule="evenodd" clip-rule="evenodd" d="M23.0867 7.96926C23.4041 7.6433 23.5621 7.20972 23.5621 6.6679C23.5621 6.13531 23.4102 5.70542 23.1064 5.377C22.7891 5.04059 22.3537 4.87208 21.7977 4.87208C21.2417 4.87208 20.8051 5.0369 20.4883 5.36778C20.1716 5.69804 20.0142 6.13223 20.0142 6.6679C20.0142 7.20111 20.1728 7.63285 20.4926 7.96249C20.8106 8.29336 21.2466 8.45819 21.7977 8.45819C22.3401 8.45819 22.7694 8.29582 23.0867 7.96926ZM21.7958 5.62485C22.3524 5.62485 22.6304 5.97048 22.6304 6.66544C22.6304 7.35917 22.3524 7.70665 21.7958 7.70665C21.2356 7.70665 20.9545 7.35917 20.9545 6.66544C20.9545 5.97048 21.2356 5.62485 21.7958 5.62485ZM39.0818 3.39115C39.3125 3.29459 39.5136 3.13899 39.6692 2.94158C39.9232 2.61624 40.0289 2.21341 39.9933 1.82534C39.9545 1.05043 39.3198 0.434195 38.5437 0.434195H38.5326C38.1101 0.434195 37.6907 0.623617 37.4016 0.991391C37.2596 1.17282 37.1661 1.38991 37.1169 1.61562C37.0886 1.74589 37.0804 1.87773 37.0721 2.00937C37.065 2.12385 37.0579 2.23818 37.0376 2.35117C36.9976 2.57749 36.9342 2.79889 36.8469 3.01107C36.4717 3.93297 35.6286 4.51353 34.6224 4.51353C34.1329 4.51353 33.6519 4.35732 33.2546 4.06888C32.5074 3.52768 31.9293 2.49631 31.647 1.623C31.6344 1.58393 31.622 1.54508 31.6097 1.50649C31.4774 1.09071 31.3547 0.705457 31.008 0.407749C30.7805 0.212177 30.5179 0.088561 30.2479 0.0350554C30.1476 0.0129151 30.0455 0 29.9367 0C29.4109 0 28.9398 0.250923 28.6316 0.644527C28.631 0.645142 28.6306 0.645911 28.6301 0.646679C28.6296 0.647448 28.6292 0.648217 28.6286 0.648832C28.6218 0.656118 28.6167 0.663405 28.6111 0.671156L28.6095 0.673432L28.6094 0.673579C28.6008 0.685215 28.5922 0.696854 28.5837 0.709103C28.5695 0.728168 28.556 0.747848 28.5431 0.768143C28.5419 0.769988 28.5406 0.771218 28.5394 0.772448C28.0498 1.52091 28.1827 2.55228 28.866 3.14084C29.0898 3.33334 29.3364 3.42251 29.596 3.46618C29.7054 3.49016 29.8198 3.50246 29.9367 3.50246H29.9373C30.035 3.50795 30.1336 3.51061 30.2324 3.51328C30.4217 3.5184 30.6121 3.52354 30.7995 3.54859C31.8002 3.68327 33.0111 4.20418 33.3979 5.22202C33.4933 5.47417 33.5554 5.77676 33.5554 6.04859C33.5554 6.19496 33.5345 6.32411 33.4957 6.43666C33.4367 6.68943 33.3229 6.94588 33.1292 7.08857C32.9623 7.21051 32.7662 7.2446 32.5697 7.27873C32.3868 7.31052 32.2036 7.34235 32.0437 7.44527C31.9521 7.5037 31.8715 7.57934 31.8045 7.66483C31.7104 7.78475 31.6476 7.92128 31.6138 8.06335C31.5917 8.14822 31.5794 8.23678 31.5794 8.32842C31.5794 8.89054 32.0173 9.34564 32.5578 9.34564C32.6735 9.34564 32.7836 9.3235 32.8856 9.28537C33.0505 9.22571 33.203 9.12116 33.3211 8.96864C33.5166 8.72018 33.5812 8.40407 33.5222 8.11132C33.4693 7.84195 33.492 7.45511 33.6753 7.2374C33.8475 7.03322 34.112 6.95326 34.3654 6.9139C34.4721 6.89762 34.5807 6.89238 34.6893 6.88714C34.8556 6.87913 35.0219 6.87111 35.1815 6.8235C35.4158 6.754 35.6243 6.61071 35.7768 6.41759C35.9133 6.24109 36.0142 6.02337 36.0535 5.80259C36.2829 4.51292 36.7368 3.55474 38.3555 3.48709C38.394 3.48554 38.4326 3.48448 38.4712 3.48342C38.6787 3.47773 38.8864 3.47203 39.0818 3.39115ZM2.22448 8.44399L3.55966 4.88802H2.66359L1.77737 7.30561L0.891759 4.88802H0L1.33087 8.44399H2.22448ZM3.99016 4.4569H4.87946V3.55715H3.99016V4.4569ZM3.99016 8.44399H4.87946V4.88126H3.99016V8.44399ZM11.1445 8.44891H11.9871V6.28286C11.9871 5.36711 11.5 4.90524 10.5265 4.89663C10.238 4.89663 9.98155 4.93907 9.754 5.02455C9.50923 5.11803 9.33211 5.24965 9.22202 5.41939C9.11317 5.58851 9.04736 5.81238 9.02706 6.0879H9.89238C9.90898 5.92615 9.97787 5.80008 10.099 5.71213C10.2066 5.63033 10.3352 5.58974 10.4865 5.58974C10.6335 5.58974 10.7614 5.62972 10.8715 5.70844C10.9809 5.78716 11.0369 5.89233 11.0369 6.02455C11.0369 6.174 10.853 6.27117 10.4877 6.31853C9.96987 6.38187 9.62731 6.45444 9.45941 6.53562C9.09287 6.70967 8.91083 7.02947 8.91083 7.49319C8.91083 7.8173 9.03076 8.06392 9.27122 8.23366C9.47602 8.3788 9.73863 8.45137 10.056 8.45137C10.5154 8.45137 10.8499 8.33759 11.0603 8.10881C11.0793 8.19479 11.097 8.26321 11.1143 8.32989C11.1245 8.36909 11.1345 8.40769 11.1445 8.44891ZM10.5498 6.89417C10.7761 6.85174 10.9336 6.79393 11.0234 6.72136C11.0234 6.75518 11.0258 6.8093 11.0295 6.88126C11.0338 6.95444 11.0369 7.00918 11.0369 7.04854C11.0369 7.26564 10.9914 7.42984 10.9016 7.54054C10.8333 7.62173 10.7331 7.69061 10.6015 7.74842C10.468 7.80684 10.3401 7.83452 10.2165 7.83452C9.94773 7.83452 9.81243 7.70721 9.81243 7.45075C9.81243 7.25088 9.89238 7.11004 10.0498 7.02947C10.1267 6.98704 10.2927 6.94214 10.5498 6.89417ZM15.6544 7.89417C15.8893 7.58113 16.0062 7.18507 16.0062 6.70844C16.0062 6.35604 15.9502 6.051 15.8376 5.79454C15.7251 5.53685 15.5369 5.32529 15.2725 5.15678C15.0092 4.99011 14.7226 4.90647 14.4158 4.90647C13.8001 4.90647 13.337 5.42492 13.337 5.42492C13.3321 5.42 13.337 4.90278 13.337 4.90278H12.4502V9.34251H13.3481V7.91447C13.6771 8.26564 14.0338 8.4403 14.4852 8.4403H14.492C14.9951 8.43538 15.3832 8.25395 15.6544 7.89417ZM14.1765 5.68261C14.7325 5.68261 15.0117 6.02578 15.0117 6.70844C15.0117 7.02886 14.9244 7.28286 14.7479 7.47043C14.5972 7.63649 14.4084 7.72013 14.1839 7.72013C13.9619 7.72013 13.7743 7.63956 13.6175 7.47658C13.4477 7.297 13.3616 7.05776 13.3616 6.75764C13.3616 6.04177 13.6335 5.68261 14.1765 5.68261ZM18.6495 8.4526H19.5627V5.97166C19.5627 5.61557 19.4379 5.33944 19.1888 5.14694C18.9699 4.97904 18.6974 4.89479 18.3715 4.89479C18.1439 4.89479 17.9354 4.93907 17.746 5.02947C17.5578 5.11742 17.4299 5.23673 17.3604 5.38433V3.55469H16.4483V8.4526H17.3604V6.37203C17.3604 6.1494 17.4219 5.96428 17.5437 5.81668C17.6648 5.66969 17.8383 5.59651 18.0603 5.59651C18.2872 5.59651 18.4459 5.65247 18.5363 5.76625C18.6113 5.86404 18.6495 6.03009 18.6495 6.26502V8.4526ZM26.2183 8.4526H27.131V5.97166C27.131 5.61557 27.0068 5.33944 26.7577 5.14694C26.5381 4.97904 26.2663 4.89479 25.9404 4.89479C25.7122 4.89479 25.5043 4.93907 25.3155 5.02947C25.1267 5.11742 24.9982 5.23673 24.9293 5.38433V4.88864H24.0172V8.4526H24.9293V6.37203C24.9293 6.1494 24.9908 5.96428 25.1119 5.81668C25.2337 5.66969 25.4065 5.59651 25.6285 5.59651C25.8561 5.59651 26.0142 5.65247 26.1046 5.76625C26.1802 5.86404 26.2183 6.03009 26.2183 6.26502V8.4526ZM7.52583 8.4526H8.4385V5.97166C8.4385 5.61557 8.31427 5.33944 8.06458 5.14694C7.84564 4.97904 7.57319 4.89479 7.24785 4.89479C7.01968 4.89479 6.81181 4.93907 6.62239 5.02947C6.4342 5.11742 6.30566 5.23673 6.23617 5.38433V4.88864H5.32411V8.4526H6.23617V6.37203C6.23617 6.1494 6.29828 5.96428 6.41944 5.81668C6.54059 5.66969 6.71403 5.59651 6.93604 5.59651C7.16298 5.59651 7.32165 5.65247 7.41206 5.76625C7.4877 5.86404 7.52583 6.03009 7.52583 6.26502V8.4526ZM28.4299 6.89971H30.711C30.711 5.55838 30.1925 4.88556 29.1568 4.88556C28.6507 4.88556 28.2589 5.04116 27.9785 5.35112C27.6999 5.66231 27.5597 6.07683 27.5597 6.59466C27.5597 7.82345 28.1119 8.43722 29.2177 8.43722C29.5707 8.43722 29.8758 8.34251 30.1316 8.15494C30.3893 7.96674 30.5677 7.70168 30.6661 7.35789H29.7725C29.7393 7.47228 29.6661 7.56268 29.5541 7.63034C29.4428 7.69799 29.3155 7.73058 29.1753 7.73058C28.9853 7.73058 28.8241 7.66847 28.6919 7.543C28.5381 7.3911 28.4502 7.17708 28.4299 6.89971ZM29.5886 5.79823C29.719 5.92984 29.794 6.10942 29.8161 6.33636H28.4607C28.4939 6.10081 28.5763 5.91631 28.7097 5.78593C28.829 5.66416 28.9723 5.60204 29.1378 5.60204C29.3075 5.60204 29.4582 5.66846 29.5886 5.79823Z" fill="#727272"/>
</svg>
