<svg width="54" height="42" viewBox="0 0 54 42" fill="none" xmlns="http://www.w3.org/2000/svg">
<path d="M52.1752 14.295C51.5082 13.6579 50.6247 13.2972 49.7024 13.2855H49.8498V8.08782C49.8412 6.04331 49.0255 4.08494 47.58 2.63897C46.1346 1.193 44.1766 0.376497 42.1321 0.367188H8.22112C6.17611 0.375721 4.21729 1.19188 2.77124 2.63793C1.32518 4.08399 0.509022 6.04281 0.500488 8.08782L0.500488 34.172C0.509022 36.217 1.32518 38.1759 2.77124 39.6219C4.21729 41.068 6.17611 41.8841 8.22112 41.8927H42.1321C44.1771 41.8841 46.1359 41.068 47.582 39.6219C49.028 38.1759 49.8442 36.217 49.8527 34.172V28.9287H49.7053C50.6276 28.9169 51.5112 28.5562 52.1782 27.9192C52.8235 27.2576 53.1856 26.3705 53.1876 25.4463V16.7663C53.1748 15.8442 52.813 14.9611 52.1752 14.295ZM47.0778 34.1263C47.0643 35.4339 46.539 36.684 45.6143 37.6086C44.6897 38.5332 43.4396 39.0586 42.1321 39.072H8.22112C6.9136 39.0586 5.66344 38.5332 4.73884 37.6086C3.81424 36.684 3.28886 35.4339 3.27544 34.1263V8.08782C3.28886 6.7803 3.81424 5.53014 4.73884 4.60554C5.66344 3.68093 6.9136 3.15556 8.22112 3.14213H42.1321C43.4396 3.15556 44.6897 3.68093 45.6143 4.60554C46.539 5.53014 47.0643 6.7803 47.0778 8.08782V13.2855H34.2036C32.1824 13.29 30.2436 14.0874 28.8041 15.5063C28.0977 16.2165 27.5381 17.0589 27.1573 17.9854C26.7765 18.9118 26.5819 19.9042 26.5847 20.9059V21.2596C26.5892 23.2809 27.3866 25.2197 28.8055 26.6592C29.5156 27.3659 30.3579 27.9257 31.2844 28.3068C32.2109 28.6878 33.2033 28.8826 34.2051 28.88H47.0792L47.0778 34.1263ZM50.4083 25.4463C50.4043 25.6333 50.3326 25.8124 50.2064 25.9503C50.142 26.0184 50.0635 26.0717 49.9765 26.1066C49.8895 26.1414 49.796 26.157 49.7024 26.1522H34.2036C33.5668 26.1548 32.9358 26.0312 32.3469 25.7887C31.7581 25.5461 31.2231 25.1894 30.7728 24.7391C30.3225 24.2888 29.9657 23.7538 29.7232 23.1649C29.4807 22.5761 29.3571 21.9451 29.3596 21.3082V20.9545C29.3571 20.3177 29.4807 19.6867 29.7232 19.0978C29.9657 18.509 30.3225 17.974 30.7728 17.5237C31.2231 17.0734 31.7581 16.7167 32.3469 16.4741C32.9358 16.2316 33.5668 16.108 34.2036 16.1106H49.7024C49.8893 16.1145 50.0684 16.1862 50.2064 16.3124C50.2745 16.3769 50.3278 16.4553 50.3626 16.5423C50.3975 16.6293 50.4131 16.7228 50.4083 16.8164V25.4463Z" fill="white"/>
<path d="M34.5567 18.8369C33.9778 18.8518 33.4276 19.0922 33.0235 19.5069C32.6193 19.9217 32.3931 20.4779 32.3931 21.057C32.3931 21.6361 32.6193 22.1922 33.0235 22.607C33.4276 23.0217 33.9778 23.2621 34.5567 23.2771C35.1597 23.2672 35.7375 23.0334 36.1778 22.6213C36.39 22.4087 36.5574 22.1557 36.67 21.8772C36.7827 21.5988 36.8383 21.3005 36.8335 21.0002C36.8237 20.3972 36.5899 19.8194 36.1778 19.3792C35.7026 19.0428 35.1387 18.8541 34.5567 18.8369Z" fill="white"/>
</svg>
