<svg width="28" height="28" viewBox="0 0 28 28" fill="none" xmlns="http://www.w3.org/2000/svg">
<path d="M25.741 19.0735C23.9567 19.0751 22.1828 18.8021 20.4817 18.2641C20.2256 18.1741 19.9488 18.1613 19.6855 18.227C19.4222 18.2928 19.184 18.4343 19.0003 18.6341L15.7404 21.8927C11.5262 19.753 8.10164 16.3286 5.96186 12.1146L9.22176 8.85597C9.40658 8.66233 9.53786 8.42396 9.60274 8.16427C9.66762 7.90458 9.66385 7.63248 9.59181 7.37468C8.99707 5.65976 8.69642 3.85668 8.70253 2.04158C8.70254 1.64849 8.54677 1.27141 8.26935 0.992917C7.99192 0.71442 7.61544 0.557194 7.22234 0.555664H2.03703C1.64452 0.556884 1.26844 0.713339 0.990899 0.990871C0.713356 1.2684 0.556894 1.64447 0.555674 2.03695C0.552784 5.34506 1.20224 8.62127 2.46688 11.6781C3.73152 14.735 5.58653 17.5125 7.92576 19.8517C10.265 22.191 13.0425 24.046 16.0995 25.3108C19.1564 26.5755 22.4327 27.2251 25.741 27.2223C26.1335 27.2211 26.5096 27.0646 26.7871 26.7871C27.0646 26.5096 27.2211 26.1335 27.2223 25.741V20.5606C27.2226 20.1671 27.0668 19.7895 26.7891 19.5108C26.5114 19.232 26.1345 19.0747 25.741 19.0735Z" fill="white"/>
</svg>
