<svg width="76" height="12" viewBox="0 0 76 12" fill="none" xmlns="http://www.w3.org/2000/svg">
<path fill-rule="evenodd" clip-rule="evenodd" d="M47.665 6.69278C48.2089 6.79739 48.6155 6.96454 48.8853 7.19416C49.2584 7.51407 49.4455 7.90613 49.4455 8.3687C49.4455 8.72013 49.3224 9.05743 49.0757 9.37937C48.8288 9.70081 48.4912 9.93599 48.0619 10.084C47.6316 10.232 46.9764 10.3061 46.0932 10.3061H42.3948V10.1127H42.6897C43.0171 10.1127 43.2522 10.0185 43.3946 9.83115C43.4832 9.70889 43.5275 9.44919 43.5275 9.05265V4.47852C43.5275 4.0404 43.4717 3.76305 43.3601 3.64886C43.2094 3.49486 42.9866 3.41869 42.6897 3.41869H42.3948V3.22559H45.7815C46.4128 3.22559 46.9199 3.26697 47.3018 3.35115C47.8792 3.47642 48.3206 3.69753 48.6246 4.01718C48.9293 4.33533 49.0805 4.70141 49.0805 5.11533C49.0805 5.47055 48.9616 5.78899 48.723 6.06806C48.4844 6.34862 48.1312 6.55686 47.665 6.69278ZM44.6373 6.41063C44.7799 6.43537 44.9425 6.45372 45.1253 6.46509C45.3087 6.47795 45.5092 6.48353 45.73 6.48353C46.2912 6.48353 46.7147 6.42858 46.9988 6.31939C47.2814 6.20968 47.4974 6.04155 47.6477 5.81543C47.7986 5.58954 47.8735 5.34221 47.8735 5.07424C47.8735 4.65933 47.6861 4.30637 47.3126 4.01496C46.9395 3.72176 46.3942 3.57554 45.677 3.57554C45.2922 3.57554 44.945 3.61333 44.6373 3.69024V6.41063ZM44.6373 9.79408C45.0832 9.88839 45.5257 9.9355 45.9604 9.9355C46.6582 9.9355 47.1897 9.79307 47.5555 9.50895C47.9217 9.22588 48.1046 8.87544 48.1046 8.45745C48.1046 8.18168 48.0217 7.91848 47.8562 7.66435C47.6901 7.40995 47.4205 7.2093 47.0468 7.0633C46.6735 6.91659 46.2105 6.84378 45.6607 6.84378C45.421 6.84378 45.2173 6.84777 45.0475 6.85483C44.8782 6.86143 44.7412 6.87379 44.6373 6.89164V9.79408Z" fill="#AF0B35" stroke="#9D1D26" stroke-width="0.0531427"/>
<path fill-rule="evenodd" clip-rule="evenodd" d="M55.5077 7.93532H52.473L51.9427 9.05262C51.8113 9.32739 51.7453 9.53341 51.7453 9.66848C51.7453 9.77688 51.8026 9.87142 51.9153 9.95311C52.0299 10.0353 52.2763 10.0885 52.6526 10.112V10.3063H50.1851V10.112C50.5121 10.0608 50.7244 9.99248 50.8204 9.90902C51.0175 9.74236 51.2351 9.40257 51.4738 8.89104L54.2306 3.06396H54.4334L57.1609 8.95377C57.3805 9.42671 57.5801 9.73406 57.759 9.87551C57.9379 10.0164 58.1876 10.095 58.5073 10.112V10.3063H55.4148V10.112C55.7278 10.0983 55.9378 10.0524 56.0486 9.97175C56.1578 9.89235 56.2124 9.79402 56.2124 9.67983C56.2124 9.52605 56.1355 9.28457 55.9816 8.95377L55.5077 7.93532ZM55.3457 7.54905L54.0171 4.68751L52.6526 7.54905H55.3457Z" fill="#AF0B35" stroke="#9D1D26" stroke-width="0.0531427"/>
<path fill-rule="evenodd" clip-rule="evenodd" d="M58.4839 3.22559H60.6108L65.4022 8.53585V4.45279C65.4022 4.01817 65.348 3.74641 65.2402 3.63778C65.0978 3.49179 64.8725 3.41889 64.5642 3.41889H64.2916V3.22559H67.0197V3.41889H66.7429C66.4115 3.41889 66.1769 3.50914 66.0373 3.69044C65.9529 3.80163 65.9109 4.05525 65.9109 4.45279V10.4208H65.7029L60.536 4.71877V9.07937C60.536 9.51372 60.5885 9.78549 60.6927 9.89411C60.8381 10.0393 61.064 10.1127 61.3677 10.1127H61.6458V10.3063H58.918V10.1127H59.1903C59.5251 10.1127 59.762 10.022 59.9002 9.84194C59.9846 9.72925 60.0283 9.47591 60.0283 9.07937V4.15531C59.8007 3.91454 59.6276 3.75626 59.5096 3.67986C59.3928 3.60297 59.2204 3.53137 58.9931 3.46583C58.8808 3.43504 58.7118 3.41889 58.4839 3.41889V3.22559Z" fill="#AF0B35" stroke="#9D1D26" stroke-width="0.0531427"/>
<path fill-rule="evenodd" clip-rule="evenodd" d="M70.7255 6.37962L73.6148 8.97424C74.0886 9.40281 74.493 9.69523 74.8276 9.84923C75.164 10.0035 75.4986 10.0916 75.8334 10.113V10.3063H72.1066V10.113C72.3292 10.113 72.4902 10.0789 72.5879 10.0106C72.6872 9.94355 72.7369 9.86666 72.7369 9.78421C72.7369 9.70052 72.7181 9.62612 72.6811 9.5596C72.645 9.49327 72.5244 9.36979 72.3207 9.18899L69.6147 6.77109V9.05286C69.6147 9.41109 69.6401 9.64786 69.6901 9.76306C69.7292 9.85031 69.8099 9.92491 69.933 9.98765C70.0987 10.0708 70.2746 10.113 70.4592 10.113H70.7255V10.3063H67.3843V10.113H67.6613C67.9852 10.113 68.2203 10.0272 68.367 9.85708C68.4589 9.74619 68.5054 9.47791 68.5054 9.05286V4.47875C68.5054 4.11949 68.4805 3.88124 68.4313 3.76326C68.3923 3.67986 68.313 3.60725 68.1929 3.54445C68.0241 3.46054 67.8473 3.41889 67.6613 3.41889H67.3843V3.22559H70.7255V3.41889H70.4592C70.2779 3.41889 70.103 3.45897 69.933 3.53867C69.8131 3.5949 69.731 3.6778 69.6845 3.78927C69.6391 3.90068 69.6147 4.13057 69.6147 4.47875V6.64552C69.6926 6.57978 69.9568 6.35869 70.4067 5.98252C71.5517 5.03564 72.2425 4.40412 72.4822 4.08728C72.5856 3.94785 72.6384 3.82628 72.6384 3.72196C72.6384 3.64148 72.5979 3.57096 72.5163 3.51094C72.4357 3.44919 72.2993 3.41889 72.1066 3.41889H71.9265V3.22559H74.8048V3.41889C74.6365 3.42216 74.4815 3.44361 74.3428 3.4812C74.2039 3.51951 74.0343 3.5944 73.8346 3.70352C73.6341 3.81271 73.3873 3.99016 73.0951 4.2337C73.0099 4.30252 72.6193 4.65953 71.9215 5.30363L70.7255 6.37962Z" fill="#AF0B35" stroke="#9D1D26" stroke-width="0.0531427"/>
<path fill-rule="evenodd" clip-rule="evenodd" d="M20.6828 10.3086H17.5024V9.95592C17.7819 9.93876 18.0139 9.90597 18.1987 9.85608C18.3843 9.80613 18.4763 9.74539 18.4763 9.672C18.4763 9.64206 18.472 9.60624 18.4662 9.56259C18.458 9.51999 18.4476 9.4809 18.4335 9.44817L17.798 7.86673H15.1227C15.0225 8.0989 14.9409 8.30106 14.8783 8.47278C14.8155 8.64493 14.759 8.8043 14.7088 8.95052C14.6615 9.09345 14.6291 9.20943 14.6113 9.29789C14.5939 9.38864 14.5852 9.46174 14.5852 9.51748C14.5852 9.65033 14.6972 9.75367 14.9236 9.82529C15.1499 9.89917 15.4046 9.94275 15.6885 9.95592V10.3086H12.8142V9.95592C12.9074 9.94854 13.024 9.93069 13.1636 9.89789C13.3038 9.86665 13.4183 9.82378 13.5086 9.77181C13.652 9.68236 13.7632 9.58881 13.8426 9.49047C13.9215 9.39221 13.9979 9.2573 14.0742 9.08537C14.4578 8.19975 14.8803 7.20419 15.3435 6.10026C15.8065 4.99554 16.2187 4.01336 16.581 3.15039H17.012L19.5587 9.23915C19.6114 9.3685 19.6727 9.47282 19.7413 9.55229C19.8097 9.63196 19.9039 9.71036 20.0264 9.78597C20.1091 9.83265 20.2166 9.87244 20.3505 9.90368C20.4827 9.93468 20.5929 9.95233 20.6828 9.95592V10.3086ZM17.6046 7.4238L16.4463 4.68776L15.3114 7.4238H17.6046Z" fill="#AF0B35" stroke="#9D1D26" stroke-width="0.0531427"/>
<path fill-rule="evenodd" clip-rule="evenodd" d="M28.3296 7.48806C28.2437 7.49912 28.1279 7.51428 27.9832 7.53572C27.837 7.55737 27.7192 7.58859 27.6298 7.62769C27.5223 7.67735 27.4454 7.74845 27.4009 7.83871C27.3565 7.92997 27.3344 8.03759 27.3344 8.16064V8.70749C27.3344 9.10524 27.3361 9.37399 27.3419 9.51315C27.347 9.65334 27.3532 9.76654 27.3602 9.8563C26.8832 10.0557 26.4077 10.2075 25.9346 10.3144C25.4599 10.4197 24.9959 10.4734 24.54 10.4734C24.0519 10.4734 23.5812 10.3887 23.13 10.2193C22.6776 10.0499 22.2835 9.81041 21.9459 9.49805C21.6045 9.1832 21.3334 8.79974 21.133 8.34924C20.9312 7.89768 20.8323 7.39372 20.8323 6.83632C20.8323 6.29914 20.9275 5.8012 21.1194 5.34163C21.3111 4.88305 21.5829 4.48422 21.935 4.14542C22.2752 3.81413 22.6816 3.55601 23.1539 3.37199C23.6253 3.1882 24.1308 3.09595 24.6689 3.09595C25.1002 3.09595 25.4755 3.14433 25.7942 3.24037C26.1138 3.33619 26.3954 3.45189 26.64 3.58853L26.8603 3.24943H27.2911L27.3384 5.7178H26.898C26.8224 5.44503 26.7285 5.17827 26.6182 4.91456C26.5067 4.65038 26.3627 4.41469 26.1868 4.20517C26.0113 3.99671 25.7968 3.82979 25.5438 3.70602C25.2906 3.58095 24.9889 3.51893 24.6375 3.51893C24.2534 3.51893 23.9105 3.59102 23.6085 3.73553C23.3076 3.87895 23.0459 4.09426 22.8231 4.37939C22.6035 4.65467 22.4357 4.99776 22.3178 5.40923C22.1988 5.82064 22.1395 6.27998 22.1395 6.78665C22.1395 7.23543 22.1973 7.65721 22.3134 8.05274C22.4314 8.44907 22.6008 8.79115 22.8231 9.08029C23.0459 9.37579 23.3234 9.60717 23.6565 9.77712C23.9908 9.94526 24.3699 10.0302 24.793 10.0302C25.109 10.0302 25.3963 9.98615 25.6571 9.89661C25.917 9.80635 26.1017 9.71259 26.2085 9.61226C26.2373 9.44054 26.2532 9.26637 26.2542 9.08965C26.2562 8.91413 26.2572 8.76542 26.2572 8.64237V8.25492C26.2572 8.11498 26.2371 7.99173 26.1957 7.88431C26.1547 7.77568 26.0691 7.6978 25.9392 7.64684C25.8208 7.59846 25.6608 7.56067 25.4576 7.53572C25.2557 7.51071 25.0957 7.49562 24.9816 7.48806V7.12602H28.3296V7.48806Z" fill="#AF0B35" stroke="#9D1D26" stroke-width="0.0531427"/>
<path fill-rule="evenodd" clip-rule="evenodd" d="M36.9227 10.3086H34.8658C34.4107 9.64906 33.9987 9.07835 33.6304 8.59806C33.2632 8.11734 32.8631 7.62019 32.4332 7.10995H31.6528V9.34857C31.6528 9.46404 31.6724 9.56717 31.712 9.65435C31.751 9.74288 31.8356 9.8102 31.9645 9.85609C32.0293 9.87874 32.1428 9.90097 32.3044 9.9201C32.4654 9.94027 32.601 9.95233 32.7128 9.95592V10.3086H29.4834V9.95592C29.5693 9.94854 29.6934 9.93798 29.8582 9.9201C30.0212 9.90395 30.134 9.88332 30.1995 9.85609C30.307 9.8137 30.3844 9.75017 30.4334 9.66671C30.4821 9.58404 30.505 9.4779 30.505 9.34857V4.24504C30.505 4.12906 30.4884 4.02624 30.4525 3.9367C30.4168 3.84723 30.3317 3.7794 30.1995 3.73202C30.1097 3.7028 29.9926 3.67557 29.8499 3.65164C29.7057 3.62591 29.5831 3.60924 29.4834 3.60296V3.24951H33.0087C33.332 3.24951 33.6334 3.28073 33.9186 3.34148C34.203 3.40329 34.4582 3.50214 34.689 3.63876C34.911 3.77033 35.0889 3.94426 35.2218 4.15779C35.3544 4.37233 35.4197 4.62922 35.4197 4.93128C35.4197 5.20378 35.376 5.44433 35.2859 5.65277C35.1956 5.8613 35.0636 6.04253 34.8875 6.19503C34.7257 6.33802 34.5325 6.4613 34.3059 6.5649C34.0796 6.67025 33.8301 6.75921 33.5578 6.8311C33.9351 7.29268 34.2479 7.68093 34.4976 7.9958C34.7466 8.31116 35.053 8.69411 35.415 9.14461C35.573 9.34428 35.7159 9.49048 35.8428 9.58502C35.9707 9.67907 36.0973 9.75675 36.2231 9.8167C36.3163 9.85959 36.4328 9.89339 36.5718 9.91503C36.7129 9.93877 36.8293 9.95233 36.9227 9.95592V10.3086ZM34.0914 5.0455C34.0914 4.61715 33.9585 4.27907 33.6925 4.02902C33.427 3.77789 33.0517 3.65363 32.5683 3.65363H31.6528V6.68239H32.3576C32.8527 6.68239 33.2647 6.5361 33.5953 6.24191C33.9259 5.94848 34.0914 5.54965 34.0914 5.0455Z" fill="#AF0B35" stroke="#9D1D26" stroke-width="0.0531427"/>
<path fill-rule="evenodd" clip-rule="evenodd" d="M41.1067 10.3087H37.6675V9.99082C37.7647 9.98447 37.9039 9.9764 38.087 9.96411C38.2699 9.95244 38.4 9.9343 38.4751 9.91115C38.5929 9.87228 38.6788 9.81811 38.7324 9.75208C38.7869 9.68476 38.814 9.5915 38.814 9.47245V4.29761C38.814 4.19219 38.7952 3.89121 38.7537 3.82089C38.7158 3.74979 38.6218 3.69127 38.4751 3.64367C38.3671 3.60758 38.2314 3.57434 38.0682 3.54334C37.9054 3.51182 37.7715 3.49287 37.6675 3.48709V3.16943H41.1067V3.48709C40.9954 3.49038 40.8625 3.50045 40.7083 3.52089C40.5536 3.54027 40.4192 3.56469 40.3046 3.5945C40.1685 3.63079 40.078 3.68855 40.0303 3.76923C39.9838 3.85061 39.9612 3.93909 39.9612 4.03743V9.42278C39.9612 9.52112 39.9863 9.60837 40.0383 9.68477C40.0909 9.76087 40.179 9.82138 40.3046 9.86597C40.3795 9.8887 40.5036 9.91514 40.6739 9.94437C40.8444 9.97189 40.9884 9.98824 41.1067 9.99082V10.3087Z" fill="#AF0B35" stroke="#9D1D26" stroke-width="0.0531427"/>
<path fill-rule="evenodd" clip-rule="evenodd" d="M11.0842 1.45702C11.0842 1.19609 10.871 0.984375 10.6083 0.984375H1.47668C1.21272 0.984375 1 1.19609 1 1.45702V10.5115C1 10.7742 1.21272 10.9844 1.47668 10.9844H10.6083C10.871 10.9844 11.0842 10.7742 11.0842 10.5115V1.45702Z" fill="white" stroke="#C4C6C8" stroke-width="0.114674"/>
<path fill-rule="evenodd" clip-rule="evenodd" d="M4.51562 10.5069L9.93373 10.5074C10.2989 10.5074 10.5996 10.2098 10.5996 9.84755L10.6009 4.47217L4.51562 10.5069Z" fill="#00422B"/>
<path fill-rule="evenodd" clip-rule="evenodd" d="M10.6017 2.12301C10.6017 1.75303 10.3002 1.4624 9.93503 1.4624H7.94116L1.48267 7.87521V9.84417C1.48267 10.2081 1.77471 10.5062 2.14827 10.5062L4.10951 10.5067L10.6009 4.06854L10.6017 2.12301Z" fill="#AF0B35"/>
<path fill-rule="evenodd" clip-rule="evenodd" d="M2.15019 1.46118C1.77684 1.46118 1.4838 1.75102 1.4838 2.12141L1.48291 7.46525L7.53569 1.46266L2.15019 1.46118Z" fill="#00422B"/>
<path fill-rule="evenodd" clip-rule="evenodd" d="M4.74609 10.4156C4.74609 10.4156 5.09115 10.2771 5.41198 10.2222C5.53332 10.1951 6.23665 10.031 6.2004 9.31358C6.19177 9.12683 5.9111 9.36423 5.9111 9.36423C5.9111 9.36423 5.35497 9.44183 5.12311 9.58503C5.00745 9.65238 4.74884 9.93682 4.74609 10.4156Z" fill="#FFDC00" stroke="#9D1D26" stroke-width="0.114674"/>
<path fill-rule="evenodd" clip-rule="evenodd" d="M7.13247 8.11646C7.13247 8.11646 7.26322 8.92913 6.61201 9.18768C6.33507 9.30156 5.92015 9.42932 5.85597 9.49423C5.85597 9.49423 5.70787 8.92913 6.18915 8.58975C6.3437 8.47939 6.66053 8.37346 6.86416 8.29989C7.06064 8.22858 7.13247 8.11646 7.13247 8.11646Z" fill="#FFDC00" stroke="#9D1D26" stroke-width="0.114674"/>
<path fill-rule="evenodd" clip-rule="evenodd" d="M7.46905 7.11182C7.46905 7.11182 7.87525 7.60433 7.41974 8.16867C7.32187 8.2989 6.8346 8.61213 6.71201 8.75808C6.71201 8.75808 6.46898 8.23329 6.76207 7.80616C6.84233 7.68461 7.11976 7.45959 7.24159 7.37059C7.36378 7.28038 7.46905 7.11182 7.46905 7.11182Z" fill="#FFDC00" stroke="#9D1D26" stroke-width="0.114674"/>
<path fill-rule="evenodd" clip-rule="evenodd" d="M6.97467 6.03809C6.97467 6.03809 6.59423 6.2583 6.84687 6.88656C6.87116 6.95942 7.16616 7.48246 7.17586 7.62743C7.17586 7.62743 7.703 7.30324 7.48974 6.64217C7.45702 6.52089 7.21124 6.13527 6.97467 6.03809Z" fill="#FFDC00" stroke="#9D1D26" stroke-width="0.114674"/>
<path fill-rule="evenodd" clip-rule="evenodd" d="M6.00461 5.18115C6.00461 5.18115 5.87407 5.57742 6.18375 5.95007C6.31427 6.10199 6.89961 6.28022 7.15205 6.46569C7.15205 6.46569 7.46075 5.46509 6.00461 5.18115Z" fill="#FFDC00" stroke="#9D1D26" stroke-width="0.114674"/>
<path fill-rule="evenodd" clip-rule="evenodd" d="M5.19273 4.47217C5.19273 4.47217 6.45885 4.56242 6.28863 5.71223C6.28863 5.71223 6.00229 5.53422 5.76896 5.44121C5.66742 5.39123 5.16224 5.2329 5.19273 4.76178C5.20116 4.63227 5.19273 4.47217 5.19273 4.47217Z" fill="#FFDC00" stroke="#9D1D26" stroke-width="0.114674"/>
<path fill-rule="evenodd" clip-rule="evenodd" d="M5.21589 3.37959C5.21589 3.37959 4.74431 3.73443 4.97912 4.33102C5.02125 4.44414 5.26526 4.76809 5.39483 4.82475C5.39483 4.82475 5.5417 4.41186 5.63137 4.11347C5.66432 3.99193 5.75399 3.51659 5.45991 3.33089C5.30507 3.24268 5.21589 3.37959 5.21589 3.37959Z" fill="#FFDC00" stroke="#9D1D26" stroke-width="0.114674"/>
<path fill-rule="evenodd" clip-rule="evenodd" d="M5.11793 3.73281C5.11793 3.73281 4.75252 2.66707 6.06195 2.37793C6.06195 2.37793 6.35448 2.78934 5.87537 3.21674C5.74583 3.33782 5.20085 3.612 5.11793 3.73281Z" fill="#FFDC00" stroke="#9D1D26" stroke-width="0.114674"/>
<path fill-rule="evenodd" clip-rule="evenodd" d="M7.15943 1.56819C7.15943 1.56819 5.80099 1.5369 5.8582 2.74365C5.8582 2.74365 6.70884 2.48432 6.93797 2.2342C7.05124 2.1042 7.17454 1.8598 7.15943 1.56819Z" fill="#FFDC00" stroke="#9D1D26" stroke-width="0.114674"/>
</svg>
