<svg width="45" height="15" viewBox="0 0 45 15" fill="none" xmlns="http://www.w3.org/2000/svg">
<g clip-path="url(#clip0_1228_4777)">
<path d="M36.4928 8.28513C36.6173 7.7118 36.9171 7.15902 37.2554 6.69966C37.3777 6.53374 37.7295 6.27092 37.7099 6.04221C37.688 5.78287 37.3195 5.47392 37.1787 5.26885C36.8712 4.82228 36.6449 4.29663 36.5158 3.7609C36.475 3.59228 36.3346 3.20463 36.4248 3.04298C36.511 2.88792 36.8596 2.94181 37.0011 2.95227C37.3791 2.9798 37.7619 3.04182 38.1261 3.15346C38.3007 3.20696 38.5598 3.36124 38.7417 3.3217C38.9938 3.26704 39.2307 2.75574 39.3999 2.5623C39.8139 2.08859 40.3334 1.67653 40.8846 1.40207C40.7569 1.08033 40.4852 0.8144 40.2312 0.601194C38.8068 -0.596635 36.5598 0.141444 36.0541 2.02076C35.7968 2.97747 36.0202 4.04776 36.4299 4.92113C36.5489 5.17504 36.6926 5.42817 36.8519 5.65572C36.9258 5.76116 37.0775 5.90071 37.0775 6.04259C37.0775 6.20424 36.8818 6.38527 36.7966 6.50661C36.5398 6.87177 36.3324 7.27841 36.1814 7.70521C36.1414 7.81763 36.0177 8.06495 36.0959 8.1793C36.1643 8.27815 36.3884 8.27079 36.4928 8.28513ZM36.602 3.1806C36.6151 3.84774 37.3478 3.64965 37.8361 3.77912C38.1454 3.8613 38.7279 4.28345 39.0262 4.21096C39.2434 4.15824 39.5075 3.48606 39.6538 3.29689C40.137 2.67278 40.7136 2.3049 41.3569 1.90485C41.4806 2.38708 41.6625 2.83094 41.7138 3.33566C41.7451 3.63841 41.6647 4.1377 41.7782 4.40983C41.8339 4.54279 42.0042 4.56411 42.1195 4.60636C42.4091 4.71374 42.6882 4.84205 42.9541 5.00409C43.263 5.1921 43.5599 5.4084 43.8251 5.66231C43.9117 5.74527 44.0485 5.95266 44.185 5.91312C44.3432 5.86738 44.4433 5.56618 44.5037 5.42391C44.7329 4.88159 44.8519 4.27454 44.7736 3.68376C44.5713 2.15101 43.2728 1.1846 41.8655 1.28965C40.9436 1.35866 40.1272 2.04789 39.5065 2.71697C39.3238 2.91428 39.0677 3.49963 38.8308 3.58491C38.6693 3.64306 38.3284 3.41629 38.1639 3.36977C37.6393 3.22207 37.1412 3.1806 36.602 3.1806ZM40.8483 2.36848C40.9385 3.02166 41.1171 3.58646 41.1019 4.26329C41.0975 4.44394 40.9509 4.86454 41.0877 5.0037C41.2448 5.16302 41.6905 5.17504 41.9008 5.25024C42.3851 5.42391 42.8453 5.69487 43.2437 6.03484C43.3765 6.14842 43.7498 6.41939 43.7498 6.61903C43.7498 6.78029 43.4264 6.95589 43.3165 7.03419C43.0007 7.25864 42.6565 7.44781 42.3003 7.58737C42.142 7.649 41.8612 7.68079 41.7415 7.81104C41.5952 7.96997 41.696 8.42468 41.6727 8.63363C41.5887 9.39186 41.2237 10.0365 41.1026 10.7606C41.6501 10.9471 42.2428 11.0258 42.8086 10.8804C44.7569 10.3804 45.2215 7.9254 44.1751 6.31356C43.8018 5.73829 43.1499 5.27389 42.5546 4.99362C42.3247 4.88508 41.7047 4.79049 41.5759 4.56488C41.4442 4.33423 41.5439 3.83262 41.5381 3.56824C41.5272 3.10074 41.4049 2.60998 41.2481 2.1762L40.8483 2.36848Z" fill="#FFC72F"/>
<path d="M7.45755 8.67174C7.97055 8.42946 8.42061 8.23292 8.78153 7.74371C9.5976 6.63892 9.48299 4.73286 8.47373 3.81103C7.08644 2.54343 4.71972 2.98728 3.02972 2.98728H1.75923C1.56385 2.98728 1.34737 2.95782 1.18037 3.08962C0.851103 3.35012 0.997 4.14596 0.997 4.53399V13.0413C0.997 13.4786 0.839097 14.3667 1.07013 14.7388C1.3088 15.1237 2.28351 14.9361 2.66662 14.9361H5.53397C6.25909 14.9361 6.98166 14.9706 7.67548 14.702C8.37913 14.4295 8.97509 13.9437 9.33382 13.2343C10.2376 11.4473 9.32764 9.12839 7.45755 8.67174ZM2.95696 4.65029H5.09847C5.63257 4.65029 6.18086 4.63711 6.65894 4.93443C7.59289 5.51474 7.45355 7.25411 6.55015 7.78635C6.11028 8.0453 5.61838 8.01468 5.13485 8.01468H2.95696V4.65029ZM6.84049 13.0308C6.32421 13.3061 5.76719 13.2731 5.20725 13.2731H2.95696V9.48347H5.17087C5.75518 9.48347 6.35114 9.46835 6.87687 9.78816C7.98037 10.4596 7.99966 12.4129 6.84049 13.0308ZM12.2248 3.18498C12.0797 2.98341 11.8472 2.98728 11.6314 2.98728H10.3613V13.8922C10.3613 14.1546 10.2907 14.5554 10.4573 14.7733C10.5967 14.9551 10.8164 14.9361 11.0144 14.9361H12.3209V4.10874C12.3209 3.83158 12.3936 3.41873 12.2248 3.18498ZM22.7767 7.35684C22.6297 6.41796 22.3015 5.47753 21.7412 4.72743C20.5191 3.09078 18.7734 2.98728 16.9666 2.98728H14.426C14.1233 2.98728 13.6765 2.89425 13.4644 3.18459C13.3032 3.40594 13.3734 3.80716 13.3734 4.06998V14.9361H17.003C17.8158 14.9361 18.6381 14.9958 19.4349 14.795C22.4929 14.024 23.2242 10.2142 22.7767 7.35684ZM20.5838 11.1081C20.3856 11.7671 20.0505 12.3796 19.5073 12.7796C18.3819 13.6092 16.629 13.2735 15.3334 13.2735V4.65029C16.633 4.65029 18.3805 4.32738 19.5073 5.17012C21.0925 6.35555 21.119 9.32647 20.5838 11.1081ZM33.6843 3.109C33.6443 2.88766 32.9898 2.98728 32.8271 2.98728C32.0343 2.98728 31.0465 2.80548 30.5575 3.64473C30.0176 4.5716 29.799 5.86091 29.4759 6.89283C28.8439 8.91247 28.1421 10.9151 27.6007 12.9642C27.3882 12.3652 27.2609 11.7179 27.0684 11.1081C26.511 9.34275 25.9522 7.57741 25.3988 5.81051C25.2089 5.20346 25.0088 4.59989 24.8181 3.99284C24.7242 3.6928 24.6631 3.32376 24.4063 3.12839C23.9453 2.77834 22.9196 2.98728 22.3746 2.98728C22.5067 3.92616 22.9771 4.91234 23.2696 5.81013C23.9365 7.8569 24.6111 9.90329 25.254 11.9586C25.4603 12.6176 25.6658 13.2801 25.8936 13.9309C26.0318 14.3263 26.1865 14.6993 26.5849 14.8555C27.0891 15.0528 27.76 14.9361 28.2909 14.9361C28.4499 14.9361 28.7537 14.9977 28.8894 14.8962C29.0466 14.7787 29.104 14.3868 29.1619 14.2011C29.3482 13.6057 29.5563 13.0176 29.7426 12.4222C30.4422 10.1859 31.1626 7.94645 31.9219 5.73221C32.1489 5.07011 32.4105 4.3173 32.9363 3.85522C33.1218 3.6928 33.7425 3.42804 33.6843 3.109Z" fill="#016B69"/>
<path d="M40.5573 9.87035C40.1229 9.58116 39.7343 9.15863 39.4447 8.71012C39.3301 8.53258 39.1656 8.04531 38.9822 7.9608C38.745 7.85148 38.1567 8.24533 37.9075 8.31782C37.1867 8.52793 36.5293 8.46086 35.8024 8.3624C35.9112 7.80109 36.1411 7.2642 36.4194 6.77693C36.5337 6.5769 36.8375 6.28229 36.8382 6.04233C36.8393 5.7454 36.426 5.30038 36.2903 5.03678C36.0119 4.4964 35.8755 3.89671 35.7663 3.29663C35.3865 3.33229 35.0063 3.60055 34.7138 3.84631C33.3174 5.0174 33.352 7.27622 34.8226 8.37326C35.6226 8.96985 36.6388 9.04815 37.5808 8.88689C37.8777 8.83611 38.4645 8.50079 38.7385 8.58026C38.888 8.62368 38.9877 8.89348 39.0699 9.01985C39.3148 9.39819 39.6055 9.72576 39.9399 10.0153C40.0323 10.0956 40.1993 10.2847 40.3313 10.2611C40.467 10.2367 40.5256 9.98703 40.5573 9.87035Z" fill="#FFC72F"/>
<path d="M40.4126 10.6053L39.1945 9.48389L38.6673 8.82372L37.6544 9.08073L35.876 9.09701C35.876 9.94092 36.083 10.7511 36.6488 11.3721C37.8105 12.6467 39.7151 12.3273 40.6876 10.9918C41.1479 10.36 41.3669 9.57188 41.455 8.78767C41.4844 8.52601 41.3695 7.87515 41.5237 7.68288C41.6736 7.49603 42.1219 7.45223 42.3369 7.3685C42.7837 7.19483 43.1868 6.91495 43.571 6.62189C43.5088 6.48156 43.3793 6.2858 43.2079 6.3172C43.0147 6.35247 42.7975 6.57343 42.6272 6.67693C42.3223 6.86145 41.9858 6.99519 41.6474 7.09055C41.4975 7.13281 41.1304 7.13746 41.0315 7.26926C40.9554 7.37005 41.0074 7.55185 41.0198 7.66582C41.0518 7.95346 41.0409 8.2659 41.0289 8.55508C40.9969 9.31487 40.6796 9.92542 40.4126 10.6053Z" fill="#FFC72F"/>
</g>
<defs>
<clipPath id="clip0_1228_4777">
<rect width="43.9595" height="15" fill="white" transform="translate(0.890625 0.000488281)"/>
</clipPath>
</defs>
</svg>
