<svg width="71" height="19" viewBox="0 0 71 19" fill="none" xmlns="http://www.w3.org/2000/svg">
<path d="M56.8192 1.15926C57.0798 0.962 57.3533 0.760125 57.6771 0.675021C57.7735 0.649951 57.948 0.673041 57.9486 0.797729C57.986 1.32287 57.9249 1.85262 57.9982 2.37578C58.0878 3.18526 58.2711 4.03697 58.8324 4.67096C59.0469 4.92693 59.3564 5.07273 59.6381 5.2469C58.6457 5.39797 57.6466 5.50683 56.6447 5.56092C56.177 5.5662 55.6937 5.60578 55.243 5.46197C54.9301 5.38016 54.6844 5.11825 54.6362 4.80686C54.5337 4.22169 54.7883 3.65169 55.0666 3.147C55.522 2.3903 56.122 1.7154 56.8192 1.15926Z" fill="url(#paint0_linear_4148_3107)"/>
<path d="M69.6379 3.98232C69.756 3.92558 69.887 3.9368 70.0132 3.95923C70.0119 4.14197 69.9698 4.32274 69.8822 4.48569C69.0141 6.2544 68.0217 7.97496 66.789 9.52992C66.0132 10.5024 65.1376 11.4167 64.0855 12.1121C63.2567 12.6563 62.2799 13.0581 61.2638 13.0291C60.7601 13.0179 60.3217 12.7302 59.9531 12.4228C59.2329 11.7941 58.715 10.9793 58.2975 10.1382C57.7396 9.01072 57.3995 7.7843 57.2834 6.5394C60.2409 6.42791 63.1684 5.90343 66.0207 5.15069C67.2431 4.81489 68.4629 4.456 69.6379 3.98232Z" fill="url(#paint1_linear_4148_3107)"/>
<path d="M1.88983 7.86925C2.31135 7.82835 2.73695 7.85936 3.15982 7.85276C3.16797 9.1445 3.15371 10.4362 3.16661 11.7286C4.61037 11.7247 6.05413 11.7227 7.49788 11.7293C7.51146 10.4369 7.49856 9.1445 7.50399 7.8521C8.24318 7.85474 8.98305 7.84155 9.72223 7.86002C9.71069 11.3282 9.71137 14.7963 9.72155 18.2645C8.98305 18.2816 8.24386 18.2685 7.50535 18.2724C7.49992 16.7287 7.50671 15.1856 7.50195 13.6418C6.05548 13.6326 4.60901 13.6319 3.16254 13.6425C3.15914 15.1856 3.16661 16.7287 3.15847 18.2718C2.43489 18.2737 1.71064 18.2711 0.987061 18.2724V8.67346C1.14046 8.29214 1.44727 7.92401 1.88983 7.86925Z" fill="#BE1128"/>
<path d="M10.7899 8.90503C10.7845 8.33503 11.3262 7.83166 11.9113 7.85211C12.9322 7.85343 13.9537 7.84486 14.9753 7.85673C16.1462 7.89301 17.3809 8.20572 18.2232 9.04225C19.0561 9.88604 19.3812 11.0749 19.4844 12.2109C19.5889 13.6003 19.4694 15.084 18.7045 16.2979C18.0691 17.3528 16.8867 18.0501 15.6459 18.1873C14.5653 18.3061 13.4759 18.2652 12.3905 18.2724C11.8543 18.2678 11.318 18.2823 10.7825 18.2638C10.7988 15.144 10.7838 12.0249 10.7899 8.90503ZM12.941 9.68152C12.9451 11.9134 12.9444 14.1445 12.9417 16.3764C13.7847 16.3711 14.6481 16.4635 15.4742 16.253C16.1129 16.0894 16.6871 15.6533 16.9424 15.0523C17.298 14.2165 17.2919 13.2902 17.2478 12.4016C17.1765 11.6561 17.0035 10.8604 16.4536 10.3017C15.9894 9.82402 15.2834 9.66899 14.6291 9.67097C14.0664 9.67756 13.5037 9.65909 12.941 9.68152Z" fill="#BE1128"/>
<path d="M20.5861 8.97308C20.5494 8.38725 21.0768 7.83572 21.685 7.85222C22.9082 7.84958 24.132 7.85288 25.3552 7.8509C25.9688 7.8443 26.5946 7.86409 27.1818 8.05409C27.6718 8.20187 28.1443 8.46048 28.4531 8.86819C28.8801 9.39663 29.0219 10.0953 28.9663 10.7543C28.9289 11.2366 28.7687 11.7268 28.426 12.0876C28.2298 12.3185 27.9583 12.4663 27.7153 12.6444C28.2977 12.907 28.8522 13.318 29.1007 13.9111C29.3518 14.524 29.3606 15.2081 29.2446 15.8507C29.1047 16.6226 28.6255 17.3463 27.9135 17.7296C27.1437 18.1676 26.2308 18.264 25.3552 18.2732C23.7675 18.2719 22.1792 18.2738 20.5915 18.2719C20.5766 15.1725 20.5881 12.0725 20.5861 8.97308ZM22.6998 9.68031C22.6883 10.4119 22.691 11.1436 22.6984 11.8752C23.5388 11.8772 24.3791 11.8752 25.2194 11.8759C25.5989 11.8765 26.002 11.8409 26.3279 11.6344C26.5647 11.486 26.7066 11.2234 26.7311 10.9536C26.7786 10.5788 26.6991 10.1401 26.3645 9.90593C26.0312 9.68559 25.6063 9.68493 25.2181 9.67239C24.3791 9.67701 23.5388 9.66117 22.6998 9.68031ZM22.7012 13.6657C22.6869 14.5695 22.691 15.474 22.6991 16.3785C23.5612 16.3963 24.4246 16.3798 25.2866 16.3864C25.774 16.3923 26.2966 16.3151 26.6842 16.0051C26.989 15.7563 27.0569 15.3414 27.0528 14.9746C27.0521 14.5999 26.9279 14.1941 26.6068 13.9619C26.2498 13.7066 25.7862 13.6881 25.3599 13.6696C24.4734 13.6611 23.5876 13.6696 22.7012 13.6657Z" fill="#464646"/>
<path d="M47.2192 7.85475C47.6027 7.85145 47.9869 7.84617 48.3711 7.85277C48.8768 7.85475 49.337 8.28818 49.3648 8.77704C49.3859 10.1849 49.3452 11.5941 49.3852 13.0012C50.2595 11.9516 51.1066 10.8796 51.972 9.8227C52.8286 9.81478 53.6866 9.80686 54.5432 9.82666C53.6004 10.9759 52.6386 12.1113 51.6835 13.2513C51.6259 13.3034 51.6985 13.3753 51.7182 13.4287C52.4241 14.6129 53.1239 15.8004 53.8305 16.9846C54.0728 17.4148 54.3518 17.8251 54.5704 18.2671C53.7104 18.2704 52.8483 18.2863 51.989 18.2592C51.6062 17.5151 51.184 16.7907 50.7855 16.0544C50.6023 15.7318 50.4448 15.3908 50.2072 15.1011C50.1095 14.9936 50.0015 14.8716 49.8509 14.8399C49.6221 14.8273 49.354 14.991 49.3737 15.2377C49.3642 16.2477 49.3696 17.2584 49.3716 18.2685C48.6542 18.2757 47.9367 18.2731 47.2192 18.2698C47.2226 14.7983 47.2226 11.3269 47.2192 7.85475Z" fill="#464646"/>
<path d="M32.0478 10.1962C32.9574 9.76542 34.004 9.77993 34.989 9.8591C35.7505 9.94486 36.5583 10.1269 37.1271 10.6613C37.5459 11.0347 37.7495 11.5948 37.7339 12.1411C37.7271 14.1915 37.7434 16.2413 37.7258 18.2917C37.3368 18.2956 36.9452 18.32 36.5576 18.2805C36.2359 18.2369 36.0105 17.9836 35.8673 17.719C34.9971 18.2349 33.9443 18.3035 32.9506 18.2567C32.2589 18.1973 31.5666 17.9499 31.0439 17.4974C30.5457 17.0422 30.3699 16.3475 30.3869 15.7023C30.376 15.065 30.5498 14.361 31.0867 13.9481C31.7749 13.4295 32.6465 13.1986 33.5011 13.1148C34.1276 12.9961 34.8274 13.0139 35.363 12.6313C35.6908 12.4036 35.6189 11.8442 35.2449 11.701C34.7195 11.4926 34.1249 11.4484 33.569 11.5506C33.2486 11.6041 32.9567 11.7861 32.8013 12.0672C32.075 12.0863 31.348 12.0738 30.6217 12.0738C30.695 11.2511 31.2991 10.5472 32.0478 10.1962ZM33.5764 14.5854C33.1997 14.683 32.7436 14.8242 32.601 15.2187C32.4395 15.6106 32.4904 16.1311 32.8488 16.4068C33.1977 16.6595 33.6619 16.6364 34.0726 16.5896C34.6278 16.5236 35.1586 16.2023 35.4064 15.7062C35.6759 15.1936 35.5992 14.6012 35.6026 14.047C34.9537 14.3135 34.2606 14.4402 33.5764 14.5854Z" fill="#464646"/>
<path d="M40.0004 10.5392C40.91 9.99625 42.0096 9.71983 43.0739 9.86629C43.7554 9.94282 44.4125 10.1849 44.9949 10.5346C45.4015 10.7787 45.6947 11.1725 45.8624 11.6027C46.1128 12.2347 46.1508 12.9208 46.1447 13.5911C46.1393 15.1513 46.1542 16.7116 46.1379 18.2718C45.7476 18.2692 45.3573 18.281 44.9677 18.2679C44.5903 18.2599 44.2116 18.0488 44.0568 17.7064C43.953 17.4933 43.9543 17.2525 43.955 17.0216C43.9584 15.658 43.9543 14.2937 43.957 12.93C43.9604 12.5936 43.8858 12.2327 43.6428 11.98C43.0549 11.3909 41.9791 11.3645 41.3709 11.9385C41.0824 12.2116 41.022 12.6239 41.0254 12.998C41.0268 14.7548 41.0227 16.5123 41.0274 18.2698C40.2882 18.2725 39.5491 18.2777 38.8105 18.2665C38.818 16.6205 38.8126 14.9739 38.8133 13.3272C38.8085 12.6411 38.8947 11.9292 39.2361 11.3177C39.4119 10.9957 39.6787 10.7252 40.0004 10.5392Z" fill="#464646"/>
<defs>
<linearGradient id="paint0_linear_4148_3107" x1="54.613" y1="3.11796" x2="59.6381" y2="3.11796" gradientUnits="userSpaceOnUse">
<stop stop-color="#F9A51A"/>
<stop offset="0.5" stop-color="#FFDC00"/>
<stop offset="1" stop-color="#FFDC00"/>
</linearGradient>
<linearGradient id="paint1_linear_4148_3107" x1="57.2834" y1="8.48577" x2="70.0132" y2="8.48577" gradientUnits="userSpaceOnUse">
<stop stop-color="#F9A51A"/>
<stop offset="0.5" stop-color="#FFDC00"/>
<stop offset="1" stop-color="#FFDC00"/>
</linearGradient>
</defs>
</svg>
