<svg width="17" height="16" viewBox="0 0 17 16" fill="none" xmlns="http://www.w3.org/2000/svg">
<path d="M7.90331 14.2225L4.94677 15.8431C4.00443 16.3584 2.90469 15.5252 3.084 14.4324L3.64781 11C3.71953 10.5658 3.58207 10.1232 3.27924 9.81575L0.888507 7.38486C0.127458 6.60988 0.547828 5.26146 1.59975 5.10148L4.90494 4.60076C5.32332 4.53843 5.68392 4.26417 5.87119 3.86941L7.34946 0.746653C7.81964 -0.248559 9.18036 -0.248559 9.65054 0.746653L11.1288 3.86941C11.3161 4.26417 11.6767 4.53843 12.0951 4.60076L15.4003 5.10148C16.4522 5.26146 16.8725 6.60988 16.1115 7.38486L13.7208 9.81575C13.4179 10.1232 13.2805 10.5658 13.3522 11L13.916 14.4324C14.0953 15.5252 12.9956 16.3605 12.0532 15.8431L9.09669 14.2225C8.72214 14.0168 8.27587 14.0168 7.90132 14.2225H7.90331Z" fill="#FFC76F"/>
</svg>
