<svg width="600" height="32" viewBox="0 0 600 32" fill="none" xmlns="http://www.w3.org/2000/svg">
<path d="M147.5 32C151.642 32 155 28.6421 155 24.5C155 20.3579 151.642 17 147.5 17C143.358 17 140 20.3579 140 24.5C140 28.6421 143.358 32 147.5 32Z" fill="url(#paint0_radial)"/>
<path d="M147.634 4.18C149.541 4.139 150.773 4.923 151.2 6.013C151.489 6.66164 151.628 7.36715 151.607 8.077C151.607 8.077 151.739 7.916 150.915 7.577C150.091 7.238 149.519 10.158 149.554 13.33C149.589 16.502 149.993 20.289 149.993 20.289C149.993 22.101 149.085 23.576 147.193 23.576C145.301 23.576 144.333 21.728 144.074 20.289C143.815 18.85 143.754 14.54 143.754 14.54C143.754 14.54 143.613 8.817 144.284 6.972C144.955 5.127 146.281 4.159 147.634 4.18Z" fill="url(#paint1_linear)"/>
<path d="M146.487 9.88319C146.492 9.58776 146.256 9.34419 145.961 9.33917C145.665 9.33415 145.422 9.56957 145.417 9.865L145.326 15.2152C145.321 15.5107 145.556 15.7542 145.852 15.7592C146.147 15.7643 146.391 15.5288 146.396 15.2334L146.487 9.88319Z" fill="white"/>
<path d="M452.5 32C456.642 32 460 28.6421 460 24.5C460 20.3579 456.642 17 452.5 17C448.358 17 445 20.3579 445 24.5C445 28.6421 448.358 32 452.5 32Z" fill="url(#paint2_radial)"/>
<path d="M452.634 4.18C454.541 4.139 455.773 4.923 456.2 6.013C456.489 6.66164 456.628 7.36715 456.607 8.077C456.607 8.077 456.739 7.916 455.915 7.577C455.091 7.238 454.519 10.158 454.554 13.33C454.589 16.502 454.993 20.289 454.993 20.289C454.993 22.101 454.085 23.576 452.193 23.576C450.301 23.576 449.333 21.728 449.074 20.289C448.815 18.85 448.754 14.54 448.754 14.54C448.754 14.54 448.613 8.817 449.284 6.972C449.955 5.127 451.281 4.159 452.634 4.18Z" fill="url(#paint3_linear)"/>
<path d="M451.487 9.88319C451.492 9.58776 451.256 9.34419 450.961 9.33917C450.665 9.33415 450.422 9.56957 450.417 9.865L450.326 15.2152C450.321 15.5107 450.556 15.7542 450.852 15.7592C451.147 15.7643 451.391 15.5288 451.396 15.2334L451.487 9.88319Z" fill="white"/>
<defs>
<radialGradient id="paint0_radial" cx="0" cy="0" r="1" gradientUnits="userSpaceOnUse" gradientTransform="translate(146.842 23.8456) rotate(6.25793) scale(9.7346 9.26373)">
<stop stop-color="#50080B"/>
<stop offset="0.388" stop-color="#7F1A1E"/>
<stop offset="1" stop-color="#C9363B"/>
</radialGradient>
<linearGradient id="paint1_linear" x1="144.49" y1="1.92835" x2="158.385" y2="9.81017" gradientUnits="userSpaceOnUse">
<stop stop-color="#FAE340"/>
<stop offset="1" stop-color="#E57333"/>
</linearGradient>
<radialGradient id="paint2_radial" cx="0" cy="0" r="1" gradientUnits="userSpaceOnUse" gradientTransform="translate(451.842 23.8456) rotate(6.25793) scale(9.7346 9.26373)">
<stop stop-color="#50080B"/>
<stop offset="0.388" stop-color="#7F1A1E"/>
<stop offset="1" stop-color="#C9363B"/>
</radialGradient>
<linearGradient id="paint3_linear" x1="449.49" y1="1.92835" x2="463.385" y2="9.81017" gradientUnits="userSpaceOnUse">
<stop stop-color="#FAE340"/>
<stop offset="1" stop-color="#E57333"/>
</linearGradient>
</defs>
</svg>
