<svg width="66" height="20" viewBox="0 0 66 20" fill="none" xmlns="http://www.w3.org/2000/svg">
<path d="M21.1246 19.5707C16.8119 19.3847 12.5544 18.5303 8.5048 17.0382C3.02672 14.8531 -2.45893 9.24164 1.16822 3.1743C1.84237 2.0248 2.8592 1.11394 4.07689 0.568759C5.29457 0.023581 6.65239 -0.128729 7.96096 0.133075C11.0991 0.764539 13.2083 3.3206 15.1576 5.60765C19.069 10.1213 24.2509 13.356 30.0293 14.8908C30.6385 14.9554 31.2363 15.1015 31.8065 15.325C32.1281 15.3942 32.4506 15.4572 32.7741 15.5138C33.0988 15.454 33.4219 15.3911 33.7435 15.325C34.3151 15.1004 34.9145 14.9537 35.5254 14.889C41.2989 13.3498 46.4771 10.1177 50.3905 5.61049C52.2698 3.4131 54.2929 0.937272 57.2656 0.187821C58.6158 -0.144661 60.0375 -0.0336495 61.3195 0.504369C62.6015 1.04239 63.6754 1.97872 64.3818 3.1743C68.0033 9.24164 62.5271 14.8531 57.0461 17.0382C52.9969 18.5313 48.7392 19.3857 44.4263 19.5707C40.9846 19.8085 35.7354 20.7147 32.7759 18.6107C31.0642 19.6334 29.0805 20.1106 27.0898 19.9784C24.9986 19.9784 22.8517 19.6905 21.1246 19.5707ZM57.5644 4.23901C55.1791 5.14609 53.4748 7.9268 51.7468 9.65129C49.8102 11.5792 47.606 13.2195 45.2019 14.5218C44.8236 14.7263 44.4452 14.9207 44.0669 15.1051C47.033 15.0454 49.9824 14.646 52.8572 13.9149C55.6946 13.1597 59.265 11.9695 60.7773 9.26146C61.9123 7.22643 61.1235 4.0002 58.7533 4.0002C58.3457 4.00669 57.9428 4.08762 57.5644 4.23901ZM4.58918 8.87258C5.87358 11.7043 9.41844 13.0002 12.2322 13.7912C15.2518 14.6011 18.3588 15.0414 21.485 15.1023C21.2265 14.9764 20.9683 14.8458 20.7104 14.7106C18.2869 13.4419 16.0575 11.8343 14.0898 9.93635C12.2114 8.11463 10.5023 5.27163 7.98461 4.23712C7.6062 4.07392 7.1994 3.98637 6.78722 3.97944C4.59202 3.98038 3.69446 6.89701 4.58918 8.87258Z" fill="#C68158"/>
</svg>
