<svg width="44" height="44" viewBox="0 0 44 44" fill="none" xmlns="http://www.w3.org/2000/svg">
<g opacity="0.5">
<mask id="mask0" style="mask-type:alpha" maskUnits="userSpaceOnUse" x="0" y="0" width="44" height="44">
<rect width="44" height="44" transform="matrix(4.37114e-08 -1 -1 -4.37114e-08 44 44)" fill="#C4C4C4"/>
</mask>
<g mask="url(#mask0)">
<path d="M28.3532 5.47626C27.872 5.46967 27.4027 5.6194 27.0212 5.90124L6.30513 21.5292C6.05657 21.7169 5.85493 21.9559 5.71503 22.2286C5.57514 22.5012 5.50054 22.8006 5.49672 23.1048C5.49291 23.4089 5.55997 23.7101 5.69298 23.9862C5.82599 24.2623 6.02157 24.5062 6.26534 24.7001L26.4966 40.7579C26.7113 40.928 26.9587 41.0557 27.2247 41.1338C27.4906 41.2118 27.7699 41.2388 28.0465 41.213C28.6053 41.161 29.1194 40.8976 29.4759 40.4806C29.8324 40.0636 30.002 39.5273 29.9474 38.9897C29.8928 38.452 29.6185 37.957 29.1848 37.6136L10.9853 23.1714L29.6342 9.11205C29.9789 8.85249 30.2311 8.49627 30.3562 8.09261C30.4812 7.68895 30.4728 7.25776 30.3322 6.85864C30.1915 6.45951 29.9256 6.11213 29.5711 5.8645C29.2166 5.61687 28.791 5.48121 28.3532 5.47626Z" fill="#727272" stroke="#727272" stroke-width="0.2"/>
</g>
</g>
</svg>
