<svg width="709" height="28" viewBox="0 0 709 28" fill="none" xmlns="http://www.w3.org/2000/svg">
<path d="M7.5 27.8203C11.6421 27.8203 15 24.4624 15 20.3203C15 16.1782 11.6421 12.8203 7.5 12.8203C3.35786 12.8203 0 16.1782 0 20.3203C0 24.4624 3.35786 27.8203 7.5 27.8203Z" fill="url(#paint0_radial)"/>
<path d="M7.63453 0.00153624C9.54153 -0.0394638 10.7735 0.744536 11.2005 1.83454C11.4897 2.48318 11.6288 3.18868 11.6075 3.89854C11.6075 3.89854 11.7395 3.73754 10.9155 3.39854C10.0915 3.05954 9.51953 5.97954 9.55453 9.15154C9.58953 12.3235 9.99353 16.1105 9.99353 16.1105C9.99353 17.9225 9.08553 19.3975 7.19353 19.3975C5.30153 19.3975 4.33353 17.5495 4.07453 16.1105C3.81553 14.6715 3.75453 10.3615 3.75453 10.3615C3.75453 10.3615 3.61353 4.63854 4.28453 2.79354C4.95553 0.948536 6.28153 -0.0194638 7.63453 0.00153624Z" fill="url(#paint1_linear)"/>
<path d="M6.48653 5.70448C6.49156 5.40905 6.25613 5.16548 5.9607 5.16046C5.66527 5.15544 5.42171 5.39086 5.41669 5.68629L5.32573 11.0365C5.32071 11.3319 5.55613 11.5755 5.85156 11.5805C6.14699 11.5856 6.39056 11.3501 6.39558 11.0547L6.48653 5.70448Z" fill="white"/>
<path d="M701.5 27.8203C705.642 27.8203 709 24.4624 709 20.3203C709 16.1782 705.642 12.8203 701.5 12.8203C697.358 12.8203 694 16.1782 694 20.3203C694 24.4624 697.358 27.8203 701.5 27.8203Z" fill="url(#paint2_radial)"/>
<path d="M701.635 0.00153624C703.542 -0.0394638 704.774 0.744536 705.201 1.83454C705.49 2.48318 705.629 3.18868 705.608 3.89854C705.608 3.89854 705.74 3.73754 704.916 3.39854C704.092 3.05954 703.52 5.97954 703.555 9.15154C703.59 12.3235 703.994 16.1105 703.994 16.1105C703.994 17.9225 703.086 19.3975 701.194 19.3975C699.302 19.3975 698.334 17.5495 698.075 16.1105C697.816 14.6715 697.755 10.3615 697.755 10.3615C697.755 10.3615 697.614 4.63854 698.285 2.79354C698.956 0.948536 700.282 -0.0194638 701.635 0.00153624Z" fill="url(#paint3_linear)"/>
<path d="M700.487 5.70448C700.492 5.40905 700.256 5.16548 699.961 5.16046C699.665 5.15544 699.422 5.39086 699.417 5.68629L699.326 11.0365C699.321 11.3319 699.556 11.5755 699.852 11.5805C700.147 11.5856 700.391 11.3501 700.396 11.0547L700.487 5.70448Z" fill="white"/>
<defs>
<radialGradient id="paint0_radial" cx="0" cy="0" r="1" gradientUnits="userSpaceOnUse" gradientTransform="translate(6.84228 19.6659) rotate(6.25793) scale(9.7346 9.26373)">
<stop stop-color="#50080B"/>
<stop offset="0.388" stop-color="#7F1A1E"/>
<stop offset="1" stop-color="#C9363B"/>
</radialGradient>
<linearGradient id="paint1_linear" x1="4.49013" y1="-2.25011" x2="18.386" y2="5.6317" gradientUnits="userSpaceOnUse">
<stop stop-color="#FAE340"/>
<stop offset="1" stop-color="#E57333"/>
</linearGradient>
<radialGradient id="paint2_radial" cx="0" cy="0" r="1" gradientUnits="userSpaceOnUse" gradientTransform="translate(700.842 19.6659) rotate(6.25793) scale(9.7346 9.26373)">
<stop stop-color="#50080B"/>
<stop offset="0.388" stop-color="#7F1A1E"/>
<stop offset="1" stop-color="#C9363B"/>
</radialGradient>
<linearGradient id="paint3_linear" x1="698.49" y1="-2.25011" x2="712.386" y2="5.6317" gradientUnits="userSpaceOnUse">
<stop stop-color="#FAE340"/>
<stop offset="1" stop-color="#E57333"/>
</linearGradient>
</defs>
</svg>
