<svg width="115" height="48" viewBox="0 0 115 48" fill="none" xmlns="http://www.w3.org/2000/svg">
<path d="M105.365 4.856C105.372 4.763 104.654 4.683 104.5 4.645C104.487 4.64301 104.475 4.6386 104.463 4.632C102.781 3.987 57.4541 0 57.4541 0C57.4541 0 12.1411 3.987 10.4691 4.632C10.4532 4.63793 10.4368 4.64229 10.4201 4.645C10.2681 4.682 9.5461 4.762 9.5501 4.856C6.86574 5.6141 4.50234 7.22798 2.81921 9.45229C1.13608 11.6766 0.225281 14.3897 0.225281 17.179C0.225281 19.9683 1.13608 22.6814 2.81921 24.9057C4.50234 27.13 6.86574 28.7439 9.5501 29.502C9.5501 29.596 10.2681 29.684 10.4201 29.702C10.436 29.7088 10.4524 29.7144 10.4691 29.719C12.1411 30.368 57.4541 34.337 57.4541 34.337C57.4541 34.337 102.781 30.368 104.463 29.719C104.473 29.712 104.487 29.711 104.5 29.702C104.654 29.679 105.371 29.591 105.365 29.502C108.052 28.7471 110.419 27.1345 112.105 24.9098C113.791 22.6851 114.703 19.9703 114.703 17.179C114.703 14.3877 113.791 11.6729 112.105 9.44823C110.419 7.22354 108.052 5.61091 105.365 4.856Z" fill="white"/>
<path d="M15.0921 12.722H10.3701L10.3601 21.807H14.8931C14.8931 21.807 20.0641 21.797 20.0641 17.169C20.0641 17.169 20.0641 12.722 15.0921 12.722ZM17.6921 17.232C17.6921 20.272 14.3351 20.301 14.3351 20.301H12.5051V14.165H14.4641C14.8841 14.1259 15.3075 14.1772 15.706 14.3155C16.1044 14.4538 16.4686 14.6759 16.774 14.9668C17.0794 15.2577 17.319 15.6107 17.4765 16.0019C17.634 16.3932 17.7058 16.8137 17.6871 17.235" fill="#E50019"/>
<path d="M28.9311 21.807H31.2401L28.7601 14.191C28.5946 13.7637 28.3052 13.3956 27.9291 13.1339C27.553 12.8722 27.1073 12.7288 26.6491 12.722C26.222 12.6706 25.7902 12.6706 25.3631 12.722C24.9047 12.7286 24.4588 12.8719 24.0825 13.1336C23.7062 13.3954 23.4167 13.7636 23.2511 14.191L20.7721 21.807H23.0531L23.8301 19.334H28.1681L28.9321 21.807H28.9311ZM24.2811 17.881L25.2571 14.765C25.3043 14.6026 25.4029 14.4599 25.5381 14.3583C25.6734 14.2568 25.838 14.2019 26.0071 14.2019C26.1762 14.2019 26.3408 14.2568 26.476 14.3583C26.6113 14.4599 26.7099 14.6026 26.7571 14.765L27.7161 17.881H24.2811Z" fill="#E50019"/>
<path d="M41.4881 16.077H36.8471V17.528H41.4881V16.077Z" fill="#E50019"/>
<path d="M35.1561 12.683H32.9571V21.806H35.1561V12.683Z" fill="#E50019"/>
<path d="M45.4611 12.683H43.2611V21.806H45.4611V12.683Z" fill="#E50019"/>
<path d="M69.3641 12.683H67.1601V21.806H69.3641V12.683Z" fill="#E50019"/>
<path d="M85.6801 12.722H83.4831V21.807H85.6801V12.722Z" fill="#E50019"/>
<path d="M63.2471 12.683V16.077H59.0061V12.683H56.8061V21.806H59.0061V17.526H63.2471V21.804H65.4471V12.683H63.2471Z" fill="#E50019"/>
<path d="M82.0051 20.257H77.5881C77.4271 20.2578 77.2675 20.2269 77.1185 20.1659C76.9695 20.1049 76.834 20.0152 76.7197 19.9017C76.6055 19.7883 76.5147 19.6535 76.4527 19.5049C76.3906 19.3564 76.3584 19.197 76.3581 19.036V12.722H74.1581V18.929C74.1269 19.2915 74.171 19.6565 74.2875 20.0011C74.404 20.3458 74.5904 20.6627 74.835 20.9319C75.0797 21.2011 75.3773 21.417 75.7092 21.5658C76.0412 21.7147 76.4003 21.7934 76.7641 21.797H82.0051V20.257Z" fill="#E50019"/>
<path d="M90.9291 14.228H95.3511V12.683H90.1131C89.7488 12.6867 89.3893 12.7657 89.0569 12.9149C88.7246 13.0641 88.4266 13.2803 88.1818 13.5501C87.9369 13.8198 87.7505 14.1372 87.634 14.4824C87.5176 14.8275 87.4737 15.1931 87.5051 15.556V21.798H89.7051V18.177H95.0541V16.728H89.7051V15.446C89.7052 15.2856 89.737 15.1268 89.7987 14.9788C89.8603 14.8307 89.9506 14.6963 90.0643 14.5833C90.178 14.4702 90.313 14.3807 90.4614 14.3199C90.6098 14.2591 90.7687 14.2282 90.9291 14.229" fill="#E50019"/>
<path d="M100.129 20.2569C99.9683 20.2576 99.8089 20.2265 99.6602 20.1655C99.5114 20.1044 99.3761 20.0146 99.2621 19.9012C99.1481 19.7877 99.0577 19.6529 98.9959 19.5044C98.9341 19.356 98.9022 19.1968 98.9021 19.0359V17.8529H104.202V16.3979H98.9021V15.4449C98.9017 15.2858 98.9335 15.1282 98.9956 14.9816C99.0577 14.8351 99.1488 14.7026 99.2634 14.5922C99.3781 14.4818 99.5138 14.3957 99.6626 14.3391C99.8114 14.2825 99.97 14.2566 100.129 14.2629H104.547V12.7219H99.3041C98.942 12.7205 98.5837 12.7946 98.2519 12.9397C97.9202 13.0847 97.6224 13.2975 97.3777 13.5642C97.1329 13.831 96.9466 14.146 96.8306 14.489C96.7146 14.8319 96.6715 15.1954 96.7041 15.5559V18.9289C96.6727 19.291 96.7164 19.6556 96.8324 20C96.9484 20.3443 97.1342 20.661 97.3783 20.9303C97.6224 21.1995 97.9194 21.4154 98.2508 21.5646C98.5821 21.7137 98.9407 21.7928 99.3041 21.7969H104.564L104.528 20.2569H100.128" fill="#E50019"/>
<path d="M55.2541 12.713H52.0901C51.4491 12.6392 50.7998 12.7018 50.1847 12.8967C49.5696 13.0915 49.0027 13.4142 48.5211 13.8436C48.0395 14.273 47.6541 14.7993 47.3902 15.3881C47.1263 15.9769 46.9899 16.6148 46.9899 17.26C46.9899 17.9052 47.1263 18.5431 47.3902 19.1319C47.6541 19.7207 48.0395 20.247 48.5211 20.6764C49.0027 21.1057 49.5696 21.4284 50.1847 21.6233C50.7998 21.8181 51.4491 21.8807 52.0901 21.807H55.2711V20.272H52.3951C51.6057 20.2576 50.8534 19.9339 50.3002 19.3705C49.7469 18.8071 49.437 18.0491 49.437 17.2595C49.437 16.4699 49.7469 15.7119 50.3002 15.1485C50.8534 14.5851 51.6057 14.2614 52.3951 14.247H55.2541V12.713Z" fill="#E50019"/>
<path d="M27.0331 47.471C26.2237 47.7668 25.3688 47.9188 24.5071 47.92C23.9483 47.9737 23.3845 47.9044 22.8554 47.7169C22.3263 47.5295 21.8446 47.2284 21.4443 46.8348C21.044 46.4413 20.7347 45.9648 20.5383 45.439C20.3418 44.9131 20.2629 44.3506 20.3071 43.791C20.2872 43.2127 20.39 42.6367 20.6086 42.101C20.8273 41.5653 21.1568 41.0819 21.5756 40.6826C21.9945 40.2833 22.4931 39.9772 23.0386 39.7844C23.5842 39.5916 24.1644 39.5165 24.7411 39.564C25.4435 39.5479 26.1416 39.6766 26.7921 39.942L26.5271 40.803C25.9581 40.5495 25.3386 40.4294 24.7161 40.452C24.2751 40.4173 23.8318 40.4787 23.4169 40.632C23.0019 40.7852 22.6251 41.0266 22.3125 41.3395C21.9998 41.6525 21.7587 42.0295 21.6059 42.4446C21.453 42.8597 21.392 43.303 21.4271 43.744C21.3816 44.1762 21.4307 44.6131 21.5712 45.0243C21.7116 45.4356 21.94 45.8113 22.2403 46.1254C22.5407 46.4395 22.9059 46.6843 23.3104 46.843C23.715 47.0016 24.1493 47.0702 24.5831 47.044C25.0619 47.0713 25.5411 46.997 25.9891 46.826V44.387H24.3411V43.537H27.0411V47.471" fill="white"/>
<path d="M32.7411 46.427C32.735 46.8978 32.7641 47.3684 32.8281 47.835H31.8671L31.7671 47.0919H31.7281C31.5216 47.3716 31.2507 47.5973 30.9384 47.75C30.6261 47.9027 30.2816 47.9778 29.9341 47.9689C29.7027 47.9864 29.4702 47.9556 29.2514 47.8785C29.0325 47.8013 28.8321 47.6795 28.6629 47.5208C28.4936 47.3621 28.3592 47.1699 28.2682 46.9565C28.1771 46.743 28.1315 46.513 28.1341 46.281C28.1341 44.86 29.3981 44.081 31.6661 44.093V43.972C31.6905 43.7898 31.673 43.6044 31.6148 43.4301C31.5566 43.2557 31.4594 43.097 31.3305 42.9659C31.2016 42.8349 31.0444 42.7351 30.871 42.6741C30.6977 42.6131 30.5126 42.5925 30.3301 42.614C29.7847 42.6089 29.2492 42.7602 28.7871 43.05L28.5451 42.336C29.1343 41.994 29.8048 41.8172 30.4861 41.824C32.2971 41.824 32.7361 43.05 32.7361 44.224V46.424L32.7411 46.427ZM31.6951 44.837C30.5291 44.813 29.2081 45.022 29.2081 46.16C29.1953 46.295 29.212 46.4312 29.2571 46.5591C29.3022 46.687 29.3746 46.8036 29.4693 46.9007C29.564 46.9979 29.6786 47.0732 29.8053 47.1216C29.932 47.17 30.0678 47.1903 30.2031 47.181C30.5169 47.1912 30.8258 47.1015 31.0853 46.9248C31.3448 46.7482 31.5415 46.4936 31.6471 46.198C31.6815 46.088 31.6977 45.9731 31.6951 45.858V44.837ZM30.0091 40.237C30.0301 40.388 30.0932 40.53 30.1911 40.647C30.2447 40.702 30.309 40.7454 30.38 40.7747C30.451 40.8039 30.5273 40.8183 30.6041 40.817C30.682 40.8189 30.7596 40.8055 30.8323 40.7774C30.905 40.7493 30.9715 40.707 31.0278 40.6531C31.0841 40.5992 31.1293 40.5347 31.1605 40.4632C31.1918 40.3918 31.2087 40.3149 31.2101 40.237H31.6341C31.6403 40.3727 31.6176 40.5082 31.5675 40.6345C31.5174 40.7608 31.441 40.875 31.3434 40.9695C31.2459 41.0641 31.1293 41.1368 31.0015 41.1829C30.8737 41.229 30.7375 41.2474 30.6021 41.237C30.4662 41.2496 30.3291 41.2324 30.2006 41.1866C30.072 41.1407 29.9551 41.0673 29.8579 40.9714C29.7607 40.8756 29.6857 40.7596 29.638 40.6317C29.5904 40.5038 29.5713 40.367 29.5821 40.231L30.0091 40.237Z" fill="white"/>
<path d="M31.5501 38.4821L30.5171 39.7H29.9961L30.7381 38.4821H31.5501Z" fill="white"/>
<path d="M34.4501 43.548C34.4501 42.927 34.4401 42.448 34.4021 41.958H35.3481L35.4101 42.917H35.4331C35.6287 42.5765 35.9128 42.2953 36.2552 42.1031C36.5976 41.9108 36.9856 41.8147 37.3781 41.825C38.1891 41.825 39.4531 42.311 39.4531 44.325V47.835H38.3881V44.447C38.3881 43.502 38.0361 42.697 37.0271 42.697C36.704 42.7063 36.392 42.817 36.1353 43.0133C35.8785 43.2096 35.6899 43.4816 35.5961 43.791C35.5438 43.9523 35.5191 44.1214 35.5231 44.291V47.838H34.4531V43.55" fill="white"/>
<path d="M43.7651 39.215H44.8341V42.895H44.8581C45.0614 42.5504 45.3554 42.2683 45.7081 42.0794C46.0608 41.8905 46.4586 41.8022 46.8581 41.824C48.3171 41.824 49.3351 43.038 49.3351 44.812C49.3351 46.925 48.0001 47.97 46.6881 47.97C46.2892 47.9909 45.8926 47.8982 45.5444 47.7026C45.1962 47.507 44.9107 47.2165 44.7211 46.865H44.6991L44.6351 47.836H43.7181C43.7541 47.436 43.7661 46.836 43.7661 46.317V39.217L43.7651 39.215ZM44.8351 45.483C44.8283 45.6128 44.8408 45.7428 44.8721 45.869C44.9599 46.2268 45.1653 46.5449 45.4555 46.7721C45.7456 46.9993 46.1036 47.1225 46.4721 47.122C47.6011 47.122 48.2591 46.211 48.2591 44.864C48.2591 43.672 47.6521 42.664 46.5101 42.664C46.1337 42.6734 45.771 42.8076 45.4791 43.0454C45.1872 43.2832 44.9825 43.6112 44.8971 43.978C44.855 44.1239 44.8341 44.2751 44.8351 44.427V45.483Z" fill="white"/>
<path d="M53.0681 47.969C52.6791 47.973 52.2935 47.8959 51.9359 47.7427C51.5784 47.5894 51.2567 47.3633 50.9913 47.0788C50.726 46.7942 50.5229 46.4576 50.3949 46.0902C50.267 45.7228 50.217 45.3328 50.2481 44.945C50.2137 44.5438 50.264 44.1399 50.3956 43.7594C50.5272 43.3789 50.7373 43.0303 51.0121 42.7361C51.287 42.4419 51.6206 42.2087 51.9913 42.0516C52.362 41.8945 52.7615 41.8169 53.1641 41.824C53.5535 41.8157 53.9402 41.8894 54.2993 42.0403C54.6583 42.1912 54.9816 42.4159 55.2482 42.6999C55.5148 42.9838 55.7187 43.3206 55.8466 43.6884C55.9746 44.0563 56.0239 44.4469 55.9911 44.835C56.0267 45.2366 55.9776 45.6412 55.8469 46.0227C55.7162 46.4041 55.5069 46.7539 55.2325 47.0493C54.9581 47.3447 54.6247 47.5792 54.2539 47.7377C53.8832 47.8961 53.4833 47.9749 53.0801 47.969H53.0681ZM53.1001 47.169C54.1251 47.169 54.8891 46.21 54.8891 44.874C54.8891 43.88 54.3891 42.628 53.1271 42.628C51.8651 42.628 51.3271 43.792 51.3271 44.908C51.3271 46.197 52.0581 47.168 53.0871 47.168L53.1001 47.169Z" fill="white"/>
<path d="M54.6811 40.0291L53.6491 41.2421H53.1241L53.8631 40.0291H54.6811Z" fill="white"/>
<path d="M64.9891 39.215V46.315C64.9891 46.839 65.0021 47.434 65.0381 47.834H64.0791L64.0291 46.815H64.0031C63.8147 47.1758 63.5278 47.4758 63.1758 47.6801C62.8237 47.8843 62.4209 47.9845 62.0141 47.969C60.5931 47.969 59.4861 46.763 59.4861 44.981C59.4771 43.015 60.7011 41.824 62.1221 41.824C62.4695 41.8003 62.8169 41.8699 63.1285 42.0255C63.44 42.181 63.7043 42.417 63.8941 42.709H63.9181V39.215H64.9891ZM63.9181 44.349C63.9214 44.1942 63.9053 44.0397 63.8701 43.889C63.7916 43.5394 63.5962 43.2272 63.3162 43.0037C63.0362 42.7803 62.6883 42.659 62.3301 42.66C61.2301 42.66 60.5671 43.632 60.5671 44.918C60.5671 46.124 61.1611 47.108 62.3041 47.108C62.6712 47.1044 63.0261 46.976 63.3105 46.7439C63.5949 46.5118 63.7919 46.1899 63.8691 45.831C63.9055 45.6801 63.9216 45.5251 63.9171 45.37L63.9181 44.349Z" fill="white"/>
<path d="M70.9071 46.427C70.9015 46.8977 70.9289 47.3682 70.9891 47.835H70.0301L69.9351 47.092H69.8941C69.6869 47.3724 69.415 47.5985 69.1016 47.7512C68.7882 47.9039 68.4426 47.9787 68.0941 47.969C67.8628 47.9862 67.6304 47.9552 67.4117 47.8779C67.193 47.8007 66.9927 47.6788 66.8235 47.5202C66.6543 47.3615 66.5199 47.1695 66.4288 46.9562C66.3377 46.7429 66.2918 46.513 66.2941 46.281C66.2941 44.86 67.5571 44.081 69.8291 44.093V43.973C69.8535 43.7908 69.8359 43.6055 69.7778 43.4311C69.7196 43.2567 69.6224 43.0979 69.4935 42.9668C69.3646 42.8357 69.2075 42.7357 69.0341 42.6746C68.8607 42.6135 68.6757 42.5928 68.4931 42.614C67.9482 42.6083 67.4132 42.7597 66.9521 43.05L66.7051 42.336C67.2958 41.9941 67.9676 41.8172 68.6501 41.824C70.4601 41.824 70.9001 43.05 70.9001 44.224V46.424L70.9071 46.427ZM69.8531 44.832C68.6891 44.809 67.3651 45.017 67.3651 46.155C67.352 46.2906 67.3687 46.4273 67.4141 46.5557C67.4594 46.684 67.5322 46.801 67.6275 46.8982C67.7228 46.9955 67.8382 47.0708 67.9656 47.1188C68.093 47.1667 68.2293 47.1863 68.3651 47.176C68.6788 47.1854 68.9875 47.0954 69.247 46.9188C69.5065 46.7423 69.7036 46.4883 69.8101 46.193C69.8431 46.0828 69.8589 45.9681 69.8571 45.853L69.8531 44.832Z" fill="white"/>
<path d="M68.4281 40.0291L69.1821 41.2421H68.6571L67.6151 40.0291H68.4281Z" fill="white"/>
<path d="M73.1321 40.8771C72.9502 40.8739 72.777 40.7986 72.6506 40.6677C72.5242 40.5368 72.4549 40.361 72.4581 40.1791C72.4613 39.9971 72.5366 39.8239 72.6675 39.6975C72.7984 39.5711 72.9742 39.5019 73.1561 39.5051C73.2461 39.5018 73.3359 39.5172 73.4197 39.5502C73.5035 39.5832 73.5797 39.6331 73.6434 39.6968C73.7071 39.7605 73.757 39.8366 73.79 39.9205C73.8229 40.0043 73.8383 40.094 73.8351 40.1841C73.8386 40.2759 73.8231 40.3675 73.7896 40.4531C73.7561 40.5387 73.7052 40.6165 73.6403 40.6815C73.5753 40.7466 73.4976 40.7975 73.4121 40.8312C73.3265 40.8648 73.235 40.8804 73.1431 40.8771H73.1321ZM72.6211 41.9581H73.6891V47.8351H72.6211V41.9581Z" fill="white"/>
<path d="M93.9151 48.0001C93.73 47.9983 93.5532 47.9234 93.4232 47.7916C93.2932 47.6598 93.2207 47.4819 93.2216 47.2968C93.2225 47.1118 93.2966 46.9345 93.4278 46.804C93.559 46.6734 93.7365 46.6001 93.9216 46.6001C94.1067 46.6001 94.2842 46.6734 94.4154 46.804C94.5466 46.9345 94.6207 47.1118 94.6216 47.2968C94.6224 47.4819 94.55 47.6598 94.42 47.7916C94.29 47.9234 94.1132 47.9983 93.9281 48.0001H93.9151Z" fill="white"/>
<path d="M79.1001 39.215H78.0321V47.836H79.1001V39.215Z" fill="white"/>
<path d="M85.0131 46.4229C85.0084 46.8941 85.0375 47.365 85.1001 47.8319H84.1401L84.0401 47.0889H84.0011C83.794 47.3695 83.5222 47.5958 83.2088 47.7487C82.8954 47.9016 82.5496 47.9765 82.2011 47.9669C81.9698 47.9841 81.7374 47.9531 81.5187 47.8758C81.3 47.7986 81.0997 47.6767 80.9305 47.5181C80.7613 47.3594 80.6269 47.1674 80.5358 46.9541C80.4447 46.7408 80.3988 46.5109 80.4011 46.2789C80.4011 44.8589 81.6651 44.0789 83.9371 44.0909V43.9699C83.9611 43.7876 83.9433 43.6022 83.8848 43.4278C83.8264 43.2535 83.729 43.0947 83.6 42.9637C83.471 42.8326 83.3138 42.7327 83.1403 42.6716C82.9669 42.6105 82.7818 42.5897 82.5991 42.6109C82.0542 42.6053 81.5192 42.7566 81.0581 43.047L80.8151 42.3329C81.4051 41.9902 82.0768 41.8133 82.7591 41.821C84.5661 41.821 85.0021 43.0469 85.0021 44.2209V46.4209L85.0131 46.4229ZM83.9571 44.8289C82.7931 44.8059 81.4681 45.0139 81.4681 46.1519C81.4554 46.2874 81.4723 46.424 81.5178 46.5522C81.5632 46.6804 81.6361 46.7972 81.7313 46.8944C81.8265 46.9916 81.9417 47.0668 82.069 47.1149C82.1962 47.163 82.3324 47.1828 82.4681 47.1729C82.782 47.1831 83.091 47.0934 83.3506 46.9167C83.6103 46.7401 83.8072 46.4856 83.9131 46.1899C83.9474 46.08 83.9632 45.9651 83.9601 45.8499L83.9571 44.8289ZM83.0971 40.0229L83.9101 41.2359H83.3641L82.8641 40.4359H82.8531L82.3531 41.2359H81.8061L82.6061 40.0229H83.0971Z" fill="white"/>
<path d="M91.6451 46.235C91.6451 46.84 91.6551 47.373 91.6941 47.835H90.7471L90.6851 46.876H90.6601C90.4638 47.2153 90.1801 47.4957 89.8385 47.688C89.4969 47.8803 89.11 47.9773 88.7181 47.969C87.7971 47.969 86.6891 47.447 86.6891 45.394V41.957H87.7601V45.199C87.7601 46.316 88.1101 47.081 89.0701 47.081C89.376 47.076 89.6734 46.9797 89.9242 46.8043C90.1749 46.629 90.3674 46.3827 90.4771 46.097C90.5473 45.9241 90.5813 45.7386 90.5771 45.552V41.952H91.6441V46.229" fill="white"/>
</svg>
