<svg width="75" height="76" viewBox="0 0 75 76" fill="none" xmlns="http://www.w3.org/2000/svg">
<circle cx="37.5" cy="38.125" r="37.5" fill="#FDE5D7"/>
<path d="M20.3874 55.228C20.0324 54.873 19.833 54.3916 19.833 53.8897V31.8086H55.1627V53.8897C55.1627 54.3916 54.9633 54.873 54.6084 55.228C54.2534 55.5829 53.772 55.7823 53.27 55.7823H21.7257C21.2237 55.7823 20.7423 55.5829 20.3874 55.228Z" fill="#FEC770"/>
<path d="M53.27 22.9806H48.8601V20.457H45.0748V22.9806H29.9209V20.457H26.1356V22.9806H21.7257C21.4781 22.9785 21.2325 23.0254 21.0031 23.1187C20.7737 23.2119 20.5651 23.3496 20.3891 23.5239C20.2132 23.6981 20.0735 23.9054 19.9781 24.1339C19.8826 24.3624 19.8333 24.6075 19.833 24.8551V29.2895H55.1627V24.8551C55.1624 24.6075 55.1131 24.3624 55.0177 24.1339C54.9222 23.9054 54.7825 23.6981 54.6066 23.5239C54.4306 23.3496 54.222 23.2119 53.9926 23.1187C53.7632 23.0254 53.5176 22.9785 53.27 22.9806Z" fill="url(#paint0_linear_3227_174914)"/>
<path d="M20.3538 53.8941V32.3338H54.6419V53.8941C54.6419 54.2579 54.4973 54.6068 54.2401 54.8641C53.9828 55.1214 53.6339 55.2659 53.27 55.2659H21.7257C21.3618 55.2659 21.0129 55.1214 20.7556 54.8641C20.4984 54.6068 20.3538 54.2579 20.3538 53.8941ZM53.27 23.5014L53.2744 23.5014C53.4533 23.4999 53.6307 23.5338 53.7965 23.6012C53.9622 23.6685 54.113 23.768 54.2401 23.8939C54.3672 24.0198 54.4681 24.1696 54.5371 24.3347L55.0177 24.1339L54.5371 24.3347C54.606 24.4998 54.6417 24.6768 54.6419 24.8557V28.7686H20.3538V24.8554C20.3541 24.6766 20.3897 24.4997 20.4586 24.3347C20.5276 24.1696 20.6285 24.0198 20.7556 23.8939C20.8828 23.768 21.0335 23.6685 21.1992 23.6012C21.365 23.5338 21.5424 23.4999 21.7213 23.5014L21.7213 23.5014H21.7257H26.1356H26.6564V22.9806V20.9779H29.4001V22.9806V23.5014H29.9209H45.0748H45.5956V22.9806V20.9779H48.3393V22.9806V23.5014H48.8601L53.27 23.5014Z" stroke="#985801" stroke-width="1.04167"/>
<path d="M45.1596 34.4322C45.1005 34.4914 45.0672 34.5716 45.0672 34.6553V37.8097C45.0672 37.8934 45.1005 37.9736 45.1596 38.0328C45.2188 38.0919 45.299 38.1252 45.3827 38.1252H48.5371C48.6208 38.1252 48.701 38.0919 48.7602 38.0328C48.8193 37.9736 48.8526 37.8934 48.8526 37.8097V34.6553C48.8526 34.5716 48.8193 34.4914 48.7602 34.4322C48.701 34.3731 48.6208 34.3398 48.5371 34.3398H45.3827C45.299 34.3398 45.2188 34.3731 45.1596 34.4322Z" fill="white"/>
<path d="M45.1596 40.7411C45.1005 40.8003 45.0672 40.8805 45.0672 40.9642V44.1186C45.0672 44.2023 45.1005 44.2825 45.1596 44.3417C45.2188 44.4008 45.299 44.434 45.3827 44.434H48.5371C48.6208 44.434 48.701 44.4008 48.7602 44.3417C48.8193 44.2825 48.8526 44.2023 48.8526 44.1186V40.9642C48.8526 40.8805 48.8193 40.8003 48.7602 40.7411C48.701 40.682 48.6208 40.6487 48.5371 40.6487H45.3827C45.299 40.6487 45.2188 40.682 45.1596 40.7411Z" fill="white"/>
<path d="M38.8508 34.4322C38.7916 34.4914 38.7584 34.5716 38.7584 34.6553V37.8097C38.7584 37.8934 38.7916 37.9736 38.8508 38.0328C38.9099 38.0919 38.9902 38.1252 39.0738 38.1252H42.2283C42.3119 38.1252 42.3921 38.0919 42.4513 38.0328C42.5105 37.9736 42.5437 37.8934 42.5437 37.8097V34.6553C42.5437 34.5716 42.5105 34.4914 42.4513 34.4322C42.3921 34.3731 42.3119 34.3398 42.2283 34.3398H39.0738C38.9902 34.3398 38.9099 34.3731 38.8508 34.4322Z" fill="white"/>
<path d="M38.8508 40.7411C38.7916 40.8003 38.7584 40.8805 38.7584 40.9642V44.1186C38.7584 44.2023 38.7916 44.2825 38.8508 44.3417C38.9099 44.4008 38.9902 44.434 39.0738 44.434H42.2283C42.3119 44.434 42.3921 44.4008 42.4513 44.3417C42.5105 44.2825 42.5437 44.2023 42.5437 44.1186V40.9642C42.5437 40.8805 42.5105 40.8003 42.4513 40.7411C42.3921 40.682 42.3119 40.6487 42.2283 40.6487H39.0738C38.9902 40.6487 38.9099 40.682 38.8508 40.7411Z" fill="white"/>
<path d="M38.8508 47.05C38.7916 47.1091 38.7584 47.1894 38.7584 47.273V50.4275C38.7584 50.5111 38.7916 50.5914 38.8508 50.6505C38.9099 50.7097 38.9902 50.7429 39.0738 50.7429H42.2283C42.3119 50.7429 42.3921 50.7097 42.4513 50.6505C42.5105 50.5914 42.5437 50.5111 42.5437 50.4275V47.273C42.5437 47.1894 42.5105 47.1091 42.4513 47.05C42.3921 46.9908 42.3119 46.9576 42.2283 46.9576H39.0738C38.9902 46.9576 38.9099 46.9908 38.8508 47.05Z" fill="white"/>
<path d="M32.5419 40.7411C32.4827 40.8003 32.4495 40.8805 32.4495 40.9642V44.1186C32.4495 44.2023 32.4827 44.2825 32.5419 44.3417C32.601 44.4008 32.6813 44.434 32.7649 44.434H35.9194C36.003 44.434 36.0833 44.4008 36.1424 44.3417C36.2016 44.2825 36.2348 44.2023 36.2348 44.1186V40.9642C36.2348 40.8805 36.2016 40.8003 36.1424 40.7411C36.0833 40.682 36.003 40.6487 35.9194 40.6487H32.7649C32.6813 40.6487 32.601 40.682 32.5419 40.7411Z" fill="white"/>
<path d="M32.5419 47.05C32.4827 47.1091 32.4495 47.1894 32.4495 47.273V50.4275C32.4495 50.5111 32.4827 50.5914 32.5419 50.6505C32.601 50.7097 32.6813 50.7429 32.7649 50.7429H35.9194C36.003 50.7429 36.0833 50.7097 36.1424 50.6505C36.2016 50.5914 36.2348 50.5111 36.2348 50.4275V47.273C36.2348 47.1894 36.2016 47.1091 36.1424 47.05C36.0833 46.9908 36.003 46.9576 35.9194 46.9576H32.7649C32.6813 46.9576 32.601 46.9908 32.5419 47.05Z" fill="white"/>
<path d="M26.233 40.7411C26.1739 40.8003 26.1406 40.8805 26.1406 40.9642V44.1186C26.1406 44.2023 26.1739 44.2825 26.233 44.3417C26.2922 44.4008 26.3724 44.434 26.4561 44.434H29.6105C29.6942 44.434 29.7744 44.4008 29.8336 44.3417C29.8927 44.2825 29.9259 44.2023 29.9259 44.1186V40.9642C29.9259 40.8805 29.8927 40.8003 29.8336 40.7411C29.7744 40.682 29.6942 40.6487 29.6105 40.6487H26.4561C26.3724 40.6487 26.2922 40.682 26.233 40.7411Z" fill="white"/>
<path d="M26.233 47.05C26.1739 47.1091 26.1406 47.1894 26.1406 47.273V50.4275C26.1406 50.5111 26.1739 50.5914 26.233 50.6505C26.2922 50.7097 26.3724 50.7429 26.4561 50.7429H29.6105C29.6942 50.7429 29.7744 50.7097 29.8336 50.6505C29.8927 50.5914 29.9259 50.5111 29.9259 50.4275V47.273C29.9259 47.1894 29.8927 47.1091 29.8336 47.05C29.7744 46.9908 29.6942 46.9576 29.6105 46.9576H26.4561C26.3724 46.9576 26.2922 46.9908 26.233 47.05Z" fill="white"/>
<defs>
<linearGradient id="paint0_linear_3227_174914" x1="19.9213" y1="38.1631" x2="55.1994" y2="38.1631" gradientUnits="userSpaceOnUse">
<stop stop-color="#E1590A"/>
<stop offset="1" stop-color="#C23102"/>
</linearGradient>
</defs>
</svg>
