<svg width="30" height="30" viewBox="0 0 30 30" fill="none" xmlns="http://www.w3.org/2000/svg">
<g clip-path="url(#clip0_2917_7824)">
<path d="M15 23.91C10.11 21.57 5.74999 20.76 0.48999 21.52C0.48999 16.47 0.48999 11.42 0.48999 6.37C5.74999 5.61 10.11 6.42 15 8.76C15 13.81 15 18.86 15 23.91Z" fill="#FFC76F" stroke="#985801" stroke-width="1.5" stroke-miterlimit="10" stroke-linecap="round" stroke-linejoin="round"/>
<path d="M2.58008 9.89005C6.33008 9.35005 9.43008 9.93005 12.9201 11.59" stroke="#985801" stroke-width="1.5" stroke-miterlimit="10" stroke-linecap="round" stroke-linejoin="round"/>
<path d="M2.58008 13.75C6.33008 13.21 9.43008 13.79 12.9201 15.45" stroke="#985801" stroke-width="1.5" stroke-miterlimit="10" stroke-linecap="round" stroke-linejoin="round"/>
<path d="M2.58008 17.61C6.33008 17.07 9.43008 17.65 12.9201 19.31" stroke="#985801" stroke-width="1.5" stroke-miterlimit="10" stroke-linecap="round" stroke-linejoin="round"/>
<path d="M15 23.91C19.89 21.57 24.25 20.76 29.51 21.52C29.51 16.47 29.51 11.42 29.51 6.37C24.25 5.61 19.89 6.42 15 8.76C15 13.81 15 18.86 15 23.91Z" fill="#FFC76F" stroke="#985801" stroke-width="1.5" stroke-miterlimit="10" stroke-linecap="round" stroke-linejoin="round"/>
<path d="M20.8501 16.2499C22.9701 15.2399 24.8401 14.8899 27.1201 15.2199C27.1201 13.0399 27.1201 10.8599 27.1201 8.67994C24.8401 8.35994 22.9701 8.69994 20.8501 9.70994C20.8501 11.8799 20.8501 14.0599 20.8501 16.2499Z" fill="#DD1F26" stroke="white" stroke-width="1.5" stroke-miterlimit="10" stroke-linecap="round" stroke-linejoin="round"/>
</g>
<defs>
<clipPath id="clip0_2917_7824">
<rect width="30" height="30" fill="white"/>
</clipPath>
</defs>
</svg>
