<svg width="1366" height="186" viewBox="0 0 1366 186" fill="none" xmlns="http://www.w3.org/2000/svg">
<path d="M-1 45H1366V172.204C1366 172.204 1062.4 185.171 687.117 185.968C311.832 186.765 -1 172.204 -1 172.204V45Z" fill="#D63132"/>
<path d="M0.03968 0H1367L1365.96 173.305C1365.96 173.305 1067.14 183.266 691.865 183.969C316.591 184.671 -1 173.305 -1 173.305L0.03968 0Z" fill="url(#paint0_linear)"/>
<mask id="mask0" style="mask-type:alpha" maskUnits="userSpaceOnUse" x="0" y="0" width="1367" height="184">
<path d="M1.03892 0H1367L1365.96 173.305C1365.96 173.305 1067.36 183.266 692.358 183.969C317.359 184.671 0 173.305 0 173.305L1.03892 0Z" fill="#E5CDD4"/>
</mask>
<g mask="url(#mask0)">
<path d="M656 146.114V174.978H526.779C524.451 174.978 522.218 174.519 520.571 173.703C518.925 172.886 518 171.779 518 170.624C518 169.469 518.925 168.361 520.571 167.545C522.218 166.728 524.451 166.269 526.779 166.269C526.957 166.269 527.134 166.273 527.308 166.277C527.993 165.136 529.31 164.113 531.108 163.325C532.907 162.537 535.116 162.014 537.483 161.817C537.891 161.099 538.646 160.441 539.682 159.901C540.718 159.36 542.005 158.953 543.43 158.715C544.855 158.476 546.376 158.414 547.861 158.533C549.346 158.652 550.75 158.949 551.951 159.398C552.461 159.227 552.992 159.073 553.542 158.935C555.656 157.804 558.563 157.117 561.665 157.015C561.122 155.654 561.517 154.242 562.787 153.006C564.057 151.771 566.127 150.782 568.666 150.201C571.205 149.619 574.064 149.477 576.784 149.799C579.505 150.12 581.928 150.886 583.665 151.973C585.025 150.871 587.151 150.054 589.642 149.675C592.133 149.297 594.817 149.383 597.188 149.918C600.038 148.685 603.741 148.048 607.518 148.141C611.295 148.235 614.852 149.051 617.44 150.419C618.854 150.173 620.34 150.042 621.84 150.034C620.999 149.521 620.468 148.9 620.309 148.244C620.151 147.587 620.37 146.922 620.942 146.325C621.515 145.728 622.417 145.224 623.543 144.871C624.67 144.517 625.976 144.33 627.308 144.33C627.46 144.33 627.611 144.33 627.761 144.337C628.634 142.66 630.71 141.198 633.6 140.226C636.49 139.254 639.995 138.839 643.459 139.057C646.923 139.275 650.108 140.112 652.417 141.411C654.725 142.711 655.999 144.383 656 146.115V146.114Z" fill="url(#paint1_linear)"/>
<path d="M712.482 175.005V146.142C712.483 144.41 713.443 142.738 715.183 141.439C716.923 140.139 719.323 139.302 721.933 139.084C724.544 138.866 727.186 139.282 729.364 140.254C731.542 141.226 733.106 142.687 733.764 144.364C733.877 144.357 733.991 144.357 734.105 144.357C735.11 144.357 736.093 144.545 736.942 144.898C737.792 145.251 738.471 145.755 738.903 146.352C739.334 146.95 739.499 147.615 739.38 148.271C739.26 148.928 741.371 147.022 748.594 147.522C752.219 147.773 754.657 148.712 756.804 149.946C758.591 149.41 760.614 149.324 762.491 149.702C764.369 150.081 765.971 150.898 766.996 152C768.305 150.913 770.131 150.148 772.181 149.826C774.231 149.505 776.386 149.646 778.299 150.228C780.213 150.81 781.773 151.798 782.73 153.034C783.687 154.27 783.984 155.681 783.575 157.042C785.914 157.144 788.104 157.832 789.697 158.963C790.111 159.1 790.512 159.255 790.896 159.426C791.802 158.977 792.86 158.68 793.978 158.561C795.097 158.441 796.244 158.504 797.318 158.742C798.392 158.98 799.361 159.387 800.142 159.928C800.923 160.469 801.492 161.127 801.799 161.845C803.584 162.042 805.248 162.564 806.604 163.352C807.959 164.141 808.952 165.164 809.468 166.305C809.599 166.3 809.732 166.297 809.866 166.297C811.621 166.297 813.304 166.755 814.545 167.572C815.785 168.389 816.482 169.496 816.482 170.651C816.482 171.806 815.785 172.913 814.545 173.73C813.304 174.547 811.621 175.005 809.866 175.005H712.482Z" fill="url(#paint2_linear)"/>
<path d="M741 80.304H806.519C802.619 79.8371 798.594 79.3135 794.696 78.8467C794.641 78.3482 794.457 77.8726 794.16 77.467C793.864 77.0614 793.466 76.7398 793.007 76.5342C792.561 76.329 792.067 76.2467 791.578 76.2961C791.089 76.3455 790.622 76.5247 790.226 76.8149C790.433 75.4213 789.179 74.1172 787.882 73.5528C786.541 73.084 785.115 72.9105 783.7 73.0441C783.532 71.4278 782.919 69.889 781.929 68.597C780.939 67.3051 779.61 66.3101 778.088 65.7215C776.562 65.1162 774.911 64.8866 773.277 65.0523C771.642 65.218 770.072 65.774 768.7 66.6732C767.343 67.5929 766.192 68.7841 765.323 70.1709C764.454 71.5576 763.884 73.1094 763.651 74.7274C762.649 74.6175 761.636 74.79 760.728 75.2255C759.82 75.661 759.053 76.3418 758.515 77.1902C757.552 76.7344 756.457 76.6382 755.429 76.9191C754.401 77.1999 753.509 77.8392 752.915 78.7202L741 80.304Z" fill="url(#paint3_linear)"/>
<path fill-rule="evenodd" clip-rule="evenodd" d="M703.589 109.812C703.589 109.812 703.44 106.318 704.739 104.082H708.916C708.916 104.082 706.644 106.965 706.373 109.916L703.589 109.812Z" fill="url(#paint4_linear)"/>
<path fill-rule="evenodd" clip-rule="evenodd" d="M697.709 115.05L698.994 108.293H727.684L725.738 117.141L697.709 115.05Z" fill="url(#paint5_linear)"/>
<path fill-rule="evenodd" clip-rule="evenodd" d="M727.685 108.293L729.514 108.967V109.999L733.836 111.651L731.55 119.667L725.59 117.865L727.685 108.293Z" fill="#DD6E00"/>
<path fill-rule="evenodd" clip-rule="evenodd" d="M723.435 115.985L694.41 114.926L683.896 159.701L714.442 165.598L723.435 115.985Z" fill="url(#paint6_linear)"/>
<path fill-rule="evenodd" clip-rule="evenodd" d="M724.082 167.202L732.812 119.472C732.812 119.472 730.83 117.082 724.819 116.086L714.441 165.6L724.082 167.202Z" fill="#DD6E00"/>
<path fill-rule="evenodd" clip-rule="evenodd" d="M720.836 144.907C720.836 144.907 724.23 145.469 726 146.052L730.085 124.996C730.085 124.996 728.777 123.483 725.234 122.93L720.836 144.907Z" fill="url(#paint7_linear)"/>
<path opacity="0.5" d="M724.676 157.64C725.115 154.999 724.145 152.638 722.51 152.366C720.875 152.095 719.194 154.015 718.755 156.656C718.317 159.297 719.286 161.658 720.921 161.93C722.556 162.201 724.237 160.281 724.676 157.64Z" fill="#9A2463"/>
<path fill-rule="evenodd" clip-rule="evenodd" d="M724.779 156.998C724.34 159.641 722.661 161.56 721.027 161.289C719.393 161.017 718.424 158.654 718.864 156.016C719.303 153.373 720.982 151.454 722.615 151.725C724.249 151.997 725.218 154.359 724.779 156.998Z" fill="url(#paint8_linear)"/>
<path fill-rule="evenodd" clip-rule="evenodd" d="M724.232 156.908C723.901 158.908 722.63 160.361 721.389 160.153C721.236 160.126 721.091 160.08 720.955 160.008C719.986 159.506 719.457 157.917 719.751 156.161C720.041 154.41 721.055 153.074 722.136 152.911C722.286 152.889 722.439 152.889 722.593 152.916C723.829 153.124 724.562 154.912 724.232 156.908Z" fill="#DD6E00"/>
<path fill-rule="evenodd" clip-rule="evenodd" d="M723.339 156.758C723.05 158.509 722.036 159.84 720.959 160.007C719.99 159.505 719.461 157.916 719.755 156.16C720.045 154.409 721.058 153.074 722.14 152.911C723.1 153.422 723.629 155.011 723.339 156.758Z" fill="url(#paint9_linear)"/>
<path fill-rule="evenodd" clip-rule="evenodd" d="M724.82 116.08L723.436 115.985L713.107 165.34L714.443 165.598L724.82 116.08Z" fill="url(#paint10_linear)"/>
<path fill-rule="evenodd" clip-rule="evenodd" d="M729.713 117.468L731.55 110.775L730.057 110.204L733.836 109.91L730.288 117.731L729.713 117.468Z" fill="url(#paint11_linear)"/>
<path d="M661 73.9414L715.328 69.4414C715.328 69.4414 718.15 69.4414 718.856 75.87C719.562 82.2985 717.445 83.37 717.445 83.37L664.528 84.4414L661 73.9414Z" fill="#F6C3C4"/>
<path fill-rule="evenodd" clip-rule="evenodd" d="M719 80.8739C719 80.8739 710.985 131.011 710.735 171.441H648.979C648.979 171.441 648.979 171.423 648.975 171.389C648.959 171.224 648.914 170.677 648.84 169.792C648.393 164.268 647.008 145.616 647 125.116C646.992 114.727 648.34 103.859 649.344 93.9872C649.709 90.3444 650.168 86.8328 650.729 83.5348C650.729 83.5348 683 79.1124 716.148 79.461L719 80.8739Z" fill="url(#paint12_linear)"/>
<path fill-rule="evenodd" clip-rule="evenodd" d="M715.959 79.4414C715.959 79.4414 709.158 118.678 708 171.441H710.189C710.189 171.441 711.53 123.037 719 80.862L715.959 79.4414Z" fill="#D82F30"/>
<path fill-rule="evenodd" clip-rule="evenodd" d="M710.75 73.9118C708.75 78.9117 708.261 83.2387 707.25 89.4118C704.458 106.449 701.534 142.313 704.109 174.436L658.745 174.855L649.197 174.944L648.729 174.948C648.729 174.948 645.258 165.575 644.262 147.522C643.929 141.482 643.876 134.474 644.323 126.519C644.88 116.682 645.242 107.59 647.75 94.9119C648.079 93.2325 648.25 88.9119 651.25 80.9119C653.064 76.0735 655.25 73.9118 656.75 72.9118C656.75 72.9118 681.5 67.4397 714 69.4397C714 69.4397 712.068 70.6174 710.75 73.9118Z" fill="url(#paint13_linear)"/>
<path fill-rule="evenodd" clip-rule="evenodd" d="M703.981 168.441C703.981 168.441 697.095 140.937 709 83.4414C708.711 84.8504 700.646 127.345 703.981 168.441Z" fill="#D82F30"/>
<g opacity="0.3">
<path opacity="0.8" fill-rule="evenodd" clip-rule="evenodd" d="M700.875 81.9217C686.577 82.0721 672.292 82.985 657.999 83.4372C658.135 82.792 658.203 82.4693 658.345 81.8243C672.623 81.3397 686.889 80.3745 701.167 80.1955C701.05 80.8891 700.991 81.2359 700.875 81.9217Z" fill="#D82F30"/>
<path opacity="0.8" fill-rule="evenodd" clip-rule="evenodd" d="M698.588 91.0318C688.483 91.4505 668.177 92.0317 658.084 92.7187C658.084 92.7187 658.243 91.7106 658.352 91.0318C668.441 90.3286 688.747 89.7392 698.852 89.3164C698.747 90.0074 698.694 90.3489 698.588 91.0318Z" fill="#D82F30"/>
<path opacity="0.8" fill-rule="evenodd" clip-rule="evenodd" d="M698.588 100.032C688.483 100.45 668.177 101.032 658.084 101.719C658.084 101.719 658.243 100.711 658.352 100.032C668.441 99.3286 688.747 98.7392 698.852 98.3164C698.747 99.0074 698.694 99.3489 698.588 100.032Z" fill="#D82F30"/>
<path opacity="0.8" fill-rule="evenodd" clip-rule="evenodd" d="M697.235 121.854C690.013 121.796 682.792 121.738 675.567 121.668C675.591 120.953 675.604 120.599 675.636 119.893C682.878 119.935 690.118 119.962 697.361 119.996C697.307 120.73 697.281 121.103 697.235 121.854Z" fill="#D82F30"/>
<path opacity="0.8" fill-rule="evenodd" clip-rule="evenodd" d="M698.383 111.799C688.58 111.848 679.778 111.979 669.976 112.015C670.026 111.334 670.051 110.993 670.11 110.313C679.934 110.257 688.761 110.107 698.585 110.047C698.501 110.747 698.459 111.095 698.383 111.799Z" fill="#D82F30"/>
</g>
<path d="M648.169 136.772L652.511 138.023L659.641 141.728C659.641 141.728 656.021 145.781 653.412 149.849C651.539 152.77 648.435 157.314 648.435 157.314L647.022 149.422C647.022 149.422 645.856 149.456 643.345 150.403C641.473 151.109 639.083 152.249 639.083 152.249L643.911 144.221L648.169 136.772Z" fill="url(#paint14_linear)"/>
<path d="M651.73 142.271L655.577 139.172L663.373 135.12C663.373 135.12 664.724 140.906 666.725 145.796C668.162 149.307 670.278 154.94 670.278 154.94L662.328 151.246C662.328 151.246 661.626 152.311 660.896 155.152C660.351 157.271 659.87 160.126 659.87 160.126L655.72 150.762L651.73 142.271Z" fill="url(#paint15_linear)"/>
<circle cx="656.162" cy="131.61" r="15.3862" transform="rotate(14.2793 656.162 131.61)" fill="url(#paint16_radial)" stroke="#DD6E00" stroke-width="2"/>
<path d="M665.908 142.619C658.973 148.433 649.444 148.432 644.32 142.32C639.196 136.207 638.884 126.576 645.819 120.762C652.755 114.948 662.531 115.191 667.655 121.303C672.779 127.416 672.385 135.702 665.908 142.619Z" fill="url(#paint17_radial)"/>
<circle cx="656.162" cy="131.61" r="15.3862" transform="rotate(14.2793 656.162 131.61)" stroke="#DD6E00" stroke-width="2"/>
<path fill-rule="evenodd" clip-rule="evenodd" d="M647.387 131.193L649.865 129.853L652.366 135.501C652.366 135.501 658.336 127.548 665.204 124.31L667.11 125.948C667.11 125.948 657.752 130.775 653.243 138.827L650.245 138.109C650.256 138.112 648.66 133.062 647.387 131.193Z" fill="#D82F30"/>
<path d="M503.468 165.855C277.103 176.034 73.5038 156.081 0 144.832V184.112H734.281V170.281C742.087 164.564 729.834 155.675 503.468 165.855Z" fill="url(#paint18_linear)"/>
<path d="M1170.86 155.896C1094.36 163.42 839.346 167.513 733.969 168.62V184.11H1366V131C1339.33 135.426 1262.96 146.601 1170.86 155.896Z" fill="url(#paint19_linear)"/>
<path d="M1221.59 160.876C1114.26 170.281 880.092 170.835 761.055 170.281V184.112H1366V142.066L1365.61 142.139C1351.48 144.811 1305.3 153.541 1221.59 160.876Z" fill="url(#paint20_linear)"/>
<path d="M366.681 171.386C206.173 172.713 68.3005 163.087 19.4277 158.108V184.11H1366V153.129C1328.06 157.002 1228.64 165.743 1134.5 169.726C1066.59 172.824 829.521 171.017 735.634 169.726C736.277 168.251 732.162 164.857 710.555 163.087C683.546 160.874 567.317 169.726 366.681 171.386Z" fill="url(#paint21_linear)"/>
</g>
<defs>
<linearGradient id="paint0_linear" x1="681.176" y1="0.162525" x2="680.502" y2="183.82" gradientUnits="userSpaceOnUse">
<stop stop-color="#FEF2ED"/>
<stop offset="1" stop-color="#FCE5D7"/>
</linearGradient>
<linearGradient id="paint1_linear" x1="594.176" y1="132.776" x2="594.157" y2="193.467" gradientUnits="userSpaceOnUse">
<stop stop-color="white"/>
<stop offset="0.536458" stop-color="white" stop-opacity="0.328375"/>
<stop offset="1" stop-color="white" stop-opacity="0.76"/>
</linearGradient>
<linearGradient id="paint2_linear" x1="759.074" y1="132.803" x2="759.1" y2="193.494" gradientUnits="userSpaceOnUse">
<stop stop-color="white"/>
<stop offset="0.536458" stop-color="white" stop-opacity="0.328375"/>
<stop offset="1" stop-color="white" stop-opacity="0.204"/>
</linearGradient>
<linearGradient id="paint3_linear" x1="777.166" y1="62.3524" x2="777.138" y2="82.5697" gradientUnits="userSpaceOnUse">
<stop stop-color="white"/>
<stop offset="0.69" stop-color="white" stop-opacity="0.635"/>
<stop offset="1" stop-color="white" stop-opacity="0.204"/>
</linearGradient>
<linearGradient id="paint4_linear" x1="706.249" y1="109.912" x2="706.249" y2="104.08" gradientUnits="userSpaceOnUse">
<stop stop-color="#FFD328"/>
<stop offset="1" stop-color="#FFA700"/>
</linearGradient>
<linearGradient id="paint5_linear" x1="721.734" y1="117.312" x2="720.977" y2="107.178" gradientUnits="userSpaceOnUse">
<stop offset="0.0171" stop-color="#FFD2D2"/>
<stop offset="1" stop-color="white"/>
</linearGradient>
<linearGradient id="paint6_linear" x1="703.666" y1="114.926" x2="703.666" y2="165.598" gradientUnits="userSpaceOnUse">
<stop stop-color="#FFBF74"/>
<stop offset="1" stop-color="#F4973B"/>
</linearGradient>
<linearGradient id="paint7_linear" x1="728.249" y1="146.499" x2="716.217" y2="127.479" gradientUnits="userSpaceOnUse">
<stop offset="0.0171" stop-color="#FFD2D2"/>
<stop offset="1" stop-color="white"/>
</linearGradient>
<linearGradient id="paint8_linear" x1="721.821" y1="151.7" x2="721.821" y2="161.314" gradientUnits="userSpaceOnUse">
<stop stop-color="#FFBF74"/>
<stop offset="1" stop-color="#F4973B"/>
</linearGradient>
<linearGradient id="paint9_linear" x1="722.675" y1="160.145" x2="719.488" y2="153.499" gradientUnits="userSpaceOnUse">
<stop offset="0.0171" stop-color="#FFD2D2"/>
<stop offset="1" stop-color="white"/>
</linearGradient>
<linearGradient id="paint10_linear" x1="718.964" y1="115.985" x2="718.964" y2="165.598" gradientUnits="userSpaceOnUse">
<stop stop-color="#FFBF74"/>
<stop offset="1" stop-color="#F4973B"/>
</linearGradient>
<linearGradient id="paint11_linear" x1="733.018" y1="117.882" x2="729.504" y2="110.561" gradientUnits="userSpaceOnUse">
<stop offset="0.0171" stop-color="#FFD2D2"/>
<stop offset="1" stop-color="white"/>
</linearGradient>
<linearGradient id="paint12_linear" x1="682.446" y1="38.3224" x2="683.568" y2="171.437" gradientUnits="userSpaceOnUse">
<stop stop-color="#FFB59A"/>
<stop offset="1" stop-color="#F75A4A"/>
</linearGradient>
<linearGradient id="paint13_linear" x1="697.572" y1="176.791" x2="662.655" y2="79.8144" gradientUnits="userSpaceOnUse">
<stop offset="0.0171" stop-color="#FFD2D2"/>
<stop offset="1" stop-color="white"/>
</linearGradient>
<linearGradient id="paint14_linear" x1="642.582" y1="156.262" x2="651.467" y2="145.342" gradientUnits="userSpaceOnUse">
<stop stop-color="#FFBF74"/>
<stop offset="1" stop-color="#F4973B"/>
</linearGradient>
<linearGradient id="paint15_linear" x1="665.659" y1="159.516" x2="661.47" y2="144.705" gradientUnits="userSpaceOnUse">
<stop stop-color="#FFBF74"/>
<stop offset="1" stop-color="#F4973B"/>
</linearGradient>
<radialGradient id="paint16_radial" cx="0" cy="0" r="1" gradientUnits="userSpaceOnUse" gradientTransform="translate(656.162 131.61) rotate(87.1857) scale(14.038)">
<stop stop-color="#FFBF74"/>
<stop offset="1" stop-color="#F4973B"/>
</radialGradient>
<radialGradient id="paint17_radial" cx="0" cy="0" r="1" gradientUnits="userSpaceOnUse" gradientTransform="translate(655.877 131.68) rotate(130.941) scale(28.8064 27.2193)">
<stop stop-color="#FFDC7B"/>
<stop offset="1" stop-color="#F4973B"/>
</radialGradient>
<linearGradient id="paint18_linear" x1="18.3332" y1="170.065" x2="147.574" y2="-113.579" gradientUnits="userSpaceOnUse">
<stop stop-color="#FEA98F" stop-opacity="0.4"/>
<stop offset="0.477836" stop-color="#FDF3E9" stop-opacity="0.8"/>
<stop offset="1" stop-color="#FEA98F" stop-opacity="0.502"/>
</linearGradient>
<linearGradient id="paint19_linear" x1="773.67" y1="165.117" x2="997.949" y2="-124.106" gradientUnits="userSpaceOnUse">
<stop stop-color="#FCD7C9"/>
<stop offset="0.520833" stop-color="#F8EDE2" stop-opacity="0.8"/>
<stop offset="1" stop-color="#FEA98F" stop-opacity="0.502"/>
</linearGradient>
<linearGradient id="paint20_linear" x1="1346.08" y1="169.949" x2="759.656" y2="181.813" gradientUnits="userSpaceOnUse">
<stop stop-color="#F19D99"/>
<stop offset="1" stop-color="#FCF0F1"/>
</linearGradient>
<linearGradient id="paint21_linear" x1="56.0821" y1="143.724" x2="1467.8" y2="684.104" gradientUnits="userSpaceOnUse">
<stop stop-color="#F7CDBA"/>
<stop offset="0.442137" stop-color="#FF8D7E"/>
<stop offset="1" stop-color="#F3AD95"/>
</linearGradient>
</defs>
</svg>
