<svg width="30" height="30" viewBox="0 0 30 30" fill="none" xmlns="http://www.w3.org/2000/svg">
<path d="M16.4999 0.599976C22.6999 0.599976 27.6999 5.59998 27.6999 11.8C27.6999 16.3 25.0999 20.1 21.2999 21.9V29.4H10.0999V24.6H8.49992C6.69992 24.6 5.29992 23.2 5.29992 21.4V16.6H2.89992C2.19992 16.6 1.79992 15.8 2.19992 15.3L5.29992 11.3C5.39992 8.39998 6.69992 5.69998 8.79992 3.69998C10.8999 1.69998 13.6999 0.599976 16.4999 0.599976Z" fill="#FFC76F" stroke="#985801" stroke-width="1.2" stroke-miterlimit="10"/>
<path d="M14.7001 17.9C11.8001 15.2 9.6001 13.3 9.6001 10.7C9.6001 8.4 11.5001 6.5 13.7001 6.5C14.6001 6.5 15.5001 6.8 16.2001 7.2C16.9001 6.7 17.8001 6.5 18.7001 6.5C21.0001 6.5 22.9001 8.4 22.9001 10.6C22.9001 13.3 20.8001 15.2 17.9001 17.8L16.3001 19.3L14.7001 17.9Z" fill="white"/>
<path d="M21.8 10.7C21.8 12.8 19.9 14.5 17.1 17L16.3 17.7L15.5 17C12.7 14.5 10.8 12.8 10.8 10.7C10.8 9.09995 12.1 7.69995 13.7 7.69995H13.8C14.7 7.69995 15.6 8.09995 16.3 8.79995C16.9 8.09995 17.8 7.69995 18.8 7.69995C20.4 7.69995 21.8 8.99995 21.8 10.7Z" fill="url(#paint0_linear_928_7925)"/>
<defs>
<linearGradient id="paint0_linear_928_7925" x1="16.2975" y1="9.14805" x2="16.2975" y2="13.4439" gradientUnits="userSpaceOnUse">
<stop stop-color="#E1590A"/>
<stop offset="1" stop-color="#C23102"/>
</linearGradient>
</defs>
</svg>
