<svg width="18" height="19" viewBox="0 0 18 19" fill="none" xmlns="http://www.w3.org/2000/svg">
<g clip-path="url(#clip0_1238_11909)">
<mask id="mask0_1238_11909" style="mask-type:alpha" maskUnits="userSpaceOnUse" x="0" y="0" width="18" height="19">
<rect y="0.380859" width="18" height="18" fill="white"/>
</mask>
<g mask="url(#mask0_1238_11909)">
<path d="M14.8086 1.38086H2.19141C0.983045 1.38086 0 2.3639 0 3.57227V15.127C0 16.3353 0.983045 17.3184 2.19141 17.3184H14.8086C16.017 17.3184 17 16.3353 17 15.127V3.57227C17 2.3639 16.017 1.38086 14.8086 1.38086ZM1.0625 15.127V6.32812C1.0625 6.23645 1.13684 6.16211 1.22852 6.16211H15.7715C15.8632 6.16211 15.9375 6.23645 15.9375 6.32812V13.0684H14.2773C13.4338 13.0684 12.75 13.7522 12.75 14.5957V16.2559H2.19141C1.56792 16.2559 1.0625 15.7504 1.0625 15.127ZM14.8086 16.2559H13.8125V14.5957C13.8125 14.3394 14.021 14.1309 14.2773 14.1309H15.9375V15.127C15.9375 15.7494 15.4311 16.2559 14.8086 16.2559Z" fill="#727272"/>
<path d="M13.2812 8.28711C13.2812 7.99373 13.0434 7.75586 12.75 7.75586H4.25C3.95658 7.75586 3.71875 7.99373 3.71875 8.28711C3.71875 8.58049 3.95658 8.81836 4.25 8.81836H12.75C13.0434 8.81836 13.2812 8.58049 13.2812 8.28711Z" fill="#727272"/>
<path d="M11.6875 10.4121H5.3125C5.01908 10.4121 4.78125 10.65 4.78125 10.9434C4.78125 11.2367 5.01908 11.4746 5.3125 11.4746H11.6875C11.9809 11.4746 12.2188 11.2367 12.2188 10.9434C12.2188 10.65 11.9809 10.4121 11.6875 10.4121Z" fill="#727272"/>
</g>
</g>
<defs>
<clipPath id="clip0_1238_11909">
<rect width="18" height="18" fill="white" transform="translate(0 0.380859)"/>
</clipPath>
</defs>
</svg>
