<svg width="32" height="32" viewBox="0 0 32 32" fill="none" xmlns="http://www.w3.org/2000/svg">
<g clip-path="url(#clip0_427_876)">
<path d="M16 32.0021C24.8366 32.0021 32 24.8387 32 16.0022C32 7.16567 24.8366 0.0022583 16 0.0022583C7.16344 0.0022583 0 7.16567 0 16.0022C0 24.8387 7.16344 32.0021 16 32.0021Z" fill="url(#paint0_linear_427_876)"/>
<path d="M22.2282 20.6283L22.937 16.0022H18.4999V13.0007C18.4999 11.7361 19.1187 10.5009 21.1077 10.5009H23.126V6.5633C23.126 6.5633 21.2945 6.25055 19.5439 6.25055C15.8899 6.25055 13.5003 8.46458 13.5003 12.4764V16.0022H9.43677V20.6283H13.5003V31.8087C14.3148 31.9369 15.1496 32.0022 16.0001 32.0022C16.8506 32.0022 17.6854 31.9347 18.4999 31.8087V20.6283H22.2282Z" fill="white"/>
</g>
<defs>
<linearGradient id="paint0_linear_427_876" x1="16" y1="0.0022583" x2="16" y2="32.0021" gradientUnits="userSpaceOnUse">
<stop stop-color="#EA6544"/>
<stop offset="1" stop-color="#D12A1E"/>
</linearGradient>
<clipPath id="clip0_427_876">
<rect width="32" height="32" fill="white"/>
</clipPath>
</defs>
</svg>
