<svg width="343" height="90" viewBox="0 0 343 90" fill="none" xmlns="http://www.w3.org/2000/svg">
<g clip-path="url(#clip0_1190_11729)">
<path d="M337 90H6C2.7 90 0 87.3 0 84V6C0 2.7 2.7 0 6 0H337C340.3 0 343 2.7 343 6V84C343 87.3 340.3 90 337 90Z" fill="url(#paint0_linear_1190_11729)"/>
<path d="M171.1 55.6001V82.2001H51.9001C49.8001 82.2001 47.7001 81.8001 46.2001 81.0001C44.7001 80.2001 43.8 79.2001 43.8 78.2001C43.8 77.1001 44.7001 76.1001 46.2001 75.4001C47.7001 74.6001 49.8001 74.2001 51.9001 74.2001C52.1001 74.2001 52.2001 74.2001 52.4001 74.2001C53.0001 73.1001 54.2001 72.2001 55.9001 71.5001C57.6001 70.8001 59.6 70.3001 61.8 70.1001C62.2 69.4001 62.9 68.8001 63.8 68.3001C64.8 67.8001 65.9001 67.4001 67.3001 67.2001C68.6001 67.0001 70.0001 66.9001 71.4001 67.0001C72.8001 67.1001 74.1 67.4001 75.2 67.8001C75.7 67.6001 76.2 67.5001 76.7 67.4001C78.7 66.4001 81.3 65.7001 84.2 65.6001C83.7 64.3001 84.1 63.0001 85.2 61.9001C86.4 60.8001 88.3 59.8001 90.6 59.3001C92.9 58.8001 95.6 58.6001 98.1 58.9001C100.6 59.2001 102.8 59.9001 104.4 60.9001C105.7 59.9001 107.6 59.1001 109.9 58.8001C112.2 58.5001 114.7 58.5001 116.9 59.0001C119.5 57.9001 122.9 57.3001 126.4 57.4001C129.9 57.5001 133.2 58.2001 135.6 59.5001C136.9 59.3001 138.3 59.2001 139.7 59.1001C138.9 58.6001 138.4 58.1001 138.3 57.4001C138.2 56.8001 138.4 56.2001 138.9 55.6001C139.4 55.0001 140.3 54.6001 141.3 54.3001C142.3 54.0001 143.5 53.8001 144.8 53.8001C144.9 53.8001 145.1 53.8001 145.2 53.8001C146 52.3001 147.9 50.9001 150.6 50.0001C153.3 49.1001 156.5 48.7001 159.7 48.9001C162.9 49.1001 165.8 49.9001 168 51.1001C169.9 52.5001 171.1 54.0001 171.1 55.6001Z" fill="url(#paint1_linear_1190_11729)"/>
<path d="M171.1 82.2V55.6C171.1 54 172 52.5 173.6 51.3C175.2 50.1 177.4 49.3 179.8 49.1C182.2 48.9 184.6 49.3 186.7 50.2C188.7 51.1 190.2 52.4 190.8 54C190.9 54 191 54 191.1 54C192 54 192.9 54.2 193.7 54.5C194.5 54.8 195.1 55.3 195.5 55.8C195.9 56.4 196 57 195.9 57.6C195.8 58.2 197.7 56.4 204.4 56.9C207.7 57.1 210 58 212 59.1C213.6 58.6 215.5 58.5 217.2 58.9C218.9 59.2 220.4 60 221.4 61C222.6 60 224.3 59.3 226.2 59C228.1 58.7 230.1 58.8 231.8 59.4C233.6 59.9 235 60.8 235.9 62C236.8 63.1 237.1 64.4 236.7 65.7C238.9 65.8 240.9 66.4 242.3 67.5C242.7 67.6 243.1 67.8 243.4 67.9C244.2 67.5 245.2 67.2 246.2 67.1C247.2 67 248.3 67 249.3 67.3C250.3 67.5 251.2 67.9 251.9 68.4C252.6 68.9 253.1 69.5 253.4 70.2C255 70.4 256.6 70.9 257.8 71.6C259.1 72.3 260 73.3 260.4 74.3C260.5 74.3 260.6 74.3 260.8 74.3C262.4 74.3 264 74.7 265.1 75.5C266.2 76.3 266.9 77.3 266.9 78.3C266.9 79.4 266.3 80.4 265.1 81.1C264 81.9 262.4 82.3 260.8 82.3H171.1V82.2Z" fill="url(#paint2_linear_1190_11729)"/>
<path d="M144.903 25L142.968 25.9677L142 31.7742V80.1613L143.935 83.0645L148.774 85H192.323L190.387 83.0645L187.484 78.2258L188.452 36.6129L187.484 26.9355L185.548 25H144.903Z" fill="#FFC76F"/>
<path d="M194.984 84.8789C193.155 84.8789 191.402 84.1525 190.108 82.8594C188.815 81.5663 188.089 79.8125 188.089 77.9838V36.6128H198.432C199.346 36.6128 200.223 36.976 200.869 37.6226C201.516 38.2691 201.879 39.146 201.879 40.0604V77.9838C201.879 79.8125 201.153 81.5663 199.86 82.8594C198.567 84.1525 196.813 84.8789 194.984 84.8789Z" fill="white" stroke="#985801" stroke-width="2" stroke-linejoin="round"/>
<path d="M188.089 77.2582V28.5687C188.086 27.6551 187.722 26.7798 187.076 26.1338C186.43 25.4878 185.555 25.1237 184.641 25.1211H145.569C144.655 25.1237 143.78 25.4878 143.134 26.1338C142.488 26.7798 142.124 27.6551 142.121 28.5687V79.1332C142.126 80.6557 142.732 82.1146 143.809 83.1912C144.886 84.2678 146.345 84.8746 147.867 84.8792H194.984" stroke="url(#paint3_linear_1190_11729)" stroke-width="2" stroke-linejoin="round"/>
<path d="M169.702 36.6128H178.895M169.702 45.8063H178.895M151.315 54.9999H178.895M151.315 64.1934H178.895M151.315 73.387H178.895" stroke="url(#paint4_linear_1190_11729)" stroke-width="2" stroke-linecap="round" stroke-linejoin="round"/>
<path d="M160.508 48.1048H151.315C150.705 48.1048 150.12 47.8626 149.689 47.4316C149.258 47.0006 149.016 46.416 149.016 45.8064V36.6128C149.016 36.0033 149.258 35.4187 149.689 34.9876C150.12 34.5566 150.705 34.3145 151.315 34.3145H160.508C161.118 34.3145 161.702 34.5566 162.133 34.9876C162.564 35.4187 162.806 36.0033 162.806 36.6128V45.8064C162.806 46.416 162.564 47.0006 162.133 47.4316C161.702 47.8626 161.118 48.1048 160.508 48.1048Z" fill="url(#paint5_linear_1190_11729)"/>
<path d="M74.8001 23.0001H24.3L32.5 21.6001C32.4 20.5001 32.5001 19.3001 32.9001 18.2001C33.3001 17.1001 33.9 16.1001 34.8 15.3001C35.6 14.6001 36.6 14.1001 37.6 13.8001C38.7 13.6001 39.8 13.6001 40.8 13.9001C41.6 12.9001 42.6 12.0001 43.8 11.4001C45 10.8001 46.3 10.6001 47.6 10.6001C48.9 10.7001 50.2001 11.1001 51.4001 11.8001C52.5001 12.5001 53.5 13.4001 54.2001 14.5001C55 13.7001 56 13.1001 57.1 12.8001C58.2 12.5001 59.4001 12.5001 60.5 12.8001C61.6 13.2001 62.7001 13.8001 63.5 14.7001C64.3 15.6001 64.9 16.6001 65.2 17.8001C65.8 17.4001 66.4001 17.3001 67 17.3001C67.7001 17.3001 68.3001 17.5001 68.9001 17.8001C69.5 18.2001 69.9 18.7001 70.2 19.3001C70.5 19.9001 70.7 20.6001 70.6 21.3001L74.8001 23.0001Z" fill="url(#paint6_linear_1190_11729)"/>
<path d="M270.4 37.0001H324.4C321.2 36.6001 317.9 36.2001 314.7 35.8001C314.7 35.4001 314.5 35.0001 314.3 34.7001C314.1 34.4001 313.7 34.1001 313.3 33.9001C312.9 33.7001 312.5 33.7001 312.1 33.7001C311.7 33.7001 311.3 33.9001 311 34.1001C311.2 33.0001 310.1 31.9001 309.1 31.4001C308 31.0001 306.8 30.9001 305.7 31.0001C305.6 29.7001 305.1 28.4001 304.2 27.3001C303.4 26.2001 302.3 25.4001 301 24.9001C299.7 24.4001 298.4 24.2001 297 24.3001C295.7 24.4001 294.4 24.9001 293.2 25.6001C292.1 26.4001 291.1 27.3001 290.4 28.5001C289.7 29.6001 289.2 30.9001 289 32.3001C288.2 32.2001 287.3 32.4001 286.6 32.7001C285.9 33.1001 285.2 33.6001 284.8 34.3001C284 33.9001 283.1 33.8001 282.3 34.1001C281.5 34.3001 280.7 34.9001 280.2 35.6001L270.4 37.0001Z" fill="url(#paint7_linear_1190_11729)"/>
<path d="M56.5 70.2001C27.3 69.4001 1.3 51.1001 -8 42.1001V90.6001H178.5C178.8 85.5001 178.8 74.7001 176 72.2001C172.5 69.2001 93 71.2001 56.5 70.2001Z" fill="url(#paint8_linear_1190_11729)"/>
<path d="M122 74.3001C64 83.7001 11.8 65.3001 -7 54.9001V91.1001H181.2V78.4001C183.1 73.1001 180 64.9001 122 74.3001Z" fill="url(#paint9_linear_1190_11729)"/>
<path d="M293 65.1001C273.4 72.0001 208 75.8001 181 76.8001V91.1001H343V42.1001C336.2 46.2001 316.6 56.5001 293 65.1001Z" fill="url(#paint10_linear_1190_11729)"/>
<path d="M306 69.7C278.5 78.4 218.5 78.9001 188 78.4001V91.2H343V52.3L342.9 52.4001C339.3 54.9001 327.4 62.9 306 69.7Z" fill="url(#paint11_linear_1190_11729)"/>
<path d="M86.9 79.4C45.8 80.6 10.4 71.7 -2.09998 67.1V91.1H342.9V62.5C333.2 66.1 307.7 74.1 283.6 77.8C266.2 80.7 205.5 79 181.4 77.8C181.6 76.4 180.5 73.3 175 71.7C168.1 69.7 138.3 77.8 86.9 79.4Z" fill="url(#paint12_linear_1190_11729)"/>
</g>
<defs>
<linearGradient id="paint0_linear_1190_11729" x1="172.108" y1="90.8317" x2="170.877" y2="-1.9989" gradientUnits="userSpaceOnUse">
<stop stop-color="#FEF2ED"/>
<stop offset="1" stop-color="#FCE5D7"/>
</linearGradient>
<linearGradient id="paint1_linear_1190_11729" x1="107.452" y1="43.3105" x2="107.435" y2="99.303" gradientUnits="userSpaceOnUse">
<stop stop-color="white"/>
<stop offset="0.5365" stop-color="white" stop-opacity="0.3284"/>
<stop offset="1" stop-color="white" stop-opacity="0.76"/>
</linearGradient>
<linearGradient id="paint2_linear_1190_11729" x1="219.057" y1="43.3103" x2="219.081" y2="99.3029" gradientUnits="userSpaceOnUse">
<stop stop-color="white"/>
<stop offset="0.5365" stop-color="white" stop-opacity="0.3284"/>
<stop offset="1" stop-color="white" stop-opacity="0.204"/>
</linearGradient>
<linearGradient id="paint3_linear_1190_11729" x1="168.553" y1="25.1211" x2="168.553" y2="84.8792" gradientUnits="userSpaceOnUse">
<stop stop-color="#EA6544"/>
<stop offset="1" stop-color="#D12A1E"/>
</linearGradient>
<linearGradient id="paint4_linear_1190_11729" x1="165.105" y1="36.6128" x2="165.105" y2="73.387" gradientUnits="userSpaceOnUse">
<stop stop-color="#E1590A"/>
<stop offset="1" stop-color="#C23102"/>
</linearGradient>
<linearGradient id="paint5_linear_1190_11729" x1="155.911" y1="34.3145" x2="155.911" y2="48.1048" gradientUnits="userSpaceOnUse">
<stop stop-color="#E1590A"/>
<stop offset="1" stop-color="#C23102"/>
</linearGradient>
<linearGradient id="paint6_linear_1190_11729" x1="49.5412" y1="8.6563" x2="49.5175" y2="24.8217" gradientUnits="userSpaceOnUse">
<stop stop-color="white"/>
<stop offset="0.764" stop-color="white" stop-opacity="0.757"/>
<stop offset="1" stop-color="white" stop-opacity="0.204"/>
</linearGradient>
<linearGradient id="paint7_linear_1190_11729" x1="297.456" y1="22.2237" x2="297.433" y2="38.8936" gradientUnits="userSpaceOnUse">
<stop stop-color="white"/>
<stop offset="0.69" stop-color="white" stop-opacity="0.635"/>
<stop offset="1" stop-color="white" stop-opacity="0.204"/>
</linearGradient>
<linearGradient id="paint8_linear_1190_11729" x1="8.0248" y1="99.9058" x2="162.553" y2="32.774" gradientUnits="userSpaceOnUse">
<stop stop-color="#FEA98F" stop-opacity="0.4"/>
<stop offset="0.5208" stop-color="#F8EDE2" stop-opacity="0.8"/>
<stop offset="1" stop-color="#FEA98F" stop-opacity="0.502"/>
</linearGradient>
<linearGradient id="paint9_linear_1190_11729" x1="19.5912" y1="114.121" x2="160.037" y2="28.5112" gradientUnits="userSpaceOnUse">
<stop stop-color="#FEA98F" stop-opacity="0.4"/>
<stop offset="0.4778" stop-color="#FDF3E9" stop-opacity="0.8"/>
<stop offset="1" stop-color="#FEA98F" stop-opacity="0.502"/>
</linearGradient>
<linearGradient id="paint10_linear_1190_11729" x1="202.565" y1="105.271" x2="338.206" y2="56.6885" gradientUnits="userSpaceOnUse">
<stop stop-color="#FCD7C9"/>
<stop offset="0.5208" stop-color="#F8EDE2" stop-opacity="0.8"/>
<stop offset="1" stop-color="#FEA98F" stop-opacity="0.502"/>
</linearGradient>
<linearGradient id="paint11_linear_1190_11729" x1="337.863" y1="71.7538" x2="187.538" y2="72.5989" gradientUnits="userSpaceOnUse">
<stop stop-color="#F19D99"/>
<stop offset="1" stop-color="#FCF0F1"/>
</linearGradient>
<linearGradient id="paint12_linear_1190_11729" x1="6.75233" y1="59.4218" x2="416.862" y2="103.023" gradientUnits="userSpaceOnUse">
<stop stop-color="#F7CDBA"/>
<stop offset="0.4421" stop-color="#FF8D7E"/>
<stop offset="1" stop-color="#F3AD95"/>
</linearGradient>
<clipPath id="clip0_1190_11729">
<rect width="343" height="90" fill="white"/>
</clipPath>
</defs>
</svg>
