<svg width="32" height="32" viewBox="0 0 32 32" fill="none" xmlns="http://www.w3.org/2000/svg">
<circle cx="16" cy="16" r="16" fill="url(#paint0_linear_427_897)"/>
<path d="M17.3003 14.6998C16.6105 14.0103 15.6752 13.623 14.6999 13.623C13.7246 13.623 12.7892 14.0103 12.0995 14.6998L9.4982 17.3002C8.80842 17.99 8.4209 18.9255 8.4209 19.901C8.4209 20.8766 8.80842 21.8121 9.4982 22.5019C10.188 23.1917 11.1235 23.5792 12.099 23.5792C13.0745 23.5792 14.0101 23.1917 14.6999 22.5019L16.0001 21.2017" stroke="white" stroke-width="2.33333" stroke-linecap="round" stroke-linejoin="round"/>
<path d="M14.7 17.3002C15.3897 17.9897 16.3251 18.377 17.3004 18.377C18.2757 18.377 19.211 17.9897 19.9008 17.3002L22.5021 14.6998C23.1918 14.01 23.5794 13.0745 23.5794 12.0989C23.5794 11.1234 23.1918 10.1879 22.5021 9.4981C21.8123 8.80832 20.8767 8.4208 19.9012 8.4208C18.9257 8.4208 17.9902 8.80832 17.3004 9.4981L16.0002 10.7983" stroke="white" stroke-width="2.33333" stroke-linecap="round" stroke-linejoin="round"/>
<defs>
<linearGradient id="paint0_linear_427_897" x1="16" y1="0" x2="16" y2="32" gradientUnits="userSpaceOnUse">
<stop stop-color="#EA6544"/>
<stop offset="1" stop-color="#D12A1E"/>
</linearGradient>
</defs>
</svg>
