<svg width="343" height="90" viewBox="0 0 343 90" fill="none" xmlns="http://www.w3.org/2000/svg">
<g clip-path="url(#clip0_1190_11664)">
<path d="M337 90H6C2.7 90 0 87.3 0 84V6C0 2.7 2.7 0 6 0H337C340.3 0 343 2.7 343 6V84C343 87.3 340.3 90 337 90Z" fill="url(#paint0_linear_1190_11664)"/>
<path d="M171.1 55.6001V82.2001H51.9001C49.8001 82.2001 47.7001 81.8001 46.2001 81.0001C44.7001 80.2001 43.8 79.2001 43.8 78.2001C43.8 77.1001 44.7001 76.1001 46.2001 75.4001C47.7001 74.6001 49.8001 74.2001 51.9001 74.2001C52.1001 74.2001 52.2001 74.2001 52.4001 74.2001C53.0001 73.1001 54.2001 72.2001 55.9001 71.5001C57.6001 70.8001 59.6 70.3001 61.8 70.1001C62.2 69.4001 62.9 68.8001 63.8 68.3001C64.8 67.8001 65.9001 67.4001 67.3001 67.2001C68.6001 67.0001 70.0001 66.9001 71.4001 67.0001C72.8001 67.1001 74.1 67.4001 75.2 67.8001C75.7 67.6001 76.2 67.5001 76.7 67.4001C78.7 66.4001 81.3 65.7001 84.2 65.6001C83.7 64.3001 84.1 63.0001 85.2 61.9001C86.4 60.8001 88.3 59.8001 90.6 59.3001C92.9 58.8001 95.6 58.6001 98.1 58.9001C100.6 59.2001 102.8 59.9001 104.4 60.9001C105.7 59.9001 107.6 59.1001 109.9 58.8001C112.2 58.5001 114.7 58.5001 116.9 59.0001C119.5 57.9001 122.9 57.3001 126.4 57.4001C129.9 57.5001 133.2 58.2001 135.6 59.5001C136.9 59.3001 138.3 59.2001 139.7 59.1001C138.9 58.6001 138.4 58.1001 138.3 57.4001C138.2 56.8001 138.4 56.2001 138.9 55.6001C139.4 55.0001 140.3 54.6001 141.3 54.3001C142.3 54.0001 143.5 53.8001 144.8 53.8001C144.9 53.8001 145.1 53.8001 145.2 53.8001C146 52.3001 147.9 50.9001 150.6 50.0001C153.3 49.1001 156.5 48.7001 159.7 48.9001C162.9 49.1001 165.8 49.9001 168 51.1001C169.9 52.5001 171.1 54.0001 171.1 55.6001Z" fill="url(#paint1_linear_1190_11664)"/>
<path d="M171.1 82.2V55.6C171.1 54 172 52.5 173.6 51.3C175.2 50.1 177.4 49.3 179.8 49.1C182.2 48.9 184.6 49.3 186.7 50.2C188.7 51.1 190.2 52.4 190.8 54C190.9 54 191 54 191.1 54C192 54 192.9 54.2 193.7 54.5C194.5 54.8 195.1 55.3 195.5 55.8C195.9 56.4 196 57 195.9 57.6C195.8 58.2 197.7 56.4 204.4 56.9C207.7 57.1 210 58 212 59.1C213.6 58.6 215.5 58.5 217.2 58.9C218.9 59.2 220.4 60 221.4 61C222.6 60 224.3 59.3 226.2 59C228.1 58.7 230.1 58.8 231.8 59.4C233.6 59.9 235 60.8 235.9 62C236.8 63.1 237.1 64.4 236.7 65.7C238.9 65.8 240.9 66.4 242.3 67.5C242.7 67.6 243.1 67.8 243.4 67.9C244.2 67.5 245.2 67.2 246.2 67.1C247.2 67 248.3 67 249.3 67.3C250.3 67.5 251.2 67.9 251.9 68.4C252.6 68.9 253.1 69.5 253.4 70.2C255 70.4 256.6 70.9 257.8 71.6C259.1 72.3 260 73.3 260.4 74.3C260.5 74.3 260.6 74.3 260.8 74.3C262.4 74.3 264 74.7 265.1 75.5C266.2 76.3 266.9 77.3 266.9 78.3C266.9 79.4 266.3 80.4 265.1 81.1C264 81.9 262.4 82.3 260.8 82.3H171.1V82.2Z" fill="url(#paint2_linear_1190_11664)"/>
<path d="M201.784 44.9162L201.784 44.9162C199.706 42.8359 196.948 41.6912 194.009 41.6892H194.009H194.009H194.009H194.009H194.009H194.009H194.009H194.009H194.009H194.009H194.009H194.009H194.008H194.008H194.008H194.008H194.008H194.008H194.008L201.784 44.9162ZM201.784 44.9162C203.861 46.9963 205.002 49.756 205 52.6959C204.998 55.6358 203.854 58.3942 201.774 60.4715L190.435 71.7958M201.784 44.9162L190.435 71.7958M190.435 71.7958L174.879 56.2401L186.228 44.9059C186.228 44.9059 186.228 44.9058 186.228 44.9058C188.307 42.8303 191.063 41.6892 194 41.6892H194H194H194H194H194H194H194H194H194H194.001H194.001H194.001H194.001H194.001H194.001H194.001H194.001H194.001H194.001H194.001H194.001H194.001H194.001H194.001H194.001H194.001H194.001H194.001H194.001H194.001H194.001H194.001H194.001H194.001H194.001H194.001H194.001H194.001H194.001H194.001H194.001H194.001H194.001H194.001H194.001H194.001H194.001H194.001H194.001H194.001H194.001H194.001H194.001H194.001H194.001H194.001H194.001H194.001H194.001H194.001H194.001H194.001H194.001H194.001H194.001H194.001H194.001H194.001H194.002H194.002H194.002H194.002H194.002H194.002H194.002H194.002H194.002H194.002H194.002H194.002H194.002H194.002H194.002H194.002H194.002H194.002H194.002H194.002H194.002H194.002H194.002H194.002H194.002H194.002H194.002H194.002H194.002H194.002H194.002H194.002H194.002H194.002H194.002H194.002H194.002H194.002H194.002H194.002H194.002H194.002H194.002H194.002H194.002H194.002H194.002H194.002H194.002H194.002H194.002H194.002H194.002H194.002H194.002H194.002H194.002H194.002H194.002H194.002H194.002H194.003H194.003H194.003H194.003H194.003H194.003H194.003H194.003H194.003H194.003H194.003H194.003H194.003H194.003H194.003H194.003H194.003H194.003H194.003H194.003H194.003H194.003H194.003H194.003H194.003H194.003H194.003H194.003H194.003H194.003H194.003H194.003H194.003H194.003H194.003H194.003H194.003H194.003H194.003H194.003H194.003H194.003H194.003H194.003H194.003H194.003H194.003H194.003H194.003H194.003H194.003H194.003H194.003H194.003H194.003H194.003H194.003H194.003H194.003H194.003H194.003H194.003H194.004H194.004H194.004H194.004H194.004H194.004H194.004H194.004H194.004H194.004H194.004H194.004H194.004H194.004H194.004H194.004H194.004H194.004H194.004H194.004H194.004H194.004H194.004H194.004H194.004H194.004H194.004H194.004H194.004H194.004H194.004H194.004H194.004H194.004H194.004H194.004H194.004H194.004H194.004H194.004H194.004H194.004H194.004H194.004H194.004H194.004H194.004H194.004H194.004H194.004H194.004H194.004H194.004H194.004H194.004H194.004H194.004H194.004H194.004H194.004H194.004H194.004H194.004H194.005H194.005H194.005H194.005H194.005H194.005H194.005H194.005H194.005H194.005H194.005H194.005H194.005H194.005H194.005H194.005H194.005H194.005H194.005H194.005H194.005H194.005H194.005H194.005H194.005H194.005H194.005H194.005H194.005H194.005H194.005H194.005H194.005H194.005H194.005H194.005H194.005H194.005H194.005H194.005H194.005H194.005H194.005H194.005H194.005H194.005H194.005H194.005H194.005H194.005H194.005H194.005H194.005H194.005H194.005H194.005H194.005H194.005H194.005H194.005H194.005H194.005H194.006H194.006H194.006H194.006H194.006H194.006H194.006H194.006H194.006H194.006H194.006H194.006H194.006H194.006H194.006H194.006H194.006H194.006H194.006H194.006H194.006H194.006H194.006H194.006H194.006H194.006H194.006H194.006H194.006H194.006H194.006H194.006H194.006H194.006H194.006H194.006H194.006H194.006H194.006H194.006H194.006H194.006H194.006H194.006H194.006H194.006H194.006H194.006H194.006H194.006H194.006H194.006H194.006H194.006H194.006H194.006H194.006H194.006H194.006H194.006H194.006H194.006H194.007H194.007H194.007H194.007H194.007H194.007H194.007H194.007H194.007H194.007H194.007H194.007H194.007H194.007H194.007H194.007H194.007H194.007H194.007H194.007H194.007H194.007H194.007H194.007H194.007H194.007H194.007H194.007H194.007H194.007H194.007H194.007H194.007H194.007H194.007H194.007H194.007H194.007H194.007H194.007H194.007H194.007H194.007H194.007H194.007H194.007H194.007H194.007H194.007H194.007H194.007H194.007H194.007H194.007H194.007H194.007H194.007H194.007H194.007H194.007H194.007H194.008H194.008H194.008H194.008H194.008H194.008H194.008H194.008H194.008H194.008H194.008H194.008H194.008H194.008H194.008H194.008H194.008H194.008H194.008H194.008H194.008H194.008H194.008H194.008H194.008H194.008H194.008H194.008H194.008H194.008H194.008H194.008H194.008H194.008H194.008H194.008H194.008H194.008H194.008H194.008H194.008H194.008H194.008H194.008H194.008H194.008H194.008H194.008H194.008H194.008H194.008H194.008H194.008L190.435 71.7958Z" fill="#FFC76F" stroke="url(#paint3_linear_1190_11664)" stroke-width="2"/>
<path d="M175.455 55.8967L164.17 67.4056C162.096 69.5211 160.945 72.3399 160.936 75.3523C160.926 78.3648 162.059 81.1908 164.12 83.3197L164.12 83.3198C166.18 85.4481 168.913 86.6183 171.825 86.6278L175.455 55.8967ZM175.455 55.8967L190.884 71.8135L179.553 83.3697C179.553 83.3697 179.553 83.3697 179.553 83.3697C177.48 85.4826 174.742 86.6352 171.833 86.6278L171.825 86.6278L175.455 55.8967Z" fill="url(#paint4_linear_1190_11664)" stroke="url(#paint5_linear_1190_11664)" stroke-width="2"/>
<path d="M142.355 40.8668C146.822 36.4003 154.091 36.4003 158.557 40.8663C163.023 45.3328 163.023 52.6024 158.557 57.0683C156.325 59.3012 153.393 60.4182 150.456 60.4182C147.52 60.4182 144.588 59.3012 142.355 57.0683C140.19 54.9034 139 52.0296 139 48.9673C139 45.9055 140.19 43.0317 142.355 40.8668Z" fill="#FFC76F" stroke="url(#paint6_linear_1190_11664)" stroke-width="2"/>
<mask id="path-8-inside-1_1190_11664" fill="white">
<path d="M159.265 40.1592C159.039 39.9338 158.805 39.7221 158.566 39.5178L141.003 57.0808C141.209 57.3191 141.424 57.551 141.648 57.7755C141.874 58.0015 142.108 58.2127 142.346 58.4174L159.906 40.8574C159.702 40.6196 159.49 40.3852 159.265 40.1592Z"/>
</mask>
<path d="M159.265 40.1592C159.039 39.9338 158.805 39.7221 158.566 39.5178L141.003 57.0808C141.209 57.3191 141.424 57.551 141.648 57.7755C141.874 58.0015 142.108 58.2127 142.346 58.4174L159.906 40.8574C159.702 40.6196 159.49 40.3852 159.265 40.1592Z" fill="#985801"/>
<path d="M158.566 39.5178L159.868 37.9993L158.462 36.794L157.152 38.1036L158.566 39.5178ZM141.003 57.0808L139.589 55.6666L138.276 56.9793L139.488 58.386L141.003 57.0808ZM141.648 57.7755L140.234 59.1897H140.234L141.648 57.7755ZM142.346 58.4174L141.043 59.9344L142.449 61.1428L143.761 59.8316L142.346 58.4174ZM159.906 40.8574L161.321 42.2716L162.633 40.9591L161.422 39.5525L159.906 40.8574ZM160.679 38.745C160.407 38.4728 160.132 38.2255 159.868 37.9993L157.265 41.0363C157.478 41.2187 157.672 41.3947 157.85 41.5735L160.679 38.745ZM157.152 38.1036L139.589 55.6666L142.418 58.495L159.981 40.932L157.152 38.1036ZM139.488 58.386C139.726 58.6617 139.974 58.93 140.234 59.1897L143.063 56.3613C142.873 56.172 142.692 55.9765 142.519 55.7756L139.488 58.386ZM140.234 59.1897C140.507 59.4624 140.781 59.7089 141.043 59.9344L143.65 56.9005C143.436 56.7165 143.242 56.5406 143.063 56.3613L140.234 59.1897ZM143.761 59.8316L161.321 42.2716L158.492 39.4432L140.932 57.0032L143.761 59.8316ZM161.422 39.5525C161.197 39.2915 160.951 39.0182 160.68 38.7466L157.849 41.5719C158.029 41.7523 158.206 41.9477 158.391 42.1623L161.422 39.5525Z" fill="url(#paint7_linear_1190_11664)" mask="url(#path-8-inside-1_1190_11664)"/>
<path d="M182.471 25.6206C180.365 24.6251 177.568 24.0507 174.597 24.0031C171.627 23.9562 168.813 24.4406 166.676 25.3683C164.353 26.3767 163.06 27.8158 163.034 29.4203C163.009 31.0249 164.255 32.5044 166.544 33.5864C168.651 34.5819 171.447 35.1562 174.418 35.2035C174.551 35.2057 174.684 35.2069 174.816 35.2069C177.64 35.2069 180.298 34.7248 182.34 33.8383C184.663 32.8302 185.956 31.3911 185.981 29.7866C186.007 28.1821 184.76 26.7026 182.471 25.6206Z" fill="url(#paint8_linear_1190_11664)" stroke="url(#paint9_linear_1190_11664)" stroke-width="2"/>
<mask id="path-11-inside-2_1190_11664" fill="white">
<path d="M174.404 24.7882L174.314 34.4742C174.549 34.4828 174.785 34.4893 175.022 34.4926C175.161 34.4943 175.298 34.4953 175.436 34.4953C175.569 34.4953 175.702 34.4933 175.835 34.4916L175.925 24.8057C175.687 24.7971 175.449 24.7902 175.208 24.7869C174.939 24.7836 174.671 24.7846 174.404 24.7882Z"/>
</mask>
<path d="M174.404 24.7882L174.314 34.4742C174.549 34.4828 174.785 34.4893 175.022 34.4926C175.161 34.4943 175.298 34.4953 175.436 34.4953C175.569 34.4953 175.702 34.4933 175.835 34.4916L175.925 24.8057C175.687 24.7971 175.449 24.7902 175.208 24.7869C174.939 24.7836 174.671 24.7846 174.404 24.7882Z" fill="white"/>
<path d="M174.404 24.7882L174.377 22.7884L172.422 22.8149L172.404 24.7696L174.404 24.7882ZM174.314 34.4742L172.314 34.4556L172.296 36.4021L174.241 36.4729L174.314 34.4742ZM175.022 34.4926L174.995 36.4924L174.999 36.4925L175.022 34.4926ZM175.835 34.4916L175.86 36.4915L177.816 36.4673L177.835 34.5103L175.835 34.4916ZM175.925 24.8057L177.925 24.8243L177.943 22.877L175.997 22.807L175.925 24.8057ZM175.208 24.7869L175.235 22.7871L175.233 22.7871L175.208 24.7869ZM172.404 24.7696L172.314 34.4556L176.314 34.4928L176.404 24.8069L172.404 24.7696ZM174.241 36.4729C174.487 36.4818 174.739 36.4889 174.995 36.4924L175.05 32.4928C174.831 32.4898 174.61 32.4837 174.386 32.4755L174.241 36.4729ZM174.999 36.4925C175.143 36.4942 175.289 36.4953 175.436 36.4953V32.4953C175.308 32.4953 175.178 32.4943 175.046 32.4928L174.999 36.4925ZM175.436 36.4953C175.585 36.4953 175.734 36.493 175.86 36.4915L175.81 32.4918C175.67 32.4935 175.554 32.4953 175.436 32.4953V36.4953ZM177.835 34.5103L177.925 24.8243L173.925 24.787L173.835 34.473L177.835 34.5103ZM175.997 22.807C175.75 22.7981 175.496 22.7907 175.235 22.7871L175.181 26.7867C175.402 26.7897 175.625 26.7961 175.853 26.8044L175.997 22.807ZM175.233 22.7871C174.942 22.7835 174.657 22.7846 174.377 22.7884L174.431 26.788C174.685 26.7846 174.935 26.7837 175.184 26.7868L175.233 22.7871Z" fill="url(#paint10_linear_1190_11664)" mask="url(#path-11-inside-2_1190_11664)"/>
<path d="M74.8001 23.0001H24.3L32.5 21.6001C32.4 20.5001 32.5001 19.3001 32.9001 18.2001C33.3001 17.1001 33.9 16.1001 34.8 15.3001C35.6 14.6001 36.6 14.1001 37.6 13.8001C38.7 13.6001 39.8 13.6001 40.8 13.9001C41.6 12.9001 42.6 12.0001 43.8 11.4001C45 10.8001 46.3 10.6001 47.6 10.6001C48.9 10.7001 50.2001 11.1001 51.4001 11.8001C52.5001 12.5001 53.5 13.4001 54.2001 14.5001C55 13.7001 56 13.1001 57.1 12.8001C58.2 12.5001 59.4001 12.5001 60.5 12.8001C61.6 13.2001 62.7001 13.8001 63.5 14.7001C64.3 15.6001 64.9 16.6001 65.2 17.8001C65.8 17.4001 66.4001 17.3001 67 17.3001C67.7001 17.3001 68.3001 17.5001 68.9001 17.8001C69.5 18.2001 69.9 18.7001 70.2 19.3001C70.5 19.9001 70.7 20.6001 70.6 21.3001L74.8001 23.0001Z" fill="url(#paint11_linear_1190_11664)"/>
<path d="M270.4 37.0001H324.4C321.2 36.6001 317.9 36.2001 314.7 35.8001C314.7 35.4001 314.5 35.0001 314.3 34.7001C314.1 34.4001 313.7 34.1001 313.3 33.9001C312.9 33.7001 312.5 33.7001 312.1 33.7001C311.7 33.7001 311.3 33.9001 311 34.1001C311.2 33.0001 310.1 31.9001 309.1 31.4001C308 31.0001 306.8 30.9001 305.7 31.0001C305.6 29.7001 305.1 28.4001 304.2 27.3001C303.4 26.2001 302.3 25.4001 301 24.9001C299.7 24.4001 298.4 24.2001 297 24.3001C295.7 24.4001 294.4 24.9001 293.2 25.6001C292.1 26.4001 291.1 27.3001 290.4 28.5001C289.7 29.6001 289.2 30.9001 289 32.3001C288.2 32.2001 287.3 32.4001 286.6 32.7001C285.9 33.1001 285.2 33.6001 284.8 34.3001C284 33.9001 283.1 33.8001 282.3 34.1001C281.5 34.3001 280.7 34.9001 280.2 35.6001L270.4 37.0001Z" fill="url(#paint12_linear_1190_11664)"/>
<path d="M56.5 70.2001C27.3 69.4001 1.3 51.1001 -8 42.1001V90.6001H178.5C178.8 85.5001 178.8 74.7001 176 72.2001C172.5 69.2001 93 71.2001 56.5 70.2001Z" fill="url(#paint13_linear_1190_11664)"/>
<path d="M122 74.3001C64 83.7001 11.8 65.3001 -7 54.9001V91.1001H181.2V78.4001C183.1 73.1001 180 64.9001 122 74.3001Z" fill="url(#paint14_linear_1190_11664)"/>
<path d="M293 65.1001C273.4 72.0001 208 75.8001 181 76.8001V91.1001H343V42.1001C336.2 46.2001 316.6 56.5001 293 65.1001Z" fill="url(#paint15_linear_1190_11664)"/>
<path d="M306 69.7C278.5 78.4 218.5 78.9001 188 78.4001V91.2H343V52.3L342.9 52.4001C339.3 54.9001 327.4 62.9 306 69.7Z" fill="url(#paint16_linear_1190_11664)"/>
<path d="M86.9 79.4C45.8 80.6 10.4 71.7 -2.09998 67.1V91.1H342.9V62.5C333.2 66.1 307.7 74.1 283.6 77.8C266.2 80.7 205.5 79 181.4 77.8C181.6 76.4 180.5 73.3 175 71.7C168.1 69.7 138.3 77.8 86.9 79.4Z" fill="url(#paint17_linear_1190_11664)"/>
</g>
<defs>
<linearGradient id="paint0_linear_1190_11664" x1="172.108" y1="90.8317" x2="170.877" y2="-1.9989" gradientUnits="userSpaceOnUse">
<stop stop-color="#FEF2ED"/>
<stop offset="1" stop-color="#FCE5D7"/>
</linearGradient>
<linearGradient id="paint1_linear_1190_11664" x1="107.452" y1="43.3105" x2="107.435" y2="99.303" gradientUnits="userSpaceOnUse">
<stop stop-color="white"/>
<stop offset="0.5365" stop-color="white" stop-opacity="0.3284"/>
<stop offset="1" stop-color="white" stop-opacity="0.76"/>
</linearGradient>
<linearGradient id="paint2_linear_1190_11664" x1="219.057" y1="43.3103" x2="219.081" y2="99.3029" gradientUnits="userSpaceOnUse">
<stop stop-color="white"/>
<stop offset="0.5365" stop-color="white" stop-opacity="0.3284"/>
<stop offset="1" stop-color="white" stop-opacity="0.204"/>
</linearGradient>
<linearGradient id="paint3_linear_1190_11664" x1="189.732" y1="40.6892" x2="189.732" y2="73.2095" gradientUnits="userSpaceOnUse">
<stop stop-color="#EA6544"/>
<stop offset="1" stop-color="#D12A1E"/>
</linearGradient>
<linearGradient id="paint4_linear_1190_11664" x1="176.072" y1="87.6386" x2="176.157" y2="54.466" gradientUnits="userSpaceOnUse">
<stop stop-color="#FFC76F"/>
<stop offset="1" stop-color="#FF0000"/>
</linearGradient>
<linearGradient id="paint5_linear_1190_11664" x1="176.072" y1="87.6386" x2="176.157" y2="54.466" gradientUnits="userSpaceOnUse">
<stop stop-color="#EA6544"/>
<stop offset="1" stop-color="#D12A1E"/>
</linearGradient>
<linearGradient id="paint6_linear_1190_11664" x1="150.453" y1="36.5168" x2="150.453" y2="61.4182" gradientUnits="userSpaceOnUse">
<stop stop-color="#EA6544"/>
<stop offset="1" stop-color="#D12A1E"/>
</linearGradient>
<linearGradient id="paint7_linear_1190_11664" x1="150.455" y1="39.5178" x2="150.455" y2="58.4174" gradientUnits="userSpaceOnUse">
<stop stop-color="#EA6544"/>
<stop offset="1" stop-color="#D12A1E"/>
</linearGradient>
<linearGradient id="paint8_linear_1190_11664" x1="174.5" y1="24.5" x2="181.5" y2="35" gradientUnits="userSpaceOnUse">
<stop stop-color="#FFC76F"/>
<stop offset="1" stop-color="#FF0000"/>
</linearGradient>
<linearGradient id="paint9_linear_1190_11664" x1="174.508" y1="24" x2="174.508" y2="35.2069" gradientUnits="userSpaceOnUse">
<stop stop-color="#EA6544"/>
<stop offset="1" stop-color="#D12A1E"/>
</linearGradient>
<linearGradient id="paint10_linear_1190_11664" x1="175.119" y1="24.7849" x2="175.119" y2="34.4953" gradientUnits="userSpaceOnUse">
<stop stop-color="#EA6544"/>
<stop offset="1" stop-color="#D12A1E"/>
</linearGradient>
<linearGradient id="paint11_linear_1190_11664" x1="49.5412" y1="8.6563" x2="49.5175" y2="24.8217" gradientUnits="userSpaceOnUse">
<stop stop-color="white"/>
<stop offset="0.764" stop-color="white" stop-opacity="0.757"/>
<stop offset="1" stop-color="white" stop-opacity="0.204"/>
</linearGradient>
<linearGradient id="paint12_linear_1190_11664" x1="297.456" y1="22.2237" x2="297.433" y2="38.8936" gradientUnits="userSpaceOnUse">
<stop stop-color="white"/>
<stop offset="0.69" stop-color="white" stop-opacity="0.635"/>
<stop offset="1" stop-color="white" stop-opacity="0.204"/>
</linearGradient>
<linearGradient id="paint13_linear_1190_11664" x1="8.0248" y1="99.9058" x2="162.553" y2="32.774" gradientUnits="userSpaceOnUse">
<stop stop-color="#FEA98F" stop-opacity="0.4"/>
<stop offset="0.5208" stop-color="#F8EDE2" stop-opacity="0.8"/>
<stop offset="1" stop-color="#FEA98F" stop-opacity="0.502"/>
</linearGradient>
<linearGradient id="paint14_linear_1190_11664" x1="19.5912" y1="114.121" x2="160.037" y2="28.5112" gradientUnits="userSpaceOnUse">
<stop stop-color="#FEA98F" stop-opacity="0.4"/>
<stop offset="0.4778" stop-color="#FDF3E9" stop-opacity="0.8"/>
<stop offset="1" stop-color="#FEA98F" stop-opacity="0.502"/>
</linearGradient>
<linearGradient id="paint15_linear_1190_11664" x1="202.565" y1="105.271" x2="338.206" y2="56.6885" gradientUnits="userSpaceOnUse">
<stop stop-color="#FCD7C9"/>
<stop offset="0.5208" stop-color="#F8EDE2" stop-opacity="0.8"/>
<stop offset="1" stop-color="#FEA98F" stop-opacity="0.502"/>
</linearGradient>
<linearGradient id="paint16_linear_1190_11664" x1="337.863" y1="71.7538" x2="187.538" y2="72.5989" gradientUnits="userSpaceOnUse">
<stop stop-color="#F19D99"/>
<stop offset="1" stop-color="#FCF0F1"/>
</linearGradient>
<linearGradient id="paint17_linear_1190_11664" x1="6.75233" y1="59.4218" x2="416.862" y2="103.023" gradientUnits="userSpaceOnUse">
<stop stop-color="#F7CDBA"/>
<stop offset="0.4421" stop-color="#FF8D7E"/>
<stop offset="1" stop-color="#F3AD95"/>
</linearGradient>
<clipPath id="clip0_1190_11664">
<rect width="343" height="90" rx="6" fill="white"/>
</clipPath>
</defs>
</svg>
