<svg width="36" height="36" viewBox="0 0 36 36" fill="none" xmlns="http://www.w3.org/2000/svg">
<path d="M33.6517 5.77059H32.9016V5.15287C32.9016 4.79989 32.6369 4.53516 32.2839 4.53516H24.6948C24.3419 4.53516 24.0771 4.79989 24.0771 5.15287V5.77059H23.327C22.4005 5.77059 21.6504 6.52067 21.6504 7.44724V8.59443C21.6504 9.65337 22.3122 10.6241 23.2829 11.0212L25.9744 12.0801C26.0185 12.1242 26.1068 12.2125 26.1509 12.2566L27.0775 13.0508C27.2098 13.1832 27.3422 13.3597 27.3422 13.5803V14.7716H26.8127C26.1068 14.7716 25.5773 15.3452 25.5773 16.007V16.6247C25.5773 16.8012 25.7097 16.9336 25.8862 16.9336H31.1809C31.3574 16.9336 31.4897 16.8012 31.4897 16.6247V16.007C31.4897 15.3011 30.9161 14.7716 30.2543 14.7716H29.7248V13.5803C29.7248 13.3597 29.8131 13.1832 29.9896 13.0508L30.9161 12.2566C30.9603 12.2125 31.0485 12.1242 31.0926 12.0801L33.7841 11.0212C34.7548 10.6241 35.4166 9.65337 35.4166 8.59443V7.44724C35.3284 6.52067 34.5783 5.77059 33.6517 5.77059ZM23.7683 9.91811C23.2388 9.69749 22.8858 9.21215 22.8858 8.63855V7.49137C22.8858 7.22663 23.1064 7.05014 23.327 7.05014H24.0771V7.71198C24.0771 8.63855 24.2977 9.521 24.6507 10.3152L23.7683 9.91811ZM34.0488 8.59443C34.0488 9.16802 33.74 9.65337 33.2105 9.87398L32.2839 10.227C32.681 9.43276 32.8575 8.55031 32.8575 7.62373V6.9619H33.6076C33.8723 6.9619 34.0488 7.18251 34.0488 7.40312L34.0488 8.59443Z" fill="url(#paint0_linear_3736_24751)"/>
<path d="M28.5472 11.2208L30.5732 9.16803C31.1242 8.60375 31.1242 7.69736 30.5643 7.13752C30.0045 6.57768 29.0981 6.57323 28.5338 7.12862C27.9695 6.57323 27.0631 6.57768 26.5033 7.13752C25.939 7.7018 25.939 8.61709 26.5033 9.1769L28.5472 11.2208Z" fill="white"/>
<path d="M31.3571 18.6328H25.7308C25.4377 18.6328 25.1979 18.8726 25.1979 19.1657V24.549H19.3584C19.0653 24.549 18.8255 24.7888 18.8255 25.0819V29.5835H11.0327C10.7396 29.5835 10.4998 29.8233 10.4998 30.1164V32.5549H2.69697C2.40387 32.5549 2.16406 32.7947 2.16406 33.0878V34.6777C2.16406 34.9708 2.40387 35.2106 2.69697 35.2106H31.3571C31.6502 35.2106 31.89 34.9708 31.89 34.6777V19.1657C31.89 18.8726 31.6502 18.6328 31.3571 18.6328Z" fill="#F8E0CA"/>
<path d="M5.61684 19.4219L4.17403 28.2244C3.98664 29.3677 4.86887 30.4063 6.02736 30.4063C6.94531 30.4063 7.72875 29.7427 7.87982 28.8373L9.22648 20.7659L6.73045 19.9595C6.34645 19.8443 5.96244 19.6523 5.61684 19.4219Z" fill="#FFC76F" stroke="#985801" stroke-width="1.2" stroke-linejoin="round"/>
<path d="M3.83234 15.9855L4.67715 12.9903L6.32837 12.1839L5.71396 18.1744C5.63716 19.0576 6.17477 19.864 7.01958 20.1712L12.2036 21.8224L12.2549 25.5651C12.2691 26.5955 13.1084 27.4234 14.1389 27.4234C15.1875 27.4234 16.0343 26.5672 16.0228 25.5187L15.9669 20.4016C15.9669 19.5952 15.4293 18.904 14.6613 18.6352L11.3972 17.5983L12.3188 13.4895L13.8932 15.5247C14.2773 16.0239 14.9301 16.2543 15.5061 16.1007L19.0773 15.1791C19.9221 14.9487 20.4213 14.1039 20.1909 13.2591C19.9605 12.4143 19.1157 11.9151 18.2709 12.1455L15.6981 12.7983L13.7396 10.2639C13.6628 10.1871 13.6244 10.1103 13.5476 10.0335C13.01 9.57267 12.3956 9.26547 11.7044 9.11186L8.786 8.49746C7.90279 8.30546 6.98118 8.42066 6.21317 8.80466L2.71873 10.4943C2.33473 10.6863 2.02753 11.0319 1.91233 11.4543L0.875514 15.1407C0.645112 15.9855 1.10592 16.8303 1.95073 17.0607C2.10433 17.0991 2.25793 17.1375 2.37313 17.1375C3.02594 17.1375 3.64034 16.6767 3.83234 15.9855Z" fill="#FFC76F" stroke="#985801" stroke-width="1.2" stroke-linejoin="round"/>
<path d="M11.7581 6.84428C13.4615 6.84428 14.8423 5.46341 14.8423 3.76003C14.8423 2.05665 13.4615 0.675781 11.7581 0.675781C10.0547 0.675781 8.67383 2.05665 8.67383 3.76003C8.67383 5.46341 10.0547 6.84428 11.7581 6.84428Z" fill="#FFC76F" stroke="#985801" stroke-width="1.2" stroke-linejoin="round"/>
<defs>
<linearGradient id="paint0_linear_3736_24751" x1="28.5335" y1="4.53516" x2="28.5335" y2="16.4395" gradientUnits="userSpaceOnUse">
<stop stop-color="#E1590A"/>
<stop offset="1" stop-color="#C23102"/>
</linearGradient>
</defs>
</svg>
