<svg width="17" height="16" viewBox="0 0 17 16" fill="none" xmlns="http://www.w3.org/2000/svg">
<path d="M9.99997 2.67001L13.269 5.94101L4.98997 14.22L1.72097 10.949L9.99997 2.67001ZM15.753 1.88101L14.292 0.423011C14.0207 0.152064 13.6529 -0.00012207 13.2695 -0.00012207C12.886 -0.00012207 12.5183 0.152064 12.247 0.423011L10.847 1.82301L14.118 5.09401L15.748 3.46401C15.8526 3.36056 15.9358 3.23742 15.9926 3.10168C16.0495 2.96594 16.0789 2.82029 16.0791 2.67314C16.0794 2.52598 16.0506 2.38022 15.9942 2.24427C15.9379 2.10832 15.8552 1.98486 15.751 1.88101H15.753ZM0.00997274 15.546C-0.00383823 15.6077 -0.00171825 15.6718 0.0161328 15.7324C0.0339838 15.793 0.0669775 15.8481 0.112003 15.8924C0.157028 15.9368 0.212601 15.9689 0.273481 15.9858C0.334362 16.0027 0.398543 16.0038 0.459973 15.989L4.09997 15.105L0.835973 11.835L0.00997274 15.546Z" fill="#727272"/>
</svg>
