<svg width="14" height="14" viewBox="0 0 14 14" fill="none" xmlns="http://www.w3.org/2000/svg">
<mask id="mask0_205_8561" style="mask-type:alpha" maskUnits="userSpaceOnUse" x="0" y="0" width="14" height="14">
<rect y="14" width="14" height="14" transform="rotate(-90 0 14)" fill="#C4C4C4"/>
</mask>
<g mask="url(#mask0_205_8561)">
<path d="M4.97733 1.74244C5.13043 1.74035 5.27975 1.78799 5.40115 1.87767L11.9926 6.8502C12.0717 6.90993 12.1359 6.98597 12.1804 7.07272C12.2249 7.15947 12.2486 7.25474 12.2498 7.35152C12.2511 7.44829 12.2297 7.54413 12.1874 7.63197C12.1451 7.71981 12.0828 7.79743 12.0053 7.85913L5.56806 12.9684C5.49973 13.0225 5.42101 13.0632 5.3364 13.088C5.25178 13.1129 5.16292 13.1214 5.07489 13.1132C4.89711 13.0967 4.73352 13.0129 4.62009 12.8802C4.50667 12.7475 4.4527 12.5769 4.47007 12.4058C4.48744 12.2347 4.57472 12.0772 4.71272 11.968L10.5035 7.37273L4.56972 2.89929C4.46006 2.8167 4.37979 2.70336 4.34001 2.57492C4.30023 2.44648 4.3029 2.30929 4.34764 2.18229C4.39239 2.0553 4.47701 1.94477 4.5898 1.86598C4.7026 1.78719 4.83801 1.74402 4.97733 1.74244Z" fill="#985801" stroke="#985801" stroke-width="0.2"/>
</g>
</svg>
