<svg width="44" height="44" viewBox="0 0 44 44" fill="none" xmlns="http://www.w3.org/2000/svg">
<circle opacity="0.2" r="22" transform="matrix(1 0 0 -1 22 22)" fill="#C68158"/>
<path d="M23.7527 31.5665L23.7524 31.5668L23.7504 31.5685L23.7502 31.5686L23.7447 31.5734C23.3689 31.8997 23.0346 32.1899 22.766 32.4375C22.5536 32.6333 22.2791 32.7334 21.9998 32.7334C21.7207 32.7334 21.4461 32.6333 21.2338 32.4375L21.2337 32.4375C20.9644 32.1892 20.629 31.8981 20.2518 31.5706L20.2471 31.5666C18.8712 30.3721 16.9502 28.7024 15.3703 26.681C13.7874 24.6557 12.5999 22.343 12.5999 19.8688C12.5999 17.3946 13.5749 15.0698 15.3503 13.3176C17.1259 11.5653 19.4854 10.6 21.9999 10.6C24.5144 10.6 26.8739 11.5653 28.6495 13.3176C30.4248 15.0697 31.3998 17.3946 31.3999 19.8689C31.3999 22.343 30.2124 24.6556 28.6295 26.6809C27.0499 28.7019 25.1293 30.3714 23.7534 31.5659C23.7532 31.5661 23.7529 31.5663 23.7527 31.5665Z" fill="#FFC76F" stroke="#985801" stroke-width="1.2"/>
<circle cx="22" cy="20" r="6" fill="url(#paint0_linear)"/>
<g clip-path="url(#clip0)">
<path d="M24.9711 20.9299H22.8378V22.9658C22.8378 23.5409 22.5809 24 22.003 24C21.4251 24 21.1682 23.5363 21.1682 22.9658V20.9299H19.0349C18.4598 20.9299 17.9951 20.6609 17.9951 20.0868C17.9986 19.9576 18.029 19.8306 18.0844 19.7138C18.1398 19.5971 18.2189 19.4932 18.3168 19.4088C18.4147 19.3245 18.5292 19.2615 18.6528 19.2239C18.7765 19.1864 18.9066 19.1751 19.0349 19.1908H21.1682V17.0352C21.1682 16.4601 21.4242 16.001 22.003 16.001C22.5818 16.001 22.8378 16.4647 22.8378 17.0352V19.1908H24.9711C25.0989 19.175 25.2285 19.1863 25.3516 19.2239C25.4748 19.2616 25.5886 19.3247 25.6857 19.4092C25.7828 19.4937 25.861 19.5977 25.9153 19.7145C25.9696 19.8312 25.9987 19.9581 26.0007 20.0868C25.9998 20.6618 25.5453 20.9299 24.9711 20.9299Z" fill="#FFC76F"/>
</g>
<defs>
<linearGradient id="paint0_linear" x1="22" y1="14" x2="22" y2="26" gradientUnits="userSpaceOnUse">
<stop stop-color="#EA6544"/>
<stop offset="1" stop-color="#D12A1E"/>
</linearGradient>
<clipPath id="clip0">
<rect width="8" height="8" fill="white" transform="translate(18 16)"/>
</clipPath>
</defs>
</svg>
