<svg width="12" height="17" viewBox="0 0 12 17" fill="none" xmlns="http://www.w3.org/2000/svg">
<path d="M10.8894 16.5108C10.6706 16.5138 10.4573 16.4457 10.2839 16.3176L0.867519 9.21399C0.754534 9.12866 0.662881 9.02004 0.599292 8.89611C0.535703 8.77218 0.501795 8.63609 0.500061 8.49783C0.498326 8.35958 0.528809 8.22268 0.589268 8.09719C0.649727 7.9717 0.738626 7.86081 0.849434 7.77268L10.0455 0.473668C10.1431 0.396378 10.2555 0.338329 10.3764 0.302835C10.4973 0.267341 10.6242 0.255098 10.75 0.266803C11.0039 0.290444 11.2377 0.4102 11.3997 0.599727C11.5617 0.789253 11.6388 1.03303 11.614 1.27742C11.5892 1.52181 11.4645 1.7468 11.2674 1.90289L2.99486 8.46753L11.4717 14.8582C11.6283 14.9761 11.743 15.1381 11.7998 15.3215C11.8566 15.505 11.8528 15.701 11.7889 15.8824C11.725 16.0639 11.6041 16.2218 11.443 16.3343C11.2818 16.4469 11.0884 16.5085 10.8894 16.5108Z" fill="white" stroke="white" stroke-width="0.2"/>
</svg>
