<svg width="120" height="120" viewBox="0 0 120 120" fill="none" xmlns="http://www.w3.org/2000/svg">
<path d="M60 120C93.1371 120 120 93.1371 120 60C120 26.8629 93.1371 0 60 0C26.8629 0 0 26.8629 0 60C0 93.1371 26.8629 120 60 120Z" fill="#F5F3F2"/>
<path d="M70.8298 73.2304C70.6373 73.3351 70.4259 73.3847 70.2162 73.3847C69.8827 73.3847 69.5527 73.2558 69.3052 73.0085L60.378 64.0815C60.134 63.8374 59.9999 63.5074 59.9999 63.1686C59.9999 63.5074 59.8658 63.8374 59.6218 64.0815L50.6946 73.0085C50.4471 73.2558 50.1171 73.3847 49.7836 73.3847C49.5739 73.3847 49.3625 73.3351 49.17 73.2304L26.9141 61.1675V85.5198C26.9139 85.5645 26.9161 85.6088 26.9206 85.6527C26.9225 85.6714 26.9261 85.6896 26.9287 85.708C26.9319 85.7305 26.9345 85.753 26.939 85.7752C26.9445 85.8034 26.9521 85.8306 26.9593 85.8577C26.9627 85.8704 26.9653 85.8832 26.9691 85.8957C26.9775 85.9235 26.9876 85.9504 26.9978 85.9773C27.0022 85.9894 27.006 86.0016 27.011 86.0136C27.021 86.0378 27.0325 86.0612 27.0438 86.0848C27.0509 86.0992 27.0572 86.1136 27.0648 86.1281C27.0751 86.1472 27.0865 86.1657 27.0976 86.1841C27.1083 86.2018 27.1184 86.2197 27.1298 86.2372C27.1392 86.2517 27.1499 86.2651 27.16 86.2788C27.1746 86.2993 27.1891 86.3194 27.2049 86.339C27.2137 86.3498 27.2234 86.3598 27.2326 86.3703C27.2508 86.3914 27.269 86.4122 27.2886 86.432C27.2989 86.4424 27.3099 86.4517 27.3206 86.4615C27.3402 86.4801 27.3594 86.4985 27.3802 86.5157C27.4003 86.5325 27.4216 86.5475 27.4426 86.5629C27.455 86.572 27.4665 86.5817 27.4792 86.5904C27.5162 86.6153 27.5545 86.6384 27.594 86.6599L59.3868 103.845C59.5783 103.948 59.789 104 59.9999 104C60.2108 104 60.4217 103.948 60.6128 103.845L92.4056 86.6599C92.4452 86.6384 92.4835 86.6152 92.5204 86.5904C92.5332 86.5817 92.5448 86.572 92.557 86.5629C92.5782 86.5475 92.5995 86.5323 92.6194 86.5157C92.6402 86.4985 92.6595 86.4801 92.6791 86.4615C92.6896 86.4517 92.7007 86.4424 92.7109 86.432C92.7305 86.4122 92.7487 86.3914 92.7669 86.3703C92.776 86.3598 92.7858 86.3498 92.7946 86.339C92.8104 86.3195 92.8248 86.2994 92.8394 86.2788C92.8496 86.2651 92.8602 86.2517 92.8697 86.2372C92.881 86.2197 92.8912 86.202 92.9018 86.1841C92.913 86.1655 92.9245 86.1472 92.9347 86.1281C92.9422 86.1136 92.9486 86.0992 92.9556 86.0848C92.967 86.0612 92.9785 86.0378 92.9885 86.0136C92.9934 86.0016 92.9972 85.9894 93.0017 85.9773C93.0118 85.9505 93.022 85.9235 93.0304 85.8957C93.0342 85.8833 93.0368 85.8704 93.0402 85.8577C93.0474 85.8306 93.055 85.8034 93.0605 85.7752C93.0649 85.753 93.0675 85.7305 93.0708 85.708C93.0734 85.6896 93.0771 85.6714 93.0789 85.6527C93.0833 85.6087 93.0856 85.5643 93.0854 85.5198V61.1675L70.8298 73.2304Z" fill="#C9C9C9"/>
<path d="M59.3315 28.1327C59.689 27.9403 59.9347 27.5878 59.9932 27.1856C60.0018 27.1239 60.0069 27.062 60.0069 27C60.0069 27.062 60.0121 27.1239 60.0207 27.1839C60.0791 27.5861 60.3249 27.9369 60.6824 28.1309L92.4793 45.3185C92.6736 45.4235 92.8832 45.4732 93.0929 45.4732C92.8832 45.4732 92.6736 45.5249 92.4793 45.6296L60.6824 62.8171C60.3249 63.0098 60.0791 63.3619 60.0207 63.7641C60.0121 63.8262 60.0069 63.8881 60.0069 63.9498C60.0069 63.8881 60.0018 63.8262 59.9932 63.7641C59.9347 63.3619 59.689 63.0098 59.3315 62.8171L27.5345 45.6296C27.3644 45.5386 27.1822 45.4869 27 45.4749C27.1822 45.4629 27.3644 45.4115 27.5345 45.3202L59.3315 28.1327Z" fill="#B5B5B5"/>
<path d="M103.203 34.2885C103.261 34.6907 103.129 35.0962 102.842 35.3849L94.0004 44.3108C93.7529 44.5615 93.4212 44.6922 93.086 44.6922C92.8763 44.6922 92.6666 44.6425 92.4724 44.5375L60.6755 27.3499C60.318 27.1559 60.0722 26.8051 60.0138 26.4029C60.0052 26.3427 60 26.281 60 26.219C60 26.2173 60 26.2173 60 26.2156C60 25.8771 60.1341 25.5468 60.3781 25.3048L69.3053 16.3774C69.7075 15.9735 70.328 15.8843 70.8299 16.1559L102.541 33.3434C102.898 33.5356 103.142 33.8863 103.203 34.2885Z" fill="#C9C9C9"/>
<path d="M102.842 54.0008C103.129 54.2895 103.261 54.6953 103.203 55.0975C103.142 55.498 102.898 55.8484 102.541 56.0428L70.8299 73.2304C70.6374 73.335 70.426 73.3847 70.2163 73.3847C69.8828 73.3847 69.5528 73.2558 69.3053 73.0085L60.3781 64.0814C60.1341 63.8374 60 63.5074 60 63.1686C60 63.1069 60.0052 63.045 60.0138 62.983C60.0722 62.5808 60.318 62.2286 60.6755 62.036L92.4724 44.8484C92.6666 44.7438 92.8763 44.692 93.086 44.692C93.4212 44.692 93.7529 44.8244 94.0004 45.0738L102.842 54.0008Z" fill="#E6E8E8"/>
<path d="M102.842 54.0008L94.0003 45.0738C93.7528 44.8244 93.4211 44.692 93.0859 44.692C92.8762 44.692 92.6665 44.7438 92.4723 44.8484L89.1152 46.6641C89.3095 46.5594 89.5191 46.5077 89.7288 46.5077C90.064 46.5077 90.3957 46.6401 90.6432 46.8894L99.4845 55.8165C99.7715 56.1052 99.904 56.511 99.8454 56.9132C99.7853 57.3137 99.5412 57.6641 99.1837 57.8585L102.541 56.0428C102.898 55.8484 103.142 55.498 103.202 55.0975C103.261 54.6953 103.129 54.2895 102.842 54.0008Z" fill="#B5B5B5" fill-opacity="0.5"/>
<path d="M60.0003 26.2154C60.0003 26.2171 60.0003 26.2171 60.0003 26.2189C60.0003 26.2809 59.9952 26.3428 59.9866 26.4045C59.9281 26.8067 59.6824 27.1592 59.3249 27.3515L27.5279 44.5391C27.3578 44.6303 27.1756 44.6817 26.9934 44.6937C26.9573 44.692 26.9195 44.692 26.8834 44.6937C26.5585 44.687 26.2406 44.5564 25.9999 44.3141L17.1587 35.3865C16.8716 35.0978 16.7393 34.6923 16.7977 34.2901C16.8579 33.8897 17.102 33.5389 17.4595 33.3448L49.1705 16.1573C49.6723 15.8857 50.2928 15.9766 50.695 16.3788L59.6222 25.3062C59.8663 25.5504 59.9986 25.8787 60.0003 26.2154Z" fill="#DADADA"/>
<path d="M59.9866 62.983C59.9952 63.045 60.0003 63.1069 60.0003 63.1686C60.0003 63.5074 59.8663 63.8374 59.6222 64.0814L50.695 73.0085C50.4475 73.2558 50.1175 73.3847 49.7841 73.3847C49.5744 73.3847 49.363 73.335 49.1705 73.2304L17.4595 56.0428C17.102 55.8484 16.8579 55.498 16.7977 55.0975C16.7393 54.6953 16.8716 54.2895 17.1587 54.0008L25.9999 45.0737C26.2406 44.8314 26.5585 44.7008 26.8834 44.6937C26.8937 44.6954 26.904 44.6954 26.9143 44.6954C26.9401 44.6954 26.9659 44.6954 26.9934 44.6937C27.1756 44.7058 27.3578 44.7575 27.5279 44.8484L59.3249 62.0359C59.6824 62.2286 59.9281 62.5808 59.9866 62.983Z" fill="#E6E8E8"/>
<path d="M26.9928 44.6937C26.9653 44.6955 26.9395 44.6955 26.9138 44.6955C26.9034 44.6955 26.8931 44.6955 26.8828 44.6937C26.9189 44.692 26.9567 44.692 26.9928 44.6937Z" fill="#E2AE83"/>
<path d="M92.7133 61.3693C92.6964 61.4016 92.6791 61.4136 92.6614 61.3975H92.6612L87.9288 63.9625V88.313C87.9288 88.3576 87.9267 88.402 87.9223 88.4458C87.9204 88.4646 87.9168 88.4828 87.9142 88.5012C87.9109 88.5237 87.9083 88.5462 87.9039 88.5684C87.8984 88.5966 87.8908 88.6237 87.8836 88.6509C87.8802 88.6636 87.8776 88.6763 87.8738 88.6888C87.8654 88.7167 87.8552 88.7435 87.8451 88.7705C87.8406 88.7825 87.8368 88.7947 87.8319 88.8068C87.8219 88.831 87.8104 88.8544 87.799 88.8779C87.7922 88.8923 87.7856 88.9068 87.7781 88.9212C87.7678 88.9403 87.7564 88.9589 87.7452 88.9773C87.7347 88.9951 87.7244 89.0128 87.7131 89.0304C87.7036 89.0448 87.693 89.0582 87.6828 89.072C87.6682 89.0924 87.6538 89.1125 87.638 89.1321C87.6292 89.1429 87.6194 89.1529 87.6103 89.1634C87.5919 89.1845 87.5739 89.2053 87.5543 89.2251C87.544 89.2356 87.533 89.2449 87.5225 89.2547C87.5029 89.2731 87.4836 89.2916 87.4628 89.3086C87.4427 89.3255 87.4214 89.3406 87.4005 89.3559C87.3881 89.365 87.3766 89.3746 87.3638 89.3834C87.3554 89.3889 87.3463 89.3937 87.3379 89.3992L92.4058 86.6597C92.4453 86.6382 92.4837 86.615 92.5206 86.5903C92.5333 86.5815 92.545 86.5719 92.5572 86.5627C92.5784 86.5473 92.5997 86.5322 92.6196 86.5155C92.6404 86.4983 92.6597 86.4799 92.6793 86.4613C92.6897 86.4515 92.7009 86.4423 92.7111 86.4318C92.7307 86.412 92.7489 86.3912 92.7671 86.3701C92.7762 86.3596 92.786 86.3496 92.7948 86.3388C92.8106 86.3194 92.825 86.2993 92.8396 86.2786C92.8498 86.2649 92.8604 86.2515 92.8699 86.237C92.8812 86.2195 92.8914 86.2018 92.902 86.1839C92.9132 86.1654 92.9247 86.147 92.9348 86.1279C92.9424 86.1135 92.9488 86.099 92.9558 86.0846C92.9672 86.061 92.9787 86.0377 92.9886 86.0134C92.9936 86.0014 92.9974 85.9892 93.0019 85.9772C93.012 85.9504 93.0222 85.9234 93.0306 85.8955C93.0344 85.8832 93.0369 85.8703 93.0404 85.8575C93.0476 85.8304 93.0552 85.8032 93.0607 85.775C93.0651 85.7529 93.0677 85.7304 93.071 85.7078C93.0735 85.6895 93.0773 85.6712 93.079 85.6525C93.0835 85.6085 93.0857 85.5642 93.0856 85.5196V61.1675L92.7133 61.3693Z" fill="#B5B5B5"/>
<path d="M59.6218 64.0815L50.6946 73.0085C50.4471 73.2558 50.1171 73.3847 49.7836 73.3847C49.5739 73.3847 49.3625 73.3351 49.17 73.2304L26.9141 61.1675V85.5198C26.9139 85.5645 26.9161 85.6088 26.9206 85.6527C26.9225 85.6714 26.9261 85.6896 26.9287 85.708C26.9319 85.7305 26.9345 85.753 26.939 85.7752C26.9445 85.8034 26.9521 85.8306 26.9593 85.8577C26.9627 85.8704 26.9653 85.8832 26.9691 85.8957C26.9775 85.9235 26.9876 85.9504 26.9978 85.9773C27.0022 85.9894 27.006 86.0016 27.011 86.0136C27.021 86.0378 27.0325 86.0612 27.0438 86.0848C27.0509 86.0992 27.0572 86.1136 27.0648 86.1281C27.0751 86.1472 27.0865 86.1657 27.0976 86.1841C27.1083 86.2018 27.1184 86.2197 27.1298 86.2372C27.1392 86.2517 27.1499 86.2651 27.16 86.2788C27.1746 86.2993 27.1891 86.3194 27.2049 86.339C27.2137 86.3498 27.2234 86.3598 27.2326 86.3703C27.2508 86.3914 27.269 86.4122 27.2886 86.432C27.2989 86.4424 27.3099 86.4517 27.3206 86.4615C27.3402 86.4801 27.3594 86.4985 27.3802 86.5157C27.4003 86.5325 27.4216 86.5475 27.4426 86.5629C27.455 86.572 27.4665 86.5817 27.4792 86.5904C27.5162 86.6153 27.5545 86.6384 27.594 86.6599L59.3868 103.845C59.5783 103.948 59.789 104 59.9999 104V63.1686C59.9999 63.5074 59.8658 63.8374 59.6218 64.0815Z" fill="#DADADA"/>
</svg>
