<svg width="375" height="188" viewBox="0 0 375 188" fill="none" xmlns="http://www.w3.org/2000/svg">
<path d="M0 0H375V169.606C375 169.606 291.716 186.895 188.766 187.958C85.8172 189.021 0 169.606 0 169.606V0Z" fill="#D63132"/>
<path d="M0.285 0H375L374.715 175.188C374.715 175.188 292.801 185.258 189.93 185.968C87.059 186.679 0 175.188 0 175.188L0.285 0Z" fill="url(#paint0_linear_15272_25058)"/>
<mask id="mask0_15272_25058" style="mask-type:alpha" maskUnits="userSpaceOnUse" x="0" y="18" width="375" height="168">
<path d="M0.285 18H375L374.715 176.235C374.715 176.235 292.801 185.33 189.93 185.971C87.059 186.613 0 176.235 0 176.235L0.285 18Z" fill="#E5CDD4"/>
</mask>
<g mask="url(#mask0_15272_25058)">
<path d="M165 148.114V176.978H35.7792C33.4508 176.978 31.2177 176.519 29.5713 175.703C27.9249 174.886 27 173.779 27 172.624C27 171.469 27.9249 170.361 29.5713 169.545C31.2177 168.728 33.4508 168.269 35.7792 168.269C35.9573 168.269 36.1335 168.273 36.3078 168.277C36.9929 167.136 38.3096 166.113 40.1084 165.325C41.9071 164.537 44.1157 164.014 46.4832 163.817C46.891 163.099 47.6458 162.441 48.6821 161.901C49.7184 161.36 51.0049 160.953 52.4302 160.715C53.8554 160.476 55.3763 160.414 56.861 160.533C58.3458 160.652 59.7495 160.949 60.9506 161.398C61.4608 161.227 61.9924 161.073 62.5421 160.935C64.6562 159.804 67.5626 159.117 70.6654 159.015C70.1223 157.654 70.5173 156.242 71.787 155.006C73.0567 153.771 75.1273 152.782 77.6659 152.201C80.2046 151.619 83.0638 151.477 85.7842 151.799C88.5046 152.12 90.9281 152.886 92.6652 153.973C94.0252 152.871 96.151 152.053 98.642 151.675C101.133 151.297 103.817 151.383 106.188 151.918C109.038 150.685 112.741 150.048 116.518 150.141C120.295 150.235 123.852 151.051 126.44 152.419C127.854 152.173 129.34 152.042 130.84 152.034C129.999 151.521 129.468 150.9 129.309 150.244C129.151 149.587 129.37 148.922 129.942 148.325C130.515 147.728 131.417 147.224 132.543 146.871C133.67 146.517 134.976 146.33 136.308 146.33C136.46 146.33 136.611 146.33 136.761 146.337C137.634 144.66 139.71 143.198 142.6 142.226C145.49 141.254 148.995 140.839 152.459 141.057C155.923 141.275 159.108 142.112 161.417 143.411C163.725 144.711 164.999 146.383 165 148.115V148.114Z" fill="url(#paint1_linear_15272_25058)"/>
<path d="M221.482 177.007V148.143C221.483 146.411 222.443 144.739 224.183 143.44C225.923 142.141 228.323 141.304 230.933 141.085C233.544 140.867 236.186 141.283 238.364 142.255C240.542 143.227 242.106 144.689 242.764 146.366C242.877 146.358 242.991 146.358 243.105 146.358C244.11 146.359 245.093 146.546 245.942 146.899C246.792 147.253 247.471 147.757 247.903 148.354C248.334 148.951 248.499 149.616 248.38 150.273C248.26 150.929 250.371 149.024 257.594 149.524C261.219 149.774 263.657 150.714 265.804 151.947C267.591 151.412 269.614 151.325 271.491 151.704C273.369 152.082 274.971 152.9 275.996 154.002C277.305 152.915 279.131 152.149 281.181 151.828C283.231 151.506 285.386 151.648 287.299 152.229C289.213 152.811 290.773 153.799 291.73 155.035C292.687 156.271 292.984 157.683 292.575 159.043C294.914 159.146 297.104 159.833 298.697 160.964C299.111 161.102 299.512 161.256 299.896 161.427C300.802 160.978 301.86 160.681 302.978 160.562C304.097 160.443 305.244 160.505 306.318 160.743C307.392 160.982 308.361 161.389 309.142 161.929C309.923 162.47 310.492 163.128 310.799 163.846C312.584 164.043 314.248 164.565 315.604 165.354C316.959 166.142 317.952 167.165 318.468 168.306C318.599 168.301 318.732 168.298 318.866 168.298C320.621 168.298 322.304 168.757 323.545 169.574C324.785 170.39 325.482 171.498 325.482 172.653C325.482 173.807 324.785 174.915 323.545 175.731C322.304 176.548 320.621 177.007 318.866 177.007H221.482Z" fill="url(#paint2_linear_15272_25058)"/>
<path d="M250 82.304H315.519C311.619 81.8371 307.594 81.3135 303.696 80.8467C303.641 80.3482 303.457 79.8726 303.16 79.467C302.864 79.0614 302.466 78.7398 302.007 78.5342C301.561 78.329 301.067 78.2467 300.578 78.2961C300.089 78.3455 299.622 78.5247 299.226 78.8149C299.433 77.4213 298.179 76.1172 296.882 75.5528C295.541 75.084 294.115 74.9105 292.7 75.0441C292.532 73.4278 291.919 71.889 290.929 70.597C289.939 69.3051 288.61 68.3101 287.088 67.7215C285.562 67.1162 283.911 66.8866 282.277 67.0523C280.642 67.218 279.072 67.774 277.7 68.6732C276.343 69.5929 275.192 70.7841 274.323 72.1709C273.454 73.5576 272.884 75.1094 272.651 76.7274C271.649 76.6175 270.636 76.79 269.728 77.2255C268.82 77.661 268.053 78.3418 267.515 79.1902C266.552 78.7344 265.457 78.6382 264.429 78.9191C263.401 79.1999 262.509 79.8392 261.915 80.7202L250 82.304Z" fill="url(#paint3_linear_15272_25058)"/>
<path fill-rule="evenodd" clip-rule="evenodd" d="M248.178 131.899L235.054 152.471C235.054 152.471 233.083 148.514 226.779 145.959L226.355 145.868C226.355 145.868 225.283 143.561 222.04 141.664C221.085 141.114 220.078 140.662 219.033 140.315C219.033 140.315 219.328 136.118 214.754 134.411C218.148 131.796 222.011 129.853 226.133 128.686C232.196 126.973 240.066 126.729 248.178 131.899Z" fill="#E9802D"/>
<path fill-rule="evenodd" clip-rule="evenodd" d="M259.978 163.275C258.431 161.909 256.919 161.445 255.686 161.368C254.704 161.294 253.719 161.471 252.824 161.883C249.578 158.094 244.719 157.574 244.719 157.574L244.459 157.229C240.448 153.118 235.058 152.466 235.058 152.466L248.178 131.899C258.29 138.35 260.602 148.02 260.789 154.914C260.883 157.724 260.61 160.535 259.978 163.275Z" fill="#DF6300"/>
<g style="mix-blend-mode:multiply" opacity="0.5">
<path fill-rule="evenodd" clip-rule="evenodd" d="M259.978 163.275C258.431 161.909 256.919 161.446 255.686 161.368C255.582 161.243 252.162 157.151 242.355 150.424C240.92 149.442 239.479 148.56 238.061 147.773C233.049 144.963 227.651 142.905 222.04 141.664V141.664C221.086 141.114 220.079 140.662 219.034 140.315C219.034 140.315 219.328 136.118 214.755 134.411C218.149 131.796 222.011 129.853 226.134 128.686L229.865 129.367L242.906 140.143L260.785 154.918C260.88 157.727 260.608 160.536 259.978 163.275V163.275Z" fill="#C76DA5"/>
</g>
<path fill-rule="evenodd" clip-rule="evenodd" d="M223.142 171.477L250.746 128.543C250.746 128.543 251.331 128.192 251.315 128.889L223.956 171.994L223.142 171.477Z" fill="#985801"/>
<path fill-rule="evenodd" clip-rule="evenodd" d="M259.978 163.275C259.978 163.275 259.974 163.224 259.959 163.133C259.827 162.316 258.878 158.122 253.386 156.679C253.386 156.679 252.028 150.797 245.099 150.428C245.099 150.428 244.325 147.192 240.106 144.551C236.327 142.172 232.936 142.572 232.936 142.572C228.627 135.806 223.508 137.621 223.508 137.621C219.837 132.928 215.47 134.168 214.833 134.384L214.754 134.411C231.852 120.654 247.429 131.375 248.153 131.878L248.178 131.899L248.467 132.07C250.656 133.419 264.357 142.723 260.282 161.971C260.199 162.362 260.11 162.757 260.011 163.158C260.002 163.197 259.992 163.232 259.978 163.275Z" fill="url(#paint4_radial_15272_25058)"/>
<path style="mix-blend-mode:multiply" opacity="0.5" fill-rule="evenodd" clip-rule="evenodd" d="M248.462 132.074C240.788 131.372 232.935 142.572 232.935 142.572C228.626 135.805 223.507 137.621 223.507 137.621C219.836 132.928 215.47 134.168 214.832 134.384C220.018 132.54 222.355 135.698 222.355 135.698C237.109 124.576 247.56 131.477 248.153 131.878L248.178 131.899C236.049 125.196 224.515 137.132 224.326 137.295C227.637 135.942 232.665 139.917 232.665 139.917C241.505 130.769 248.158 132.008 248.46 132.072L248.462 132.074Z" fill="url(#paint5_linear_15272_25058)"/>
<path style="mix-blend-mode:multiply" opacity="0.5" fill-rule="evenodd" clip-rule="evenodd" d="M260.01 163.165L259.965 163.126C259.833 162.309 258.884 158.115 253.392 156.672C253.392 156.672 252.034 150.79 245.105 150.421C245.105 150.421 252.442 138.795 248.749 132.257C248.868 132.419 252.608 137.738 248.015 149.683C248.015 149.683 253.76 152.581 253.913 156.141C253.984 155.903 259.558 140.249 248.754 132.247C248.754 132.247 260.176 138.654 256.195 157.26C256.195 157.26 259.279 157.89 260.288 161.968C260.198 162.369 260.109 162.763 260.01 163.165Z" fill="url(#paint6_linear_15272_25058)"/>
<path fill-rule="evenodd" clip-rule="evenodd" d="M229 76.6079C229 76.6079 221.125 130.417 220.884 173.802H160.27C160.27 173.802 160.27 173.802 160.27 173.745C160.27 173.568 160.209 172.981 160.137 172.032C159.699 166.1 158.339 146.087 158.331 124.087C158.331 112.934 158.665 101.274 159.65 90.6807C160.008 86.7673 160.455 82.9988 161.01 79.4595C161.01 79.4595 193.668 74.7176 226.205 75.0877L229 76.6079Z" fill="url(#paint7_linear_15272_25058)"/>
<path fill-rule="evenodd" clip-rule="evenodd" d="M225.924 75.0914C225.924 75.0914 219.662 117.197 218.596 173.81H220.607C220.607 173.81 221.841 121.874 228.719 76.6157L225.924 75.0914Z" fill="#9D031B"/>
<g style="mix-blend-mode:multiply" opacity="0.5">
<path fill-rule="evenodd" clip-rule="evenodd" d="M220.852 77.1023L215.197 172.205H159.867L161.653 82.2423L220.852 77.1023Z" fill="#D82F30"/>
</g>
<path fill-rule="evenodd" clip-rule="evenodd" d="M220.848 77.9911C220.446 79.9056 210.725 128.237 214.2 171.537L169.311 171.939L159.864 172.028H159.405C159.405 172.028 155.971 162.749 154.981 144.892C154.616 137.968 154.636 131.028 155.041 124.106C155.71 112.875 157.157 101.703 159.373 90.6722C159.909 87.9212 160.509 85.1059 161.171 82.2262C161.171 82.2262 184.152 78.4657 220.848 77.9348C220.849 77.9536 220.849 77.9724 220.848 77.9911Z" fill="url(#paint8_linear_15272_25058)"/>
<path style="mix-blend-mode:multiply" opacity="0.5" fill-rule="evenodd" clip-rule="evenodd" d="M172.585 80.718C172.585 80.718 170.827 84.8405 171.378 85.7615C171.929 86.6826 172.46 87.0284 173.341 87.0848C174.222 87.1411 206.265 85.5283 207.198 85.3272C207.513 85.2696 207.805 85.1214 208.038 84.9007C208.271 84.6801 208.434 84.3964 208.509 84.0844C208.698 83.1473 209.056 78.2245 209.056 78.2245H208.38C208.38 78.2245 207.865 83.0508 206.619 83.8109C205.372 84.5711 174.286 86.0712 173.679 85.7776C173.072 85.484 173.965 80.6215 173.965 80.6215L172.585 80.718Z" fill="url(#paint9_linear_15272_25058)"/>
<path d="M173.639 86.0994C173.467 86.1018 173.295 86.095 173.124 86.0793C172.211 85.9586 171.233 85.4881 171.233 84.74C171.233 84.6877 172.058 79.1093 172.878 78.7433C173.301 78.5623 175.67 78.3411 176.671 78.2567L176.755 79.2581C175.392 79.3788 173.856 79.5437 173.381 79.6603C173.039 80.4084 172.319 84.0362 172.243 84.7078C172.533 84.9407 172.886 85.0808 173.256 85.11C173.695 85.1703 176.808 85.0256 181.192 84.744C181.371 84.7327 181.543 84.6683 181.686 84.559C183.544 83.1899 185.778 82.4248 188.085 82.3671C190.437 82.3693 192.756 82.9202 194.858 83.9758C195.002 84.0506 195.163 84.0867 195.325 84.0804L196.933 84.012C199.56 83.9075 205.026 83.6903 205.613 83.5455C205.951 83.4807 206.263 83.3158 206.507 83.0719C206.751 82.8281 206.915 82.5167 206.98 82.178C207.181 81.3173 207.708 78.0234 207.833 76.9133C207.241 76.9163 206.65 76.9566 206.063 77.034L205.943 76.0325C208.509 75.7228 208.758 76.0044 208.854 76.4347C208.951 76.8651 208.094 81.8402 207.978 82.3952C207.871 82.9145 207.616 83.3914 207.242 83.7673C206.868 84.1431 206.393 84.4015 205.874 84.5108C205.239 84.6676 201.136 84.8405 196.99 85.0054L195.381 85.0738C195.045 85.0888 194.711 85.0153 194.412 84.8607C192.458 83.8734 190.302 83.3543 188.113 83.3444C186.022 83.3955 183.997 84.0892 182.314 85.3312C182.013 85.5659 181.649 85.7059 181.268 85.7334C178.903 85.8702 175.107 86.0994 173.639 86.0994Z" fill="url(#paint10_linear_15272_25058)"/>
<path fill-rule="evenodd" clip-rule="evenodd" d="M175.734 77.6855L175.4 78.2164C175.226 78.2273 175.061 78.2988 174.934 78.4185C174.807 78.5383 174.725 78.6987 174.704 78.872C174.697 79.0292 174.73 79.1858 174.8 79.3266C174.871 79.4674 174.976 79.5878 175.106 79.6764V80.4405C175.106 80.4405 195.083 79.0771 206.212 78.4054L206.634 77.5045C206.634 77.5045 205.733 76.5191 206.341 75.9722L206.634 75.393C206.634 75.393 189.328 76.1893 175.734 77.6855Z" fill="#E26400"/>
<path style="mix-blend-mode:screen" fill-rule="evenodd" clip-rule="evenodd" d="M174.829 78.5186C174.829 78.5186 199.242 76.8012 206.007 76.5076C206.007 76.5076 206.031 76.1054 206.313 75.9727C206.313 75.9727 184.731 77.1552 175.388 78.2009C175.4 78.2169 174.946 78.2692 174.829 78.5186Z" fill="url(#paint11_radial_15272_25058)"/>
<path fill-rule="evenodd" clip-rule="evenodd" d="M201.675 83.3928C201.568 83.5168 201.488 83.6611 201.438 83.8172C201.389 83.9733 201.372 84.1378 201.388 84.3007C201.404 84.4637 201.453 84.6216 201.532 84.7649C201.611 84.9082 201.719 85.0339 201.848 85.1343C201.848 85.1343 205.601 85.259 206.606 85.07C207.612 84.881 207.986 84.3782 208.175 83.3124C208.364 82.2466 208.677 79.3991 208.677 79.3991C208.432 79.2262 208.139 79.1333 207.839 79.1333C207.539 79.1333 207.246 79.2262 207 79.3991C207 79.3991 206.618 81.9932 206.53 82.3954C206.499 82.6148 206.395 82.8176 206.235 82.9713C206.076 83.1251 205.869 83.2211 205.649 83.244C205.255 83.2601 201.675 83.3928 201.675 83.3928Z" fill="#E26400"/>
<path fill-rule="evenodd" clip-rule="evenodd" d="M177.539 86.2843C177.539 86.2843 176.928 85.7413 177.515 84.5669C177.515 84.5669 174.603 84.7761 173.743 84.7117C172.882 84.6474 172.834 84.1607 172.814 83.7223C172.89 82.9617 173.015 82.2067 173.188 81.462C172.958 81.2934 172.68 81.2025 172.395 81.2025C172.11 81.2025 171.833 81.2934 171.603 81.462C171.603 81.462 171.072 84.2371 171.201 84.9933C171.329 85.7494 171.933 86.3406 172.987 86.417C174.04 86.4934 177.539 86.2843 177.539 86.2843Z" fill="#E26400"/>
<path fill-rule="evenodd" clip-rule="evenodd" d="M177.516 84.5672L177.737 84.9131H177.54C177.445 85.243 177.445 85.5927 177.54 85.9226H177.737C177.737 85.9226 177.737 86.0553 177.54 86.2846C177.427 86.1792 177.341 86.0491 177.287 85.9047C177.233 85.7602 177.214 85.6053 177.23 85.4521C177.208 85.1314 177.31 84.8145 177.516 84.5672V84.5672Z" fill="url(#paint12_radial_15272_25058)"/>
<path style="mix-blend-mode:screen" fill-rule="evenodd" clip-rule="evenodd" d="M183.198 83.9603C183.198 83.9603 185.696 82.4883 190.57 82.8261C190.57 82.8261 185.969 81.5471 183.198 83.9603Z" fill="url(#paint13_radial_15272_25058)"/>
<g style="mix-blend-mode:screen" opacity="0.5">
<path fill-rule="evenodd" clip-rule="evenodd" d="M218.176 75.0997C218.176 75.0997 223.376 75.0675 224.466 75.9885C225.556 76.9096 220.042 119.164 220.151 140.818C220.151 140.818 223.428 90.0492 226.256 75.0917C226.256 75.0917 222.033 75.0313 218.176 75.0997Z" fill="#FC947D"/>
</g>
<g style="mix-blend-mode:multiply" opacity="0.2">
<path fill-rule="evenodd" clip-rule="evenodd" d="M214.188 171.537L159.393 172.044C159.393 172.044 155.962 162.765 154.969 144.908C178.404 171.203 209.808 154.335 213.061 144.634C213.934 110.046 220.462 79.479 220.832 77.9909C220.446 79.9053 210.721 128.245 214.188 171.537Z" fill="#FB8B75"/>
</g>
<path fill-rule="evenodd" clip-rule="evenodd" d="M214.188 171.537C214.188 171.537 209.035 138.557 220.84 77.9909C220.848 77.9909 210.881 128.245 214.188 171.537Z" fill="url(#paint14_linear_15272_25058)"/>
<path d="M188.205 169.015L188.197 168.682L210.764 168.231L210.768 168.569L188.205 169.015Z" fill="#B589B6"/>
<g style="mix-blend-mode:screen" opacity="0.5">
<path fill-rule="evenodd" clip-rule="evenodd" d="M218.596 173.81C218.596 173.81 216.955 135.425 222.215 108.84C222.199 108.84 218.125 161.483 218.596 173.81Z" fill="#D82F30"/>
</g>
<path fill-rule="evenodd" clip-rule="evenodd" d="M163.295 123.93L164.594 125.036C164.594 125.036 170.767 152.787 144.295 168.497L142.015 168.734C142.015 168.734 161.412 142.322 163.295 123.93Z" fill="#985801"/>
<path fill-rule="evenodd" clip-rule="evenodd" d="M142.015 168.734C142.015 168.734 121.431 158.072 123.096 126.049L135.833 115.319C135.833 115.319 146.363 115.801 163.295 123.929C163.295 123.929 169.448 153.04 142.015 168.734Z" fill="url(#paint15_linear_15272_25058)"/>
<path fill-rule="evenodd" clip-rule="evenodd" d="M124.005 127.038C124.005 127.038 121.97 152.413 140.571 165.729C140.571 165.729 163.898 155.65 161.618 125.212C153.471 120.818 144.562 118.013 135.367 116.947C135.367 116.947 127.396 123.386 124.005 127.038Z" fill="url(#paint16_radial_15272_25058)"/>
<path fill-rule="evenodd" clip-rule="evenodd" d="M127.564 140.955C127.642 142.716 128.07 144.444 128.823 146.039C130.706 145.24 132.639 144.568 134.611 144.028C137.952 143.507 141.361 143.608 144.666 144.325L145.583 139.069C141.83 137.949 137.906 137.513 134 137.782C134 137.782 129.953 138.952 127.564 140.955Z" fill="url(#paint17_linear_15272_25058)"/>
<path fill-rule="evenodd" clip-rule="evenodd" d="M131.3 131.752L133.826 130.256L138.56 131.463C138.56 131.463 137.787 139.684 138.889 150.949L135.994 151.753L134.015 151.528C134.015 151.528 130.628 141.92 131.3 131.752Z" fill="url(#paint18_linear_15272_25058)"/>
<path style="mix-blend-mode:multiply" opacity="0.86" fill-rule="evenodd" clip-rule="evenodd" d="M135.578 117C135.578 117 128.177 141.787 141.759 170.415C141.759 170.415 167.814 158.088 163.039 125.611C163.039 125.611 153.166 119.997 135.578 117Z" fill="url(#paint19_linear_15272_25058)" fill-opacity="0.2"/>
<path d="M202.405 95.4802C202.407 95.4404 202.161 95.4078 202.108 95.3919C202.103 95.3911 202.099 95.3892 202.095 95.3864C201.515 95.1142 185.943 93.5154 185.943 93.5154C185.943 93.5154 170.4 95.3323 169.828 95.6126C169.823 95.6152 169.817 95.6171 169.811 95.6183C169.759 95.6345 169.512 95.6705 169.513 95.7108C168.593 96.0406 167.785 96.7371 167.213 97.6941C166.641 98.6511 166.336 99.8162 166.345 101.012C166.353 102.208 166.674 103.368 167.26 104.317C167.845 105.266 168.662 105.951 169.587 106.268C169.588 106.308 169.834 106.344 169.886 106.352C169.892 106.355 169.898 106.357 169.903 106.359C170.479 106.633 186.046 108.224 186.046 108.224C186.046 108.224 201.595 106.415 202.17 106.133C202.174 106.13 202.178 106.129 202.183 106.125C202.236 106.115 202.481 106.076 202.479 106.038C203.399 105.708 204.207 105.011 204.779 104.054C205.351 103.097 205.656 101.932 205.648 100.736C205.639 99.5408 205.318 98.38 204.733 97.4311C204.147 96.4822 203.33 95.7971 202.405 95.4802" fill="#9D031B"/>
<path d="M202.751 94.0909C202.753 94.0513 202.502 94.019 202.448 94.0032C202.444 94.0024 202.439 94.0005 202.435 93.9977C201.846 93.7271 185.998 92.14 185.998 92.14C185.998 92.14 170.18 93.9491 169.597 94.2279C169.592 94.2305 169.586 94.2323 169.58 94.2335C169.527 94.2497 169.275 94.2855 169.277 94.3255C168.34 94.6537 167.518 95.3463 166.936 96.298C166.354 97.2497 166.043 98.4082 166.051 99.5971C166.06 100.786 166.386 101.94 166.982 102.883C167.578 103.827 168.409 104.508 169.351 104.823C169.351 104.863 169.602 104.899 169.655 104.906C169.661 104.909 169.666 104.911 169.672 104.913C170.258 105.185 186.101 106.765 186.101 106.765C186.101 106.765 201.924 104.963 202.51 104.683C202.514 104.68 202.519 104.679 202.523 104.676C202.577 104.665 202.827 104.626 202.825 104.588C203.761 104.26 204.583 103.568 205.166 102.616C205.748 101.664 206.059 100.506 206.05 99.3167C206.042 98.1279 205.715 96.9738 205.119 96.0304C204.524 95.0869 203.692 94.4059 202.751 94.0909" fill="#E50019"/>
<path d="M171.236 97.662L169.587 97.6736L169.61 101.543L171.194 101.532C171.194 101.532 173 101.515 172.986 99.5439C172.986 99.5439 172.973 97.6498 171.236 97.662V97.662ZM172.158 99.5766C172.167 100.871 170.994 100.892 170.994 100.892L170.355 100.896L170.337 98.2829L171.021 98.2781C171.168 98.2604 171.316 98.2813 171.455 98.3392C171.595 98.3971 171.723 98.4908 171.83 98.614C171.938 98.7371 172.023 98.8869 172.079 99.0531C172.135 99.2194 172.162 99.3983 172.156 99.5778" fill="white"/>
<path d="M176.098 101.497L176.905 101.492L176.016 98.254C175.957 98.0725 175.855 97.9164 175.722 97.8058C175.59 97.6953 175.434 97.6353 175.274 97.6335C175.125 97.6127 174.974 97.6137 174.825 97.6367C174.665 97.6406 174.509 97.7027 174.379 97.8151C174.248 97.9275 174.148 98.0851 174.091 98.2675L173.248 101.517L174.045 101.512L174.309 100.457L175.824 100.446L176.099 101.497L176.098 101.497ZM174.462 99.8367L174.794 98.5071C174.81 98.4378 174.844 98.3768 174.891 98.3332C174.938 98.2896 174.995 98.2658 175.054 98.2654C175.113 98.265 175.171 98.288 175.218 98.3309C175.266 98.3738 175.301 98.4344 175.318 98.5034L175.662 99.8283L174.462 99.8367Z" fill="white"/>
<path d="M180.468 99.0265L178.847 99.0379L178.851 99.6559L180.472 99.6446L180.468 99.0265Z" fill="white"/>
<path d="M178.246 97.5963L177.478 97.6017L177.505 101.487L178.273 101.482L178.246 97.5963Z" fill="white"/>
<path d="M181.847 97.571L181.078 97.5764L181.105 101.462L181.874 101.457L181.847 97.571Z" fill="white"/>
<path d="M190.197 97.5125L189.427 97.5179L189.454 101.404L190.224 101.398L190.197 97.5125Z" fill="white"/>
<path d="M195.897 97.4892L195.13 97.4945L195.157 101.364L195.925 101.359L195.897 97.4892Z" fill="white"/>
<path d="M188.06 97.5275L188.07 98.9731L186.588 98.9835L186.578 97.5379L185.81 97.5433L185.837 101.429L186.605 101.424L186.593 99.6006L188.074 99.5903L188.087 101.412L188.856 101.407L188.828 97.5221L188.06 97.5275Z" fill="white"/>
<path d="M194.635 100.707L193.092 100.718C193.036 100.719 192.98 100.706 192.928 100.681C192.876 100.655 192.828 100.617 192.788 100.569C192.748 100.521 192.716 100.464 192.693 100.401C192.671 100.338 192.66 100.27 192.659 100.201L192.64 97.512L191.872 97.5174L191.89 100.161C191.88 100.316 191.897 100.471 191.938 100.617C191.98 100.764 192.046 100.898 192.133 101.012C192.219 101.127 192.323 101.218 192.44 101.28C192.556 101.343 192.682 101.376 192.809 101.376L194.64 101.363L194.635 100.707" fill="white"/>
<path d="M197.736 98.1178L199.28 98.1069L199.276 97.4489L197.446 97.4617C197.319 97.4642 197.193 97.4987 197.078 97.5631C196.962 97.6274 196.858 97.7203 196.774 97.8357C196.689 97.9512 196.625 98.0869 196.585 98.2342C196.545 98.3815 196.531 98.5373 196.543 98.6918L196.562 101.35L197.33 101.345L197.32 99.8027L199.188 99.7896L199.184 99.1725L197.315 99.1856L197.312 98.6395C197.311 98.5712 197.322 98.5035 197.343 98.4403C197.364 98.3771 197.395 98.3196 197.434 98.2712C197.474 98.2228 197.521 98.1843 197.572 98.158C197.624 98.1318 197.679 98.1182 197.736 98.1182" fill="white"/>
<path d="M200.968 100.663C200.912 100.664 200.856 100.651 200.804 100.625C200.752 100.6 200.704 100.562 200.664 100.514C200.624 100.466 200.592 100.408 200.57 100.345C200.548 100.282 200.536 100.215 200.536 100.146L200.532 99.6422L202.384 99.6292L202.379 99.0095L200.528 99.0225L200.525 98.6166C200.524 98.5488 200.535 98.4816 200.556 98.419C200.577 98.3564 200.609 98.2998 200.649 98.2525C200.688 98.2052 200.735 98.1682 200.787 98.1437C200.839 98.1192 200.894 98.1078 200.95 98.1101L202.493 98.0993L202.489 97.443L200.657 97.4558C200.531 97.4561 200.406 97.4885 200.29 97.5511C200.175 97.6137 200.071 97.705 199.987 97.8193C199.902 97.9335 199.838 98.0681 199.798 98.2145C199.759 98.3608 199.745 98.5157 199.757 98.6692L199.767 100.106C199.757 100.26 199.774 100.415 199.815 100.562C199.857 100.708 199.923 100.843 200.009 100.957C200.095 101.071 200.199 101.162 200.316 101.225C200.432 101.287 200.557 101.32 200.684 101.321L202.522 101.308L202.505 100.652L200.968 100.663" fill="white"/>
<path d="M185.268 97.5598L184.163 97.5676C183.939 97.5377 183.712 97.566 183.498 97.6505C183.283 97.735 183.086 97.8738 182.919 98.0579C182.752 98.2419 182.619 98.4671 182.529 98.7185C182.438 98.9699 182.393 99.2419 182.395 99.5168C182.396 99.7916 182.446 100.063 182.54 100.313C182.634 100.563 182.77 100.786 182.94 100.968C183.109 101.15 183.308 101.286 183.524 101.367C183.739 101.449 183.966 101.474 184.19 101.441L185.301 101.433L185.297 100.779L184.292 100.786C184.013 100.788 183.744 100.655 183.545 100.416C183.346 100.176 183.233 99.8508 183.23 99.5105C183.228 99.1701 183.336 98.8429 183.532 98.6009C183.728 98.3588 183.995 98.2217 184.274 98.2198L185.273 98.2128L185.268 97.5598" fill="white"/>
<path d="M165 116L203 115V118H165V116Z" fill="#C4C4C4"/>
<path d="M166 124L204 123V126H166V124Z" fill="#C4C4C4"/>
<path d="M137.835 167.854C74.9637 178.033 18.4153 158.08 -2 146.831V186.11H201.942V172.28C204.11 166.563 200.707 157.674 137.835 167.854Z" fill="url(#paint20_linear_15272_25058)"/>
<path d="M323.198 157.895C301.952 165.419 231.123 169.513 201.855 170.62V186.11H377.398V133C369.991 137.426 348.781 148.601 323.198 157.895Z" fill="url(#paint21_linear_15272_25058)"/>
<path d="M337.29 162.875C307.481 172.28 242.441 172.833 209.379 172.28V186.111H377.398V144.065L377.291 144.138C373.366 146.809 360.541 155.539 337.29 162.875Z" fill="url(#paint22_linear_15272_25058)"/>
<path d="M99.8432 173.386C55.2629 174.714 16.9696 165.087 3.39551 160.108V186.11H377.398V155.129C366.86 159.002 339.248 167.743 313.1 171.726C294.239 174.824 228.394 173.017 202.318 171.726C202.496 170.251 201.353 166.858 195.352 165.087C187.851 162.874 155.568 171.726 99.8432 173.386Z" fill="url(#paint23_linear_15272_25058)"/>
</g>
<defs>
<linearGradient id="paint0_linear_15272_25058" x1="187.5" y1="-50.8952" x2="188.13" y2="121.682" gradientUnits="userSpaceOnUse">
<stop stop-color="#F5E2E2"/>
<stop offset="0.773" stop-color="#FFF5EF"/>
<stop offset="1" stop-color="#FCE5D7"/>
</linearGradient>
<linearGradient id="paint1_linear_15272_25058" x1="103.176" y1="134.776" x2="103.157" y2="195.467" gradientUnits="userSpaceOnUse">
<stop stop-color="white"/>
<stop offset="0.536458" stop-color="white" stop-opacity="0.328375"/>
<stop offset="1" stop-color="white" stop-opacity="0.76"/>
</linearGradient>
<linearGradient id="paint2_linear_15272_25058" x1="268.074" y1="134.805" x2="268.1" y2="195.496" gradientUnits="userSpaceOnUse">
<stop stop-color="white"/>
<stop offset="0.536458" stop-color="white" stop-opacity="0.328375"/>
<stop offset="1" stop-color="white" stop-opacity="0.204"/>
</linearGradient>
<linearGradient id="paint3_linear_15272_25058" x1="286.166" y1="64.3524" x2="286.138" y2="84.5697" gradientUnits="userSpaceOnUse">
<stop stop-color="white"/>
<stop offset="0.69" stop-color="white" stop-opacity="0.635"/>
<stop offset="1" stop-color="white" stop-opacity="0.204"/>
</linearGradient>
<radialGradient id="paint4_radial_15272_25058" cx="0" cy="0" r="1" gradientUnits="userSpaceOnUse" gradientTransform="translate(247.033 134.523) rotate(123.179) scale(12.3817 27.2654)">
<stop stop-color="#FFBF74"/>
<stop offset="1" stop-color="#EE8D2D"/>
</radialGradient>
<linearGradient id="paint5_linear_15272_25058" x1="226.262" y1="141.673" x2="237.035" y2="124.784" gradientUnits="userSpaceOnUse">
<stop offset="0.02" stop-color="white"/>
<stop offset="1" stop-color="#D13392"/>
</linearGradient>
<linearGradient id="paint6_linear_15272_25058" x1="1649.55" y1="1957.84" x2="2365.19" y2="1128.02" gradientUnits="userSpaceOnUse">
<stop offset="0.02" stop-color="white"/>
<stop offset="1" stop-color="#D13392"/>
</linearGradient>
<linearGradient id="paint7_linear_15272_25058" x1="193.122" y1="30.938" x2="194.439" y2="173.795" gradientUnits="userSpaceOnUse">
<stop stop-color="#FFB59A"/>
<stop offset="1" stop-color="#F75A4A"/>
</linearGradient>
<linearGradient id="paint8_linear_15272_25058" x1="207.725" y1="173.866" x2="173.176" y2="77.9147" gradientUnits="userSpaceOnUse">
<stop offset="0.02" stop-color="#E2DCEB"/>
<stop offset="1" stop-color="white"/>
</linearGradient>
<linearGradient id="paint9_linear_15272_25058" x1="171.258" y1="82.6526" x2="209.036" y2="82.6526" gradientUnits="userSpaceOnUse">
<stop stop-color="#D9D4FF"/>
<stop offset="0.99" stop-color="#530E68"/>
</linearGradient>
<linearGradient id="paint10_linear_15272_25058" x1="171.233" y1="80.9956" x2="208.867" y2="80.9956" gradientUnits="userSpaceOnUse">
<stop stop-color="white"/>
<stop offset="0.21" stop-color="#D0CDDE"/>
<stop offset="1" stop-color="white"/>
</linearGradient>
<radialGradient id="paint11_radial_15272_25058" cx="0" cy="0" r="1" gradientUnits="userSpaceOnUse" gradientTransform="translate(190.571 77.2557) scale(11.1649)">
<stop stop-color="white"/>
<stop offset="1"/>
</radialGradient>
<radialGradient id="paint12_radial_15272_25058" cx="0" cy="0" r="1" gradientUnits="userSpaceOnUse" gradientTransform="translate(254.673 157.624) scale(0.809421 2.71343)">
<stop stop-color="#5178FE"/>
<stop offset="0.99" stop-color="#713592"/>
</radialGradient>
<radialGradient id="paint13_radial_15272_25058" cx="0" cy="0" r="1" gradientUnits="userSpaceOnUse" gradientTransform="translate(1470.09 137.07) scale(48.7301 9.73535)">
<stop stop-color="white"/>
<stop offset="1"/>
</radialGradient>
<linearGradient id="paint14_linear_15272_25058" x1="2150.64" y1="24085.6" x2="2150.64" y2="2327.77" gradientUnits="userSpaceOnUse">
<stop offset="0.02" stop-color="#AB9CE3"/>
<stop offset="1" stop-color="#AEB3F3"/>
</linearGradient>
<linearGradient id="paint15_linear_15272_25058" x1="3254.8" y1="13119.2" x2="1105.04" y2="6520.43" gradientUnits="userSpaceOnUse">
<stop stop-color="#B2C9FF"/>
<stop offset="0.21" stop-color="#8E7BBB"/>
<stop offset="1" stop-color="#F6ECF2"/>
</linearGradient>
<radialGradient id="paint16_radial_15272_25058" cx="0" cy="0" r="1" gradientUnits="userSpaceOnUse" gradientTransform="translate(142.857 141.338) rotate(91.0326) scale(16.1644 12.5372)">
<stop stop-color="#FFBF74"/>
<stop offset="1" stop-color="#EE8D2D"/>
</radialGradient>
<linearGradient id="paint17_linear_15272_25058" x1="136.566" y1="146.039" x2="136.566" y2="137.701" gradientUnits="userSpaceOnUse">
<stop offset="0.02" stop-color="#EEEBF4"/>
<stop offset="1" stop-color="white"/>
</linearGradient>
<linearGradient id="paint18_linear_15272_25058" x1="394.782" y1="4588.99" x2="394.782" y2="3441.68" gradientUnits="userSpaceOnUse">
<stop offset="0.02" stop-color="#E2DCEB"/>
<stop offset="1" stop-color="white"/>
</linearGradient>
<linearGradient id="paint19_linear_15272_25058" x1="133.567" y1="143.706" x2="163.623" y2="143.706" gradientUnits="userSpaceOnUse">
<stop offset="0.02" stop-color="#E6AC4A"/>
<stop offset="1" stop-color="white"/>
</linearGradient>
<linearGradient id="paint20_linear_15272_25058" x1="3.09195" y1="172.063" x2="155.323" y2="79.2693" gradientUnits="userSpaceOnUse">
<stop stop-color="#FEA98F" stop-opacity="0.4"/>
<stop offset="0.477836" stop-color="#FDF3E9" stop-opacity="0.8"/>
<stop offset="1" stop-color="#FEA98F" stop-opacity="0.502"/>
</linearGradient>
<linearGradient id="paint21_linear_15272_25058" x1="212.882" y1="167.117" x2="359.905" y2="114.458" gradientUnits="userSpaceOnUse">
<stop stop-color="#FCD7C9"/>
<stop offset="0.520833" stop-color="#F8EDE2" stop-opacity="0.8"/>
<stop offset="1" stop-color="#FEA98F" stop-opacity="0.502"/>
</linearGradient>
<linearGradient id="paint22_linear_15272_25058" x1="371.868" y1="171.948" x2="208.929" y2="172.863" gradientUnits="userSpaceOnUse">
<stop stop-color="#F19D99"/>
<stop offset="1" stop-color="#FCF0F1"/>
</linearGradient>
<linearGradient id="paint23_linear_15272_25058" x1="13.5761" y1="145.724" x2="458.099" y2="192.984" gradientUnits="userSpaceOnUse">
<stop stop-color="#F7CDBA"/>
<stop offset="0.442137" stop-color="#FF8D7E"/>
<stop offset="1" stop-color="#F3AD95"/>
</linearGradient>
</defs>
</svg>
