<svg width="110" height="110" viewBox="0 0 110 110" fill="none" xmlns="http://www.w3.org/2000/svg">
<path d="M55 110C85.3757 110 110 85.3757 110 55C110 24.6243 85.3757 0 55 0C24.6243 0 0 24.6243 0 55C0 85.3757 24.6243 110 55 110Z" fill="#F5F3F2"/>
<g clip-path="url(#clip0_15252_40154)">
<path d="M71.75 65.8838L86.3203 85.32C84.081 87.5593 80.45 87.5593 78.2106 85.32L65.2623 72.3716L71.75 65.8838Z" fill="#C9C9C9"/>
<path d="M68.5063 69.1276L81.4547 82.0759C83.694 84.3152 85.8728 85.7675 86.3205 85.3197C88.5598 83.0804 88.5598 79.4494 86.3205 77.21L73.3722 64.2617L68.5063 69.1276Z" fill="#DADADA"/>
<path d="M71.7568 65.8809L63.6484 57.7724L58.7833 62.6375L66.8918 70.7459L71.7568 65.8809Z" fill="#B5B5B5"/>
<path d="M66.0811 53.7275L68.2005 58.6825C68.3848 59.1135 68.2885 59.6132 67.9571 59.9446L60.9446 66.9569C60.6132 67.2883 60.1135 67.3848 59.6826 67.2004L54.7276 65.0809L66.0811 53.7275Z" fill="#DADADA"/>
<path fill-rule="evenodd" clip-rule="evenodd" d="M66.8809 67.51C66.8821 67.5088 66.8833 67.5076 66.8845 67.5064L71.7503 62.6406C72.6461 61.7448 74.0984 61.7448 74.9942 62.6406C75.89 63.5364 75.89 64.9886 74.9942 65.8844L70.1283 70.7503C70.1273 70.7513 70.1263 70.7523 70.1252 70.7534L66.8841 73.9945C65.9883 74.8903 64.536 74.8903 63.6402 73.9945C62.7444 73.0987 62.7444 71.6465 63.6402 70.7507L66.8809 67.51Z" fill="#C9C9C9"/>
<path d="M46.5975 67.6877C33.8658 67.6877 23.5447 57.3666 23.5447 44.6349C23.5447 31.9031 33.8658 21.582 46.5975 21.582C59.3293 21.582 69.6504 31.9031 69.6504 44.6349C69.6504 57.3666 59.3293 67.6877 46.5975 67.6877Z" fill="#C9C9C9"/>
<path d="M46.5977 25.251V64.0189C35.8922 64.0189 27.2137 55.3404 27.2137 44.6349C27.2137 33.9295 35.8922 25.251 46.5977 25.251Z" fill="#DADADA"/>
<path d="M30.8824 44.6349C30.8824 33.9295 37.9182 25.251 46.5975 25.251C57.3029 25.251 65.9814 33.9295 65.9814 44.6349C65.9814 55.3404 57.3029 64.0189 46.5975 64.0189C37.9182 64.0189 30.8824 55.3404 30.8824 44.6349Z" fill="white"/>
</g>
<defs>
<clipPath id="clip0_15252_40154">
<rect width="76" height="76" fill="white" transform="matrix(-1 0 0 1 88 11)"/>
</clipPath>
</defs>
</svg>
