<svg width="1366" height="186" viewBox="0 0 1366 186" fill="none" xmlns="http://www.w3.org/2000/svg">
<path d="M-1 45H1366V172.204C1366 172.204 1062.4 185.171 687.117 185.968C311.832 186.765 -1 172.204 -1 172.204V45Z" fill="#D63132"/>
<path d="M0.03968 0H1367L1365.96 173.305C1365.96 173.305 1067.14 183.266 691.865 183.969C316.591 184.671 -1 173.305 -1 173.305L0.03968 0Z" fill="url(#paint0_linear_143_3207)"/>
<mask id="mask0_143_3207" style="mask-type:alpha" maskUnits="userSpaceOnUse" x="0" y="0" width="1367" height="184">
<path d="M1.03892 0H1367L1365.96 173.305C1365.96 173.305 1067.36 183.266 692.358 183.969C317.359 184.671 0 173.305 0 173.305L1.03892 0Z" fill="#E5CDD4"/>
</mask>
<g mask="url(#mask0_143_3207)">
<mask id="mask1_143_3207" style="mask-type:alpha" maskUnits="userSpaceOnUse" x="539" y="73" width="288" height="108">
<rect x="539" y="73" width="288" height="108" fill="#C4C4C4"/>
</mask>
<g mask="url(#mask1_143_3207)">
<path d="M660 141.114V169.978H530.779C528.451 169.978 526.218 169.519 524.571 168.703C522.925 167.886 522 166.779 522 165.624C522 164.469 522.925 163.361 524.571 162.545C526.218 161.728 528.451 161.269 530.779 161.269C530.957 161.269 531.134 161.273 531.308 161.277C531.993 160.136 533.31 159.113 535.108 158.325C536.907 157.537 539.116 157.014 541.483 156.817C541.891 156.099 542.646 155.441 543.682 154.901C544.718 154.36 546.005 153.953 547.43 153.715C548.855 153.476 550.376 153.414 551.861 153.533C553.346 153.652 554.75 153.949 555.951 154.398C556.461 154.227 556.992 154.073 557.542 153.935C559.656 152.804 562.563 152.117 565.665 152.015C565.122 150.654 565.517 149.242 566.787 148.006C568.057 146.771 570.127 145.782 572.666 145.201C575.205 144.619 578.064 144.477 580.784 144.799C583.505 145.12 585.928 145.886 587.665 146.973C589.025 145.871 591.151 145.054 593.642 144.675C596.133 144.297 598.817 144.383 601.188 144.918C604.038 143.685 607.741 143.048 611.518 143.141C615.295 143.235 618.852 144.051 621.44 145.419C622.854 145.173 624.34 145.042 625.84 145.034C624.999 144.521 624.468 143.9 624.309 143.244C624.151 142.587 624.37 141.922 624.942 141.325C625.515 140.728 626.417 140.224 627.543 139.871C628.67 139.517 629.976 139.33 631.308 139.33C631.46 139.33 631.611 139.33 631.761 139.337C632.634 137.66 634.71 136.198 637.6 135.226C640.49 134.254 643.995 133.839 647.459 134.057C650.923 134.275 654.108 135.112 656.417 136.411C658.725 137.711 659.999 139.383 660 141.115V141.114Z" fill="url(#paint1_linear_143_3207)"/>
<path d="M716.484 170.005V141.142C716.485 139.41 717.445 137.738 719.185 136.439C720.925 135.139 723.325 134.302 725.935 134.084C728.546 133.866 731.188 134.282 733.366 135.254C735.544 136.226 737.108 137.687 737.766 139.364C737.879 139.357 737.993 139.357 738.107 139.357C739.111 139.357 740.095 139.545 740.944 139.898C741.794 140.251 742.473 140.755 742.905 141.352C743.336 141.95 743.501 142.615 743.382 143.271C743.262 143.928 745.373 142.022 752.595 142.522C756.221 142.773 758.659 143.712 760.806 144.946C762.593 144.41 764.616 144.324 766.493 144.702C768.371 145.081 769.973 145.898 770.998 147C772.307 145.913 774.133 145.148 776.183 144.826C778.233 144.505 780.388 144.646 782.301 145.228C784.215 145.81 785.775 146.798 786.732 148.034C787.689 149.27 787.986 150.681 787.577 152.042C789.915 152.144 792.106 152.832 793.699 153.963C794.113 154.1 794.514 154.255 794.898 154.426C795.804 153.977 796.861 153.68 797.98 153.561C799.099 153.441 800.246 153.504 801.32 153.742C802.394 153.98 803.363 154.387 804.144 154.928C804.925 155.469 805.494 156.127 805.801 156.845C807.586 157.042 809.25 157.564 810.606 158.352C811.961 159.141 812.953 160.164 813.47 161.305C813.601 161.3 813.734 161.297 813.868 161.297C815.623 161.297 817.306 161.755 818.547 162.572C819.787 163.389 820.484 164.496 820.484 165.651C820.484 166.806 819.787 167.913 818.547 168.73C817.306 169.547 815.623 170.005 813.868 170.005H716.484Z" fill="url(#paint2_linear_143_3207)"/>
<path d="M703.694 151.633C703.78 151.404 705.719 151.224 705.925 151.174C707.908 150.862 709.944 150.724 711.967 150.754C717.797 150.857 722.203 152.7 727.243 155.473C731.863 158.009 739.625 160.497 753.616 158.192L756.292 168.029C756.374 168.272 738.5 172.251 727.143 167.48C724.532 166.39 721.403 165.022 718.876 163.736C717.03 162.776 715.101 162.011 713.156 161.448C709.2 160.282 704.984 159.838 700.94 160.589L703.694 151.633Z" fill="url(#paint3_linear_143_3207)"/>
<path d="M716.378 151.071L714.27 155.766L715.19 156.179L717.299 151.484L716.378 151.071Z" fill="#DD6E00"/>
<path d="M725.345 154.5L723.7 158.661L724.638 159.032L726.284 154.871L725.345 154.5Z" fill="#DD6E00"/>
<path d="M734.395 158.123L733.222 162.196L734.191 162.475L735.365 158.402L734.395 158.123Z" fill="#DD6E00"/>
<path d="M744.707 159.037L743.699 159.09L743.928 163.423L744.936 163.37L744.707 159.037Z" fill="#DD6E00"/>
<path d="M717.079 102.84C710.33 97.026 702.66 97.5495 697.123 99.2253C693.111 100.418 688.8 99.8981 685.114 97.9108C680.008 95.1329 672.461 92.8989 664.542 97.317C653.935 103.238 650.752 115.399 651.612 126.809C652.241 135.263 654.283 144.171 658.43 151.697C662.461 158.977 670.707 167.14 679.852 165.083C682.636 164.466 685.583 164.739 688.145 166.028C700.401 172.189 711.25 158.728 716.69 149.518C722.367 139.889 726.925 127.84 724.808 116.53C723.825 111.185 721.179 106.38 717.079 102.84Z" fill="url(#paint4_linear_143_3207)"/>
<path d="M688.31 89.7673C689.807 86.7167 692.475 84.2 695.196 82.7002C697.917 81.2003 700.667 80.5803 703.331 80.1896C705.689 79.8413 707.998 79.658 710.295 79.6423C709.589 81.6774 708.515 83.6825 707.446 85.6205C705.867 88.4283 704.186 91.2615 702.095 93.7239C700.005 96.1863 697.47 98.3087 694.902 99.1798C689.586 101.042 685.155 96.1931 688.31 89.7673Z" fill="#D82F30"/>
<path d="M654.731 107.996C654.731 107.996 650.427 111.122 657.278 113.198C662.496 114.601 667.834 115.778 673.147 116.851C684.169 119.098 695.363 120.886 706.614 121.565C710.475 121.812 714.383 121.894 718.241 121.769C720.034 121.712 721.867 121.591 723.637 121.398C725.034 121.242 725.821 120.698 725.404 119.179C727.903 119.99 727.69 122.2 727.482 124.343C727.333 125.749 727.118 127.149 726.769 128.538C726.464 129.795 726.381 131.645 725.654 132.699C724.735 134.042 722.687 133.909 721.296 133.999C719.497 134.122 717.704 134.179 715.88 134.199C712.265 134.243 708.661 134.152 705.063 133.994C696.486 133.634 687.953 132.737 679.494 131.34C674.4 130.487 669.319 129.466 664.291 128.213C661.611 127.556 658.936 126.833 656.264 126.075C654.55 125.565 651.971 124.916 650.956 123.281C650.539 122.606 650.23 121.838 650.058 121.048C649.343 118.222 649.932 115.131 650.762 112.398C650.728 112.395 651.81 108.636 654.731 107.996Z" fill="url(#paint5_linear_143_3207)"/>
<path d="M651.62 127.555C651.62 127.555 651.703 132.354 655.198 132.942C655.198 132.942 699.884 141.64 723.527 135.194C723.527 135.194 722.802 139.961 717.996 148.007C711.718 149.252 708.54 149.736 702.177 149.96C693.984 150.273 685.802 150.046 677.626 149.313C672.7 148.878 667.794 148.209 662.934 147.375C658.673 146.657 654.759 145.394 652.589 141.37C652.121 140.488 651.761 139.514 651.469 138.545C650.912 136.677 650.632 134.731 650.212 132.84C650.062 132.187 650.019 131.475 650.004 130.832C650.071 129.589 650.269 127.985 651.62 127.555Z" fill="url(#paint6_linear_143_3207)"/>
<path d="M659.033 113.655L657.707 119.148L658.688 119.385L660.014 113.892L659.033 113.655Z" fill="#DD6E00"/>
<path d="M670.647 116.306L669.328 121.871L670.31 122.104L671.629 116.539L670.647 116.306Z" fill="#DD6E00"/>
<path d="M682.009 118.507L680.894 124.081L681.883 124.279L682.998 118.705L682.009 118.507Z" fill="#DD6E00"/>
<path d="M693.915 120.301L693.09 126.027L694.089 126.171L694.914 120.445L693.915 120.301Z" fill="#DD6E00"/>
<path d="M705.528 121.511L704.519 121.527L704.611 127.178L705.62 127.162L705.528 121.511Z" fill="#DD6E00"/>
<path d="M717.409 121.849L716.402 121.777L716.001 127.381L717.008 127.453L717.409 121.849Z" fill="#DD6E00"/>
<path d="M657.538 133.223L656.531 133.289L656.883 138.626L657.89 138.56L657.538 133.223Z" fill="#DD6E00"/>
<path d="M668.681 135.019L667.672 135.016L667.652 140.364L668.661 140.368L668.681 135.019Z" fill="#DD6E00"/>
<path d="M680.81 136.443L679.801 136.469L679.925 141.412L680.934 141.387L680.81 136.443Z" fill="#DD6E00"/>
<path d="M693.012 137.325L692.004 137.359L692.186 142.637L693.195 142.603L693.012 137.325Z" fill="#DD6E00"/>
<path d="M705.275 137.493L704.266 137.496L704.282 143.114L705.291 143.111L705.275 137.493Z" fill="#DD6E00"/>
<path d="M715.89 136.716L714.883 136.773L715.199 142.315L716.206 142.257L715.89 136.716Z" fill="#DD6E00"/>
<path d="M759.967 167.366C757.751 167.565 755.522 167.183 753.5 166.256C745.738 162.989 738.664 153.59 737.659 145.27L736.723 137.738L739.531 137.389L740.468 144.921C741.39 152.334 747.726 160.746 754.639 163.666C757.723 164.965 760.394 164.965 762.169 163.606C763.945 162.246 764.712 159.743 764.305 156.468L763.135 147.06L765.874 146.72L767.045 156.137C767.578 160.424 766.433 163.862 763.854 165.805C762.726 166.673 761.381 167.213 759.967 167.366V167.366Z" fill="url(#paint7_linear_143_3207)"/>
<path d="M729.867 109.195C729.46 109.503 729.081 109.847 728.735 110.222C727.554 111.517 726.646 113.038 726.067 114.693C725.489 116.348 725.251 118.102 725.368 119.851L726.964 132.693C727.973 140.8 734.155 143.357 740.705 138.411C747.255 133.465 751.827 122.829 750.751 114.74L749.153 101.889C748.76 98.7333 746.586 97.4519 744.139 98.6026C743.724 98.797 743.332 99.035 742.968 99.3126L743.356 102.439C743.64 102.219 743.96 102.049 744.302 101.938C745.458 101.593 746.361 102.287 746.549 103.805L748.154 116.706C748.321 118.156 748.3 119.622 748.091 121.067C747.91 122.544 747.581 123.999 747.11 125.411C745.854 129.288 743.516 132.726 740.371 135.318C737.422 137.539 734.577 137.832 732.525 136.485C731.718 135.94 731.061 135.2 730.615 134.335C730.044 133.239 729.684 132.047 729.553 130.819L727.955 117.968C727.828 116.277 728.673 114.741 729.72 113.408C729.981 113.071 730.282 112.766 730.615 112.5L729.867 109.195Z" fill="url(#paint8_linear_143_3207)"/>
<path d="M742.132 98.7329C741.589 99.2046 741.184 99.8136 740.959 100.496C740.733 101.178 740.696 101.909 740.85 102.611C741.033 104.079 741.613 104.934 742.812 104.04C743.486 103.486 743.998 102.761 744.294 101.941C744.532 101.411 744.638 100.831 744.605 100.251C744.571 99.6713 744.399 99.108 744.101 98.6089C743.634 98.1732 742.896 98.1542 742.132 98.7329Z" fill="url(#paint9_linear_143_3207)"/>
<path d="M730.395 107.6C729.572 108.279 728.981 109.198 728.706 110.229C729.535 109.44 730.684 112.499 729.499 113.503C729.786 113.626 729.926 113.394 730.233 113.336C730.54 113.278 730.823 113.13 731.045 112.911C731.584 112.439 731.986 111.831 732.21 111.151C732.434 110.471 732.471 109.743 732.318 109.044C732.165 107.572 731.576 106.728 730.395 107.6Z" fill="url(#paint10_linear_143_3207)"/>
<path d="M764.068 143.88C763.671 144.22 763.358 144.648 763.156 145.129C762.953 145.611 762.866 146.134 762.902 146.655C763.025 147.648 763.742 147.901 764.506 147.322C764.908 146.989 765.224 146.564 765.428 146.082C765.631 145.601 765.715 145.078 765.674 144.557C765.557 143.615 764.843 143.3 764.068 143.88Z" fill="white"/>
<path d="M767.464 143.227C767.549 144.407 767.354 145.591 766.894 146.681C766.434 147.772 765.723 148.738 764.818 149.501C763.076 150.806 761.45 150.131 761.177 147.938C761.09 146.758 761.285 145.573 761.745 144.483C762.205 143.392 762.917 142.426 763.823 141.664C765.539 140.392 767.196 141.073 767.464 143.227ZM764.536 147.319C764.938 146.985 765.254 146.56 765.457 146.079C765.661 145.598 765.745 145.075 765.704 144.554C765.581 143.561 764.873 143.297 764.098 143.877C763.701 144.216 763.388 144.644 763.186 145.126C762.983 145.608 762.896 146.13 762.932 146.652C763.055 147.644 763.772 147.898 764.536 147.319Z" fill="url(#paint11_linear_143_3207)"/>
<path d="M632.356 151.175L634.939 146.53C634.76 146.268 634.733 145.905 634.887 145.62L641.677 133.365C641.831 133.08 642.14 132.909 642.478 132.917L645.061 128.271L649.973 130.995L647.428 135.589C647.672 135.871 647.751 136.272 647.559 136.608L640.769 148.864C640.577 149.2 640.203 149.351 639.844 149.301L637.299 153.894L632.356 151.175Z" fill="url(#paint12_linear_143_3207)"/>
<g opacity="0.12">
<g opacity="0.12">
<path opacity="0.12" d="M644.321 129.87L649.1 132.523L648.14 134.281L644.017 130.362L644.321 129.87Z" fill="black"/>
</g>
</g>
<path d="M656.557 133.717L656.698 133.45C657.363 132.243 656.943 130.75 655.736 130.085L642.796 122.929C641.606 122.276 640.101 122.713 639.448 123.903L639.307 124.17C638.641 125.376 639.062 126.87 640.268 127.535L653.209 134.691C654.398 135.344 655.904 134.906 656.557 133.717Z" fill="url(#paint13_linear_143_3207)"/>
<path d="M659.1 129.123L659.241 128.856C659.906 127.65 659.486 126.156 658.279 125.491L645.339 118.335C644.149 117.682 642.644 118.12 641.991 119.309L641.85 119.576C641.184 120.783 641.605 122.276 642.811 122.941L655.752 130.097C656.928 130.767 658.434 130.33 659.1 129.123Z" fill="url(#paint14_linear_143_3207)"/>
<path d="M654.463 123.117L654.574 122.564C654.662 122.153 654.373 121.679 653.886 121.404L651.235 119.928C650.748 119.653 650.185 119.666 649.877 119.944L649.464 120.331C649.051 120.717 649.306 121.457 649.991 121.822L652.943 123.465C653.598 123.835 654.352 123.67 654.463 123.117Z" fill="#DD6E00"/>
<path d="M643.444 157.43L643.303 157.698C642.638 158.904 641.145 159.324 639.955 158.672L627.015 151.515C625.825 150.863 625.388 149.357 626.053 148.15L626.194 147.883C626.86 146.677 628.353 146.257 629.542 146.909L642.483 154.065C643.672 154.718 644.11 156.224 643.444 157.43Z" fill="url(#paint15_linear_143_3207)"/>
<path d="M640.913 162.008L640.772 162.275C640.107 163.482 638.613 163.902 637.424 163.249L624.483 156.093C623.294 155.44 622.857 153.934 623.522 152.728L623.663 152.461C624.328 151.254 625.822 150.834 627.011 151.487L639.952 158.643C641.141 159.296 641.578 160.801 640.913 162.008Z" fill="url(#paint16_linear_143_3207)"/>
<path d="M633.332 161.28L632.919 161.667C632.611 161.945 632.048 161.958 631.561 161.683L628.91 160.207C628.423 159.932 628.134 159.458 628.222 159.047L628.333 158.494C628.444 157.941 629.21 157.758 629.865 158.129L632.817 159.771C633.49 160.154 633.727 160.881 633.332 161.28Z" fill="#DD6E00"/>
</g>
<path d="M503.468 165.855C277.103 176.034 73.5038 156.081 0 144.832V184.112H734.281V170.281C742.087 164.564 729.834 155.675 503.468 165.855Z" fill="url(#paint17_linear_143_3207)"/>
<path d="M1170.86 155.896C1094.36 163.42 839.346 167.513 733.969 168.62V184.11H1366V131C1339.33 135.426 1262.96 146.601 1170.86 155.896Z" fill="url(#paint18_linear_143_3207)"/>
<path d="M1221.59 160.876C1114.26 170.281 880.091 170.835 761.054 170.281V184.112H1366V142.066L1365.61 142.139C1351.48 144.811 1305.3 153.541 1221.59 160.876Z" fill="url(#paint19_linear_143_3207)"/>
<path d="M366.683 171.386C206.175 172.713 68.3024 163.087 19.4297 158.108V184.11H1366V153.129C1328.06 157.002 1228.64 165.743 1134.5 169.726C1066.59 172.824 829.523 171.017 735.636 169.726C736.279 168.251 732.164 164.857 710.557 163.087C683.548 160.874 567.319 169.726 366.683 171.386Z" fill="url(#paint20_linear_143_3207)"/>
</g>
<defs>
<linearGradient id="paint0_linear_143_3207" x1="681.176" y1="0.162525" x2="680.502" y2="183.82" gradientUnits="userSpaceOnUse">
<stop stop-color="#FEF2ED"/>
<stop offset="1" stop-color="#FCE5D7"/>
</linearGradient>
<linearGradient id="paint1_linear_143_3207" x1="598.176" y1="127.776" x2="598.157" y2="188.467" gradientUnits="userSpaceOnUse">
<stop stop-color="white"/>
<stop offset="0.536458" stop-color="white" stop-opacity="0.328375"/>
<stop offset="1" stop-color="white" stop-opacity="0.76"/>
</linearGradient>
<linearGradient id="paint2_linear_143_3207" x1="763.076" y1="127.803" x2="763.102" y2="188.494" gradientUnits="userSpaceOnUse">
<stop stop-color="white"/>
<stop offset="0.536458" stop-color="white" stop-opacity="0.328375"/>
<stop offset="1" stop-color="white" stop-opacity="0.204"/>
</linearGradient>
<linearGradient id="paint3_linear_143_3207" x1="728.999" y1="158.999" x2="739.449" y2="143.782" gradientUnits="userSpaceOnUse">
<stop offset="0.0171" stop-color="#FFD2D2"/>
<stop offset="1" stop-color="white"/>
</linearGradient>
<linearGradient id="paint4_linear_143_3207" x1="676.398" y1="61.3332" x2="682.559" y2="135.993" gradientUnits="userSpaceOnUse">
<stop stop-color="#FFB59A"/>
<stop offset="1" stop-color="#F75A4A"/>
</linearGradient>
<linearGradient id="paint5_linear_143_3207" x1="708.266" y1="134.798" x2="708.589" y2="112.113" gradientUnits="userSpaceOnUse">
<stop offset="0.0171" stop-color="#FFD2D2"/>
<stop offset="1" stop-color="white"/>
</linearGradient>
<linearGradient id="paint6_linear_143_3207" x1="704.831" y1="151.875" x2="705.194" y2="131.669" gradientUnits="userSpaceOnUse">
<stop offset="0.0171" stop-color="#FFD2D2"/>
<stop offset="1" stop-color="white"/>
</linearGradient>
<linearGradient id="paint7_linear_143_3207" x1="749.099" y1="138.655" x2="752.064" y2="162.861" gradientUnits="userSpaceOnUse">
<stop stop-color="#FFBF74"/>
<stop offset="1" stop-color="#EE8D2D"/>
</linearGradient>
<linearGradient id="paint8_linear_143_3207" x1="734.613" y1="102.684" x2="738.366" y2="133.492" gradientUnits="userSpaceOnUse">
<stop stop-color="#FFBF74"/>
<stop offset="1" stop-color="#EE8D2D"/>
</linearGradient>
<linearGradient id="paint9_linear_143_3207" x1="741.08" y1="95.7359" x2="743.3" y2="101.463" gradientUnits="userSpaceOnUse">
<stop stop-color="#FFB59A"/>
<stop offset="1" stop-color="#F75A4A"/>
</linearGradient>
<linearGradient id="paint10_linear_143_3207" x1="729.039" y1="104.696" x2="731.358" y2="110.358" gradientUnits="userSpaceOnUse">
<stop stop-color="#FFB59A"/>
<stop offset="1" stop-color="#F75A4A"/>
</linearGradient>
<linearGradient id="paint11_linear_143_3207" x1="761.712" y1="137.292" x2="764.793" y2="145.956" gradientUnits="userSpaceOnUse">
<stop stop-color="#FFB59A"/>
<stop offset="1" stop-color="#F75A4A"/>
</linearGradient>
<linearGradient id="paint12_linear_143_3207" x1="637.989" y1="138.391" x2="646.001" y2="143.265" gradientUnits="userSpaceOnUse">
<stop stop-color="#FFDC7B"/>
<stop offset="1" stop-color="#F4973B"/>
</linearGradient>
<linearGradient id="paint13_linear_143_3207" x1="640.994" y1="124.266" x2="652.969" y2="133.045" gradientUnits="userSpaceOnUse">
<stop stop-color="#FFBF74"/>
<stop offset="1" stop-color="#EE8D2D"/>
</linearGradient>
<linearGradient id="paint14_linear_143_3207" x1="643.537" y1="119.672" x2="655.512" y2="128.451" gradientUnits="userSpaceOnUse">
<stop stop-color="#FFBF74"/>
<stop offset="1" stop-color="#EE8D2D"/>
</linearGradient>
<linearGradient id="paint15_linear_143_3207" x1="627.741" y1="148.246" x2="639.716" y2="157.026" gradientUnits="userSpaceOnUse">
<stop stop-color="#FFBF74"/>
<stop offset="1" stop-color="#EE8D2D"/>
</linearGradient>
<linearGradient id="paint16_linear_143_3207" x1="622.303" y1="152.331" x2="637.167" y2="161.691" gradientUnits="userSpaceOnUse">
<stop stop-color="#FFBF74"/>
<stop offset="1" stop-color="#EE8D2D"/>
</linearGradient>
<linearGradient id="paint17_linear_143_3207" x1="18.3332" y1="170.065" x2="147.574" y2="-113.579" gradientUnits="userSpaceOnUse">
<stop stop-color="#FEA98F" stop-opacity="0.4"/>
<stop offset="0.477836" stop-color="#FDF3E9" stop-opacity="0.8"/>
<stop offset="1" stop-color="#FEA98F" stop-opacity="0.502"/>
</linearGradient>
<linearGradient id="paint18_linear_143_3207" x1="773.67" y1="165.117" x2="997.949" y2="-124.106" gradientUnits="userSpaceOnUse">
<stop stop-color="#FCD7C9"/>
<stop offset="0.520833" stop-color="#F8EDE2" stop-opacity="0.8"/>
<stop offset="1" stop-color="#FEA98F" stop-opacity="0.502"/>
</linearGradient>
<linearGradient id="paint19_linear_143_3207" x1="1346.08" y1="169.949" x2="759.656" y2="181.813" gradientUnits="userSpaceOnUse">
<stop stop-color="#F19D99"/>
<stop offset="1" stop-color="#FCF0F1"/>
</linearGradient>
<linearGradient id="paint20_linear_143_3207" x1="56.0841" y1="143.724" x2="1467.8" y2="684.104" gradientUnits="userSpaceOnUse">
<stop stop-color="#F7CDBA"/>
<stop offset="0.442137" stop-color="#FF8D7E"/>
<stop offset="1" stop-color="#F3AD95"/>
</linearGradient>
</defs>
</svg>
