<svg width="18" height="18" viewBox="0 0 18 18" fill="none" xmlns="http://www.w3.org/2000/svg">
<path d="M13.5887 14.6381C13.7658 14.8211 14.0491 14.8329 14.232 14.6381C14.4209 14.4434 14.4091 14.1778 14.232 13.9948L4.36407 4.13279C4.18702 3.95574 3.89192 3.95574 3.71487 4.13279C3.54371 4.30395 3.54371 4.60494 3.71487 4.7761L13.5887 14.6381ZM14.1494 12.9325C15.8727 11.7934 17 10.2294 17 9.52711C17 8.32903 13.7245 4.51051 9.00295 4.51051C7.99963 4.51051 7.05533 4.68167 6.19956 4.96496L7.73405 6.49945C8.12357 6.33419 8.54851 6.23976 9.00295 6.23976C10.8266 6.23976 12.3021 7.68572 12.3021 9.52711C12.3021 9.97565 12.2018 10.4065 12.0247 10.7842L14.1494 12.9325ZM9.00295 14.5437C10.0948 14.5437 11.1099 14.343 12.0011 14.0125L10.4548 12.4662C10.0181 12.6905 9.52232 12.8145 9.00295 12.8145C7.16156 12.8145 5.7038 11.3213 5.6979 9.52711C5.6979 8.99594 5.82184 8.49428 6.04021 8.05164L4.02176 6.02139C2.16267 7.18406 1 8.81889 1 9.52711C1 10.7193 4.33456 14.5437 9.00295 14.5437ZM10.8797 9.40317C10.8797 8.37034 10.0476 7.53228 9.00295 7.53228C8.92623 7.53228 8.8495 7.53818 8.77868 7.54408L10.8679 9.63335C10.8738 9.56252 10.8797 9.4799 10.8797 9.40317ZM7.12025 9.39137C7.12025 10.4301 7.97602 11.2682 9.00885 11.2682C9.09148 11.2682 9.1682 11.2623 9.25083 11.2564L7.13205 9.13759C7.12615 9.22021 7.12025 9.30874 7.12025 9.39137Z" fill="#727272"/>
</svg>
