<svg width="30" height="33" viewBox="0 0 30 33" fill="none" xmlns="http://www.w3.org/2000/svg">
<g clip-path="url(#clip0_927_7738)">
<path fill-rule="evenodd" clip-rule="evenodd" d="M21.3 19.2C20.4 17.2 20.6 15 22.1 13.5L21 12.3C19.2 14.1 18.9 16.5 19.5 18.7C15.9 17.1 12.2 20.1 12.2 24.6C12.2 28.9 16.1 32.4001 20.8 32.4001C25.5 32.4001 29.4 28.9 29.4 24.6C29.4 19.7 25.1 16.7 21.3 19.2Z" fill="#FFC76F" stroke="#985801" stroke-width="1.2" stroke-miterlimit="10"/>
<path fill-rule="evenodd" clip-rule="evenodd" d="M0.600098 3.99995C0.700098 6.29995 1.4001 7.79995 2.4001 8.69995C2.2001 8.89995 2.0001 9.09995 1.9001 9.39995C1.7001 9.69995 1.7001 9.99995 1.8001 10.3C2.3001 13.5 3.5001 20.1 6.1001 27.6C6.2001 27.9 6.4001 28.1999 6.7001 28.4C7.0001 28.6 7.3001 28.7 7.6001 28.7C7.9001 28.7 8.3001 28.6 8.5001 28.4C8.8001 28.1999 9.0001 27.9 9.1001 27.6C11.6001 20.1 12.9001 13.4 13.4001 10.3C13.4001 9.99995 13.4001 9.69995 13.3001 9.39995C13.2001 9.09995 13.0001 8.89995 12.8001 8.69995C13.8001 7.79995 14.4001 6.39995 14.6001 3.99995C14.6001 3.89995 14.6001 3.79995 14.5001 3.69995C14.5001 3.59995 14.4001 3.49995 14.3001 3.39995C14.2001 3.29995 14.1001 3.29995 14.0001 3.19995C13.9001 3.19995 13.8001 3.09995 13.7001 3.09995C12.3001 3.09995 11.2001 3.19995 10.3001 3.49995C9.9001 2.59995 9.1001 1.69995 8.0001 0.899951C7.9001 0.799951 7.7001 0.699951 7.6001 0.699951C7.5001 0.699951 7.2001 0.799951 7.1001 0.899951C6.0001 1.69995 5.3001 2.59995 4.9001 3.49995C4.1001 3.19995 2.9001 3.09995 1.5001 3.09995C1.4001 3.09995 1.3001 3.09995 1.2001 3.19995C1.1001 3.29995 1.0001 3.29995 0.900098 3.39995C0.800098 3.49995 0.700098 3.59995 0.700098 3.69995C0.700098 3.79995 0.600098 3.89995 0.600098 3.99995Z" fill="#FFC76F" stroke="#985801" stroke-width="1.2" stroke-miterlimit="10"/>
<path fill-rule="evenodd" clip-rule="evenodd" d="M9.2 5.69993L8.6 4.19993C8.4 3.79993 8.1 3.29993 7.6 2.79993C7.1 3.29993 6.7 3.79993 6.6 4.19993L5.9 5.59993L4.4 5.19993C4 5.09993 3.3 4.99993 2.5 4.89993C2.8 6.59993 3.4 7.29993 3.9 7.59993C4.7 8.09993 5.9 8.29993 7.5 8.29993H7.6C9.2 8.29993 10.4 8.09993 11.2 7.59993C11.8 7.19993 12.4 6.49993 12.6 4.89993C11.8 4.89993 11.2 4.99993 10.7 5.19993L9.2 5.69993Z" fill="url(#paint0_linear_927_7738)"/>
<path fill-rule="evenodd" clip-rule="evenodd" d="M3.5 10.1H11.6C11.4 11.7 10.9 14.1 10.2 17H6.7V18.7H9.9C9.3 21.1 8.5 23.8 7.6 26.6C7.3 25.8 7 24.9 6.7 24H7.6V22.3H6.2C5.5 19.7 4.8 17.1 4.3 14.5H6.7V12.8H3.9C3.8 11.8 3.6 11 3.5 10.1Z" fill="url(#paint1_linear_927_7738)"/>
<path d="M25.7 24.6C25.9 24.7 26.1 24.8 26.2 25C26.3 25.2 26.2999 25.4 26.2999 25.6C26.0999 26.5 25.6 27.3 25 28C24.3 28.7 23.5 29.1 22.6 29.3C22.5 29.3 22.3999 29.3 22.2999 29.3C22.1999 29.3 22.1 29.3 22 29.2C21.9 29.1 21.7999 29.1 21.7999 29C21.6999 28.9 21.7 28.8 21.7 28.7C21.7 28.6 21.7 28.5 21.7 28.4C21.7 28.3 21.7999 28.2 21.7999 28.1C21.8999 28 21.9 27.9 22 27.9C22.1 27.8 22.1999 27.8 22.2999 27.8C22.8999 27.7 23.5 27.3 23.9 26.9C24.4 26.4 24.6999 25.9 24.7999 25.3C24.8999 25.1 25 24.9 25.2 24.8C25.3 24.6 25.5 24.6 25.7 24.6Z" fill="url(#paint2_linear_927_7738)"/>
<path d="M22.3999 16.8C24.6999 16.8 26.2999 15.2 26.2999 12.9C23.8999 12.9 22.3999 14.4 22.3999 16.8Z" fill="url(#paint3_linear_927_7738)"/>
</g>
<defs>
<linearGradient id="paint0_linear_927_7738" x1="2.4762" y1="5.54153" x2="12.636" y2="5.54153" gradientUnits="userSpaceOnUse">
<stop stop-color="#E1590A"/>
<stop offset="1" stop-color="#C23102"/>
</linearGradient>
<linearGradient id="paint1_linear_927_7738" x1="3.4867" y1="18.3736" x2="11.6256" y2="18.3736" gradientUnits="userSpaceOnUse">
<stop stop-color="#E1590A"/>
<stop offset="1" stop-color="#C23102"/>
</linearGradient>
<linearGradient id="paint2_linear_927_7738" x1="21.5926" y1="26.9605" x2="26.2941" y2="26.9605" gradientUnits="userSpaceOnUse">
<stop stop-color="#E1590A"/>
<stop offset="1" stop-color="#C23102"/>
</linearGradient>
<linearGradient id="paint3_linear_927_7738" x1="22.3806" y1="14.8274" x2="26.2943" y2="14.8274" gradientUnits="userSpaceOnUse">
<stop stop-color="#E1590A"/>
<stop offset="1" stop-color="#C23102"/>
</linearGradient>
<clipPath id="clip0_927_7738">
<rect width="30" height="33" fill="white"/>
</clipPath>
</defs>
</svg>
