<svg width="30" height="30" viewBox="0 0 30 30" fill="none" xmlns="http://www.w3.org/2000/svg">
<path d="M27 9V6C27 4.4 25.6 3 24 3H4.5C2 3 0 5 0 7.5V25.5C0 28.8 2.7 30 4.5 30H27C28.6 30 30 28.7 30 27V12C30 10.3 28.6 9 27 9ZM26.5 9.6H8.5C6.9 9.6 5.6 8.3 5.6 6.6C5.6 4.9 6.9 3.6 8.5 3.6H24.2C25.4 3.6 26.4 4.6 26.4 5.8L26.5 9.6Z" fill="#FFC76F"/>
<path d="M24.3 3.59998H22.9H15.8H8.5C6.9 3.59998 5.5 4.89998 5.5 6.59998C5.5 8.29998 6.8 9.59998 8.5 9.59998H15.6H21.6H26.4V5.79998C26.5 4.59998 25.5 3.59998 24.3 3.59998Z" fill="white"/>
<path d="M24 4.2C25 4.2 25.8 5 25.8 6V9V10.2H27C28 10.2 28.8 11 28.8 12V27C28.8 28 28 28.8 27 28.8H4.5C3.4 28.8 1.2 28.1 1.2 25.5V7.5C1.2 5.7 2.7 4.2 4.5 4.2H24ZM24 3H4.5C2 3 0 5 0 7.5V25.5C0 28.8 2.7 30 4.5 30H27C28.7 30 30 28.7 30 27V12C30 10.3 28.7 9 27 9V6C27 4.3 25.7 3 24 3Z" fill="#985801"/>
<path d="M21 17.9H16.1V13H14V17.9H9V20.1H14V25H16.1V20.1H21V17.9Z" fill="url(#paint0_linear_927_7755)"/>
<path d="M15.7 3.59998H8.5C6.9 3.59998 5.5 4.89998 5.5 6.59998C5.5 8.29998 6.8 9.59998 8.5 9.59998H15.6H27" stroke="#985801" stroke-width="1.2" stroke-miterlimit="10"/>
<defs>
<linearGradient id="paint0_linear_927_7755" x1="15.0009" y1="14.4203" x2="15.0009" y2="23.2381" gradientUnits="userSpaceOnUse">
<stop stop-color="#E1590A"/>
<stop offset="1" stop-color="#C23102"/>
</linearGradient>
</defs>
</svg>
