<svg width="28" height="30" viewBox="0 0 28 30" fill="none" xmlns="http://www.w3.org/2000/svg">
<path d="M15.3945 7.42109C14.4471 6.94741 12.5524 7.89478 12.0787 8.36846C11.2893 8.05267 9.52087 7.42108 8.76297 7.42108C7.8156 7.42108 7.34189 8.36845 6.39452 9.31582C5.63663 10.0737 6.39452 11.8421 6.86821 12.6316L12.0787 17.3684C11.7629 18 11.8892 18.4106 14.9208 15C18.7103 10.7369 17.7629 11.2106 17.7629 9.7895C17.7629 8.36845 16.3419 7.89478 15.3945 7.42109Z" fill="url(#paint0_linear_927_7563)"/>
<path d="M23.323 10.6572L23.3058 10.5253C22.947 7.78042 21.6021 5.25979 19.5218 3.43356C17.4415 1.60733 14.7679 0.600192 11.9997 0.6L23.323 10.6572ZM23.323 10.6572L23.3944 10.7694M23.323 10.6572L23.3944 10.7694M23.3944 10.7694L26.7692 16.0777C26.8022 16.1295 26.8062 16.1825 26.7993 16.2113C26.7966 16.223 26.7919 16.2328 26.7832 16.2429C26.7747 16.2529 26.7525 16.2746 26.7011 16.2968C26.7009 16.2969 26.7007 16.297 26.7005 16.2971L23.7637 17.5534L23.3997 17.7091M23.3944 10.7694L23.3997 17.7091M23.3997 17.7091V18.105M23.3997 17.7091V18.105M23.3997 18.105V22.5C23.3997 23.1365 23.1469 23.747 22.6968 24.1971C22.2467 24.6471 21.6362 24.9 20.9997 24.9H18.0012H17.4014M23.3997 18.105L17.4014 24.9M17.4014 24.9L17.4012 25.4998M17.4014 24.9L17.4012 25.4998M17.4012 25.4998L17.3999 29.4M17.4012 25.4998L17.3999 29.4M17.3999 29.4H5.09971V24.459C5.09971 22.5319 4.38535 20.7274 3.10187 19.1262C1.75926 17.4498 0.917555 15.4282 0.673713 13.2942C0.429863 11.1602 0.793846 9.00077 1.72373 7.0646C2.65361 5.12844 4.11156 3.49436 5.92961 2.35063C7.74765 1.20691 9.8518 0.600063 11.9997 0.6L17.3999 29.4ZM13.4097 7.50482C13.018 7.67319 12.6636 7.91755 12.3669 8.22376L11.9997 8.59097L11.6325 8.22376C11.3358 7.91755 10.9814 7.67319 10.5897 7.50482C10.1963 7.33572 9.7731 7.24667 9.34489 7.24287C8.91667 7.23906 8.49199 7.32057 8.09562 7.48265C7.69924 7.64472 7.33912 7.88412 7.03625 8.18686C6.73339 8.4896 6.49385 8.84963 6.33162 9.24594C6.16938 9.64225 6.08769 10.0669 6.09133 10.4951C6.09496 10.9233 6.18384 11.3465 6.35278 11.74C6.521 12.1318 6.76525 12.4864 7.07137 12.7832L11.5754 17.2887L11.9997 17.7132L12.424 17.2887L16.9281 12.7832C17.2342 12.4864 17.4784 12.1318 17.6466 11.74C17.8156 11.3465 17.9045 10.9233 17.9081 10.4951C17.9117 10.0669 17.83 9.64225 17.6678 9.24594C17.5056 8.84963 17.266 8.4896 16.9632 8.18686C16.6603 7.88412 16.3002 7.64472 15.9038 7.48265C15.5074 7.32057 15.0827 7.23906 14.6545 7.24287C14.2263 7.24667 13.8032 7.33572 13.4097 7.50482Z" fill="#FFC76F" stroke="#985801" stroke-width="1.2"/>
<defs>
<linearGradient id="paint0_linear_927_7563" x1="11.9706" y1="7.29199" x2="11.9706" y2="17.7967" gradientUnits="userSpaceOnUse">
<stop stop-color="#E1590A"/>
<stop offset="1" stop-color="#C23102"/>
</linearGradient>
</defs>
</svg>
