<svg width="32" height="32" viewBox="0 0 32 32" fill="none" xmlns="http://www.w3.org/2000/svg">
<path d="M2.45161 1L1.48387 1.48387L1 4.3871V28.5806L1.96774 30.0323L4.3871 31H26.1613L25.1935 30.0323L23.7419 27.6129L24.2258 6.80645L23.7419 1.96774L22.7742 1H2.45161Z" fill="#FFC76F"/>
<path d="M24.0444 27.129V2.78422C24.0431 2.32745 23.8611 1.88976 23.5381 1.56678C23.2151 1.24379 22.7774 1.06175 22.3206 1.06042H2.78434C2.32757 1.06175 1.88989 1.24379 1.5669 1.56678C1.24391 1.88976 1.06187 2.32745 1.06055 2.78422V28.0665C1.06282 28.8277 1.36624 29.5572 1.90454 30.0955C2.44283 30.6338 3.17227 30.9372 3.93353 30.9395H27.492" stroke="#985801" stroke-width="1.2" stroke-linejoin="round"/>
<path d="M27.492 30.9395C26.5777 30.9395 25.7008 30.5762 25.0542 29.9297C24.4077 29.2831 24.0444 28.4062 24.0444 27.4919V6.8064H29.2158C29.673 6.8064 30.1114 6.98801 30.4347 7.31128C30.758 7.63456 30.9396 8.07301 30.9396 8.53019V27.4919C30.9396 28.4062 30.5764 29.2831 29.9298 29.9297C29.2833 30.5762 28.4064 30.9395 27.492 30.9395Z" stroke="#985801" stroke-width="1.2" stroke-linejoin="round"/>
<path d="M14.8509 6.8064H19.4477M14.8509 11.4032H19.4477M5.65735 15.9999H19.4477M5.65735 20.5967H19.4477M5.65735 25.1935H19.4477" stroke="url(#paint0_linear_927_7581)" stroke-width="2.375" stroke-linecap="round" stroke-linejoin="round"/>
<path d="M10.254 12.5524H5.65725C5.35247 12.5524 5.06016 12.4313 4.84465 12.2158C4.62913 12.0003 4.50806 11.708 4.50806 11.4032V6.80642C4.50806 6.50164 4.62913 6.20933 4.84465 5.99382C5.06016 5.7783 5.35247 5.65723 5.65725 5.65723H10.254C10.5588 5.65723 10.8511 5.7783 11.0666 5.99382C11.2821 6.20933 11.4032 6.50164 11.4032 6.80642V11.4032C11.4032 11.708 11.2821 12.0003 11.0666 12.2158C10.8511 12.4313 10.5588 12.5524 10.254 12.5524Z" fill="url(#paint1_linear_927_7581)"/>
<defs>
<linearGradient id="paint0_linear_927_7581" x1="12.5525" y1="6.8064" x2="12.5525" y2="25.1935" gradientUnits="userSpaceOnUse">
<stop stop-color="#E1590A"/>
<stop offset="1" stop-color="#C23102"/>
</linearGradient>
<linearGradient id="paint1_linear_927_7581" x1="7.95564" y1="5.65723" x2="7.95564" y2="12.5524" gradientUnits="userSpaceOnUse">
<stop stop-color="#E1590A"/>
<stop offset="1" stop-color="#C23102"/>
</linearGradient>
</defs>
</svg>
