<svg width="24" height="30" viewBox="0 0 24 30" fill="none" xmlns="http://www.w3.org/2000/svg">
<path d="M11.7857 0C8.66109 0.00368622 5.66549 1.24658 3.45604 3.45603C1.24659 5.66548 0.00369876 8.66108 1.25388e-05 11.7857C-0.00372985 14.3392 0.830349 16.8233 2.3743 18.8571C2.3743 18.8571 2.69573 19.2804 2.74823 19.3414L11.7857 30L20.8275 19.3361C20.8747 19.2793 21.1972 18.8571 21.1972 18.8571L21.1982 18.8539C22.7414 16.821 23.5751 14.338 23.5714 11.7857C23.5678 8.66108 22.3249 5.66548 20.1154 3.45603C17.906 1.24658 14.9104 0.00368622 11.7857 0ZM16.2964 12.5379L11.7889 17.1429L7.27501 12.5379C6.73302 11.9783 6.42997 11.2298 6.42997 10.4507C6.42997 9.67167 6.73302 8.92317 7.27501 8.36357C7.54079 8.09038 7.85864 7.87324 8.20976 7.72497C8.56088 7.57669 8.93816 7.5003 9.3193 7.5003C9.70044 7.5003 10.0777 7.57669 10.4288 7.72497C10.78 7.87324 11.0978 8.09038 11.3636 8.36357L11.7889 8.7975L12.21 8.36357C12.4758 8.09038 12.7936 7.87324 13.1448 7.72497C13.4959 7.57669 13.8732 7.5003 14.2543 7.5003C14.6354 7.5003 15.0127 7.57669 15.3638 7.72497C15.715 7.87324 16.0328 8.09038 16.2986 8.36357C16.8406 8.92317 17.1436 9.67167 17.1436 10.4507C17.1436 11.2298 16.8406 11.9783 16.2986 12.5379H16.2964Z" fill="white"/>
</svg>
