<svg width="39" height="30" viewBox="0 0 39 30" fill="none" xmlns="http://www.w3.org/2000/svg">
<path d="M0.0510254 29.7499V21.5681C0.0510254 19.1533 0.505571 16.6107 1.41466 13.9402C2.32375 11.2698 3.58796 8.713 5.20728 6.26982C6.82659 3.82663 8.73 1.73856 10.9175 0.00561523L17.2243 4.52265C15.4914 7.05106 14.0141 9.69311 12.7925 12.4488C11.5709 15.2044 10.9601 18.2016 10.9601 21.4402V29.7499H0.0510254ZM21.784 29.7499V21.5681C21.784 19.1533 22.2385 16.6107 23.1476 13.9402C24.0567 11.2698 25.3209 8.713 26.9402 6.26982C28.5596 3.82663 30.463 1.73856 32.6505 0.00561523L38.9573 4.52265C37.2243 7.05106 35.7471 9.69311 34.5255 12.4488C33.3039 15.2044 32.6931 18.2016 32.6931 21.4402V29.7499H21.784Z" fill="#292929"/>
</svg>
