<svg width="27" height="31" viewBox="0 0 27 31" fill="none" xmlns="http://www.w3.org/2000/svg">
<path d="M19.6202 7.24208C17.5344 7.05523 15.4823 8.27654 13.4134 8.27654C11.3445 8.27654 9.29179 7.04812 7.20672 7.24208C3.06891 7.63 1 11.3799 1 17.5866C1 22.7589 5.13781 30.0001 8.18945 30.0001C11.2411 30.0001 11.5475 28.4484 13.4134 28.4484C15.2793 28.4484 15.5851 30.0001 18.6374 30.0001C21.6897 30.0001 25.8269 22.7589 25.8269 17.5866C25.8269 11.3799 23.9519 7.63 19.6202 7.24208Z" fill="#FFC76F" stroke="#985801" stroke-width="1.2" stroke-miterlimit="10"/>
<path d="M17.8047 4.34167C16.447 5.69939 14.8526 6.08731 14.0018 6.20304C13.924 6.21425 13.8447 6.20759 13.7698 6.18356C13.695 6.15953 13.6266 6.11876 13.5699 6.06435C13.5132 6.00994 13.4696 5.94332 13.4425 5.86955C13.4154 5.79578 13.4055 5.71681 13.4134 5.63862C13.5669 4.18428 14.2207 2.82839 15.2632 1.80274C16.6855 0.380362 18.2372 0.0635607 19.0596 0.00214007C19.1364 -0.00486555 19.2138 0.00537967 19.2861 0.0321263C19.3584 0.0588729 19.4238 0.101444 19.4775 0.156727C19.5312 0.212009 19.5719 0.278604 19.5966 0.351639C19.6213 0.424675 19.6293 0.502304 19.6202 0.578848C19.4578 2.0023 18.8179 3.32872 17.8047 4.34167Z" fill="url(#paint0_linear_927_7554)"/>
<path d="M10.8273 21.7244C11.6843 21.7244 12.379 20.335 12.379 18.6211C12.379 16.9071 11.6843 15.5177 10.8273 15.5177C9.97035 15.5177 9.27563 16.9071 9.27563 18.6211C9.27563 20.335 9.97035 21.7244 10.8273 21.7244Z" fill="url(#paint1_linear_927_7554)"/>
<path d="M15.9996 21.7244C16.8565 21.7244 17.5512 20.335 17.5512 18.6211C17.5512 16.9071 16.8565 15.5177 15.9996 15.5177C15.1426 15.5177 14.4479 16.9071 14.4479 18.6211C14.4479 20.335 15.1426 21.7244 15.9996 21.7244Z" fill="url(#paint2_linear_927_7554)"/>
<defs>
<linearGradient id="paint0_linear_927_7554" x1="16.5173" y1="0" x2="16.5173" y2="6.20833" gradientUnits="userSpaceOnUse">
<stop stop-color="#E1590A"/>
<stop offset="1" stop-color="#C23102"/>
</linearGradient>
<linearGradient id="paint1_linear_927_7554" x1="10.8273" y1="15.5177" x2="10.8273" y2="21.7244" gradientUnits="userSpaceOnUse">
<stop stop-color="#E1590A"/>
<stop offset="1" stop-color="#C23102"/>
</linearGradient>
<linearGradient id="paint2_linear_927_7554" x1="15.9996" y1="15.5177" x2="15.9996" y2="21.7244" gradientUnits="userSpaceOnUse">
<stop stop-color="#E1590A"/>
<stop offset="1" stop-color="#C23102"/>
</linearGradient>
</defs>
</svg>
