<svg width="60" height="60" viewBox="0 0 60 60" fill="none" xmlns="http://www.w3.org/2000/svg">
<circle cx="30" cy="30" r="30" fill="#C68158"/>
<g clip-path="url(#clip0_143_7821)">
<path d="M42.5469 24.375H17.7031C17.3148 24.375 17 24.0602 17 23.6719V21.5625C17 20.0092 18.2592 18.75 19.8125 18.75H22.625V15.7031C22.625 15.3148 22.9398 15 23.3281 15H25.6719C26.0602 15 26.375 15.3148 26.375 15.7031V18.75H33.875V15.7031C33.875 15.3148 34.1898 15 34.5781 15H36.9219C37.3102 15 37.625 15.3148 37.625 15.7031V18.75H40.4375C41.9908 18.75 43.25 20.0092 43.25 21.5625V23.6719C43.25 24.0602 42.9352 24.375 42.5469 24.375ZM17.7031 26.25H42.5469C42.9352 26.25 43.25 26.5648 43.25 26.9531V42.1875C43.25 43.7408 41.9908 45 40.4375 45H19.8125C18.2592 45 17 43.7408 17 42.1875V26.9531C17 26.5648 17.3148 26.25 17.7031 26.25ZM37.2322 31.8719L35.5817 30.2079C35.3082 29.9323 34.863 29.9304 34.5873 30.204L28.3742 36.3671L25.6801 33.6512C25.4066 33.3755 24.9614 33.3737 24.6857 33.6472L23.0218 35.2978C22.7461 35.5712 22.7443 36.0164 23.0178 36.2921L27.8577 41.1711C28.1312 41.4468 28.5764 41.4486 28.8521 41.1751L37.2282 32.8662C37.5039 32.5928 37.5057 32.1476 37.2322 31.8719Z" fill="white"/>
</g>
<defs>
<clipPath id="clip0_143_7821">
<rect width="26.25" height="30" fill="white" transform="translate(17 15)"/>
</clipPath>
</defs>
</svg>
