<svg width="50" height="28" viewBox="0 0 50 28" fill="none" xmlns="http://www.w3.org/2000/svg">
<path d="M15.27 13.91C15.27 14.04 15.27 14.16 15.3 14.29H11.79V10.77H15.38C15.31 10.99 15.27 11.22 15.27 11.47V13.91Z" fill="#DD1F26" stroke="#975A25" stroke-linecap="round" stroke-linejoin="round"/>
<path d="M38.2201 10.78V14.3H34.6501C34.6701 14.17 34.6801 14.05 34.6801 13.92V11.48C34.6801 11.23 34.6401 11 34.5701 10.78H38.2201Z" fill="#DD1F26" stroke="#975A25" stroke-linecap="round" stroke-linejoin="round"/>
<path d="M11.79 3.48006V21.5701C11.79 22.9001 10.71 23.9801 9.36996 23.9801C8.02996 23.9801 6.95996 22.9001 6.95996 21.5701V3.48006C6.95996 2.81006 7.21996 2.21006 7.66996 1.77006C8.10996 1.34006 8.70996 1.06006 9.37996 1.06006C10.72 1.06006 11.8 2.14006 11.8 3.47006L11.79 3.48006Z" fill="url(#paint0_linear_1640_6163)" stroke="#FEC770" stroke-miterlimit="10"/>
<path d="M6.95992 4.26001V20.8H4.76992C3.74992 20.8 2.91992 19.98 2.91992 18.95V6.11001C2.91992 5.08001 3.74992 4.26001 4.76992 4.26001H6.95992Z" fill="url(#paint1_linear_1640_6163)" stroke="#FEC770" stroke-miterlimit="10"/>
<path d="M2.92 10.7201V14.3501H1.16C0.8 14.3501 0.5 14.0601 0.5 13.7001V11.3701C0.5 11.0201 0.79 10.7201 1.16 10.7201H2.92Z" fill="url(#paint2_linear_1640_6163)" stroke="#FEC770" stroke-miterlimit="10"/>
<path d="M43.05 3.48007V21.5701C43.05 22.9001 41.96 23.9801 40.63 23.9801C39.3 23.9801 38.22 22.9001 38.22 21.5701V3.48007C38.22 2.15007 39.3 1.07007 40.63 1.07007C41.3 1.07007 41.9 1.34007 42.34 1.78007C42.78 2.21007 43.06 2.82007 43.06 3.49007L43.05 3.48007Z" fill="url(#paint3_linear_1640_6163)" stroke="#FEC770" stroke-miterlimit="10"/>
<path d="M47.09 6.11001V18.95C47.09 19.98 46.2601 20.8 45.2401 20.8H43.05V4.26001H45.2401C46.2601 4.26001 47.09 5.08001 47.09 6.11001Z" fill="url(#paint4_linear_1640_6163)" stroke="#FEC770" stroke-miterlimit="10"/>
<path d="M49.5001 11.3601V13.6901C49.5001 14.0401 49.2201 14.3401 48.8501 14.3401H47.0901V10.7101H48.8501C49.2101 10.7101 49.5001 11.0001 49.5001 11.3601Z" fill="url(#paint5_linear_1640_6163)" stroke="#FEC770" stroke-miterlimit="10"/>
<path d="M21.76 6.8301V8.9501C21.76 8.9501 21.76 9.0501 21.76 9.1001C21.76 9.1201 21.76 9.1501 21.76 9.1701C21.0201 9.3901 20.49 10.0701 20.49 10.9001V11.1301C20.14 11.3401 19.7301 11.4401 19.2901 11.4401C18.6401 11.4401 18.0501 11.1901 17.6101 10.7801C17.1801 10.4001 16.88 9.8601 16.82 9.2601C16.82 9.1601 16.8 9.0501 16.8 8.9601V6.8401C16.8 5.4701 17.9201 4.3501 19.2901 4.3501C19.8901 4.3501 20.4301 4.5601 20.8601 4.9101C20.9301 4.9601 20.99 5.0201 21.05 5.0801C21.5 5.5301 21.7901 6.1601 21.7901 6.8401L21.76 6.8301Z" fill="#FEC770" stroke="#975A25" stroke-linecap="round" stroke-linejoin="round"/>
<path d="M25.4601 6.17003V8.95004C25.4601 8.95004 25.4601 9.04003 25.4601 9.09003H22.8801C22.8001 9.09003 22.7101 9.09003 22.6301 9.09003H21.7601C21.7601 9.09003 21.7601 8.99004 21.7601 8.94003V6.82003C21.7601 6.13003 21.4801 5.51003 21.0201 5.06003C20.9601 5.00003 20.9001 4.94003 20.8301 4.89003C21.2601 4.15003 22.0601 3.66003 22.9701 3.66003C23.5601 3.66003 24.1001 3.87003 24.5201 4.21003C24.5901 4.26003 24.6601 4.32003 24.7301 4.39003C25.1801 4.84003 25.4601 5.47003 25.4601 6.15003V6.17003Z" fill="#FEC770" stroke="#975A25" stroke-linecap="round" stroke-linejoin="round"/>
<path d="M25.4499 9.09009H22.6299C22.7099 9.09009 22.7999 9.09009 22.8799 9.09009H25.4599H25.4499Z" stroke="#FFD561" stroke-width="0.25" stroke-linecap="round" stroke-linejoin="round"/>
<path d="M29.16 5.50001V8.95001C29.16 8.95001 29.16 9.04001 29.16 9.09001H25.45C25.45 9.09001 25.45 9.00001 25.45 8.95001V6.17001C25.45 5.48001 25.18 4.86001 24.72 4.41001C24.65 4.34001 24.58 4.28001 24.51 4.23001C24.95 3.49001 25.75 3.01001 26.66 3.01001C27.35 3.01001 27.97 3.28001 28.42 3.74001C28.61 3.93001 28.76 4.14001 28.88 4.39001C29.05 4.72001 29.14 5.11001 29.14 5.51001L29.16 5.50001Z" fill="#FEC770" stroke="#975A25" stroke-linecap="round" stroke-linejoin="round"/>
<path d="M24.1899 9.09009H29.1499H24.1899Z" stroke="#FFD561" stroke-width="0.25" stroke-linecap="round" stroke-linejoin="round"/>
<path d="M32.8599 6.38002V8.95003C32.8599 9.02003 32.8599 9.10002 32.8599 9.17002C32.8299 9.55002 32.6999 9.91002 32.5199 10.22C32.1399 9.61002 31.4899 9.18003 30.7399 9.10003C30.6599 9.10003 30.5699 9.10003 30.4899 9.10003H29.1699C29.1699 9.10003 29.1699 9.01002 29.1699 8.96002V5.51003C29.1699 5.11003 29.0699 4.73003 28.9099 4.39003C29.3199 4.08003 29.8299 3.90002 30.3799 3.90002C31.0699 3.90002 31.6799 4.17002 32.1299 4.63002C32.5799 5.09002 32.8699 5.71002 32.8699 6.39002L32.8599 6.38002Z" fill="#FEC770" stroke="#975A25" stroke-linecap="round" stroke-linejoin="round"/>
<path d="M30.7199 9.1001H27.8899H30.4799C30.5599 9.1001 30.6499 9.1001 30.7299 9.1001H30.7199Z" stroke="#FFD561" stroke-width="0.25" stroke-linecap="round" stroke-linejoin="round"/>
<path d="M30.7201 9.1001H22.6201C22.7001 9.1001 22.7901 9.1001 22.8701 9.1001H30.4801C30.5601 9.1001 30.6501 9.1001 30.7301 9.1001H30.7201Z" stroke="#FFD561" stroke-width="0.25" stroke-linecap="round" stroke-linejoin="round"/>
<path d="M27.69 13.88C26.68 14.1 25.25 14.7 24.29 16.29H17.64C17.4 16.29 17.17 16.25 16.95 16.18C16.09 15.92 15.45 15.19 15.3 14.29C15.28 14.16 15.27 14.04 15.27 13.91V11.47C15.27 11.22 15.31 10.99 15.38 10.77C15.59 10.06 16.12 9.51 16.8 9.25C16.87 9.85 17.16 10.39 17.59 10.77C18.03 11.18 18.62 11.43 19.27 11.43C19.7 11.43 20.11 11.32 20.47 11.12V12.06C20.47 13.07 21.28 13.88 22.29 13.88C22.37 13.88 22.45 13.88 22.53 13.85C22.64 13.87 22.76 13.88 22.87 13.88H27.69Z" fill="#DD1F26" stroke="#975A25" stroke-linecap="round" stroke-linejoin="round"/>
<path d="M34.6799 11.47V13.91C34.6799 14.04 34.6799 14.16 34.6499 14.29C34.4699 15.4 33.5199 16.26 32.3799 16.29C32.3799 16.29 32.8599 14.97 32.8599 13.97V11.47C32.8599 11.22 32.8199 10.99 32.7499 10.77C32.6899 10.57 32.6099 10.38 32.4999 10.21C32.6899 9.90003 32.8099 9.54003 32.8399 9.16003C33.6599 9.35003 34.3199 9.96003 34.5699 10.77C34.6399 10.99 34.6799 11.22 34.6799 11.47Z" fill="#DD1F26" stroke="#975A25" stroke-linecap="round" stroke-linejoin="round"/>
<path d="M24.29 16.29C23.98 16.8 23.71 17.42 23.53 18.15" stroke="#FFD561" stroke-width="0.25" stroke-linecap="round" stroke-linejoin="round"/>
<path d="M28.7499 13.75C28.5299 13.75 28.1599 13.77 27.6899 13.88" stroke="#FFD561" stroke-width="0.25" stroke-linecap="round" stroke-linejoin="round"/>
<path d="M32.86 11.4701V13.9701C32.86 14.9701 32.38 16.2901 32.38 16.2901C32.07 17.6901 31.38 18.9901 30.37 20.0601V26.9201H18.99V20.0601C17.96 18.9601 17.26 17.6301 16.96 16.1801C17.18 16.2501 17.41 16.2901 17.65 16.2901H24.3C25.26 14.7001 26.69 14.0901 27.7 13.8801H22.88C22.76 13.8801 22.64 13.8801 22.54 13.8501C22.46 13.8701 22.38 13.8801 22.3 13.8801C21.29 13.8801 20.48 13.0701 20.48 12.0601V10.8901C20.48 10.0701 21.02 9.38009 21.75 9.16009C21.84 9.12009 21.93 9.09009 22.02 9.09009H30.72C31.47 9.17009 32.12 9.60009 32.5 10.2101C32.61 10.3801 32.69 10.5701 32.75 10.7701C32.82 10.9901 32.86 11.2201 32.86 11.4701Z" fill="#FEC770" stroke="#975A25" stroke-linecap="round" stroke-linejoin="round"/>
<defs>
<linearGradient id="paint0_linear_1640_6163" x1="6.95996" y1="12.5301" x2="11.79" y2="12.5301" gradientUnits="userSpaceOnUse">
<stop stop-color="#FEC770"/>
<stop offset="1" stop-color="#DD1F26"/>
</linearGradient>
<linearGradient id="paint1_linear_1640_6163" x1="2.91992" y1="-11" x2="6.95992" y2="-11" gradientUnits="userSpaceOnUse">
<stop stop-color="#FEC770"/>
<stop offset="1" stop-color="#DD1F26"/>
</linearGradient>
<linearGradient id="paint2_linear_1640_6163" x1="0.5" y1="12.5301" x2="2.92" y2="12.5301" gradientUnits="userSpaceOnUse">
<stop stop-color="#FEC770"/>
<stop offset="1" stop-color="#DD1F26"/>
</linearGradient>
<linearGradient id="paint3_linear_1640_6163" x1="38.22" y1="-10.9999" x2="43.05" y2="-10.9999" gradientUnits="userSpaceOnUse">
<stop stop-color="#FEC770"/>
<stop offset="1" stop-color="#DD1F26"/>
</linearGradient>
<linearGradient id="paint4_linear_1640_6163" x1="43.05" y1="-11" x2="47.09" y2="-11" gradientUnits="userSpaceOnUse">
<stop stop-color="#FEC770"/>
<stop offset="1" stop-color="#DD1F26"/>
</linearGradient>
<linearGradient id="paint5_linear_1640_6163" x1="47.0901" y1="12.5301" x2="49.5001" y2="12.5301" gradientUnits="userSpaceOnUse">
<stop stop-color="#FEC770"/>
<stop offset="1" stop-color="#DD1F26"/>
</linearGradient>
</defs>
</svg>
