<svg width="32" height="32" viewBox="0 0 32 32" fill="none" xmlns="http://www.w3.org/2000/svg">
<circle cx="16" cy="16" r="16" fill="url(#paint0_linear_427_881)"/>
<g clip-path="url(#clip0_427_881)">
<path d="M6.18946 18.8463C7.4442 18.8463 8.62315 18.8463 9.79367 18.8463C10.4505 18.8463 10.8042 19.1326 10.8716 19.6884C10.8946 19.8297 10.8846 19.9743 10.8423 20.1111C10.8001 20.2478 10.7267 20.3729 10.628 20.4765C10.5293 20.5801 10.4079 20.6594 10.2734 20.7083C10.1388 20.7571 9.99481 20.7741 9.85262 20.7579C8.50525 20.7579 7.17472 20.7579 5.82736 20.7579C5.43999 20.7579 5.05262 20.7579 4.66525 20.7579C4.42825 20.7801 4.1899 20.7331 3.97913 20.6225C3.76836 20.5118 3.59423 20.3424 3.47788 20.1347C3.38032 19.9107 3.35224 19.6625 3.39728 19.4223C3.44232 19.1821 3.5584 18.9609 3.73051 18.7874C5.00209 17.1537 6.29051 15.52 7.57893 13.8947L7.8063 13.6C7.72209 13.4737 7.57893 13.5326 7.50315 13.5242H4.80841C4.6079 13.5279 4.40755 13.511 4.21051 13.4737C3.98717 13.4737 3.77298 13.385 3.61506 13.2271C3.45713 13.0691 3.36841 12.8549 3.36841 12.6316C3.36841 12.4083 3.45713 12.1941 3.61506 12.0361C3.77298 11.8782 3.98717 11.7895 4.21051 11.7895C4.39909 11.7298 4.59418 11.693 4.79157 11.68C6.26525 11.68 7.75578 11.68 9.22946 11.68C9.49444 11.6784 9.75824 11.7153 10.0126 11.7895C10.14 11.8237 10.2583 11.8855 10.3591 11.9704C10.46 12.0553 10.541 12.1614 10.5964 12.281C10.6519 12.4007 10.6803 12.5311 10.6798 12.6629C10.6794 12.7948 10.65 12.925 10.5937 13.0442C10.3746 13.5039 10.0942 13.9316 9.75999 14.3158C8.67367 15.7053 7.57893 17.0779 6.50104 18.4505L6.18946 18.8463Z" fill="white"/>
<path d="M15.8232 14.4842C15.988 14.2074 16.2536 14.0052 16.5643 13.92C16.7124 13.8807 16.8676 13.8752 17.0181 13.9042C17.1687 13.9331 17.3107 13.9956 17.4338 14.0871C17.5568 14.1785 17.6576 14.2966 17.7287 14.4324C17.7997 14.5682 17.8393 14.7184 17.8443 14.8716C17.8443 16.5558 17.8443 18.1979 17.8443 19.8569C17.8444 20.0661 17.7774 20.2698 17.6531 20.4381C17.5288 20.6064 17.3537 20.7303 17.1537 20.7916C16.9524 20.8682 16.7319 20.8784 16.5244 20.8208C16.3169 20.7633 16.1331 20.6409 16 20.4716C15.8653 20.2947 15.8064 20.2611 15.6043 20.4211C15.2589 20.71 14.8426 20.9014 14.3984 20.9755C13.9542 21.0495 13.4983 21.0035 13.0779 20.8421C12.4318 20.6328 11.8667 20.2278 11.4608 19.6831C11.055 19.1385 10.8285 18.4812 10.8127 17.8021C10.688 17.0999 10.7828 16.3762 11.0842 15.7298C11.3856 15.0834 11.8789 14.5455 12.4969 14.1895C12.9999 13.8507 13.604 13.6951 14.2081 13.7487C14.8121 13.8024 15.3794 14.0621 15.8148 14.4842H15.8232ZM12.8843 17.5158C12.8972 17.8793 13.0173 18.2309 13.2295 18.5263C13.3381 18.6711 13.4742 18.793 13.6301 18.8849C13.7859 18.9769 13.9584 19.0371 14.1377 19.0622C14.3169 19.0872 14.4993 19.0766 14.6744 19.0309C14.8495 18.9852 15.0138 18.9053 15.1579 18.7958C15.2554 18.7194 15.3406 18.6285 15.4106 18.5263C15.6408 18.1872 15.7639 17.7868 15.7639 17.3769C15.7639 16.967 15.6408 16.5665 15.4106 16.2274C15.2982 16.0698 15.1506 15.9406 14.9796 15.85C14.8086 15.7594 14.6188 15.7098 14.4253 15.7053C13.5158 15.6379 12.8758 16.3453 12.8843 17.5158ZM21.5748 17.5663C21.5282 17.0904 21.5787 16.6099 21.7231 16.154C21.8675 15.6981 22.1029 15.2762 22.415 14.9139C22.7271 14.5515 23.1094 14.2562 23.5388 14.0458C23.9683 13.8355 24.436 13.7143 24.9136 13.6898C25.3912 13.6653 25.8688 13.7379 26.3175 13.9033C26.7663 14.0686 27.1768 14.3232 27.5244 14.6517C27.8719 14.9802 28.1492 15.3758 28.3395 15.8145C28.5298 16.2532 28.6292 16.726 28.6316 17.2042C28.6766 17.665 28.6287 18.1301 28.4908 18.5721C28.3528 19.014 28.1276 19.4238 27.8284 19.7771C27.5293 20.1305 27.1622 20.4202 26.7491 20.6292C26.336 20.8381 25.8851 20.9621 25.4232 20.9937C24.9373 21.0638 24.442 21.0269 23.9719 20.8856C23.5018 20.7442 23.0683 20.5018 22.7017 20.1753C22.3351 19.8488 22.0442 19.4461 21.8496 18.9955C21.6549 18.5448 21.5612 18.057 21.5748 17.5663ZM23.6548 17.3642C23.6384 17.7817 23.7663 18.192 24.0169 18.5263C24.1244 18.669 24.2592 18.7889 24.4135 18.8789C24.5678 18.969 24.7385 19.0275 24.9156 19.051C25.0927 19.0745 25.2727 19.0626 25.4451 19.0159C25.6176 18.9692 25.779 18.8886 25.92 18.779C26.0104 18.7039 26.0923 18.6192 26.1643 18.5263C26.3967 18.1833 26.5209 17.7785 26.5209 17.3642C26.5209 16.9499 26.3967 16.5451 26.1643 16.2021C26.0509 16.0455 25.9032 15.917 25.7323 15.8265C25.5615 15.7359 25.3722 15.6858 25.179 15.68C24.9626 15.6718 24.7471 15.7111 24.5475 15.7952C24.348 15.8792 24.1693 16.006 24.024 16.1665C23.8787 16.3271 23.7703 16.5175 23.7066 16.7244C23.6428 16.9314 23.6251 17.1497 23.6548 17.3642ZM20.8421 15.9074C20.8421 17.1958 20.8421 18.4842 20.8421 19.7726C20.8467 20.0557 20.7397 20.3291 20.5444 20.534C20.349 20.7388 20.0809 20.8586 19.7979 20.8674C19.6944 20.8798 19.5898 20.8798 19.4864 20.8674C19.2663 20.7912 19.0769 20.6459 18.9463 20.4531C18.8158 20.2603 18.7512 20.0305 18.7621 19.7979V13.1621C18.7621 12.7747 18.7621 12.3958 18.7621 12C18.7491 11.8556 18.7664 11.71 18.8127 11.5726C18.8591 11.4352 18.9335 11.3089 19.0314 11.2019C19.1292 11.0948 19.2483 11.0093 19.381 10.9508C19.5137 10.8923 19.6571 10.8621 19.8021 10.8621C19.9472 10.8621 20.0906 10.8923 20.2233 10.9508C20.356 11.0093 20.4751 11.0948 20.5729 11.2019C20.6708 11.3089 20.7452 11.4352 20.7916 11.5726C20.8379 11.71 20.8552 11.8556 20.8421 12C20.8506 13.3137 20.8421 14.619 20.8421 15.9074Z" fill="white"/>
</g>
<defs>
<linearGradient id="paint0_linear_427_881" x1="16" y1="0" x2="16" y2="32" gradientUnits="userSpaceOnUse">
<stop stop-color="#EA6544"/>
<stop offset="1" stop-color="#D12A1E"/>
</linearGradient>
<clipPath id="clip0_427_881">
<rect width="25.2632" height="10.0632" fill="white" transform="translate(3.36841 10.9474)"/>
</clipPath>
</defs>
</svg>
