<svg width="30" height="31" viewBox="0 0 30 31" fill="none" xmlns="http://www.w3.org/2000/svg">
<ellipse cx="15.0859" cy="15.75" rx="14.5429" ry="15" fill="#FFC76F"/>
<path d="M15.0859 0.75C7.05483 0.75 0.542969 7.46652 0.542969 15.75C0.542969 24.0335 7.05483 30.75 15.0859 30.75C23.117 30.75 29.6288 24.0335 29.6288 15.75C29.6288 7.46652 23.117 0.75 15.0859 0.75ZM15.0859 28.2054C8.41823 28.2054 3.01007 22.6272 3.01007 15.75C3.01007 8.87277 8.41823 3.29464 15.0859 3.29464C21.7536 3.29464 27.1617 8.87277 27.1617 15.75C27.1617 22.6272 21.7536 28.2054 15.0859 28.2054Z" fill="#985801"/>
<path d="M18.0852 9.11272C17.1114 8.23214 15.8259 7.75 14.4625 7.75C13.0991 7.75 11.8136 8.23549 10.8397 9.11272C9.8269 10.0268 9.26855 11.2556 9.26855 12.5714V12.8259C9.26855 12.9732 9.38542 13.0938 9.52825 13.0938H11.0864C11.2293 13.0938 11.3461 12.9732 11.3461 12.8259V12.5714C11.3461 11.0949 12.7452 9.89286 14.4625 9.89286C16.1797 9.89286 17.5788 11.0949 17.5788 12.5714C17.5788 13.6127 16.8646 14.567 15.7577 15.0056C15.0695 15.2768 14.4852 15.7522 14.0664 16.375C13.6412 17.0112 13.4204 17.7746 13.4204 18.548V19.2679C13.4204 19.4152 13.5373 19.5357 13.6801 19.5357H15.2383C15.3811 19.5357 15.498 19.4152 15.498 19.2679V18.5078C15.4997 18.1828 15.5963 17.8658 15.7752 17.5982C15.9541 17.3307 16.2071 17.1249 16.5011 17.0078C18.4163 16.2478 19.6531 14.5067 19.6531 12.5714C19.6564 11.2556 19.098 10.0268 18.0852 9.11272ZM13.164 23.0179C13.164 23.3731 13.3008 23.7137 13.5443 23.9649C13.7878 24.216 14.1181 24.3571 14.4625 24.3571C14.8068 24.3571 15.1371 24.216 15.3806 23.9649C15.6241 23.7137 15.7609 23.3731 15.7609 23.0179C15.7609 22.6627 15.6241 22.322 15.3806 22.0708C15.1371 21.8197 14.8068 21.6786 14.4625 21.6786C14.1181 21.6786 13.7878 21.8197 13.5443 22.0708C13.3008 22.322 13.164 22.6627 13.164 23.0179Z" fill="url(#paint0_linear_160_3151)"/>
<defs>
<linearGradient id="paint0_linear_160_3151" x1="14.4608" y1="7.75" x2="14.4608" y2="24.3571" gradientUnits="userSpaceOnUse">
<stop stop-color="#E1590A"/>
<stop offset="1" stop-color="#C23102"/>
</linearGradient>
</defs>
</svg>
