<svg width="19" height="19" viewBox="0 0 19 19" fill="none" xmlns="http://www.w3.org/2000/svg">
<path d="M6.96819 2.24219C6.66196 2.24219 6.35873 2.3025 6.0758 2.4197C5.79288 2.53689 5.53581 2.70865 5.31927 2.92519C5.10273 3.14173 4.93096 3.3988 4.81377 3.68173C4.69658 3.96465 4.63626 4.26788 4.63626 4.57412C4.63626 4.88035 4.69658 5.18359 4.81377 5.46651C4.93096 5.74943 5.10273 6.0065 5.31927 6.22304C5.53581 6.43958 5.79288 6.61135 6.0758 6.72854C6.35873 6.84573 6.66196 6.90605 6.96819 6.90605C7.58666 6.90605 8.1798 6.66036 8.61712 6.22304C9.05444 5.78572 9.30012 5.19258 9.30012 4.57412C9.30012 3.95565 9.05444 3.36252 8.61712 2.92519C8.1798 2.48787 7.58666 2.24219 6.96819 2.24219ZM12.2203 3.40699C11.756 3.40699 11.3107 3.59143 10.9824 3.91975C10.654 4.24807 10.4696 4.69337 10.4696 5.15768C10.4696 5.622 10.654 6.0673 10.9824 6.39561C11.3107 6.72393 11.756 6.90838 12.2203 6.90838C12.6846 6.90838 13.1299 6.72393 13.4582 6.39561C13.7865 6.0673 13.971 5.622 13.971 5.15768C13.971 4.69337 13.7865 4.24807 13.4582 3.91975C13.1299 3.59143 12.6846 3.40699 12.2203 3.40699ZM3.4668 9.23448C3.46895 8.92635 3.59287 8.63158 3.81152 8.41447C4.03016 8.19735 4.3258 8.07551 4.63393 8.07551H9.30246C9.612 8.07551 9.90886 8.19848 10.1277 8.41736C10.3466 8.63624 10.4696 8.9331 10.4696 9.24265V12.744C10.4695 13.1114 10.412 13.4764 10.2992 13.826C10.0408 14.6181 9.50839 15.2922 8.79769 15.7271C8.08699 16.1621 7.24452 16.3294 6.42154 16.1991C5.59857 16.0688 4.84901 15.6493 4.30746 15.0161C3.76591 14.3828 3.46785 13.5773 3.4668 12.744V9.23448ZM11.6367 9.24265V12.744C11.6367 13.5085 11.4535 14.2298 11.1279 14.8671C11.5708 15.0459 12.0509 15.1133 12.526 15.0632C13.0011 15.0132 13.4566 14.8472 13.8526 14.58C14.2486 14.3127 14.5729 13.9524 14.797 13.5305C15.0211 13.1086 15.1383 12.6382 15.1381 12.1605V9.24265C15.1381 8.9331 15.0152 8.63624 14.7963 8.41736C14.5774 8.19848 14.2805 8.07551 13.971 8.07551H11.3239C11.5223 8.41865 11.6367 8.81664 11.6367 9.24265Z" fill="#727272"/>
</svg>
