<svg width="16" height="16" viewBox="0 0 16 16" fill="none" xmlns="http://www.w3.org/2000/svg">
<mask id="mask0_32097_16597" style="mask-type:alpha" maskUnits="userSpaceOnUse" x="0" y="0" width="16" height="16">
<rect x="16" width="16" height="16" transform="rotate(90 16 0)" fill="#C4C4C4"/>
</mask>
<g mask="url(#mask0_32097_16597)">
<path d="M10.3115 14.0086C10.1365 14.011 9.96586 13.9566 9.82712 13.8541L2.29402 8.17119C2.20363 8.10293 2.13031 8.01603 2.07944 7.91689C2.02856 7.81774 2.00144 7.70887 2.00005 7.59827C1.99866 7.48766 2.02305 7.37814 2.07142 7.27775C2.11978 7.17736 2.1909 7.08865 2.27955 7.01814L9.63636 1.17893C9.71445 1.1171 9.80442 1.07066 9.90112 1.04227C9.99783 1.01387 10.0994 1.00408 10.2 1.01344C10.4032 1.03235 10.5901 1.12816 10.7198 1.27978C10.8494 1.4314 10.9111 1.62642 10.8912 1.82193C10.8714 2.01745 10.7716 2.19744 10.6139 2.32231L3.99589 7.57403L10.7773 12.6865C10.9027 12.7809 10.9944 12.9104 11.0398 13.0572C11.0853 13.204 11.0823 13.3608 11.0311 13.5059C10.98 13.6511 10.8833 13.7774 10.7544 13.8675C10.6255 13.9575 10.4707 14.0068 10.3115 14.0086Z" fill="#727272" stroke="#727272" stroke-width="0.2"/>
</g>
</svg>
