<svg width="38" height="38" viewBox="0 0 38 38" fill="none" xmlns="http://www.w3.org/2000/svg">
<path d="M37.593 8.59581C37.5916 8.54177 37.5903 8.48738 37.5889 8.43334C37.5865 8.38032 37.5851 8.32764 37.5827 8.27462C37.5827 8.27462 37.5838 8.27086 37.5827 8.26812C37.5762 8.16106 37.5697 8.05537 37.5608 7.95104C37.5479 7.79096 37.5297 7.63259 37.5078 7.47524C37.5013 7.42222 37.4935 7.36955 37.4846 7.3179C37.4757 7.26625 37.4678 7.21357 37.4589 7.16192C37.4422 7.05725 37.4213 6.95429 37.3994 6.85236C37.3776 6.74906 37.3543 6.64747 37.3287 6.54554C37.3157 6.49526 37.303 6.44498 37.29 6.39469C37.277 6.34168 37.2616 6.289 37.2462 6.23735C37.2462 6.23222 37.2449 6.22709 37.2435 6.22196C37.0117 5.40411 36.3117 3.45201 34.8276 2.04788C34.8214 2.04138 34.8163 2.03488 34.807 2.02838C34.7763 1.99623 34.7451 1.9651 34.713 1.93431C34.6241 1.84777 34.5301 1.76534 34.4333 1.6853C34.3946 1.65315 34.3546 1.62099 34.3146 1.59123C34.3044 1.58234 34.2941 1.57311 34.2825 1.56421C34.2449 1.53582 34.2062 1.50743 34.1676 1.47904C34.1252 1.44826 34.0814 1.41713 34.0376 1.38634C33.9976 1.35898 33.9576 1.33196 33.9176 1.3063C33.892 1.28954 33.866 1.27141 33.839 1.25602C33.7873 1.22113 33.7347 1.18898 33.6803 1.15785C33.6454 1.13733 33.6119 1.11783 33.5774 1.09868C33.5243 1.06755 33.4717 1.0395 33.4173 1.00974C33.38 0.988877 33.3414 0.969722 33.3028 0.950225C33.2614 0.929702 33.22 0.907811 33.1776 0.888314C33.0012 0.802116 32.8192 0.723444 32.6322 0.649902C32.5884 0.631773 32.5433 0.615013 32.4981 0.598252C32.4646 0.585596 32.4301 0.573966 32.3962 0.562336C32.3538 0.546602 32.3124 0.531209 32.2687 0.517185C32.15 0.477165 32.0303 0.438513 31.9079 0.402255C31.8358 0.381732 31.7622 0.361209 31.6873 0.341712C31.6217 0.324951 31.556 0.30819 31.489 0.29143C31.4216 0.276037 31.3546 0.260645 31.2876 0.24491C31.1525 0.215494 31.0157 0.18813 30.8779 0.163844C30.7398 0.140584 30.6006 0.118693 30.4614 0.0991956C30.3222 0.0814088 30.1817 0.0643061 30.0398 0.0502819C29.9676 0.0437829 29.8955 0.0372839 29.8233 0.0321531C29.7525 0.0270222 29.68 0.0218914 29.6079 0.0181288C29.5357 0.0140242 29.4649 0.0102616 29.3914 0.00786724C29.2522 0.00273643 29.1131 0 28.9739 0H28.9428C28.7831 0 28.623 0.00513081 28.4633 0.0116298C28.4247 0.012998 28.3857 0.0153924 28.3471 0.0167606C28.186 0.025654 28.0236 0.0362577 27.8612 0.0516501C27.8379 0.0540445 27.8146 0.0567809 27.7917 0.0591753C27.6382 0.0749098 27.4847 0.0926966 27.3315 0.11493C27.3068 0.117324 27.2822 0.120061 27.2593 0.123823C27.0955 0.148451 26.9317 0.175474 26.7693 0.206258C26.7371 0.212757 26.7036 0.219256 26.6701 0.225755C26.5063 0.259277 26.3411 0.294166 26.1787 0.333844C26.1787 0.333844 26.1749 0.335213 26.1726 0.335213C26.0823 0.357104 25.9934 0.384126 25.9045 0.408754C25.6285 0.483664 25.3553 0.567467 25.0882 0.6629C24.9182 0.724812 24.7493 0.790486 24.5828 0.859923H24.5818C24.3868 0.941332 24.196 1.03027 24.0079 1.1257H24.0066C23.8199 1.21976 23.6366 1.32033 23.4574 1.42739C23.4123 1.45339 23.3671 1.48041 23.322 1.5088C22.8798 1.7821 22.466 2.09405 22.0909 2.44603H22.0896C22.015 2.51717 21.9415 2.58935 21.8693 2.66152C21.329 3.20949 20.8794 3.84537 20.5504 4.57121C20.3544 4.13406 20.1031 3.74344 19.8053 3.39523C18.0069 1.28681 14.5353 0.777488 11.3975 1.5153C9.60425 1.93431 7.92078 2.76072 6.7205 3.9278C6.53482 4.10841 6.35973 4.2979 6.19867 4.49527C5.98324 4.71829 5.78216 4.94644 5.59272 5.18109C5.57323 5.20572 5.55408 5.22898 5.53458 5.25326V5.25463C5.43029 5.38358 5.33078 5.51527 5.23674 5.64662C5.18784 5.71367 5.14133 5.78071 5.09619 5.84775C4.95838 6.04888 4.82946 6.25274 4.70943 6.459C1.99085 11.14 3.58815 17.3476 8.68643 22.4346C8.76782 22.5171 8.8516 22.5985 8.93538 22.6795C10.6937 24.3843 12.8491 25.9561 15.3721 27.2949L16.8388 28.0234C17.1592 27.9297 19.2845 27.3109 20.2902 26.8601C24.5069 25.1851 27.9282 23.1553 30.5801 20.9621C30.8109 20.7712 31.0352 20.5803 31.2541 20.3867C31.6925 19.9999 32.1076 19.6093 32.4995 19.2149C32.7936 18.9193 33.0743 18.6228 33.3414 18.3238C33.5206 18.1251 33.6946 17.924 33.8622 17.7228C34.1122 17.4225 34.3509 17.1205 34.5752 16.8188C34.6511 16.7169 34.7246 16.6163 34.7968 16.5147C34.9411 16.3122 35.0803 16.1111 35.2133 15.9086C35.5457 15.4017 35.8435 14.8937 36.1065 14.3858C36.2122 14.1833 36.3103 13.9821 36.4043 13.7796C36.6389 13.2741 36.8386 12.7699 37.0024 12.2695C37.4189 11.0111 37.6135 9.77692 37.593 8.59581Z" fill="url(#paint0_linear_3892_191)"/>
<path d="M18.6131 25.4249C8.5873 20.0397 3.76282 12.1139 6.52711 5.68317C7.39928 3.71745 10.0597 2.93418 11.8073 2.76999C11.864 2.76507 11.9197 2.76015 11.9754 2.75655C14.8619 2.5491 18.1141 3.43364 19.3604 6.57787C19.784 7.6479 19.7359 8.12343 19.7359 8.12343L22.2197 7.16352C23.104 0.880957 32.1046 -0.338522 35.0369 3.62372C36.0487 5.18895 36.4291 6.60015 36.529 7.76392C37.0798 14.1602 29.8655 21.2391 18.6131 25.4249Z" fill="white"/>
<mask id="path-3-outside-1_3892_191" maskUnits="userSpaceOnUse" x="0.0234375" y="15.9092" width="27" height="22" fill="black">
<rect fill="white" x="0.0234375" y="15.9092" width="27" height="22"/>
<path d="M22.6812 16.9092C22.2739 16.9092 21.8758 17.03 21.5372 17.2562C21.1985 17.4825 20.9346 17.8041 20.7787 18.1804C20.6228 18.5567 20.5821 18.9708 20.6615 19.3702C20.741 19.7697 20.9371 20.1366 21.2251 20.4246C21.5131 20.7126 21.88 20.9088 22.2795 20.9882C22.679 21.0677 23.093 21.0269 23.4693 20.871C23.8456 20.7152 24.1672 20.4512 24.3935 20.1126C24.6198 19.7739 24.7405 19.3758 24.7405 18.9685C24.7399 18.4225 24.5227 17.8991 24.1367 17.5131C23.7506 17.127 23.2272 16.9098 22.6812 16.9092ZM16.676 30.5936L16.6535 30.5336C16.5164 30.1696 16.3063 29.8375 16.036 29.5578C15.7658 29.2781 15.4411 29.0567 15.0821 28.9072L13.8685 28.4067C13.8509 28.3996 13.835 28.3886 13.8222 28.3745C13.8093 28.3604 13.7998 28.3436 13.7943 28.3254C13.7888 28.3072 13.7874 28.2879 13.7903 28.2691C13.7932 28.2503 13.8003 28.2323 13.811 28.2166L16.083 24.7786C16.441 24.2343 16.6163 23.5901 16.5834 22.9394C16.5846 22.9206 16.5897 22.9022 16.5983 22.8855C16.6069 22.8687 16.6189 22.8538 16.6335 22.8419C16.6645 22.8169 16.7038 22.8044 16.7436 22.8068C16.8061 22.8068 16.8687 22.8068 16.9337 22.8068C17.6176 22.8057 18.2798 22.5667 18.8067 22.1307C19.3335 21.6946 19.6923 21.0889 19.8212 20.4172C19.8249 20.3981 19.8328 20.38 19.8445 20.3644C19.8563 20.3487 19.8714 20.336 19.8888 20.3272C19.9063 20.3186 19.9256 20.3141 19.9451 20.3141C19.9646 20.3141 19.9839 20.3186 20.0014 20.3272C20.0931 20.3702 20.1817 20.4195 20.2666 20.4748C20.7318 20.7832 21.0648 21.2545 21.1999 21.7959C21.2096 21.8145 21.218 21.8338 21.225 21.8535L22.2258 24.8561L24.7556 23.8552C24.9937 23.7893 25.2479 23.8138 25.4691 23.9241C25.6903 24.0344 25.8629 24.2226 25.9536 24.4525C26.0443 24.6824 26.0467 24.9377 25.9604 25.1693C25.8742 25.4009 25.7052 25.5924 25.4862 25.7069L21.9831 27.0906C21.858 27.1409 21.7241 27.1653 21.5893 27.1626C21.4545 27.1598 21.3217 27.1298 21.1987 27.0744C21.0758 27.019 20.9654 26.9394 20.874 26.8403C20.7826 26.7411 20.7122 26.6246 20.667 26.4976L20.104 24.7911L17.7219 28.3917L20.3167 29.4576C20.5633 29.5606 20.7862 29.7129 20.9717 29.9053C21.1571 30.0976 21.3013 30.3259 21.3951 30.5761L23.019 34.9074C23.1013 35.0644 23.1493 35.2372 23.1598 35.4142C23.1703 35.5912 23.1431 35.7683 23.0799 35.934C23.0167 36.0997 22.9191 36.25 22.7934 36.3751C22.6677 36.5001 22.5169 36.5971 22.3509 36.6594C22.1849 36.7218 22.0076 36.7481 21.8307 36.7367C21.6537 36.7254 21.4812 36.6765 21.3246 36.5934C21.168 36.5103 21.0308 36.3949 20.9222 36.2548C20.8136 36.1147 20.7359 35.9531 20.6945 35.7807L19.1532 31.6671L16.7461 30.6662C16.7296 30.6598 16.7146 30.65 16.7022 30.6375C16.6897 30.625 16.6799 30.6101 16.6735 30.5936H16.676ZM2.6037 29.9005L5.94912 30.3184L7.73318 27.9513L10.7783 23.3523C9.42434 23.5569 8.04614 23.5409 6.69728 23.3048L6.09675 23.1997C5.96942 23.1777 5.84768 23.1308 5.73846 23.0617C5.62925 22.9926 5.53471 22.9027 5.46025 22.7971C5.38578 22.6915 5.33284 22.5723 5.30445 22.4462C5.27606 22.3202 5.27279 22.1898 5.2948 22.0624C5.31682 21.9351 5.3637 21.8134 5.43276 21.7041C5.50183 21.5949 5.59173 21.5004 5.69733 21.4259C5.80294 21.3515 5.92217 21.2985 6.04823 21.2701C6.1743 21.2417 6.30471 21.2385 6.43204 21.2605L6.87993 21.3406C8.3216 21.5965 9.79708 21.5965 11.2387 21.3406L13.0453 20.9927H13.1679L13.278 20.9727H13.3181C13.7942 20.9316 14.2703 21.0524 14.6692 21.3155C15.1362 21.6256 15.4611 22.1082 15.5728 22.6574C15.6844 23.2067 15.5736 23.7779 15.2648 24.2456L12.2471 28.7971L14.7043 29.8155C14.9388 29.9133 15.1508 30.0581 15.3272 30.241C15.5037 30.4239 15.6408 30.641 15.7302 30.8789L17.269 34.985C17.3316 35.1323 17.3638 35.2908 17.3635 35.4509C17.3632 35.6111 17.3305 35.7695 17.2673 35.9166C17.2042 36.0637 17.1119 36.1965 16.996 36.307C16.8802 36.4175 16.7431 36.5035 16.5932 36.5596C16.4432 36.6157 16.2835 36.6409 16.1235 36.6336C15.9636 36.6263 15.8068 36.5868 15.6625 36.5172C15.5183 36.4477 15.3896 36.3497 15.2843 36.2292C15.1789 36.1086 15.0991 35.968 15.0496 35.8157L13.5883 31.9198L9.10938 30.0632L7.66062 31.9874C7.4613 32.249 7.19648 32.4534 6.8929 32.5799C6.58932 32.7064 6.25773 32.7506 5.93161 32.708L2.28842 32.2526C2.13428 32.2319 1.98572 32.1811 1.85123 32.1031C1.71674 32.025 1.59896 31.9212 1.50461 31.7975C1.41027 31.6739 1.34121 31.5329 1.30139 31.3826C1.26157 31.2322 1.25176 31.0755 1.27254 30.9214C1.31551 30.6104 1.47934 30.3288 1.72851 30.1377C1.97769 29.9466 2.29213 29.8614 2.6037 29.9005ZM16.9412 21.8335C16.5537 21.8335 16.1749 21.7186 15.8527 21.5033C15.5306 21.288 15.2794 20.982 15.1311 20.624C14.9829 20.266 14.9441 19.8721 15.0197 19.492C15.0953 19.112 15.2819 18.7629 15.5559 18.4889C15.8299 18.2149 16.179 18.0283 16.559 17.9527C16.9391 17.8771 17.333 17.9159 17.691 18.0642C18.049 18.2125 18.355 18.4636 18.5703 18.7858C18.7855 19.108 18.9004 19.4868 18.9004 19.8743C18.8998 20.3937 18.6931 20.8916 18.3259 21.2589C17.9586 21.6262 17.4606 21.8328 16.9412 21.8335Z"/>
</mask>
<path d="M22.6812 16.9092C22.2739 16.9092 21.8758 17.03 21.5372 17.2562C21.1985 17.4825 20.9346 17.8041 20.7787 18.1804C20.6228 18.5567 20.5821 18.9708 20.6615 19.3702C20.741 19.7697 20.9371 20.1366 21.2251 20.4246C21.5131 20.7126 21.88 20.9088 22.2795 20.9882C22.679 21.0677 23.093 21.0269 23.4693 20.871C23.8456 20.7152 24.1672 20.4512 24.3935 20.1126C24.6198 19.7739 24.7405 19.3758 24.7405 18.9685C24.7399 18.4225 24.5227 17.8991 24.1367 17.5131C23.7506 17.127 23.2272 16.9098 22.6812 16.9092ZM16.676 30.5936L16.6535 30.5336C16.5164 30.1696 16.3063 29.8375 16.036 29.5578C15.7658 29.2781 15.4411 29.0567 15.0821 28.9072L13.8685 28.4067C13.8509 28.3996 13.835 28.3886 13.8222 28.3745C13.8093 28.3604 13.7998 28.3436 13.7943 28.3254C13.7888 28.3072 13.7874 28.2879 13.7903 28.2691C13.7932 28.2503 13.8003 28.2323 13.811 28.2166L16.083 24.7786C16.441 24.2343 16.6163 23.5901 16.5834 22.9394C16.5846 22.9206 16.5897 22.9022 16.5983 22.8855C16.6069 22.8687 16.6189 22.8538 16.6335 22.8419C16.6645 22.8169 16.7038 22.8044 16.7436 22.8068C16.8061 22.8068 16.8687 22.8068 16.9337 22.8068C17.6176 22.8057 18.2798 22.5667 18.8067 22.1307C19.3335 21.6946 19.6923 21.0889 19.8212 20.4172C19.8249 20.3981 19.8328 20.38 19.8445 20.3644C19.8563 20.3487 19.8714 20.336 19.8888 20.3272C19.9063 20.3186 19.9256 20.3141 19.9451 20.3141C19.9646 20.3141 19.9839 20.3186 20.0014 20.3272C20.0931 20.3702 20.1817 20.4195 20.2666 20.4748C20.7318 20.7832 21.0648 21.2545 21.1999 21.7959C21.2096 21.8145 21.218 21.8338 21.225 21.8535L22.2258 24.8561L24.7556 23.8552C24.9937 23.7893 25.2479 23.8138 25.4691 23.9241C25.6903 24.0344 25.8629 24.2226 25.9536 24.4525C26.0443 24.6824 26.0467 24.9377 25.9604 25.1693C25.8742 25.4009 25.7052 25.5924 25.4862 25.7069L21.9831 27.0906C21.858 27.1409 21.7241 27.1653 21.5893 27.1626C21.4545 27.1598 21.3217 27.1298 21.1987 27.0744C21.0758 27.019 20.9654 26.9394 20.874 26.8403C20.7826 26.7411 20.7122 26.6246 20.667 26.4976L20.104 24.7911L17.7219 28.3917L20.3167 29.4576C20.5633 29.5606 20.7862 29.7129 20.9717 29.9053C21.1571 30.0976 21.3013 30.3259 21.3951 30.5761L23.019 34.9074C23.1013 35.0644 23.1493 35.2372 23.1598 35.4142C23.1703 35.5912 23.1431 35.7683 23.0799 35.934C23.0167 36.0997 22.9191 36.25 22.7934 36.3751C22.6677 36.5001 22.5169 36.5971 22.3509 36.6594C22.1849 36.7218 22.0076 36.7481 21.8307 36.7367C21.6537 36.7254 21.4812 36.6765 21.3246 36.5934C21.168 36.5103 21.0308 36.3949 20.9222 36.2548C20.8136 36.1147 20.7359 35.9531 20.6945 35.7807L19.1532 31.6671L16.7461 30.6662C16.7296 30.6598 16.7146 30.65 16.7022 30.6375C16.6897 30.625 16.6799 30.6101 16.6735 30.5936H16.676ZM2.6037 29.9005L5.94912 30.3184L7.73318 27.9513L10.7783 23.3523C9.42434 23.5569 8.04614 23.5409 6.69728 23.3048L6.09675 23.1997C5.96942 23.1777 5.84768 23.1308 5.73846 23.0617C5.62925 22.9926 5.53471 22.9027 5.46025 22.7971C5.38578 22.6915 5.33284 22.5723 5.30445 22.4462C5.27606 22.3202 5.27279 22.1898 5.2948 22.0624C5.31682 21.9351 5.3637 21.8134 5.43276 21.7041C5.50183 21.5949 5.59173 21.5004 5.69733 21.4259C5.80294 21.3515 5.92217 21.2985 6.04823 21.2701C6.1743 21.2417 6.30471 21.2385 6.43204 21.2605L6.87993 21.3406C8.3216 21.5965 9.79708 21.5965 11.2387 21.3406L13.0453 20.9927H13.1679L13.278 20.9727H13.3181C13.7942 20.9316 14.2703 21.0524 14.6692 21.3155C15.1362 21.6256 15.4611 22.1082 15.5728 22.6574C15.6844 23.2067 15.5736 23.7779 15.2648 24.2456L12.2471 28.7971L14.7043 29.8155C14.9388 29.9133 15.1508 30.0581 15.3272 30.241C15.5037 30.4239 15.6408 30.641 15.7302 30.8789L17.269 34.985C17.3316 35.1323 17.3638 35.2908 17.3635 35.4509C17.3632 35.6111 17.3305 35.7695 17.2673 35.9166C17.2042 36.0637 17.1119 36.1965 16.996 36.307C16.8802 36.4175 16.7431 36.5035 16.5932 36.5596C16.4432 36.6157 16.2835 36.6409 16.1235 36.6336C15.9636 36.6263 15.8068 36.5868 15.6625 36.5172C15.5183 36.4477 15.3896 36.3497 15.2843 36.2292C15.1789 36.1086 15.0991 35.968 15.0496 35.8157L13.5883 31.9198L9.10938 30.0632L7.66062 31.9874C7.4613 32.249 7.19648 32.4534 6.8929 32.5799C6.58932 32.7064 6.25773 32.7506 5.93161 32.708L2.28842 32.2526C2.13428 32.2319 1.98572 32.1811 1.85123 32.1031C1.71674 32.025 1.59896 31.9212 1.50461 31.7975C1.41027 31.6739 1.34121 31.5329 1.30139 31.3826C1.26157 31.2322 1.25176 31.0755 1.27254 30.9214C1.31551 30.6104 1.47934 30.3288 1.72851 30.1377C1.97769 29.9466 2.29213 29.8614 2.6037 29.9005ZM16.9412 21.8335C16.5537 21.8335 16.1749 21.7186 15.8527 21.5033C15.5306 21.288 15.2794 20.982 15.1311 20.624C14.9829 20.266 14.9441 19.8721 15.0197 19.492C15.0953 19.112 15.2819 18.7629 15.5559 18.4889C15.8299 18.2149 16.179 18.0283 16.559 17.9527C16.9391 17.8771 17.333 17.9159 17.691 18.0642C18.049 18.2125 18.355 18.4636 18.5703 18.7858C18.7855 19.108 18.9004 19.4868 18.9004 19.8743C18.8998 20.3937 18.6931 20.8916 18.3259 21.2589C17.9586 21.6262 17.4606 21.8328 16.9412 21.8335Z" fill="#FFC76F"/>
<path d="M22.6812 16.9092C22.2739 16.9092 21.8758 17.03 21.5372 17.2562C21.1985 17.4825 20.9346 17.8041 20.7787 18.1804C20.6228 18.5567 20.5821 18.9708 20.6615 19.3702C20.741 19.7697 20.9371 20.1366 21.2251 20.4246C21.5131 20.7126 21.88 20.9088 22.2795 20.9882C22.679 21.0677 23.093 21.0269 23.4693 20.871C23.8456 20.7152 24.1672 20.4512 24.3935 20.1126C24.6198 19.7739 24.7405 19.3758 24.7405 18.9685C24.7399 18.4225 24.5227 17.8991 24.1367 17.5131C23.7506 17.127 23.2272 16.9098 22.6812 16.9092ZM16.676 30.5936L16.6535 30.5336C16.5164 30.1696 16.3063 29.8375 16.036 29.5578C15.7658 29.2781 15.4411 29.0567 15.0821 28.9072L13.8685 28.4067C13.8509 28.3996 13.835 28.3886 13.8222 28.3745C13.8093 28.3604 13.7998 28.3436 13.7943 28.3254C13.7888 28.3072 13.7874 28.2879 13.7903 28.2691C13.7932 28.2503 13.8003 28.2323 13.811 28.2166L16.083 24.7786C16.441 24.2343 16.6163 23.5901 16.5834 22.9394C16.5846 22.9206 16.5897 22.9022 16.5983 22.8855C16.6069 22.8687 16.6189 22.8538 16.6335 22.8419C16.6645 22.8169 16.7038 22.8044 16.7436 22.8068C16.8061 22.8068 16.8687 22.8068 16.9337 22.8068C17.6176 22.8057 18.2798 22.5667 18.8067 22.1307C19.3335 21.6946 19.6923 21.0889 19.8212 20.4172C19.8249 20.3981 19.8328 20.38 19.8445 20.3644C19.8563 20.3487 19.8714 20.336 19.8888 20.3272C19.9063 20.3186 19.9256 20.3141 19.9451 20.3141C19.9646 20.3141 19.9839 20.3186 20.0014 20.3272C20.0931 20.3702 20.1817 20.4195 20.2666 20.4748C20.7318 20.7832 21.0648 21.2545 21.1999 21.7959C21.2096 21.8145 21.218 21.8338 21.225 21.8535L22.2258 24.8561L24.7556 23.8552C24.9937 23.7893 25.2479 23.8138 25.4691 23.9241C25.6903 24.0344 25.8629 24.2226 25.9536 24.4525C26.0443 24.6824 26.0467 24.9377 25.9604 25.1693C25.8742 25.4009 25.7052 25.5924 25.4862 25.7069L21.9831 27.0906C21.858 27.1409 21.7241 27.1653 21.5893 27.1626C21.4545 27.1598 21.3217 27.1298 21.1987 27.0744C21.0758 27.019 20.9654 26.9394 20.874 26.8403C20.7826 26.7411 20.7122 26.6246 20.667 26.4976L20.104 24.7911L17.7219 28.3917L20.3167 29.4576C20.5633 29.5606 20.7862 29.7129 20.9717 29.9053C21.1571 30.0976 21.3013 30.3259 21.3951 30.5761L23.019 34.9074C23.1013 35.0644 23.1493 35.2372 23.1598 35.4142C23.1703 35.5912 23.1431 35.7683 23.0799 35.934C23.0167 36.0997 22.9191 36.25 22.7934 36.3751C22.6677 36.5001 22.5169 36.5971 22.3509 36.6594C22.1849 36.7218 22.0076 36.7481 21.8307 36.7367C21.6537 36.7254 21.4812 36.6765 21.3246 36.5934C21.168 36.5103 21.0308 36.3949 20.9222 36.2548C20.8136 36.1147 20.7359 35.9531 20.6945 35.7807L19.1532 31.6671L16.7461 30.6662C16.7296 30.6598 16.7146 30.65 16.7022 30.6375C16.6897 30.625 16.6799 30.6101 16.6735 30.5936H16.676ZM2.6037 29.9005L5.94912 30.3184L7.73318 27.9513L10.7783 23.3523C9.42434 23.5569 8.04614 23.5409 6.69728 23.3048L6.09675 23.1997C5.96942 23.1777 5.84768 23.1308 5.73846 23.0617C5.62925 22.9926 5.53471 22.9027 5.46025 22.7971C5.38578 22.6915 5.33284 22.5723 5.30445 22.4462C5.27606 22.3202 5.27279 22.1898 5.2948 22.0624C5.31682 21.9351 5.3637 21.8134 5.43276 21.7041C5.50183 21.5949 5.59173 21.5004 5.69733 21.4259C5.80294 21.3515 5.92217 21.2985 6.04823 21.2701C6.1743 21.2417 6.30471 21.2385 6.43204 21.2605L6.87993 21.3406C8.3216 21.5965 9.79708 21.5965 11.2387 21.3406L13.0453 20.9927H13.1679L13.278 20.9727H13.3181C13.7942 20.9316 14.2703 21.0524 14.6692 21.3155C15.1362 21.6256 15.4611 22.1082 15.5728 22.6574C15.6844 23.2067 15.5736 23.7779 15.2648 24.2456L12.2471 28.7971L14.7043 29.8155C14.9388 29.9133 15.1508 30.0581 15.3272 30.241C15.5037 30.4239 15.6408 30.641 15.7302 30.8789L17.269 34.985C17.3316 35.1323 17.3638 35.2908 17.3635 35.4509C17.3632 35.6111 17.3305 35.7695 17.2673 35.9166C17.2042 36.0637 17.1119 36.1965 16.996 36.307C16.8802 36.4175 16.7431 36.5035 16.5932 36.5596C16.4432 36.6157 16.2835 36.6409 16.1235 36.6336C15.9636 36.6263 15.8068 36.5868 15.6625 36.5172C15.5183 36.4477 15.3896 36.3497 15.2843 36.2292C15.1789 36.1086 15.0991 35.968 15.0496 35.8157L13.5883 31.9198L9.10938 30.0632L7.66062 31.9874C7.4613 32.249 7.19648 32.4534 6.8929 32.5799C6.58932 32.7064 6.25773 32.7506 5.93161 32.708L2.28842 32.2526C2.13428 32.2319 1.98572 32.1811 1.85123 32.1031C1.71674 32.025 1.59896 31.9212 1.50461 31.7975C1.41027 31.6739 1.34121 31.5329 1.30139 31.3826C1.26157 31.2322 1.25176 31.0755 1.27254 30.9214C1.31551 30.6104 1.47934 30.3288 1.72851 30.1377C1.97769 29.9466 2.29213 29.8614 2.6037 29.9005ZM16.9412 21.8335C16.5537 21.8335 16.1749 21.7186 15.8527 21.5033C15.5306 21.288 15.2794 20.982 15.1311 20.624C14.9829 20.266 14.9441 19.8721 15.0197 19.492C15.0953 19.112 15.2819 18.7629 15.5559 18.4889C15.8299 18.2149 16.179 18.0283 16.559 17.9527C16.9391 17.8771 17.333 17.9159 17.691 18.0642C18.049 18.2125 18.355 18.4636 18.5703 18.7858C18.7855 19.108 18.9004 19.4868 18.9004 19.8743C18.8998 20.3937 18.6931 20.8916 18.3259 21.2589C17.9586 21.6262 17.4606 21.8328 16.9412 21.8335Z" stroke="#985801" stroke-width="2" mask="url(#path-3-outside-1_3892_191)"/>
<path d="M6.51719 20.7658L6.51999 20.7663L6.96729 20.8463C6.9674 20.8463 6.96751 20.8463 6.96762 20.8463C8.35019 21.0917 9.76515 21.0919 11.1478 20.8469L12.9508 20.4998L12.9976 20.4908H13.0453H13.1228L13.1885 20.4788L13.2329 20.4708H13.278H13.2976C13.7587 20.4349 14.219 20.5218 14.6326 20.7198C14.477 20.2959 14.4409 19.8367 14.5292 19.3925C14.6241 18.9155 14.8583 18.4773 15.2023 18.1334C15.5462 17.7894 15.9844 17.5552 16.4614 17.4603C16.9385 17.3655 17.4329 17.4142 17.8823 17.6003C18.3316 17.7864 18.7157 18.1016 18.9859 18.506C19.2562 18.9104 19.4004 19.3859 19.4004 19.8723L19.4004 19.8729C19.3996 20.5247 19.1403 21.1496 18.6794 21.6105C18.2185 22.0714 17.5936 22.3307 16.9418 22.3315H16.9412C16.5916 22.3315 16.2477 22.257 15.9318 22.1148C15.9879 22.2568 16.0319 22.4043 16.0627 22.5559C16.2007 23.2349 16.0638 23.9409 15.6819 24.5192L15.6814 24.5199L12.9992 28.5656L14.8957 29.3516L14.8968 29.352C15.1943 29.4762 15.4632 29.6599 15.687 29.8919C15.9109 30.1239 16.0848 30.3993 16.1982 30.7011L16.1983 30.7014L17.7337 34.7983C17.8197 35.0047 17.8638 35.2262 17.8634 35.4499C17.863 35.6775 17.8165 35.9027 17.7267 36.1118C17.637 36.321 17.5058 36.5098 17.3411 36.6669L17.0022 36.3116L17.3411 36.6669C17.1764 36.824 16.9816 36.9461 16.7684 37.0259C16.5553 37.1057 16.3281 37.1415 16.1008 37.1311C15.8734 37.1208 15.6505 37.0645 15.4454 36.9657C15.2404 36.8669 15.0575 36.7276 14.9077 36.5562C14.7606 36.3878 14.6485 36.1919 14.5778 35.9799L13.1963 32.2966L9.27575 30.6714L8.06001 32.2861L8.06002 32.2861L8.05829 32.2884C7.80566 32.62 7.47 32.8791 7.08521 33.0394C6.70087 33.1996 6.2811 33.2557 5.86821 33.202C5.86773 33.2019 5.86725 33.2019 5.86677 33.2018L2.22636 32.7468L2.22203 32.7462C2.00278 32.7168 1.79146 32.6446 1.60015 32.5335C1.40883 32.4224 1.24129 32.2747 1.10709 32.0989C0.972889 31.923 0.874657 31.7225 0.818012 31.5086L1.30134 31.3806L0.81801 31.5086C0.761372 31.2948 0.747419 31.0719 0.776966 30.8527L0.777191 30.851C0.838167 30.4097 1.07063 30.0101 1.42418 29.7389C1.77775 29.4678 2.22392 29.3469 2.66601 29.4025L5.72394 29.7844L7.32466 27.6606L9.7732 23.9626C8.71757 24.034 7.65584 23.9782 6.61104 23.7953C6.61103 23.7953 6.61103 23.7953 6.61102 23.7953L6.01152 23.6904C6.0113 23.6904 6.01109 23.6903 6.01087 23.6903C5.81908 23.657 5.63569 23.5864 5.47117 23.4823C5.30646 23.3782 5.16388 23.2426 5.05158 23.0833C4.93927 22.9241 4.85943 22.7442 4.81662 22.5541C4.7738 22.364 4.76887 22.1673 4.80207 21.9753C4.83527 21.7832 4.90597 21.5996 5.01013 21.4349L5.43272 21.7022L5.01013 21.4349C5.11429 21.2702 5.24988 21.1276 5.40914 21.0153C5.5684 20.903 5.74823 20.8232 5.93834 20.7804C6.12846 20.7376 6.32516 20.7326 6.51719 20.7658Z" fill="#F8E0CA" stroke="#985801"/>
<defs>
<linearGradient id="paint0_linear_3892_191" x1="20.4964" y1="0" x2="20.4964" y2="28.0234" gradientUnits="userSpaceOnUse">
<stop stop-color="#E1590A"/>
<stop offset="1" stop-color="#C23102"/>
</linearGradient>
</defs>
</svg>
