<svg width="20" height="20" viewBox="0 0 20 20" fill="none" xmlns="http://www.w3.org/2000/svg">
<path d="M9.99998 0C4.47715 0 0 4.47715 0 9.99998C0 15.5228 4.47715 20 9.99998 20C15.5228 20 20 15.5228 20 9.99998C19.9941 4.47961 15.5204 0.00590122 9.99998 0ZM9.99998 18.5714C5.26611 18.5714 1.42856 14.7338 1.42856 9.99998C1.42856 5.26611 5.26611 1.42856 9.99998 1.42856C14.7338 1.42856 18.5714 5.26611 18.5714 9.99998C18.5663 14.7318 14.7318 18.5663 9.99998 18.5714Z" fill="#727272"/>
<path d="M10.4 5C10.0686 5 9.79998 5.26863 9.79998 5.60001V9.80001H5.60001C5.26863 9.80001 5 10.0686 5 10.4C5 10.7314 5.26863 11 5.60001 11H10.4C10.7314 11 11 10.7314 11 10.4V5.60001C11 5.26863 10.7314 5 10.4 5Z" fill="#727272"/>
</svg>
