<svg width="1147" height="156" viewBox="0 0 1147 156" fill="none" xmlns="http://www.w3.org/2000/svg">
<path d="M0.64502 37.7417H1147.16V144.429C1147.16 144.429 892.53 155.305 577.775 155.973C263.021 156.642 0.64502 144.429 0.64502 144.429V37.7417Z" fill="#D63132"/>
<path d="M1.51701 0H1148L1147.13 145.352C1147.13 145.352 896.503 153.707 581.757 154.296C267.012 154.886 0.64502 145.352 0.64502 145.352L1.51701 0Z" fill="url(#paint0_linear)"/>
<mask id="mask0" style="mask-type:alpha" maskUnits="userSpaceOnUse" x="1" y="0" width="1147" height="155">
<path d="M2.35524 0H1148L1147.13 145.352C1147.13 145.352 896.687 153.707 582.171 154.296C267.656 154.886 1.48389 145.352 1.48389 145.352L2.35524 0Z" fill="#E5CDD4"/>
</mask>
<g mask="url(#mask0)">
<path d="M622.968 67.3522H677.919C674.648 66.9607 671.272 66.5215 668.003 66.1299C667.957 65.7118 667.802 65.313 667.554 64.9728C667.305 64.6326 666.972 64.3629 666.587 64.1905C666.212 64.0183 665.798 63.9494 665.388 63.9908C664.978 64.0322 664.586 64.1825 664.254 64.4259C664.428 63.257 663.376 62.1633 662.288 61.6899C661.164 61.2968 659.967 61.1512 658.781 61.2633C658.64 59.9076 658.126 58.617 657.295 57.5335C656.465 56.4499 655.35 55.6154 654.074 55.1217C652.794 54.614 651.41 54.4215 650.039 54.5604C648.668 54.6994 647.351 55.1658 646.2 55.9199C645.062 56.6913 644.097 57.6904 643.368 58.8534C642.639 60.0165 642.161 61.3181 641.965 62.6751C641.125 62.5829 640.276 62.7276 639.514 63.0928C638.752 63.4581 638.109 64.029 637.658 64.7407C636.85 64.3584 635.932 64.2777 635.07 64.5132C634.208 64.7488 633.459 65.2849 632.961 66.0239L622.968 67.3522Z" fill="url(#paint1_linear)"/>
<mask id="mask1" style="mask-type:alpha" maskUnits="userSpaceOnUse" x="408" y="53" width="300" height="95">
<rect x="408.258" y="53.6777" width="299.419" height="93.9355" fill="#C4C4C4"/>
</mask>
<g mask="url(#mask1)">
<path d="M548.322 116.677V140.886H439.943C437.99 140.886 436.118 140.501 434.737 139.816C433.356 139.131 432.58 138.202 432.58 137.234C432.58 136.265 433.356 135.336 434.737 134.651C436.118 133.966 437.99 133.582 439.943 133.582C440.093 133.582 440.24 133.584 440.387 133.588C440.961 132.631 442.066 131.773 443.574 131.112C445.083 130.451 446.935 130.013 448.921 129.847C449.263 129.245 449.896 128.694 450.765 128.24C451.634 127.787 452.713 127.445 453.909 127.245C455.104 127.045 456.38 126.993 457.625 127.093C458.87 127.193 460.047 127.442 461.055 127.819C461.483 127.675 461.929 127.546 462.39 127.43C464.163 126.482 466.6 125.905 469.203 125.819C468.747 124.678 469.078 123.494 470.143 122.458C471.208 121.421 472.945 120.592 475.074 120.104C477.203 119.617 479.601 119.498 481.883 119.767C484.165 120.037 486.197 120.679 487.654 121.591C488.795 120.667 490.578 119.981 492.667 119.664C494.756 119.346 497.007 119.419 498.996 119.868C501.386 118.833 504.492 118.299 507.66 118.377C510.828 118.456 513.811 119.141 515.981 120.288C517.167 120.081 518.414 119.972 519.671 119.965C518.966 119.534 518.521 119.014 518.388 118.463C518.255 117.913 518.439 117.355 518.919 116.854C519.399 116.353 520.155 115.93 521.1 115.634C522.045 115.338 523.14 115.181 524.258 115.18C524.385 115.18 524.512 115.18 524.637 115.186C525.37 113.78 527.111 112.554 529.535 111.739C531.959 110.924 534.899 110.575 537.804 110.758C540.709 110.941 543.381 111.643 545.317 112.733C547.253 113.823 548.322 115.225 548.322 116.678V116.677Z" fill="url(#paint2_linear)"/>
<path d="M595.695 140.909V116.7C595.695 115.248 596.5 113.846 597.959 112.756C599.419 111.666 601.432 110.964 603.621 110.781C605.811 110.598 608.026 110.947 609.853 111.762C611.68 112.577 612.992 113.803 613.544 115.209C613.638 115.203 613.734 115.203 613.83 115.203C614.672 115.204 615.497 115.361 616.209 115.657C616.922 115.953 617.492 116.376 617.853 116.877C618.215 117.378 618.354 117.936 618.254 118.486C618.153 119.037 619.924 117.439 625.981 117.858C629.022 118.068 631.067 118.856 632.868 119.891C634.367 119.442 636.063 119.369 637.638 119.687C639.212 120.004 640.556 120.69 641.415 121.614C642.513 120.702 644.045 120.06 645.765 119.79C647.484 119.521 649.291 119.64 650.896 120.127C652.501 120.615 653.809 121.444 654.612 122.481C655.414 123.517 655.664 124.701 655.321 125.842C657.282 125.928 659.119 126.505 660.455 127.453C660.803 127.569 661.139 127.698 661.461 127.842C662.22 127.465 663.108 127.216 664.046 127.116C664.985 127.016 665.946 127.068 666.847 127.268C667.748 127.468 668.561 127.81 669.216 128.263C669.871 128.716 670.348 129.268 670.606 129.87C672.102 130.036 673.498 130.474 674.635 131.135C675.772 131.796 676.604 132.654 677.037 133.611C677.147 133.607 677.259 133.604 677.371 133.604C678.843 133.604 680.254 133.989 681.295 134.674C682.336 135.359 682.92 136.288 682.92 137.257C682.92 138.225 682.336 139.154 681.295 139.839C680.254 140.524 678.843 140.909 677.371 140.909H595.695Z" fill="url(#paint3_linear)"/>
<path d="M566.977 116.848C563.636 100.283 551.224 85.3603 540.521 78.8389L539.367 79.8677C539.367 79.8677 562.739 95.5332 565.948 115.837L566.977 116.848Z" fill="#E5CCD4"/>
<path d="M561.453 121.27L566.757 115.83L568.358 117.152L572.752 122.303L570.433 127.244L562.788 131.192C562.788 131.192 560.609 126.139 559.992 125.577C559.371 125.016 561.453 121.27 561.453 121.27Z" fill="#E4CBD3"/>
<path d="M566.757 115.833C562.245 103.415 547.325 87.5714 536.281 83.7178L531.144 87.955C531.144 87.955 537.564 93.35 540.518 97.0711C540.518 97.0711 533.327 90.3927 529.348 89.2384L528.193 93.7337C528.193 93.7337 558.241 120.827 561.453 124.939L566.757 115.833Z" fill="url(#paint4_linear)"/>
<path d="M617.694 96.0815L617.087 106.75L600.006 118.122L581.355 124.936L570.433 128.954L571.761 118.694L597.791 101.951L609.091 97.33L617.694 96.0815Z" fill="#E4CBD3"/>
<path d="M566.978 116.848C576.861 99.2542 593.942 85.3882 612.304 83.7178L614.609 90.2567L608.324 91.9376L615.899 91.2959L617.695 96.0842C617.695 96.0842 593.81 103.753 572.749 122.31L570.155 123.443L566.978 116.848Z" fill="url(#paint5_linear)"/>
<path fill-rule="evenodd" clip-rule="evenodd" d="M570.537 100.66C570.553 98.0515 572.945 92.3797 576.228 91.3052L578.973 91.9182C575.076 94.396 573.258 96.3576 570.537 100.66ZM569.541 99.9778C568.784 98.4969 568.093 94.6224 569.107 93.1027L570.397 92.6878C569.545 95.1722 569.383 96.7871 569.541 99.9778Z" fill="url(#paint6_radial)"/>
<path d="M570.433 116.847C576.867 108.32 598.492 94.3601 605.868 92.4873C605.868 92.4873 587.58 103.382 580.881 108.076C574.182 112.77 570.433 116.847 570.433 116.847Z" fill="#E5CCD4"/>
<path d="M559.877 115.209C554.15 107.596 543.141 99.498 543.141 99.498L557.188 113.573L559.877 115.209Z" fill="#E5CCD4"/>
<path d="M528.577 95.5284V93.7324C528.577 93.7324 558.453 113.764 566.757 125.963C566.757 125.963 597.15 102.078 620.006 101.823L619.877 104.77L601.771 117.618C601.771 117.618 575.061 125.192 574.29 125.963C573.519 126.734 564.403 133.412 564.403 133.412L553.17 126.35L528.577 95.5284Z" fill="#FF7373"/>
<path d="M571.758 149.081C568.692 145.729 562.889 142.043 557.184 138.89C549.327 134.548 541.672 131.232 541.672 131.232L528.577 95.5347C538.38 101.564 550.08 112.25 557.965 119.936L557.969 119.94C563.367 125.199 566.977 129.049 566.977 129.049L571.758 149.081Z" fill="url(#paint7_linear)"/>
<path d="M621.291 135.721C613.392 135.184 606.047 136.031 599.571 137.538H599.568C582.776 141.43 571.759 149.719 571.759 149.719L566.974 129.046C566.974 129.046 588.042 112.551 607.767 106.754C611.937 105.527 616.042 104.777 619.878 104.767L621.291 135.721Z" fill="url(#paint8_linear)"/>
<path d="M584.843 125.316C588.599 121.507 602.252 119.938 602.252 119.938L603.755 130.895C603.755 130.895 592.393 132.876 587.741 135.209L584.843 125.316Z" fill="#E6463A"/>
<path d="M599.567 137.539C582.775 141.431 571.758 149.721 571.758 149.721L566.974 129.047C566.974 129.047 588.041 112.552 607.766 106.756C582.615 115.272 573.397 126.889 572.749 131.192C572.097 135.496 571.968 144.737 572.749 146.621C573.533 148.504 591.469 135.653 599.567 137.539Z" fill="#9D031B"/>
<path d="M571.759 149.079C568.693 145.727 562.89 142.041 557.185 138.889C564.198 139.461 568.355 143.816 566.758 138.118C565.363 133.148 562.914 127.907 557.969 119.938C563.368 125.197 566.977 129.047 566.977 129.047L571.759 149.079Z" fill="#9D031B"/>
<path opacity="0.51" d="M535.353 105.237C538.115 105.858 544.762 119.051 542.771 121.691C540.78 124.331 531.472 104.362 535.353 105.237Z" fill="white"/>
<path opacity="0.51" d="M544.644 118.55C547.695 118.54 549.61 124.601 547.081 125.302C545.864 125.64 543.319 118.557 544.644 118.55Z" fill="white"/>
<path d="M563.861 61.6753C560.143 63.0457 557.548 66.1514 557.548 69.764C557.548 72.4221 558.953 74.8062 561.176 76.4264L561.178 76.4241L559.88 79.445C559.656 79.9663 560.056 80.555 560.583 80.473C563.934 79.9518 565.835 78.4018 565.844 78.3946C566.58 78.5301 567.345 78.6021 568.13 78.6021C569.778 78.6021 571.338 78.2869 572.728 77.7252L563.861 61.6753Z" fill="url(#paint9_radial)"/>
<path d="M586.56 75.7902L586.562 75.7935C586.56 75.7902 587.191 74.5335 587.191 74.5335C589.561 72.3746 591.543 69.8084 591.543 66.6483C591.543 66.4389 591.537 66.2307 591.524 66.024C591.135 59.6139 584.789 54.5166 577.018 54.5166C569.256 54.5166 562.916 59.6014 562.513 66.0003C562.5 66.2149 562.493 66.431 562.493 66.6483C562.493 73.3485 570.296 77.9917 577.018 78.132C578.095 78.1545 579.145 78.0332 580.156 77.8473C580.168 77.8571 582.777 79.9847 587.377 80.7001C588.1 80.8127 588.23 79.6782 588.23 79.6782L586.56 75.7902Z" fill="url(#paint10_radial)"/>
<path d="M586.56 75.7902L586.562 75.7935C586.56 75.7902 587.191 74.5335 587.191 74.5335C589.561 72.3746 591.543 69.8084 591.543 66.6483C591.543 66.4389 591.537 66.2307 591.524 66.024C591.135 59.6139 584.789 54.5166 577.018 54.5166C569.256 54.5166 562.916 59.6014 562.513 66.0003C562.5 66.2149 562.493 66.431 562.493 66.6483C562.493 73.3485 570.296 77.9917 577.018 78.132C578.095 78.1545 579.145 78.0332 580.156 77.8473C580.168 77.8571 582.777 79.9847 587.377 80.7001C588.1 80.8127 588.23 79.6782 588.23 79.6782L586.56 75.7902Z" fill="url(#paint11_radial)"/>
<path fill-rule="evenodd" clip-rule="evenodd" d="M572.756 63.2382C572.756 60.8951 574.662 58.9888 577.005 58.9888C579.348 58.9888 581.255 60.8951 581.255 63.2382C581.255 65.2146 579.898 66.8803 578.068 67.3532V69.0811C578.068 69.6679 577.592 70.1435 577.005 70.1435C576.419 70.1435 575.943 69.6679 575.943 69.0811V66.4252C575.943 65.8385 576.419 65.3629 577.005 65.3629C578.177 65.3629 579.13 64.4097 579.13 63.2382C579.13 62.0666 578.177 61.1135 577.005 61.1135C575.834 61.1135 574.881 62.0666 574.881 63.2382C574.881 63.8249 574.405 64.3005 573.818 64.3005C573.231 64.3005 572.756 63.8249 572.756 63.2382ZM578.334 72.2681C578.334 73.0015 577.739 73.596 577.006 73.596C576.272 73.596 575.678 73.0015 575.678 72.2681C575.678 71.5347 576.272 70.9402 577.006 70.9402C577.739 70.9402 578.334 71.5347 578.334 72.2681Z" fill="white"/>
<path d="M588.23 79.6794C588.04 79.9443 587.729 80.1081 587.377 80.0533C583.344 79.4261 580.841 77.7133 580.277 77.294C580.198 77.2347 580.098 77.2113 580 77.2284C579.037 77.3963 578.04 77.4852 577.018 77.4852C569.256 77.4852 562.917 72.4003 562.513 66.0015C562.5 66.2161 562.493 66.4321 562.493 66.6495C562.493 73.3497 568.996 78.7812 577.018 78.7812C578.095 78.7812 579.145 78.6825 580.156 78.4966C580.168 78.5063 582.777 80.634 587.377 81.3494C588.1 81.462 588.649 80.6538 588.342 79.9382L588.23 79.6794Z" fill="#CF5B25"/>
<path d="M586.708 75.2843C586.617 75.3525 586.562 75.459 586.562 75.5728V76.6879C589.614 74.4639 591.543 71.1915 591.543 67.5427C591.543 67.3249 591.536 67.1085 591.522 66.8936C591.312 70.2233 589.496 73.1973 586.708 75.2843Z" fill="#B8761C"/>
<path d="M586.708 74.3892C586.617 74.4575 586.562 74.564 586.562 74.6778V75.7929C589.614 73.5689 591.543 70.2965 591.543 66.6477C591.543 66.4299 591.536 66.2135 591.522 65.9985C591.312 69.3282 589.496 72.3023 586.708 74.3892Z" fill="#CF5B25"/>
</g>
<path d="M423.748 139.104C233.893 147.642 63.1322 130.907 1.48389 121.472V154.416H617.333V142.816C623.879 138.022 613.603 130.567 423.748 139.104Z" fill="url(#paint12_linear)"/>
<path d="M983.492 130.751C919.334 137.062 705.452 140.495 617.071 141.423V154.415H1147.16V109.871C1124.79 113.583 1060.74 122.956 983.492 130.751Z" fill="url(#paint13_linear)"/>
<path d="M1026.04 134.928C936.026 142.816 739.625 143.28 639.787 142.816V154.417H1147.16V119.152L1146.83 119.214C1134.98 121.454 1096.25 128.776 1026.04 134.928Z" fill="url(#paint14_linear)"/>
<path d="M309.024 143.743C174.404 144.856 58.7693 136.783 17.7793 132.607V154.415H1147.16V128.431C1115.34 131.679 1031.96 139.01 952.999 142.351C896.044 144.949 697.213 143.433 618.469 142.351C619.008 141.113 615.556 138.268 597.434 136.783C574.782 134.927 477.299 142.351 309.024 143.743Z" fill="url(#paint15_linear)"/>
</g>
<defs>
<linearGradient id="paint0_linear" x1="572.793" y1="0.136311" x2="572.227" y2="154.171" gradientUnits="userSpaceOnUse">
<stop stop-color="#FEF2ED"/>
<stop offset="1" stop-color="#FCE5D7"/>
</linearGradient>
<linearGradient id="paint1_linear" x1="653.301" y1="52.296" x2="653.277" y2="69.2525" gradientUnits="userSpaceOnUse">
<stop stop-color="white"/>
<stop offset="0.69" stop-color="white" stop-opacity="0.635"/>
<stop offset="1" stop-color="white" stop-opacity="0.204"/>
</linearGradient>
<linearGradient id="paint2_linear" x1="496.47" y1="105.49" x2="496.454" y2="156.393" gradientUnits="userSpaceOnUse">
<stop stop-color="white"/>
<stop offset="0.536458" stop-color="white" stop-opacity="0.328375"/>
<stop offset="1" stop-color="white" stop-opacity="0.76"/>
</linearGradient>
<linearGradient id="paint3_linear" x1="634.772" y1="105.513" x2="634.793" y2="156.416" gradientUnits="userSpaceOnUse">
<stop stop-color="white"/>
<stop offset="0.536458" stop-color="white" stop-opacity="0.328375"/>
<stop offset="1" stop-color="white" stop-opacity="0.204"/>
</linearGradient>
<linearGradient id="paint4_linear" x1="559.103" y1="125.744" x2="547.135" y2="81.4965" gradientUnits="userSpaceOnUse">
<stop offset="0.02" stop-color="#E2DCEB"/>
<stop offset="1" stop-color="white"/>
</linearGradient>
<linearGradient id="paint5_linear" x1="607.629" y1="124.219" x2="598.902" y2="80.1872" gradientUnits="userSpaceOnUse">
<stop offset="0.02" stop-color="#E2DCEB"/>
<stop offset="1" stop-color="white"/>
</linearGradient>
<radialGradient id="paint6_radial" cx="0" cy="0" r="1" gradientUnits="userSpaceOnUse" gradientTransform="translate(568.599 91.3052) rotate(53.7706) scale(12.413 11.655)">
<stop offset="0.214126" stop-color="#FFBF74"/>
<stop offset="1" stop-color="#EE8D2D"/>
</radialGradient>
<linearGradient id="paint7_linear" x1="533.87" y1="87.923" x2="557.433" y2="136.121" gradientUnits="userSpaceOnUse">
<stop stop-color="#FFB59A"/>
<stop offset="1" stop-color="#F75A4A"/>
</linearGradient>
<linearGradient id="paint8_linear" x1="595.935" y1="63.6999" x2="595.487" y2="136.36" gradientUnits="userSpaceOnUse">
<stop stop-color="#FFB59A"/>
<stop offset="1" stop-color="#F75A4A"/>
</linearGradient>
<radialGradient id="paint9_radial" cx="0" cy="0" r="1" gradientUnits="userSpaceOnUse" gradientTransform="translate(557.548 61.6753) rotate(61.9275) scale(22.8127 18.6555)">
<stop offset="0.214126" stop-color="#FFBF74"/>
<stop offset="1" stop-color="#EE8D2D"/>
</radialGradient>
<radialGradient id="paint10_radial" cx="0" cy="0" r="1" gradientUnits="userSpaceOnUse" gradientTransform="translate(577.018 67.6123) rotate(79.3681) scale(24.1529 26.5391)">
<stop stop-color="#FFDC7B"/>
<stop offset="1" stop-color="#F4973B"/>
</radialGradient>
<radialGradient id="paint11_radial" cx="0" cy="0" r="1" gradientUnits="userSpaceOnUse" gradientTransform="translate(575.906 57.8503) rotate(86.166) scale(13.3919 15.0155)">
<stop stop-color="#FFBF74"/>
<stop offset="1" stop-color="#EE8D2D"/>
</radialGradient>
<linearGradient id="paint12_linear" x1="16.8601" y1="142.635" x2="125.256" y2="-95.2596" gradientUnits="userSpaceOnUse">
<stop stop-color="#FEA98F" stop-opacity="0.4"/>
<stop offset="0.477836" stop-color="#FDF3E9" stop-opacity="0.8"/>
<stop offset="1" stop-color="#FEA98F" stop-opacity="0.502"/>
</linearGradient>
<linearGradient id="paint13_linear" x1="650.369" y1="138.486" x2="838.474" y2="-104.089" gradientUnits="userSpaceOnUse">
<stop stop-color="#FCD7C9"/>
<stop offset="0.520833" stop-color="#F8EDE2" stop-opacity="0.8"/>
<stop offset="1" stop-color="#FEA98F" stop-opacity="0.502"/>
</linearGradient>
<linearGradient id="paint14_linear" x1="1130.46" y1="142.538" x2="638.614" y2="152.488" gradientUnits="userSpaceOnUse">
<stop stop-color="#F19D99"/>
<stop offset="1" stop-color="#FCF0F1"/>
</linearGradient>
<linearGradient id="paint15_linear" x1="48.5217" y1="120.543" x2="1232.54" y2="573.764" gradientUnits="userSpaceOnUse">
<stop stop-color="#F7CDBA"/>
<stop offset="0.442137" stop-color="#FF8D7E"/>
<stop offset="1" stop-color="#F3AD95"/>
</linearGradient>
</defs>
</svg>
