<svg width="44" height="44" viewBox="0 0 44 44" fill="none" xmlns="http://www.w3.org/2000/svg">
<circle opacity="0.2" cx="22" cy="22" r="22" fill="#C68158"/>
<path d="M19.7 17.5H14.8C14.471 17.5 14.1595 17.2966 13.9037 16.8244C13.6479 16.3521 13.5 15.6887 13.5 15C13.5 14.3048 13.6409 13.6566 13.9225 13.1999C14.1883 12.7688 14.5792 12.5 15.175 12.5C16.3325 12.5 17.4695 13.2225 18.3647 14.0317C18.8025 14.4273 19.1613 14.8244 19.4108 15.123C19.5353 15.272 19.6317 15.3955 19.6964 15.4808C19.6976 15.4824 19.6988 15.484 19.7 15.4856V17.5Z" fill="#FFC76F" stroke="#985801"/>
<path d="M24.3 17.5H29.2C29.529 17.5 29.8405 17.2966 30.0963 16.8244C30.3521 16.3521 30.5 15.6887 30.5 15C30.5 14.3048 30.3591 13.6566 30.0775 13.1999C29.8117 12.7688 29.4208 12.5 28.825 12.5C27.6675 12.5 26.5305 13.2225 25.6353 14.0317C25.1975 14.4273 24.8387 14.8244 24.5892 15.123C24.4647 15.272 24.3683 15.3955 24.3036 15.4808C24.3024 15.4824 24.3012 15.484 24.3 15.4856V17.5Z" fill="#FFC76F" stroke="#985801"/>
<path d="M32.1406 19.5H11.8594C11.7119 19.5 11.5 19.3476 11.5 19.0391V16.9609C11.5 16.6524 11.7119 16.5 11.8594 16.5H32.1406C32.2881 16.5 32.5 16.6524 32.5 16.9609V19.0391C32.5 19.3476 32.2881 19.5 32.1406 19.5Z" fill="#FFC76F" stroke="#985801"/>
<path d="M31.1264 33.5H12.8736C12.631 33.5 12.5 33.3263 12.5 33.19V19.5H31.5V33.19C31.5 33.3263 31.369 33.5 31.1264 33.5Z" fill="#FFC76F" stroke="#985801"/>
<path d="M20 16H24V33H20V16Z" fill="#CD4005" stroke="#985801"/>
</svg>
