<svg width="44" height="44" viewBox="0 0 44 44" fill="none" xmlns="http://www.w3.org/2000/svg">
<circle opacity="0.2" r="22" transform="matrix(1 0 0 -1 22 22)" fill="#C68158"/>
<rect x="18" y="11" width="8" height="15" rx="4" fill="#FFC76F" stroke="#985801"/>
<path d="M30.9477 15.8759H12.8701C12.2336 15.8776 11.6239 16.1317 11.1744 16.5823C10.725 17.0329 10.4727 17.6434 10.4727 18.2798V30.1575C10.4732 30.7936 10.7259 31.4035 11.1752 31.8536C11.6246 32.3038 12.234 32.5575 12.8701 32.5593H30.9477C31.5852 32.5593 32.1967 32.306 32.6475 31.8552C33.0983 31.4043 33.3516 30.7929 33.3516 30.1553V18.2798C33.3516 17.6423 33.0983 17.0308 32.6475 16.58C32.1967 16.1292 31.5852 15.8759 30.9477 15.8759V15.8759Z" fill="#FFC76F" stroke="#985801"/>
<g clip-path="url(#clip0)">
<path d="M25.8421 25.545H23.4421V27.8355C23.4421 28.4824 23.1531 28.999 22.503 28.999C21.8529 28.999 21.5639 28.4772 21.5639 27.8355V25.545H19.1639C18.5169 25.545 17.9941 25.2424 17.9941 24.5965C17.998 24.4512 18.0322 24.3083 18.0945 24.1769C18.1569 24.0456 18.2459 23.9287 18.3561 23.8338C18.4662 23.7389 18.595 23.6681 18.7341 23.6258C18.8732 23.5836 19.0196 23.5709 19.1639 23.5885H21.5639V21.1635C21.5639 20.5165 21.8519 20 22.503 20C23.1541 20 23.4421 20.5217 23.4421 21.1635V23.5885H25.8421C25.9859 23.5708 26.1317 23.5835 26.2702 23.6258C26.4087 23.6682 26.5368 23.7392 26.646 23.8343C26.7553 23.9293 26.8433 24.0464 26.9043 24.1777C26.9654 24.309 26.9981 24.4517 27.0004 24.5965C26.9994 25.2435 26.4881 25.545 25.8421 25.545Z" fill="url(#paint0_linear)"/>
</g>
<defs>
<linearGradient id="paint0_linear" x1="22.4973" y1="20" x2="22.4973" y2="28.999" gradientUnits="userSpaceOnUse">
<stop stop-color="#E1590A"/>
<stop offset="1" stop-color="#C23102"/>
</linearGradient>
<clipPath id="clip0">
<rect width="9" height="9" fill="white" transform="translate(18 20)"/>
</clipPath>
</defs>
</svg>
