<svg width="44" height="44" viewBox="0 0 44 44" fill="none" xmlns="http://www.w3.org/2000/svg">
<circle opacity="0.2" cx="22" cy="22" r="22" fill="#C68158"/>
<path d="M34.0458 24.2704C34.0465 24.2693 34.0462 24.2679 34.0452 24.2671C33.8011 24.0691 33.4919 23.9692 33.178 23.987C32.8633 24.0048 32.5667 24.1396 32.3464 24.3649L29.6002 27.1449C29.0566 27.6969 28.3187 28.0145 27.5441 28.0298L25.4168 28.0136C24.5373 28.0069 24.3882 26.7517 25.2416 26.5391V26.5391C25.5118 26.48 25.7105 26.0902 25.8191 25.7278C25.8998 25.4583 25.9105 25.1661 25.8057 24.905C25.7462 24.7568 25.6633 24.6182 25.5593 24.4946C25.4124 24.3201 25.2286 24.1818 25.0223 24.0891C24.8856 24.0276 24.7343 23.9954 24.5863 24.0188V24.0188L16.6514 25.163C16.1955 25.2277 15.757 25.3818 15.361 25.6167C14.965 25.8515 14.6194 26.1623 14.3439 26.5312L12.8443 28.9814C12.7375 29.156 12.6442 29.3385 12.5653 29.5274L11.9091 31.0976C10.9839 33.312 12.2032 35.837 14.5128 36.4892L18.271 37.5506C19.5432 37.9099 20.8064 36.954 20.8064 35.6321V35.6321C20.8064 35.4589 20.8214 35.2827 20.8977 35.1273C20.9684 34.9834 21.0649 34.8528 21.1831 34.7424C21.3651 34.5723 21.5914 34.4568 21.8359 34.4091L28.8738 33.149C29.6185 33.0124 30.2832 32.5974 30.7328 31.9882L34.6169 26.5207C34.8203 26.1435 34.8751 25.7039 34.7707 25.2883C34.6664 24.8731 34.4107 24.5118 34.0537 24.2755C34.0531 24.2751 34.0523 24.2748 34.0516 24.2747L34.0477 24.2742C34.0459 24.2739 34.0449 24.2719 34.0458 24.2704V24.2704Z" fill="url(#paint0_linear_52_3194)" stroke="#985801"/>
<path d="M10.2692 33.5939C10.425 33.0792 10.9601 32.7799 11.4803 32.9165L20.6327 35.3204C21.181 35.4644 21.5 36.0349 21.3358 36.5774L20.3908 39.6986C20.235 40.2134 19.6999 40.5127 19.1797 40.376L10.0273 37.9721C9.47907 37.8281 9.16 37.2577 9.32425 36.7151L10.2692 33.5939Z" fill="#D24606" stroke="#985801"/>
<path d="M18.6541 35.674C19.0098 35.7784 19.3096 36.0195 19.4878 36.3446C19.666 36.6697 19.708 37.0522 19.6047 37.4082C19.5557 37.5843 19.4723 37.7491 19.3594 37.8928C19.2464 38.0366 19.1061 38.1566 18.9465 38.2458C18.7869 38.3351 18.6113 38.3919 18.4297 38.413C18.248 38.434 18.064 38.4189 17.8883 38.3685C17.5324 38.2647 17.2322 38.024 17.0535 37.6992C16.8748 37.3744 16.8322 36.992 16.9349 36.6358C16.9837 36.4592 17.0671 36.294 17.1802 36.1499C17.2933 36.0057 17.4338 35.8855 17.5937 35.796C17.7536 35.7066 17.9297 35.6497 18.1117 35.6288C18.2937 35.6078 18.478 35.6232 18.6541 35.674V35.674Z" fill="#FFC76F"/>
<circle cx="29" cy="19" r="3.5" fill="#FFC76F" stroke="#985801"/>
<path d="M28.7556 17.8453C28.9273 17.837 29.098 17.875 29.2508 17.9554C29.3585 18.0157 29.4536 18.0971 29.5307 18.1949V17.666H29.2407C29.2257 17.6683 29.2105 17.6669 29.1961 17.662C29.1818 17.6571 29.1687 17.6488 29.1581 17.6378C29.1474 17.6269 29.1393 17.6135 29.1345 17.5988C29.1298 17.5841 29.1284 17.5684 29.1305 17.5531V17.4198C29.1284 17.4044 29.1298 17.3888 29.1345 17.3741C29.1393 17.3594 29.1474 17.346 29.1581 17.335C29.1687 17.3241 29.1818 17.3158 29.1961 17.3109C29.2105 17.306 29.2257 17.3046 29.2407 17.3068H29.5307V17.0605C29.5304 17.0424 29.5337 17.0245 29.5404 17.0077C29.5471 16.991 29.557 16.9758 29.5697 16.9632C29.582 16.9502 29.5968 16.94 29.6131 16.9331C29.6295 16.9263 29.647 16.9229 29.6646 16.9232H29.8496C29.8672 16.9229 29.8847 16.9263 29.9011 16.9331C29.9174 16.94 29.9322 16.9502 29.9445 16.9632C29.9572 16.9758 29.9671 16.991 29.9738 17.0077C29.9805 17.0245 29.9838 17.0424 29.9835 17.0605V17.3068H30.2735C30.2885 17.3046 30.3037 17.306 30.3181 17.3109C30.3324 17.3158 30.3455 17.3241 30.3561 17.335C30.3668 17.346 30.3749 17.3594 30.3797 17.3741C30.3844 17.3888 30.3858 17.4044 30.3837 17.4198V17.5531C30.3858 17.5684 30.3844 17.5841 30.3797 17.5988C30.3749 17.6135 30.3668 17.6269 30.3561 17.6378C30.3455 17.6488 30.3324 17.6571 30.3181 17.662C30.3037 17.6669 30.2885 17.6683 30.2735 17.666H29.9862V20.4249C29.9865 20.443 29.9832 20.461 29.9765 20.4778C29.9698 20.4945 29.9599 20.5097 29.9473 20.5223C29.9349 20.5353 29.9201 20.5455 29.9038 20.5523C29.8875 20.5592 29.8699 20.5626 29.8523 20.5623H29.6658C29.6482 20.5626 29.6306 20.5592 29.6143 20.5523C29.598 20.5455 29.5832 20.5353 29.5708 20.5223C29.5582 20.5097 29.5482 20.4945 29.5416 20.4778C29.5349 20.461 29.5316 20.443 29.5319 20.4249V20.2653C29.455 20.3664 29.3578 20.4494 29.2469 20.5088C29.0944 20.5858 28.9255 20.6221 28.7556 20.6145C28.6059 20.6161 28.4572 20.5876 28.3181 20.5307C28.1852 20.4758 28.065 20.3929 27.9654 20.2872C27.862 20.176 27.7804 20.0453 27.7252 19.9025C27.6629 19.7401 27.6276 19.5683 27.6209 19.394C27.6172 19.3429 27.6154 19.2874 27.6154 19.2275C27.6154 19.1676 27.6172 19.112 27.6209 19.0607C27.6279 18.8866 27.6635 18.715 27.726 18.553C27.7809 18.4107 27.8625 18.2809 27.9662 18.171C28.0665 18.0672 28.1865 17.9856 28.3189 17.9315C28.4576 17.8738 28.606 17.8446 28.7556 17.8453V17.8453ZM29.5307 19.4506C29.5341 19.3993 29.5358 19.3318 29.5358 19.2483C29.5358 19.1647 29.5341 19.0973 29.5307 19.0459C29.5342 18.8373 29.4579 18.6356 29.3182 18.4839C29.2499 18.4175 29.1694 18.3658 29.0813 18.3318C28.9933 18.2979 28.8995 18.2824 28.8055 18.2863C28.7087 18.2813 28.612 18.298 28.5222 18.3352C28.4324 18.3724 28.3516 18.4293 28.2854 18.5019C28.151 18.6657 28.0766 18.8725 28.0752 19.0866C28.0718 19.1824 28.0718 19.2781 28.0752 19.3736C28.0766 19.5877 28.151 19.7945 28.2854 19.9583C28.3516 20.0309 28.4324 20.0878 28.5222 20.125C28.612 20.1622 28.7087 20.1789 28.8055 20.1739C28.8988 20.1773 28.9919 20.1619 29.0794 20.1285C29.1669 20.0951 29.2471 20.0443 29.3154 19.9791C29.3836 19.91 29.4377 19.8277 29.4747 19.737C29.5116 19.6462 29.5307 19.5489 29.5307 19.4506V19.4506Z" fill="#D14406" stroke="#D14406" stroke-width="0.3"/>
<path fill-rule="evenodd" clip-rule="evenodd" d="M7.1727 22.5334L8.81413 19.9322C9.07661 19.5161 9.62653 19.3912 10.0429 19.6533L11.3567 20.4817C11.9851 20.8576 12.7979 20.6731 13.2023 20.0628L18.1334 12.2353C18.259 12.0351 18.4593 11.8932 18.6898 11.8412C18.9205 11.7882 19.1629 11.8298 19.3628 11.9567L21.7426 13.4569C22.371 13.8315 23.1828 13.6473 23.5878 13.038L26.8234 7.89161C26.959 7.68932 27.2289 7.62806 27.4385 7.75201L28.2115 8.23974C28.2693 8.276 28.3429 8.27518 28.3999 8.23766C28.4569 8.20013 28.4867 8.13281 28.4763 8.06535L28.0583 5.21674C28.0543 5.1923 28.0397 5.17086 28.0185 5.15814C27.9997 5.14601 27.9766 5.1426 27.9551 5.14877L25.2039 6.00175C25.1371 6.02002 25.0883 6.07735 25.0808 6.14622C25.0694 6.21205 25.1003 6.27803 25.1581 6.3115L25.9333 6.80102C26.1412 6.93225 26.2036 7.20709 26.0728 7.41521L23.069 12.1859C22.7995 12.5925 22.2579 12.7155 21.8394 12.465L19.4589 10.9622C18.8306 10.5861 18.0176 10.7706 17.6133 11.3811L12.4471 19.587C12.3841 19.6871 12.2839 19.7581 12.1685 19.7843C12.0531 19.8104 11.9321 19.7897 11.832 19.7266L10.1417 18.6609C9.84151 18.4716 9.4784 18.4094 9.13229 18.4879C8.78619 18.5665 8.48553 18.7794 8.2965 19.0797L6.42316 22.0605C6.35909 22.159 6.33761 22.2793 6.36362 22.3939C6.38964 22.5085 6.46096 22.6078 6.56129 22.669C6.76819 22.7967 7.03915 22.7366 7.1727 22.5334V22.5334Z" fill="url(#paint1_linear_52_3194)"/>
<defs>
<linearGradient id="paint0_linear_52_3194" x1="24.1573" y1="20.2807" x2="13.391" y2="60.7478" gradientUnits="userSpaceOnUse">
<stop stop-color="#FFC59A"/>
<stop offset="1" stop-color="#FF7062"/>
</linearGradient>
<linearGradient id="paint1_linear_52_3194" x1="25" y1="8.5" x2="14" y2="15.5" gradientUnits="userSpaceOnUse">
<stop stop-color="#E1590A"/>
<stop offset="1" stop-color="#D24606"/>
</linearGradient>
</defs>
</svg>
