<svg width="20" height="20" viewBox="0 0 20 20" fill="none" xmlns="http://www.w3.org/2000/svg">
<path d="M11.1652 13.0607L11.1666 13.0614C11.1974 13.0775 11.2291 13.0937 11.2614 13.1103C11.304 13.1321 11.3475 13.1545 11.3911 13.1773L12.5243 12.0476C12.9189 11.6531 13.3861 11.4405 13.8783 11.4405C14.3744 11.4405 14.8382 11.657 15.218 12.0522C15.2182 12.0524 15.2184 12.0526 15.2186 12.0528L17.2768 14.1185C17.2768 14.1185 17.2769 14.1186 17.277 14.1187C17.672 14.5099 17.8842 14.981 17.8842 15.4765C17.8842 15.9677 17.6763 16.4419 17.2899 16.8439C17.2898 16.844 17.2898 16.844 17.2898 16.844L17.2177 16.7747C17.0563 16.9436 16.8912 17.1049 16.7299 17.2588L11.1652 13.0607ZM11.1652 13.0607C11.0293 12.9928 10.9063 12.9312 10.8022 12.8666C9.70234 12.168 8.70111 11.2567 7.73902 10.0747C7.29418 9.51231 6.99117 9.03799 6.76917 8.56313C7.029 8.32244 7.27308 8.07475 7.50894 7.8354C7.53587 7.80808 7.56268 7.78087 7.58941 7.75378C7.64218 7.70101 7.6949 7.64735 7.74725 7.59406L7.74736 7.59395C7.79994 7.54043 7.85216 7.48728 7.90432 7.43511C8.31385 7.02559 8.52457 6.54903 8.52457 6.06617C8.52457 5.58331 8.31385 5.10675 7.90432 4.69722L6.87999 3.67289C6.76347 3.55637 6.64456 3.43745 6.53329 3.31876L6.5333 3.31875L6.53219 3.31761C6.30721 3.08513 6.06964 2.84374 5.82403 2.61695C5.44408 2.24146 4.98484 2.0377 4.49797 2.0377C4.01084 2.0377 3.5441 2.24166 3.153 2.61712L3.15298 2.6171L3.15154 2.61855L3.14779 2.6223L3.14404 2.62605L3.14373 2.62636L1.86831 3.91303C1.86826 3.91308 1.86821 3.91314 1.86815 3.91319C1.37139 4.41003 1.0873 5.01721 1.0252 5.71967H1.0252L1.02515 5.72029C0.933231 6.83864 1.26253 7.87633 1.51132 8.54731C2.12379 10.1995 3.03821 11.7287 4.39858 13.3642L4.3988 13.3645C6.0511 15.3374 8.03969 16.896 10.3115 17.9942L10.3122 17.9945C11.1776 18.4046 12.3437 18.8956 13.6505 18.9795L13.6522 18.9796C13.7306 18.9833 13.8155 18.9872 13.8933 18.9872C14.7868 18.9872 15.5418 18.6649 16.1318 18.0244L16.1414 18.014L16.1426 18.0117C16.1437 18.0104 16.145 18.009 16.1462 18.0075C16.1488 18.0045 16.1517 18.0008 16.1547 17.9964C16.3306 17.7841 16.5315 17.5897 16.7479 17.3804C16.7649 17.364 16.782 17.3475 16.7992 17.3308L11.1652 13.0607ZM5.65363 8.79021L5.64237 8.75644C5.57483 8.54257 5.5148 8.22739 5.83748 7.90471C5.83991 7.89986 5.84389 7.89658 5.84843 7.89284C5.85093 7.89079 5.85358 7.88861 5.85624 7.88595C6.18268 7.59328 6.48285 7.29311 6.79803 6.97043C6.87043 6.90052 6.94117 6.82895 7.01247 6.75683C7.04831 6.72056 7.0843 6.68416 7.12071 6.64775C7.51843 6.25002 7.51843 5.88231 7.12071 5.48459L6.09638 4.46026C6.03682 4.39884 5.97725 4.33833 5.91815 4.2783C5.85811 4.21731 5.79854 4.15681 5.73993 4.0963C5.51105 3.85992 5.29342 3.63854 5.06454 3.42467L5.65363 8.79021ZM5.65363 8.79021C5.92003 9.43558 6.29524 10.0434 6.86556 10.7676L5.65363 8.79021ZM16.5548 16.0012C16.5349 16.0247 16.5136 16.0482 16.491 16.0717L16.4898 16.0705V15.9748C16.498 15.975 16.5072 15.9762 16.517 15.9793C16.5295 15.9832 16.543 15.9902 16.5548 16.0012ZM16.4076 16.0135C16.4065 16.0148 16.4054 16.0164 16.4041 16.0183C16.2898 16.1406 16.1732 16.2539 16.0485 16.3752C16.0203 16.4026 15.9917 16.4305 15.9626 16.4589C15.7188 16.6914 15.4688 16.9375 15.2332 17.2147C14.8743 17.5976 14.4551 17.7779 13.897 17.7779C13.8401 17.7779 13.7835 17.7778 13.7311 17.7743L13.7308 17.7743C12.6366 17.7043 11.6155 17.2763 10.8411 16.906C8.73056 15.8842 6.8771 14.4336 5.33647 12.5946C4.06273 11.0594 3.21377 9.64329 2.65191 8.12514L2.65181 8.12487C2.30604 7.19911 2.18289 6.48654 2.23754 5.81938C2.27308 5.40388 2.43173 5.06202 2.72639 4.76735L4.00473 3.48902C4.17676 3.32788 4.3482 3.25077 4.50548 3.25077C4.70173 3.25077 4.86873 3.37028 4.98258 3.48413L5.04992 3.41678L4.98258 3.48413L4.99383 3.49538L4.99379 3.49542L4.99627 3.49774C5.22322 3.70981 5.4394 3.92968 5.66809 4.16587L5.6681 4.16588C5.72659 4.22625 5.78596 4.28657 5.84548 4.34703L5.84686 4.34843C5.90601 4.40851 5.96532 4.46876 6.02459 4.52987L6.02458 4.52988L6.02567 4.53097L7.05 5.5553C7.23936 5.74466 7.319 5.91204 7.319 6.06617C7.319 6.22029 7.23936 6.38768 7.05 6.57704C7.01268 6.61435 6.97625 6.65121 6.94021 6.68768C6.86945 6.75927 6.80017 6.82936 6.72857 6.89849L6.72854 6.89846L6.72649 6.90056C6.4117 7.22284 6.11339 7.5211 5.78949 7.81149L5.78939 7.81138L5.78634 7.81443L5.78443 7.81601L5.78038 7.8194C5.77629 7.8229 5.76814 7.83002 5.7599 7.84092C5.58839 8.0151 5.51362 8.19261 5.49426 8.35988C5.47495 8.52666 5.51178 8.67497 5.54701 8.78655L5.547 8.78656L5.5475 8.78806L5.54753 8.78813L5.54755 8.7882L5.54757 8.78826L5.54759 8.78833L5.54761 8.78839L5.54764 8.78846L5.54766 8.78853L5.54768 8.78859L5.5477 8.78866L5.54772 8.78872L5.54775 8.78879L5.54777 8.78886L5.54779 8.78892L5.54781 8.78899L5.54783 8.78905L5.54786 8.78912L5.54788 8.78919L5.5479 8.78925L5.54792 8.78932L5.54794 8.78938L5.54797 8.78945L5.54799 8.78952L5.54801 8.78958L5.54803 8.78965L5.54805 8.78971L5.54808 8.78978L5.5481 8.78985L5.54812 8.78991L5.54814 8.78998L5.54816 8.79004L5.54819 8.79011L5.54821 8.79018L5.54823 8.79024L5.54825 8.79031L5.54827 8.79037L5.5483 8.79044L5.54832 8.79051L5.54834 8.79057L5.54836 8.79064L5.54838 8.7907L5.54841 8.79077L5.54843 8.79084L5.54845 8.7909L5.54847 8.79097L5.54849 8.79103L5.54851 8.7911L5.54854 8.79116L5.54856 8.79123L5.54858 8.7913L5.5486 8.79136L5.54862 8.79143L5.54865 8.79149L5.54867 8.79156L5.54869 8.79163L5.54871 8.79169L5.54874 8.79176L5.54876 8.79182L5.54878 8.79189L5.5488 8.79196L5.54882 8.79202L5.54884 8.79209L5.54887 8.79215L5.54889 8.79222L5.54891 8.79229L5.54893 8.79235L5.54895 8.79242L5.54898 8.79248L5.549 8.79255L5.54902 8.79262L5.54904 8.79268L5.54906 8.79275L5.54909 8.79281L5.54911 8.79288L5.54913 8.79295L5.54915 8.79301L5.54917 8.79308L5.5492 8.79314L5.54922 8.79321L5.54924 8.79328L5.54926 8.79334L5.54928 8.79341L5.54931 8.79347L5.54933 8.79354L5.54935 8.79361L5.54937 8.79367L5.54939 8.79374L5.54942 8.7938L5.54944 8.79387L5.54946 8.79393L5.54948 8.794L5.5495 8.79407L5.54953 8.79413L5.54955 8.7942L5.54957 8.79426L5.54959 8.79433L5.54961 8.7944L5.54964 8.79446L5.54966 8.79453L5.54968 8.79459L5.5497 8.79466L5.54972 8.79473L5.54975 8.79479L5.54977 8.79486L5.54979 8.79492L5.54981 8.79499L5.54983 8.79506L5.54986 8.79512L5.54988 8.79519L5.5499 8.79525L5.54992 8.79532L5.54994 8.79539L5.54997 8.79545L5.54999 8.79552L5.55001 8.79558L5.55003 8.79565L5.55005 8.79572L5.55008 8.79578L5.5501 8.79585L5.55012 8.79591L5.55014 8.79598L5.55016 8.79605L5.55019 8.79611L5.55021 8.79618L5.55023 8.79624L5.55025 8.79631L5.55027 8.79638L5.5503 8.79644L5.55032 8.79651L5.55034 8.79657L5.55036 8.79664L5.55038 8.79671L5.55041 8.79677L5.55043 8.79684L5.55045 8.7969L5.55047 8.79697L5.55049 8.79703L5.55052 8.7971L5.55054 8.79717L5.55056 8.79723L5.55058 8.7973L5.5506 8.79736L5.55063 8.79743L5.55065 8.7975L5.55067 8.79756L5.55069 8.79763L5.55071 8.79769L5.55074 8.79776L5.55076 8.79783L5.55078 8.79789L5.5508 8.79796L5.55082 8.79802L5.55085 8.79809L5.55087 8.79816L5.55089 8.79822L5.55091 8.79829L5.55093 8.79835L5.55096 8.79842L5.55098 8.79849L5.551 8.79855L5.55102 8.79862L5.55104 8.79868L5.55107 8.79875L5.55109 8.79882L5.55111 8.79888L5.55113 8.79895L5.55115 8.79901L5.55118 8.79908L5.5512 8.79915L5.55122 8.79921L5.55124 8.79928L5.55126 8.79934L5.55129 8.79941L5.55131 8.79948L5.55133 8.79954L5.55135 8.79961L5.55137 8.79967L5.5514 8.79974L5.55142 8.79981L5.55144 8.79987L5.55146 8.79994L5.55148 8.8L5.55151 8.80007L5.55153 8.80013L5.55155 8.8002L5.55157 8.80027L5.55159 8.80033L5.55162 8.8004L5.55164 8.80046L5.55166 8.80053L5.55168 8.8006L5.5517 8.80066L5.55172 8.80073L5.55175 8.80079L5.55177 8.80086L5.55179 8.80093L5.55181 8.80099L5.55184 8.80106L5.55186 8.80112L5.55188 8.80119L5.5519 8.80126L5.55192 8.80132L5.55194 8.80139L5.55197 8.80145L5.55199 8.80152L5.55201 8.80159L5.55203 8.80165L5.55205 8.80172L5.55208 8.80178L5.5521 8.80185L5.55212 8.80192L5.55214 8.80198L5.55216 8.80205L5.55219 8.80211L5.55221 8.80218L5.55223 8.80225L5.55225 8.80231L5.55227 8.80238L5.5523 8.80244L5.55232 8.80251L5.55234 8.80258L5.55236 8.80264L5.55238 8.80271L5.55241 8.80277L5.55243 8.80284L5.55245 8.8029L5.55247 8.80297L5.55249 8.80304L5.55252 8.8031L5.55254 8.80317L5.55256 8.80323L5.55258 8.8033L5.5526 8.80337L5.55263 8.80343L5.55265 8.8035L5.55267 8.80356L5.55269 8.80363L5.55271 8.8037L5.55274 8.80376L5.55276 8.80383L5.55278 8.80389L5.5528 8.80396L5.55282 8.80403L5.55285 8.80409L5.55287 8.80416L5.55289 8.80422L5.55291 8.80429L5.55293 8.80436L5.55296 8.80442L5.55298 8.80449L5.553 8.80455L5.55302 8.80462L5.55304 8.80469L5.55307 8.80475L5.55309 8.80482L5.55311 8.80488L5.55313 8.80495L5.55315 8.80502L5.55318 8.80508L5.5532 8.80515L5.55322 8.80521L5.55324 8.80528L5.55326 8.80535L5.55329 8.80541L5.55331 8.80548L5.55333 8.80554L5.55335 8.80561L5.55337 8.80568L5.5534 8.80574L5.55342 8.80581L5.55344 8.80587L5.55346 8.80594L5.55348 8.806L5.55351 8.80607L5.55353 8.80614L5.55355 8.8062L5.55357 8.80627L5.55359 8.80633L5.55362 8.8064L5.55364 8.80647L5.55366 8.80653L5.55368 8.8066L5.5537 8.80666L5.55373 8.80673L5.55375 8.8068L5.55377 8.80686L5.55379 8.80693L5.55381 8.80699L5.55384 8.80706L5.55386 8.80713L5.55388 8.80719L5.5539 8.80726L5.55392 8.80732L5.55395 8.80739L5.55397 8.80746L5.55399 8.80752L5.55401 8.80759L5.55403 8.80765L5.55406 8.80772L5.55408 8.80779L5.5541 8.80785L5.55412 8.80792L5.55414 8.80798L5.55417 8.80805L5.55419 8.80812L5.55421 8.80818L5.55423 8.80825L5.55425 8.80831L5.55428 8.80838L5.5543 8.80844L5.55432 8.80851L5.55434 8.80858L5.55436 8.80864L5.55439 8.80871L5.55441 8.80877L5.55443 8.80884L5.55445 8.80891L5.55447 8.80897L5.5545 8.80904L5.55452 8.8091L5.55454 8.80917L5.55456 8.80924L5.55458 8.8093L5.55461 8.80937L5.55463 8.80943L5.55465 8.8095L5.55467 8.80957L5.55469 8.80963L5.55472 8.8097L5.55474 8.80976L5.55476 8.80983L5.55478 8.8099L5.5548 8.80996L5.55482 8.81003L5.55485 8.81009L5.55487 8.81016L5.55489 8.81023L5.55491 8.81029L5.55493 8.81036L5.55496 8.81042L5.55498 8.81049L5.555 8.81056L5.55502 8.81062L5.55504 8.81069L5.55507 8.81075L5.55509 8.81082L5.55511 8.81089L5.55513 8.81095L5.55515 8.81102L5.55518 8.81108L5.5552 8.81115L5.55522 8.81121L5.55524 8.81128L5.55526 8.81135L5.55529 8.81141L5.55531 8.81148L5.55533 8.81154L5.55535 8.81161L5.55537 8.81168L5.5554 8.81174L5.55542 8.81181L5.55544 8.81187L5.55546 8.81194L5.55548 8.81201L5.55551 8.81207L5.55553 8.81214L5.55555 8.8122L5.55557 8.81227L5.55559 8.81234L5.55562 8.8124L5.55564 8.81247L5.55566 8.81253L5.55568 8.8126L5.5557 8.81267L5.55573 8.81273L5.55575 8.8128L5.55577 8.81286L5.55579 8.81293L5.55581 8.813L5.55584 8.81306L5.55586 8.81313L5.55588 8.81319L5.5559 8.81326L5.55592 8.81333L5.55595 8.81339L5.55597 8.81346L5.55599 8.81352L5.55601 8.81359L5.55603 8.81366L5.55606 8.81372L5.55608 8.81379L5.5561 8.81385L5.55612 8.81392L5.55614 8.81399L5.55617 8.81405L5.55619 8.81412L5.55621 8.81418L5.55623 8.81425L5.55625 8.81431L5.55628 8.81438L5.5563 8.81445L5.55632 8.81451L5.55634 8.81458L5.55636 8.81464L5.55639 8.81471L5.55641 8.81478L5.55643 8.81484L5.55645 8.81491L5.55647 8.81497L5.5565 8.81504L5.55652 8.81511L5.55654 8.81517L5.55656 8.81524L5.55658 8.8153L5.55661 8.81537L5.55663 8.81544L5.55665 8.8155L5.55667 8.81557L5.55669 8.81563L5.55672 8.8157L5.55674 8.81577L5.55676 8.81583L5.55678 8.8159L5.5568 8.81596L5.55683 8.81603L5.55685 8.8161L5.55687 8.81616L5.55689 8.81623L5.55691 8.81629L5.55694 8.81636L5.55696 8.81643L5.55698 8.81649L5.557 8.81656L5.55702 8.81662L5.55705 8.81669L5.55707 8.81676L5.55709 8.81682L5.55711 8.81689L5.55713 8.81695L5.55716 8.81702L5.55718 8.81709L5.5572 8.81715L5.55722 8.81722L5.55724 8.81728L5.55727 8.81735L5.55729 8.81741L5.55731 8.81748L5.55733 8.81755L5.55735 8.81761L5.55738 8.81768L5.5574 8.81774L5.55742 8.81781L5.55744 8.81788L5.55746 8.81794L5.55749 8.81801L5.55751 8.81807L5.55753 8.81814L5.55755 8.81821L5.55757 8.81827L5.5576 8.81834L5.55762 8.8184L5.55764 8.81847L5.55766 8.81854L5.55768 8.8186L5.5577 8.81867L5.55773 8.81873L5.55775 8.8188L5.55777 8.81887L5.55779 8.81893L5.55782 8.819L5.55784 8.81906L5.55786 8.81913L5.55788 8.8192L5.5579 8.81926L5.55792 8.81933L5.55795 8.81939L5.55797 8.81946L5.55799 8.81953L5.55801 8.81959L5.55803 8.81966L5.55806 8.81972L5.55808 8.81979L5.5581 8.81986L5.55812 8.81992L5.55815 8.81999L5.55817 8.82005L5.55819 8.82012L5.55821 8.82018L5.55823 8.82025L5.55825 8.82032L5.55828 8.82038L5.5583 8.82045L5.55832 8.82051L5.55834 8.82058L5.55836 8.82065L5.55839 8.82071L5.55841 8.82078L5.55843 8.82084L5.55845 8.82091L5.55847 8.82098L5.5585 8.82104L5.55852 8.82111L5.55854 8.82117L5.55856 8.82124L5.55858 8.82131L5.55861 8.82137L5.55863 8.82144L5.55865 8.8215L5.55867 8.82157L5.55869 8.82164L5.55872 8.8217L5.55874 8.82177L5.55876 8.82183L5.55853 8.82191L5.56119 8.82837C5.83212 9.48468 6.2129 10.1005 6.787 10.8295L6.78645 10.8299L6.79485 10.8383L6.79495 10.8384C7.83533 12.1193 8.93404 13.12 10.1476 13.8875C10.3058 13.9878 10.4672 14.0685 10.6161 14.143L10.618 14.1439C10.7541 14.212 10.8773 14.2736 10.9814 14.3383L10.9812 14.3386L10.9895 14.3427C10.9919 14.344 10.9953 14.346 11.0037 14.3512L11.0048 14.3519C11.0116 14.3562 11.0226 14.3631 11.0345 14.369L11.0792 14.2796L11.0345 14.369C11.174 14.4388 11.3093 14.4734 11.4507 14.4734C11.8036 14.4734 12.0236 14.2533 12.0906 14.1863L12.0917 14.1852L13.3749 12.902C13.498 12.7789 13.6759 12.6498 13.8708 12.6498C14.0618 12.6498 14.2282 12.7716 14.3372 12.8911L14.3371 12.8912L14.3404 12.8945L14.3404 12.8945L14.3404 12.8945L14.3404 12.8945L14.3405 12.8945L14.3405 12.8946L14.3405 12.8946L14.3405 12.8946L14.3405 12.8946L14.3406 12.8946L14.3406 12.8947L14.3406 12.8947L14.3406 12.8947L14.3407 12.8947L14.3407 12.8948L14.3407 12.8948L14.3407 12.8948L14.3407 12.8948L14.3408 12.8948L14.3408 12.8949L14.3408 12.8949L14.3408 12.8949L14.3408 12.8949L14.3409 12.8949L14.3409 12.895L14.3409 12.895L14.3409 12.895L14.3409 12.895L14.341 12.895L14.341 12.8951L14.341 12.8951L14.341 12.8951L14.341 12.8951L14.3411 12.8951L14.3411 12.8952L14.3411 12.8952L14.3411 12.8952L14.3411 12.8952L14.3412 12.8952L14.3412 12.8952L14.3412 12.8953L14.3412 12.8953L14.3412 12.8953L14.3412 12.8953L14.3413 12.8953L14.3413 12.8954L14.3413 12.8954L14.3413 12.8954L14.3413 12.8954L14.3414 12.8954L14.3414 12.8955L14.3414 12.8955L14.3414 12.8955L14.3414 12.8955L14.3414 12.8955L14.3415 12.8955L14.3415 12.8956L14.3415 12.8956L14.3415 12.8956L14.3415 12.8956L14.3416 12.8956L14.3416 12.8956L14.3416 12.8957L14.3416 12.8957L14.3416 12.8957L14.3416 12.8957L14.3417 12.8957L14.3417 12.8958L14.3417 12.8958L14.3417 12.8958L14.3417 12.8958L14.3417 12.8958L14.3418 12.8958L14.3418 12.8959L14.3418 12.8959L14.3418 12.8959L14.3418 12.8959L14.3418 12.8959L14.3419 12.8959L14.3419 12.896L14.3419 12.896L14.3419 12.896L14.3419 12.896L14.3419 12.896L14.342 12.896L14.342 12.896L14.342 12.8961L14.342 12.8961L14.342 12.8961L14.342 12.8961L14.342 12.8961L14.3421 12.8961L14.3421 12.8962L14.3421 12.8962L14.3421 12.8962L14.3421 12.8962L14.3421 12.8962L14.3422 12.8962L14.3422 12.8962L14.3422 12.8963L14.3422 12.8963L14.3422 12.8963L14.3422 12.8963L14.3422 12.8963L14.3423 12.8963L14.3423 12.8964L14.3423 12.8964L14.3423 12.8964L14.3423 12.8964L14.3423 12.8964L14.3423 12.8964L14.3424 12.8964L14.3424 12.8965L14.3424 12.8965L14.3424 12.8965L14.3424 12.8965L14.3424 12.8965L14.3424 12.8965L14.3425 12.8965L14.3425 12.8966L14.3425 12.8966L14.3425 12.8966L14.3425 12.8966L14.3425 12.8966L14.3425 12.8966L14.3426 12.8966L14.3426 12.8967L14.3426 12.8967L14.3426 12.8967L14.3426 12.8967L14.3426 12.8967L14.3426 12.8967L14.3427 12.8967L14.3427 12.8967L14.3427 12.8968L14.3427 12.8968L14.3427 12.8968L14.3427 12.8968L14.3427 12.8968L14.3428 12.8968L14.3428 12.8968L14.3428 12.8969L14.3428 12.8969L14.3428 12.8969L14.3428 12.8969L14.3428 12.8969L14.3428 12.8969L14.3429 12.8969L14.3429 12.8969L14.3429 12.897L14.3429 12.897L14.3429 12.897L14.3429 12.897L14.3429 12.897L14.3429 12.897L14.343 12.897L14.343 12.8971L14.343 12.8971L14.343 12.8971L14.343 12.8971L14.343 12.8971L14.343 12.8971L14.343 12.8971L14.3431 12.8971L14.3431 12.8972L14.3431 12.8972L14.3431 12.8972L14.3431 12.8972L14.3431 12.8972L14.3431 12.8972L14.3431 12.8972L14.3432 12.8972L14.3432 12.8972L14.3432 12.8973L14.3432 12.8973L14.3432 12.8973L14.3432 12.8973L14.3432 12.8973L14.3432 12.8973L14.3433 12.8973L14.3433 12.8973L14.3433 12.8974L14.3433 12.8974L14.3433 12.8974L14.3433 12.8974L14.3433 12.8974L14.3433 12.8974L14.3433 12.8974L14.3434 12.8974L14.3434 12.8975L14.3434 12.8975L14.3434 12.8975L14.3434 12.8975L14.3434 12.8975L14.3434 12.8975L14.3434 12.8975L14.3435 12.8975L14.3435 12.8975L14.3435 12.8976L14.3435 12.8976L14.3435 12.8976L14.3435 12.8976L14.3435 12.8976L14.3435 12.8976L14.3435 12.8976L14.3436 12.8976L14.3436 12.8976L14.3436 12.8977L14.3436 12.8977L14.3436 12.8977L14.3436 12.8977L14.3436 12.8977L14.3436 12.8977L14.3436 12.8977L14.3437 12.8977L14.3437 12.8978L14.3437 12.8978L14.3437 12.8978L14.3437 12.8978L14.3437 12.8978L14.3437 12.8978L14.3437 12.8978L14.3438 12.8978L14.3438 12.8978L14.3438 12.8979L14.3438 12.8979L14.3438 12.8979L14.3438 12.8979L14.3438 12.8979L14.3438 12.8979L14.3438 12.8979L14.3439 12.8979L14.3439 12.8979L14.3439 12.898L14.3439 12.898L14.3439 12.898L14.3439 12.898L14.3439 12.898L14.3439 12.898L14.3439 12.898L14.344 12.898L14.344 12.898L14.344 12.8981L14.344 12.8981L14.344 12.8981L14.344 12.8981L14.344 12.8981L14.344 12.8981L14.344 12.8981L14.344 12.8981L14.3441 12.8981L14.3441 12.8982L14.3441 12.8982L14.3441 12.8982L14.3441 12.8982L14.3441 12.8982L14.3441 12.8982L14.3441 12.8982L14.3441 12.8982L14.3442 12.8982L14.3442 12.8982L14.3442 12.8983L14.3442 12.8983L14.3442 12.8983L14.3442 12.8983L14.3442 12.8983L14.3442 12.8983L14.3442 12.8983L14.3443 12.8983L14.3443 12.8983L14.3443 12.8984L14.3443 12.8984L14.3443 12.8984L14.3443 12.8984L14.3443 12.8984L14.3443 12.8984L14.3443 12.8984L14.3444 12.8984L14.3444 12.8984L14.3444 12.8985L14.3444 12.8985L14.3444 12.8985L14.3444 12.8985L14.3444 12.8985L14.3444 12.8985L14.3444 12.8985L14.3445 12.8985L14.3445 12.8985L14.3445 12.8986L14.3445 12.8986L14.3445 12.8986L14.3445 12.8986L14.3445 12.8986L14.3445 12.8986L14.3445 12.8986L14.3446 12.8986L14.3446 12.8986L14.3446 12.8987L14.3446 12.8987L14.3446 12.8987L14.3446 12.8987L14.3446 12.8987L14.3446 12.8987L14.3446 12.8987L14.3447 12.8987L14.3447 12.8988L14.3447 12.8988L14.3447 12.8988L14.3447 12.8988L14.3447 12.8988L14.3447 12.8988L14.3447 12.8988L14.3448 12.8988L14.3448 12.8988L14.3448 12.8989L14.3448 12.8989L14.3448 12.8989L14.3448 12.8989L14.3448 12.8989L14.3448 12.8989L14.3448 12.8989L14.3449 12.8989L14.3449 12.8989L14.3449 12.899L14.3449 12.899L14.3449 12.899L14.3449 12.899L14.3449 12.899L14.3449 12.899L14.345 12.899L14.345 12.899L14.345 12.8991L14.345 12.8991L14.345 12.8991L14.345 12.8991L14.345 12.8991L14.345 12.8991L14.345 12.8991L14.3451 12.8991L14.3451 12.8991L14.3451 12.8992L14.3451 12.8992L14.3451 12.8992L14.3451 12.8992L14.3451 12.8992L14.3451 12.8992L14.3452 12.8992L14.3452 12.8992L14.3452 12.8993L14.3452 12.8993L14.3452 12.8993L14.3452 12.8993L14.3452 12.8993L14.3452 12.8993L14.3453 12.8993L14.3453 12.8993L14.3453 12.8994L14.3453 12.8994L14.3453 12.8994L14.3453 12.8994L14.3453 12.8994L14.3453 12.8994L14.3454 12.8994L14.3454 12.8995L14.3454 12.8995L14.3454 12.8995L14.3454 12.8995L14.3454 12.8995L14.3454 12.8995L14.3454 12.8995L14.3455 12.8995L14.3455 12.8996L14.3455 12.8996L14.3455 12.8996L14.3455 12.8996L14.3455 12.8996L14.3455 12.8996L14.3456 12.8996L14.3456 12.8996L14.3456 12.8997L14.3456 12.8997L14.3456 12.8997L14.3456 12.8997L14.3456 12.8997L14.3457 12.8997L14.3457 12.8997L14.3457 12.8998L14.3457 12.8998L14.3457 12.8998L14.3457 12.8998L14.3457 12.8998L14.3457 12.8998L14.3458 12.8998L14.3458 12.8999L14.3458 12.8999L14.3458 12.8999L14.3458 12.8999L14.3458 12.8999L14.3458 12.8999L14.3459 12.8999L14.3459 12.9L14.3459 12.9L14.3459 12.9L14.3459 12.9L14.3459 12.9L14.346 12.9L14.346 12.9L14.346 12.9001L14.346 12.9001L14.346 12.9001L14.346 12.9001L14.346 12.9001L14.3461 12.9001L14.3461 12.9001L14.3461 12.9002L14.3461 12.9002L14.3461 12.9002L14.3461 12.9002L14.3461 12.9002L14.3462 12.9002L14.3462 12.9003L14.3462 12.9003L14.3462 12.9003L14.3462 12.9003L14.3462 12.9003L14.3463 12.9003L14.3463 12.9003L14.3463 12.9004L14.3463 12.9004L14.3463 12.9004L14.3463 12.9004L14.3464 12.9004L14.3464 12.9004L14.3464 12.9005L14.3464 12.9005L14.3464 12.9005L14.3464 12.9005L14.3464 12.9005L14.3465 12.9005L14.3465 12.9006L14.3465 12.9006L14.3465 12.9006L14.3465 12.9006L14.3465 12.9006L14.3466 12.9006L14.3466 12.9007L14.3466 12.9007L14.3466 12.9007L14.3466 12.9007L14.3467 12.9007L14.3467 12.9007L14.3467 12.9008L14.3467 12.9008L14.3467 12.9008L14.3467 12.9008L14.3468 12.9008L14.3468 12.9009L14.3468 12.9009L14.3468 12.9009L14.3468 12.9009L14.3468 12.9009L14.3469 12.9009L14.3469 12.901L14.3469 12.901L14.3469 12.901L14.3469 12.901L14.347 12.901L14.347 12.9011L14.347 12.9011L14.347 12.9011L14.347 12.9011L14.347 12.9011L14.3471 12.9011L14.3471 12.9012L14.3471 12.9012L14.3471 12.9012L14.3471 12.9012L14.3472 12.9012L14.3472 12.9013L14.3472 12.9013L14.3472 12.9013L14.3472 12.9013L14.3473 12.9013L14.3473 12.9014L14.3473 12.9014L14.3473 12.9014L14.3473 12.9014L14.3474 12.9014L14.3474 12.9015L14.3474 12.9015L14.3474 12.9015L14.3474 12.9015L14.3475 12.9015L14.3475 12.9016L14.3475 12.9016L14.3475 12.9016L14.3475 12.9016L14.3476 12.9016L14.3476 12.9017L14.3476 12.9017L14.3476 12.9017L14.3476 12.9017L14.3477 12.9017L14.3477 12.9018L14.3477 12.9018L14.3477 12.9018L14.3477 12.9018L14.3478 12.9018L14.3478 12.9019L14.3478 12.9019L14.3478 12.9019L14.3479 12.9019L14.3479 12.902L16.4153 14.9694L16.4156 14.9697C16.5973 15.1496 16.6759 15.3199 16.6763 15.4805C16.6767 15.6389 16.6011 15.8101 16.4267 15.9943C16.4203 15.9993 16.4136 16.0055 16.4076 16.0135Z" fill="#727272" stroke="#727272" stroke-width="0.2"/>
<path d="M15.232 9.78106L15.2321 9.78113L15.2357 9.78055C15.5694 9.72642 15.7884 9.41107 15.7348 9.0805L15.7347 9.07971C15.5286 7.86967 14.9559 6.76652 14.0822 5.89277C13.2084 5.01902 12.1053 4.44636 10.8952 4.24023L10.8952 4.24023L10.8945 4.2401C10.5632 4.18638 10.2531 4.40601 10.1947 4.73401C10.1365 5.06057 10.351 5.38108 10.6858 5.43554C11.6478 5.59715 12.5219 6.0524 13.2203 6.75085C13.9186 7.44912 14.3704 8.32328 14.5357 9.28581C14.5854 9.58309 14.8423 9.78934 15.1333 9.78934C15.167 9.78934 15.1973 9.78548 15.2231 9.7822C15.2261 9.78181 15.2291 9.78143 15.232 9.78106Z" fill="#727272" stroke="#727272" stroke-width="0.2"/>
<path d="M10.338 1.5123L10.338 1.5123L10.3378 1.51382C10.284 1.84551 10.5041 2.15541 10.8356 2.21366L10.8362 2.21376C12.5639 2.50665 14.1398 3.32593 15.3936 4.576C16.6473 5.82965 17.4629 7.40543 17.7558 9.1332C17.8054 9.43055 18.0623 9.63686 18.3534 9.63686C18.3871 9.63686 18.4174 9.63301 18.4432 9.62972C18.4462 9.62933 18.4492 9.62895 18.4521 9.62859L18.4521 9.62862L18.4546 9.62824C18.7844 9.57856 19.0092 9.26335 18.9511 8.93473C18.6136 6.95554 17.6808 5.15449 16.2479 3.72165C14.8152 2.2889 13.0143 1.35608 11.0352 1.01858C10.705 0.959987 10.3961 1.18621 10.338 1.5123Z" fill="#727272" stroke="#727272" stroke-width="0.2"/>
</svg>
