<svg width="18" height="18" viewBox="0 0 18 18" fill="none" xmlns="http://www.w3.org/2000/svg">
<path d="M9.73568 8.68479L12.1944 10.5288L12.1944 10.5288L12.1644 10.5688C12.4687 10.7967 12.5307 11.2284 12.3021 11.5321C12.1671 11.7139 11.9605 11.8082 11.7505 11.8082C11.6067 11.8082 11.462 11.7635 11.3381 11.6705L9.73568 8.68479ZM9.73568 8.68479V4.92292C9.73568 4.51454 9.40552 4.18437 8.99714 4.18437C8.58876 4.18437 8.25859 4.51454 8.25859 4.92292V9.0541C8.25859 9.28659 8.36782 9.50597 8.55401 9.64493L9.73568 8.68479Z" fill="#727272" stroke="#727272" stroke-width="0.1"/>
<path d="M8.99826 0.059375C4.06902 0.059375 0.059375 4.06902 0.059375 8.99826C0.059375 13.9275 4.06902 17.9372 8.99826 17.9372C13.9275 17.9372 17.9372 13.9275 17.9372 8.99826C17.9372 4.06902 13.9275 0.059375 8.99826 0.059375ZM8.99826 16.4601C4.88439 16.4601 1.53642 13.1121 1.53642 8.99826C1.53642 4.88439 4.88439 1.53642 8.99826 1.53642C13.1128 1.53642 16.4601 4.88438 16.4601 8.99826C16.4601 13.1121 13.1121 16.4601 8.99826 16.4601Z" fill="#727272" stroke="#727272" stroke-width="0.1"/>
</svg>
