<svg width="287" height="96" viewBox="0 0 287 96" fill="none" xmlns="http://www.w3.org/2000/svg">
<path d="M287 74C287 59.7295 222.753 33 143.5 33C64.2471 33 0 59.7295 0 74C0 74 64.2471 74 143.5 74C222.753 74 287 74 287 74Z" fill="url(#paint0_linear_757_5756)" fill-opacity="0.15"/>
<path d="M188 87.8533C188 82.4115 168.077 80 143.5 80C118.923 80 99 82.4115 99 87.8533C99 93.2951 118.923 96 143.5 96C168.077 96 188 93.2951 188 87.8533Z" fill="#F78D8D" fill-opacity="0.15"/>
<rect x="98.3047" y="8.29688" width="66.4496" height="76.1503" rx="7" transform="rotate(-7.03859 98.3047 8.29688)" fill="url(#paint1_linear_757_5756)"/>
<path d="M99.3119 16.1117C98.3691 12.0614 101.145 8.08711 105.272 7.57752L157.176 1.16894C161.358 0.652675 165.045 3.92022 165.034 8.13334L165.026 11.5093C165.02 14.0324 163.135 16.1555 160.63 16.4604L105.537 23.1668C103.002 23.4754 100.642 21.8242 100.063 19.337L99.3119 16.1117Z" fill="#DD6E00" fill-opacity="0.6"/>
<path d="M99.5963 16.514C98.2489 12.3327 101.041 7.95807 105.401 7.41975L157.03 1.04528C161.406 0.504934 165.186 4.09679 164.869 8.49503L164.725 10.5038C164.553 12.8861 162.721 14.8145 160.35 15.1071L105.589 21.8685C103.207 22.1625 100.953 20.7235 100.217 18.4397L99.5963 16.514Z" fill="url(#paint2_linear_757_5756)"/>
<circle cx="131.526" cy="13.1401" r="3.89249" transform="rotate(-7.03859 131.526 13.1401)" fill="white"/>
<path opacity="0.2" d="M134.063 22.9206C134.79 16.8179 140.798 12.8089 146.712 14.4803L149.496 15.267C152.733 16.1819 155.294 18.663 156.31 21.8699L170.86 67.7952C173.138 74.9858 166.938 82.0138 159.52 80.6508L137.112 76.5339C131.921 75.5802 128.365 70.7565 128.989 65.5157L134.063 22.9206Z" fill="#9D031B" fill-opacity="0.5"/>
<rect x="137.389" y="13.4922" width="51.019" height="62.5693" rx="8" transform="rotate(10.7778 137.389 13.4922)" fill="url(#paint3_linear_757_5756)"/>
<path opacity="0.2" d="M122.874 29.667C122.925 24.0185 127.64 19.5332 133.284 19.7652L154.063 20.6194C159.352 20.8368 163.556 25.1388 163.651 30.4317L164.377 70.9351C164.476 76.4571 160.08 81.0138 154.558 81.1128L132.678 81.5051C127.051 81.606 122.449 77.0449 122.499 71.4169L122.874 29.667Z" fill="#9D031B" fill-opacity="0.5"/>
<path opacity="0.2" d="M127.009 28.9627C127.279 23.457 131.954 19.2085 137.46 19.464L164.633 20.725C167.122 20.8405 169.478 21.8812 171.24 23.6432L172.683 25.0859L173.96 26.4906C175.813 28.5295 176.744 31.2429 176.531 33.9902L173.431 73.9811C173.014 79.3583 168.408 83.4362 163.02 83.1985L134.468 81.9387C128.931 81.6944 124.649 76.9935 124.921 71.4578L127.009 28.9627Z" fill="#9D031B" fill-opacity="0.5"/>
<path d="M125.037 26.9705C125.253 22.566 128.993 19.1672 133.398 19.3716L163.337 20.7609C165.328 20.8533 167.213 21.6858 168.623 23.0954L170.613 25.0859L172.567 27.2356C173.993 28.8043 174.739 30.8749 174.639 32.9926L172.62 75.9381C172.412 80.3581 168.656 83.7699 164.237 83.5528L130.349 81.8882C125.936 81.6714 122.534 77.9183 122.751 73.5053L125.037 26.9705Z" fill="#F5E2E2"/>
<path d="M174.773 32.614C174.773 32.2795 174.355 30.1052 174.266 29.6871L172.922 28.0146L171.353 26.5798L171.13 26.342L167.994 23.4151C167.994 23.4151 166.937 22.8291 166.202 22.5788C165.306 22.2737 163.902 20.9062 163.902 20.9062L165.574 30.9415L174.773 35.1229C174.923 33.5897 174.773 32.9486 174.773 32.614Z" fill="#DD6E00" fill-opacity="0.1"/>
<path d="M174.773 32.1959C174.773 31.8614 174.773 29.6871 173.937 28.8508L172.683 27.1783L171.218 25.7435L171.01 25.5057L168.083 22.5788C168.083 22.5788 166.679 21.5747 165.993 21.3244C165.156 21.0193 163.902 20.9062 163.902 20.9062L166.411 30.1052L174.773 34.7047V32.1959Z" fill="#FDB96C"/>
<rect x="136.029" y="38.4688" width="27.6469" height="2.45882" transform="rotate(1.90456 136.029 38.4688)" fill="#DE181F"/>
<rect x="129.975" y="46.9062" width="37.5631" height="2.45882" transform="rotate(1.90456 129.975 46.9062)" fill="#C4C4C4"/>
<rect x="129.696" y="52.6758" width="37.5631" height="2.45882" transform="rotate(1.90456 129.696 52.6758)" fill="#C4C4C4"/>
<defs>
<linearGradient id="paint0_linear_757_5756" x1="143.03" y1="31.5561" x2="143.03" y2="73.7901" gradientUnits="userSpaceOnUse">
<stop stop-color="#F78D8D"/>
<stop offset="1" stop-color="white"/>
</linearGradient>
<linearGradient id="paint1_linear_757_5756" x1="131.287" y1="17.7593" x2="131.287" y2="94.1349" gradientUnits="userSpaceOnUse">
<stop stop-color="#FFBF74"/>
<stop offset="1" stop-color="#F4973B"/>
</linearGradient>
<linearGradient id="paint2_linear_757_5756" x1="129.984" y1="-1.03393" x2="132.986" y2="20.4241" gradientUnits="userSpaceOnUse">
<stop stop-color="#FFBF74"/>
<stop offset="1" stop-color="#F4973B"/>
</linearGradient>
<linearGradient id="paint3_linear_757_5756" x1="166.021" y1="-60.3369" x2="162.557" y2="83.4152" gradientUnits="userSpaceOnUse">
<stop stop-color="#FFC59A"/>
<stop offset="0.774583" stop-color="#FF826E"/>
<stop offset="1" stop-color="#FF7062"/>
</linearGradient>
</defs>
</svg>
