<svg width="287" height="106" viewBox="0 0 287 106" fill="none" xmlns="http://www.w3.org/2000/svg">
<path d="M287 87C287 72.7295 222.753 46 143.5 46C64.2471 46 0 72.7295 0 87C0 87 64.2471 87 143.5 87C222.753 87 287 87 287 87Z" fill="url(#paint0_linear)" fill-opacity="0.15"/>
<path d="M181 97.8533C181 92.4115 161.972 90 138.5 90C115.028 90 96 92.4115 96 97.8533C96 103.295 115.028 106 138.5 106C161.972 106 181 103.295 181 97.8533Z" fill="#F78D8D" fill-opacity="0.15"/>
<path d="M162.404 40.0372L161.749 40.2639C165.433 38.9887 167.406 35.0007 166.207 31.3092C164.97 27.4997 158.711 26.6498 154.926 27.96L137.373 33.5836C136.661 33.83 135.929 33.2673 135.985 32.5162L136.554 24.8499C136.586 24.4238 136.576 23.9957 136.526 23.5712L136.123 20.1604C135.336 13.4988 128.592 9.27124 122.253 11.4655C120.305 12.1396 119.048 14.0312 119.18 16.0878L119.773 25.346C119.816 26.0176 119.774 26.6919 119.648 27.3529L116.589 43.4369C116.504 43.909 116.1 45.6989 115.632 47.0156C115.257 48.0738 114.421 48.9361 113.701 49.7973C112.331 51.4344 111.902 53.6617 112.565 55.6906L120.47 79.8936C121.536 83.1553 124.563 85.3743 127.994 85.4092L129.09 85.4203C129.339 85.4228 129.585 85.4369 129.832 85.4594C131.542 85.6149 138.841 86.1952 144.496 85.3509C150.944 84.3882 153.935 82.9618 156.377 82.1166L170.68 75.1702C173.684 74.1304 175.408 70.8964 174.451 67.865C173.458 64.72 170.074 63.033 166.978 64.1048L169.034 63.3932C172.061 62.3452 173.666 59.0411 172.618 56.0135C171.57 52.9859 168.266 51.381 165.239 52.429L166.662 51.9363C170.016 50.7755 171.766 47.0737 170.506 43.7312C169.291 40.5099 165.658 38.911 162.404 40.0372Z" fill="url(#paint1_linear)"/>
<path opacity="0.2" d="M137.896 33.8095L132.544 37.0852C132.023 37.4044 131.235 37.0634 130.781 36.3217C130.328 35.5819 130.382 34.7238 130.903 34.4046L134.692 32.086C135.314 31.705 136.113 32.1529 136.113 32.8827C136.113 32.9617 136.121 33.0416 136.152 33.1143C136.419 33.7417 137.469 34.0711 137.896 33.8095Z" fill="#9D031B" fill-opacity="0.5"/>
<path opacity="0.2" d="M162.404 40.0367C163.905 39.5172 164.062 41.1257 162.561 41.6452L155.716 44.0145C154.894 44.299 154.002 43.8652 153.717 43.0436C153.433 42.2238 153.866 41.329 154.688 41.0446L160.894 38.8965C162.412 38.3708 163.267 39.7379 161.748 40.2636L162.404 40.0367Z" fill="#9D031B" fill-opacity="0.5"/>
<path opacity="0.2" d="M165.241 52.4291C166.723 51.916 166.856 53.5329 165.374 54.046L158.615 56.3856C157.793 56.67 156.899 56.2344 156.616 55.4147C156.332 54.5949 156.765 53.7001 157.587 53.4157L165.787 50.5773C167.284 50.0588 168.162 51.4178 166.664 51.9363L165.241 52.4291Z" fill="#9D031B" fill-opacity="0.5"/>
<path opacity="0.2" d="M166.979 64.105C168.462 63.5916 168.597 65.208 167.113 65.7215L159.933 68.2069C159.111 68.4913 158.218 68.0557 157.934 67.236C157.65 66.4162 158.083 65.5214 158.905 65.237L168.139 62.0406C169.621 61.5274 170.516 62.8806 169.034 63.3937L166.979 64.105Z" fill="#9D031B" fill-opacity="0.5"/>
<rect x="89.1562" y="52.082" width="23" height="48.1397" rx="8" transform="rotate(-17.6538 89.1562 52.082)" fill="url(#paint2_linear)"/>
<circle cx="116.996" cy="86.3152" r="2.5" transform="rotate(-4.09324 116.996 86.3152)" fill="white"/>
<path d="M173.5 97C182.613 97 190 89.6127 190 80.5C190 71.3873 182.613 64 173.5 64C164.387 64 157 71.3873 157 80.5C157 89.6127 164.387 97 173.5 97Z" fill="url(#paint3_linear)"/>
<path d="M171.294 87C170.827 87 170.36 86.8153 170.004 86.4457L166.534 82.8459C165.822 82.1069 165.822 80.9087 166.534 80.1695C167.247 79.4304 168.402 79.4304 169.114 80.1695L171.013 82.1395C171.168 82.3006 171.42 82.3006 171.575 82.1395L178.886 74.5542C179.599 73.8152 180.754 73.8153 181.466 74.5542C182.178 75.2933 182.178 76.4916 181.466 77.2306L172.584 86.4457C172.228 86.8152 171.761 87 171.294 87Z" fill="#F8F3F1"/>
<defs>
<linearGradient id="paint0_linear" x1="143.03" y1="44.5561" x2="143.03" y2="86.7901" gradientUnits="userSpaceOnUse">
<stop stop-color="#F78D8D"/>
<stop offset="1" stop-color="white"/>
</linearGradient>
<linearGradient id="paint1_linear" x1="134.999" y1="29.5015" x2="159.815" y2="148.145" gradientUnits="userSpaceOnUse">
<stop stop-color="#FFC59A"/>
<stop offset="0.774583" stop-color="#FF826E"/>
<stop offset="1" stop-color="#FF7062"/>
</linearGradient>
<linearGradient id="paint2_linear" x1="63.6963" y1="-8.57782" x2="97.0941" y2="99.2082" gradientUnits="userSpaceOnUse">
<stop stop-color="#FFC59A"/>
<stop offset="1" stop-color="#F95849"/>
</linearGradient>
<linearGradient id="paint3_linear" x1="190" y1="77.5" x2="154.5" y2="76.5" gradientUnits="userSpaceOnUse">
<stop stop-color="#2DAA00"/>
<stop offset="1" stop-color="#35C800"/>
</linearGradient>
</defs>
</svg>
