<svg width="288" height="106" viewBox="0 0 288 106" fill="none" xmlns="http://www.w3.org/2000/svg">
<path d="M287.523 82C287.523 67.7295 223.276 41 144.023 41C64.7706 41 0.523438 67.7295 0.523438 82C0.523438 82 64.7706 82 144.023 82C223.276 82 287.523 82 287.523 82Z" fill="url(#paint0_linear_3788_40654)" fill-opacity="0.15"/>
<path d="M189.023 95.8533C189.023 90.4115 168.876 88 144.023 88C119.171 88 99.0234 90.4115 99.0234 95.8533C99.0234 101.295 119.171 104 144.023 104C168.876 104 189.023 101.295 189.023 95.8533Z" fill="#F78D8D" fill-opacity="0.15"/>
<path d="M180.389 62.9948L194.91 48.4736L188.068 48.4736L188.068 35.625L172.71 35.625L172.71 48.4736L165.868 48.4736L180.389 62.9948Z" fill="#DE181F"/>
<path d="M154.579 6.43321C154.169 3.55881 150.721 0.970814 147.559 1.42141L108.18 7.03336C105.018 7.48395 102.43 10.9322 102.84 13.8066L114.248 93.8584C114.678 96.8765 118.106 99.3208 121.268 98.8702L160.791 93.2378C163.809 92.8077 166.54 89.339 166.131 86.4646L154.723 6.41273L154.579 6.43321Z" fill="#DD6E00" fill-opacity="0.6"/>
<path d="M164.389 85.5421C164.798 88.4165 162.333 91.7005 159.459 92.1102L122.092 97.4354C119.217 97.845 115.933 95.3802 115.524 92.5058L104.464 14.8972C104.054 12.0228 106.519 8.73881 109.393 8.32918L146.76 3.00397C149.635 2.59434 152.919 5.0591 153.328 7.93349L164.389 85.5421Z" fill="url(#paint1_linear_3788_40654)"/>
<path d="M107.574 16.1254C107.233 13.7348 108.895 11.5207 111.286 11.18L145.744 6.26926C148.135 5.92858 150.349 7.59034 150.69 9.9809L161.186 83.633C161.527 86.0236 159.865 88.2377 157.474 88.5784L123.015 93.4891C120.625 93.8298 118.411 92.168 118.07 89.7775L107.574 16.1254Z" fill="white"/>
<path d="M119.136 25.2717C119.238 25.9903 118.725 26.5034 118.15 26.5853L113.407 27.2612C112.689 27.3636 112.176 26.8502 112.094 26.2753L111.418 21.5326C111.315 20.814 111.829 20.3009 112.404 20.219L117.146 19.5431C117.865 19.4407 118.378 19.9541 118.46 20.529L119.136 25.2717Z" fill="#C4C4C4"/>
<path d="M129.198 23.842C129.301 24.5606 128.787 25.0737 128.213 25.1556L123.47 25.8315C122.751 25.9339 122.238 25.4205 122.156 24.8456L121.48 20.1029C121.378 19.3843 121.891 18.8712 122.466 18.7893L127.209 18.1134C127.928 18.011 128.441 18.5244 128.523 19.0993L129.198 23.842Z" fill="#C4C4C4"/>
<path d="M139.257 22.4084C139.359 23.127 138.846 23.6401 138.271 23.722L133.528 24.3979C132.81 24.5003 132.297 23.9869 132.215 23.412L131.539 18.6693C131.436 17.9507 131.95 17.4376 132.525 17.3557L137.268 16.6798C137.986 16.5774 138.499 17.0908 138.581 17.6657L139.257 22.4084Z" fill="#C4C4C4"/>
<path d="M149.32 20.9748C149.422 21.6934 148.908 22.2065 148.334 22.2885L143.591 22.9643C142.872 23.0668 142.359 22.5533 142.277 21.9784L141.601 17.2357C141.499 16.5171 142.012 16.004 142.587 15.9221L147.33 15.2462C148.049 15.1438 148.562 15.6572 148.644 16.2321L149.32 20.9748Z" fill="#C4C4C4"/>
<path d="M128.191 88.7991C128.293 89.5177 127.78 90.0308 127.205 90.1127L122.462 90.7886C121.743 90.891 121.23 90.3775 121.148 89.8027L120.472 85.0599C120.37 84.3413 120.883 83.8282 121.458 83.7463L126.201 83.0704C126.92 82.968 127.433 83.4814 127.515 84.0563L128.191 88.7991Z" fill="url(#paint2_linear_3788_40654)"/>
<path d="M138.253 87.3655C138.356 88.0841 137.842 88.5972 137.267 88.6791L132.524 89.355C131.806 89.4574 131.293 88.944 131.211 88.3691L130.535 83.6263C130.433 82.9077 130.946 82.3946 131.521 82.3127L136.264 81.6368C136.982 81.5344 137.495 82.0478 137.577 82.6227L138.253 87.3655Z" fill="url(#paint3_linear_3788_40654)"/>
<path d="M148.312 85.9319C148.414 86.6505 147.901 87.1636 147.326 87.2455L142.583 87.9214C141.864 88.0238 141.351 87.5104 141.269 86.9355L140.594 82.1927C140.491 81.4741 141.005 80.961 141.579 80.8791L146.322 80.2032C147.041 80.1008 147.554 80.6143 147.636 81.1891L148.312 85.9319Z" fill="url(#paint4_linear_3788_40654)"/>
<path d="M158.37 84.4944C158.473 85.213 157.959 85.7261 157.384 85.808L152.642 86.4839C151.923 86.5863 151.41 86.0729 151.328 85.498L150.652 80.7552C150.55 80.0366 151.063 79.5235 151.638 79.4416L156.381 78.7657C157.099 78.6633 157.612 79.1768 157.694 79.7516L158.37 84.4944Z" fill="url(#paint5_linear_3788_40654)"/>
<path d="M121.761 43.6702C121.863 44.3888 121.35 44.9018 120.775 44.9838L116.032 45.6597C115.314 45.7621 114.801 45.2486 114.719 44.6738L114.043 39.931C113.94 39.2124 114.454 38.6993 115.029 38.6174L119.771 37.9415C120.49 37.8391 121.003 38.3525 121.085 38.9274L121.761 43.6702Z" fill="#C4C4C4"/>
<path d="M131.823 42.2366C131.926 42.9552 131.412 43.4682 130.838 43.5502L126.095 44.2261C125.376 44.3285 124.863 43.815 124.781 43.2402L124.105 38.4974C124.003 37.7788 124.516 37.2657 125.091 37.1838L129.834 36.5079C130.553 36.4055 131.066 36.9189 131.148 37.4938L131.823 42.2366Z" fill="#C4C4C4"/>
<path d="M141.882 40.803C141.984 41.5216 141.471 42.0347 140.896 42.1166L136.153 42.7925C135.435 42.8949 134.922 42.3814 134.84 41.8066L134.164 37.0638C134.061 36.3452 134.575 35.8321 135.15 35.7502L139.893 35.0743C140.611 34.9719 141.124 35.4853 141.206 36.0602L141.882 40.803Z" fill="#C4C4C4"/>
<path d="M120.448 34.4709C120.551 35.1895 120.037 35.7026 119.463 35.7845L114.72 36.4604C114.001 36.5628 113.488 36.0494 113.406 35.4745L112.73 30.7318C112.628 30.0132 113.141 29.5001 113.716 29.4182L118.459 28.7423C119.178 28.6399 119.691 29.1533 119.773 29.7282L120.448 34.4709Z" fill="#C4C4C4"/>
<path d="M130.511 33.0373C130.613 33.7559 130.1 34.269 129.525 34.351L124.782 35.0268C124.064 35.1293 123.551 34.6158 123.469 34.0409L122.793 29.2982C122.69 28.5796 123.204 28.0665 123.779 27.9846L128.521 27.3087C129.24 27.2063 129.753 27.7197 129.835 28.2946L130.511 33.0373Z" fill="#C4C4C4"/>
<path d="M140.57 31.6077C140.672 32.3263 140.158 32.8393 139.584 32.9213L134.841 33.5972C134.122 33.6996 133.609 33.1861 133.527 32.6113L132.851 27.8685C132.749 27.1499 133.262 26.6368 133.837 26.5549L138.58 25.879C139.299 25.7766 139.812 26.29 139.894 26.8649L140.57 31.6077Z" fill="#C4C4C4"/>
<path d="M150.628 30.1741C150.731 30.8927 150.217 31.4057 149.642 31.4877L144.899 32.1636C144.181 32.266 143.668 31.7525 143.586 31.1777L142.91 26.4349C142.808 25.7163 143.321 25.2032 143.896 25.1213L148.639 24.4454C149.357 24.343 149.87 24.8564 149.952 25.4313L150.628 30.1741Z" fill="#DE181F"/>
<path d="M136.413 12.3766C137.207 12.2635 137.759 11.5283 137.646 10.7346C137.532 9.94085 136.797 9.3891 136.004 9.50222C135.21 9.61533 134.658 10.3505 134.771 11.1442C134.884 11.938 135.619 12.4897 136.413 12.3766Z" fill="#DD6E00" fill-opacity="0.6"/>
<path d="M132.253 11.5014C132.314 11.9326 132.212 12.2405 131.924 12.2815L124.163 13.3875C123.876 13.4284 123.691 13.1615 123.63 12.7303C123.589 12.4429 123.671 11.9912 123.959 11.9503L131.719 10.8443C132.007 10.8033 132.212 11.214 132.253 11.5014Z" fill="#DD6E00" fill-opacity="0.6"/>
<defs>
<linearGradient id="paint0_linear_3788_40654" x1="143.553" y1="39.5561" x2="143.553" y2="81.7901" gradientUnits="userSpaceOnUse">
<stop stop-color="#F78D8D"/>
<stop offset="1" stop-color="white"/>
</linearGradient>
<linearGradient id="paint1_linear_3788_40654" x1="129.476" y1="16.7644" x2="142.213" y2="106.134" gradientUnits="userSpaceOnUse">
<stop stop-color="#FFBF74"/>
<stop offset="1" stop-color="#F4973B"/>
</linearGradient>
<linearGradient id="paint2_linear_3788_40654" x1="123.154" y1="76.5511" x2="124.958" y2="91.198" gradientUnits="userSpaceOnUse">
<stop stop-color="#FFC59A"/>
<stop offset="0.774583" stop-color="#FF826E"/>
<stop offset="1" stop-color="#FF7062"/>
</linearGradient>
<linearGradient id="paint3_linear_3788_40654" x1="133.217" y1="75.1175" x2="135.02" y2="89.7644" gradientUnits="userSpaceOnUse">
<stop stop-color="#FFC59A"/>
<stop offset="0.774583" stop-color="#FF826E"/>
<stop offset="1" stop-color="#FF7062"/>
</linearGradient>
<linearGradient id="paint4_linear_3788_40654" x1="143.275" y1="73.6839" x2="145.079" y2="88.3308" gradientUnits="userSpaceOnUse">
<stop stop-color="#FFC59A"/>
<stop offset="0.774583" stop-color="#FF826E"/>
<stop offset="1" stop-color="#FF7062"/>
</linearGradient>
<linearGradient id="paint5_linear_3788_40654" x1="153.334" y1="72.2464" x2="155.138" y2="86.8933" gradientUnits="userSpaceOnUse">
<stop stop-color="#FFC59A"/>
<stop offset="0.774583" stop-color="#FF826E"/>
<stop offset="1" stop-color="#FF7062"/>
</linearGradient>
</defs>
</svg>
