<svg width="343" height="253" viewBox="0 0 343 253" fill="none" xmlns="http://www.w3.org/2000/svg">
<rect width="343" height="253" rx="8" fill="white"/>
<path d="M315 112.5C315 98.2295 250.753 71.5 171.5 71.5C92.2471 71.5 28 98.2295 28 112.5C28 112.5 92.2471 112.5 171.5 112.5C250.753 112.5 315 112.5 315 112.5Z" fill="url(#paint0_linear_23557_41848)" fill-opacity="0.15"/>
<path d="M225 126.765C225 120.931 204.619 118.345 179.478 118.345C154.338 118.345 133.957 120.931 133.957 126.765C133.957 132.6 154.338 135.5 179.478 135.5C204.619 135.5 225 132.6 225 126.765Z" fill="#F78D8D" fill-opacity="0.15"/>
<g style="mix-blend-mode:multiply" opacity="0.3">
<path d="M164.544 47.3753C164.544 47.3753 164.752 47.6313 165.213 48.0236C166.731 49.3119 171.001 52.0628 179.754 52.0628C186.994 52.0628 191.36 50.8725 193.451 50.0854C194.483 49.6959 194.963 49.4072 194.963 49.4072C194.963 49.4072 197.134 43.8373 188.818 44.6135C180.502 45.3898 175.863 48.3749 172.429 46.9722C168.994 45.5695 163.408 45.1501 164.544 47.3753Z" fill="#FB8B75"/>
</g>
<path d="M165.213 48.0233C166.731 49.3116 171.001 52.0625 179.754 52.0625C186.994 52.0625 191.36 50.8722 193.451 50.0851C193.454 50.0796 193.457 50.0796 193.457 50.0796C193.457 50.0796 197.131 44.921 188.818 45.6973C180.502 46.4735 176.024 48.7614 172.448 47.7754C169.161 46.8684 164.913 46.1221 165.213 48.0233Z" fill="#E53F34"/>
<path d="M204.344 59.985C203.963 59.619 203.358 59.6297 202.991 60.0063C200.687 62.376 196.844 61.9497 192.118 59.2957C192.111 59.2922 192.104 59.2886 192.097 59.2851C190.241 58.2441 188.418 58.2121 186.958 58.4999V59.5622V60.4184V61.3315C187.791 61.5092 189.041 61.9177 190.377 62.8663C190.43 62.9054 190.484 62.948 190.541 62.9942C192.19 64.3656 194.469 69.1193 197.36 70.8637C199.447 72.125 201.506 71.9367 202.688 71.521C203.076 71.3825 203.326 71.0165 203.326 70.6221C203.326 70.5404 203.315 70.4587 203.294 70.3806C203.158 69.869 202.638 69.5634 202.125 69.6949C198.917 70.5227 195.854 68.1494 193.208 63.417C192.752 62.5999 192.197 61.9533 191.598 61.4416C191.071 60.9904 190.512 60.6458 189.96 60.3829C190.473 60.5073 191.086 60.7382 191.766 61.0189C194.045 61.9675 197.072 63.4952 199.536 63.4845C201.979 63.4739 203.635 62.2446 204.426 61.2747C204.569 61.1006 204.64 60.8874 204.64 60.6742C204.636 60.422 204.536 60.1697 204.344 59.985Z" fill="#E53F34"/>
<path d="M192.118 59.2957C192.111 59.2922 192.104 59.2886 192.097 59.2851C190.241 58.2441 188.418 58.2121 186.958 58.4999V61.3315C187.791 61.5092 189.041 61.9177 190.377 62.8663C190.43 62.9054 190.484 62.948 190.541 62.9942C191.021 62.5253 191.36 61.9852 191.595 61.4416C191.068 60.9904 190.509 60.6458 189.957 60.3829C190.469 60.5073 191.082 60.7382 191.762 61.0189C191.979 60.3936 192.076 59.786 192.118 59.2957Z" fill="#9D031B"/>
<path d="M164.544 47.3751C164.544 47.3751 165.901 55.5053 173.643 59.9748C173.643 59.9748 178.672 61.7316 182.464 60.5795C183.385 60.299 184.231 59.8495 184.916 59.1605C184.916 59.1605 193.336 52.7925 194.966 49.407C194.966 49.407 193.915 46.814 187.633 46.6288C186.47 46.5934 185.271 46.7677 184.01 47.0346C178.994 48.0969 173.007 50.6217 164.544 47.3751Z" fill="white"/>
<path d="M165.557 48.3018C165.557 48.3018 167.416 54.6997 171.015 56.7724C171.015 56.7724 171.943 56.6798 172.833 56.2113C172.836 56.2113 168.88 54.6261 165.557 48.3018Z" fill="white"/>
<path d="M180.039 120.467C212.273 120.467 212.766 97.5382 202.709 83.2902C192.652 69.0448 186.858 58.3445 186.858 58.3445L186.03 58.4755C184.81 58.6692 183.579 58.7975 182.348 58.863C179.583 59.0104 176.804 58.8384 174.074 58.3445C174.074 58.3445 172.412 61.0189 169.494 65.4753C166.575 69.9318 162.399 76.1675 157.369 83.2902C154.133 87.8721 151.99 93.3492 151.644 98.6762C150.91 109.911 158.17 120.467 180.039 120.467Z" fill="url(#paint1_linear_23557_41848)"/>
<path d="M192.82 93.2933C192.821 93.2616 192.625 93.2357 192.583 93.2231C192.579 93.2224 192.576 93.221 192.572 93.2187C192.111 93.0023 179.702 91.7313 179.702 91.7313C179.702 91.7313 167.317 93.1757 166.861 93.3985C166.857 93.4006 166.852 93.4021 166.847 93.403C166.806 93.4159 166.609 93.4446 166.61 93.4766C165.877 93.7388 165.233 94.2924 164.777 95.0532C164.321 95.814 164.078 96.7402 164.085 97.6907C164.092 98.6413 164.348 99.564 164.814 100.318C165.281 101.073 165.932 101.617 166.669 101.869C166.669 101.901 166.866 101.93 166.907 101.936C166.912 101.938 166.916 101.94 166.921 101.941C167.38 102.159 179.784 103.424 179.784 103.424C179.784 103.424 192.174 101.986 192.632 101.762C192.635 101.759 192.639 101.759 192.643 101.756C192.685 101.748 192.881 101.716 192.879 101.686C193.612 101.424 194.256 100.87 194.711 100.109C195.167 99.3485 195.41 98.4223 195.404 97.4717C195.397 96.5212 195.141 95.5985 194.674 94.8442C194.208 94.0898 193.557 93.5452 192.82 93.2933" fill="#9D031B"/>
<path d="M193.094 92.1885C193.096 92.157 192.896 92.1313 192.853 92.1188C192.85 92.1181 192.846 92.1167 192.843 92.1144C192.373 91.8993 179.745 90.6376 179.745 90.6376C179.745 90.6376 167.14 92.0758 166.676 92.2974C166.672 92.2995 166.667 92.301 166.662 92.3019C166.62 92.3147 166.419 92.3432 166.421 92.375C165.674 92.6359 165.019 93.1865 164.555 93.9431C164.091 94.6996 163.844 95.6206 163.85 96.5657C163.857 97.5108 164.118 98.4282 164.592 99.1782C165.067 99.9282 165.73 100.47 166.479 100.72C166.48 100.752 166.68 100.78 166.722 100.786C166.727 100.788 166.731 100.79 166.736 100.792C167.203 101.008 179.827 102.264 179.827 102.264C179.827 102.264 192.436 100.832 192.903 100.609C192.905 100.606 192.909 100.606 192.913 100.603C192.956 100.595 193.155 100.564 193.153 100.533C193.899 100.273 194.554 99.722 195.019 98.9654C195.483 98.2089 195.73 97.2879 195.723 96.3428C195.717 95.3977 195.456 94.4803 194.982 93.7303C194.507 92.9803 193.844 92.4389 193.094 92.1885" fill="#E50019"/>
<path d="M167.982 95.0279L166.668 95.0371L166.687 98.1132L167.948 98.1044C167.948 98.1044 169.387 98.0909 169.376 96.5239C169.376 96.5239 169.366 95.0182 167.982 95.0279V95.0279ZM168.716 96.5499C168.724 97.5792 167.789 97.5956 167.789 97.5956L167.28 97.5991L167.265 95.5215L167.811 95.5177C167.927 95.5036 168.045 95.5202 168.157 95.5662C168.268 95.6123 168.37 95.6868 168.455 95.7847C168.541 95.8826 168.609 96.0016 168.653 96.1338C168.698 96.266 168.719 96.4082 168.715 96.5509" fill="#F3F1F7"/>
<path d="M171.856 98.0765L172.498 98.072L171.79 95.4981C171.743 95.3537 171.662 95.2296 171.556 95.1418C171.451 95.0539 171.327 95.0062 171.199 95.0048C171.08 94.9882 170.96 94.9891 170.841 95.0073C170.714 95.0104 170.59 95.0598 170.486 95.1492C170.382 95.2385 170.302 95.3637 170.257 95.5088L169.585 98.0923L170.22 98.0879L170.43 97.249L171.638 97.2406L171.856 98.0765L171.856 98.0765ZM170.552 96.7562L170.817 95.6992C170.829 95.6442 170.856 95.5956 170.894 95.561C170.931 95.5263 170.977 95.5074 171.024 95.5071C171.071 95.5068 171.117 95.5251 171.155 95.5592C171.193 95.5933 171.221 95.6414 171.234 95.6963L171.508 96.7495L170.552 96.7562Z" fill="#F3F1F7"/>
<path d="M175.338 96.1121L174.047 96.1211L174.05 96.6124L175.342 96.6034L175.338 96.1121Z" fill="#F3F1F7"/>
<path d="M173.569 94.9757L172.956 94.98L172.978 98.069L173.59 98.0647L173.569 94.9757Z" fill="#F3F1F7"/>
<path d="M176.437 94.9549L175.824 94.9592L175.846 98.0482L176.459 98.0439L176.437 94.9549Z" fill="#F3F1F7"/>
<path d="M183.092 94.909L182.478 94.9133L182.499 98.0023L183.113 97.998L183.092 94.909Z" fill="#F3F1F7"/>
<path d="M187.634 94.8905L187.021 94.8948L187.043 97.9709L187.655 97.9666L187.634 94.8905Z" fill="#F3F1F7"/>
<path d="M181.388 94.9215L181.396 96.0707L180.216 96.079L180.208 94.9298L179.596 94.9341L179.617 98.0231L180.23 98.0188L180.219 96.5696L181.4 96.5613L181.41 98.0098L182.022 98.0056L182.001 94.9173L181.388 94.9215Z" fill="#F3F1F7"/>
<path d="M186.627 97.4483L185.398 97.4569C185.353 97.4575 185.309 97.4473 185.267 97.427C185.226 97.4066 185.188 97.3765 185.156 97.3383C185.123 97.3001 185.098 97.2547 185.08 97.2045C185.063 97.1543 185.053 97.1004 185.053 97.0459L185.038 94.9081L184.426 94.9123L184.44 97.014C184.433 97.1368 184.446 97.2602 184.479 97.3767C184.512 97.4932 184.565 97.6001 184.633 97.6908C184.702 97.7815 184.786 97.854 184.878 97.9037C184.971 97.9535 185.071 97.9795 185.172 97.98L186.631 97.9698L186.627 97.4483" fill="#F3F1F7"/>
<path d="M189.098 95.3902L190.329 95.3816L190.325 94.8585L188.867 94.8687C188.766 94.8707 188.666 94.8981 188.574 94.9493C188.482 95.0004 188.399 95.0742 188.332 95.166C188.264 95.2578 188.213 95.3657 188.182 95.4828C188.15 95.5999 188.139 95.7237 188.148 95.8465L188.163 97.96L188.775 97.9557L188.767 96.7297L190.255 96.7193L190.252 96.2287L188.763 96.2391L188.76 95.805C188.76 95.7507 188.768 95.6969 188.785 95.6466C188.802 95.5964 188.827 95.5507 188.858 95.5122C188.89 95.4737 188.927 95.4431 188.968 95.4222C189.009 95.4014 189.053 95.3906 189.098 95.3906" fill="#F3F1F7"/>
<path d="M191.673 97.4135C191.629 97.414 191.584 97.4038 191.543 97.3834C191.501 97.3631 191.463 97.3329 191.431 97.2947C191.399 97.2565 191.374 97.2111 191.356 97.1609C191.339 97.1108 191.329 97.0569 191.329 97.0025L191.326 96.6019L192.801 96.5916L192.798 96.099L191.323 96.1093L191.32 95.7866C191.32 95.7327 191.328 95.6793 191.345 95.6295C191.362 95.5798 191.387 95.5348 191.419 95.4971C191.451 95.4595 191.488 95.4301 191.529 95.4107C191.571 95.3912 191.615 95.3821 191.659 95.384L192.889 95.3754L192.885 94.8536L191.426 94.8638C191.325 94.864 191.225 94.8898 191.133 94.9396C191.041 94.9894 190.959 95.062 190.892 95.1528C190.824 95.2436 190.773 95.3506 190.742 95.4669C190.71 95.5833 190.699 95.7064 190.709 95.8284L190.717 96.9705C190.709 97.0932 190.722 97.2165 190.755 97.3329C190.788 97.4493 190.841 97.5561 190.909 97.6468C190.978 97.7375 191.061 97.81 191.154 97.8599C191.246 97.9097 191.346 97.9358 191.447 97.9365L192.911 97.9263L192.898 97.4049L191.673 97.4135" fill="#F3F1F7"/>
<path d="M179.162 94.947L178.282 94.9531C178.103 94.9294 177.923 94.9518 177.752 95.019C177.581 95.0862 177.424 95.1966 177.291 95.3429C177.158 95.4892 177.052 95.6682 176.98 95.868C176.908 96.0679 176.872 96.2842 176.873 96.5026C176.875 96.7211 176.914 96.9368 176.989 97.1356C177.064 97.3345 177.172 97.512 177.307 97.6564C177.442 97.8008 177.601 97.909 177.773 97.9738C177.944 98.0386 178.125 98.0585 178.303 98.0323L179.189 98.0261L179.185 97.5063L178.385 97.5119C178.162 97.5135 177.948 97.4075 177.79 97.2173C177.631 97.0271 177.541 96.7682 177.539 96.4976C177.537 96.2271 177.624 95.9669 177.779 95.7745C177.935 95.5821 178.148 95.4731 178.37 95.4716L179.166 95.466L179.162 94.947" fill="#F3F1F7"/>
<path d="M172.666 62.3315C172.666 62.3315 163.525 75.604 158.153 84.7174C153.607 92.4282 151.911 100.253 156.173 105.717C156.173 105.717 153.091 97.5378 159.638 85.2567C162.66 79.5833 170.687 68.9664 172.666 62.3315Z" fill="#FBCCBD"/>
<g style="mix-blend-mode:multiply" opacity="0.2">
<path d="M158.077 114.289C162.582 117.977 169.668 120.346 180.039 120.346C212.273 120.346 212.766 97.4619 202.709 83.2416C192.652 69.024 186.858 58.3445 186.858 58.3445L186.03 58.4752C185.592 58.5433 185.156 58.606 184.715 58.6577C183.928 58.753 183.138 58.8211 182.348 58.862C182.348 58.862 182.862 72.5675 191.13 83.3778C199.398 94.1908 197.647 106.869 180.434 110.111C168.477 112.363 150.93 108.836 151.644 98.5922C151.258 104.492 153.082 110.201 158.077 114.289Z" fill="#FB8B75"/>
</g>
<g style="mix-blend-mode:multiply" opacity="0.2">
<path d="M180.452 58.7776C180.272 55.9314 184.476 54.9835 186.551 51.5299C188.722 47.9238 184.007 47.0386 184.007 47.0386C185.268 46.7716 186.469 46.5973 187.63 46.6327C189.686 46.6927 191.182 47.0113 192.263 47.4117C194.485 48.237 194.963 49.4082 194.963 49.4082C193.573 52.2953 187.25 57.3504 185.416 58.7776H180.452V58.7776Z" fill="#FB8B75"/>
</g>
<path d="M171.149 60.1143C171.143 60.4998 171.268 60.927 171.67 61.3189C171.67 61.3189 179.856 58.7169 188.105 61.7815C188.105 61.7815 188.613 61.1133 188.56 60.1528C188.538 59.7609 188.422 59.3176 188.139 58.8551C188.139 58.8551 180.168 56.5261 171.57 58.8936C171.567 58.8936 171.158 59.4365 171.149 60.1143Z" fill="#E53F34"/>
<path d="M171.149 60.1145C171.143 60.5 171.268 60.9272 171.67 61.3191C171.67 61.3191 179.856 58.7171 188.105 61.7817C188.105 61.7817 188.613 61.1135 188.56 60.1531C186.624 59.4785 178.824 57.7534 171.149 60.1145Z" fill="#9D031B"/>
<path d="M170.554 58.7966C170.719 59.0118 171.021 59.1949 171.566 59.1949C171.566 59.1949 179.08 56.2074 188.136 59.1564C188.136 59.1564 188.728 59.1242 189.052 58.6842C189.173 58.5203 189.257 58.3051 189.264 58.0128C189.264 58.0128 179.398 54.4439 170.351 58.1348C170.351 58.1348 170.317 58.4978 170.554 58.7966Z" fill="#E53F34"/>
<path d="M170.554 58.7966C170.719 59.0118 171.021 59.1949 171.566 59.1949C171.566 59.1949 179.08 56.2075 188.136 59.1564C188.136 59.1564 188.728 59.1243 189.052 58.6842C187.59 58.2023 178.768 55.5489 170.554 58.7966Z" fill="#9D031B"/>
<path d="M186.812 34.8425L186.974 34.8282L187.115 34.7484L187.588 34.4812L187.863 34.9669C187.867 34.9793 187.893 35.0779 187.783 35.3358C187.656 35.6337 187.393 36.0225 186.976 36.4755C186.147 37.3749 184.826 38.4006 183.203 39.3133C181.581 40.226 180.018 40.8238 178.817 41.0664C178.213 41.1885 177.743 41.2117 177.421 41.1662C177.138 41.1264 177.067 41.0514 177.06 41.042L176.787 40.5591L177.262 40.2918L177.403 40.2125L177.499 40.0821C178.23 39.0867 179.742 37.8148 181.724 36.7006C183.706 35.586 185.578 34.9514 186.812 34.8425Z" stroke="#DD6E00" stroke-width="1.5"/>
<path d="M183.004 38.9615C186.348 37.079 188.546 34.6457 187.914 33.5265C187.281 32.4073 184.057 33.0261 180.713 34.9086C177.368 36.7911 175.17 39.2244 175.803 40.3436C176.435 41.4628 179.659 40.844 183.004 38.9615Z" fill="#F89D44"/>
<path d="M187.264 33.8035C187.283 33.8376 187.298 33.8717 187.308 33.9107C186.67 33.1993 183.697 33.7114 180.808 35.3365C177.919 36.9615 176.167 39.1099 176.448 40.0235C176.421 39.9943 176.396 39.9626 176.377 39.9285C175.891 39.0685 177.687 36.8275 180.693 35.1343C183.699 33.4459 186.778 32.9435 187.264 33.8035Z" fill="#DD6E00"/>
<path d="M187.308 33.9107C187.586 34.8243 185.586 36.7977 182.7 38.4228C179.813 40.0478 177.088 40.7349 176.445 40.0234C176.165 39.1098 177.921 36.9615 180.808 35.3364C183.699 33.7114 186.671 33.1992 187.308 33.9107Z" fill="url(#paint2_radial_23557_41848)"/>
<path d="M184.316 35.4629C184.567 35.9088 183.654 36.9004 182.276 37.6751C180.899 38.4499 179.575 38.7179 179.324 38.272C179.072 37.8262 179.986 36.8346 181.363 36.0598C182.74 35.2851 184.064 35.0171 184.316 35.4629Z" fill="#F4A733"/>
<path d="M208.275 48.3167L208.387 47.9509C208.534 47.469 208.518 46.7639 208.261 45.9114C208.008 45.0708 207.537 44.1447 206.856 43.2563L206.855 43.2559C206.174 42.3661 205.402 41.6688 204.655 41.2037C203.898 40.7319 203.221 40.5308 202.716 40.5457L202.333 40.5569L202.32 40.5406L202.032 40.7602L202.032 40.7604C201.683 41.0268 201.439 41.6391 201.603 42.6746C201.762 43.6772 202.287 44.8936 203.177 46.0545C204.066 47.2154 205.105 48.0421 206.034 48.4595C206.994 48.8908 207.651 48.8181 208 48.5528L208.275 48.3167ZM208.275 48.3167L208.288 48.3332L208 48.5525L208.275 48.3167Z" stroke="#DD6E00" stroke-width="1.5"/>
<path d="M209.339 48.479C210.684 47.454 210.235 44.6114 208.337 42.1301C206.438 39.6487 203.808 38.4681 202.463 39.4931C201.118 40.5182 201.567 43.3607 203.465 45.8421C205.364 48.3235 207.994 49.5041 209.339 48.479Z" fill="#F89D44"/>
<path d="M208.977 48.0067C208.948 48.0286 208.916 48.0505 208.885 48.07C209.886 47.1588 209.579 44.5394 207.923 42.376C206.267 40.2149 203.876 39.3065 202.73 40.0325C202.757 40.0082 202.787 39.9838 202.816 39.9594C203.932 39.1092 206.399 40.0176 208.099 42.2395C209.806 44.4639 210.094 47.1564 208.977 48.0067Z" fill="#DD6E00"/>
<path d="M208.888 48.0703C207.745 48.7939 205.54 47.6829 203.884 45.5195C202.228 43.3584 201.735 40.9416 202.736 40.0328C203.881 39.3092 206.444 40.4623 208.099 42.6233C209.753 44.7868 209.889 47.1591 208.888 48.0703Z" fill="url(#paint3_radial_23557_41848)"/>
<path d="M207.276 45.7828C207.815 45.373 207.635 44.2363 206.875 43.2439C206.116 42.2516 205.064 41.7794 204.526 42.1893C203.988 42.5991 204.167 43.7358 204.927 44.7282C205.687 45.7205 206.738 46.1927 207.276 45.7828Z" fill="#F4A733"/>
<path d="M156.817 96.1825C155.77 100.745 151.212 103.599 146.635 102.553C142.057 101.507 139.199 96.9577 140.247 92.3954C141.295 87.8331 145.853 84.979 150.43 86.0252C155.007 87.0713 157.865 91.6202 156.817 96.1825Z" fill="url(#paint4_radial_23557_41848)" stroke="#DD6E00" stroke-width="2"/>
<path d="M156.953 93.7465C157.079 98.9793 153.632 103.287 149.009 103.398C144.386 103.508 139.91 100.174 139.784 94.9414C139.658 89.7086 143.303 85.3768 147.926 85.266C152.549 85.1552 156.161 88.323 156.953 93.7465Z" fill="url(#paint5_radial_23557_41848)"/>
<path opacity="0.6" d="M141.204 92.6821C141.18 92.8117 141.168 92.9449 141.203 93.07C141.315 93.5114 141.817 93.4451 142.023 93.1105C142.22 92.7929 142.225 92.401 142.361 92.059C142.512 91.6904 142.744 91.36 142.907 90.9974C142.992 90.8113 143.064 90.5781 142.96 90.3841C142.629 89.7783 141.963 90.8827 141.808 91.1264C141.513 91.5896 141.339 92.0822 141.22 92.6145C141.212 92.6387 141.206 92.6596 141.204 92.6821Z" fill="white"/>
<path opacity="0.6" d="M143.203 89.5928C143.265 89.4119 143.453 89.2827 143.645 89.2921C143.711 89.2954 143.781 89.3163 143.829 89.361C143.893 89.4245 143.908 89.5211 143.906 89.6109C143.9 89.7529 143.856 89.9006 143.754 90.0014C143.45 90.3038 143.083 89.9425 143.203 89.5928Z" fill="white"/>
<path d="M147.003 91.8322C147.452 91.7113 147.927 91.7207 148.381 91.8596C148.702 91.9674 149.003 92.1416 149.267 92.3723L148.946 90.8883L148.179 91.0533C148.14 91.068 148.099 91.0728 148.058 91.0672C148.017 91.0616 147.978 91.0459 147.943 91.0212C147.908 90.9965 147.878 90.9636 147.857 90.925C147.835 90.8865 147.822 90.8433 147.818 90.7991L147.738 90.425C147.723 90.3831 147.717 90.3384 147.72 90.2944C147.724 90.2505 147.737 90.2084 147.759 90.1715C147.781 90.1347 147.81 90.1041 147.845 90.0822C147.88 90.0603 147.92 90.0476 147.961 90.0453L148.729 89.8803L148.579 89.1892C148.567 89.1386 148.565 89.0863 148.573 89.0355C148.58 88.9847 148.598 88.9365 148.623 88.8938C148.648 88.8505 148.681 88.8134 148.72 88.7849C148.759 88.7563 148.804 88.7369 148.851 88.7277L149.34 88.6225C149.387 88.6116 149.435 88.611 149.482 88.621C149.53 88.631 149.575 88.6512 149.616 88.6805C149.657 88.7088 149.692 88.7457 149.72 88.7889C149.748 88.8321 149.768 88.8806 149.778 88.9316L149.927 89.6226L150.695 89.4576C150.733 89.4429 150.774 89.4382 150.815 89.4437C150.856 89.4493 150.896 89.4651 150.931 89.4897C150.966 89.5144 150.995 89.5473 151.017 89.5859C151.038 89.6245 151.051 89.6676 151.055 89.7119L151.136 90.086C151.151 90.1278 151.157 90.1725 151.153 90.2165C151.149 90.2605 151.136 90.3026 151.114 90.3394C151.093 90.3763 151.063 90.4068 151.028 90.4288C150.993 90.4507 150.953 90.4633 150.913 90.4656L150.152 90.6291L151.824 98.3706C151.836 98.4212 151.838 98.4735 151.83 98.5243C151.823 98.5751 151.806 98.6233 151.78 98.6661C151.755 98.7094 151.722 98.7464 151.683 98.775C151.644 98.8036 151.6 98.823 151.553 98.8321L151.059 98.9382C151.013 98.9492 150.964 98.9497 150.917 98.9397C150.869 98.9298 150.824 98.9095 150.783 98.8803C150.742 98.8519 150.707 98.815 150.679 98.7718C150.651 98.7287 150.632 98.6801 150.621 98.6291L150.525 98.1811C150.382 98.5087 150.175 98.797 149.918 99.0265C149.561 99.3293 149.136 99.5276 148.681 99.6029C148.286 99.6925 147.875 99.6972 147.472 99.6167C147.087 99.5383 146.719 99.3739 146.391 99.1342C146.05 98.8808 145.755 98.5606 145.522 98.1912C145.259 97.7712 145.061 97.3089 144.938 96.8236C144.897 96.6823 144.859 96.5277 144.822 96.3597C144.786 96.1917 144.757 96.0346 144.736 95.8884C144.649 95.3959 144.639 94.8941 144.706 94.404C144.765 93.9736 144.903 93.563 145.111 93.1954C145.313 92.8471 145.582 92.55 145.899 92.3227C146.231 92.082 146.606 91.9154 147.003 91.8322V91.8322ZM150.028 95.8959C150.006 95.7498 149.969 95.5596 149.919 95.3251C149.868 95.0907 149.823 94.9024 149.783 94.7602C149.665 94.1728 149.341 93.6502 148.879 93.3041C148.658 93.1566 148.414 93.0574 148.16 93.0122C147.906 92.9671 147.649 92.9771 147.402 93.0415C147.143 93.0825 146.897 93.1843 146.682 93.3399C146.467 93.4954 146.287 93.701 146.156 93.9423C145.9 94.4784 145.828 95.1012 145.954 95.7027C146.003 95.9734 146.061 96.2418 146.128 96.508C146.261 97.1079 146.584 97.646 147.039 98.0292C147.258 98.1951 147.506 98.3087 147.767 98.362C148.027 98.4154 148.293 98.4072 148.546 98.338C148.795 98.2946 149.032 98.1984 149.244 98.0549C149.455 97.9113 149.637 97.7232 149.778 97.5013C149.917 97.2685 150.01 97.0067 150.053 96.7312C150.096 96.4556 150.087 96.1717 150.028 95.8959V95.8959Z" fill="#D82F30" stroke="#D82F30" stroke-width="0.3"/>
<path d="M156.868 94.0901C156.978 98.6802 153.338 102.493 148.733 102.604C144.128 102.714 140.308 99.0797 140.198 94.4895C140.087 89.8994 143.728 86.0864 148.333 85.976C152.937 85.8657 156.757 89.4999 156.868 94.0901Z" stroke="#DD6E00" stroke-width="1.5"/>
<path d="M156.993 119.505C157.19 119.418 157.382 119.32 157.573 119.216L158.145 118.918L158.7 118.593C158.886 118.485 159.07 118.377 159.249 118.257L159.787 117.905C159.964 117.787 160.134 117.655 160.309 117.531C160.661 117.288 160.989 117.015 161.32 116.749C162.639 115.667 163.799 114.417 164.809 113.069C164.841 113.026 164.832 112.963 164.789 112.929C164.747 112.901 164.688 112.905 164.654 112.943L164.653 112.945C164.613 112.99 164.571 113.035 164.53 113.079C163.441 114.26 162.234 115.323 160.916 116.213C160.57 116.437 160.231 116.67 159.872 116.873C159.694 116.976 159.52 117.085 159.338 117.182L158.794 117.469C158.615 117.569 158.428 117.655 158.243 117.74L157.685 117.999L157.119 118.232C156.93 118.31 156.743 118.388 156.548 118.449C153.485 119.577 151.389 113.105 148.233 112.679C146.657 112.453 145.117 112.043 143.657 111.458C142.203 110.859 140.823 110.101 139.565 109.186C138.317 108.263 137.17 107.213 136.19 106.033C135.214 104.851 134.361 103.576 133.713 102.209C133.062 100.844 132.557 99.4178 132.265 97.9527C132.095 97.1161 131.98 96.2672 131.924 95.4193C131.921 95.3791 131.918 95.3389 131.916 95.3003C131.88 94.707 131.873 94.1125 131.893 93.522C131.96 92.0475 132.2 90.5964 132.607 89.2007C133.017 87.8066 133.607 86.4758 134.328 85.2355C135.067 84.0013 135.94 82.8607 136.933 81.8464C137.939 80.8418 139.043 79.9524 140.238 79.2257C141.437 78.504 142.703 77.9156 144.023 77.5132C144.097 77.49 144.174 77.4702 144.249 77.447L144.253 77.5409C144.261 78.673 144.214 80.1652 143.96 81.4388C143.96 81.4388 144.665 81.1417 145.69 80.5361C145.69 80.5344 145.692 80.5344 145.692 80.5344C147.936 79.2095 151.71 76.4037 152.96 71.9987C152.96 71.9987 152.25 71.1803 150.859 70.2029C148.813 68.7643 145.299 66.9781 140.412 66.9354C140.412 66.9354 141.525 68.1122 142.552 70.2384C142.556 70.2467 142.56 70.2532 142.563 70.2615C142.479 70.2918 142.394 70.3204 142.309 70.3523C142.021 70.458 141.737 70.5718 141.454 70.6907C139.629 71.451 137.918 72.4538 136.35 73.6221C134.783 74.7955 133.384 76.1654 132.159 77.6578C130.943 79.1632 129.919 80.807 129.102 82.5384C128.301 84.2758 127.701 86.0976 127.339 87.9585C126.985 89.8242 126.859 91.7194 126.958 93.5921C127.071 95.4626 127.403 97.3059 127.947 99.0818C128.484 100.861 129.268 102.552 130.215 104.125C131.163 105.704 132.325 107.134 133.613 108.418C134.903 109.7 136.358 110.799 137.899 111.726C139.45 112.643 141.108 113.359 142.813 113.879C144.524 114.382 146.287 114.677 148.047 114.761C151.574 114.904 153.879 120.994 156.993 119.505Z" fill="url(#paint6_linear_23557_41848)"/>
<path d="M131.956 95.5765C131.92 94.9832 131.913 94.3887 131.933 93.7982C132 92.3237 132.239 90.8726 132.646 89.4769C133.057 88.0827 133.647 86.752 134.368 85.5117C135.106 84.2775 136.009 83.1731 137.003 82.1588C138.008 81.1542 139.121 80.1013 140.316 79.3747C141.514 78.6529 142.687 78.364 144.006 77.9617C144.081 77.9385 144.157 77.9186 144.232 77.8955C144.333 77.4613 144.175 74.827 143.951 74.2799C143.951 74.2799 143.927 76.4852 143.083 76.944C143.083 76.944 130.964 81.7922 131.956 95.5765Z" fill="#D82F30"/>
<path opacity="0.5" d="M128.345 89.833C128.524 86.8336 129.382 83.8875 130.866 81.2709C132.302 78.7402 134.309 76.5562 136.695 74.888C138.016 73.9648 139.454 73.2099 140.958 72.6338C141.461 72.4423 141.712 73.237 141.212 73.4267C138.663 74.4008 136.335 75.9391 134.433 77.8937C132.47 79.9129 130.976 82.3737 130.097 85.0484C129.591 86.5841 129.275 88.1845 129.178 89.7979C129.166 90.0219 129.02 90.2209 128.778 90.2306C128.57 90.2407 128.332 90.0587 128.345 89.833Z" fill="white"/>
<ellipse cx="207.699" cy="114.689" rx="14.2674" ry="14.3783" fill="url(#paint7_linear_23557_41848)"/>
<rect width="14.7552" height="2.96337" rx="1.48168" transform="matrix(0.704363 -0.70984 0.704363 0.70984 201.304 118.717)" fill="white"/>
<rect width="14.7552" height="2.96337" rx="1.48168" transform="matrix(-0.704363 -0.70984 -0.704363 0.70984 214.095 118.717)" fill="white"/>
<defs>
<linearGradient id="paint0_linear_23557_41848" x1="171.03" y1="70.0561" x2="171.03" y2="112.29" gradientUnits="userSpaceOnUse">
<stop stop-color="#F78D8D"/>
<stop offset="1" stop-color="white"/>
</linearGradient>
<linearGradient id="paint1_linear_23557_41848" x1="162.885" y1="121.681" x2="181.257" y2="55.1949" gradientUnits="userSpaceOnUse">
<stop offset="0.02" stop-color="#E2DCEB"/>
<stop offset="1" stop-color="white"/>
</linearGradient>
<radialGradient id="paint2_radial_23557_41848" cx="0" cy="0" r="1" gradientUnits="userSpaceOnUse" gradientTransform="translate(181.876 36.967) rotate(74.5237) scale(6.27444 9.77757)">
<stop stop-color="#FFDC7B"/>
<stop offset="1" stop-color="#F4973B"/>
</radialGradient>
<radialGradient id="paint3_radial_23557_41848" cx="0" cy="0" r="1" gradientUnits="userSpaceOnUse" gradientTransform="translate(205.812 44.0516) rotate(81.8384) scale(7.76296 6.61048)">
<stop stop-color="#FFDC7B"/>
<stop offset="1" stop-color="#F4973B"/>
</radialGradient>
<radialGradient id="paint4_radial_23557_41848" cx="0" cy="0" r="1" gradientUnits="userSpaceOnUse" gradientTransform="translate(148.532 94.2889) rotate(100.113) scale(8.12 8.13811)">
<stop stop-color="#FFBF74"/>
<stop offset="1" stop-color="#F4973B"/>
</radialGradient>
<radialGradient id="paint5_radial_23557_41848" cx="0" cy="0" r="1" gradientUnits="userSpaceOnUse" gradientTransform="translate(148.368 94.3342) rotate(79.5138) scale(16.6625 15.7795)">
<stop stop-color="#FFDC7B"/>
<stop offset="1" stop-color="#F4973B"/>
</radialGradient>
<linearGradient id="paint6_linear_23557_41848" x1="154.669" y1="51.8259" x2="134.371" y2="106.972" gradientUnits="userSpaceOnUse">
<stop stop-color="#F79774"/>
<stop offset="1" stop-color="#F75A4A"/>
</linearGradient>
<linearGradient id="paint7_linear_23557_41848" x1="194.804" y1="114.689" x2="221.502" y2="114.991" gradientUnits="userSpaceOnUse">
<stop stop-color="#EA553F"/>
<stop offset="1" stop-color="#D32A30"/>
</linearGradient>
</defs>
</svg>
