<svg width="287" height="96" viewBox="0 0 287 96" fill="none" xmlns="http://www.w3.org/2000/svg">
<path d="M287 76.5C287 62.2295 222.753 35.5 143.5 35.5C64.2471 35.5 0 62.2295 0 76.5C0 76.5 64.2471 76.5 143.5 76.5C222.753 76.5 287 76.5 287 76.5Z" fill="url(#paint0_linear_4260_25841)" fill-opacity="0.15"/>
<path d="M188 87.8533C188 82.4115 168.972 80 145.5 80C122.028 80 103 82.4115 103 87.8533C103 93.2951 122.028 96 145.5 96C168.972 96 188 93.2951 188 87.8533Z" fill="#F78D8D" fill-opacity="0.15"/>
<rect x="97.3047" y="8.29688" width="66.4496" height="76.1503" rx="7" transform="rotate(-7.03859 97.3047 8.29688)" fill="url(#paint1_linear_4260_25841)"/>
<path d="M98.3119 16.1117C97.3691 12.0614 100.145 8.08711 104.272 7.57752L156.176 1.16894C160.358 0.652675 164.045 3.92022 164.034 8.13334L164.026 11.5093C164.02 14.0324 162.135 16.1555 159.63 16.4604L104.537 23.1668C102.002 23.4754 99.6416 21.8242 99.0626 19.337L98.3119 16.1117Z" fill="#DD6E00" fill-opacity="0.6"/>
<path d="M98.5963 16.514C97.2489 12.3327 100.041 7.95807 104.401 7.41975L156.03 1.04528C160.406 0.504934 164.186 4.09679 163.869 8.49503L163.725 10.5038C163.553 12.8861 161.721 14.8145 159.35 15.1071L104.589 21.8685C102.207 22.1625 99.9528 20.7235 99.2169 18.4397L98.5963 16.514Z" fill="url(#paint2_linear_4260_25841)"/>
<circle cx="130.526" cy="13.1401" r="3.89249" transform="rotate(-7.03859 130.526 13.1401)" fill="white"/>
<path opacity="0.2" d="M133.063 22.9206C133.79 16.8179 139.798 12.8089 145.712 14.4803L148.496 15.267C151.733 16.1819 154.294 18.663 155.31 21.8699L169.86 67.7952C172.138 74.9858 165.938 82.0138 158.52 80.6508L136.112 76.5339C130.921 75.5802 127.365 70.7565 127.989 65.5157L133.063 22.9206Z" fill="#9D031B" fill-opacity="0.5"/>
<rect x="136.389" y="13.4922" width="51.019" height="62.5693" rx="8" transform="rotate(10.7778 136.389 13.4922)" fill="url(#paint3_linear_4260_25841)"/>
<path opacity="0.2" d="M121.874 29.667C121.925 24.0185 126.64 19.5332 132.284 19.7652L153.063 20.6194C158.352 20.8368 162.556 25.1388 162.651 30.4317L163.377 70.9351C163.476 76.4571 159.08 81.0138 153.558 81.1128L131.678 81.5051C126.051 81.606 121.449 77.0449 121.499 71.4169L121.874 29.667Z" fill="#9D031B" fill-opacity="0.5"/>
<path opacity="0.2" d="M126.009 28.9627C126.279 23.457 130.954 19.2085 136.46 19.464L163.633 20.725C166.122 20.8405 168.478 21.8812 170.24 23.6432L171.683 25.0859L172.96 26.4906C174.813 28.5295 175.744 31.2429 175.531 33.9902L172.431 73.9811C172.014 79.3583 167.408 83.4362 162.02 83.1985L133.468 81.9387C127.931 81.6944 123.649 76.9935 123.921 71.4578L126.009 28.9627Z" fill="#9D031B" fill-opacity="0.5"/>
<path d="M124.037 26.9705C124.253 22.566 127.993 19.1672 132.398 19.3716L162.337 20.7609C164.328 20.8533 166.213 21.6858 167.623 23.0954L169.613 25.0859L171.567 27.2356C172.993 28.8043 173.739 30.8749 173.639 32.9926L171.62 75.9381C171.412 80.3581 167.656 83.7699 163.237 83.5528L129.349 81.8882C124.936 81.6714 121.534 77.9183 121.751 73.5053L124.037 26.9705Z" fill="#F5E2E2"/>
<path d="M173.773 32.614C173.773 32.2795 173.355 30.1052 173.266 29.6871L171.922 28.0146L170.353 26.5798L170.13 26.342L166.994 23.4151C166.994 23.4151 165.937 22.8291 165.202 22.5788C164.306 22.2737 162.902 20.9062 162.902 20.9062L164.574 30.9415L173.773 35.1229C173.923 33.5897 173.773 32.9486 173.773 32.614Z" fill="#DD6E00" fill-opacity="0.1"/>
<path d="M173.773 32.1959C173.773 31.8614 173.773 29.6871 172.937 28.8508L171.683 27.1783L170.218 25.7435L170.01 25.5057L167.083 22.5788C167.083 22.5788 165.679 21.5747 164.993 21.3244C164.156 21.0193 162.902 20.9062 162.902 20.9062L165.411 30.1052L173.773 34.7047V32.1959Z" fill="#FDB96C"/>
<rect x="135.029" y="38.4688" width="27.6469" height="2.45882" transform="rotate(1.90456 135.029 38.4688)" fill="#DE181F"/>
<rect x="128.975" y="46.9062" width="37.5631" height="2.45882" transform="rotate(1.90456 128.975 46.9062)" fill="#C4C4C4"/>
<rect x="128.696" y="52.6758" width="37.5631" height="2.45882" transform="rotate(1.90456 128.696 52.6758)" fill="#C4C4C4"/>
<circle cx="175.5" cy="74.5" r="16.5" fill="url(#paint4_linear_4260_25841)"/>
<rect width="16.998" height="4" rx="2" transform="matrix(-1 8.74228e-08 8.74228e-08 1 184 72.2539)" fill="white"/>
<circle cx="175.448" cy="74.5" r="16.5" fill="url(#paint5_linear_4260_25841)"/>
<circle cx="175.448" cy="74.5" r="16.5" fill="url(#paint6_linear_4260_25841)"/>
<rect x="168.052" y="79.1211" width="16.998" height="3.41379" rx="1.7069" transform="rotate(-45 168.052 79.1211)" fill="white"/>
<rect width="16.998" height="3.41379" rx="1.7069" transform="matrix(-0.707107 -0.707107 -0.707107 0.707107 182.845 79.1211)" fill="white"/>
<defs>
<linearGradient id="paint0_linear_4260_25841" x1="143.03" y1="34.0561" x2="143.03" y2="76.2901" gradientUnits="userSpaceOnUse">
<stop stop-color="#F78D8D"/>
<stop offset="1" stop-color="white"/>
</linearGradient>
<linearGradient id="paint1_linear_4260_25841" x1="130.287" y1="17.7593" x2="130.287" y2="94.1349" gradientUnits="userSpaceOnUse">
<stop stop-color="#FFBF74"/>
<stop offset="1" stop-color="#F4973B"/>
</linearGradient>
<linearGradient id="paint2_linear_4260_25841" x1="128.984" y1="-1.03393" x2="131.986" y2="20.4241" gradientUnits="userSpaceOnUse">
<stop stop-color="#FFBF74"/>
<stop offset="1" stop-color="#F4973B"/>
</linearGradient>
<linearGradient id="paint3_linear_4260_25841" x1="165.021" y1="-60.3369" x2="161.557" y2="83.4152" gradientUnits="userSpaceOnUse">
<stop stop-color="#FFC59A"/>
<stop offset="0.774583" stop-color="#FF826E"/>
<stop offset="1" stop-color="#FF7062"/>
</linearGradient>
<linearGradient id="paint4_linear_4260_25841" x1="160.587" y1="74.5" x2="191.463" y2="74.8527" gradientUnits="userSpaceOnUse">
<stop stop-color="#EA553F"/>
<stop offset="1" stop-color="#D32A30"/>
</linearGradient>
<linearGradient id="paint5_linear_4260_25841" x1="160.536" y1="74.5" x2="191.411" y2="74.8527" gradientUnits="userSpaceOnUse">
<stop stop-color="#EA553F"/>
<stop offset="1" stop-color="#D32A30"/>
</linearGradient>
<linearGradient id="paint6_linear_4260_25841" x1="160.536" y1="74.5" x2="191.411" y2="74.8527" gradientUnits="userSpaceOnUse">
<stop stop-color="#EA553F"/>
<stop offset="1" stop-color="#D32A30"/>
</linearGradient>
</defs>
</svg>
