<svg width="287" height="96" viewBox="0 0 287 96" fill="none" xmlns="http://www.w3.org/2000/svg">
<path d="M287 74C287 59.7295 222.753 33 143.5 33C64.2471 33 0 59.7295 0 74C0 74 64.2471 74 143.5 74C222.753 74 287 74 287 74Z" fill="url(#paint0_linear)" fill-opacity="0.15"/>
<path d="M188 87.8533C188 82.4115 168.077 80 143.5 80C118.923 80 99 82.4115 99 87.8533C99 93.2951 118.923 96 143.5 96C168.077 96 188 93.2951 188 87.8533Z" fill="#F78D8D" fill-opacity="0.15"/>
<rect x="98.3047" y="8.29411" width="66.4496" height="76.1503" rx="7" transform="rotate(-7.03859 98.3047 8.29411)" fill="url(#paint1_linear)"/>
<path d="M99.3119 16.1108C98.3691 12.0604 101.145 8.08614 105.272 7.57655L157.176 1.16797C161.358 0.651706 165.045 3.91925 165.034 8.13237L165.026 11.5083C165.02 14.0314 163.135 16.1545 160.63 16.4594L105.537 23.1659C103.002 23.4744 100.642 21.8232 100.063 19.3361L99.3119 16.1108Z" fill="#DD6E00" fill-opacity="0.6"/>
<path d="M99.5963 16.5122C98.2489 12.3308 101.041 7.95624 105.401 7.41792L157.03 1.04345C161.406 0.503103 165.186 4.09496 164.869 8.4932L164.725 10.5019C164.553 12.8842 162.721 14.8126 160.35 15.1053L105.589 21.8666C103.207 22.1607 100.953 20.7216 100.217 18.4379L99.5963 16.5122Z" fill="url(#paint2_linear)"/>
<circle cx="131.526" cy="13.1391" r="3.89249" transform="rotate(-7.03859 131.526 13.1391)" fill="white"/>
<path opacity="0.2" d="M134.063 22.9188C134.79 16.8161 140.798 12.8072 146.712 14.4786L149.496 15.2653C152.733 16.1801 155.294 18.6613 156.31 21.8681L170.86 67.7934C173.138 74.984 166.938 82.0121 159.52 80.6491L137.112 76.5322C131.921 75.5785 128.365 70.7547 128.989 65.5139L134.063 22.9188Z" fill="#9D031B" fill-opacity="0.5"/>
<rect x="137.389" y="13.4936" width="51.019" height="62.5693" rx="8" transform="rotate(10.7778 137.389 13.4936)" fill="url(#paint3_linear)"/>
<path opacity="0.2" d="M122.874 29.6677C122.925 24.0192 127.64 19.5339 133.284 19.7659L154.063 20.6201C159.352 20.8375 163.556 25.1395 163.651 30.4324L164.377 70.9358C164.476 76.4578 160.08 81.0145 154.558 81.1135L132.678 81.5058C127.051 81.6067 122.449 77.0456 122.499 71.4176L122.874 29.6677Z" fill="#9D031B" fill-opacity="0.5"/>
<path opacity="0.2" d="M127.009 28.9649C127.279 23.4593 131.954 19.2107 137.46 19.4663L164.633 20.7272C167.122 20.8427 169.478 21.8834 171.24 23.6454L172.683 25.0881L173.96 26.4928C175.813 28.5317 176.744 31.2451 176.531 33.9924L173.431 73.9833C173.014 79.3606 168.408 83.4385 163.02 83.2007L134.468 81.9409C128.931 81.6966 124.649 76.9957 124.921 71.46L127.009 28.9649Z" fill="#9D031B" fill-opacity="0.5"/>
<path d="M125.037 26.9727C125.253 22.5682 128.993 19.1694 133.398 19.3738L163.337 20.7631C165.328 20.8555 167.213 21.6881 168.623 23.0977L170.613 25.0881L172.567 27.2378C173.993 28.8065 174.739 30.8771 174.639 32.9948L172.62 75.9403C172.412 80.3603 168.656 83.7721 164.237 83.555L130.349 81.8904C125.936 81.6737 122.534 77.9205 122.751 73.5076L125.037 26.9727Z" fill="#F5E2E2"/>
<path d="M174.773 32.6146C174.773 32.2801 174.355 30.1058 174.266 29.6876L172.922 28.0151L171.353 26.5803L171.13 26.3425L167.994 23.4156C167.994 23.4156 166.937 22.8296 166.202 22.5793C165.306 22.2742 163.902 20.9068 163.902 20.9068L165.574 30.942L174.773 35.1234C174.923 33.5902 174.773 32.9491 174.773 32.6146Z" fill="#DD6E00" fill-opacity="0.1"/>
<path d="M174.773 32.1964C174.773 31.8619 174.773 29.6876 173.937 28.8513L172.683 27.1788L171.218 25.744L171.01 25.5063L168.083 22.5793C168.083 22.5793 166.679 21.5752 165.993 21.3249C165.156 21.0198 163.902 20.9068 163.902 20.9068L166.411 30.1057L174.773 34.7052V32.1964Z" fill="#FDB96C"/>
<rect x="136.029" y="38.4685" width="27.6469" height="2.45882" transform="rotate(1.90456 136.029 38.4685)" fill="#DE181F"/>
<rect x="129.975" y="46.908" width="37.5631" height="2.45882" transform="rotate(1.90456 129.975 46.908)" fill="#C4C4C4"/>
<rect x="129.696" y="52.678" width="37.5631" height="2.45882" transform="rotate(1.90456 129.696 52.678)" fill="#C4C4C4"/>
<defs>
<linearGradient id="paint0_linear" x1="143.03" y1="31.5561" x2="143.03" y2="73.7901" gradientUnits="userSpaceOnUse">
<stop stop-color="#F78D8D"/>
<stop offset="1" stop-color="white"/>
</linearGradient>
<linearGradient id="paint1_linear" x1="131.287" y1="17.7566" x2="131.287" y2="94.1321" gradientUnits="userSpaceOnUse">
<stop stop-color="#FFBF74"/>
<stop offset="1" stop-color="#F4973B"/>
</linearGradient>
<linearGradient id="paint2_linear" x1="129.984" y1="-1.03576" x2="132.986" y2="20.4222" gradientUnits="userSpaceOnUse">
<stop stop-color="#FFBF74"/>
<stop offset="1" stop-color="#F4973B"/>
</linearGradient>
<linearGradient id="paint3_linear" x1="166.021" y1="-60.3355" x2="162.557" y2="83.4166" gradientUnits="userSpaceOnUse">
<stop stop-color="#FFC59A"/>
<stop offset="0.774583" stop-color="#FF826E"/>
<stop offset="1" stop-color="#FF7062"/>
</linearGradient>
</defs>
</svg>
