<svg width="287" height="89" viewBox="0 0 287 89" fill="none" xmlns="http://www.w3.org/2000/svg">
<path d="M287 73C287 58.7295 222.753 32 143.5 32C64.2471 32 0 58.7295 0 73C0 73 64.2471 73 143.5 73C222.753 73 287 73 287 73Z" fill="url(#paint0_linear_7145_3016)" fill-opacity="0.15"/>
<g clip-path="url(#clip0_7145_3016)">
<path d="M145.927 16.2396C150.456 16.2396 154.128 12.6042 154.128 8.11978C154.128 3.63535 150.456 0 145.927 0C141.397 0 137.726 3.63535 137.726 8.11978C137.726 12.6042 141.397 16.2396 145.927 16.2396Z" fill="url(#paint1_linear_7145_3016)"/>
<path d="M126.592 20.713C125.268 20.7143 123.967 20.3701 122.82 19.7149C121.673 19.0597 120.721 18.1168 120.059 16.9812C119.399 15.8473 119.051 14.5613 119.051 13.2523C119.051 11.9432 119.398 10.6572 120.059 9.52318C120.719 8.38919 121.67 7.44716 122.814 6.79164C123.959 6.13612 125.257 5.79016 126.579 5.78849C127.903 5.78725 129.204 6.13155 130.351 6.78671C131.498 7.44186 132.45 8.38472 133.112 9.52029C133.773 10.6542 134.121 11.9402 134.121 13.2492C134.121 14.5583 133.773 15.8443 133.113 16.9783C132.452 18.1123 131.502 19.0543 130.357 19.7099C129.213 20.3654 127.915 20.7114 126.592 20.713Z" fill="url(#paint2_linear_7145_3016)"/>
<path d="M112.42 34.0879C110.748 34.0864 109.133 33.4822 107.878 32.3881C106.622 31.294 105.812 29.7849 105.598 28.1426C105.385 26.5002 105.782 24.8371 106.717 23.4637C107.651 22.0903 109.058 21.1006 110.676 20.6794C112.293 20.2583 114.01 20.4346 115.506 21.1752C117.002 21.9159 118.174 23.1704 118.804 24.7043C119.434 26.2383 119.479 27.9468 118.929 29.5108C118.38 31.0748 117.274 32.3873 115.819 33.2031C114.782 33.7841 113.611 34.0889 112.42 34.0879Z" fill="url(#paint3_linear_7145_3016)"/>
<path d="M111.659 50.7899C114.097 48.3759 114.097 44.4619 111.659 42.0478C109.22 39.6338 105.267 39.6338 102.829 42.0478C100.391 44.4619 100.391 48.3759 102.829 50.7899C105.267 53.204 109.22 53.204 111.659 50.7899Z" fill="url(#paint4_linear_7145_3016)"/>
<path d="M112.432 71.1148C111.448 71.1136 110.482 70.8568 109.63 70.3701C108.778 69.8834 108.07 69.1839 107.576 68.3414C107.085 67.4986 106.826 66.5427 106.826 65.5697C106.826 64.5966 107.084 63.6407 107.575 62.7978C108.066 61.9549 108.773 61.2547 109.623 60.7674C110.474 60.2802 111.439 60.023 112.422 60.0218C113.406 60.0232 114.372 60.28 115.224 60.7667C116.076 61.2534 116.784 61.9529 117.277 62.7953C118.821 65.4414 117.902 68.8419 115.227 70.3709C114.377 70.8571 113.413 71.1137 112.432 71.1148Z" fill="url(#paint5_linear_7145_3016)"/>
<path d="M126.581 84.4973C125.712 84.4966 124.858 84.2695 124.106 83.8389C121.737 82.4855 120.923 79.4766 122.29 77.1319C122.726 76.3859 123.352 75.7666 124.106 75.3362C124.86 74.9058 125.715 74.6794 126.585 74.6798C127.456 74.6803 128.311 74.9075 129.064 75.3387C129.817 75.7699 130.443 76.3899 130.878 77.1363C131.313 77.8827 131.541 78.7293 131.541 79.5909C131.54 80.4526 131.311 81.2989 130.875 82.045C130.44 82.791 129.814 83.4103 129.06 83.8408C128.306 84.2713 127.451 84.4977 126.581 84.4973Z" fill="url(#paint6_linear_7145_3016)"/>
<path d="M150.133 85.6961C150.682 83.3946 149.242 81.0886 146.918 80.5453C144.593 80.0021 142.264 81.4275 141.715 83.729C141.166 86.0305 142.606 88.3366 144.931 88.8798C147.255 89.423 149.585 87.9977 150.133 85.6961Z" fill="url(#paint7_linear_7145_3016)"/>
<path d="M165.272 83.2257C164.626 83.2263 163.992 83.0587 163.433 82.7398C162.874 82.4208 162.409 81.9617 162.086 81.4086C161.763 80.8556 161.593 80.228 161.593 79.5892C161.592 78.9503 161.762 78.3226 162.084 77.7691C162.407 77.2157 162.871 76.7561 163.429 76.4365C163.988 76.1169 164.622 75.9486 165.267 75.9485C165.913 75.9484 166.547 76.1165 167.105 76.4359C167.664 76.7553 168.128 77.2148 168.451 77.7681C168.773 78.321 168.943 78.9481 168.943 79.5865C168.943 80.2248 168.773 80.8519 168.451 81.4048C168.129 81.9578 167.666 82.4171 167.108 82.7367C166.549 83.0563 165.916 83.2249 165.272 83.2257Z" fill="url(#paint8_linear_7145_3016)"/>
<path d="M179.425 68.5711C178.758 68.5708 178.109 68.3524 177.579 67.9498C177.05 67.5472 176.669 66.9828 176.497 66.3442C176.324 65.7056 176.369 65.0285 176.625 64.4179C176.88 63.8072 177.333 63.2971 177.911 62.9668C178.489 62.6364 179.161 62.5041 179.823 62.5906C180.485 62.677 181.1 62.9772 181.572 63.4447C182.044 63.9123 182.347 64.5209 182.434 65.1763C182.521 65.8317 182.387 66.4973 182.054 67.0697C181.787 67.5266 181.404 67.9059 180.943 68.1695C180.482 68.433 179.958 68.5716 179.425 68.5711Z" fill="url(#paint9_linear_7145_3016)"/>
<path d="M184.611 48.785C184.138 48.785 183.676 48.6462 183.283 48.3862C182.89 48.1262 182.584 47.7567 182.403 47.3243C182.222 46.892 182.174 46.4162 182.267 45.9572C182.359 45.4982 182.586 45.0766 182.921 44.7457C183.255 44.4148 183.681 44.1894 184.144 44.0981C184.608 44.0068 185.088 44.0537 185.525 44.2328C185.962 44.4118 186.335 44.7151 186.598 45.1042C186.86 45.4934 187.001 45.9508 187.001 46.4188C187 47.0461 186.748 47.6476 186.3 48.0912C185.852 48.5348 185.244 48.7843 184.611 48.785Z" fill="url(#paint10_linear_7145_3016)"/>
<path d="M179.429 29C179.122 29.0006 178.82 28.9211 178.554 28.7696C178.288 28.618 178.067 28.3998 177.913 28.1368C177.759 27.8737 177.678 27.5752 177.678 27.2713C177.677 26.9673 177.758 26.6686 177.911 26.4053C178.064 26.1419 178.285 25.9231 178.551 25.771C178.817 25.6189 179.118 25.5387 179.425 25.5386C179.732 25.5385 180.034 25.6184 180.3 25.7703C180.566 25.9223 180.786 26.1409 180.94 26.4041C181.093 26.667 181.174 26.9651 181.174 27.2686C181.174 27.5721 181.094 27.8703 180.94 28.1333C180.787 28.3963 180.567 28.6148 180.302 28.7669C180.037 28.919 179.736 28.9994 179.429 29Z" fill="url(#paint11_linear_7145_3016)"/>
<path d="M165.268 14.3455C165.025 14.3453 164.788 14.2657 164.595 14.119C164.402 13.9723 164.264 13.7666 164.201 13.5339C164.138 13.3011 164.154 13.0544 164.247 12.8318C164.341 12.6093 164.505 12.4234 164.716 12.303C164.927 12.1826 165.172 12.1344 165.413 12.1659C165.654 12.1973 165.878 12.3068 166.05 12.4771C166.222 12.6475 166.333 12.8693 166.365 13.1082C166.396 13.347 166.348 13.5896 166.226 13.7982C166.129 13.9649 165.99 14.1033 165.821 14.1994C165.653 14.2955 165.462 14.3459 165.268 14.3455Z" fill="url(#paint12_linear_7145_3016)"/>
</g>
<defs>
<linearGradient id="paint0_linear_7145_3016" x1="143.03" y1="30.5561" x2="143.03" y2="72.7901" gradientUnits="userSpaceOnUse">
<stop stop-color="#F78D8D"/>
<stop offset="1" stop-color="white"/>
</linearGradient>
<linearGradient id="paint1_linear_7145_3016" x1="145.927" y1="0" x2="145.927" y2="16.2396" gradientUnits="userSpaceOnUse">
<stop stop-color="#FB8D71"/>
<stop offset="1" stop-color="#D12A1E"/>
</linearGradient>
<linearGradient id="paint2_linear_7145_3016" x1="126.586" y1="5.78848" x2="126.586" y2="20.713" gradientUnits="userSpaceOnUse">
<stop stop-color="#F78A6F"/>
<stop offset="1" stop-color="#D54E44"/>
</linearGradient>
<linearGradient id="paint3_linear_7145_3016" x1="101.795" y1="31.2594" x2="116.925" y2="26.8647" gradientUnits="userSpaceOnUse">
<stop stop-color="#F79774"/>
<stop offset="1" stop-color="#F75A4A"/>
</linearGradient>
<linearGradient id="paint4_linear_7145_3016" x1="98.8146" y1="38.2079" x2="111.548" y2="50.9007" gradientUnits="userSpaceOnUse">
<stop stop-color="#FFB59A"/>
<stop offset="1" stop-color="#F75A4A"/>
</linearGradient>
<linearGradient id="paint5_linear_7145_3016" x1="107.923" y1="51.2765" x2="114.588" y2="68.9924" gradientUnits="userSpaceOnUse">
<stop stop-color="#FFC59A"/>
<stop offset="1" stop-color="#FF7062"/>
</linearGradient>
<linearGradient id="paint6_linear_7145_3016" x1="126.613" y1="74.2305" x2="127.158" y2="84.1789" gradientUnits="userSpaceOnUse">
<stop stop-color="#FFE99A"/>
<stop offset="0.774583" stop-color="#FF826E"/>
<stop offset="1" stop-color="#FF7062"/>
</linearGradient>
<linearGradient id="paint7_linear_7145_3016" x1="144.029" y1="84.1647" x2="156.771" y2="88.5511" gradientUnits="userSpaceOnUse">
<stop stop-color="#FFC59A"/>
<stop offset="0.774583" stop-color="#FF826E"/>
<stop offset="1" stop-color="#FF7062"/>
</linearGradient>
<linearGradient id="paint8_linear_7145_3016" x1="165.355" y1="77.9281" x2="164.27" y2="89.2274" gradientUnits="userSpaceOnUse">
<stop stop-color="#FDE0CB"/>
<stop offset="0.774583" stop-color="#FF826E"/>
<stop offset="1" stop-color="#FF7062"/>
</linearGradient>
<linearGradient id="paint9_linear_7145_3016" x1="179.499" y1="64.1987" x2="178.604" y2="73.5247" gradientUnits="userSpaceOnUse">
<stop stop-color="#FFD7BA"/>
<stop offset="0.774583" stop-color="#FF826E"/>
<stop offset="1" stop-color="#FF7062"/>
</linearGradient>
<linearGradient id="paint10_linear_7145_3016" x1="182.689" y1="40.3218" x2="185.531" y2="47.8802" gradientUnits="userSpaceOnUse">
<stop stop-color="#FFC59A"/>
<stop offset="1" stop-color="#FFBEB8"/>
</linearGradient>
<linearGradient id="paint11_linear_7145_3016" x1="180.38" y1="30.1187" x2="179.031" y2="25.8734" gradientUnits="userSpaceOnUse">
<stop offset="0.0171" stop-color="#FFD2D2"/>
<stop offset="1" stop-color="white"/>
</linearGradient>
<linearGradient id="paint12_linear_7145_3016" x1="165.872" y1="15.0529" x2="165.019" y2="12.3682" gradientUnits="userSpaceOnUse">
<stop offset="0.0171" stop-color="#FFD2D2"/>
<stop offset="1" stop-color="white"/>
</linearGradient>
<clipPath id="clip0_7145_3016">
<rect width="86" height="89" fill="white" transform="translate(101)"/>
</clipPath>
</defs>
</svg>
