<svg width="287" height="97" viewBox="0 0 287 97" fill="none" xmlns="http://www.w3.org/2000/svg">
<path d="M287 74.5C287 60.2295 222.753 33.5 143.5 33.5C64.2471 33.5 0 60.2295 0 74.5C0 74.5 64.2471 74.5 143.5 74.5C222.753 74.5 287 74.5 287 74.5Z" fill="url(#paint0_linear_1514_4932)" fill-opacity="0.15"/>
<path d="M188 88.3533C188 82.9115 168.077 80.5 143.5 80.5C118.923 80.5 99 82.9115 99 88.3533C99 93.7951 118.923 96.5 143.5 96.5C168.077 96.5 188 93.7951 188 88.3533Z" fill="#F78D8D" fill-opacity="0.15"/>
<rect x="98.3047" y="8.79395" width="66.4496" height="76.1503" rx="7" transform="rotate(-7.03859 98.3047 8.79395)" fill="url(#paint1_linear_1514_4932)"/>
<path d="M99.3116 16.6108C98.3688 12.5604 101.144 8.58613 105.272 8.07654L157.176 1.66797C161.358 1.1517 165.044 4.41925 165.034 8.63237L165.026 12.0083C165.02 14.5314 163.134 16.6545 160.63 16.9594L105.536 23.6659C103.001 23.9744 100.641 22.3232 100.062 19.836L99.3116 16.6108Z" fill="#DD6E00" fill-opacity="0.6"/>
<path d="M99.5963 17.012C98.2489 12.8307 101.041 8.45612 105.401 7.9178L157.03 1.54333C161.406 1.00298 165.186 4.59484 164.869 8.99308L164.725 11.0018C164.553 13.3841 162.721 15.3125 160.35 15.6052L105.589 22.3665C103.207 22.6605 100.953 21.2215 100.217 18.9378L99.5963 17.012Z" fill="url(#paint2_linear_1514_4932)"/>
<circle cx="131.525" cy="13.6391" r="3.89249" transform="rotate(-7.03859 131.525 13.6391)" fill="white"/>
<path opacity="0.2" d="M134.063 23.4186C134.79 17.3159 140.798 13.307 146.712 14.9784L149.496 15.7651C152.733 16.6799 155.293 19.1611 156.309 22.3679L170.86 68.2932C173.138 75.4838 166.938 82.5119 159.52 81.1489L137.112 77.032C131.921 76.0783 128.365 71.2546 128.989 66.0137L134.063 23.4186Z" fill="#9D031B" fill-opacity="0.5"/>
<rect x="137.389" y="13.9932" width="51.019" height="62.5693" rx="8" transform="rotate(10.7778 137.389 13.9932)" fill="url(#paint3_linear_1514_4932)"/>
<path opacity="0.2" d="M122.874 30.1679C122.924 24.5195 127.64 20.0341 133.284 20.2662L154.063 21.1204C159.352 21.3378 163.555 25.6398 163.65 30.9327L164.377 71.4361C164.476 76.958 160.079 81.5147 154.557 81.6138L132.678 82.0061C127.05 82.107 122.448 77.5459 122.499 71.9179L122.874 30.1679Z" fill="#9D031B" fill-opacity="0.5"/>
<path opacity="0.2" d="M127.008 29.4646C127.279 23.959 131.953 19.7105 137.46 19.966L164.632 21.2269C167.121 21.3424 169.478 22.3831 171.24 24.1451L172.682 25.5878L173.959 26.9925C175.813 29.0314 176.743 31.7448 176.53 34.4921L173.43 74.483C173.013 79.8603 168.407 83.9382 163.019 83.7005L134.468 82.4407C128.931 82.1964 124.649 77.4954 124.921 71.9598L127.008 29.4646Z" fill="#9D031B" fill-opacity="0.5"/>
<path d="M125.036 27.4724C125.253 23.0679 128.992 19.6691 133.397 19.8735L163.336 21.2628C165.327 21.3552 167.213 22.1878 168.622 23.5974L170.613 25.5878L172.567 27.7375C173.993 29.3062 174.738 31.3768 174.638 33.4945L172.62 76.4401C172.412 80.86 168.656 84.2719 164.236 84.0548L130.348 82.3902C125.935 82.1734 122.534 78.4202 122.75 74.0073L125.036 27.4724Z" fill="#F5E2E2"/>
<path d="M174.773 33.114C174.773 32.7795 174.355 30.6052 174.265 30.1871L172.921 28.5146L171.352 27.0798L171.129 26.842L167.993 23.9151C167.993 23.9151 166.936 23.3291 166.201 23.0788C165.305 22.7737 163.902 21.4062 163.902 21.4062L165.574 31.4415L174.773 35.6229C174.922 34.0897 174.773 33.4486 174.773 33.114Z" fill="#DD6E00" fill-opacity="0.1"/>
<path d="M174.773 32.6959C174.773 32.3614 174.773 30.1871 173.937 29.3508L172.682 27.6783L171.218 26.2435L171.01 26.0057L168.083 23.0788C168.083 23.0788 166.678 22.0747 165.992 21.8244C165.156 21.5193 163.902 21.4062 163.902 21.4062L166.41 30.6052L174.773 35.2047V32.6959Z" fill="#FDB96C"/>
<rect x="136.029" y="38.9688" width="27.6469" height="2.45882" transform="rotate(1.90456 136.029 38.9688)" fill="#DE181F"/>
<rect x="129.975" y="47.4082" width="37.5631" height="2.45882" transform="rotate(1.90456 129.975 47.4082)" fill="#C4C4C4"/>
<rect x="129.696" y="53.1777" width="37.5631" height="2.45882" transform="rotate(1.90456 129.696 53.1777)" fill="#C4C4C4"/>
<rect width="12.8606" height="3.0311" rx="1.51555" transform="matrix(-1 8.75592e-08 8.72865e-08 1 177.954 75.2998)" fill="white"/>
<circle cx="173" cy="78.5" r="14" fill="url(#paint4_linear_1514_4932)"/>
<circle cx="173" cy="78.5" r="14" fill="url(#paint5_linear_1514_4932)"/>
<g clip-path="url(#clip0_1514_4932)">
<path d="M172.49 86.5C172.08 86.5 171.729 86.361 171.437 86.0831C171.145 85.8051 170.999 85.4196 171 84.9266C170.997 84.7172 171.036 84.5095 171.113 84.3168C171.19 84.1241 171.303 83.9505 171.447 83.807C171.586 83.6573 171.751 83.5388 171.934 83.4587C172.116 83.3786 172.312 83.3386 172.51 83.341C172.881 83.341 173.222 83.5064 173.533 83.8372C173.844 84.1679 174 84.5311 174.001 84.9266C174.001 85.4263 173.854 85.8135 173.559 86.0881C173.264 86.3627 172.908 86.5 172.49 86.5ZM171.427 79.5615L171.09 74.4817C171.03 73.4677 171 72.7671 171 72.3799C171 71.7884 171.141 71.3273 171.422 70.9965C171.703 70.6657 172.086 70.5002 172.57 70.5C173.119 70.5 173.495 70.7113 173.697 71.1338C173.9 71.5563 174.001 72.1658 174.001 72.9621C174.001 73.3564 173.978 73.8177 173.931 74.3459L173.503 79.5615C173.457 80.1884 173.361 80.6691 173.215 81.0037C173.069 81.3383 172.821 81.5056 172.47 81.5056C172.113 81.5056 171.861 81.3383 171.715 81.0037C171.569 80.6691 171.473 80.1884 171.427 79.5615Z" fill="#FDFDFD"/>
</g>
<defs>
<linearGradient id="paint0_linear_1514_4932" x1="143.03" y1="32.0561" x2="143.03" y2="74.2901" gradientUnits="userSpaceOnUse">
<stop stop-color="#F78D8D"/>
<stop offset="1" stop-color="white"/>
</linearGradient>
<linearGradient id="paint1_linear_1514_4932" x1="131.287" y1="18.2564" x2="131.287" y2="94.632" gradientUnits="userSpaceOnUse">
<stop stop-color="#FFBF74"/>
<stop offset="1" stop-color="#F4973B"/>
</linearGradient>
<linearGradient id="paint2_linear_1514_4932" x1="129.984" y1="-0.535885" x2="132.986" y2="20.9221" gradientUnits="userSpaceOnUse">
<stop stop-color="#FFBF74"/>
<stop offset="1" stop-color="#F4973B"/>
</linearGradient>
<linearGradient id="paint3_linear_1514_4932" x1="166.021" y1="-59.8359" x2="162.557" y2="83.9162" gradientUnits="userSpaceOnUse">
<stop stop-color="#FFC59A"/>
<stop offset="0.774583" stop-color="#FF826E"/>
<stop offset="1" stop-color="#FF7062"/>
</linearGradient>
<linearGradient id="paint4_linear_1514_4932" x1="160.347" y1="78.5" x2="186.544" y2="78.7993" gradientUnits="userSpaceOnUse">
<stop stop-color="#EA553F"/>
<stop offset="1" stop-color="#D32A30"/>
</linearGradient>
<linearGradient id="paint5_linear_1514_4932" x1="173" y1="64.5" x2="173" y2="92.5" gradientUnits="userSpaceOnUse">
<stop stop-color="#EA6544"/>
<stop offset="1" stop-color="#D12A1E"/>
</linearGradient>
<clipPath id="clip0_1514_4932">
<rect width="3" height="16" fill="white" transform="translate(171 70.5)"/>
</clipPath>
</defs>
</svg>
