<svg width="287" height="97" viewBox="0 0 287 97" fill="none" xmlns="http://www.w3.org/2000/svg">
<path d="M287 78C287 63.7295 222.753 37 143.5 37C64.2471 37 0 63.7295 0 78C0 78 64.2471 78 143.5 78C222.753 78 287 78 287 78Z" fill="url(#paint0_linear_4126_20329)" fill-opacity="0.15"/>
<path d="M186 88.8533C186 83.4115 166.972 81 143.5 81C120.028 81 101 83.4115 101 88.8533C101 94.2951 120.028 97 143.5 97C166.972 97 186 94.2951 186 88.8533Z" fill="#F78D8D" fill-opacity="0.15"/>
<path d="M103.505 24.1202C98.0707 18.1573 99.11 8.35691 105.553 3.22056C112.383 -2.21098 121.736 -0.233192 126.041 5.28691C118.559 11.545 111.046 17.8031 103.505 24.1202Z" fill="url(#paint1_linear_4126_20329)"/>
<path d="M183.467 24.0895C175.925 17.8019 168.473 11.5439 160.871 5.22673C164.523 1.27116 168.888 -0.559037 174.144 0.149425C179.964 0.946444 183.972 4.19356 186.08 9.6251C187.981 14.4958 186.852 20.6653 183.467 24.0895Z" fill="url(#paint2_linear_4126_20329)"/>
<path d="M99.7064 41.2152C96.9671 41.2152 96.2823 43.0647 97.7661 45.1784L106.288 57.1814C107.544 58.9176 109.37 58.8799 110.588 57.1814L119.11 45.1407C120.556 43.0647 119.871 41.2152 117.17 41.2152H111.653C114.963 26.9475 127.746 16.4544 143.193 16.4544C161.151 16.4544 175.532 30.6843 175.532 48.5C175.532 66.3157 161.151 80.6588 143.193 80.5833C132.35 80.5456 122.838 75.3368 117.017 67.2971C115.838 65.7495 114.05 65.2588 112.452 66.2025C110.93 67.1461 110.511 69.2221 111.805 70.8828C119.034 80.5078 130.372 87 143.193 87C164.385 87 182 69.524 182 48.5C182 27.4382 164.385 10 143.193 10C124.474 10 108.571 23.5505 105.071 41.2152H99.7064ZM141.747 26.3814C140.073 26.3814 138.704 27.7025 138.704 29.3632V50.425C138.704 51.2931 138.97 52.048 139.617 52.8784L149.014 65.1833C150.27 66.8064 152.02 67.0706 153.58 66.0137C154.987 65.0324 155.101 63.2583 153.96 61.7108L144.753 49.4059V29.3632C144.753 27.7025 143.421 26.3814 141.747 26.3814Z" fill="url(#paint3_linear_4126_20329)"/>
<path d="M229.014 72.4358V66.5822L223.227 64.7496C222.813 63.2011 222.198 61.7133 221.399 60.3233L224.191 54.92L220.066 50.8225L214.69 53.6142C213.299 52.8074 211.808 52.1881 210.255 51.7726L208.422 46H202.569L200.763 51.7681C199.21 52.1836 197.719 52.8029 196.328 53.6097L190.947 50.8225L186.822 54.947L189.619 60.3504C188.816 61.7372 188.2 63.224 187.786 64.7721L182 66.5822V72.4358L187.8 74.2369C188.215 75.7767 188.829 77.2557 189.628 78.6361L186.822 84.0395L190.947 88.1955L196.35 85.3858C197.727 86.1768 199.201 86.7824 200.736 87.1869L202.578 93H208.431L210.273 87.1869C211.809 86.7828 213.286 86.1772 214.663 85.3858L220.066 88.1955L224.191 84.071L221.386 78.6677C222.186 77.2881 222.801 75.8089 223.214 74.2684L229.014 72.4358ZM205.509 83.5397C202.732 83.5406 200.017 82.7179 197.708 81.1757C195.398 79.6336 193.598 77.4412 192.535 74.8759C191.472 72.3105 191.193 69.4875 191.734 66.7638C192.275 64.04 193.612 61.538 195.575 59.5741C197.539 57.6101 200.04 56.2725 202.764 55.7304C205.487 55.1883 208.311 55.4661 210.876 56.5286C213.442 57.5911 215.635 59.3906 217.178 61.6995C218.721 64.0084 219.544 66.723 219.544 69.5C219.539 73.2197 218.059 76.7854 215.427 79.4143C212.796 82.0432 209.229 83.5205 205.509 83.5216V83.5397Z" fill="url(#paint4_linear_4126_20329)"/>
<path d="M214.262 78.4321C218.958 73.7352 218.958 66.1202 214.262 61.4234C209.565 56.7266 201.95 56.7266 197.253 61.4234C192.556 66.1202 192.556 73.7352 197.253 78.432C201.95 83.1289 209.565 83.1289 214.262 78.4321Z" fill="url(#paint5_linear_4126_20329)"/>
<path d="M215.426 71.5342C216.317 66.1917 212.709 61.1384 207.366 60.2472C202.024 59.3561 196.971 62.9646 196.079 68.3071C195.188 73.6495 198.797 78.7029 204.139 79.594C209.482 80.4852 214.535 76.8767 215.426 71.5342Z" fill="white"/>
<path d="M199.561 69.5994C199.561 69.5499 199.561 69.5003 199.561 69.4463C199.642 68.0086 200.271 66.6565 201.317 65.6674C202.364 64.6784 203.749 64.1273 205.189 64.1273C206.629 64.1273 208.015 64.6784 209.061 65.6674C210.108 66.6565 210.736 68.0086 210.818 69.4463V69.5994H213.97C213.884 67.4746 212.979 65.4656 211.445 63.9927C209.911 62.5198 207.867 61.6973 205.741 61.6973C203.614 61.6973 201.57 62.5198 200.037 63.9927C198.503 65.4656 197.598 67.4746 197.512 69.5994H199.561Z" fill="url(#paint6_linear_4126_20329)"/>
<g clip-path="url(#clip0_4126_20329)">
<path d="M94 34.1696V28.8223L90.0156 27.9253C89.86 27.4703 89.6761 27.0254 89.465 26.5933L91.6478 23.1285L87.8597 19.3366L84.395 21.5194C83.9644 21.3088 83.5208 21.1262 83.0668 20.9727L82.1698 16.9844H76.8187L75.9256 20.9727C75.4706 21.1269 75.0257 21.3095 74.5935 21.5194L71.1288 19.3366L67.3368 23.1285L69.5196 26.5933C69.3098 27.0255 69.1272 27.4703 68.9729 27.9253L64.9846 28.8223V34.1696L68.9729 35.0665C69.1265 35.5205 69.3091 35.9642 69.5196 36.3947L67.3368 39.8595L71.1288 43.6476L74.5935 41.4648C75.0249 41.6775 75.4699 41.8614 75.9256 42.0153L76.8187 45.9998H82.1814L83.0783 42.0153C83.533 41.8621 83.9768 41.6782 84.4065 41.4648L87.8713 43.6476L91.6594 39.8595L89.4766 36.3947C89.6883 35.9642 89.8722 35.5206 90.0271 35.0665L94 34.1696ZM79.5019 38.5967C78.0969 38.6006 76.7224 38.1874 75.5524 37.4095C74.3824 36.6316 73.4695 35.524 72.9293 34.227C72.3892 32.9299 72.2461 31.5018 72.5181 30.1233C72.7902 28.7449 73.4652 27.4782 74.4576 26.4837C75.45 25.4891 76.7152 24.8114 78.093 24.5363C79.4709 24.2613 80.8993 24.4013 82.1975 24.9386C83.4957 25.4759 84.6053 26.3864 85.3857 27.5547C86.1662 28.723 86.5824 30.0967 86.5816 31.5017C86.5806 33.3804 85.8349 35.1822 84.5078 36.5121C83.1808 37.842 81.3807 38.5917 79.5019 38.5967Z" fill="url(#paint7_linear_4126_20329)"/>
<path d="M81.6756 34.3321C83.238 33.1306 83.5306 30.8901 82.3291 29.3277C81.1276 27.7653 78.8871 27.4727 77.3247 28.6742C75.7623 29.8756 75.4697 32.1162 76.6712 33.6786C77.8726 35.241 80.1132 35.5336 81.6756 34.3321Z" fill="url(#paint8_linear_4126_20329)"/>
</g>
<path d="M93.75 63C92.415 63 91.1099 63.3959 89.9999 64.1376C88.8899 64.8793 88.0247 65.9335 87.5138 67.1669C87.0029 68.4003 86.8693 69.7575 87.1297 71.0669C87.3902 72.3762 88.033 73.579 88.977 74.523C89.921 75.467 91.1238 76.1099 92.4331 76.3703C93.7425 76.6308 95.0997 76.4971 96.3331 75.9862C97.5665 75.4753 98.6207 74.6101 99.3624 73.5001C100.104 72.3901 100.5 71.085 100.5 69.75C100.5 67.9598 99.7888 66.2429 98.523 64.977C97.2571 63.7111 95.5402 63 93.75 63ZM93.75 72.45C93.216 72.45 92.694 72.2916 92.25 71.995C91.806 71.6983 91.4599 71.2766 91.2555 70.7832C91.0512 70.2899 90.9977 69.747 91.1019 69.2232C91.2061 68.6995 91.4632 68.2184 91.8408 67.8408C92.2184 67.4632 92.6995 67.206 93.2233 67.1019C93.747 66.9977 94.2899 67.0512 94.7833 67.2555C95.2766 67.4599 95.6983 67.806 95.995 68.25C96.2917 68.694 96.45 69.216 96.45 69.75C96.45 70.4661 96.1655 71.1528 95.6592 71.6592C95.1528 72.1655 94.4661 72.45 93.75 72.45Z" fill="url(#paint9_linear_4126_20329)"/>
<path d="M200.84 32C199.883 32 198.947 32.2839 198.151 32.8157C197.355 33.3475 196.735 34.1034 196.368 34.9878C196.002 35.8722 195.906 36.8454 196.093 37.7842C196.28 38.7231 196.741 39.5855 197.418 40.2624C198.095 40.9393 198.957 41.4002 199.896 41.587C200.835 41.7738 201.808 41.6779 202.692 41.3116C203.577 40.9453 204.332 40.3249 204.864 39.529C205.396 38.733 205.68 37.7973 205.68 36.84C205.681 36.204 205.557 35.5741 205.314 34.9863C205.072 34.3985 204.715 33.8644 204.265 33.4147C203.816 32.965 203.282 32.6085 202.694 32.3657C202.106 32.123 201.476 31.9987 200.84 32ZM200.84 38.77C200.455 38.772 200.079 38.6596 199.758 38.4472C199.438 38.2348 199.188 37.9319 199.04 37.577C198.892 37.2221 198.852 36.8313 198.927 36.454C199.001 36.0768 199.186 35.7302 199.458 35.4582C199.73 35.1863 200.077 35.0014 200.454 34.9268C200.831 34.8523 201.222 34.8916 201.577 35.0396C201.932 35.1877 202.235 35.4379 202.447 35.7584C202.66 36.079 202.772 36.4555 202.77 36.84C202.77 37.3519 202.567 37.8428 202.205 38.2047C201.843 38.5667 201.352 38.77 200.84 38.77Z" fill="url(#paint10_linear_4126_20329)"/>
<defs>
<linearGradient id="paint0_linear_4126_20329" x1="143.03" y1="35.5561" x2="143.03" y2="77.7901" gradientUnits="userSpaceOnUse">
<stop stop-color="#F78D8D"/>
<stop offset="1" stop-color="white"/>
</linearGradient>
<linearGradient id="paint1_linear_4126_20329" x1="100" y1="0.00976562" x2="126.475" y2="0.157821" gradientUnits="userSpaceOnUse">
<stop stop-color="#EA6544"/>
<stop offset="1" stop-color="#D12A1E"/>
</linearGradient>
<linearGradient id="paint2_linear_4126_20329" x1="160.871" y1="0" x2="187.435" y2="0.149182" gradientUnits="userSpaceOnUse">
<stop stop-color="#EA6544"/>
<stop offset="1" stop-color="#D12A1E"/>
</linearGradient>
<linearGradient id="paint3_linear_4126_20329" x1="139.5" y1="10" x2="140.079" y2="72.843" gradientUnits="userSpaceOnUse">
<stop stop-color="#FFBF74"/>
<stop offset="0.729167" stop-color="#F7A64A"/>
<stop offset="1" stop-color="#F4973B"/>
</linearGradient>
<linearGradient id="paint4_linear_4126_20329" x1="205.507" y1="46" x2="205.507" y2="93" gradientUnits="userSpaceOnUse">
<stop stop-color="#EA6544"/>
<stop offset="1" stop-color="#D12A1E"/>
</linearGradient>
<linearGradient id="paint5_linear_4126_20329" x1="197.253" y1="61.4234" x2="211.275" y2="75.1634" gradientUnits="userSpaceOnUse">
<stop stop-color="#FFBF74"/>
<stop offset="0.729167" stop-color="#F7A64A"/>
<stop offset="1" stop-color="#F4973B"/>
</linearGradient>
<linearGradient id="paint6_linear_4126_20329" x1="205.614" y1="58.1654" x2="205.651" y2="69.5997" gradientUnits="userSpaceOnUse">
<stop stop-color="#FFB59A"/>
<stop offset="1" stop-color="#F75A4A"/>
</linearGradient>
<linearGradient id="paint7_linear_4126_20329" x1="65" y1="31.5017" x2="94" y2="31.5017" gradientUnits="userSpaceOnUse">
<stop stop-color="#D32F09"/>
<stop offset="1" stop-color="#F15324"/>
</linearGradient>
<linearGradient id="paint8_linear_4126_20329" x1="75.9298" y1="31.5004" x2="83.071" y2="31.5004" gradientUnits="userSpaceOnUse">
<stop stop-color="#D32F09"/>
<stop offset="1" stop-color="#F15324"/>
</linearGradient>
<linearGradient id="paint9_linear_4126_20329" x1="87" y1="69.75" x2="100.5" y2="69.75" gradientUnits="userSpaceOnUse">
<stop stop-color="#FFAA00"/>
<stop offset="1" stop-color="#FF8B00"/>
</linearGradient>
<linearGradient id="paint10_linear_4126_20329" x1="196" y1="36.84" x2="205.68" y2="36.84" gradientUnits="userSpaceOnUse">
<stop stop-color="#D32F09"/>
<stop offset="1" stop-color="#F15324"/>
</linearGradient>
<clipPath id="clip0_4126_20329">
<rect width="29" height="29" fill="white" transform="translate(65 17)"/>
</clipPath>
</defs>
</svg>
