<svg width="287" height="100" viewBox="0 0 287 100" fill="none" xmlns="http://www.w3.org/2000/svg">
<rect width="287" height="100" fill="white"/>
<path d="M287 81C287 66.7295 222.753 40 143.5 40C64.2471 40 0 66.7295 0 81C0 81 64.2471 81 143.5 81C222.753 81 287 81 287 81Z" fill="url(#paint0_linear_1810_5761)" fill-opacity="0.15"/>
<mask id="mask0_1810_5761" style="mask-type:alpha" maskUnits="userSpaceOnUse" x="97" y="1" width="93" height="93">
<path d="M173.935 71.675L186.516 59.325L189.903 56V1H97V94H163.621C167.928 94 170.064 88.7744 166.991 85.7573L162.421 81.2717C159.443 78.3487 159.443 73.5513 162.421 70.6283C165.322 67.7808 169.969 67.7808 172.869 70.6283L173.935 71.675Z" fill="#D9D9D9"/>
</mask>
<g mask="url(#mask0_1810_5761)">
<path d="M144 4.5C167.472 4.5 186.5 23.5279 186.5 47C186.5 70.4721 167.472 89.5 144 89.5C120.528 89.5 101.5 70.4721 101.5 47C101.5 23.5279 120.528 4.5 144 4.5Z" fill="url(#paint1_linear_1810_5761)" stroke="#DD6E00" stroke-width="5"/>
<path d="M144.089 46.1893C151.116 46.1893 156.812 40.5505 156.812 33.5946C156.812 26.6388 151.116 21 144.089 21C137.062 21 131.365 26.6388 131.365 33.5946C131.365 40.5505 137.062 46.1893 144.089 46.1893Z" fill="white"/>
<path d="M132.35 68.2279H155.82C159.879 68.2279 163.17 65.0271 163.17 61.0786C163.17 59.1656 162.396 57.3184 160.983 55.9882C156.609 51.8717 150.653 49.3359 144.085 49.3359C137.518 49.3359 131.562 51.8714 127.188 55.9882C125.774 57.3184 125 59.1656 125 61.0786C125 65.0271 128.291 68.2279 132.35 68.2279Z" fill="white"/>
</g>
<path d="M174.588 87C173.654 87 172.72 86.6306 172.008 85.8914L165.069 78.6918C163.644 77.2139 163.644 74.8173 165.069 73.3391C166.493 71.8609 168.804 71.8609 170.228 73.3391L174.025 77.279C174.336 77.6011 174.839 77.6011 175.15 77.279L189.772 62.1084C191.197 60.6304 193.507 60.6307 194.931 62.1084C196.356 63.5866 196.356 65.9832 194.931 67.4611L177.167 85.8914C176.455 86.6304 175.521 87 174.588 87Z" fill="url(#paint2_linear_1810_5761)"/>
<path d="M143.844 84C152.167 84 159.894 84.3237 166.285 85.002L171.01 89.6777C171.9 90.5591 173.067 90.9999 174.234 91C176 91 177.11 90.3811 178 89.5L179.833 87.749C182.304 88.7416 183.687 89.9417 183.688 91.3623C183.688 96.464 165.849 99 143.844 99C121.839 99 104 96.464 104 91.3623C104 86.2607 121.839 84 143.844 84Z" fill="#F78D8D" fill-opacity="0.15"/>
<defs>
<linearGradient id="paint0_linear_1810_5761" x1="143.03" y1="38.5561" x2="143.03" y2="80.7901" gradientUnits="userSpaceOnUse">
<stop stop-color="#F78D8D"/>
<stop offset="1" stop-color="white"/>
</linearGradient>
<linearGradient id="paint1_linear_1810_5761" x1="144" y1="2" x2="144" y2="92.4278" gradientUnits="userSpaceOnUse">
<stop stop-color="#FFBF74"/>
<stop offset="0.0001" stop-color="#FFBE73" stop-opacity="0.979167"/>
<stop offset="0.0002" stop-color="#FFBF74"/>
<stop offset="0.9996" stop-color="#F4973B"/>
<stop offset="0.9997" stop-color="#F4983C" stop-opacity="0.0212354"/>
<stop offset="0.9998" stop-color="#F4983C" stop-opacity="0.0183554"/>
<stop offset="0.9999" stop-color="#F4983C" stop-opacity="0.0150649"/>
<stop offset="1" stop-color="#F4973B"/>
</linearGradient>
<linearGradient id="paint2_linear_1810_5761" x1="165.539" y1="74" x2="195.477" y2="74.4209" gradientUnits="userSpaceOnUse">
<stop stop-color="#EA553F"/>
<stop offset="1" stop-color="#D32A30"/>
</linearGradient>
</defs>
</svg>
