<svg width="344" height="201" viewBox="0 0 344 201" fill="none" xmlns="http://www.w3.org/2000/svg">
<path d="M315.5 185.901C315.5 171.63 251.253 144.901 172 144.901C92.7471 144.901 28.5 171.63 28.5 185.901C28.5 185.901 92.7471 185.901 172 185.901C251.253 185.901 315.5 185.901 315.5 185.901Z" fill="url(#paint0_linear_1891_12158)" fill-opacity="0.3"/>
<path d="M253.67 177.754C253.67 172.312 217.105 169.901 172 169.901C126.894 169.901 90.3291 172.312 90.3291 177.754C90.3291 183.196 126.894 185.901 172 185.901C217.105 185.901 253.67 183.196 253.67 177.754Z" fill="#F78D8D" fill-opacity="0.15"/>
<g opacity="0.8">
<path d="M246.897 127.651C246.897 127.65 246.896 127.65 246.896 127.651C245.823 130.599 244.508 133.394 242.978 136.013C239.304 142.301 234.405 147.588 228.707 151.675C215.466 161.175 197.916 164.189 181.444 158.201C161.849 151.079 149.262 133.214 147.923 113.672C147.744 111.096 147.761 108.492 147.988 105.88C148.359 101.493 149.313 97.0809 150.888 92.7481C152.163 89.2429 153.781 85.9605 155.691 82.9287C155.712 82.8937 155.734 82.8603 155.756 82.8253C161.058 74.4507 168.589 67.9857 177.251 63.9335C179.708 62.7832 182.257 61.8276 184.873 61.0788C186.12 60.7211 187.386 60.4108 188.659 60.1513C197.597 58.3119 207.137 58.8467 216.345 62.1941C217.565 62.6377 218.759 63.1234 219.923 63.6494C221.568 64.3876 223.155 65.2065 224.682 66.0973C231.115 69.8478 236.498 74.8817 240.626 80.7414C240.626 80.7419 240.627 80.7422 240.627 80.7422C240.628 80.7422 240.628 80.7424 240.629 80.7429C243.201 84.3916 245.282 88.3595 246.823 92.5377C247.633 94.733 248.294 96.9845 248.798 99.2798C249.112 100.709 249.364 102.15 249.555 103.609C250.015 107.111 250.109 110.683 249.822 114.274C249.461 118.739 248.502 123.234 246.898 127.651C246.897 127.651 246.897 127.651 246.897 127.651Z" fill="url(#paint1_linear_1891_12158)"/>
<path opacity="0.4" d="M190.394 82.7823C187.376 85.1196 188.176 91.3742 182.951 87.8498C177.725 84.3236 174.446 82.407 172.966 85.4844C171.485 88.5617 176.116 90.245 174.897 93.5976C173.678 96.9502 171.199 97.3044 168.586 94.5515C165.97 91.7986 165.895 89.1491 161.662 89.2368C157.427 89.3244 155.621 87.5833 155.828 84.4042C155.86 83.8954 155.816 83.449 155.72 83.0478C155.702 82.972 155.714 82.893 155.754 82.8261C161.057 74.4516 168.588 67.9866 177.25 63.9343C179.707 62.784 182.256 61.8284 184.872 61.0797C185.153 60.9991 185.435 60.921 185.717 60.8453C187.621 60.3353 189.802 60.3976 191.111 61.8708C191.687 62.5191 192.192 63.3487 192.556 64.4095C194.399 69.7804 197.389 68.5161 194.849 73.0155C192.309 77.5131 193.356 78.6178 196.126 79.4437C198.898 80.2696 202.091 81.4304 201.656 83.6222C201.22 85.814 193.413 80.4432 190.394 82.7823Z" fill="#9D031B" fill-opacity="0.5"/>
<path opacity="0.4" d="M246.896 127.647C246.897 127.648 246.897 127.649 246.897 127.649C245.824 130.598 244.509 133.393 242.978 136.012C239.895 141.289 235.949 145.861 231.391 149.611C229.695 151.006 227.337 151.902 225.524 150.661C225.311 150.515 225.105 150.353 224.905 150.175C219.789 145.604 226.569 140.75 230.139 138.386C233.709 136.025 227.081 135.241 223.739 130.638C220.397 126.035 228.223 119.796 223.194 119.46C218.165 119.123 212.049 118.797 211.025 113.41C210.001 108.023 215.291 109.132 214.365 104.594C213.439 100.056 217.814 99.2053 222.494 100.501C227.174 101.795 227.751 98.3461 233.552 99.912C239.354 101.478 236.622 108.618 243.022 110.403C246.217 111.294 247.617 112.073 248.218 112.63C248.608 112.991 249.104 113.682 249.525 114.008C249.719 114.159 249.809 114.409 249.787 114.654C249.403 118.993 248.454 123.356 246.896 127.645C246.896 127.646 246.896 127.647 246.896 127.647Z" fill="#9D031B" fill-opacity="0.5"/>
<path opacity="0.4" d="M249.554 103.608C249.554 103.607 249.553 103.606 249.552 103.606C243.461 104.241 243.872 96.6362 238.7 97.0885C233.483 97.5427 235.716 93.8341 233.135 90.0046C230.55 86.175 221.844 88.2511 223.613 84.3742C225.382 80.5008 230.245 83.5308 232.523 80.7463C234.561 78.2528 238.634 80.117 239.468 80.5362C239.569 80.5872 239.679 80.6125 239.792 80.6163C240.065 80.6256 240.343 80.667 240.623 80.7404C240.624 80.7407 240.626 80.7399 240.627 80.7407C240.627 80.7408 240.627 80.7411 240.627 80.7411C243.199 84.3901 245.281 88.3563 246.822 92.5365C247.632 94.7319 248.293 96.9833 248.796 99.2786C249.11 100.708 249.363 102.149 249.554 103.608Z" fill="#9D031B" fill-opacity="0.5"/>
<path opacity="0.4" d="M210.944 73.9856C210.944 73.9856 210.943 73.9857 210.943 73.9856C210.952 73.9795 215.076 71.0545 211.191 68.3342C207.3 65.6129 206.83 67.1542 203.609 65.5778C200.386 64.0014 198.126 66.1179 199.611 69.865C201.094 73.6122 201.154 79.7896 204.482 77.7188C207.809 75.6482 208.169 73.2937 210.944 73.9853C210.944 73.9854 210.944 73.9856 210.944 73.9856Z" fill="#9D031B" fill-opacity="0.5"/>
<path d="M214.496 106.035C214.495 106.035 214.495 106.036 214.495 106.037C215.641 110.486 216.634 114.975 217.449 119.497C218.256 124.02 218.877 128.577 219.253 133.156C219.436 135.445 219.557 137.739 219.586 140.035C219.614 142.33 219.555 144.628 219.348 146.914C219.132 149.196 218.788 151.479 218.086 153.667C217.729 154.756 217.28 155.826 216.632 156.78C216.307 157.254 215.93 157.698 215.484 158.068C215.039 158.435 214.524 158.728 213.964 158.884C213.407 159.046 212.815 159.078 212.243 158.995C211.668 158.915 211.116 158.727 210.595 158.484C209.551 157.992 208.627 157.287 207.778 156.518C206.085 154.963 204.666 153.141 203.365 151.255C202.067 149.362 200.896 147.384 199.803 145.365C198.712 143.345 197.7 141.282 196.748 139.193C194.845 135.012 193.177 130.726 191.675 126.384C190.175 122.041 188.847 117.637 187.672 113.194C187.086 110.973 186.572 108.733 186.074 106.489C185.581 104.246 185.126 101.994 184.711 99.7338C183.883 95.2158 183.214 90.6665 182.785 86.0944C182.572 83.8092 182.42 81.5169 182.356 79.2235C182.294 76.9297 182.316 74.6327 182.489 72.3461C182.67 70.0641 182.98 67.7768 183.667 65.5916C184.016 64.505 184.465 63.438 185.126 62.5053C185.458 62.0421 185.844 61.6132 186.301 61.2732C186.754 60.9303 187.28 60.6811 187.834 60.5603C188.388 60.4349 188.966 60.4361 189.525 60.5351C190.084 60.6348 190.625 60.8282 191.138 61.0728C192.165 61.566 193.089 62.2555 193.944 63.0089C195.651 64.5297 197.104 66.318 198.442 68.1735C199.775 70.0363 200.983 71.9884 202.113 73.9845C203.24 75.9823 204.286 78.0266 205.27 80.0999C207.231 84.2511 208.953 88.5163 210.483 92.8489C212.004 97.1843 213.335 101.586 214.497 106.033C214.497 106.033 214.496 106.034 214.496 106.035ZM213.785 106.219C212.649 101.788 211.342 97.3982 209.848 93.0751C208.359 88.7506 206.695 84.4852 204.784 80.3359C203.829 78.261 202.813 76.2149 201.716 74.2163C200.617 72.219 199.439 70.2651 198.138 68.4008C196.834 66.5446 195.415 64.7563 193.753 63.2388C192.92 62.4873 192.023 61.8018 191.033 61.3109C190.539 61.0682 190.021 60.876 189.487 60.7735C188.955 60.6746 188.406 60.6598 187.883 60.7804C187.359 60.898 186.869 61.1412 186.442 61.4712C186.013 61.7999 185.647 62.2139 185.333 62.6646C184.706 63.5718 184.279 64.6205 183.949 65.6912C183.298 67.8471 183.019 70.117 182.865 72.3828C182.72 74.6533 182.725 76.9364 182.815 79.2162C182.906 81.4967 183.084 83.7754 183.323 86.048C184.296 95.1426 186.169 104.132 188.487 112.983C189.619 117.415 190.905 121.81 192.362 126.145C193.821 130.481 195.447 134.76 197.305 138.934C198.235 141.02 199.223 143.079 200.291 145.093C201.358 147.107 202.503 149.079 203.773 150.962C205.044 152.839 206.432 154.649 208.069 156.179C208.89 156.935 209.779 157.623 210.762 158.096C211.253 158.329 211.767 158.509 212.292 158.586C212.816 158.664 213.351 158.645 213.854 158.496C214.358 158.351 214.822 158.083 215.228 157.741C215.635 157.397 215.985 156.98 216.289 156.528C216.897 155.619 217.324 154.578 217.662 153.514C218.329 151.373 218.651 149.115 218.844 146.857C219.031 144.593 219.069 142.313 219.021 140.034C218.972 137.755 218.833 135.475 218.63 133.2C218.227 128.649 217.568 124.119 216.746 119.62C215.929 115.119 214.933 110.649 213.786 106.22L213.785 106.219Z" fill="#F5E2E2"/>
<path d="M236.08 100.454C237.531 106.192 238.303 112.108 238.255 118.015C238.177 123.917 237.281 129.805 235.437 135.36C233.595 140.903 230.773 146.13 226.889 150.395C224.946 152.52 222.737 154.39 220.308 155.899C217.882 157.409 215.237 158.553 212.479 159.269C209.721 159.983 206.853 160.268 203.997 160.125C201.141 159.986 198.301 159.424 195.569 158.51C190.098 156.668 185.089 153.468 180.783 149.515C176.47 145.551 172.826 140.834 169.888 135.709C168.43 133.139 167.149 130.463 166.047 127.716C164.948 124.967 164.024 122.147 163.269 119.281C162.543 116.409 161.986 113.495 161.616 110.557C161.249 107.62 161.076 104.66 161.107 101.705C161.198 95.7994 162.103 89.9108 163.958 84.358C165.811 78.8175 168.641 73.596 172.534 69.3423C174.481 67.2226 176.694 65.3653 179.12 63.86C181.542 62.3515 184.183 61.2094 186.937 60.4954C189.693 59.7877 192.556 59.5104 195.405 59.6576C198.255 59.8006 201.09 60.3565 203.819 61.269C209.281 63.1087 214.28 66.3076 218.579 70.2573C222.886 74.2158 226.526 78.9269 229.459 84.0468C232.368 89.1867 234.563 94.7337 236.08 100.454ZM235.268 100.664C233.798 95.0084 231.658 89.5202 228.81 84.4304C225.959 79.3496 222.427 74.6448 218.211 70.6825C216.105 68.7035 213.831 66.9126 211.405 65.3768C208.979 63.845 206.403 62.5559 203.711 61.6281C201.017 60.7105 198.216 60.134 195.396 59.9842C192.577 59.8341 189.744 60.1035 187.016 60.7991C184.294 61.5159 181.687 62.6562 179.296 64.1564C176.904 65.6569 174.736 67.5203 172.829 69.6305C170.927 71.7484 169.303 74.1245 167.928 76.6412C166.554 79.1605 165.437 81.8292 164.559 84.5801C162.799 90.0875 161.995 95.9105 161.971 101.731C161.962 104.643 162.164 107.559 162.539 110.452C162.912 113.346 163.47 116.217 164.195 119.045C164.933 121.871 165.84 124.651 166.917 127.361C167.994 130.071 169.232 132.718 170.654 135.26C173.5 140.336 177.029 145.034 181.238 148.992C183.341 150.969 185.611 152.759 188.032 154.294C190.454 155.825 193.024 157.114 195.713 158.039C198.403 158.956 201.199 159.525 204.013 159.679C206.826 159.835 209.654 159.571 212.38 158.882C215.099 158.166 217.702 157.028 220.089 155.531C222.478 154.034 224.651 152.182 226.561 150.078C228.468 147.967 230.094 145.593 231.474 143.081C232.853 140.564 233.975 137.898 234.859 135.149C236.628 129.644 237.442 123.82 237.478 117.996C237.504 112.165 236.72 106.327 235.268 100.666L235.268 100.664Z" fill="#F5E2E2"/>
<path d="M152.25 101.276L163.135 98.3514L174.031 95.4716C177.662 94.5061 181.3 93.5683 184.936 92.6204L195.843 89.7812L217.679 84.1897L228.608 81.4318L239.548 78.721C239.568 78.7159 239.588 78.7293 239.593 78.7496C239.599 78.77 239.587 78.7907 239.567 78.7958L228.684 81.7283L217.789 84.6136L195.979 90.3086L185.063 93.1127C181.424 94.0459 177.787 94.9892 174.143 95.9048L163.217 98.6682L152.279 101.387C152.249 101.395 152.219 101.376 152.211 101.345C152.203 101.314 152.221 101.284 152.25 101.276Z" fill="#F5E2E2"/>
<path d="M159.997 79.0055C162.567 78.2897 165.144 77.6016 167.718 76.8997L175.45 74.8381C178.026 74.1454 180.609 73.4804 183.189 72.8052L190.932 70.7843L198.684 68.8004C201.27 68.1446 203.85 67.4704 206.44 66.8294L214.204 64.8898C216.796 64.2599 219.384 63.6143 221.979 62.9973C221.999 62.9922 222.019 63.0056 222.025 63.026C222.03 63.0463 222.018 63.0661 221.999 63.0721C219.429 63.7907 216.853 64.4806 214.28 65.1863L206.549 67.2534C203.974 67.9479 201.39 68.6092 198.811 69.289L191.068 71.3118L183.317 73.2976C180.732 73.958 178.151 74.6285 175.562 75.2714L167.799 77.2165C165.208 77.8501 162.621 78.4976 160.026 79.1173C159.996 79.1249 159.966 79.1052 159.959 79.0745C159.951 79.045 159.969 79.0138 159.997 79.0055Z" fill="#F5E2E2"/>
<path d="M153.368 121.252L165.201 118.083L177.046 114.958L200.753 108.777L224.485 102.696L236.361 99.6927L248.25 96.7367C248.269 96.7317 248.29 96.7441 248.295 96.7654C248.3 96.7857 248.289 96.8065 248.269 96.8115L236.438 99.9892L224.595 103.12L200.889 109.305L177.158 115.391L165.283 118.4L153.397 121.364C153.367 121.372 153.337 121.353 153.329 121.322C153.321 121.291 153.339 121.261 153.368 121.252Z" fill="#F5E2E2"/>
<path d="M162.074 139.269L172.959 136.345L183.856 133.465C187.486 132.499 191.124 131.561 194.76 130.614L205.667 127.774L227.504 122.183L238.432 119.425L249.372 116.714C249.392 116.709 249.412 116.722 249.418 116.743C249.423 116.763 249.411 116.784 249.392 116.789L238.509 119.721L227.613 122.607L205.803 128.302L194.887 131.106C191.248 132.039 187.611 132.982 183.968 133.898L173.041 136.661L162.103 139.381C162.073 139.388 162.043 139.369 162.035 139.338C162.027 139.307 162.045 139.277 162.074 139.269Z" fill="#F5E2E2"/>
<path d="M181.271 154.838C181.168 154.864 181.061 154.799 181.033 154.692C181.005 154.584 181.066 154.476 181.17 154.449C186.481 153.075 243.289 138.204 243.383 138.569C243.478 138.933 186.581 153.464 181.271 154.838Z" fill="#F5E2E2"/>
</g>
<path d="M148.851 60.8907C153.401 55.5487 160.416 44.8181 165.139 39.324C166.111 38.1928 165.303 36.4474 163.812 36.4474H155.217L163.324 18.1149C163.67 17.3321 162.604 16.7085 162.091 17.3937L142.488 43.6301C141.917 44.3954 142.541 45.4731 143.49 45.3558L153.221 44.1574L147.432 60.0604C147.114 60.936 148.247 61.5991 148.851 60.8896V60.8907Z" fill="url(#paint2_linear_1891_12158)"/>
<path d="M108.384 93.4271C109.407 88.1768 110.054 78.4264 111.135 73.01C111.358 71.8952 110.167 71.0381 109.177 71.5955L103.468 74.8101L101.995 59.6015C101.932 58.9523 100.991 58.9372 100.907 59.5841L97.7006 84.3421C97.6077 85.0645 98.4253 85.5464 99.0118 85.1132L105.026 80.6782L107.129 93.4062C107.245 94.1065 108.247 94.1227 108.382 93.4259L108.384 93.4271Z" fill="#DD6E00"/>
<path d="M191.086 167.172L106.476 174.174C102.315 174.518 98.3874 172.727 95.9703 169.383C93.5533 166.038 93.1273 161.806 94.8311 158.061L130.677 79.267C132.438 75.3952 136.059 72.8712 140.361 72.515C144.664 72.1588 148.663 74.0523 151.059 77.5807L199.823 149.373C202.141 152.785 202.442 157.028 200.629 160.722C198.816 164.417 195.248 166.828 191.087 167.172H191.086Z" fill="#EB8D2D"/>
<path d="M185.59 164.403C185.59 164.403 185.59 164.402 185.59 164.402L105.537 171.147C99.459 171.659 95.0601 165.462 97.5485 159.893L131.464 83.9901C134.037 78.2321 141.946 77.5658 145.446 82.8125L191.583 151.971C194.969 157.045 191.669 163.891 185.591 164.403C185.591 164.403 185.59 164.403 185.59 164.403Z" fill="url(#paint3_linear_1891_12158)"/>
<path d="M185.847 167.431L105.794 174.175C101.857 174.507 98.1403 172.782 95.8534 169.56C93.5666 166.338 93.1636 162.261 94.7756 158.654L128.691 82.7508C130.357 79.0211 133.783 76.5897 137.854 76.2466C141.925 75.9035 145.708 77.7275 147.975 81.1264L194.113 150.285C196.306 153.572 196.591 157.659 194.875 161.217C193.16 164.776 189.785 167.099 185.848 167.431H185.847ZM138.364 82.3022C136.531 82.4562 134.99 83.5511 134.24 85.2297L100.325 161.133C99.5993 162.756 99.7809 164.592 100.81 166.041C101.84 167.492 103.512 168.268 105.284 168.119L185.337 161.374C187.109 161.225 188.629 160.18 189.401 158.578C190.172 156.976 190.045 155.136 189.057 153.657L142.92 84.4988C141.899 82.9694 140.197 82.1482 138.364 82.3022Z" fill="url(#paint4_linear_1891_12158)"/>
<path d="M137.421 151.722C137.339 150.737 137.437 149.812 137.719 148.946C138 148.08 138.436 147.314 139.027 146.648C139.618 145.983 140.35 145.439 141.224 145.02C142.097 144.601 143.1 144.342 144.232 144.247C145.363 144.152 146.403 144.238 147.349 144.503C148.296 144.769 149.117 145.182 149.81 145.739C150.505 146.298 151.062 146.98 151.484 147.785C151.906 148.592 152.159 149.487 152.242 150.473C152.325 151.458 152.225 152.377 151.943 153.227C151.66 154.079 151.224 154.837 150.633 155.503C150.042 156.169 149.302 156.713 148.413 157.133C147.525 157.554 146.514 157.812 145.382 157.908C144.25 158.003 143.218 157.917 142.288 157.65C141.356 157.383 140.544 156.97 139.85 156.412C139.156 155.854 138.598 155.18 138.177 154.387C137.756 153.596 137.505 152.707 137.421 151.722ZM149.166 136.134C149.208 137.116 148.468 137.956 147.489 138.039L139.98 138.671C139.001 138.754 138.131 138.049 138.008 137.074L133.737 103.218C133.607 102.184 134.363 101.25 135.401 101.162L145.727 100.292C146.766 100.205 147.668 100.999 147.712 102.04L149.166 136.134Z" fill="white"/>
<defs>
<linearGradient id="paint0_linear_1891_12158" x1="171.53" y1="143.457" x2="171.53" y2="185.691" gradientUnits="userSpaceOnUse">
<stop stop-color="#F78D8D"/>
<stop offset="1" stop-color="white"/>
</linearGradient>
<linearGradient id="paint1_linear_1891_12158" x1="205.148" y1="-61.4632" x2="200.535" y2="173.343" gradientUnits="userSpaceOnUse">
<stop stop-color="#FFC59A"/>
<stop offset="0.774583" stop-color="#FF826E"/>
<stop offset="1" stop-color="#FF7062"/>
</linearGradient>
<linearGradient id="paint2_linear_1891_12158" x1="155.342" y1="-34.9245" x2="152.414" y2="50.2406" gradientUnits="userSpaceOnUse">
<stop stop-color="#FFC59A"/>
<stop offset="1" stop-color="#FF7062"/>
</linearGradient>
<linearGradient id="paint3_linear_1891_12158" x1="144.89" y1="79.2456" x2="144.89" y2="171.177" gradientUnits="userSpaceOnUse">
<stop stop-color="#FFBF74"/>
<stop offset="1" stop-color="#F4973B"/>
</linearGradient>
<linearGradient id="paint4_linear_1891_12158" x1="144.893" y1="76.2056" x2="144.893" y2="174.216" gradientUnits="userSpaceOnUse">
<stop stop-color="#FFBF74"/>
<stop offset="1" stop-color="#F4973B"/>
</linearGradient>
</defs>
</svg>
