<svg width="18" height="18" viewBox="0 0 18 18" fill="none" xmlns="http://www.w3.org/2000/svg">
<mask id="mask0" style="mask-type:alpha" maskUnits="userSpaceOnUse" x="0" y="0" width="18" height="18">
<rect width="18" height="18" fill="white"/>
</mask>
<g mask="url(#mask0)">
<path d="M15.6797 0.5625H2.32031C1.04087 0.5625 0 1.60337 0 2.88281V15.1172C0 16.3966 1.04087 17.4375 2.32031 17.4375H15.6797C16.9591 17.4375 18 16.3966 18 15.1172V2.88281C18 1.60337 16.9591 0.5625 15.6797 0.5625ZM1.125 15.1172V5.80078C1.125 5.70371 1.20371 5.625 1.30078 5.625H16.6992C16.7963 5.625 16.875 5.70371 16.875 5.80078V12.9375H15.1172C14.224 12.9375 13.5 13.6615 13.5 14.5547V16.3125H2.32031C1.66015 16.3125 1.125 15.7774 1.125 15.1172ZM15.6797 16.3125H14.625V14.5547C14.625 14.2833 14.8458 14.0625 15.1172 14.0625H16.875V15.1172C16.875 15.7763 16.3388 16.3125 15.6797 16.3125Z" fill="#727272"/>
<path d="M14.0625 7.875C14.0625 7.56436 13.8107 7.3125 13.5 7.3125H4.5C4.18932 7.3125 3.9375 7.56436 3.9375 7.875C3.9375 8.18564 4.18932 8.4375 4.5 8.4375H13.5C13.8107 8.4375 14.0625 8.18564 14.0625 7.875Z" fill="#727272"/>
<path d="M12.375 10.125H5.625C5.31432 10.125 5.0625 10.3769 5.0625 10.6875C5.0625 10.9981 5.31432 11.25 5.625 11.25H12.375C12.6857 11.25 12.9375 10.9981 12.9375 10.6875C12.9375 10.3769 12.6857 10.125 12.375 10.125Z" fill="#727272"/>
</g>
</svg>
