<svg width="40" height="40" viewBox="0 0 40 40" fill="none" xmlns="http://www.w3.org/2000/svg">
<path opacity="0.2" d="M20 40C31.0457 40 40 31.0457 40 20C40 8.95431 31.0457 0 20 0C8.9543 0 0 8.95431 0 20C0 31.0457 8.9543 40 20 40Z" fill="#C68158"/>
<path d="M15.1742 15.3613C15.1742 12.5984 17.4226 10.35 20.1855 10.35C22.9485 10.35 25.1969 12.5984 25.1969 15.3613C25.1969 18.1243 22.9485 20.3727 20.1855 20.3727C17.4226 20.3727 15.1742 18.1243 15.1742 15.3613Z" fill="#FFC76F" stroke="#985801" stroke-width="0.7"/>
<path d="M26.8561 24.2252C25.3883 22.7348 23.4424 21.9141 21.377 21.9141H18.9941C16.9287 21.9141 14.9828 22.7348 13.515 24.2252C12.0544 25.7083 11.25 27.6659 11.25 29.7376C11.25 30.0666 11.5167 30.3333 11.8457 30.3333H28.5254C28.8544 30.3333 29.1211 30.0666 29.1211 29.7376C29.1211 27.6659 28.3167 25.7083 26.8561 24.2252Z" fill="#CD4005" stroke="#985801"/>
</svg>
