<svg width="44" height="44" viewBox="0 0 44 44" fill="none" xmlns="http://www.w3.org/2000/svg">
<circle opacity="0.2" r="22" transform="matrix(1 0 0 -1 22 22)" fill="#C68158"/>
<path d="M13.5127 30.4873C12.608 29.5825 12.0773 28.4242 11.9518 27.2C11.8856 26.5547 11.6264 25.9346 11.2177 25.4308C10.4408 24.473 10 23.2632 10 22C10 20.7368 10.4408 19.5269 11.2178 18.5691C11.6265 18.0653 11.8856 17.4452 11.9518 16.7999C12.0773 15.5758 12.608 14.4174 13.5127 13.5127C14.4174 12.608 15.5757 12.0773 16.7998 11.9518C17.4453 11.8856 18.0654 11.6264 18.5693 11.2176C19.5271 10.4407 20.7368 10 22 10C23.2632 10 24.4729 10.4407 25.4307 11.2176C25.9346 11.6264 26.5548 11.8856 27.2002 11.9518C28.4243 12.0773 29.5826 12.608 30.4873 13.5127C31.3919 14.4174 31.9227 15.5758 32.0482 16.7998C32.1144 17.4452 32.3735 18.0653 32.7822 18.5691C33.5592 19.527 34 20.7368 34 22C34 23.2632 33.5593 24.473 32.7823 25.4307C32.3736 25.9346 32.1144 26.5547 32.0482 27.2001C31.9227 28.4242 31.3919 29.5826 30.4873 30.4873C29.585 31.3895 28.4173 31.9198 27.2015 32.0472C26.5554 32.1148 25.9342 32.3741 25.4296 32.7832C24.472 33.5596 23.2627 34 22 34C20.7368 34 19.527 33.5593 18.5693 32.7823C18.0654 32.3736 17.4453 32.1144 16.7999 32.0482C15.5758 31.9227 14.4174 31.3919 13.5127 30.4873Z" fill="#FFC76F" stroke="#985801"/>
<path d="M21.1175 18.9967C21.7372 18.9697 22.3538 19.0931 22.9056 19.3547C23.2945 19.5505 23.638 19.815 23.9164 20.133V18.4142H22.8691C22.815 18.4214 22.7599 18.4168 22.7081 18.4009C22.6563 18.385 22.6092 18.3581 22.5706 18.3225C22.532 18.2869 22.5029 18.2434 22.4857 18.1956C22.4684 18.1478 22.4635 18.097 22.4713 18.0471V17.6138C22.4635 17.5639 22.4684 17.5131 22.4857 17.4653C22.5029 17.4175 22.532 17.374 22.5706 17.3384C22.6092 17.3028 22.6563 17.2759 22.7081 17.26C22.7599 17.2441 22.815 17.2395 22.8691 17.2467H23.9164V16.4463C23.9152 16.3875 23.9271 16.3291 23.9513 16.2747C23.9755 16.2202 24.0114 16.1709 24.057 16.1298C24.1016 16.0878 24.155 16.0546 24.214 16.0323C24.2729 16.01 24.3362 15.999 24.4 16.0001H25.0677C25.1314 15.999 25.1947 16.01 25.2537 16.0323C25.3127 16.0546 25.3661 16.0878 25.4107 16.1298C25.4563 16.1709 25.4922 16.2202 25.5164 16.2747C25.5406 16.3291 25.5525 16.3875 25.5513 16.4463V17.2467H26.5986C26.6526 17.2395 26.7078 17.2441 26.7596 17.26C26.8114 17.2759 26.8585 17.3028 26.8971 17.3384C26.9357 17.374 26.9648 17.4175 26.982 17.4653C26.9993 17.5131 27.0042 17.5639 26.9964 17.6138V18.0471C27.0042 18.097 26.9993 18.1478 26.982 18.1956C26.9648 18.2434 26.9357 18.2869 26.8971 18.3225C26.8585 18.3581 26.8114 18.385 26.7596 18.4009C26.7078 18.4168 26.6526 18.4214 26.5986 18.4142H25.5611V27.3806C25.5623 27.4394 25.5504 27.4978 25.5263 27.5523C25.5021 27.6067 25.4661 27.656 25.4206 27.6971C25.376 27.7392 25.3225 27.7724 25.2636 27.7947C25.2046 27.817 25.1413 27.8279 25.0776 27.8269H24.4042C24.3405 27.8279 24.2772 27.817 24.2182 27.7947C24.1592 27.7724 24.1058 27.7392 24.0612 27.6971C24.0156 27.656 23.9797 27.6067 23.9555 27.5523C23.9313 27.4978 23.9195 27.4394 23.9206 27.3806V26.8617C23.6429 27.1904 23.292 27.4602 22.8916 27.653C22.3409 27.9033 21.7308 28.0215 21.1175 27.9968C20.5766 28.0019 20.0398 27.9094 19.5374 27.7244C19.0574 27.546 18.6235 27.2764 18.2638 26.9331C17.8904 26.5715 17.5959 26.1469 17.3964 25.6825C17.1714 25.155 17.044 24.5964 17.0197 24.0299C17.0066 23.8638 17 23.6835 17 23.4889C17 23.2944 17.0066 23.1136 17.0197 22.9467C17.0452 22.381 17.1735 21.8232 17.3992 21.2966C17.5974 20.8344 17.8921 20.4126 18.2666 20.0552C18.6288 19.7178 19.0623 19.4529 19.5402 19.2769C20.0412 19.0895 20.577 18.9943 21.1175 18.9967ZM23.9164 24.2141C23.9286 24.0472 23.9347 23.8279 23.9347 23.5564C23.9347 23.2848 23.9286 23.0656 23.9164 22.8987C23.929 22.2207 23.6535 21.5651 23.1488 21.0722C22.9025 20.8564 22.6117 20.6883 22.2936 20.578C21.9756 20.4678 21.6369 20.4174 21.2974 20.4301C20.948 20.4138 20.5989 20.468 20.2746 20.589C19.9502 20.71 19.6583 20.8948 19.4193 21.1306C18.9339 21.663 18.6654 22.3352 18.6602 23.031C18.648 23.3424 18.648 23.6533 18.6602 23.9637C18.6654 24.6595 18.9339 25.3317 19.4193 25.8642C19.6583 26.0999 19.9502 26.2848 20.2746 26.4058C20.5989 26.5267 20.948 26.581 21.2974 26.5647C21.6344 26.5759 21.9705 26.5258 22.2865 26.4172C22.6024 26.3086 22.8921 26.1436 23.139 25.9316C23.3851 25.7069 23.5805 25.4394 23.714 25.1446C23.8474 24.8498 23.9162 24.5336 23.9164 24.2141Z" fill="#D14406" stroke="#D14406" stroke-width="0.3"/>
</svg>
