<svg width="44" height="44" viewBox="0 0 44 44" fill="none" xmlns="http://www.w3.org/2000/svg">
<circle opacity="0.2" r="22" transform="matrix(1 0 0 -1 22 22)" fill="#C68158"/>
<path d="M13.65 14.5V30.15H13H12.4V30.75V32V32.6H13H30.5H31.1V32V30.75V30.15H30.5H29.85V14.5C29.85 12.7898 28.4602 11.4 26.75 11.4H16.75C15.0399 11.4 13.65 12.7898 13.65 14.5ZM23.6 16.35H24.9V17.65H23.6V16.35ZM23.6 20.1H24.9V21.4H23.6V20.1ZM23.6 23.85H24.9V25.15H23.6V23.85ZM18.6 16.35H19.9V17.65H18.6V16.35ZM18.6 20.1H19.9V21.4H18.6V20.1ZM18.6 23.85H19.9V25.15H18.6V23.85ZM19.85 30.15V27.6H23.65V30.15H19.85Z" fill="#FFC76F" stroke="#985801" stroke-width="1.2"/>
<rect x="16.75" y="15" width="10" height="16" fill="url(#paint0_linear)"/>
<path d="M29.25 30.75V14.5C29.25 13.1212 28.1288 12 26.75 12H16.75C15.3712 12 14.25 13.1212 14.25 14.5V30.75H13V32H30.5V30.75H29.25V30.75ZM23 15.75H25.5V18.25H23V15.75ZM23 19.5H25.5V22H23V19.5ZM23 23.25H25.5V25.75H23V23.25ZM18 15.75H20.5V18.25H18V15.75ZM18 19.5H20.5V22H18V19.5ZM18 23.25H20.5V25.75H18V23.25ZM19.25 30.75V27H24.25V30.75H19.25Z" fill="#FFC76F"/>
<defs>
<linearGradient id="paint0_linear" x1="21.75" y1="15" x2="21.75" y2="31" gradientUnits="userSpaceOnUse">
<stop stop-color="#EA6544"/>
<stop offset="1" stop-color="#D12A1E"/>
</linearGradient>
</defs>
</svg>
