<svg width="60" height="60" viewBox="0 0 60 60" fill="none" xmlns="http://www.w3.org/2000/svg">
<circle cx="30" cy="30" r="30" fill="url(#paint0_linear)"/>
<path d="M15.0215 29.4157V42.6634C15.0215 43.768 15.9169 44.6634 17.0215 44.6634H42.9865C44.0911 44.6634 44.9865 43.768 44.9865 42.6634V28.3993" stroke="white" stroke-width="1.5"/>
<path d="M14.082 27.4299V22.2642C14.082 21.1596 14.9775 20.2642 16.082 20.2642H43.9199C45.0244 20.2642 45.9199 21.1596 45.9199 22.2642V26.5475C45.9199 27.4473 45.319 28.2363 44.4517 28.4755L30.4733 32.3313C30.163 32.4169 29.8366 32.4264 29.5219 32.3588L15.6625 29.3854C14.7406 29.1876 14.082 28.3728 14.082 27.4299Z" stroke="white" stroke-width="1.5"/>
<path d="M35.3074 19.9009V18.3634C35.3074 17.2588 34.412 16.3634 33.3074 16.3634H25.5156C24.4111 16.3634 23.5156 17.2588 23.5156 18.3634V19.9009" stroke="white" stroke-width="1.5"/>
<path d="M19.9766 39.197C19.5623 39.197 19.2266 39.5328 19.2266 39.947C19.2266 40.3612 19.5623 40.697 19.9766 40.697V39.197ZM25.8725 40.697C26.2867 40.697 26.6225 40.3612 26.6225 39.947C26.6225 39.5328 26.2867 39.197 25.8725 39.197V40.697ZM19.9766 40.697H25.8725V39.197H19.9766V40.697Z" fill="white"/>
<defs>
<linearGradient id="paint0_linear" x1="30" y1="0" x2="30" y2="60" gradientUnits="userSpaceOnUse">
<stop stop-color="#EA6544"/>
<stop offset="1" stop-color="#D12A1E"/>
</linearGradient>
</defs>
</svg>
