<svg width="60" height="60" viewBox="0 0 60 60" fill="none" xmlns="http://www.w3.org/2000/svg">
<circle cx="30" cy="30" r="30" fill="url(#paint0_linear)"/>
<path d="M42.4438 34.5937L42.4472 34.5937C43.0855 34.5957 43.6969 34.8508 44.1473 35.303C44.5978 35.7552 44.8505 36.3676 44.85 37.0058M42.4438 34.5937L44 37.0052M42.4438 34.5937C40.6615 34.5953 38.8894 34.3232 37.1897 33.7869M42.4438 34.5937L42.4446 35.4437M44.85 37.0058L44 37.0052M44.85 37.0058V37.0052H44M44.85 37.0058V42.4446V42.4473C44.848 43.0839 44.5942 43.6939 44.144 44.1441C43.6939 44.5942 43.0839 44.848 42.4472 44.85L42.4453 44.85C38.8599 44.853 35.3091 44.149 31.996 42.7783C28.683 41.4076 25.6728 39.3971 23.1376 36.8619C20.6024 34.3267 18.5919 31.3165 17.2213 28.0035C15.8507 24.6906 15.1469 21.1399 15.15 17.5546L15.15 17.5527H15.15C15.152 16.9161 15.4058 16.3061 15.856 15.8559C16.3062 15.4058 16.9162 15.152 17.5528 15.15L17.5554 15.15V15.15H23H23.0033V15.15C23.6409 15.1525 24.2516 15.4075 24.7016 15.8592C25.1516 16.311 25.4042 16.9226 25.4042 17.5602V17.5631C25.3981 19.3732 25.6979 21.1713 26.291 22.8815C26.2967 22.8979 26.3019 22.9145 26.3066 22.9312C26.4219 23.3438 26.4279 23.7794 26.3241 24.195C26.2202 24.6107 26.0101 24.9923 25.7143 25.3022L25.7003 25.3165L22.7199 28.2957M44 37.0052V42.4446C43.9987 42.8568 43.8344 43.2516 43.543 43.543C43.2516 43.8344 42.8567 43.9987 42.4446 44C38.9709 44.0029 35.5308 43.3208 32.321 41.9928C29.1112 40.6649 26.1948 38.7171 23.7386 36.2609C21.2824 33.8047 19.3347 30.8883 18.0068 27.6786C16.6789 24.4689 15.997 21.0289 16 17.5554C16.0013 17.1432 16.1656 16.7484 16.457 16.457C16.7484 16.1656 17.1433 16.0013 17.5554 16H23C23.4128 16.0016 23.8081 16.1667 24.0994 16.4591C24.3907 16.7515 24.5542 17.1475 24.5542 17.5602C24.5478 19.4661 24.8635 21.3593 25.488 23.16C25.5636 23.4307 25.5676 23.7164 25.4994 23.989C25.4313 24.2617 25.2935 24.512 25.0994 24.7153L21.6765 28.1369M22.7199 28.2957C22.6223 28.116 22.5272 27.9347 22.4344 27.752L21.6765 28.1369M22.7199 28.2957C24.8005 32.1309 27.9499 35.2801 31.7853 37.3607M22.7199 28.2957L22.2774 28.738L21.6765 28.1369M21.6765 28.1369C23.9233 32.5616 27.519 36.1572 31.944 38.4039M42.4446 35.4437C40.5711 35.4454 38.7085 35.1588 36.9223 34.5938M42.4446 35.4437C42.8578 35.445 43.2536 35.6101 43.5451 35.9028L42.4446 35.4437ZM36.9223 34.5938L37.2039 33.7918C37.1992 33.7902 37.1945 33.7885 37.1897 33.7869M36.9223 34.5938C36.6534 34.4994 36.3628 34.4859 36.0863 34.5549M36.9223 34.5938L36.0863 34.5549M37.1897 33.7869C36.768 33.6419 36.3132 33.6221 35.8803 33.7303L36.0863 34.5549M37.1897 33.7869L36.0863 34.5549M36.0863 34.5549L35.8803 33.7303C35.4491 33.838 35.0582 34.068 34.7547 34.3924M36.0863 34.5549C35.8099 34.624 35.5597 34.7726 35.3669 34.9823M34.7547 34.3924L31.7853 37.3607M34.7547 34.3924L34.766 34.3812L35.3669 34.9823M34.7547 34.3924C34.7502 34.3972 34.7457 34.4021 34.7412 34.407L35.3669 34.9823M31.7853 37.3607C31.965 37.4581 32.1461 37.5532 32.3288 37.646L31.944 38.4039M31.7853 37.3607L31.3431 37.8027L31.944 38.4039M31.944 38.4039L35.3669 34.9823" stroke="white" stroke-width="1.7" stroke-linecap="round" stroke-linejoin="round"/>
<defs>
<linearGradient id="paint0_linear" x1="30" y1="0" x2="30" y2="60" gradientUnits="userSpaceOnUse">
<stop stop-color="#EA6544"/>
<stop offset="1" stop-color="#D12A1E"/>
</linearGradient>
</defs>
</svg>
