<svg width="16" height="16" viewBox="0 0 16 16" fill="none" xmlns="http://www.w3.org/2000/svg">
<mask id="mask0" style="mask-type:alpha" maskUnits="userSpaceOnUse" x="0" y="0" width="16" height="16">
<rect width="16" height="16" fill="#727272"/>
</mask>
<g mask="url(#mask0)">
<path d="M7.86309 14.1512C8.03135 13.9941 8.23506 13.8149 8.46916 13.6089C9.24589 12.9257 10.3496 11.9545 11.2594 10.7974C12.1703 9.63915 12.8767 8.30718 12.8767 6.90333C12.8767 4.10111 10.5968 1.82117 7.79454 1.82117C4.99229 1.82117 2.71236 4.10111 2.71236 6.90333C2.71236 8.30718 3.41881 9.63915 4.32965 10.7974C5.23955 11.9545 6.34323 12.9257 7.11995 13.6089L7.122 13.6107C7.35524 13.8159 7.55831 13.9945 7.72607 14.1513M7.86309 14.1512C7.82482 14.1869 7.76436 14.187 7.72607 14.1513M7.86309 14.1512L7.93132 14.2243L7.86307 14.1512C7.86307 14.1512 7.86308 14.1512 7.86309 14.1512ZM7.72607 14.1513L7.65779 14.2243L7.72603 14.1512C7.72604 14.1512 7.72605 14.1513 7.72607 14.1513ZM8.5683 14.9062L8.56831 14.9062C8.72475 14.76 8.92149 14.587 9.15117 14.3849L9.15154 14.3846L9.15359 14.3828C9.97848 13.6572 11.1654 12.613 12.146 11.3417C13.127 10.0699 13.9099 8.56008 13.9099 6.9033C13.9098 5.27008 13.2736 3.73409 12.1187 2.57916C10.9639 1.42426 9.42785 0.788031 7.7946 0.788031C6.16135 0.788031 4.6253 1.42426 3.47043 2.57916C2.31553 3.73409 1.6793 5.27008 1.6793 6.9033C1.6793 8.56008 2.4622 10.0699 3.44315 11.3417C4.42377 12.6131 5.6108 13.6573 6.43569 14.3829L6.43763 14.3846C6.66746 14.5868 6.86433 14.76 7.02086 14.9062C7.23799 15.109 7.51658 15.2103 7.79457 15.2103C8.07262 15.2103 8.35115 15.109 8.5683 14.9062Z" fill="#727272" stroke="#727272" stroke-width="0.2"/>
<path d="M7.7954 3.92606C6.27848 3.92606 5.04453 5.15998 5.04453 6.67691C5.04453 8.19384 6.27848 9.42776 7.7954 9.42776C9.31233 9.42776 10.5462 8.19384 10.5462 6.67691C10.5462 5.15998 9.31233 3.92606 7.7954 3.92606ZM7.7954 8.39461C6.84832 8.39461 6.07765 7.62393 6.07765 6.67688C6.07765 5.72983 6.84832 4.95915 7.7954 4.95915C8.74248 4.95915 9.51313 5.72983 9.51313 6.67688C9.51313 7.62394 8.74248 8.39461 7.7954 8.39461Z" fill="#727272" stroke="#727272" stroke-width="0.2"/>
</g>
</svg>
