<svg width="60" height="60" viewBox="0 0 60 60" fill="none" xmlns="http://www.w3.org/2000/svg">
<circle cx="30" cy="30" r="30" fill="url(#paint0_linear_5427_36271)"/>
<mask id="mask0_5427_36271" style="mask-type:alpha" maskUnits="userSpaceOnUse" x="11" y="11" width="38" height="38">
<path d="M11 11H49V49H11V11Z" fill="#C4C4C4"/>
</mask>
<g mask="url(#mask0_5427_36271)">
<path d="M38.5651 29.9987V17.2927C38.5552 17.0632 38.4551 16.8469 38.2865 16.6909C38.1179 16.5348 37.8946 16.4518 37.665 16.4597C37.5155 16.459 37.3679 16.4933 37.234 16.5598L35.234 17.5656C35.0999 17.6326 34.952 17.6677 34.8021 17.6677C34.6521 17.6677 34.5042 17.6326 34.3701 17.5656L31.47 16.1037C31.3357 16.0368 31.1876 16.0021 31.0375 16.0021C30.8875 16.0021 30.7394 16.0368 30.605 16.1037L27.705 17.5656C27.5707 17.6325 27.4226 17.6674 27.2725 17.6674C27.1224 17.6674 26.9744 17.6325 26.84 17.5656L25.66 16.9658V16.9587L23.96 16.0998C23.8222 16.0333 23.6711 15.9987 23.5181 15.9987C23.365 15.9987 23.2139 16.0333 23.076 16.0998L20.181 17.5607C20.0489 17.6278 19.9027 17.6628 19.7545 17.6628C19.6063 17.6628 19.4602 17.6278 19.3281 17.5607L17.3281 16.5546C17.1934 16.4883 17.0451 16.4542 16.895 16.4548C16.87 16.4548 16.846 16.4546 16.822 16.4606H16.8C16.7481 16.4655 16.6966 16.4747 16.6461 16.4877H16.635C16.5839 16.5014 16.534 16.5194 16.486 16.5417L16.473 16.5488C16.4276 16.5712 16.3842 16.5972 16.343 16.6266L16.3231 16.6428C16.2871 16.6712 16.2537 16.7027 16.223 16.7368L16.2 16.7617C16.1709 16.7958 16.1442 16.8318 16.1201 16.8696L16.108 16.8867C16.102 16.8967 16.098 16.9067 16.092 16.9167C16.086 16.9267 16.071 16.9567 16.062 16.9777C16.0461 17.0154 16.0331 17.0541 16.023 17.0937C16.023 17.1087 16.0161 17.1246 16.0131 17.1406C16.004 17.1857 15.999 17.2318 15.998 17.2778V44.0058C15.999 44.0518 16.004 44.0976 16.0131 44.1428C16.0131 44.1588 16.019 44.1736 16.023 44.1896C16.0332 44.2295 16.0462 44.2686 16.062 44.3066C16.071 44.3266 16.082 44.3466 16.092 44.3666C16.102 44.3866 16.102 44.3876 16.108 44.3976L16.1201 44.4138C16.1443 44.4515 16.171 44.4875 16.2 44.5217L16.223 44.5478C16.2539 44.5813 16.2874 44.6122 16.3231 44.6406L16.343 44.6567C16.3842 44.6858 16.4277 44.7115 16.473 44.7336L16.486 44.7407C16.5344 44.7631 16.5846 44.7814 16.636 44.7956H16.6461C16.6969 44.809 16.7487 44.8184 16.801 44.8237H16.822C16.846 44.8237 16.87 44.8298 16.895 44.8298C17.0451 44.8302 17.1934 44.7959 17.3281 44.7297L19.3281 43.7226C19.462 43.6563 19.6096 43.6222 19.759 43.6227C19.9055 43.623 20.05 43.6571 20.181 43.7226L23.076 45.1828C23.2139 45.2492 23.365 45.2836 23.5181 45.2836C23.6711 45.2836 23.8221 45.2492 23.96 45.1828L25.66 44.3246V44.3156L26.84 43.7206" stroke="white" stroke-width="1.7" stroke-miterlimit="10"/>
<path d="M34.2859 23.3283H20.3789C19.9647 23.3283 19.6289 23.6641 19.6289 24.0783C19.6289 24.4925 19.9647 24.8283 20.3789 24.8283H34.2859C34.7001 24.8283 35.0359 24.4925 35.0359 24.0783C35.0359 23.6641 34.7001 23.3283 34.2859 23.3283Z" fill="white"/>
<path d="M28.2378 27.5929H20.3828C19.9686 27.5929 19.6328 27.9287 19.6328 28.3429C19.6328 28.7571 19.9686 29.0929 20.3828 29.0929H28.2378C28.652 29.0929 28.9878 28.7571 28.9878 28.3429C28.9878 27.9287 28.652 27.5929 28.2378 27.5929Z" fill="white"/>
<path d="M42.7279 33.5894L42.6761 34.158C41.3211 32.1951 39.0792 30.899 36.497 30.899C33.608 30.899 31.0627 32.5479 29.7994 35.0215C29.6271 35.3588 29.7609 35.772 30.0983 35.9443L30.0983 35.9443C30.4357 36.1166 30.8489 35.9828 31.0212 35.6454C32.0599 33.6116 34.1451 32.2708 36.497 32.2708C38.44 32.2708 40.2116 33.1879 41.352 34.6624L40.9917 34.4051L40.9917 34.4051C40.6834 34.185 40.255 34.2564 40.0348 34.5646L40.1162 34.6228L40.0348 34.5646C39.8147 34.8729 39.8861 35.3013 40.1943 35.5215L40.2525 35.4401L40.1943 35.5215L42.7278 37.3309L42.7279 37.3309C43.1629 37.641 43.762 37.3568 43.8095 36.835L44.094 33.714C44.1285 33.3367 43.8505 33.003 43.4733 32.9686C43.096 32.9342 42.7623 33.2122 42.7279 33.5894Z" fill="white" stroke="white" stroke-width="0.2"/>
<path d="M42.8947 41.0551L42.8947 41.0551C43.2321 41.2274 43.3659 41.6405 43.1936 41.9779C41.9303 44.4515 39.385 46.1004 36.4961 46.1004C33.9138 46.1004 31.6719 44.8043 30.317 42.8414L30.2652 43.4099L30.1765 43.4019L30.2652 43.4099C30.2308 43.7869 29.8975 44.0651 29.5198 44.0308L29.5198 44.0308C29.1425 43.9964 28.8646 43.6627 28.899 43.2854L28.899 43.2854M42.8947 41.0551L30.2071 39.7499C29.8403 39.4878 29.3241 39.7229 29.2831 40.1735L28.9986 43.2945L28.899 43.2854M42.8947 41.0551C42.5573 40.8828 42.1442 41.0166 41.9719 41.354L42.0581 41.398L41.9719 41.354C40.9332 43.3878 38.8479 44.7286 36.4961 44.7286C34.553 44.7286 32.7814 43.8115 31.6411 42.337L32.0013 42.5943L32.0013 42.5943C32.3096 42.8144 32.738 42.743 32.9582 42.4348L32.9582 42.4347C33.1783 42.1265 33.1069 41.6981 32.7987 41.4779L32.7987 41.4779L30.2652 39.6685L42.8947 41.0551ZM28.899 43.2854L29.1835 40.1644M28.899 43.2854L29.1835 40.1644M29.1835 40.1644L29.283 40.1735L29.1835 40.1644C29.2315 39.6367 29.8358 39.3617 30.2652 39.6685L29.1835 40.1644Z" fill="white" stroke="white" stroke-width="0.2"/>
</g>
<defs>
<linearGradient id="paint0_linear_5427_36271" x1="30" y1="0" x2="30" y2="60" gradientUnits="userSpaceOnUse">
<stop stop-color="#EA6544"/>
<stop offset="1" stop-color="#D12A1E"/>
</linearGradient>
</defs>
</svg>
