<svg width="16" height="17" viewBox="0 0 16 17" fill="none" xmlns="http://www.w3.org/2000/svg">
<path d="M4.20937 4.28906C4.20937 2.11737 5.97675 0.35 8.14844 0.35C10.3201 0.35 12.0875 2.11737 12.0875 4.28906C12.0875 6.46075 10.3201 8.22812 8.14844 8.22812C5.97675 8.22812 4.20937 6.46075 4.20937 4.28906Z" fill="#FFC76F" stroke="#985801" stroke-width="0.7"/>
<path d="M13.4849 11.3802C12.3106 10.1879 10.7539 9.53125 9.10156 9.53125H7.19531C5.54297 9.53125 3.98627 10.1879 2.81202 11.3802C1.64352 12.5666 1 14.1327 1 15.7901C1 16.0533 1.21337 16.2667 1.47656 16.2667H14.8203C15.0835 16.2667 15.2969 16.0533 15.2969 15.7901C15.2969 14.1327 14.6534 12.5666 13.4849 11.3802Z" fill="#CD4005" stroke="#985801"/>
</svg>
