<svg width="55" height="16" viewBox="0 0 55 16" fill="none" xmlns="http://www.w3.org/2000/svg">
<path d="M7.31173 12.3004L7.27277 12.338C6.64474 12.9767 5.91784 13.3152 5.16882 13.3152C3.60536 13.3152 2.47044 12.1445 2.47044 10.5291C2.47044 8.91659 3.60536 7.74417 5.16882 7.74417C5.91784 7.74417 6.64474 8.08406 7.27277 8.72446L7.31173 8.76321L8.31722 7.54963L8.29035 7.51671C7.45415 6.53034 6.45083 6.0502 5.21736 6.0502C3.97962 6.0502 2.84818 6.46599 2.03272 7.21583C1.14674 8.02786 0.678955 9.17305 0.678955 10.5291C0.678955 11.8844 1.14674 13.0324 2.03272 13.8447C2.84816 14.598 3.97962 15.0115 5.21736 15.0115C6.45083 15.0115 7.45415 14.5316 8.29035 13.5448L8.31722 13.5142L7.31173 12.3004ZM9.33327 14.8463H11.1096V6.19081H9.33327V14.8463ZM18.0675 12.9642C17.5936 13.2523 17.1525 13.3971 16.7565 13.3971C16.1826 13.3971 15.9232 13.0947 15.9232 12.4213V7.82864H17.7323V6.19871H15.9232V3.50552L14.1822 4.43556V6.19871H12.6803V7.82864H14.1822V12.7142C14.1822 14.0453 14.9721 14.9547 16.1512 14.9783C16.9519 14.9939 17.4346 14.7559 17.7277 14.5818L17.7449 14.5691L18.1725 12.9002L18.0675 12.9642ZM19.5386 14.8463H21.3161V6.19081H19.5386V14.8463ZM49.6463 2.89746V11.1539L50.1996 10.2942C50.1992 10.298 52.6856 6.70404 53.0043 6.24578H54.1124C53.8765 6.56211 51.9216 9.24769 51.9216 9.24769C51.9216 9.24769 54.4681 14.5446 54.6152 14.8463H53.527C53.4672 14.7227 51.2796 10.0999 51.2796 10.0999L49.6463 12.3842V14.8463H48.6325V3.47537C48.7211 3.42455 49.4077 3.03171 49.6463 2.89746ZM41.3182 7.27114C41.8412 6.49078 42.6605 6.06051 43.6191 6.06051C45.5306 6.06051 46.5436 7.27738 46.5436 9.58009V14.8463H45.5273V9.79814C45.5273 7.83904 44.8458 6.92963 43.3694 6.92963C41.9564 6.92963 41.1127 8.00241 41.1127 9.79815V14.8463H40.0992V6.24578H41.1127V7.57949L41.3182 7.27114ZM35.0871 6.06051C37.0541 6.06051 38.0103 6.95835 38.0103 8.80584V14.8463H36.9964V13.5915L36.7991 13.8087C36.053 14.6304 35.1966 15.0322 34.1768 15.0322C33.3777 15.0322 31.5184 14.7682 31.5184 12.3198C31.5184 10.3185 33.1735 9.60817 34.7239 9.60817C35.5024 9.60817 36.2714 9.78711 36.8295 10.0993L36.9964 10.1916V8.95688C36.9964 7.58793 36.3266 6.89466 35.003 6.89466C34.1868 6.89466 33.4502 7.10028 32.6949 7.52522C32.6282 7.37238 32.394 6.85533 32.3288 6.70786C33.1182 6.29256 34.093 6.06051 35.0871 6.06051ZM32.5126 12.2355C32.5126 13.5212 33.18 14.2297 34.3924 14.2297C35.4244 14.2297 36.341 13.7431 36.9773 12.8581L36.9964 12.8277V10.9421L36.9401 10.9095C36.293 10.5413 35.6302 10.3928 34.656 10.3928C33.315 10.3928 32.5126 11.0815 32.5126 12.2355ZM24.6842 2.89746V7.49826L24.8805 7.28375C25.6271 6.46055 26.4536 6.06051 27.4038 6.06051C29.3054 6.06051 30.3968 7.64255 30.3968 10.4018C30.3968 13.2145 29.1572 15.0322 27.2379 15.0322C26.3028 15.0322 25.554 14.6701 24.8815 13.8937L24.6842 13.6645V14.8463H23.6724V3.47537C23.7586 3.42455 24.4463 3.03171 24.6842 2.89746ZM24.7083 8.24763L24.6842 8.27937V12.7564L24.7023 12.7838C25.2615 13.6477 26.1726 14.1643 27.1423 14.1643C28.6397 14.1643 29.3988 12.9044 29.3988 10.4201C29.3988 8.20083 28.5578 6.92963 27.0916 6.92963C26.2028 6.92963 25.4009 7.37291 24.7083 8.24763Z" fill="#003B70"/>
<path fill-rule="evenodd" clip-rule="evenodd" d="M22.3801 4.65499C20.7541 2.35601 18.0538 0.984375 15.3064 0.984375C12.5601 0.984375 9.8592 2.35601 8.23586 4.65499L8.15259 4.77329H10.2L10.2227 4.74874C11.6162 3.31311 13.4352 2.55389 15.3064 2.55389C17.1777 2.55389 18.9964 3.3131 20.3926 4.74876L20.4153 4.77329H22.462L22.3801 4.65499Z" fill="#D9261C"/>
</svg>
