<svg width="9" height="9" viewBox="0 0 9 9" fill="none" xmlns="http://www.w3.org/2000/svg">
<g clip-path="url(#clip0_1208_2566)">
<path d="M5.32765 8.92614C6.02999 8.92614 6.73137 8.92614 7.43274 8.92614C8.0053 8.92614 8.39463 8.51905 8.39559 7.9259C8.39686 6.44822 8.3975 4.9732 8.3975 3.50084C8.3975 3.46684 8.3975 3.43383 8.3975 3.40082C8.38816 3.1806 8.30491 2.97092 8.16244 2.80877C8.01997 2.64663 7.82744 2.54244 7.61882 2.51461C7.32829 2.49226 7.03684 2.48591 6.74568 2.4956C6.70396 2.49377 6.66232 2.50087 6.62331 2.51647C6.58429 2.53207 6.54872 2.55584 6.51876 2.58633C6.4888 2.61682 6.46509 2.65339 6.44907 2.6938C6.43304 2.73422 6.42505 2.77764 6.42556 2.8214C6.42608 2.86517 6.43511 2.90836 6.45209 2.94835C6.46906 2.98834 6.49364 3.02428 6.52431 3.05398C6.55498 3.08368 6.59111 3.10651 6.63048 3.12109C6.66986 3.13567 6.71165 3.14168 6.75331 3.13876C6.98424 3.13876 7.21422 3.13876 7.44515 3.13876C7.49106 3.13373 7.53747 3.13951 7.58098 3.15568C7.6245 3.17185 7.66402 3.19799 7.69666 3.23221C7.7293 3.26643 7.75425 3.30785 7.76967 3.35346C7.7851 3.39907 7.79061 3.44771 7.78582 3.49584C7.78582 4.97353 7.78582 6.45155 7.78582 7.9299C7.79066 7.97795 7.78506 8.02653 7.76944 8.07199C7.75382 8.11745 7.72858 8.15861 7.69562 8.19238C7.66266 8.22616 7.62284 8.25168 7.57913 8.26703C7.53542 8.28237 7.48896 8.28714 7.44324 8.28099H3.21302C3.16714 8.28604 3.12077 8.28027 3.07729 8.2641C3.03382 8.24793 2.99435 8.22176 2.96177 8.18752C2.9292 8.15328 2.90435 8.11184 2.88904 8.06622C2.87373 8.02061 2.86836 7.97198 2.87331 7.9239C2.87331 7.65184 2.87331 7.37977 2.87331 7.10771C2.87331 6.89366 2.7483 6.74662 2.56795 6.74562C2.38759 6.74462 2.25877 6.89266 2.25781 7.10171V7.88789C2.25781 8.51504 2.64619 8.92314 3.2426 8.92314C3.9373 8.92648 4.63232 8.92748 5.32765 8.92614Z" fill="white"/>
<path d="M0 3.2156C0 2.47942 0 1.74425 0 1.00807C0 0.50795 0.286277 0.123858 0.73096 0.0218333C0.809876 0.00596516 0.890133 -0.00140823 0.970479 -0.000172005H5.16921C5.74749 -0.000172005 6.13682 0.412927 6.13682 1.02107C6.13682 2.48809 6.13682 3.95277 6.13682 5.41512C6.13682 6.01527 5.74176 6.43537 5.16539 6.43537C3.76581 6.43537 2.36624 6.43537 0.966662 6.43537C0.395062 6.43537 0 6.02327 0 5.42213C0 4.68695 0 3.95077 0 3.2156ZM0.614541 3.2246V5.41012C0.614541 5.67119 0.73096 5.79222 0.980021 5.79222H5.15966C5.40586 5.79222 5.52324 5.66618 5.52324 5.40612V1.03408C5.52324 0.764011 5.41063 0.644982 5.15585 0.644982H0.986701C0.725235 0.644982 0.615495 0.76101 0.615495 1.03808L0.614541 3.2246Z" fill="#727272"/>
<path d="M5.32765 8.92612C4.63296 8.92612 3.93794 8.92612 3.2426 8.92612C2.64619 8.92612 2.25877 8.51802 2.25781 7.89087V7.10168C2.25781 6.88963 2.38759 6.74059 2.56795 6.74259C2.7483 6.74459 2.87235 6.89063 2.87331 7.10468C2.87331 7.37674 2.87331 7.64881 2.87331 7.92088C2.86836 7.96895 2.87373 8.01758 2.88904 8.06319C2.90435 8.10881 2.9292 8.15025 2.96177 8.18449C2.99435 8.21873 3.03382 8.2449 3.07729 8.26107C3.12077 8.27725 3.16714 8.28302 3.21302 8.27796H7.44324C7.48902 8.28357 7.53542 8.27825 7.57895 8.26239C7.62249 8.24653 7.66204 8.22054 7.69463 8.18638C7.72722 8.15222 7.75201 8.11076 7.76714 8.06513C7.78227 8.01949 7.78736 7.97086 7.782 7.92288C7.782 6.44452 7.782 4.9665 7.782 3.48881C7.7863 3.44111 7.78047 3.39299 7.76495 3.34792C7.74943 3.30285 7.7246 3.26193 7.69223 3.22809C7.65986 3.19426 7.62075 3.16834 7.5777 3.1522C7.53466 3.13606 7.48874 3.13009 7.44324 3.13473C7.21231 3.13473 6.98234 3.13473 6.7514 3.13473C6.70974 3.13765 6.66795 3.13164 6.62857 3.11706C6.5892 3.10249 6.55308 3.07965 6.5224 3.04995C6.49173 3.02025 6.46716 2.98431 6.45018 2.94432C6.4332 2.90434 6.42418 2.86114 6.42366 2.81738C6.42314 2.77361 6.43113 2.73019 6.44716 2.68978C6.46318 2.64936 6.4869 2.61279 6.51685 2.5823C6.54681 2.55181 6.58238 2.52804 6.6214 2.51244C6.66041 2.49684 6.70205 2.48974 6.74377 2.49157C7.03494 2.48189 7.32639 2.48823 7.61692 2.51058C7.8265 2.5381 8.01997 2.64267 8.16291 2.80568C8.30584 2.96869 8.38897 3.17957 8.3975 3.40079C8.3975 3.4348 8.3975 3.46781 8.3975 3.50082C8.3975 4.97517 8.3975 6.44952 8.3975 7.92388C8.3975 8.52402 8.0053 8.92412 7.43465 8.92412C6.73137 8.92812 6.02999 8.92612 5.32765 8.92612Z" fill="#727272"/>
</g>
<defs>
<clipPath id="clip0_1208_2566">
<rect width="8.3965" height="8.92714" fill="white"/>
</clipPath>
</defs>
</svg>
