<svg width="76" height="12" viewBox="0 0 76 12" fill="none" xmlns="http://www.w3.org/2000/svg">
<path d="M4.77796 0.100532C5.8565 -0.0457423 6.98708 -0.0736574 8.02618 0.302637C8.59859 0.514791 9.15018 0.861496 9.48322 1.39523C9.88473 2.02053 9.98332 2.79098 9.96525 3.52347C8.88671 3.52459 7.80762 3.52291 6.72908 3.52459C6.72634 3.28731 6.67924 3.02993 6.49628 2.86524C6.22733 2.61791 5.84445 2.57659 5.49772 2.56766C5.16906 2.56766 4.81083 2.59279 4.54023 2.80438C4.28772 3.00202 4.23677 3.41795 4.44766 3.66528C4.65362 3.91596 4.97351 4.01701 5.26382 4.127C6.18844 4.42569 7.16565 4.58145 8.03494 5.04038C8.59475 5.32623 9.14142 5.73323 9.38681 6.34233C9.6114 6.84983 9.56593 7.41873 9.50951 7.95638C9.33423 8.95797 8.83796 9.92885 8.0218 10.5374C6.9438 11.3274 5.60727 11.6909 4.29045 11.721C3.36036 11.7506 2.39301 11.6093 1.58178 11.1175C0.978697 10.744 0.446822 10.2047 0.19321 9.52297C0.0135443 9.03557 -0.0434228 8.4996 0.0332636 7.98485C1.1244 7.98206 2.21554 7.98429 3.30668 7.98373C3.31216 8.29638 3.42335 8.62076 3.67422 8.81616C4.18528 9.22707 4.89792 9.24047 5.50155 9.06963C5.86143 8.97081 6.21638 8.65314 6.18461 8.24334C6.19228 7.95749 5.97153 7.71798 5.72285 7.61972C5.28354 7.44162 4.83383 7.292 4.38029 7.15578C3.47046 6.91291 2.55022 6.61534 1.77678 6.05313C1.13426 5.5836 0.862025 4.71544 0.979793 3.93717C1.00882 3.73786 1.01211 3.53576 1.0395 3.33644C1.18411 2.56543 1.58342 1.8441 2.16624 1.32879C2.8986 0.67614 3.82376 0.269697 4.77796 0.100532Z" fill="#0C4DA2"/>
<path d="M46.4219 1.50684C47.2326 1.50795 48.0433 1.50628 48.854 1.50795C48.5971 2.9573 48.3413 4.40777 48.0833 5.85711C48.3802 5.61314 48.6973 5.38312 49.0523 5.23573C49.5053 5.09783 49.9933 5.06656 50.4589 5.1503C51.2208 5.3016 51.8699 5.93751 52.0376 6.71187C52.3317 8.14056 51.7867 9.70771 50.6862 10.6395C49.984 11.2274 49.0084 11.4334 48.126 11.2453C47.6396 11.1442 47.2222 10.7875 47.0475 10.3135C46.9905 10.5865 46.933 10.86 46.8705 11.1319C46.1458 11.128 45.4217 11.1331 44.697 11.1297C45.2727 7.92227 45.8462 4.71427 46.4219 1.50684ZM48.5209 6.93519C48.2892 6.9927 48.08 7.14623 47.9661 7.36173C47.7875 7.68555 47.684 8.04509 47.5963 8.40352C47.5136 8.69272 47.553 9.01654 47.6949 9.28005C47.8406 9.54692 48.1632 9.64742 48.4464 9.61671C48.7499 9.60219 49.0293 9.43135 49.2155 9.19073C49.577 8.72455 49.7435 8.09702 49.6351 7.51024C49.5962 7.30032 49.4877 7.08873 49.2971 6.98488C49.0599 6.8548 48.7745 6.87601 48.5209 6.93519Z" fill="#0C4DA2"/>
<path d="M68.1023 11.1306C68.6802 7.92488 69.2586 4.71912 69.8387 1.51392C70.645 1.51447 71.4513 1.51392 72.2576 1.51447C71.9399 3.27591 71.6178 5.03735 71.3007 6.79935C71.9262 6.20978 72.549 5.61742 73.1718 5.02507C74.1145 5.02339 75.0572 5.02507 75.9999 5.02451C75.1142 5.78101 74.2268 6.53527 73.3411 7.29177C73.9573 8.56972 74.5741 9.84822 75.1898 11.1267C74.2241 11.1273 73.2584 11.1273 72.2927 11.1267C71.9925 10.3557 71.6923 9.58527 71.3916 8.81481C71.2174 8.96444 71.0438 9.11406 70.8712 9.26536C70.7545 9.88731 70.6373 10.5087 70.5196 11.1306C69.7138 11.1306 68.908 11.1306 68.1023 11.1306Z" fill="#0C4DA2"/>
<path d="M13.1055 5.18325C13.8521 5.08275 14.6108 5.08443 15.3612 5.14137C15.8969 5.2 16.5071 5.30216 16.8571 5.76667C17.1902 6.2027 17.1228 6.78948 17.0434 7.2992C16.8544 8.36165 16.6484 9.42131 16.4583 10.4838C16.4063 10.7015 16.5789 10.8718 16.695 11.0309C16.69 11.0549 16.6802 11.1029 16.6753 11.1269C15.8459 11.1364 15.0166 11.1275 14.1873 11.1308C14.1868 10.9176 14.1862 10.7043 14.1873 10.4916C13.5207 11.0102 12.6952 11.3139 11.8539 11.3123C11.259 11.3441 10.6493 11.161 10.187 10.7735C9.88522 10.5089 9.82442 10.074 9.86112 9.69096C9.93069 9.20022 10.1334 8.71115 10.5075 8.38119C10.8219 8.10986 11.207 7.93678 11.6014 7.82624C12.3852 7.64647 13.1882 7.5778 13.9786 7.43376C14.206 7.38965 14.4546 7.3327 14.6157 7.14902C14.7543 6.99661 14.7252 6.71857 14.5439 6.61305C14.3095 6.47794 14.0236 6.48353 13.7639 6.51535C13.4468 6.55443 13.1537 6.761 13.0403 7.07142C12.2625 7.07365 11.4852 7.07254 10.7074 7.07198C10.7879 6.64767 10.9835 6.24123 11.299 5.94812C11.7903 5.48473 12.4575 5.28374 13.1055 5.18325ZM13.3892 8.79154C13.1658 8.82113 12.9625 8.92498 12.7538 9.00537C12.5227 9.08577 12.3945 9.34873 12.3994 9.586C12.4022 9.75796 12.5342 9.89921 12.6919 9.9422C13.0935 10.0572 13.5541 9.96453 13.8658 9.67645C14.189 9.39171 14.3287 8.95624 14.4042 8.54087C14.0745 8.65588 13.7365 8.75302 13.3892 8.79154Z" fill="#0C4DA2"/>
<path d="M19.4554 5.82537C20.2918 5.21515 21.3616 5.06273 22.3667 5.11465C23.0958 5.15764 23.8775 5.33965 24.4093 5.88455C24.8212 6.30383 24.9418 6.92857 24.8749 7.50195C24.0615 7.5025 23.2486 7.50083 22.4352 7.5025C22.4571 7.2736 22.4215 7.02069 22.249 6.85599C22.0457 6.63211 21.7154 6.62709 21.4416 6.67901C21.1189 6.73372 20.833 6.95537 20.6933 7.25629C20.4841 7.70573 20.3811 8.19815 20.3099 8.68722C20.2726 9.01773 20.3575 9.41301 20.655 9.59725C20.9283 9.75692 21.2761 9.7625 21.5686 9.65419C21.9088 9.51964 22.1191 9.18857 22.2555 8.85973C23.0575 8.85862 23.8588 8.86029 24.6608 8.85917C24.469 9.61009 23.9793 10.2745 23.3176 10.6603C22.3613 11.2381 21.2011 11.3754 20.1127 11.2353C19.4247 11.1449 18.728 10.8434 18.3111 10.256C18.0674 9.93334 17.9167 9.5403 17.8789 9.13498C17.8389 8.87034 17.9244 8.61185 17.9436 8.35C18.0876 7.3473 18.6557 6.42219 19.4554 5.82537Z" fill="#0C4DA2"/>
<path d="M29.2251 5.12625C30.2089 5.03357 31.271 5.20051 32.0625 5.84143C32.624 6.30259 32.8075 7.09538 32.7127 7.79828C32.6568 8.85793 32.1332 9.8947 31.2754 10.5072C30.6312 10.9454 29.8797 11.2112 29.1106 11.2932C28.197 11.3692 27.217 11.2257 26.4633 10.659C26.0322 10.3441 25.7529 9.83887 25.6866 9.30513C25.6231 8.94949 25.7008 8.59274 25.7332 8.23878C25.8739 7.44822 26.2311 6.67777 26.827 6.13901C27.4893 5.54498 28.352 5.21167 29.2251 5.12625ZM29.1265 6.71183C28.8231 6.80729 28.576 7.05406 28.4599 7.35331C28.2841 7.79995 28.1685 8.27172 28.1104 8.74906C28.0978 9.07846 28.1899 9.47262 28.5026 9.63509C28.9699 9.85003 29.5872 9.68589 29.8671 9.23925C30.1864 8.73343 30.3234 8.11707 30.2839 7.51969C30.2631 7.25728 30.1958 6.9692 29.9854 6.79613C29.7428 6.60407 29.4053 6.6331 29.1265 6.71183Z" fill="#0C4DA2"/>
<path d="M36.2014 6.11432C36.6742 5.61464 37.2992 5.24449 37.974 5.12836C38.4703 5.07197 39.0016 5.10603 39.4518 5.3461C39.7695 5.51526 39.9914 5.82679 40.0999 6.17015C40.6306 5.59231 41.3526 5.17526 42.137 5.11775C42.6491 5.08537 43.1925 5.10994 43.657 5.35503C44.0004 5.53592 44.2228 5.89658 44.2897 6.27902C44.4162 6.97075 44.259 7.66751 44.1341 8.34641C43.9654 9.2743 43.7972 10.2028 43.628 11.1306C42.8211 11.1306 42.0143 11.1306 41.2074 11.1306C41.3564 10.301 41.5081 9.4725 41.6582 8.64342C41.719 8.26824 41.8154 7.89586 41.8171 7.51342C41.8198 7.30294 41.7344 7.05617 41.5169 6.99029C41.174 6.88701 40.7725 6.93725 40.491 7.17118C40.268 7.39562 40.1875 7.71943 40.1196 8.02092C39.9284 9.05656 39.7438 10.0939 39.5548 11.1306C38.748 11.1301 37.9411 11.1312 37.1343 11.1301C37.2696 10.3898 37.4043 9.64948 37.5396 8.90917C37.6234 8.43071 37.739 7.9528 37.728 7.46373C37.7171 7.27335 37.6185 7.07571 37.4377 7.00146C37.0992 6.86691 36.6851 6.95624 36.4288 7.2192C36.2058 7.46764 36.1072 7.80262 36.0278 8.12253C35.8421 9.12412 35.6646 10.1274 35.4828 11.1301C34.6798 11.1306 33.8767 11.1306 33.0737 11.1301C33.427 9.1699 33.7814 7.20915 34.1342 5.24895C34.872 5.24616 35.6104 5.2484 36.3488 5.24784C36.3006 5.53704 36.2529 5.82568 36.2014 6.11432Z" fill="#0C4DA2"/>
<path d="M54.1777 5.71404C54.8793 5.25735 55.7339 5.14011 56.55 5.11164C57.2501 5.0988 57.9638 5.08261 58.6468 5.26573C59.0336 5.36901 59.4132 5.60573 59.5835 5.98817C59.7769 6.41248 59.6974 6.89317 59.6366 7.33814C59.4471 8.38495 59.2455 9.42953 59.0577 10.4763C59.0012 10.6958 59.1749 10.8699 59.2921 11.0302C59.2872 11.0542 59.2779 11.1022 59.2729 11.1256C58.4381 11.1374 57.6034 11.1268 56.7686 11.1307C56.7675 10.9185 56.7669 10.7064 56.7686 10.4937C55.9869 11.1273 54.9549 11.3981 53.9679 11.2909C53.5412 11.2362 53.1282 11.0598 52.7946 10.7829C52.4205 10.4546 52.3881 9.88399 52.507 9.42786C52.6264 8.90808 52.9392 8.42683 53.402 8.16387C53.9662 7.80097 54.6411 7.73062 55.2852 7.63069C55.7601 7.55364 56.2405 7.50619 56.7116 7.40346C56.9104 7.35936 57.1208 7.2784 57.2424 7.10198C57.3541 6.94007 57.2944 6.69107 57.1197 6.60286C56.8765 6.47556 56.5878 6.48171 56.3243 6.52079C56.0269 6.56713 55.7481 6.76644 55.6484 7.06346C54.8668 7.08411 54.0845 7.06736 53.3034 7.07183C53.3927 6.51967 53.7115 6.01273 54.1777 5.71404ZM56.0028 8.7886C55.753 8.82099 55.5224 8.93041 55.294 9.03146C54.9856 9.17495 54.8563 9.7232 55.197 9.90297C55.6659 10.1073 56.2471 9.94317 56.5807 9.5585C56.8223 9.27377 56.934 8.90361 57.0014 8.54016C56.6771 8.65405 56.3441 8.74729 56.0028 8.7886Z" fill="#0C4DA2"/>
<path d="M63.3079 6.181C63.8337 5.61433 64.5332 5.17829 65.3094 5.11744C65.9037 5.07501 66.555 5.14368 67.0376 5.5317C67.4051 5.83151 67.53 6.3323 67.5393 6.79234C67.564 7.26075 67.4462 7.71744 67.3668 8.17469C67.1849 9.16009 67.003 10.1449 66.8217 11.1303C66.0193 11.1309 65.2168 11.1315 64.4143 11.1303C64.554 10.3632 64.6942 9.59668 64.8339 8.83014C64.9062 8.3567 65.0629 7.87935 64.9741 7.39642C64.9342 7.15914 64.7282 6.9777 64.4959 6.95481C64.1536 6.9107 63.7515 6.96485 63.5187 7.25126C63.3177 7.51143 63.2345 7.84139 63.1632 8.15794C62.9825 9.14893 62.8067 10.1405 62.6254 11.1309C61.8141 11.1298 61.0029 11.132 60.1917 11.1303C60.5499 9.16958 60.9059 7.20827 61.2647 5.24752C62.0036 5.24864 62.742 5.24696 63.481 5.24864C63.4229 5.55961 63.3648 5.87003 63.3079 6.181Z" fill="#0C4DA2"/>
</svg>
