<svg width="148" height="51" viewBox="0 0 148 51" fill="none" xmlns="http://www.w3.org/2000/svg">
<rect x="0.5" y="1.05176" width="147" height="49.2069" rx="7.5" stroke="#E6E6E6"/>
<path fill-rule="evenodd" clip-rule="evenodd" d="M29.2369 19.1831C31.6102 18.3127 34.1094 17.8511 36.6319 17.8174C40.6079 17.8174 42.4159 19.2796 42.2984 22.3621C42.1961 24.9739 40.5814 33.3689 40.5814 33.3689H36.3438C36.3438 33.3689 37.9206 24.7772 37.9206 23.2918C37.9206 21.8065 35.8056 21.6753 35.4265 21.6753C34.5764 21.6499 33.7313 21.8159 32.9514 22.1615C32.724 23.5735 30.9843 33.284 30.9843 33.284H26.7732L29.2369 19.1831Z" fill="#1E417E"/>
<path fill-rule="evenodd" clip-rule="evenodd" d="M51.5996 26.5132C51.5996 26.5132 49.3254 26.3705 48.7113 26.6174C48.2676 26.7539 47.878 27.0304 47.5987 27.4069C47.3194 27.7834 47.1648 28.2405 47.1573 28.7123C47.1573 29.9854 48.4688 30.7454 49.6627 30.7454C50.083 30.7682 50.5032 30.6985 50.8946 30.541C51.1675 29.0402 51.5996 26.5132 51.5996 26.5132ZM44.5116 22.2309L45.0423 18.7896C46.7363 18.2068 48.5048 17.8793 50.2919 17.8174C52.8428 17.8174 56.474 18.3768 56.474 21.9724C56.474 22.8212 54.8972 31.9645 54.7986 32.7747C53.0957 33.3426 51.3144 33.6291 49.5225 33.6235C48.3096 33.6235 42.9841 33.2377 42.9841 28.9206C42.9841 24.2718 48.1845 23.6815 52.0203 24.1174C52.297 23.2957 52.8769 21.3706 49.3936 21.3706C47.7344 21.4441 46.0912 21.7332 44.5041 22.2309H44.5116Z" fill="#1E417E"/>
<path fill-rule="evenodd" clip-rule="evenodd" d="M81.6272 26.5132C81.6272 26.5132 79.353 26.3705 78.7389 26.6174C78.2952 26.7539 77.9056 27.0304 77.6263 27.4069C77.347 27.7834 77.1924 28.2405 77.1849 28.7123C77.1849 29.9854 78.4963 30.7454 79.6903 30.7454C80.1106 30.7682 80.5308 30.6985 80.9222 30.541C81.2026 29.0402 81.6272 26.5132 81.6272 26.5132ZM74.5392 22.2309L75.0699 18.7896C76.7638 18.2068 78.5324 17.8793 80.3195 17.8174C82.8704 17.8174 86.5016 18.3768 86.5016 21.9724C86.5016 22.8212 84.9248 31.9645 84.8262 32.7747C83.1233 33.3426 81.342 33.6291 79.5501 33.6235C78.3372 33.6235 73.0117 33.2377 73.0117 28.9206C73.0117 24.2718 78.2121 23.6815 82.0479 24.1174C82.3246 23.2957 82.9045 21.3706 79.4212 21.3706C77.7658 21.4451 76.1265 21.7342 74.543 22.2309H74.5392Z" fill="#1E417E"/>
<path fill-rule="evenodd" clip-rule="evenodd" d="M62.9903 22.2969C62.9903 22.2969 63.7143 21.7452 65.2645 21.7452C66.8148 21.7452 68.0845 22.6943 68.0845 24.5885C68.0845 26.4828 67.2507 30.0745 63.9417 30.0745C63.4262 30.0745 62.0048 29.7736 61.7357 29.5267C62.0503 27.3585 62.9903 22.2969 62.9903 22.2969ZM59.2493 19.1141C61.2065 18.3095 63.2875 17.8615 65.3972 17.7908C66.3827 17.7908 72.2615 17.8371 72.2615 24.5036C72.2615 26.6062 72.0379 33.5004 64.2753 33.5004C63.2232 33.4304 62.1834 33.2309 61.1785 32.9063L60.0149 39.5651H55.6484L59.2493 19.1141Z" fill="#1E417E"/>
<path fill-rule="evenodd" clip-rule="evenodd" d="M98.6015 23.0069C98.6015 23.0069 99.1247 19.8781 99.2497 19.3264C97.8765 18.3324 96.2307 17.8033 94.5456 17.8141C92.7261 17.8141 88.2076 18.1999 88.2076 22.8295C88.2076 23.7438 88.3327 25.8078 91.1757 26.9382C94.0187 28.0686 94.5228 27.8333 94.5228 28.9829C94.5228 30.1326 93.1847 30.2599 92.4304 30.2599C91.676 30.2599 89.7769 30.0053 87.5594 28.1535C87.4116 29.6967 87.0591 31.4752 86.9946 31.834C87.9574 32.729 89.6481 33.6009 92.5365 33.6009C95.425 33.6009 98.8328 32.3008 98.8328 28.4698C98.8328 27.2121 98.666 25.1057 93.7078 23.7438C92.8095 23.5085 92.4721 22.9144 92.4721 22.4244C92.4721 21.9344 92.8511 21.267 94.5001 21.267C96.0314 21.3118 97.4923 21.9316 98.6015 23.0069Z" fill="#1E417E"/>
<path fill-rule="evenodd" clip-rule="evenodd" d="M122.673 19.7463L115.13 19.7733L107.394 27.2578L114.937 27.2308L122.673 19.7463Z" fill="#049BD7"/>
<path fill-rule="evenodd" clip-rule="evenodd" d="M116.256 13.7012H108.656V22.5089L116.256 26.7179V13.7012Z" fill="#1E417E"/>
<path fill-rule="evenodd" clip-rule="evenodd" d="M102.129 18.134H109.785L122.312 33.2727H114.88L102.129 18.134Z" fill="#A5CE39"/>
<path fill-rule="evenodd" clip-rule="evenodd" d="M104.972 35.9385H112.443L116.257 25.9541L111.477 27.2349L107.352 29.9239L104.972 35.9385Z" fill="#049BD7"/>
<path fill-rule="evenodd" clip-rule="evenodd" d="M116.259 25.9502L108.728 25.9656L101.128 33.3189H108.675L114.141 28.0335L116.259 25.9502Z" fill="#1E417E"/>
</svg>
