<svg width="53" height="20" viewBox="0 0 53 20" fill="none" xmlns="http://www.w3.org/2000/svg">
<g clip-path="url(#clip0_4148_3016)">
<mask id="mask0_4148_3016" style="mask-type:luminance" maskUnits="userSpaceOnUse" x="-39" y="-38" width="259" height="366">
<path d="M-38.1724 327.759H219.584V-37.5122H-38.1724V327.759Z" fill="white"/>
</mask>
<g mask="url(#mask0_4148_3016)">
<path d="M7.43164 0.984474H7.60874C5.94124 2.35594 3.05441 4.11485 6.74403 6.68987C10.0478 9.12865 10.0582 10.8563 5.4199 14.1746H4.65912C8.96404 11.3062 9.29745 9.50568 6.11834 6.99358C3.1895 4.72183 4.31531 3.19331 7.43164 0.984474ZM0 0.984474H6.34783C4.53398 2.33511 2.21005 4.02026 5.24281 6.55363C8.58862 9.34862 8.4427 10.8771 3.65888 14.1746H0V0.984474ZM8.60941 0.984474H8.78694C7.02505 2.33511 4.75308 4.13567 7.95297 6.44907C11.7465 9.2753 11.8513 10.7934 7.22336 14.1746H6.46258C10.4336 11.2854 10.8922 9.70483 7.58795 7.02481C4.39845 4.73224 5.49308 3.18289 8.60941 0.984474ZM9.69365 0.984474H14.4879V14.1746H8.30717C11.9552 11.2646 12.6121 9.56859 9.08917 7.09814C5.76414 4.73224 6.80638 3.19331 9.69365 0.984474Z" fill="#EF7D00"/>
<path d="M46.5273 7.69463V11.9761C46.5273 12.4785 46.5381 12.7926 46.5689 12.9288C46.6421 13.3371 46.9235 13.5462 47.4132 13.5462C48.2472 13.5462 48.8521 13.3684 49.2375 13.023C49.6332 12.646 49.842 12.0286 49.842 11.1808C49.842 10.1126 49.7272 9.32772 49.5081 8.8253C49.1851 8.07167 48.581 7.69463 47.6951 7.69463H46.5273ZM46.5273 2.66998V7.02474H47.3301C48.6538 7.02474 49.3206 6.35484 49.3206 5.0042V3.48653C49.3206 2.82704 49.1647 2.35586 48.8521 2.09424C48.5702 1.86385 48.1013 1.74888 47.4345 1.74888C47.1006 1.74888 46.8612 1.81135 46.7256 1.94759C46.6005 2.08382 46.5273 2.32419 46.5273 2.66998ZM48.581 14.0907H42.0665V13.6929C43.0776 13.6929 43.5881 13.1592 43.5881 12.0806V3.20364C43.5881 2.12548 43.0776 1.59181 42.0665 1.59181V1.19396H46.5273C47.7367 1.19396 48.5287 1.21478 48.8937 1.26728L49.1751 1.27769H49.3522C49.3938 1.28811 49.4354 1.29852 49.4878 1.30893L49.8004 1.37184C49.9359 1.39267 50.071 1.43475 50.2065 1.49723C50.8218 1.68596 51.3324 2.0105 51.7182 2.47127C52.1347 2.95243 52.333 3.50735 52.333 4.15642C52.333 5.245 51.8221 6.08237 50.7798 6.65812C50.5508 6.78394 50.165 6.93059 49.6229 7.08765V7.11889C50.3633 7.32845 51.0721 7.65298 51.7286 8.08208C52.1139 8.3437 52.4166 8.68906 52.6249 9.1186C52.8128 9.48478 52.8955 9.91388 52.8955 10.3955C52.8955 11.4841 52.5621 12.3006 51.874 12.8238C51.2804 13.2846 50.7071 13.63 50.1442 13.8395C49.7064 14.007 49.1851 14.0907 48.581 14.0907ZM36.6154 7.91461H32.1858V12.0806C32.1858 13.1592 32.6864 13.6929 33.697 13.6929V14.0907H27.725V13.6929C28.7361 13.6929 29.2466 13.1592 29.2466 12.0806V3.20364C29.2466 2.12548 28.7361 1.59181 27.725 1.59181V1.19396H33.697V1.59181C32.6864 1.59181 32.1858 2.12548 32.1858 3.20364V6.9935H36.6154V3.20364C36.6154 2.12548 36.1153 1.59181 35.1043 1.59181V1.19396H41.0762V1.59181C40.0652 1.59181 39.5651 2.12548 39.5651 3.20364V12.0806C39.5651 13.1592 40.0652 13.6929 41.0762 13.6929V14.0907H35.1043V13.6929C36.1153 13.6929 36.6154 13.1592 36.6154 12.0806V7.91461ZM25.8176 1.00566V5.17168H25.4526L24.8689 3.81106C24.6083 3.22447 24.2437 2.73289 23.7643 2.32419C23.2222 1.85344 22.5757 1.62305 21.815 1.62305C21.1061 1.62305 20.5644 1.87426 20.2098 2.3871C19.9704 2.73289 19.8452 3.09908 19.8452 3.48653C19.8452 3.97854 19.9911 4.41805 20.283 4.78467C20.6476 5.26626 21.3148 5.68495 22.2527 6.03031C23.6392 6.53273 24.671 7.16054 25.3591 7.92502C26.0155 8.64741 26.3385 9.47437 26.3385 10.4163C26.3385 11.8715 25.7865 12.9601 24.6814 13.6721C23.9098 14.1641 22.9096 14.4153 21.6902 14.4153C21.3668 14.4153 20.9606 14.3524 20.4705 14.2166C19.3971 13.9129 18.7614 13.7662 18.5527 13.7662C18.4696 13.7662 18.3968 13.8187 18.334 13.9337L18.2717 14.1012L18.1985 14.4153H17.7607V9.80932H18.1881L18.5739 11.1491C18.6778 11.4945 18.8969 11.8923 19.2407 12.3323C19.5638 12.7405 19.8868 13.0651 20.2098 13.2846C20.7 13.6408 21.2109 13.8187 21.7318 13.8187C23.4201 13.8187 24.2645 13.1276 24.2645 11.7461C24.2645 11.055 23.8059 10.4163 22.8884 9.7989C22.6177 9.62102 21.8673 9.24398 20.6476 8.65783C19.6889 8.19706 18.9697 7.57966 18.5111 6.83644C18.1149 6.19778 17.9274 5.5383 17.9274 4.85799C17.9274 3.66441 18.3236 2.70122 19.1156 1.96841C19.8037 1.32976 20.5956 1.00566 21.4815 1.00566C22.0756 1.00566 22.6385 1.07855 23.1599 1.22519L24.8377 1.70679C24.9525 1.70679 25.0668 1.61264 25.2023 1.40308L25.4007 1.00566H25.8176Z" fill="#312783"/>
<path d="M0.344196 19.2307V18.0584H0.0627441V17.828H0.344196V16.6553H1.23012C1.428 16.6553 1.58475 16.6661 1.68867 16.687C1.83503 16.729 1.95973 16.7915 2.06409 16.8753C2.19962 16.9907 2.30354 17.1369 2.36632 17.3152C2.42867 17.4931 2.47068 17.7022 2.47068 17.9326C2.47068 18.1942 2.42867 18.4142 2.34554 18.6025C2.26197 18.7908 2.15805 18.927 2.0433 19.0212C1.92856 19.1049 1.79303 19.1678 1.6471 19.1995C1.56397 19.2203 1.43883 19.2307 1.27169 19.2307H0.344196ZM0.688434 18.927H1.23012C1.40722 18.927 1.53236 18.9062 1.63671 18.875C1.73024 18.8433 1.80342 18.8016 1.85538 18.7491C1.93895 18.6654 2.0013 18.5608 2.05369 18.4246C2.09526 18.2884 2.11605 18.1209 2.11605 17.9222C2.11605 17.723 2.09526 17.566 2.05369 17.4406C2.0013 17.3256 1.94934 17.2206 1.8766 17.1473C1.80342 17.0744 1.71985 17.0323 1.63671 17.0006C1.54275 16.9694 1.40722 16.959 1.23012 16.959H0.688434V17.828H1.39726V18.0584H0.688434V18.927ZM2.77291 18.2992C2.77291 17.9534 2.87683 17.6918 3.06432 17.5243C3.22107 17.3881 3.41895 17.3256 3.64801 17.3256C3.89829 17.3256 4.11739 17.4094 4.2737 17.5768C4.44041 17.7443 4.51359 17.9747 4.51359 18.2676C4.51359 18.5083 4.48198 18.6966 4.4088 18.8329C4.33605 18.9795 4.2317 19.0841 4.09617 19.1574C3.96064 19.2307 3.81515 19.2724 3.64801 19.2724C3.38734 19.2724 3.1795 19.1887 3.01236 19.0212C2.85648 18.8537 2.77291 18.6129 2.77291 18.2992ZM3.09593 18.2992C3.09593 18.54 3.14789 18.7179 3.25225 18.8329C3.3566 18.9479 3.49213 19.0108 3.64801 19.0108C3.80476 19.0108 3.9299 18.9479 4.03382 18.8329C4.13817 18.7179 4.19013 18.5292 4.19013 18.2884C4.19013 18.0584 4.13817 17.8801 4.03382 17.7651C3.9299 17.6393 3.80476 17.5872 3.64801 17.5872C3.49213 17.5872 3.3566 17.6393 3.25225 17.7651C3.14789 17.8801 3.09593 18.0584 3.09593 18.2992ZM3.64801 16.8336L3.45013 17.1369H3.09593L3.47091 16.6449H3.80476L4.20096 17.1369H3.84633L3.64801 16.8336ZM3.7108 16.0171H4.12778L3.72119 16.5091H3.47091L3.7108 16.0171ZM4.88857 16.6553H5.2012V17.0219H4.88857V16.6553ZM4.88857 17.3673H5.2012V19.2307H4.88857V17.3673ZM7.36924 18.9479L7.41081 19.2307C7.32767 19.2412 7.24411 19.2516 7.17093 19.2516C7.05662 19.2516 6.97305 19.2412 6.91069 19.1995C6.84791 19.1678 6.79595 19.1153 6.77516 19.0529C6.74399 19.0004 6.73359 18.875 6.73359 18.6862V17.6081H6.5041V17.3673H6.73359V16.9069L7.04622 16.7078V17.3673H7.36924V17.6081H7.04622V18.6966C7.04622 18.7908 7.05662 18.8537 7.06701 18.875C7.0774 18.8958 7.09818 18.9166 7.11897 18.9379C7.14018 18.9479 7.18175 18.9587 7.22332 18.9587C7.26532 18.9587 7.30689 18.9587 7.36924 18.9479ZM8.88043 19.0004C8.76568 19.0945 8.65137 19.1678 8.54701 19.2095C8.44266 19.2516 8.32791 19.2724 8.20321 19.2724C7.9945 19.2724 7.83819 19.2203 7.73383 19.1262C7.61952 19.0212 7.56713 18.8958 7.56713 18.7387C7.56713 18.6446 7.58834 18.5608 7.62991 18.4875C7.67148 18.4142 7.72344 18.3513 7.78579 18.3096C7.85897 18.2571 7.93215 18.2255 8.01528 18.2046C8.07807 18.1838 8.1716 18.1734 8.29674 18.1526C8.54701 18.1209 8.73494 18.0897 8.85964 18.0476V17.9638C8.85964 17.8385 8.82847 17.7443 8.7765 17.6918C8.69294 17.6185 8.5678 17.5872 8.41148 17.5872C8.26556 17.5872 8.15081 17.6081 8.08846 17.6606C8.01528 17.7126 7.96332 17.8068 7.93215 17.943L7.61952 17.9014C7.6507 17.7651 7.69226 17.6606 7.75505 17.5768C7.82779 17.4931 7.91136 17.4302 8.0365 17.3881C8.16164 17.3464 8.29674 17.3256 8.46344 17.3256C8.61976 17.3256 8.7449 17.336 8.84925 17.3777C8.94278 17.4198 9.01595 17.4614 9.06792 17.5243C9.10992 17.5768 9.14109 17.6502 9.16188 17.7339C9.17227 17.786 9.17227 17.8905 9.17227 18.0268V18.4454C9.17227 18.7387 9.18309 18.927 9.19305 19.0004C9.21384 19.0841 9.23505 19.1574 9.27662 19.2307H8.94278C8.91203 19.1678 8.89082 19.0841 8.88043 19.0004ZM8.85964 18.2884C8.7449 18.3409 8.57819 18.3825 8.34913 18.4142C8.2136 18.435 8.11964 18.4559 8.06768 18.4771C8.01528 18.4979 7.97372 18.5292 7.94254 18.5817C7.92132 18.6233 7.90097 18.6758 7.90097 18.7283C7.90097 18.8121 7.93215 18.8854 7.9945 18.9379C8.05685 19.0004 8.15081 19.0212 8.27595 19.0212C8.40109 19.0212 8.50501 19.0004 8.59941 18.9479C8.69293 18.8958 8.76568 18.8225 8.80725 18.7283C8.83886 18.655 8.85964 18.5504 8.85964 18.4142V18.2884ZM8.24478 17.1369L8.48423 16.6449H8.89082L8.50501 17.1369H8.24478ZM10.8818 18.5504L11.184 18.5921C11.1528 18.8016 11.0693 18.9687 10.9233 19.0945C10.7878 19.2095 10.6211 19.2724 10.4124 19.2724C10.1625 19.2724 9.95427 19.1887 9.79753 19.0212C9.6516 18.8537 9.56847 18.6129 9.56847 18.2992C9.56847 18.1001 9.59964 17.9222 9.67282 17.7755C9.73517 17.6289 9.83909 17.5139 9.97462 17.4302C10.1102 17.3569 10.2565 17.3256 10.4124 17.3256C10.6211 17.3256 10.7878 17.3777 10.9129 17.4723C11.0381 17.5768 11.1212 17.723 11.1632 17.9118L10.8502 17.9638C10.819 17.8385 10.767 17.7443 10.6943 17.6814C10.6211 17.6185 10.5375 17.5768 10.4336 17.5768C10.2669 17.5768 10.1418 17.6393 10.0374 17.7547C9.94388 17.8697 9.89149 18.0476 9.89149 18.2992C9.89149 18.5504 9.94388 18.7283 10.0374 18.8433C10.1314 18.9587 10.2565 19.0108 10.4124 19.0108C10.5375 19.0108 10.6419 18.9687 10.725 18.8958C10.7982 18.8225 10.8605 18.7071 10.8818 18.5504ZM13.1438 18.9479L13.1853 19.2307C13.1018 19.2412 13.0182 19.2516 12.9455 19.2516C12.8307 19.2516 12.7476 19.2412 12.6848 19.1995C12.6224 19.1678 12.57 19.1153 12.5493 19.0529C12.5181 19.0004 12.5077 18.875 12.5077 18.6862V17.6081H12.2782V17.3673H12.5077V16.9069L12.8203 16.7078V17.3673H13.1438V17.6081H12.8203V18.6966C12.8203 18.7908 12.8307 18.8537 12.8411 18.875C12.8515 18.8958 12.8723 18.9166 12.8935 18.9379C12.9139 18.9479 12.9559 18.9587 12.9974 18.9587C13.039 18.9587 13.0806 18.9587 13.1438 18.9479ZM13.4456 16.6553H13.769V17.0219H13.4456V16.6553ZM13.4456 17.3673H13.769V19.2307H13.4456V17.3673ZM14.2479 19.2307V17.3673H14.5298V17.6289C14.6654 17.4198 14.8632 17.3256 15.1135 17.3256C15.2278 17.3256 15.3322 17.3464 15.4261 17.3777C15.5197 17.4198 15.5928 17.4723 15.6344 17.5452C15.6868 17.6081 15.7176 17.6814 15.7388 17.7755C15.7492 17.8385 15.7492 17.9326 15.7492 18.0793V19.2307H15.4365V18.0897C15.4365 17.9638 15.4261 17.8697 15.4049 17.8068C15.3742 17.7443 15.3322 17.6918 15.2694 17.6502C15.207 17.6185 15.1339 17.5977 15.0507 17.5977C14.9152 17.5977 14.8009 17.6393 14.7069 17.723C14.6026 17.8068 14.5606 17.9747 14.5606 18.2155V19.2307H14.2479ZM18.4485 18.5504L18.7512 18.5921C18.7196 18.8016 18.636 18.9687 18.4905 19.0945C18.355 19.2095 18.1779 19.2724 17.9796 19.2724C17.7297 19.2724 17.521 19.1887 17.3643 19.0212C17.2084 18.8537 17.1352 18.6129 17.1352 18.2992C17.1352 18.1001 17.1668 17.9222 17.2396 17.7755C17.3019 17.6289 17.4063 17.5139 17.5418 17.4302C17.6773 17.3569 17.8232 17.3256 17.9796 17.3256C18.1883 17.3256 18.3441 17.3777 18.4797 17.4723C18.6048 17.5768 18.6884 17.723 18.7196 17.9118L18.4173 17.9638C18.3857 17.8385 18.3338 17.7443 18.261 17.6814C18.1883 17.6185 18.0943 17.5768 17.99 17.5768C17.8336 17.5768 17.7085 17.6393 17.6046 17.7547C17.5106 17.8697 17.4587 18.0476 17.4587 18.2992C17.4587 18.5504 17.5106 18.7283 17.6046 18.8433C17.6981 18.9587 17.8232 19.0108 17.9796 19.0108C18.1047 19.0108 18.1982 18.9687 18.2818 18.8958C18.3654 18.8225 18.4173 18.7071 18.4485 18.5504ZM20.2307 19.0004C20.116 19.0945 20.0017 19.1678 19.8973 19.2095C19.793 19.2516 19.6782 19.2724 19.5535 19.2724C19.3448 19.2724 19.1885 19.2203 19.0842 19.1262C18.9694 19.0212 18.9174 18.8958 18.9174 18.7387C18.9174 18.6446 18.9387 18.5608 18.9802 18.4875C19.0218 18.4142 19.0742 18.3513 19.1365 18.3096C19.2093 18.2571 19.282 18.2255 19.3656 18.2046C19.4284 18.1838 19.5224 18.1734 19.6475 18.1526C19.8973 18.1209 20.0848 18.0897 20.21 18.0476V17.9638C20.21 17.8385 20.1788 17.7443 20.116 17.6918C20.0433 17.6185 19.9181 17.5872 19.7618 17.5872C19.6159 17.5872 19.5011 17.6081 19.4388 17.6606C19.3656 17.7126 19.3136 17.8068 19.282 17.943L18.9694 17.9014C19.001 17.7651 19.0426 17.6606 19.1049 17.5768C19.1677 17.4931 19.2617 17.4302 19.3868 17.3881C19.512 17.3464 19.6475 17.3256 19.8034 17.3256C19.9705 17.3256 20.0956 17.336 20.1996 17.3777C20.2935 17.4198 20.3663 17.4614 20.4187 17.5243C20.4602 17.5768 20.4914 17.6502 20.5122 17.7339C20.5226 17.786 20.5226 17.8905 20.5226 18.0268V18.4454C20.5226 18.7387 20.5334 18.927 20.5438 19.0004C20.5642 19.0841 20.5854 19.1574 20.6269 19.2307H20.2935C20.2624 19.1678 20.2411 19.0841 20.2307 19.0004ZM20.21 18.2884C20.0956 18.3409 19.9181 18.3825 19.6994 18.4142C19.5639 18.435 19.47 18.4559 19.418 18.4771C19.3656 18.4979 19.324 18.5292 19.2929 18.5817C19.2617 18.6233 19.2513 18.6758 19.2513 18.7283C19.2513 18.8121 19.282 18.8854 19.3448 18.9379C19.4072 19.0004 19.5011 19.0212 19.6263 19.0212C19.7514 19.0212 19.8553 19.0004 19.9493 18.9479C20.0433 18.8958 20.116 18.8225 20.158 18.7283C20.1892 18.655 20.21 18.5504 20.21 18.4142V18.2884ZM19.7726 16.8336L19.5743 17.1369H19.2197L19.5951 16.6449H19.9285L20.3247 17.1369H19.9705L19.7726 16.8336ZM19.5847 19.4403H19.9493V19.7961H19.5847V19.4403ZM21.0019 19.9527L20.9707 19.6494C21.0335 19.6703 21.0959 19.6807 21.1478 19.6807C21.221 19.6807 21.273 19.6703 21.3146 19.6494C21.3566 19.6182 21.3877 19.5865 21.4189 19.5449C21.4401 19.5132 21.4713 19.4403 21.5129 19.3145C21.5233 19.2937 21.5337 19.2724 21.544 19.2307L20.8352 17.3673H21.1795L21.5653 18.4454C21.6172 18.5817 21.6588 18.7283 21.7004 18.875C21.732 18.7283 21.7731 18.5921 21.8255 18.4559L22.2217 17.3673H22.5343L21.8359 19.262C21.7528 19.4715 21.7004 19.6073 21.6588 19.6807C21.596 19.7857 21.5337 19.8694 21.4605 19.9111C21.3877 19.9635 21.3046 19.9844 21.2002 19.9844C21.1478 19.9844 21.0751 19.974 21.0019 19.9527ZM22.6175 19.2307V18.8641H22.9825V19.2307C22.9825 19.3665 22.9617 19.4715 22.9093 19.5553C22.8677 19.6286 22.7946 19.6911 22.6906 19.7436L22.5967 19.6073C22.6699 19.5761 22.7218 19.5345 22.753 19.4715C22.7846 19.419 22.7946 19.3353 22.8054 19.2307H22.6175ZM24.4729 19.3878L24.7751 19.4295C24.7959 19.524 24.8275 19.5969 24.8899 19.639C24.9626 19.6911 25.067 19.7228 25.2025 19.7228C25.3484 19.7228 25.4632 19.6911 25.5463 19.639C25.6195 19.5761 25.6818 19.4924 25.703 19.3878C25.7234 19.3249 25.7234 19.1887 25.7234 18.9899C25.5883 19.147 25.4212 19.2307 25.2129 19.2307C24.9626 19.2307 24.7647 19.1366 24.6188 18.9479C24.4833 18.77 24.4105 18.5504 24.4105 18.2884C24.4105 18.1105 24.4417 17.943 24.5041 17.7964C24.5668 17.6393 24.6604 17.5243 24.7855 17.4406C24.9106 17.3673 25.0462 17.3256 25.2129 17.3256C25.432 17.3256 25.6195 17.4094 25.755 17.5872V17.3673H26.0464V18.9795C26.0464 19.262 26.0157 19.4715 25.9637 19.5969C25.9009 19.7119 25.807 19.8065 25.6818 19.8798C25.5567 19.9527 25.3904 19.9844 25.2129 19.9844C24.9838 19.9844 24.8067 19.9319 24.6712 19.8377C24.5352 19.7332 24.4729 19.5865 24.4729 19.3878ZM24.7335 18.2676C24.7335 18.5083 24.7855 18.6862 24.8795 18.8016C24.973 18.9166 25.0981 18.9687 25.2441 18.9687C25.3904 18.9687 25.5047 18.9166 25.6091 18.8016C25.703 18.6862 25.755 18.5083 25.755 18.278C25.755 18.0476 25.703 17.8697 25.5983 17.7547C25.5047 17.6393 25.3796 17.5872 25.2337 17.5872C25.0981 17.5872 24.9838 17.6393 24.8795 17.7547C24.7855 17.8697 24.7335 18.0372 24.7335 18.2676ZM26.5262 16.6553H26.8388V17.0219H26.5262V16.6553ZM26.5262 17.3673H26.8388V19.2307H26.5262V17.3673ZM28.5275 19.0004C28.4128 19.0945 28.298 19.1678 28.1941 19.2095C28.0893 19.2516 27.975 19.2724 27.8499 19.2724C27.6412 19.2724 27.4853 19.2203 27.3809 19.1262C27.2662 19.0212 27.2142 18.8958 27.2142 18.7387C27.2142 18.6446 27.235 18.5608 27.2766 18.4875C27.3181 18.4142 27.3705 18.3513 27.4333 18.3096C27.5061 18.2571 27.5788 18.2255 27.6624 18.2046C27.7247 18.1838 27.8187 18.1734 27.9438 18.1526C28.1941 18.1209 28.3816 18.0897 28.5067 18.0476V17.9638C28.5067 17.8385 28.4751 17.7443 28.4232 17.6918C28.3396 17.6185 28.2145 17.5872 28.0586 17.5872C27.9122 17.5872 27.7979 17.6081 27.7351 17.6606C27.6624 17.7126 27.6104 17.8068 27.5788 17.943L27.2662 17.9014C27.2974 17.7651 27.3389 17.6606 27.4017 17.5768C27.4641 17.4931 27.558 17.4302 27.6832 17.3881C27.8083 17.3464 27.9438 17.3256 28.1001 17.3256C28.2669 17.3256 28.392 17.336 28.4959 17.3777C28.5899 17.4198 28.6626 17.4614 28.715 17.5243C28.7566 17.5768 28.7878 17.6502 28.8085 17.7339C28.8194 17.786 28.8194 17.8905 28.8194 18.0268V18.4454C28.8194 18.7387 28.8298 18.927 28.8401 19.0004C28.8609 19.0841 28.8817 19.1574 28.9233 19.2307H28.5899C28.5587 19.1678 28.5375 19.0841 28.5275 19.0004ZM28.5067 18.2884C28.392 18.3409 28.2145 18.3825 27.9958 18.4142C27.8603 18.435 27.7663 18.4559 27.7143 18.4771C27.6624 18.4979 27.6208 18.5292 27.5892 18.5817C27.5684 18.6233 27.5476 18.6758 27.5476 18.7283C27.5476 18.8121 27.5788 18.8854 27.6412 18.9379C27.7039 19.0004 27.7979 19.0212 27.923 19.0212C28.0478 19.0212 28.1521 19.0004 28.2461 18.9479C28.3396 18.8958 28.4128 18.8225 28.4548 18.7283C28.4855 18.655 28.5067 18.5504 28.5067 18.4142V18.2884ZM28.0062 16.9173C28.0794 16.9173 28.1209 16.9069 28.1417 16.9069C28.2045 16.8857 28.2357 16.844 28.2357 16.8019C28.2357 16.7811 28.2145 16.7499 28.1833 16.739C28.1313 16.7078 28.0586 16.6974 27.9538 16.6974H27.7871L27.7663 16.5195C27.8083 16.5091 27.8914 16.5091 28.017 16.5091C28.1625 16.5091 28.2772 16.5299 28.3712 16.5824C28.4751 16.6345 28.5275 16.6974 28.5275 16.7811C28.5275 16.9278 28.4232 17.0219 28.2045 17.0427V17.1369H28.0062V16.9173ZM29.3091 16.6553H29.6321V17.0219H29.3091V16.6553ZM29.3091 17.3673H29.6321V19.2307H29.3091V17.3673ZM31.1017 19.9427V17.3673H31.394V17.6081C31.4564 17.5139 31.5291 17.4406 31.6231 17.3881C31.7066 17.3464 31.8106 17.3256 31.9249 17.3256C32.092 17.3256 32.2275 17.3673 32.3527 17.4406C32.4674 17.5243 32.5609 17.6393 32.6233 17.7964C32.6861 17.943 32.7173 18.1001 32.7173 18.278C32.7173 18.4771 32.6861 18.6446 32.6129 18.8016C32.5506 18.9479 32.4462 19.0737 32.3211 19.147C32.1855 19.2307 32.05 19.2724 31.9045 19.2724C31.8002 19.2724 31.7066 19.2516 31.6231 19.2095C31.5395 19.1574 31.4767 19.1049 31.4144 19.0316V19.9427H31.1017ZM31.394 18.3096C31.394 18.5504 31.4351 18.7283 31.5291 18.8433C31.6335 18.9587 31.7482 19.0108 31.8837 19.0108C32.0297 19.0108 32.144 18.9479 32.2483 18.8329C32.3423 18.7179 32.3942 18.5292 32.3942 18.278C32.3942 18.0476 32.3423 17.8697 32.2483 17.7443C32.1548 17.6289 32.04 17.566 31.9045 17.566C31.769 17.566 31.6438 17.6289 31.5395 17.7547C31.4351 17.8801 31.394 18.0688 31.394 18.3096ZM33.0927 19.2307V16.6553H33.4157V17.5768C33.5616 17.4094 33.7387 17.3256 33.9678 17.3256C34.1033 17.3256 34.2284 17.3464 34.3224 17.3985C34.4268 17.4614 34.4995 17.5347 34.5411 17.6289C34.5831 17.723 34.6142 17.8697 34.6142 18.0476V19.2307H34.2912V18.0476C34.2912 17.8905 34.2601 17.7755 34.1869 17.7022C34.1245 17.6289 34.0306 17.5977 33.9054 17.5977C33.8119 17.5977 33.7179 17.6185 33.6348 17.671C33.5616 17.7126 33.4993 17.786 33.4677 17.8697C33.4261 17.943 33.4157 18.0584 33.4157 18.2046V19.2307H33.0927ZM36.303 19.0004C36.1878 19.0945 36.0735 19.1678 35.9691 19.2095C35.8548 19.2516 35.7401 19.2724 35.6149 19.2724C35.417 19.2724 35.2603 19.2203 35.146 19.1262C35.0416 19.0212 34.9788 18.8958 34.9788 18.7387C34.9788 18.6446 34.9996 18.5608 35.0416 18.4875C35.0832 18.4142 35.1356 18.3513 35.2083 18.3096C35.2711 18.2571 35.3543 18.2255 35.4374 18.2046C35.4898 18.1838 35.5837 18.1734 35.7084 18.1526C35.9691 18.1209 36.157 18.0897 36.2714 18.0476V17.9638C36.2714 17.8385 36.2506 17.7443 36.1878 17.6918C36.1046 17.6185 35.9903 17.5872 35.8336 17.5872C35.6773 17.5872 35.5729 17.6081 35.5002 17.6606C35.427 17.7126 35.375 17.8068 35.3439 17.943L35.0312 17.9014C35.0624 17.7651 35.1144 17.6606 35.1772 17.5768C35.2395 17.4931 35.3335 17.4302 35.4482 17.3881C35.5729 17.3464 35.7193 17.3256 35.8752 17.3256C36.0319 17.3256 36.157 17.336 36.261 17.3777C36.3549 17.4198 36.4281 17.4614 36.4801 17.5243C36.5216 17.5768 36.5636 17.6502 36.5736 17.7339C36.584 17.786 36.5944 17.8905 36.5944 18.0268V18.4454C36.5944 18.7387 36.5944 18.927 36.6156 19.0004C36.626 19.0841 36.6572 19.1574 36.6883 19.2307H36.3653C36.3337 19.1678 36.3134 19.0841 36.303 19.0004ZM36.2714 18.2884C36.157 18.3409 35.9903 18.3825 35.7608 18.4142C35.6357 18.435 35.5422 18.4559 35.4898 18.4771C35.427 18.4979 35.3854 18.5292 35.3646 18.5817C35.3335 18.6233 35.3127 18.6758 35.3127 18.7283C35.3127 18.8121 35.3543 18.8854 35.417 18.9379C35.4794 19.0004 35.5729 19.0212 35.6877 19.0212C35.8128 19.0212 35.9172 19.0004 36.0107 18.9479C36.1046 18.8958 36.1778 18.8225 36.2194 18.7283C36.261 18.655 36.2714 18.5504 36.2714 18.4142V18.2884ZM35.6673 17.1369L35.8964 16.6449H36.303L35.9276 17.1369H35.6673ZM37.0845 19.9427V17.3673H37.366V17.6081C37.4387 17.5139 37.5119 17.4406 37.595 17.3881C37.6786 17.3464 37.7825 17.3256 37.9081 17.3256C38.064 17.3256 38.2103 17.3673 38.3247 17.4406C38.4498 17.5243 38.5438 17.6393 38.5957 17.7964C38.6585 17.943 38.6892 18.1001 38.6892 18.278C38.6892 18.4771 38.6585 18.6446 38.5957 18.8016C38.523 18.9479 38.429 19.0737 38.2935 19.147C38.1683 19.2307 38.0224 19.2724 37.8869 19.2724C37.7825 19.2724 37.689 19.2516 37.6054 19.2095C37.5223 19.1574 37.4491 19.1049 37.3972 19.0316V19.9427H37.0845ZM37.366 18.3096C37.366 18.5504 37.4179 18.7283 37.5119 18.8433C37.6054 18.9587 37.7306 19.0108 37.8661 19.0108C38.0016 19.0108 38.1268 18.9479 38.2207 18.8329C38.3247 18.7179 38.3766 18.5292 38.3766 18.278C38.3766 18.0476 38.3247 17.8697 38.2307 17.7443C38.1268 17.6289 38.012 17.566 37.8765 17.566C37.741 17.566 37.6267 17.6289 37.5223 17.7547C37.4179 17.8801 37.366 18.0688 37.366 18.3096ZM40.0653 19.9427V17.3673H40.3572V17.6081C40.4195 17.5139 40.5031 17.4406 40.5867 17.3881C40.6698 17.3464 40.7742 17.3256 40.8993 17.3256C41.0556 17.3256 41.1911 17.3673 41.3158 17.4406C41.4306 17.5243 41.5246 17.6393 41.5869 17.7964C41.6497 17.943 41.6809 18.1001 41.6809 18.278C41.6809 18.4771 41.6497 18.6446 41.5765 18.8016C41.5142 18.9479 41.4102 19.0737 41.2851 19.147C41.1496 19.2307 41.014 19.2724 40.8677 19.2724C40.7638 19.2724 40.6698 19.2516 40.5867 19.2095C40.5031 19.1574 40.4407 19.1049 40.3888 19.0316V19.9427H40.0653ZM40.3572 18.3096C40.3572 18.5504 40.3987 18.7283 40.5031 18.8433C40.5966 18.9587 40.7118 19.0108 40.8469 19.0108C40.9928 19.0108 41.1076 18.9479 41.2119 18.8329C41.3055 18.7179 41.3578 18.5292 41.3578 18.278C41.3578 18.0476 41.3158 17.8697 41.2119 17.7443C41.118 17.6289 41.0032 17.566 40.8677 17.566C40.7322 17.566 40.607 17.6289 40.5135 17.7547C40.4091 17.8801 40.3572 18.0688 40.3572 18.3096ZM42.0662 19.2307V16.6553H42.3793V17.5768C42.5252 17.4094 42.7127 17.3256 42.9318 17.3256C43.0673 17.3256 43.192 17.3464 43.286 17.3985C43.3904 17.4614 43.4631 17.5347 43.5051 17.6289C43.5571 17.723 43.5779 17.8697 43.5779 18.0476V19.2307H43.2548V18.0476C43.2548 17.8905 43.2232 17.7755 43.1609 17.7022C43.0877 17.6289 42.9942 17.5977 42.869 17.5977C42.7751 17.5977 42.6919 17.6185 42.6084 17.671C42.5252 17.7126 42.4624 17.786 42.4313 17.8697C42.3897 17.943 42.3793 18.0584 42.3793 18.2046V19.2307H42.0662ZM45.2765 19.2307V18.9587C45.1306 19.1678 44.9327 19.2724 44.6824 19.2724C44.5677 19.2724 44.4742 19.2516 44.3698 19.2095C44.2763 19.1678 44.2135 19.1153 44.1615 19.0529C44.1195 18.9899 44.0888 18.9062 44.0676 18.8121C44.0572 18.7491 44.0468 18.655 44.0468 18.5188V17.3673H44.3594V18.4038C44.3594 18.5608 44.3698 18.6758 44.3802 18.7283C44.4014 18.8121 44.443 18.8854 44.5053 18.927C44.5677 18.9795 44.6513 19.0004 44.7452 19.0004C44.8392 19.0004 44.9327 18.9795 45.0055 18.927C45.089 18.875 45.1514 18.8121 45.183 18.7283C45.2246 18.6446 45.235 18.5188 45.235 18.3617V17.3673H45.5476V19.2307H45.2765ZM45.089 17.1369H44.8392L44.4322 16.6449H44.86L45.089 17.1369ZM47.038 19.2307V16.6553H47.361V17.5768C47.5069 17.4094 47.684 17.3256 47.914 17.3256C48.0495 17.3256 48.1742 17.3464 48.2681 17.3985C48.3725 17.4614 48.4452 17.5347 48.4868 17.6289C48.5284 17.723 48.56 17.8697 48.56 18.0476V19.2307H48.237V18.0476C48.237 17.8905 48.2054 17.7755 48.1326 17.7022C48.0698 17.6289 47.9763 17.5977 47.8512 17.5977C47.7572 17.5977 47.6637 17.6185 47.5801 17.671C47.5069 17.7126 47.4446 17.786 47.4134 17.8697C47.3714 17.943 47.361 18.0584 47.361 18.2046V19.2307H47.038ZM49.2372 18.2992C49.2372 18.5292 49.2892 18.7071 49.394 18.8329C49.4979 18.9479 49.623 19.0108 49.7897 19.0108C49.9564 19.0108 50.0816 18.9479 50.1751 18.8329C50.2799 18.7071 50.3318 18.5188 50.3318 18.2884C50.3318 18.0584 50.2799 17.8905 50.1751 17.7651C50.0816 17.6393 49.946 17.5872 49.7897 17.5872C49.623 17.5872 49.4979 17.6393 49.394 17.7651C49.2892 17.8905 49.2372 18.0688 49.2372 18.2992ZM50.6964 17.6814V17.3152H51.0407V17.6081C51.0407 17.7547 51.0195 17.8697 50.9675 17.943C50.9155 18.0476 50.8112 18.1313 50.6549 18.2155V18.2676C50.6549 18.7071 50.5193 19.0004 50.2379 19.1574C50.1023 19.2307 49.946 19.2724 49.7897 19.2724C49.5191 19.2724 49.3104 19.1887 49.1536 19.0212C48.9978 18.8433 48.9142 18.6025 48.9142 18.2992C48.9142 17.9534 49.0082 17.6918 49.206 17.5243C49.3623 17.3881 49.5607 17.3256 49.7897 17.3256C50.04 17.3256 50.2483 17.4094 50.4154 17.5768C50.5405 17.7022 50.6133 17.8697 50.6445 18.0688C50.728 18.0163 50.78 17.9638 50.8112 17.9118C50.8532 17.8593 50.8636 17.786 50.8636 17.6814H50.6964ZM49.5918 19.4403H49.9564V19.7961H49.5918V19.4403ZM51.384 19.9427V17.3673H51.6659V17.6081C51.7387 17.5139 51.8118 17.4406 51.895 17.3881C51.9889 17.3464 52.0825 17.3256 52.208 17.3256C52.3639 17.3256 52.5103 17.3673 52.6246 17.4406C52.7497 17.5243 52.8437 17.6393 52.906 17.7964C52.9688 17.943 53 18.1001 53 18.278C53 18.4771 52.9584 18.6446 52.8957 18.8016C52.8229 18.9479 52.7289 19.0737 52.5934 19.147C52.4683 19.2307 52.3327 19.2724 52.1873 19.2724C52.0825 19.2724 51.9889 19.2516 51.9054 19.2095C51.8222 19.1574 51.7495 19.1049 51.6971 19.0316V19.9427H51.384ZM51.6659 18.3096C51.6659 18.5504 51.7179 18.7283 51.8118 18.8433C51.9054 18.9587 52.0305 19.0108 52.166 19.0108C52.3016 19.0108 52.4267 18.9479 52.5207 18.8329C52.6246 18.7179 52.677 18.5292 52.677 18.278C52.677 18.0476 52.6246 17.8697 52.5311 17.7443C52.4267 17.6289 52.312 17.566 52.1764 17.566C52.0409 17.566 51.9266 17.6289 51.8222 17.7547C51.7179 17.8801 51.6659 18.0688 51.6659 18.3096Z" fill="#63251F"/>
</g>
</g>
<defs>
<clipPath id="clip0_4148_3016">
<rect width="53" height="19" fill="white" transform="translate(0 0.984375)"/>
</clipPath>
</defs>
</svg>
