<svg width="148" height="79" viewBox="0 0 148 79" fill="none" xmlns="http://www.w3.org/2000/svg">
<rect x="0.5" y="0.603516" width="147" height="77.8966" rx="7.5" stroke="#E6E6E6"/>
<path d="M45.2198 31.784H40.9104L43.6204 14.7224H47.9298L45.2198 31.784Z" fill="#0066B3"/>
<path d="M37.2675 14.7224L33.1361 26.4466L32.6475 23.9375L31.1815 16.2735C31.1815 16.2735 31.0038 14.7224 29.138 14.7224H22.3413L22.2524 14.9961C22.2524 14.9961 24.3403 15.4523 26.7836 16.9578L30.5596 31.784H35.0463L41.9319 14.7224H37.2675Z" fill="#0066B3"/>
<path d="M71.2959 31.784H75.2496L71.7846 14.7224H68.3196C66.7203 14.7224 66.3205 15.9998 66.3205 15.9998L59.8792 31.784H64.3659L65.2544 29.2293H70.7628L71.2959 31.784ZM66.5426 25.7167L68.8082 19.33L70.0965 25.7167H66.5426Z" fill="#0066B3"/>
<path d="M60.1907 18.8277L60.8127 15.1782C60.8127 15.1782 58.9025 14.4482 56.9034 14.4482C54.7711 14.4482 49.6624 15.4062 49.6624 20.105C49.6624 24.5301 55.6596 24.5757 55.6596 26.9023C55.6596 29.2289 50.2844 28.8183 48.5074 27.3585L47.8855 31.1905C47.8855 31.1905 49.7957 32.1485 52.7721 32.1485C55.704 32.1485 60.1907 30.5975 60.1907 26.3092C60.1907 21.8842 54.1492 21.4736 54.1492 19.512C54.1492 17.5047 58.3694 17.7784 60.1907 18.8277Z" fill="#0066B3"/>
<path d="M29.7367 25.6533L28.0055 16.6033C28.0055 16.6033 27.7957 14.7717 25.5923 14.7717H17.5659L17.4609 15.0949C17.4609 15.0949 21.343 15.903 25.0153 19.0274C28.5826 21.9363 29.7367 25.6533 29.7367 25.6533Z" fill="#FAA634"/>
<g clip-path="url(#clip0_4148_2976)">
<path d="M87.814 37.0981V35.1941C87.814 34.4658 87.3946 33.9888 86.6746 33.9888C86.3147 33.9888 85.9232 34.1145 85.6541 34.5286C85.4444 34.1811 85.1438 33.9888 84.693 33.9888C84.3924 33.9888 84.0919 34.085 83.8542 34.4325V34.0517H83.2251V37.0981H83.8542V35.4159C83.8542 34.8762 84.1233 34.6211 84.5427 34.6211C84.9621 34.6211 85.1718 34.9057 85.1718 35.4159V37.0981H85.8009V35.4159C85.8009 34.8762 86.1015 34.6211 86.4894 34.6211C86.9088 34.6211 87.1185 34.9057 87.1185 35.4159V37.0981H87.814ZM97.1456 34.0517H96.1251V33.1311H95.496V34.0517H94.9263V34.6543H95.496V36.0518C95.496 36.7506 95.7651 37.161 96.4851 37.161C96.7542 37.161 97.0547 37.0649 97.2644 36.9391L97.0827 36.3661C96.901 36.4918 96.6913 36.5251 96.541 36.5251C96.2404 36.5251 96.1216 36.3328 96.1216 36.0186V34.6543H97.1421V34.0517H97.1456ZM102.486 33.9851C102.126 33.9851 101.885 34.1774 101.735 34.4288V34.048H101.105V37.0944H101.735V35.379C101.735 34.8725 101.944 34.5841 102.336 34.5841C102.454 34.5841 102.605 34.6174 102.727 34.6469L102.909 34.011C102.783 33.9851 102.605 33.9851 102.486 33.9851ZM94.416 34.3031C94.1155 34.0813 93.6961 33.9851 93.2452 33.9851C92.5252 33.9851 92.0464 34.366 92.0464 34.9686C92.0464 35.4751 92.4064 35.7635 93.0355 35.8559L93.3361 35.8892C93.6646 35.952 93.8464 36.0481 93.8464 36.2071C93.8464 36.4289 93.6052 36.5879 93.1858 36.5879C92.7664 36.5879 92.4344 36.4289 92.2247 36.27L91.9241 36.7765C92.2526 37.0316 92.7035 37.1573 93.1543 37.1573C93.9931 37.1573 94.4755 36.7432 94.4755 36.1738C94.4755 35.6341 94.084 35.3494 93.4864 35.2533L93.1858 35.22C92.9167 35.1867 92.707 35.1239 92.707 34.9353C92.707 34.7135 92.9167 34.5878 93.2487 34.5878C93.6087 34.5878 93.9687 34.7468 94.1504 34.8429L94.416 34.3031ZM111.154 33.9851C110.794 33.9851 110.552 34.1774 110.402 34.4288V34.048H109.773V37.0944H110.402V35.379C110.402 34.8725 110.612 34.5841 111.003 34.5841C111.122 34.5841 111.272 34.6174 111.395 34.6469L111.576 34.0184C111.454 33.9851 111.276 33.9851 111.154 33.9851ZM103.115 35.5749C103.115 36.4955 103.716 37.161 104.646 37.161C105.065 37.161 105.366 37.0649 105.666 36.8134L105.366 36.2737C105.125 36.4659 104.887 36.5583 104.614 36.5583C104.104 36.5583 103.744 36.1775 103.744 35.5749C103.744 35.0019 104.104 34.6211 104.614 34.5915C104.884 34.5915 105.125 34.6876 105.366 34.8762L105.666 34.3364C105.366 34.0813 105.065 33.9888 104.646 33.9888C103.716 33.9851 103.115 34.6543 103.115 35.5749ZM108.934 35.5749V34.0517H108.305V34.4325C108.095 34.1478 107.795 33.9888 107.403 33.9888C106.593 33.9888 105.963 34.6543 105.963 35.5749C105.963 36.4955 106.593 37.161 107.403 37.161C107.823 37.161 108.123 37.002 108.305 36.7173V37.0981H108.934V35.5749ZM106.624 35.5749C106.624 35.0351 106.953 34.5915 107.494 34.5915C108.005 34.5915 108.365 35.0056 108.365 35.5749C108.365 36.1147 108.005 36.5583 107.494 36.5583C106.956 36.5251 106.624 36.111 106.624 35.5749ZM99.0958 33.9851C98.257 33.9851 97.6559 34.6211 97.6559 35.5712C97.6559 36.5251 98.257 37.1573 99.1273 37.1573C99.5467 37.1573 99.9661 37.0316 100.298 36.7432L99.9975 36.2663C99.7564 36.4585 99.4558 36.5842 99.1587 36.5842C98.7673 36.5842 98.3793 36.392 98.2885 35.8559H100.417C100.417 35.7598 100.417 35.6969 100.417 35.6008C100.445 34.6211 99.9032 33.9851 99.0958 33.9851ZM99.0958 34.5582C99.4873 34.5582 99.7564 34.8133 99.8158 35.2865H98.3164C98.3759 34.8762 98.645 34.5582 99.0958 34.5582ZM114.725 35.5749V32.8464H114.096V34.4325C113.887 34.1478 113.586 33.9888 113.195 33.9888C112.384 33.9888 111.755 34.6543 111.755 35.5749C111.755 36.4955 112.384 37.161 113.195 37.161C113.614 37.161 113.915 37.002 114.096 36.7173V37.0981H114.725V35.5749ZM112.415 35.5749C112.415 35.0351 112.744 34.5915 113.285 34.5915C113.796 34.5915 114.156 35.0056 114.156 35.5749C114.156 36.1147 113.796 36.5583 113.285 36.5583C112.744 36.5251 112.415 36.111 112.415 35.5749ZM91.3544 35.5749V34.0517H90.7253V34.4325C90.5156 34.1478 90.2151 33.9888 89.8236 33.9888C89.0128 33.9888 88.3837 34.6543 88.3837 35.5749C88.3837 36.4955 89.0128 37.161 89.8236 37.161C90.243 37.161 90.5436 37.002 90.7253 36.7173V37.0981H91.3544V35.5749ZM89.0163 35.5749C89.0163 35.0351 89.3448 34.5915 89.8865 34.5915C90.3968 34.5915 90.7568 35.0056 90.7568 35.5749C90.7568 36.1147 90.3968 36.5583 89.8865 36.5583C89.3448 36.5251 89.0163 36.111 89.0163 35.5749Z" fill="black"/>
<path d="M103.657 10.915H94.2061V28.8757H103.657V10.915Z" fill="#FF5A00"/>
<path d="M94.8352 19.8953C94.8352 16.2462 96.4569 13.0076 98.9453 10.915C97.1139 9.39177 94.8038 8.47119 92.2839 8.47119C86.3144 8.47119 81.4844 13.5806 81.4844 19.8953C81.4844 26.21 86.3144 31.3194 92.2839 31.3194C94.8038 31.3194 97.1139 30.3988 98.9453 28.8756C96.4534 26.8126 94.8352 23.5444 94.8352 19.8953Z" fill="#EB001B"/>
<path d="M116.406 19.8953C116.406 26.21 111.576 31.3194 105.607 31.3194C103.087 31.3194 100.777 30.3988 98.9453 28.8756C101.465 26.7793 103.055 23.5444 103.055 19.8953C103.055 16.2462 101.434 13.0076 98.9453 10.915C100.773 9.39177 103.083 8.47119 105.603 8.47119C111.576 8.47119 116.406 13.6139 116.406 19.8953Z" fill="#F79E1B"/>
</g>
<path d="M122.099 66.1725C122.099 69.8772 119.107 72.8939 115.432 72.8939H79.1562V46.2731C79.1562 42.5684 82.1486 39.5518 85.8234 39.5518H122.099V66.1725Z" fill="white"/>
<path d="M110.287 59.3453H113.043C113.122 59.3453 113.306 59.3188 113.385 59.3188C113.91 59.213 114.356 58.7367 114.356 58.0751C114.356 57.44 113.91 56.9637 113.385 56.8314C113.306 56.8049 113.148 56.8049 113.043 56.8049H110.287V59.3453Z" fill="url(#paint0_linear_4148_2976)"/>
<path d="M112.729 41.8013C110.104 41.8013 107.951 43.9447 107.951 46.6174V51.6187H114.698C114.855 51.6187 115.039 51.6187 115.17 51.6451C116.693 51.7245 117.822 52.5184 117.822 53.8944C117.822 54.9793 117.06 55.9055 115.643 56.0907V56.1437C117.192 56.2495 118.373 57.1228 118.373 58.4723C118.373 59.9277 117.06 60.8804 115.328 60.8804H107.925V70.6713H114.934C117.559 70.6713 119.712 68.5279 119.712 65.8552V41.8013H112.729Z" fill="url(#paint1_linear_4148_2976)"/>
<path d="M114.015 54.2117C114.015 53.5766 113.568 53.1532 113.043 53.0738C112.991 53.0738 112.86 53.0474 112.781 53.0474H110.287V55.376H112.781C112.86 55.376 113.017 55.376 113.043 55.3496C113.568 55.2702 114.015 54.8468 114.015 54.2117Z" fill="url(#paint2_linear_4148_2976)"/>
<path d="M86.3224 41.8013C83.6974 41.8013 81.5448 43.9447 81.5448 46.6174V58.4988C82.8836 59.1603 84.2749 59.5837 85.6662 59.5837C87.32 59.5837 88.2125 58.5782 88.2125 57.2021V51.5922H92.3076V57.1757C92.3076 59.3456 90.9688 61.1185 86.4274 61.1185C83.6711 61.1185 81.5186 60.5099 81.5186 60.5099V70.6448H88.5275C91.1526 70.6448 93.3051 68.5014 93.3051 65.8288V41.8013H86.3224Z" fill="url(#paint3_linear_4148_2976)"/>
<path d="M99.5252 41.8013C96.9001 41.8013 94.7476 43.9447 94.7476 46.6174V52.9153C95.9551 51.8833 98.0552 51.2217 101.441 51.3805C103.253 51.4599 105.195 51.9627 105.195 51.9627V54.0002C104.224 53.4975 103.069 53.0476 101.573 52.9418C99.0002 52.7565 97.4514 54.0267 97.4514 56.2495C97.4514 58.4988 99.0002 59.769 101.573 59.5573C103.069 59.4514 104.224 58.9751 105.195 58.4988V60.5364C105.195 60.5364 103.279 61.0391 101.441 61.1185C98.0552 61.2773 95.9551 60.6157 94.7476 59.5837V70.6978H101.757C104.382 70.6978 106.534 68.5543 106.534 65.8817V41.8013H99.5252Z" fill="url(#paint4_linear_4148_2976)"/>
<path opacity="0.15" d="M30.9707 69.5396V43.4464C30.9707 41.9557 32.1478 40.7471 33.5996 40.7471H31.7304C30.2787 40.7471 29.1018 41.9556 29.1018 43.4464V69.5397C29.1018 71.0306 30.2787 72.2392 31.7305 72.2392H33.5997C32.1479 72.2392 30.9707 71.0305 30.9707 69.5396Z" fill="#202121"/>
<path d="M73.5689 69.5397C73.5689 71.0305 72.3921 72.2391 70.9404 72.2391H31.7303C30.2786 72.2392 29.1018 71.0305 29.1018 69.5397V43.4464C29.1018 41.9557 30.2786 40.7471 31.7303 40.7471H70.9404C72.3922 40.7471 73.5689 41.9557 73.5689 43.4464V69.5397Z" fill="#306FC5"/>
<path d="M35.5798 53.349H36.9086L36.2444 51.6125L35.5798 53.349Z" fill="white"/>
<path d="M42.6458 59.1785V59.9848H44.8805V60.8532H42.6458V61.7837H45.1219L46.2694 60.4811L45.1824 59.1785H42.6458Z" fill="white"/>
<path d="M60.0984 51.6125L59.3735 53.349H60.7628L60.0984 51.6125Z" fill="white"/>
<path d="M49.1067 62.2795V58.7446L47.5364 60.4812L49.1067 62.2795Z" fill="white"/>
<path d="M52.0666 59.7369C52.0062 59.3648 51.7643 59.1785 51.4018 59.1785H50.1338V60.2947H51.4626C51.8249 60.2948 52.0666 60.1089 52.0666 59.7369Z" fill="white"/>
<path d="M56.2931 60.1713C56.4139 60.1091 56.4745 59.9229 56.4745 59.7372C56.535 59.4894 56.4139 59.3651 56.2931 59.303C56.1726 59.241 55.9911 59.241 55.8102 59.241H54.6021V60.2334H55.8101C55.9911 60.2334 56.1725 60.2334 56.2931 60.1713Z" fill="white"/>
<path d="M64.9887 50.0002V50.7444L64.6266 50.0002H61.7886V50.7444L61.4261 50.0002H57.5611C56.8968 50.0002 56.3531 50.1244 55.8702 50.3724V50.0002H53.1528V50.0623V50.3724C52.8509 50.1245 52.4885 50.0002 52.0054 50.0002H42.2825L41.618 51.5507L40.9538 50.0002H38.7799H37.874V50.7444L37.572 50.0002H37.5115H34.9148L33.7068 52.9149L32.318 56.0777L32.2925 56.1399H32.318H35.398H35.4365L35.4584 56.0777L35.8209 55.1476H36.606L36.9683 56.1399H40.4706V56.0777V55.3957L40.7728 56.1398H42.5239L42.8257 55.3957V56.0777V56.1399H44.2147H51.1596H51.2201V54.5273H51.3412C51.4618 54.5273 51.4618 54.5273 51.4618 54.7135V56.0778H55.8099V55.7057C56.1723 55.892 56.7154 56.0778 57.4402 56.0778H59.2521L59.6145 55.0857H60.4597L60.822 56.0778H64.3245V55.4578V55.1477L64.8683 56.0778H64.9887H65.0493H67.7065V50.0002H64.9889H64.9887ZM44.5168 55.2098H43.9128H43.5506V54.838V51.7988L43.4901 51.9411V51.9394L42.0852 55.2098H42.0408H41.7178H41.1952L39.7459 51.7988V55.2098H37.6928L37.2701 54.2796H35.2166L34.7938 55.2098H33.7323L35.5188 50.8686H37.0284L38.7193 55.0236V50.8686H39.0815H40.3192L40.3477 50.9307H40.3498L41.1117 52.6337L41.6589 53.9096L41.6782 53.8453L42.886 50.8687H44.5168V55.2098H44.5168ZM48.6839 51.7988H46.3286V52.605H48.6234V53.4731H46.3286V54.3417H48.6839V55.2716H45.3021V50.8687H48.6839V51.7988ZM52.9912 53.398C52.9928 53.3994 52.9948 53.4004 52.9967 53.4017C53.0195 53.4265 53.0391 53.4514 53.0557 53.4752C53.1714 53.6309 53.265 53.8625 53.2697 54.2022C53.27 54.208 53.2703 54.2138 53.2706 54.2197C53.2706 54.2231 53.2712 54.2261 53.2712 54.2295C53.2712 54.2315 53.271 54.233 53.271 54.2349C53.2724 54.2691 53.2733 54.3039 53.2733 54.3417V55.2099H52.3676V54.7136C52.3676 54.4655 52.3676 54.0934 52.1862 53.8453C52.1291 53.7867 52.0714 53.7481 52.0085 53.7206C51.918 53.6604 51.7465 53.6595 51.4618 53.6595H50.3744V55.2099H49.348V50.8687H51.643C52.1862 50.8687 52.5487 50.8687 52.8508 51.0547C53.1467 51.2372 53.3254 51.5398 53.3322 52.019C53.3182 52.679 52.9057 53.0411 52.6091 53.1632C52.6091 53.1632 52.8106 53.2049 52.9912 53.398ZM55.0248 55.2098H53.9981V50.8686H55.0248V55.2098ZM66.8009 55.2098H65.4721L63.5397 51.9228V54.6515L63.5334 54.6451V55.2125H62.5132V55.2099H61.4864L61.1241 54.2797H59.0102L58.6479 55.2717H57.5005C57.0177 55.2717 56.4134 55.1478 56.0513 54.7757C55.6889 54.4036 55.5079 53.9075 55.5079 53.1014C55.5079 52.4813 55.6286 51.8607 56.0513 51.3647C56.353 50.9924 56.8968 50.8687 57.5609 50.8687H58.5274V51.7988H57.5609C57.1986 51.7988 57.0177 51.8606 56.7757 52.047C56.5949 52.233 56.474 52.605 56.474 53.0391C56.474 53.5353 56.5344 53.8453 56.7757 54.0934C56.9573 54.2797 57.1986 54.3417 57.5005 54.3417H57.9232L59.312 50.9309H59.9163H60.8219L62.5131 55.0859V54.874V53.4733V53.3494V50.931H64.0227L65.7737 53.9696V50.931H66.8008V55.21H66.8009V55.2098Z" fill="white"/>
<path d="M52.1304 52.6765C52.148 52.6571 52.164 52.6352 52.1776 52.61C52.2323 52.5211 52.295 52.3609 52.2612 52.1423C52.2598 52.1222 52.2563 52.1037 52.2521 52.0858C52.251 52.0808 52.2511 52.0764 52.2498 52.0714L52.2492 52.0715C52.2192 51.9653 52.1425 51.9 52.066 51.8604C51.9449 51.7986 51.7637 51.7986 51.5826 51.7986H50.3745V52.791H51.5826C51.7637 52.791 51.945 52.791 52.066 52.7288C52.0841 52.7194 52.1003 52.7065 52.1158 52.692L52.116 52.6928C52.116 52.6928 52.1222 52.6861 52.1304 52.6765Z" fill="white"/>
<path d="M70.364 61.4116C70.364 60.9775 70.2434 60.5432 70.0623 60.2332V57.4426H70.0595V57.2563C70.0595 57.2563 67.5283 57.2563 67.1515 57.2563C66.775 57.2563 66.318 57.6283 66.318 57.6283V57.2563H63.5401C63.1172 57.2563 62.574 57.3804 62.3322 57.6283V57.2563H57.3803V57.4426V57.6282C57.0183 57.3184 56.3534 57.2562 56.0517 57.2562H52.7906V57.4425V57.6281C52.4887 57.3183 51.7637 57.2561 51.4012 57.2561H47.7783L46.9327 58.1864L46.1475 57.2561H45.8947H45.4833H40.7126V57.4424V57.9323V63.52H46.027L46.9002 62.6231L47.6571 63.52H47.7177H50.7798H50.9186H50.9791H51.0392V62.8999V62.0938H51.3413C51.7637 62.0938 52.3074 62.0938 52.7301 61.9074V63.4577V63.582H55.4477V63.4577V61.9695H55.5682C55.7496 61.9695 55.7496 61.9695 55.7496 62.1556V63.4577V63.582H63.9624C64.5064 63.582 65.0495 63.4577 65.3514 63.2097V63.4577V63.582H67.9484C68.4915 63.582 69.0355 63.52 69.3978 63.2718C69.9538 62.9293 70.3043 62.3229 70.3564 61.5996C70.3588 61.5782 70.3618 61.5568 70.3638 61.5353L70.3602 61.5319C70.3625 61.4917 70.364 61.452 70.364 61.4116ZM51.3414 61.0395H50.1333V61.2251V61.5974V61.9696V62.6518H48.1484L46.9931 61.2873L46.9891 61.2919L46.9327 61.2251L45.6041 62.6518H41.7392V58.3108H45.6646L46.737 59.517L46.9624 59.7696L46.993 59.737L48.2614 58.3108H51.462C52.0831 58.3108 52.7787 58.4683 53.0423 59.1173C53.074 59.2458 53.0924 59.3887 53.0924 59.551C53.0924 60.7912 52.2469 61.0395 51.3414 61.0395ZM57.3803 60.9774C57.501 61.163 57.5614 61.4115 57.5614 61.7837V62.6517H56.5349V62.0938C56.5349 61.8453 56.5349 61.4115 56.3535 61.2251C56.233 61.0395 55.9912 61.0395 55.6291 61.0395H54.5422V62.6518H53.5156V58.2487H55.8103C56.2931 58.2487 56.7158 58.2487 57.0183 58.4345C57.32 58.6208 57.5614 58.9309 57.5614 59.427C57.5614 60.1091 57.1389 60.4811 56.8368 60.6054C57.1389 60.7289 57.32 60.8533 57.3803 60.9774ZM61.5474 59.1786H59.1918V59.9848H61.4868V60.8532H59.1918V61.7216H61.5474V62.6517H58.1655V58.2486H61.5474V59.1786ZM64.0836 62.6518H62.151V61.7217H64.0836C64.2644 61.7217 64.3855 61.7217 64.5065 61.5975C64.567 61.5353 64.627 61.4116 64.627 61.2874C64.627 61.1631 64.567 61.0396 64.5065 60.9775C64.4459 60.9155 64.3249 60.8534 64.1438 60.8534C63.1775 60.7913 62.0302 60.8534 62.0302 59.4892C62.0302 58.869 62.3925 58.1867 63.4796 58.1867H65.4724V59.2408H63.6004C63.4193 59.2408 63.2984 59.2408 63.1775 59.3029C63.057 59.365 63.057 59.4892 63.057 59.6131C63.057 59.7992 63.1775 59.8613 63.2983 59.9228C63.4193 59.985 63.54 59.985 63.6606 59.985H64.2042C64.7478 59.985 65.11 60.109 65.3516 60.3572C65.5328 60.5433 65.6536 60.8534 65.6536 61.2874C65.6536 62.2174 65.1101 62.6518 64.0836 62.6518ZM69.2771 62.2174C69.0358 62.4658 68.6129 62.6518 68.0087 62.6518H66.0767V61.7217H68.0087C68.1899 61.7217 68.311 61.7217 68.4316 61.5975C68.4918 61.5353 68.5524 61.4116 68.5524 61.2874C68.5524 61.1631 68.4918 61.0396 68.4316 60.9775C68.3712 60.9155 68.2505 60.8534 68.0693 60.8534C67.1033 60.7913 65.9556 60.8534 65.9556 59.4893C65.9556 58.8998 66.284 58.3674 67.0939 58.2093C67.1907 58.1955 67.293 58.1867 67.4051 58.1867H69.3981V59.2408H68.0693H67.5863H67.5259C67.3446 59.2408 67.224 59.2408 67.1033 59.3029C67.0425 59.365 66.9821 59.4892 66.9821 59.6131C66.9821 59.7992 67.0425 59.8613 67.224 59.9228C67.3446 59.985 67.4654 59.985 67.5863 59.985H67.6463H68.1296C68.3936 59.985 68.5932 60.0184 68.7758 60.0843C68.9431 60.1465 69.4968 60.4009 69.6207 61.0649C69.6314 61.1344 69.6393 61.207 69.6393 61.2874C69.6393 61.6596 69.5185 61.9696 69.2771 62.2174Z" fill="white"/>
<defs>
<linearGradient id="paint0_linear_4148_2976" x1="107.946" y1="58.0783" x2="119.743" y2="58.0783" gradientUnits="userSpaceOnUse">
<stop stop-color="#007940"/>
<stop offset="0.2285" stop-color="#00873F"/>
<stop offset="0.7433" stop-color="#40A737"/>
<stop offset="1" stop-color="#5CB531"/>
</linearGradient>
<linearGradient id="paint1_linear_4148_2976" x1="107.947" y1="56.2247" x2="119.744" y2="56.2247" gradientUnits="userSpaceOnUse">
<stop stop-color="#007940"/>
<stop offset="0.2285" stop-color="#00873F"/>
<stop offset="0.7433" stop-color="#40A737"/>
<stop offset="1" stop-color="#5CB531"/>
</linearGradient>
<linearGradient id="paint2_linear_4148_2976" x1="107.946" y1="54.2084" x2="119.743" y2="54.2084" gradientUnits="userSpaceOnUse">
<stop stop-color="#007940"/>
<stop offset="0.2285" stop-color="#00873F"/>
<stop offset="0.7433" stop-color="#40A737"/>
<stop offset="1" stop-color="#5CB531"/>
</linearGradient>
<linearGradient id="paint3_linear_4148_2976" x1="81.5392" y1="56.2247" x2="93.5183" y2="56.2247" gradientUnits="userSpaceOnUse">
<stop stop-color="#1F286F"/>
<stop offset="0.4751" stop-color="#004E94"/>
<stop offset="0.8261" stop-color="#0066B1"/>
<stop offset="1" stop-color="#006FBC"/>
</linearGradient>
<linearGradient id="paint4_linear_4148_2976" x1="94.6797" y1="56.2247" x2="106.314" y2="56.2247" gradientUnits="userSpaceOnUse">
<stop stop-color="#6C2C2F"/>
<stop offset="0.1735" stop-color="#882730"/>
<stop offset="0.5731" stop-color="#BE1833"/>
<stop offset="0.8585" stop-color="#DC0436"/>
<stop offset="1" stop-color="#E60039"/>
</linearGradient>
<clipPath id="clip0_4148_2976">
<rect width="34.9219" height="28.6897" fill="white" transform="translate(81.4844 8.47119)"/>
</clipPath>
</defs>
</svg>
