<svg width="148" height="51" viewBox="0 0 148 51" fill="none" xmlns="http://www.w3.org/2000/svg">
<rect x="0.5" y="0.5" width="147" height="49.2069" rx="7.5" stroke="#E6E6E6"/>
<g clip-path="url(#clip0_4148_2899)">
<path d="M42.4667 18.464L39.2902 21.7656L39.1314 21.9307L38.1228 22.979L37.3764 23.7631L36.3678 24.8114L36.209 24.9682L35.7722 25.4304L35.6134 25.5872L34.1284 27.1307L33.9695 27.2875C33.5355 27.738 33.0438 28.124 32.5083 28.4348C32.2528 28.5834 31.9874 28.7131 31.7142 28.8228C31.0991 29.0705 30.4509 29.2181 29.7924 29.2602C29.3935 29.2973 28.9922 29.2973 28.5933 29.2602C27.7223 29.1618 26.8794 28.881 26.1156 28.4348C25.7697 28.2488 25.4493 28.0156 25.1627 27.7415L24.98 27.5517L19.1908 21.4767L19.0717 21.3529C18.9686 21.237 18.8781 21.1097 18.8017 20.9733C18.6031 20.6232 18.4988 20.2241 18.4999 19.8177C18.4958 19.7545 18.4958 19.6911 18.4999 19.6279C18.4999 19.5288 18.4999 19.4298 18.4999 19.339V19.2317C18.5776 18.9316 18.7126 18.6509 18.897 18.4063C18.9457 18.3419 18.9988 18.2812 19.0558 18.2247L19.1591 18.1174L25.393 11.7206L29.1254 7.84944C29.5225 7.43597 30.056 7.19485 30.6178 7.17492C31.1796 7.155 31.7277 7.35776 32.151 7.74214L42.4667 18.464Z" fill="#005BAA"/>
<path d="M31.2457 32.8589C30.7434 32.857 30.2475 32.7415 29.7924 32.5205L28.6092 31.2989L28.3153 31.0017L28.2677 30.944L27.7197 30.3744L24.9641 27.4773L25.1468 27.6671C25.4353 27.9447 25.7585 28.1807 26.1077 28.3687C26.8715 28.8149 27.7143 29.0957 28.5853 29.1941C28.9842 29.2312 29.3856 29.2312 29.7845 29.1941C30.4429 29.152 31.0911 29.0044 31.7063 28.7566C31.9794 28.6469 32.2448 28.5173 32.5004 28.3687C33.0359 28.0579 33.5276 27.6718 33.9616 27.2214L34.1204 27.0646L35.6054 25.5211L35.7642 25.3643L36.201 24.902L36.3598 24.7452L37.3684 23.697L38.1149 22.9128L39.1472 21.9224L39.3061 21.7573L45.6988 15.1541L48.3194 12.1249L48.4624 11.9846C48.8493 11.5839 49.3733 11.3589 49.9196 11.3589C50.4658 11.3589 50.9898 11.5839 51.3768 11.9846L52.8221 13.4868H52.8698C52.5454 13.4727 52.2217 13.5277 51.9186 13.6484C51.6154 13.769 51.3392 13.9528 51.1068 14.1884L46.2229 19.1408L46.1753 19.1986L37.694 27.9808L34.5572 31.1751L34.3666 31.3814C33.9397 31.8121 33.449 32.1689 32.9133 32.4379C32.6154 32.5882 32.3006 32.6991 31.9763 32.7681C31.7905 32.8085 31.602 32.8334 31.4124 32.8424L31.2457 32.8589Z" fill="#ED1C24"/>
<path d="M60.6523 24.6464L60.4935 24.8115L53.5766 32.108L46.2945 39.7759C46.0682 40.0133 45.8238 40.2314 45.5639 40.428L45.4606 40.5023C44.1946 41.4425 42.6531 41.8949 41.101 41.782C39.5489 41.669 38.0831 40.9976 36.9555 39.8832L36.7649 39.7677L35.5181 38.4718L32.0002 34.8153L30.8248 33.5854L30.666 33.4121C30.855 33.445 31.0462 33.4615 31.2378 33.4616H31.4046C31.629 33.4517 31.8523 33.4213 32.0716 33.3708C32.4436 33.2942 32.8041 33.1665 33.1437 32.9911C33.7289 32.6893 34.2648 32.2938 34.732 31.8191L34.9464 31.5797L37.6464 28.8229L46.9298 19.3308L46.9774 19.2648L51.5357 14.6756C51.8318 14.3806 52.2159 14.1993 52.6245 14.1618C53.0331 14.1243 53.4418 14.2327 53.7831 14.4692L54.8472 15.5835L60.6443 21.6172C60.6961 21.6682 60.7439 21.7234 60.7873 21.7823C61.1103 22.1922 61.2753 22.7121 61.2503 23.2413C61.2254 23.7705 61.0123 24.2712 60.6523 24.6464Z" fill="#ED1C24"/>
<path d="M38.2421 16.6564C38.1599 16.7353 38.0522 16.7792 37.9403 16.7792C37.8285 16.7792 37.7207 16.7353 37.6386 16.6564C36.9863 15.9741 36.211 15.432 35.3572 15.0611C34.5033 14.6901 33.5875 14.4976 32.662 14.4946C30.793 14.4884 28.9981 15.2542 27.6723 16.6234C26.3464 17.9927 25.5983 19.8533 25.5923 21.796C25.5863 23.7386 26.3231 25.6041 27.6405 26.9822L29.7846 29.2272C29.7869 29.2437 29.7869 29.2603 29.7846 29.2768C29.3964 29.314 29.0056 29.314 28.6173 29.2768L27.029 27.626C25.5547 26.0827 24.7306 23.9938 24.7381 21.819C24.7455 19.6442 25.5839 17.5615 27.0687 16.0291C28.5536 14.4968 30.5633 13.6403 32.6557 13.648C34.7481 13.6557 36.7519 14.5271 38.2262 16.0704C38.2982 16.1487 38.3397 16.252 38.3426 16.3603C38.3455 16.4685 38.3097 16.5741 38.2421 16.6564Z" fill="#009EDB"/>
<path d="M41.5298 19.4627L40.9341 20.0735L39.8937 18.9839C39.8546 18.9433 39.8235 18.8951 39.8024 18.842C39.7812 18.7888 39.7703 18.7319 39.7703 18.6744C39.7703 18.6169 39.7812 18.56 39.8024 18.5069C39.8235 18.4538 39.8546 18.4055 39.8937 18.3649C39.9328 18.3242 39.9793 18.2919 40.0304 18.2699C40.0815 18.2479 40.1362 18.2366 40.1916 18.2366C40.2469 18.2366 40.3017 18.2479 40.3528 18.2699C40.4039 18.2919 40.4503 18.3242 40.4894 18.3649L41.5298 19.4627Z" fill="#009EDB"/>
<path d="M32.5406 28.4183C32.2853 28.5651 32.0199 28.6921 31.7464 28.7979L28.8238 25.7605C27.9376 24.8328 27.3908 23.6127 27.2777 22.3108C27.1646 21.0088 27.4924 19.7067 28.2043 18.6291C28.2685 18.534 28.3659 18.4688 28.4756 18.4472C28.5854 18.4256 28.6989 18.4494 28.792 18.5135C28.8375 18.5465 28.8763 18.5884 28.9061 18.637C28.9359 18.6856 28.9562 18.7398 28.9658 18.7966C28.9754 18.8534 28.9741 18.9115 28.962 18.9678C28.9499 19.024 28.9272 19.0772 28.8953 19.1243C28.2951 20.0339 28.0191 21.1326 28.1148 22.231C28.2105 23.3294 28.6719 24.3587 29.4195 25.1414L32.5406 28.4183Z" fill="#009EDB"/>
<path d="M39.7515 21.2869L39.3147 21.7409L39.1718 21.8895L35.8918 18.4476C35.2916 17.821 34.5346 17.3814 33.7065 17.1787C32.8785 16.9759 32.0123 17.018 31.2061 17.3003C31.1522 17.3262 31.0937 17.3399 31.0344 17.3407C30.975 17.3414 30.9162 17.3291 30.8618 17.3046C30.8074 17.28 30.7585 17.2438 30.7185 17.1983C30.6785 17.1527 30.6482 17.0989 30.6296 17.0403C30.611 16.9818 30.6045 16.9198 30.6106 16.8584C30.6167 16.7971 30.6352 16.7378 30.6649 16.6844C30.6946 16.631 30.7348 16.5847 30.7829 16.5486C30.831 16.5125 30.8859 16.4874 30.944 16.4749C31.8947 16.1509 32.9135 16.1091 33.8858 16.3541C34.8581 16.599 35.7453 17.1211 36.4477 17.8615L39.7515 21.2869Z" fill="#009EDB"/>
<path d="M37.9964 23.1192L37.4008 23.7383L34.1049 20.2881C33.7079 19.9499 33.2039 19.7775 32.6912 19.8045C32.1785 19.8316 31.6939 20.0562 31.3318 20.4345C30.9698 20.8128 30.7564 21.3177 30.7331 21.8507C30.7099 22.3837 30.8785 22.9065 31.2061 23.3173L33.3266 25.5376C33.4056 25.6197 33.45 25.7311 33.45 25.8472C33.45 25.9632 33.4056 26.0746 33.3266 26.1567C33.2476 26.2388 33.1405 26.2849 33.0288 26.2849C32.9171 26.2849 32.81 26.2388 32.731 26.1567L30.5708 23.9364C30.0667 23.3583 29.7967 22.6003 29.817 21.8205C29.8372 21.0406 30.1462 20.299 30.6796 19.75C31.2129 19.201 31.9295 18.887 32.68 18.8735C33.4305 18.86 34.1572 19.1479 34.7085 19.6773L37.9964 23.1192Z" fill="#009EDB"/>
<path d="M36.2331 24.9434L35.7963 25.4056L35.6534 25.5459L32.3416 22.1122C32.2626 22.0302 32.2183 21.9188 32.2183 21.8027C32.2183 21.6866 32.2626 21.5753 32.3416 21.4932C32.4206 21.4111 32.5277 21.365 32.6394 21.365C32.7511 21.365 32.8583 21.4111 32.9373 21.4932L36.2331 24.9434Z" fill="#009EDB"/>
<path fill-rule="evenodd" clip-rule="evenodd" d="M119.1 24.7535L114.192 17.4405L113.7 16.97H118.56L121.84 22.4919L122.102 22.269L124.079 19.2068C124.327 18.8723 124.438 18.4496 124.387 18.0306C124.337 17.6117 124.129 17.2305 123.809 16.97H128.375L123.095 24.7452V30.3909L124.024 31.5465H118.322L119.116 30.4074C119.116 28.5338 119.052 26.6271 119.116 24.7535H119.1ZM105.783 16.97C106.097 17.3088 106.293 17.7478 106.338 18.2163C106.37 18.4961 106.334 18.7796 106.235 19.0417L102.59 30.036C102.349 30.5884 101.994 31.0787 101.55 31.4722H105.52C105.229 31.2238 105.032 30.8756 104.965 30.49C104.893 30.2199 104.893 29.9347 104.965 29.6646L105.759 27.0563H110.388L111.111 29.0703C111.184 29.2718 111.229 29.483 111.246 29.6976C111.293 30.0403 111.249 30.3898 111.119 30.7084C110.989 31.027 110.778 31.3025 110.508 31.5052H116.741C116.127 30.9911 115.621 30.3504 115.256 29.6233L110.698 16.9287L105.783 16.97ZM109.753 25.224H106.442L108.03 20.4697L109.737 25.224H109.753ZM93.1479 16.9782H100.097C101.105 16.9804 102.071 17.3977 102.784 18.1386C103.497 18.8796 103.898 19.884 103.9 20.9319V21.4189C103.888 22.4568 103.484 23.4481 102.776 24.1797C102.067 24.9114 101.111 25.3248 100.112 25.3313L98.3733 25.389C99.0246 25.0197 99.5486 24.448 99.8718 23.7539C100.195 23.0598 100.301 22.278 100.176 21.5179C100.041 20.2963 99.4374 19.1243 98.4289 19.0995H97.7936V29.9205C97.7907 30.0944 97.8407 30.2648 97.9365 30.4074C98.127 30.7178 98.3393 31.013 98.5718 31.2906L98.7545 31.5217H93.3544L93.5847 31.1998C93.7539 30.9682 93.8952 30.716 94.0056 30.4487C94.0754 30.2938 94.1106 30.1245 94.1088 29.9535V18.3071C94.085 17.6963 93.5053 17.3497 93.1479 16.9782Z" fill="#005BAA"/>
<path fill-rule="evenodd" clip-rule="evenodd" d="M63.8843 16.9041H68.244L71.905 27.8075L75.01 18.7777C75.0666 18.5144 75.021 18.2386 74.8829 18.0101C74.7162 17.6387 74.5335 17.2837 74.3588 16.9206H77.6147C77.4242 17.6552 77.1383 18.4641 76.8921 19.2069L72.6832 31.9345C71.4196 31.7244 70.2372 31.1528 69.2685 30.2837C68.6177 29.556 68.1463 28.6752 67.8946 27.7168L64.3766 17.9853C64.2368 17.6135 64.0723 17.2522 63.8843 16.9041ZM81.2916 22.0298V29.8215C81.2916 30.1352 81.363 30.1929 81.5536 30.4488L82.4113 31.6126H78.3056L78.9965 30.5149C79.166 30.3015 79.2561 30.0321 79.2506 29.7555V18.852L78.0992 16.9041H82.3557L89.2408 26.1568V18.8107C89.2483 18.5327 89.1611 18.2608 88.9946 18.0431C88.7643 17.6717 88.5181 17.3168 88.2878 16.9536H92.3538L91.5596 18.0844C91.369 18.332 91.2976 18.3898 91.2976 18.7117V31.9345C90.4658 31.8897 89.653 31.6594 88.9144 31.2592C88.1759 30.859 87.5288 30.2983 87.0172 29.6152L81.2916 22.0298Z" fill="#ED1C24"/>
<path d="M68.2442 36.5238C68.2442 37.1015 68.4824 37.4069 69.094 37.4069C69.3327 37.4069 69.5694 37.3622 69.7929 37.2749C69.904 37.2254 69.9358 37.2749 69.9358 37.3822V37.4482C69.9358 37.5473 69.9358 37.5885 69.7929 37.6463C69.573 37.7359 69.3379 37.778 69.1019 37.7701C68.2601 37.7701 67.863 37.3822 67.863 36.5238V35.6984C67.8394 35.5243 67.8549 35.3469 67.9084 35.1801C67.9618 35.0133 68.0516 34.8616 68.1708 34.7368C68.29 34.6121 68.4354 34.5178 68.5956 34.4612C68.7557 34.4047 68.9263 34.3874 69.094 34.4107C69.3248 34.4123 69.5535 34.457 69.769 34.5428C69.8802 34.5841 69.904 34.6336 69.904 34.7326V34.7987C69.904 34.9225 69.8564 34.9555 69.7531 34.9142C69.5399 34.8194 69.31 34.7716 69.0781 34.7739C68.4904 34.7739 68.2839 35.0711 68.2839 35.7149L68.2442 36.5238Z" fill="#009EDB"/>
<path d="M69.102 37.7783C68.2522 37.7783 67.8551 37.3739 67.8551 36.5237V35.6983C67.8312 35.5234 67.8468 35.3452 67.9007 35.1777C67.9545 35.0101 68.0451 34.8579 68.1652 34.733C68.2854 34.6081 68.4319 34.514 68.5931 34.4581C68.7543 34.4021 68.9258 34.3859 69.094 34.4107C69.3248 34.4122 69.5535 34.457 69.7691 34.5427C69.8882 34.5923 69.912 34.6418 69.912 34.7408V34.8069C69.912 34.8729 69.912 34.9142 69.912 34.9307C69.912 34.9472 69.8485 34.9307 69.7929 34.9307C69.5779 34.8427 69.3489 34.7979 69.1178 34.7986C68.546 34.7986 68.3237 35.0875 68.3237 35.7313V36.5567C68.3237 37.1593 68.5778 37.4316 69.1655 37.4316C69.4019 37.4349 69.6366 37.3901 69.8564 37.2996C69.92 37.2996 69.9517 37.2996 69.9756 37.2996C69.9994 37.2996 69.9756 37.3574 69.9756 37.4234V37.4894C69.9756 37.5967 69.9756 37.638 69.8326 37.6875C69.5993 37.7768 69.349 37.8079 69.102 37.7783ZM69.102 34.4189C68.9332 34.3935 68.7611 34.4096 68.5994 34.466C68.4378 34.5224 68.2911 34.6174 68.1713 34.7435C68.0516 34.8697 67.962 35.0233 67.9098 35.192C67.8576 35.3607 67.8443 35.5398 67.871 35.7148V36.5402C67.871 37.3656 68.2681 37.7783 69.1099 37.7783C69.3437 37.7921 69.5774 37.7497 69.7929 37.6545C69.912 37.605 69.9359 37.5637 69.9359 37.4647V37.3821C69.9359 37.3161 69.9359 37.2831 69.9359 37.2666C69.9359 37.2501 69.8882 37.2666 69.8326 37.2666C69.61 37.3571 69.3727 37.4019 69.1337 37.3986C68.546 37.3986 68.276 37.1262 68.276 36.5154V35.69C68.276 35.038 68.5381 34.7491 69.1178 34.7491C69.3517 34.7452 69.584 34.7901 69.8008 34.8812C69.8485 34.8812 69.8803 34.8812 69.9041 34.8812C69.912 34.863 69.9161 34.8433 69.9161 34.8234C69.9161 34.8035 69.912 34.7838 69.9041 34.7656V34.6996C69.9041 34.6088 69.9041 34.5593 69.7611 34.5097C69.5465 34.4344 69.3204 34.4008 69.094 34.4107L69.102 34.4189Z" fill="#009EDB"/>
<path d="M70.4519 34.4107C70.4519 34.2704 70.4519 34.2456 70.6028 34.2456H70.6584C70.7855 34.2456 70.8093 34.2456 70.8093 34.4107V35.5745C70.9014 35.4506 71.0233 35.354 71.1627 35.2946C71.3021 35.2352 71.4542 35.215 71.6035 35.2361C72.1674 35.2361 72.5009 35.4837 72.5009 36.0615V37.5472C72.5009 37.6793 72.5009 37.704 72.35 37.704H72.2865C72.1594 37.704 72.1356 37.704 72.1356 37.5472V36.1193C72.1356 35.7231 71.9688 35.5497 71.5161 35.5497C71.0634 35.5497 70.849 35.7396 70.849 36.2018V37.5637C70.849 37.6958 70.849 37.7205 70.6981 37.7205H70.6425C70.5234 37.7205 70.4916 37.7205 70.4916 37.5637L70.4519 34.4107Z" fill="#009EDB"/>
<path d="M72.3102 37.7122H72.2467C72.1196 37.7122 72.0958 37.7122 72.0958 37.5471V36.1192C72.0958 35.7148 71.9131 35.5579 71.4763 35.5579C71.0395 35.5579 70.8171 35.7478 70.8171 36.2017V37.5637C70.8171 37.6957 70.8171 37.7287 70.6583 37.7287H70.6027C70.4756 37.7287 70.4439 37.7287 70.4439 37.5637V34.4106C70.4439 34.2621 70.4439 34.2373 70.6027 34.2373H70.6583C70.7854 34.2373 70.8171 34.2373 70.8171 34.4106V35.5579C70.9101 35.4355 71.0324 35.3406 71.1718 35.2826C71.3112 35.2247 71.4627 35.2058 71.6113 35.2278C72.207 35.2278 72.5088 35.5249 72.5088 36.1192V37.6049C72.5008 37.7122 72.4452 37.7122 72.3102 37.7122ZM71.4763 35.5249C71.9211 35.5249 72.1037 35.6983 72.1037 36.1027V37.5471C72.1037 37.6792 72.1037 37.6957 72.2467 37.6957H72.3102C72.4373 37.6957 72.4611 37.6957 72.4611 37.5471V36.0614C72.4611 35.4754 72.1593 35.1865 71.5716 35.1865C71.4219 35.1579 71.2675 35.1746 71.1267 35.2346C70.9859 35.2946 70.8647 35.3954 70.7774 35.5249V34.4106C70.7774 34.2786 70.7774 34.2538 70.6345 34.2538H70.5789C70.4597 34.2538 70.428 34.2538 70.428 34.4106V37.6049C70.428 37.737 70.428 37.7535 70.5789 37.7535H70.6345C70.7615 37.7535 70.7774 37.7535 70.7774 37.6049V36.2017C70.8012 35.7395 71.0077 35.5414 71.4763 35.5414V35.5249Z" fill="#009EDB"/>
<path d="M72.9771 36.7136V36.2513C72.9771 35.5497 73.3344 35.1948 74.0413 35.1948C74.7481 35.1948 75.0975 35.558 75.0975 36.2513V36.7136C75.0975 37.4234 74.7481 37.7701 74.0413 37.7701C73.3344 37.7701 72.9771 37.4069 72.9771 36.7136ZM74.7322 36.2513C74.7322 35.7643 74.5654 35.5497 74.0413 35.5497C73.5171 35.5497 73.3424 35.7643 73.3424 36.2513V36.7136C73.3424 37.2005 73.5171 37.4151 74.0413 37.4151C74.5654 37.4151 74.7322 37.2005 74.7322 36.7136V36.2513Z" fill="#009EDB"/>
<path d="M74.0413 37.7783C73.3107 37.7783 72.9771 37.4399 72.9771 36.7136V36.2513C72.9635 36.1024 72.9797 35.9521 73.0248 35.8101C73.0699 35.668 73.1429 35.5372 73.2392 35.4259C73.4625 35.2372 73.7461 35.1428 74.0334 35.1618C74.7561 35.1618 75.0896 35.5002 75.0896 36.2266V36.6888C75.1111 36.837 75.0989 36.9884 75.0538 37.1308C75.0087 37.2732 74.9321 37.4026 74.8301 37.5086C74.7281 37.6146 74.6036 37.6942 74.4666 37.7411C74.3296 37.7879 74.1839 37.8007 74.0413 37.7783ZM74.0413 35.2031C73.7548 35.1793 73.4704 35.2709 73.2471 35.459C73.1492 35.5691 73.0751 35.6997 73.0299 35.8421C72.9847 35.9845 72.9694 36.1353 72.985 36.2844V36.7466C72.985 37.4647 73.3186 37.7948 74.0413 37.7948C74.3281 37.8213 74.6134 37.7294 74.8355 37.539C74.9334 37.4289 75.0075 37.2982 75.0527 37.1558C75.0979 37.0134 75.1132 36.8626 75.0976 36.7136V36.2513C75.0896 35.5332 74.7561 35.2361 74.0413 35.2361V35.2031ZM74.0413 37.4234C73.533 37.4234 73.3345 37.2253 73.3345 36.7136V36.2513C73.3345 35.7396 73.5251 35.5415 74.0413 35.5415C74.5575 35.5415 74.7402 35.7396 74.7402 36.2513V36.7136C74.7402 37.2336 74.5496 37.4234 74.0413 37.4234ZM74.0413 35.558C73.533 35.558 73.3504 35.7396 73.3504 36.2513V36.7136C73.3504 37.2171 73.541 37.4069 74.0413 37.4069C74.5416 37.4069 74.7322 37.2253 74.7322 36.7136V36.2513C74.7322 35.7396 74.5416 35.558 74.0413 35.558Z" fill="#009EDB"/>
<path d="M76.8525 36.2347C76.8525 35.5744 77.194 35.1947 77.9326 35.1947C78.0756 35.1899 78.2183 35.2123 78.3536 35.2608C78.4727 35.2608 78.5044 35.335 78.5044 35.4506V35.5001C78.5044 35.6239 78.5044 35.6652 78.3536 35.6239C78.2216 35.5726 78.0815 35.5474 77.9406 35.5496C77.4005 35.5496 77.2179 35.7725 77.2179 36.243V36.73C77.2179 37.2335 77.4323 37.415 78.0121 37.415C78.1577 37.4205 78.3031 37.3981 78.4409 37.349C78.5521 37.3077 78.5839 37.349 78.5839 37.4728V37.5223C78.5839 37.6296 78.5839 37.6709 78.433 37.7039C78.2867 37.7524 78.1337 37.7747 77.9803 37.77C77.2417 37.77 76.8922 37.4398 76.8922 36.73L76.8525 36.2347Z" fill="#009EDB"/>
<path d="M77.9406 37.7783C77.6548 37.7957 77.3726 37.7048 77.1464 37.5225C77.0466 37.4134 76.9707 37.2831 76.9241 37.1406C76.8775 36.9981 76.8612 36.8468 76.8764 36.6971V36.2018C76.8677 36.0614 76.8873 35.9207 76.9338 35.7885C76.9802 35.6564 77.0526 35.5357 77.1464 35.4342C77.3653 35.2357 77.6506 35.1349 77.9406 35.1536C78.0834 35.1522 78.2254 35.1745 78.3615 35.2196C78.4885 35.2196 78.5124 35.3021 78.5124 35.4177V35.4672C78.5124 35.5415 78.5124 35.5828 78.5124 35.5993C78.494 35.6094 78.4736 35.6147 78.4528 35.6147C78.432 35.6147 78.4116 35.6094 78.3932 35.5993C78.2597 35.5554 78.1204 35.5331 77.9803 35.5333C77.4641 35.5333 77.2576 35.7313 77.2576 36.2183V36.7053C77.2576 37.2006 77.464 37.3821 78.0517 37.3821C78.1974 37.3883 78.3429 37.3659 78.4806 37.3161C78.5362 37.3161 78.568 37.3161 78.5918 37.3161C78.6156 37.3161 78.6315 37.3739 78.6315 37.4482V37.4977C78.6315 37.6133 78.6315 37.6545 78.4727 37.6875C78.3019 37.7506 78.1217 37.7813 77.9406 37.7783ZM77.9406 35.2031C77.2337 35.2031 76.8684 35.558 76.8684 36.2348V36.7301C76.8684 37.4399 77.2099 37.7618 77.9485 37.7618C78.1013 37.7653 78.2538 37.7458 78.4012 37.704C78.5203 37.704 78.5521 37.6298 78.5521 37.5225V37.4729C78.5521 37.4069 78.5521 37.3656 78.5521 37.3491C78.5521 37.3326 78.4965 37.3491 78.4488 37.3491C78.3074 37.3943 78.16 37.4165 78.012 37.4152C77.4641 37.4152 77.2179 37.2171 77.2179 36.7218V36.2348C77.2179 35.7396 77.4323 35.5333 77.9485 35.5333C78.0894 35.5317 78.2293 35.5569 78.3615 35.6075C78.4171 35.6075 78.4488 35.6075 78.4727 35.6075C78.4965 35.6075 78.4727 35.5498 78.4727 35.4837V35.4342C78.4727 35.3269 78.4727 35.2856 78.3297 35.2444C78.1984 35.2218 78.0647 35.219 77.9326 35.2361L77.9406 35.2031Z" fill="#009EDB"/>
<path d="M79.2509 36.8291C79.2509 37.2253 79.4097 37.4152 79.8941 37.4152C80.3786 37.4152 80.5374 37.2336 80.5374 36.8291V35.4012C80.5374 35.2774 80.5374 35.2444 80.6963 35.2444H80.7439C80.8789 35.2444 80.9028 35.2444 80.9028 35.4012V36.8291C80.9028 37.4399 80.6089 37.7701 79.8941 37.7701C79.1794 37.7701 78.8538 37.4565 78.8538 36.8291V35.4012C78.8538 35.2774 78.8538 35.2444 79.0126 35.2444H79.0603C79.1953 35.2444 79.2191 35.2444 79.2191 35.4012L79.2509 36.8291Z" fill="#009EDB"/>
<path d="M79.8941 37.7783C79.227 37.7783 78.8855 37.4564 78.8855 36.8291V35.4012C78.8855 35.2774 78.8855 35.2361 79.0364 35.2361H79.092C79.227 35.2361 79.2508 35.2361 79.2508 35.4012V36.8291C79.2508 37.2501 79.4335 37.4069 79.8941 37.4069C80.3547 37.4069 80.5295 37.2501 80.5295 36.8291V35.4012C80.5295 35.2774 80.5295 35.2361 80.6962 35.2361H80.7439C80.8868 35.2361 80.9027 35.2361 80.9027 35.4012V36.8291C80.914 36.9563 80.8993 37.0845 80.8596 37.2054C80.8199 37.3263 80.7561 37.4372 80.6724 37.5307C80.4528 37.7132 80.1744 37.8018 79.8941 37.7783ZM79.0364 35.2361C78.9252 35.2361 78.8934 35.2361 78.8934 35.3847V36.8126C78.8827 36.9411 78.8991 37.0706 78.9417 37.1918C78.9842 37.313 79.0518 37.423 79.1396 37.5142C79.3653 37.6957 79.6502 37.7787 79.9338 37.7453C80.0748 37.7616 80.2176 37.7488 80.3538 37.7077C80.4901 37.6667 80.6173 37.5981 80.728 37.5059C80.812 37.4143 80.876 37.3049 80.9157 37.1853C80.9554 37.0657 80.97 36.9386 80.9583 36.8126V35.4012C80.9583 35.2856 80.9583 35.2526 80.8074 35.2526H80.7598C80.6407 35.2526 80.6089 35.2526 80.6089 35.4012V36.8291C80.6089 37.2583 80.4262 37.4234 79.9577 37.4234C79.4891 37.4234 79.3064 37.2583 79.3064 36.8291V35.4012C79.3064 35.2856 79.3064 35.2526 79.1555 35.2526L79.0364 35.2361Z" fill="#009EDB"/>
<path d="M81.387 36.7135V36.2513C81.387 35.5497 81.7364 35.1948 82.4512 35.1948C83.1659 35.1948 83.4995 35.558 83.4995 36.2513V36.7135C83.4995 37.4234 83.1501 37.77 82.4512 37.77C81.7523 37.77 81.387 37.4069 81.387 36.7135ZM83.1421 36.2513C83.1421 35.7643 82.9753 35.5497 82.4512 35.5497C81.927 35.5497 81.7443 35.7643 81.7443 36.2513V36.7135C81.7443 37.2005 81.927 37.4151 82.4512 37.4151C82.9753 37.4151 83.1421 37.2005 83.1421 36.7135V36.2513ZM82.1097 34.5345C82.2209 34.3529 82.2923 34.2869 82.4512 34.2869C82.61 34.2869 82.6735 34.3364 82.7927 34.5345L82.9753 34.8316C83.0309 34.9224 82.9753 34.9472 82.9118 34.9472C82.871 34.9541 82.8292 34.9465 82.7931 34.9255C82.757 34.9045 82.7289 34.8714 82.7133 34.8316L82.6021 34.6335C82.5306 34.4932 82.4512 34.4932 82.3718 34.6335L82.2685 34.8316C82.2518 34.8705 82.2234 34.9028 82.1876 34.9236C82.1519 34.9444 82.1106 34.9527 82.07 34.9472H82.0223C81.927 34.9472 81.9111 34.9472 81.9667 34.8316L82.1097 34.5345ZM82.2844 38.2158C82.318 38.1818 82.3604 38.1589 82.4065 38.1499C82.4525 38.1409 82.5001 38.1462 82.5432 38.1651C82.5864 38.184 82.6232 38.2158 82.6491 38.2563C82.675 38.2969 82.6888 38.3445 82.6888 38.3932C82.6888 38.4419 82.675 38.4895 82.6491 38.5301C82.6232 38.5707 82.5864 38.6024 82.5432 38.6213C82.5001 38.6403 82.4525 38.6456 82.4065 38.6366C82.3604 38.6275 82.318 38.6046 82.2844 38.5707C82.2616 38.5476 82.2434 38.52 82.2311 38.4895C82.2187 38.4591 82.2123 38.4263 82.2123 38.3932C82.2123 38.3601 82.2187 38.3274 82.2311 38.2969C82.2434 38.2664 82.2616 38.2388 82.2844 38.2158Z" fill="#009EDB"/>
<path d="M82.4511 38.645C82.3885 38.6429 82.3291 38.6162 82.2848 38.5702C82.2406 38.5242 82.2148 38.4624 82.2129 38.3974C82.2117 38.3636 82.2175 38.3299 82.2299 38.2986C82.2422 38.2673 82.2607 38.2391 82.2843 38.2158C82.3052 38.1915 82.331 38.1723 82.3598 38.1594C82.3886 38.1466 82.4198 38.1405 82.4511 38.1415C82.5164 38.1415 82.579 38.1685 82.6252 38.2165C82.6714 38.2644 82.6973 38.3295 82.6973 38.3974C82.6983 38.43 82.6924 38.4624 82.6801 38.4923C82.6677 38.5222 82.6492 38.549 82.6258 38.5707C82.6028 38.5944 82.5756 38.6132 82.5456 38.626C82.5156 38.6387 82.4835 38.6452 82.4511 38.645ZM82.4511 38.1498C82.4199 38.1498 82.3891 38.1564 82.3604 38.1691C82.3317 38.1819 82.3058 38.2006 82.2843 38.2241C82.2423 38.2711 82.2196 38.3332 82.2208 38.3974C82.2211 38.4613 82.2442 38.5223 82.2848 38.5702C82.3303 38.6137 82.3893 38.6384 82.4511 38.6384C82.5129 38.6384 82.5724 38.6142 82.6179 38.5707C82.6405 38.5484 82.6585 38.5215 82.6707 38.4917C82.683 38.4619 82.6894 38.4298 82.6894 38.3974C82.6874 38.3324 82.6616 38.2706 82.6174 38.2246C82.5731 38.1786 82.5137 38.1518 82.4511 38.1498ZM82.4511 37.7783C81.7205 37.7783 81.379 37.4399 81.379 36.7136V36.2514C81.3664 36.1018 81.3839 35.9512 81.4304 35.8091C81.4769 35.667 81.5513 35.5365 81.649 35.426C81.8715 35.2357 82.1557 35.1412 82.4432 35.1618C83.1659 35.1618 83.4994 35.5002 83.4994 36.2266V36.6888C83.5209 36.837 83.5087 36.9884 83.4636 37.1308C83.4185 37.2732 83.3419 37.4026 83.2399 37.5086C83.1379 37.6146 83.0134 37.6942 82.8764 37.7411C82.7394 37.7879 82.5937 37.8007 82.4511 37.7783ZM82.4511 35.2031C82.1644 35.1776 81.8794 35.2694 81.6569 35.459C81.559 35.5691 81.4849 35.6997 81.4397 35.8421C81.3945 35.9845 81.3792 36.1353 81.3948 36.2844V36.7466C81.3948 37.4647 81.7284 37.7948 82.4511 37.7948C82.7377 37.8195 83.0224 37.7278 83.2453 37.539C83.3432 37.4289 83.4173 37.2982 83.4625 37.1558C83.5077 37.0134 83.523 36.8626 83.5074 36.7136V36.2514C83.4994 35.5333 83.1659 35.2361 82.4511 35.2361V35.2031ZM82.4511 37.4234C81.9428 37.4234 81.7443 37.2253 81.7443 36.7136V36.2514C81.7443 35.7396 81.9349 35.5415 82.4511 35.5415C82.9673 35.5415 83.1421 35.7396 83.1421 36.2514V36.7136C83.1421 37.2336 82.9594 37.4234 82.4511 37.4234ZM82.4511 35.558C81.9428 35.558 81.7522 35.7396 81.7522 36.2514V36.7136C81.7522 37.2171 81.9508 37.4069 82.4511 37.4069C82.9514 37.4069 83.1341 37.2253 83.1341 36.7136V36.2514C83.1341 35.7396 82.9514 35.558 82.4511 35.558ZM82.9117 34.9555C82.87 34.9619 82.8274 34.953 82.7912 34.9305C82.755 34.9079 82.7274 34.873 82.7132 34.8317L82.602 34.6418C82.602 34.5675 82.5226 34.5345 82.4908 34.5345C82.4908 34.5345 82.4114 34.5345 82.3796 34.6418L82.2684 34.8317C82.2542 34.873 82.2267 34.9079 82.1905 34.9305C82.1543 34.953 82.1117 34.9619 82.0699 34.9555H82.0222C81.9667 34.9555 81.9428 34.9555 81.9349 34.9555C81.9269 34.9555 81.9349 34.906 81.9349 34.8647L82.1175 34.5675C82.2367 34.386 82.3002 34.3199 82.467 34.3199C82.6338 34.3199 82.6894 34.3695 82.8085 34.5675L82.9912 34.8647C82.9912 34.906 83.0388 34.939 82.9912 34.9555C82.9435 34.972 82.9673 34.9555 82.9117 34.9555ZM82.4511 34.5263C82.4511 34.5263 82.5305 34.5263 82.5702 34.6336L82.6814 34.8317C82.6956 34.8708 82.7222 34.9036 82.7569 34.9247C82.7917 34.9457 82.8323 34.9537 82.872 34.9472C82.9276 34.9472 82.9514 34.9472 82.9594 34.9472C82.9673 34.9472 82.9594 34.9472 82.9594 34.8647L82.8244 34.5428C82.7132 34.3447 82.6417 34.2952 82.4908 34.2952C82.3399 34.2952 82.2684 34.3529 82.1493 34.5428L81.9667 34.8399C81.9667 34.8399 81.9667 34.906 81.9667 34.9225C81.9667 34.939 81.9666 34.9225 82.0461 34.9225H82.0302C82.0696 34.9261 82.1091 34.917 82.1432 34.8963C82.1774 34.8756 82.2045 34.8443 82.2208 34.8069L82.332 34.6088C82.3717 34.5593 82.4114 34.5263 82.4511 34.5263Z" fill="#009EDB"/>
<path d="M83.9678 36.2347C83.9678 35.5744 84.3093 35.1947 85.0479 35.1947C85.1909 35.1899 85.3335 35.2123 85.4688 35.2608C85.5879 35.2608 85.6197 35.335 85.6197 35.4506V35.5001C85.6197 35.6239 85.6197 35.6652 85.4688 35.6239C85.337 35.5718 85.1968 35.5466 85.0558 35.5496C84.5158 35.5496 84.3331 35.7725 84.3331 36.243V36.73C84.3331 37.2335 84.5475 37.415 85.0876 37.415C85.2358 37.4199 85.3836 37.3975 85.5244 37.349C85.6356 37.3077 85.6673 37.349 85.6673 37.4728V37.5223C85.6673 37.6296 85.6673 37.6709 85.5085 37.7039C85.365 37.7524 85.2146 37.7747 85.0638 37.77C84.3172 37.77 83.9678 37.4398 83.9678 36.73V36.2347Z" fill="#009EDB"/>
<path d="M85.0639 37.7783C84.7777 37.7988 84.4945 37.7076 84.2697 37.5225C84.168 37.4147 84.091 37.2846 84.0443 37.1417C83.9975 36.9988 83.9823 36.8469 83.9996 36.6971V36.2018C83.99 36.062 84.0083 35.9216 84.0534 35.7895C84.0985 35.6574 84.1694 35.5364 84.2617 35.4342C84.4806 35.2357 84.766 35.1349 85.0559 35.1536C85.2013 35.1528 85.3459 35.1751 85.4848 35.2196C85.6039 35.2196 85.6277 35.3021 85.6277 35.4177V35.4672C85.6277 35.5415 85.6277 35.5828 85.6277 35.5993C85.6094 35.6094 85.5889 35.6147 85.5682 35.6147C85.5474 35.6147 85.5269 35.6094 85.5086 35.5993C85.375 35.5554 85.2357 35.5331 85.0956 35.5333C84.5873 35.5333 84.3729 35.7313 84.3729 36.2183V36.7053C84.3729 37.2006 84.5794 37.3821 85.1274 37.3821C85.2731 37.3884 85.4186 37.3659 85.5563 37.3161C85.5751 37.3077 85.5953 37.3034 85.6158 37.3034C85.6363 37.3034 85.6566 37.3077 85.6754 37.3161C85.6754 37.3161 85.6754 37.3739 85.6754 37.4482V37.4977C85.6754 37.6133 85.6754 37.6545 85.5245 37.6875C85.3761 37.7413 85.2209 37.7719 85.0639 37.7783ZM85.0639 35.2031C84.365 35.2031 83.9917 35.558 83.9917 36.2348V36.7301C83.9917 37.4399 84.3332 37.7618 85.0797 37.7618C85.2299 37.7645 85.3796 37.7451 85.5245 37.7041C85.6436 37.7041 85.6754 37.6298 85.6754 37.5225V37.4729C85.6754 37.4069 85.6754 37.3656 85.6754 37.3491C85.6754 37.3326 85.6198 37.3491 85.5721 37.3491C85.4306 37.3943 85.2833 37.4165 85.1353 37.4152C84.5873 37.4152 84.3411 37.2171 84.3411 36.7218V36.2348C84.3411 35.7396 84.5556 35.5333 85.0718 35.5333C85.2152 35.5317 85.3578 35.5568 85.4927 35.6075C85.5483 35.6075 85.5801 35.6075 85.596 35.6075C85.6118 35.6075 85.596 35.5498 85.596 35.4837V35.4342C85.596 35.3269 85.596 35.2856 85.453 35.2444C85.3192 35.2205 85.1826 35.2177 85.048 35.2361L85.0639 35.2031Z" fill="#009EDB"/>
<path d="M87.2634 37.4482C87.2634 37.3244 87.2634 37.2914 87.4223 37.3161C87.6519 37.3859 87.8898 37.422 88.1291 37.4234C88.5024 37.4234 88.6533 37.3491 88.6533 37.1345C88.6533 36.9199 88.5738 36.8869 88.3435 36.7714L87.7558 36.4825C87.4461 36.3256 87.3031 36.1771 87.3031 35.8304C87.3031 35.4837 87.589 35.2361 88.1609 35.2361C88.3653 35.2349 88.5687 35.2655 88.7644 35.3269C88.8756 35.3269 88.9074 35.4012 88.9074 35.5168V35.5663C88.9074 35.6901 88.9074 35.7148 88.7565 35.6818C88.5613 35.6182 88.3575 35.5876 88.1529 35.591C87.7955 35.591 87.6605 35.6653 87.6605 35.8717C87.6605 36.078 87.7479 36.1193 87.9147 36.2018L88.5341 36.4907C88.8597 36.6558 89.0186 36.8044 89.0186 37.1675C89.0186 37.5307 88.7247 37.8114 88.1053 37.8114C87.8746 37.8143 87.6448 37.7837 87.4223 37.7206C87.2952 37.6793 87.2634 37.638 87.2634 37.5307V37.4482Z" fill="#009EDB"/>
<path d="M88.1053 37.7784C87.8716 37.7791 87.6391 37.7457 87.4143 37.6793C87.2952 37.6793 87.2634 37.605 87.2634 37.4895C87.2634 37.4234 87.2634 37.3822 87.2634 37.3657C87.2634 37.3492 87.327 37.3657 87.3905 37.3657C87.6208 37.4315 87.8585 37.4648 88.0973 37.4647C88.4785 37.4647 88.6215 37.3904 88.6215 37.1841C88.6215 36.9777 88.55 36.9447 88.3118 36.8292L87.7161 36.532C87.4223 36.3834 87.2634 36.2349 87.2634 35.88C87.2634 35.525 87.5414 35.2361 88.1291 35.2361C88.3343 35.2321 88.5386 35.2656 88.7327 35.3352C88.8518 35.3352 88.8836 35.4095 88.8836 35.525V35.5746C88.8982 35.6144 88.8982 35.6585 88.8836 35.6984C88.8429 35.7158 88.7972 35.7158 88.7565 35.6984C88.5649 35.6302 88.3634 35.5967 88.1609 35.5993C87.8114 35.5993 87.6764 35.6819 87.6764 35.88C87.6802 35.9535 87.706 36.0241 87.7501 36.0817C87.7942 36.1394 87.8545 36.1814 87.9226 36.2019L88.5421 36.499C88.8597 36.6476 89.0265 36.8044 89.0265 37.1758C89.0265 37.5473 88.7247 37.7784 88.1053 37.7784ZM87.3111 37.3161H87.2634C87.2634 37.3161 87.2634 37.3739 87.2634 37.4317C87.2634 37.539 87.2634 37.5803 87.4143 37.6133C87.6366 37.6778 87.8666 37.7084 88.0973 37.7041C88.7247 37.7041 89.0027 37.5142 89.0027 37.0685C89.0027 36.6228 88.8359 36.5485 88.5262 36.4L87.9067 36.1028C87.835 36.0837 87.771 36.0415 87.7239 35.9821C87.6768 35.9228 87.6491 35.8494 87.6446 35.7727C87.6446 35.5663 87.7876 35.4838 88.145 35.4838C88.3501 35.4818 88.554 35.5153 88.7486 35.5828C88.8042 35.5828 88.8359 35.5828 88.8597 35.5828C88.8672 35.5645 88.871 35.5449 88.871 35.525C88.871 35.5052 88.8672 35.4855 88.8597 35.4673V35.4177C88.8597 35.3022 88.8597 35.2774 88.7168 35.2361C88.522 35.1708 88.3179 35.1401 88.1132 35.1454C87.5335 35.1454 87.2634 35.3435 87.2634 35.7727C87.2634 36.2019 87.4143 36.2679 87.7082 36.4165L88.2959 36.7136C88.5341 36.8292 88.6136 36.92 88.6136 37.0768C88.6136 37.2336 88.4706 37.3657 88.0814 37.3657C87.8401 37.3652 87.5997 37.3319 87.3667 37.2666L87.3111 37.3161Z" fill="#009EDB"/>
<path d="M89.479 36.7136V36.2514C89.479 35.5498 89.8364 35.1949 90.5432 35.1949C91.25 35.1949 91.5995 35.558 91.5995 36.2514V36.7136C91.5995 37.4234 91.25 37.7701 90.5432 37.7701C89.8364 37.7701 89.479 37.4069 89.479 36.7136ZM91.2342 36.2514C91.2342 35.7644 91.0753 35.5498 90.5432 35.5498C90.0111 35.5498 89.8443 35.7644 89.8443 36.2514V36.7136C89.8443 37.2006 90.0191 37.4152 90.5432 37.4152C91.0674 37.4152 91.2342 37.2006 91.2342 36.7136V36.2514ZM90.2017 34.5345C90.3208 34.353 90.3844 34.2869 90.5432 34.2869C90.7021 34.2869 90.7735 34.3364 90.8847 34.5345L91.0753 34.8317C91.1309 34.9225 91.0753 34.9472 91.0118 34.9472C90.971 34.9542 90.9292 34.9465 90.8931 34.9255C90.857 34.9045 90.8289 34.8714 90.8132 34.8317L90.7021 34.6336C90.6226 34.4933 90.5432 34.4933 90.4717 34.6336L90.3606 34.8317C90.3129 34.9307 90.2653 34.9472 90.162 34.9472C90.0588 34.9472 90.0429 34.9472 90.0985 34.8317L90.2017 34.5345ZM91.4327 34.2374C91.4128 34.2754 91.3827 34.3066 91.346 34.3271C91.3093 34.3476 91.2677 34.3566 91.2262 34.353H91.1786C91.0674 34.353 91.0515 34.353 91.1071 34.2291L91.3056 33.8247C91.3235 33.7739 91.3579 33.7312 91.4029 33.7041C91.4478 33.677 91.5006 33.6671 91.5518 33.6761H91.5995C91.7266 33.6761 91.7504 33.6761 91.6789 33.8164L91.4327 34.2374Z" fill="#009EDB"/>
<path d="M90.5433 37.7782C89.8205 37.7782 89.479 37.4398 89.479 36.7135V36.2512C89.4654 36.1023 89.4817 35.952 89.5268 35.81C89.5719 35.6679 89.6449 35.5371 89.7411 35.4258C89.9652 35.2385 90.2482 35.1444 90.5353 35.1617C91.258 35.1617 91.5995 35.5001 91.5995 36.2265V36.6887C91.6075 37.4233 91.2501 37.7782 90.5433 37.7782ZM90.5433 35.203C90.2567 35.1792 89.9724 35.2708 89.7491 35.4589C89.6511 35.569 89.577 35.6996 89.5318 35.842C89.4866 35.9844 89.4713 36.1352 89.487 36.2843V36.7465C89.487 37.4646 89.8205 37.7947 90.5433 37.7947C90.83 37.8212 91.1153 37.7293 91.3374 37.5389C91.4354 37.4288 91.5095 37.2981 91.5547 37.1557C91.5999 37.0133 91.6152 36.8625 91.5995 36.7135V36.2512C91.5598 35.5331 91.258 35.236 90.5433 35.236V35.203ZM90.5433 37.4233C90.035 37.4233 89.8364 37.2252 89.8364 36.7135V36.2512C89.8364 35.7395 90.027 35.5414 90.5433 35.5414C91.0595 35.5414 91.2421 35.7395 91.2421 36.2512V36.7135C91.2421 37.2335 91.0515 37.4233 90.5433 37.4233ZM90.5433 35.5579C90.035 35.5579 89.8523 35.7395 89.8523 36.2512V36.7135C89.8523 37.217 90.0429 37.4068 90.5433 37.4068C91.0436 37.4068 91.2342 37.2252 91.2342 36.7135V36.2512C91.2342 35.7395 91.0436 35.5579 90.5433 35.5579ZM91.0118 34.9554C90.969 34.9622 90.9252 34.9537 90.8877 34.9312C90.8501 34.9086 90.8211 34.8735 90.8053 34.8316L90.6942 34.6417C90.6227 34.5014 90.5512 34.5014 90.4718 34.6417L90.3685 34.8316C90.3528 34.8735 90.3238 34.9086 90.2862 34.9312C90.2487 34.9537 90.2049 34.9622 90.162 34.9554C90.1065 34.9554 90.0747 34.9554 90.0667 34.9554C90.0588 34.9554 90.0667 34.9058 90.0667 34.8646L90.2494 34.5674C90.3606 34.3858 90.4321 34.3198 90.5909 34.3198C90.7497 34.3198 90.8212 34.3693 90.9404 34.5674L91.123 34.8646C91.123 34.9058 91.123 34.9389 91.123 34.9554C91.123 34.9719 91.0674 34.9554 91.0118 34.9554ZM90.5433 34.5262C90.5433 34.5262 90.6227 34.5262 90.6624 34.6335L90.7736 34.8316C90.7903 34.8704 90.8187 34.9027 90.8544 34.9235C90.8902 34.9443 90.9315 34.9526 90.9721 34.9471C91.0198 34.9471 91.0515 34.9471 91.0595 34.9471C91.0674 34.9471 91.0595 34.9471 91.0595 34.8646L90.8768 34.5674C90.7577 34.3693 90.6942 34.3198 90.5353 34.3198C90.3765 34.3198 90.3129 34.3776 90.2018 34.5674L90.0191 34.8646C90.0191 34.8646 90.0191 34.9306 90.0191 34.9471C90.0191 34.9636 90.0191 34.9471 90.1065 34.9471C90.147 34.9513 90.1877 34.9425 90.2232 34.9218C90.2588 34.9012 90.2873 34.8697 90.305 34.8316L90.4082 34.6335C90.4638 34.5592 90.5035 34.5262 90.5433 34.5262ZM91.2263 34.3611H91.1786C91.1151 34.3611 91.0833 34.3611 91.0754 34.3611C91.0625 34.3266 91.0625 34.2883 91.0754 34.2538L91.2819 33.8493C91.2874 33.8178 91.2991 33.7877 91.3164 33.7611C91.3337 33.7345 91.3562 33.712 91.3823 33.6949C91.4085 33.6778 91.4378 33.6666 91.4683 33.6619C91.4989 33.6572 91.53 33.6592 91.5598 33.6678H91.6075C91.6789 33.6678 91.7187 33.6678 91.7266 33.6678C91.7345 33.6678 91.7266 33.7255 91.7266 33.7916L91.4883 34.2043C91.4677 34.257 91.4307 34.301 91.3832 34.3294C91.3357 34.3578 91.2805 34.369 91.2263 34.3611ZM91.5519 33.676C91.5018 33.669 91.451 33.6799 91.4077 33.7069C91.3644 33.7339 91.3312 33.7754 91.3136 33.8246L91.1071 34.229C91.1071 34.2868 91.1071 34.3116 91.1071 34.3281C91.1071 34.3446 91.1071 34.3281 91.2024 34.3281H91.2501C91.2921 34.329 91.3335 34.3179 91.3699 34.2961C91.4063 34.2743 91.4363 34.2425 91.4566 34.2043L91.6948 33.7916C91.6948 33.7338 91.7425 33.7008 91.6948 33.6843C91.6472 33.6678 91.6472 33.6843 91.5836 33.6843L91.5519 33.676Z" fill="#009EDB"/>
<path d="M92.473 37.5637C92.473 37.6958 92.473 37.7205 92.3221 37.7205H92.2665C92.1474 37.7205 92.1077 37.7205 92.1077 37.5637V36.1358C92.1077 35.5085 92.4492 35.1948 93.1242 35.1948C93.7993 35.1948 94.1249 35.525 94.1249 36.1358V37.5637C94.1249 37.6958 94.1249 37.7205 93.974 37.7205H93.9422C93.8072 37.7205 93.7834 37.7205 93.7834 37.5637V36.1358C93.7834 35.7313 93.6325 35.5497 93.1481 35.5497C92.6636 35.5497 92.4968 35.7396 92.4968 36.1358L92.473 37.5637Z" fill="#009EDB"/>
<path d="M93.9423 37.7123C93.8073 37.7123 93.7755 37.7123 93.7755 37.5472V36.1358C93.7755 35.7148 93.6087 35.558 93.1481 35.558C92.6875 35.558 92.5048 35.7148 92.5048 36.1358V37.5637C92.5048 37.6958 92.5048 37.7288 92.346 37.7288H92.2904C92.1712 37.7288 92.1315 37.7288 92.1315 37.5637V36.1358C92.1315 35.5085 92.473 35.1866 93.1481 35.1866C93.2896 35.1714 93.4327 35.1855 93.569 35.228C93.7052 35.2705 93.8321 35.3406 93.9423 35.4342C94.027 35.5273 94.092 35.6379 94.133 35.7587C94.174 35.8796 94.1902 36.008 94.1805 36.1358V37.5637C94.1329 37.7123 94.1091 37.7123 93.9423 37.7123ZM93.1481 35.5415C93.6167 35.5415 93.7914 35.7066 93.7914 36.1358V37.5637C93.7914 37.6958 93.7914 37.7123 93.9423 37.7123C94.0693 37.7123 94.0932 37.7123 94.0932 37.5637V36.1358C94.1033 36.0092 94.0872 35.8819 94.0461 35.7623C94.005 35.6428 93.9398 35.5337 93.8549 35.4424C93.6506 35.288 93.3999 35.2148 93.1481 35.2361C92.8645 35.2027 92.5796 35.2856 92.3539 35.4672C92.2655 35.5583 92.197 35.6681 92.1532 35.7892C92.1093 35.9102 92.0911 36.0397 92.0998 36.1688V37.5967C92.0998 37.7288 92.0998 37.7453 92.2507 37.7453H92.3539C92.481 37.7453 92.5048 37.7453 92.5048 37.5967V36.1358C92.473 35.7066 92.6557 35.5415 93.1481 35.5415Z" fill="#009EDB"/>
<path d="M96.6343 36.1277C96.6343 36.7054 96.3087 37.0026 95.6336 37.0026C95.4647 36.9833 95.2943 36.9833 95.1253 37.0026C95.0903 37.0086 95.0587 37.0281 95.0366 37.0571C95.0146 37.0861 95.0038 37.1225 95.0062 37.1594C95.0062 37.2254 95.0062 37.275 95.1333 37.2997C95.2998 37.3131 95.4671 37.3131 95.6336 37.2997C95.9069 37.2799 96.1805 37.334 96.4278 37.4565C96.5103 37.5154 96.576 37.5963 96.6179 37.6907C96.6599 37.7852 96.6765 37.8896 96.6661 37.993C96.677 38.1049 96.6609 38.2178 96.6193 38.3215C96.5777 38.4253 96.5119 38.5166 96.4278 38.5873C96.1838 38.721 95.9087 38.7811 95.6336 38.7607C95.3587 38.7785 95.0842 38.7186 94.8394 38.5873C94.7614 38.5265 94.6994 38.4462 94.6591 38.3539C94.6188 38.2616 94.6017 38.1602 94.6091 38.0591C94.6037 37.9518 94.6267 37.8449 94.6757 37.7503C94.7248 37.6557 94.7979 37.5769 94.8871 37.5226C94.8246 37.4965 94.7717 37.4505 94.736 37.3911C94.7003 37.3318 94.6837 37.2622 94.6885 37.1924C94.6885 36.9696 94.8156 36.8375 95.0777 36.7962C94.9439 36.7367 94.8321 36.6339 94.7591 36.503C94.6861 36.3721 94.6558 36.2201 94.6727 36.0699V36.0616C94.6727 35.5169 95.0459 35.2362 95.6733 35.2362C95.845 35.2324 96.0154 35.2661 96.1737 35.3353L96.4516 35.0794C96.5311 35.0051 96.5708 35.0051 96.6502 35.0794C96.7296 35.1537 96.7296 35.1949 96.6502 35.2775L96.4358 35.5086C96.5055 35.5823 96.5598 35.6703 96.5954 35.7668C96.6309 35.8634 96.6469 35.9666 96.6422 36.0699L96.6343 36.1277ZM95.1651 37.6629C95.0924 37.7011 95.0319 37.7605 94.991 37.8337C94.9501 37.907 94.9306 37.991 94.9347 38.0756C94.9347 38.4057 95.1174 38.4883 95.6336 38.4883C96.1498 38.4883 96.3325 38.4057 96.3325 38.0673C96.3325 37.7289 96.1578 37.6959 95.6336 37.6959C95.4769 37.6969 95.3203 37.6859 95.1651 37.6629ZM96.269 36.0616C96.269 35.7067 96.0545 35.5334 95.6336 35.5334C95.2127 35.5334 94.9903 35.7067 94.9903 36.0616V36.1277C94.9903 36.4826 95.1492 36.6642 95.6336 36.6642C96.1181 36.6642 96.269 36.4826 96.269 36.1277V36.0616Z" fill="#009EDB"/>
<path d="M95.6337 38.8183C95.3594 38.8399 95.0847 38.7828 94.8395 38.6532C94.7619 38.5901 94.7004 38.5082 94.6602 38.4147C94.6201 38.3212 94.6026 38.2189 94.6092 38.1167C94.603 38.0111 94.624 37.9058 94.6701 37.8114C94.7162 37.7171 94.7856 37.6373 94.8713 37.5802C94.811 37.5518 94.7605 37.505 94.7264 37.446C94.6924 37.3871 94.6764 37.3187 94.6807 37.25C94.6807 37.0299 94.8078 36.8979 95.0619 36.8539C94.9303 36.792 94.821 36.6883 94.7497 36.5578C94.6783 36.4273 94.6486 36.2767 94.6648 36.1275V36.0615C94.6615 35.9401 94.684 35.8195 94.7307 35.7082C94.7773 35.5969 94.847 35.4977 94.9348 35.4177C95.1481 35.2547 95.409 35.1731 95.6734 35.1866C95.845 35.1827 96.0155 35.2165 96.1738 35.2856L96.4517 35.038C96.5312 34.9554 96.5709 34.9554 96.6503 35.038C96.6979 35.0792 96.7138 35.104 96.7138 35.137C96.7138 35.17 96.7138 35.1948 96.6503 35.2443L96.4358 35.4672C96.5082 35.5393 96.5649 35.6267 96.6019 35.7236C96.6388 35.8204 96.6554 35.9244 96.6503 36.0285V36.0945C96.6503 36.6723 96.3088 36.9694 95.6417 36.9694C95.4728 36.9493 95.3023 36.9493 95.1334 36.9694C95.1012 36.977 95.0725 36.996 95.0523 37.0231C95.032 37.0501 95.0214 37.0837 95.0222 37.118C95.0222 37.184 95.0619 37.2253 95.1413 37.25C95.3078 37.265 95.4752 37.265 95.6417 37.25C95.9282 37.2229 96.2164 37.2771 96.4756 37.4069C96.5579 37.4655 96.623 37.5466 96.6636 37.6413C96.7043 37.736 96.7189 37.8406 96.7059 37.9434C96.7197 38.0566 96.705 38.1717 96.6632 38.2773C96.6215 38.3829 96.5541 38.4755 96.4676 38.5459C96.2196 38.716 95.9307 38.8103 95.6337 38.8183ZM95.6337 35.2031C95.0143 35.2031 94.641 35.525 94.641 36.0285V36.0945C94.6248 36.2436 94.6545 36.3943 94.7258 36.5248C94.7972 36.6553 94.9065 36.759 95.0381 36.8208C94.776 36.8621 94.6489 36.9859 94.6489 37.2088C94.6475 37.2779 94.6655 37.346 94.7007 37.4047C94.736 37.4633 94.787 37.51 94.8475 37.5389C94.7604 37.593 94.6892 37.6708 94.6416 37.7639C94.594 37.857 94.5718 37.9619 94.5775 38.0672C94.5712 38.1673 94.5881 38.2675 94.6268 38.3594C94.6655 38.4514 94.7248 38.5323 94.7998 38.5954C95.0464 38.7209 95.32 38.7777 95.594 38.7605C95.8683 38.7817 96.1429 38.7247 96.3882 38.5954C96.4723 38.5247 96.5381 38.4334 96.5797 38.3296C96.6213 38.2259 96.6373 38.113 96.6265 38.0012C96.638 37.8997 96.6226 37.7968 96.582 37.7037C96.5414 37.6106 96.4772 37.5308 96.3961 37.4729C96.1489 37.3503 95.8753 37.2963 95.6019 37.3161C95.433 37.3349 95.2626 37.3349 95.0937 37.3161C95.0613 37.3104 95.0319 37.2934 95.0102 37.2679C94.9885 37.2423 94.9759 37.2098 94.9745 37.1758C94.9721 37.1389 94.9829 37.1024 95.005 37.0734C95.027 37.0444 95.0586 37.025 95.0937 37.0189C95.2625 36.9983 95.4331 36.9983 95.6019 37.0189C95.8828 37.0481 96.1645 36.972 96.3961 36.8043C96.4807 36.7211 96.5465 36.6195 96.5891 36.5068C96.6316 36.3941 96.6498 36.2731 96.6423 36.1523V36.0615C96.6479 35.9586 96.6315 35.8557 96.5945 35.7601C96.5574 35.6645 96.5005 35.5786 96.4279 35.5085L96.6423 35.2773C96.69 35.2773 96.7059 35.2031 96.7059 35.1783C96.7033 35.16 96.697 35.1424 96.6874 35.1267C96.6778 35.1111 96.6652 35.0977 96.6503 35.0875H96.6106C96.5391 35.0132 96.4994 35.0132 96.42 35.0875L96.142 35.3434C95.9819 35.2703 95.8086 35.2337 95.6337 35.2361V35.2031ZM95.6337 38.5046C95.0937 38.5046 94.9348 38.4056 94.9348 38.0837C94.9262 37.9984 94.9438 37.9125 94.9852 37.8383C95.0266 37.7641 95.0896 37.7055 95.1651 37.671C95.3212 37.6812 95.4777 37.6812 95.6337 37.671C96.1579 37.671 96.3405 37.7288 96.3405 38.0507C96.3405 38.3726 96.1658 38.5377 95.6337 38.5377V38.5046ZM95.1651 37.6793C95.0932 37.7156 95.0335 37.7736 94.9938 37.8458C94.9541 37.9179 94.9363 38.0008 94.9428 38.0837C94.9428 38.3973 95.1016 38.4964 95.6337 38.4964C96.1658 38.4964 96.3247 38.3973 96.3247 38.0754C96.3247 37.7535 96.1579 37.704 95.6337 37.704C95.4778 37.717 95.3214 37.7198 95.1651 37.7123V37.6793ZM95.6337 36.6805C95.1731 36.6805 94.9904 36.5237 94.9904 36.1358V36.0615C94.9904 35.6983 95.1969 35.525 95.6337 35.525C96.0705 35.525 96.277 35.7066 96.277 36.0615V36.1275C96.277 36.5154 96.0943 36.6723 95.6337 36.6723V36.6805ZM95.6337 35.5415C95.2049 35.5415 94.9984 35.7148 94.9984 36.0697V36.1358C94.9984 36.5154 95.181 36.6723 95.6337 36.6723C96.0864 36.6723 96.2691 36.5154 96.2691 36.1358V36.0615C96.2691 35.7148 96.0546 35.5332 95.6337 35.5332V35.5415Z" fill="#009EDB"/>
<path d="M100.907 34.8234C100.907 34.9307 100.907 34.9637 100.772 34.9637H100.486V36.7218C100.486 37.4234 100.129 37.7701 99.4217 37.7701C98.7149 37.7701 98.3654 37.4234 98.3654 36.7218V36.2513C98.3511 36.1122 98.3673 35.9714 98.4128 35.8398C98.4584 35.7081 98.5321 35.5888 98.6285 35.4911C98.7249 35.3933 98.8413 35.3196 98.9691 35.2754C99.0969 35.2312 99.2326 35.2178 99.3661 35.2361C99.5181 35.21 99.6741 35.2305 99.8151 35.295C99.9562 35.3595 100.076 35.4652 100.16 35.5993V35.005H99.5011C99.3899 35.005 99.3661 35.005 99.3661 34.8647C99.3661 34.7574 99.3661 34.7243 99.5011 34.7243H100.16V34.4107C100.16 34.2704 100.16 34.2456 100.311 34.2456H100.295C100.414 34.2456 100.454 34.2456 100.454 34.4107V34.6831H100.74C100.843 34.6831 100.875 34.6831 100.875 34.8234H100.907ZM98.7069 36.7135C98.7069 37.2005 98.8658 37.4151 99.3979 37.4151C99.93 37.4151 100.097 37.2005 100.097 36.7135V36.2513C100.097 35.7643 99.93 35.5497 99.3979 35.5497C98.8658 35.5497 98.7069 35.7643 98.7069 36.2513V36.7135Z" fill="#009EDB"/>
<path d="M99.4216 37.7783C99.134 37.7998 98.8496 37.7051 98.6274 37.5141C98.5295 37.404 98.4554 37.2734 98.4102 37.131C98.365 36.9886 98.3497 36.8378 98.3653 36.6887V36.2183C98.3506 36.0699 98.3656 35.92 98.4094 35.7779C98.4531 35.6359 98.5246 35.5048 98.6195 35.3929C98.7251 35.2906 98.8508 35.2133 98.9879 35.1663C99.125 35.1193 99.2702 35.1037 99.4137 35.1205C99.5574 35.1034 99.7029 35.1274 99.8345 35.1899C99.966 35.2525 100.079 35.3512 100.16 35.4754V34.9059H99.501C99.3898 34.9059 99.3581 34.9059 99.3581 34.7573C99.3581 34.6417 99.3581 34.6087 99.501 34.6087H100.152V34.4106C100.152 34.2703 100.152 34.2373 100.311 34.2373H100.295C100.414 34.2373 100.454 34.2373 100.454 34.4106V34.6748H100.74C100.843 34.6748 100.883 34.6748 100.883 34.8233C100.883 34.9306 100.883 34.9719 100.74 34.9719H100.454V36.7217C100.486 37.4233 100.128 37.7783 99.4216 37.7783ZM99.366 35.236C99.2314 35.2246 99.096 35.2413 98.9678 35.2853C98.8395 35.3292 98.7211 35.3995 98.6195 35.4919C98.5272 35.6053 98.4579 35.7368 98.4156 35.8786C98.3733 36.0204 98.3589 36.1696 98.3733 36.3173V36.7878C98.355 36.9363 98.3682 37.0872 98.4121 37.2298C98.4561 37.3724 98.5295 37.5033 98.6274 37.6132C98.8495 37.8036 99.1348 37.8955 99.4216 37.869C99.7081 37.8929 99.9925 37.8012 100.216 37.6132C100.314 37.5034 100.389 37.3728 100.434 37.2303C100.479 37.0878 100.494 36.9369 100.478 36.7878V34.9554H100.772C100.867 34.9554 100.907 34.9554 100.907 34.8233C100.907 34.7243 100.907 34.6913 100.772 34.6913H100.478V34.4106C100.478 34.2703 100.478 34.2538 100.327 34.2538H100.295C100.168 34.2538 100.152 34.2538 100.152 34.4106V34.6913H99.501C99.3898 34.6913 99.3739 34.6913 99.3739 34.8233C99.3739 34.9224 99.374 34.9554 99.501 34.9554H100.168V35.5827C100.081 35.4502 99.9592 35.3468 99.8167 35.2853C99.6743 35.2237 99.5177 35.2066 99.366 35.236ZM99.4216 37.4564C98.9133 37.4564 98.7227 37.2665 98.7227 36.7465V36.2843C98.7227 35.7725 98.9213 35.5744 99.4216 35.5744C99.9219 35.5744 100.128 35.7725 100.128 36.2843V36.7465C100.128 37.2252 99.9299 37.4233 99.4216 37.4233V37.4564ZM99.4216 35.591C98.9292 35.591 98.7307 35.7808 98.7307 36.2843V36.7465C98.7307 37.2583 98.9213 37.4398 99.4216 37.4398C99.9219 37.4398 100.113 37.2583 100.113 36.7465V36.2843C100.113 35.7395 99.9299 35.5579 99.4216 35.5579V35.591Z" fill="#009EDB"/>
<path d="M100.97 36.7136V36.2513C100.97 35.5497 101.32 35.1948 102.034 35.1948C102.567 35.1948 102.876 35.3847 103.011 35.7396C103.083 35.7396 103.154 35.6075 103.154 35.3434C103.154 35.2691 103.154 35.2443 103.265 35.2443H103.345C103.432 35.2443 103.448 35.2443 103.448 35.3434C103.448 35.7478 103.297 35.9459 103.067 36.012C103.075 36.0915 103.075 36.1718 103.067 36.2513V36.7136C103.067 37.4234 102.717 37.7701 102.019 37.7701C101.32 37.7701 100.97 37.4069 100.97 36.7136ZM102.725 36.2513C102.725 35.7643 102.559 35.5497 102.034 35.5497C101.51 35.5497 101.328 35.7643 101.328 36.2513V36.7136C101.328 37.2005 101.51 37.4151 102.034 37.4151C102.559 37.4151 102.725 37.2005 102.725 36.7136V36.2513Z" fill="#009EDB"/>
<path d="M102.034 37.7782C101.304 37.7782 100.962 37.4398 100.962 36.7135V36.2512C100.95 36.1017 100.967 35.9511 101.014 35.809C101.06 35.6669 101.135 35.5364 101.232 35.4259C101.455 35.2356 101.739 35.1411 102.026 35.1617C102.551 35.1617 102.821 35.3351 103.003 35.7065C103.099 35.6652 103.138 35.5332 103.138 35.3185C103.138 35.236 103.138 35.2113 103.257 35.2113H103.337C103.424 35.2113 103.448 35.2112 103.448 35.3185C103.448 35.6817 103.321 35.9128 103.067 35.9954C103.071 36.0723 103.071 36.1495 103.067 36.2265V36.6887C103.088 36.8354 103.076 36.9851 103.031 37.126C102.987 37.267 102.912 37.3953 102.812 37.5009C102.712 37.6066 102.589 37.6866 102.455 37.7347C102.32 37.7828 102.176 37.7977 102.034 37.7782ZM102.034 35.203C101.748 35.1775 101.463 35.2693 101.24 35.4589C101.142 35.569 101.068 35.6996 101.023 35.842C100.978 35.9844 100.962 36.1352 100.978 36.2843V36.7465C100.978 37.4646 101.312 37.7947 102.034 37.7947C102.321 37.8194 102.606 37.7277 102.829 37.5389C102.926 37.4288 103.001 37.2981 103.046 37.1557C103.091 37.0133 103.106 36.8625 103.091 36.7135V36.2512C103.095 36.1715 103.095 36.0916 103.091 36.0119C103.345 35.9293 103.472 35.7065 103.472 35.3433C103.472 35.269 103.472 35.2525 103.369 35.2525H103.289C103.21 35.2525 103.186 35.2525 103.186 35.3433C103.186 35.5662 103.138 35.6982 103.035 35.7478C102.86 35.3763 102.559 35.236 102.034 35.236V35.203ZM102.034 37.4233C101.526 37.4233 101.328 37.2252 101.328 36.7135V36.2512C101.328 35.7395 101.518 35.5414 102.034 35.5414C102.551 35.5414 102.725 35.7395 102.725 36.2512V36.7135C102.725 37.2335 102.543 37.4233 102.034 37.4233ZM102.034 35.5579C101.526 35.5579 101.335 35.7395 101.335 36.2512V36.7135C101.335 37.217 101.534 37.4068 102.034 37.4068C102.535 37.4068 102.717 37.2252 102.717 36.7135V36.2512C102.717 35.7395 102.535 35.5579 102.034 35.5579Z" fill="#009EDB"/>
<path d="M103.964 37.5637C103.964 37.6958 103.964 37.7205 103.805 37.7205H103.75C103.63 37.7205 103.599 37.7205 103.599 37.5637V36.1358C103.599 35.5085 103.94 35.1948 104.607 35.1948C105.274 35.1948 105.616 35.525 105.616 36.1358V37.5637C105.616 37.6958 105.616 37.7205 105.457 37.7205H105.401C105.266 37.7205 105.243 37.7205 105.243 37.5637V36.1358C105.243 35.7313 105.1 35.5497 104.607 35.5497C104.115 35.5497 103.964 35.7396 103.964 36.1358V37.5637Z" fill="#009EDB"/>
<path d="M105.457 37.7123H105.402C105.267 37.7123 105.243 37.7123 105.243 37.5472V36.1358C105.243 35.7148 105.068 35.558 104.607 35.558C104.147 35.558 103.964 35.7148 103.964 36.1358V37.5637C103.964 37.6958 103.964 37.7288 103.805 37.7288H103.75C103.631 37.7288 103.591 37.7288 103.591 37.5637V36.1358C103.591 35.5085 103.932 35.1866 104.607 35.1866C104.749 35.1714 104.892 35.1855 105.028 35.228C105.165 35.2705 105.291 35.3406 105.402 35.4342C105.488 35.5264 105.553 35.6368 105.595 35.7579C105.636 35.879 105.651 36.0079 105.64 36.1358V37.5637C105.616 37.7123 105.592 37.7123 105.457 37.7123ZM104.607 35.525C105.076 35.525 105.251 35.69 105.251 36.1193V37.5472C105.251 37.6793 105.251 37.6958 105.402 37.6958H105.457C105.584 37.6958 105.608 37.6958 105.608 37.5472V36.1358C105.618 36.0099 105.602 35.8834 105.563 35.7641C105.523 35.6448 105.46 35.5353 105.378 35.4424C105.267 35.3503 105.14 35.2817 105.004 35.2406C104.867 35.1996 104.725 35.1868 104.584 35.2031C104.3 35.1697 104.015 35.2526 103.789 35.4342C103.701 35.5253 103.633 35.6351 103.589 35.7561C103.545 35.8772 103.527 36.0067 103.535 36.1358V37.5637C103.535 37.6958 103.535 37.7123 103.686 37.7123H103.742C103.869 37.7123 103.893 37.7123 103.893 37.5637V36.1358C103.956 35.7066 104.139 35.5415 104.607 35.5415V35.525Z" fill="#009EDB"/>
<path d="M109.412 36.1277C109.412 36.7054 109.086 37.0026 108.419 37.0026C108.248 36.9831 108.075 36.9831 107.903 37.0026C107.868 37.0086 107.836 37.0281 107.814 37.0571C107.792 37.0861 107.781 37.1225 107.784 37.1594C107.784 37.2254 107.784 37.275 107.911 37.2997C108.08 37.3133 108.25 37.3133 108.419 37.2997C108.692 37.2799 108.966 37.334 109.213 37.4565C109.294 37.517 109.357 37.5984 109.398 37.6926C109.438 37.7868 109.454 37.8905 109.444 37.993C109.455 38.1049 109.438 38.2178 109.397 38.3215C109.355 38.4253 109.289 38.5166 109.205 38.5873C108.962 38.7219 108.686 38.782 108.411 38.7607C108.12 38.7869 107.829 38.7268 107.569 38.5873C107.494 38.5246 107.434 38.4438 107.395 38.3518C107.357 38.2597 107.34 38.1593 107.347 38.0591C107.341 37.9526 107.363 37.8463 107.41 37.7518C107.458 37.6572 107.529 37.578 107.617 37.5226C107.555 37.4965 107.502 37.4505 107.466 37.3911C107.43 37.3318 107.414 37.2622 107.418 37.1924C107.418 36.9696 107.546 36.8375 107.808 36.7962C107.674 36.7367 107.562 36.6339 107.489 36.503C107.416 36.3721 107.386 36.2201 107.403 36.0699V36.0616C107.403 35.5169 107.776 35.2362 108.411 35.2362C108.58 35.233 108.748 35.2668 108.904 35.3353L109.182 35.0794C109.261 35.0051 109.301 35.0051 109.38 35.0794C109.46 35.1537 109.46 35.1949 109.38 35.2775L109.166 35.5086C109.235 35.5823 109.29 35.6703 109.325 35.7668C109.361 35.8634 109.377 35.9666 109.372 36.0699L109.412 36.1277ZM107.943 37.6629C107.87 37.7011 107.809 37.7605 107.769 37.8337C107.728 37.907 107.708 37.991 107.712 38.0756C107.712 38.4057 107.895 38.4883 108.419 38.4883C108.943 38.4883 109.11 38.4057 109.11 38.0673C109.11 37.7289 108.935 37.6959 108.419 37.6959C108.26 37.6973 108.1 37.6863 107.943 37.6629ZM109.031 36.0616C109.031 35.7067 108.824 35.5334 108.403 35.5334C107.982 35.5334 107.76 35.7067 107.76 36.0616V36.1277C107.76 36.4826 107.911 36.6642 108.403 36.6642C108.896 36.6642 109.031 36.4826 109.031 36.1277V36.0616Z" fill="#009EDB"/>
<path d="M108.419 38.8183C108.129 38.8475 107.837 38.7903 107.577 38.6532C107.5 38.5901 107.438 38.5082 107.398 38.4147C107.358 38.3212 107.34 38.2189 107.347 38.1167C107.341 38.0102 107.363 37.904 107.41 37.8094C107.458 37.7149 107.529 37.6356 107.617 37.5802C107.555 37.5541 107.502 37.5081 107.466 37.4488C107.43 37.3894 107.414 37.3198 107.419 37.25C107.419 37.0299 107.546 36.8979 107.8 36.8539C107.668 36.792 107.559 36.6883 107.488 36.5578C107.416 36.4273 107.386 36.2767 107.403 36.1275V36.0615C107.399 35.9401 107.422 35.8195 107.469 35.7082C107.515 35.5969 107.585 35.4977 107.673 35.4177C107.888 35.2535 108.152 35.1718 108.419 35.1866C108.588 35.1834 108.756 35.2171 108.912 35.2856L109.19 35.038C109.269 34.9554 109.309 34.9554 109.388 35.038C109.436 35.0792 109.452 35.104 109.452 35.137C109.452 35.17 109.452 35.1948 109.388 35.2443L109.182 35.4672C109.251 35.5409 109.306 35.6288 109.341 35.7254C109.377 35.822 109.393 35.9252 109.388 36.0285V36.0945C109.388 36.6723 109.047 36.9694 108.387 36.9694C108.216 36.9489 108.043 36.9489 107.871 36.9694C107.839 36.977 107.81 36.996 107.79 37.0231C107.77 37.0501 107.759 37.0837 107.76 37.118C107.76 37.184 107.76 37.2253 107.879 37.25C108.048 37.2652 108.218 37.2652 108.387 37.25C108.661 37.2303 108.934 37.2843 109.182 37.4069C109.265 37.4651 109.331 37.5459 109.373 37.6405C109.415 37.7351 109.431 37.8399 109.42 37.9434C109.432 38.0573 109.416 38.1726 109.373 38.2781C109.33 38.3836 109.261 38.4758 109.174 38.5459C108.949 38.702 108.689 38.7958 108.419 38.8183ZM108.419 35.2031C107.792 35.2031 107.419 35.525 107.419 36.0285V36.0945C107.402 36.2436 107.432 36.3943 107.503 36.5248C107.575 36.6553 107.684 36.759 107.816 36.8208C107.554 36.8621 107.434 36.9859 107.434 37.2088C107.431 37.2772 107.448 37.3451 107.482 37.4039C107.516 37.4626 107.565 37.5096 107.625 37.5389C107.538 37.593 107.467 37.6708 107.419 37.7639C107.372 37.857 107.349 37.9619 107.355 38.0672C107.348 38.1682 107.366 38.2693 107.406 38.3615C107.446 38.4537 107.508 38.5341 107.585 38.5954C108.116 38.8159 108.707 38.8159 109.237 38.5954C109.32 38.5243 109.385 38.4327 109.425 38.3288C109.466 38.225 109.48 38.1123 109.468 38.0012C109.479 37.8997 109.464 37.7968 109.423 37.7037C109.383 37.6106 109.318 37.5308 109.237 37.4729C108.991 37.3473 108.717 37.2931 108.443 37.3161C108.274 37.3357 108.104 37.3357 107.935 37.3161C107.847 37.3161 107.808 37.2418 107.808 37.1758C107.805 37.1389 107.816 37.1024 107.838 37.0734C107.86 37.0444 107.892 37.025 107.927 37.0189C108.098 36.998 108.272 36.998 108.443 37.0189C108.708 37.0371 108.971 36.9615 109.19 36.8043C109.274 36.7211 109.34 36.6195 109.383 36.5068C109.425 36.3941 109.443 36.2731 109.436 36.1523V36.0615C109.441 35.9586 109.425 35.8557 109.388 35.7601C109.351 35.6645 109.294 35.5786 109.221 35.5085L109.444 35.2773C109.474 35.2528 109.493 35.2174 109.499 35.1783C109.497 35.16 109.49 35.1424 109.481 35.1267C109.471 35.1111 109.459 35.0977 109.444 35.0875C109.364 35.005 109.333 35.0132 109.245 35.0875L108.967 35.3434C108.795 35.2637 108.607 35.2269 108.419 35.2361V35.2031ZM108.419 38.5046C107.871 38.5046 107.712 38.4056 107.712 38.0837C107.704 37.9984 107.721 37.9125 107.763 37.8383C107.804 37.7641 107.867 37.7055 107.943 37.671C108.101 37.6814 108.261 37.6814 108.419 37.671C108.935 37.671 109.118 37.7288 109.118 38.0507C109.118 38.3726 108.88 38.5377 108.419 38.5377V38.5046ZM107.943 37.6793C107.871 37.7156 107.811 37.7736 107.771 37.8458C107.732 37.9179 107.714 38.0008 107.72 38.0837C107.72 38.3973 107.879 38.4964 108.419 38.4964C108.959 38.4964 109.102 38.3973 109.102 38.0754C109.102 37.7535 108.935 37.704 108.419 37.704C108.261 37.7172 108.102 37.72 107.943 37.7123V37.6793ZM108.419 36.6805C107.959 36.6805 107.768 36.5237 107.768 36.1358V36.0615C107.768 35.6983 107.982 35.525 108.419 35.525C108.856 35.525 109.055 35.7066 109.055 36.0615V36.1275C109.031 36.5154 108.872 36.6723 108.419 36.6723V36.6805ZM108.419 35.5415C107.982 35.5415 107.776 35.7148 107.776 36.0697V36.1358C107.776 36.5154 107.959 36.6723 108.419 36.6723C108.88 36.6723 109.047 36.5154 109.047 36.1358V36.0615C109.031 35.7148 108.832 35.5332 108.419 35.5332V35.5415Z" fill="#009EDB"/>
<path d="M110.381 34.4686C110.382 34.5007 110.376 34.5327 110.365 34.5627C110.354 34.5927 110.337 34.6201 110.316 34.6432C110.294 34.6663 110.269 34.6847 110.24 34.6972C110.212 34.7097 110.181 34.7162 110.15 34.7162C110.118 34.7173 110.086 34.7117 110.057 34.6998C110.027 34.6878 110 34.6697 109.977 34.6466C109.954 34.6235 109.935 34.5959 109.923 34.5653C109.91 34.5347 109.904 34.5018 109.904 34.4686C109.906 34.4021 109.933 34.3392 109.979 34.293C110.025 34.2467 110.086 34.2209 110.15 34.2209C110.212 34.2231 110.271 34.2501 110.314 34.2963C110.357 34.3425 110.381 34.4043 110.381 34.4686ZM109.968 35.4013C109.968 35.2775 109.968 35.2444 110.118 35.2444H110.174C110.293 35.2444 110.325 35.2444 110.325 35.4013V37.5638C110.325 37.6959 110.325 37.7206 110.174 37.7206H110.118C109.983 37.7206 109.968 37.7206 109.968 37.5638V35.4013Z" fill="#009EDB"/>
<path d="M110.174 37.7123H110.119C109.984 37.7123 109.96 37.7123 109.96 37.5472V35.4012C109.96 35.2774 109.96 35.2361 110.119 35.2361H110.174C110.293 35.2361 110.333 35.2361 110.333 35.4012V37.5637C110.333 37.7123 110.293 37.7123 110.174 37.7123ZM110.119 35.2361C109.992 35.2361 109.968 35.2361 109.968 35.3847V37.5472C109.968 37.6793 109.968 37.6958 110.119 37.6958H110.174C110.285 37.6958 110.317 37.6958 110.317 37.5472V35.4012C110.317 35.2856 110.317 35.2526 110.174 35.2526L110.119 35.2361ZM110.119 34.6996C110.055 34.6996 109.995 34.6735 109.95 34.6271C109.905 34.5806 109.88 34.5176 109.88 34.452C109.88 34.3863 109.905 34.3233 109.95 34.2769C109.995 34.2304 110.055 34.2043 110.119 34.2043C110.182 34.2043 110.242 34.2304 110.287 34.2769C110.332 34.3233 110.357 34.3863 110.357 34.452C110.357 34.5176 110.332 34.5806 110.287 34.6271C110.242 34.6735 110.182 34.6996 110.119 34.6996ZM110.119 34.2126C110.088 34.2126 110.058 34.2188 110.03 34.2308C110.003 34.2428 109.977 34.2605 109.956 34.2827C109.934 34.3049 109.917 34.3313 109.906 34.3604C109.894 34.3894 109.888 34.4205 109.888 34.452C109.888 34.4834 109.894 34.5145 109.906 34.5436C109.917 34.5726 109.934 34.599 109.956 34.6212C109.977 34.6434 110.003 34.6611 110.03 34.6731C110.058 34.6851 110.088 34.6913 110.119 34.6913C110.18 34.6913 110.238 34.6661 110.281 34.6212C110.325 34.5763 110.349 34.5154 110.349 34.452C110.349 34.3885 110.325 34.3276 110.281 34.2827C110.238 34.2378 110.18 34.2126 110.119 34.2126Z" fill="#009EDB"/>
<path d="M112.763 36.9776C112.763 37.5389 112.453 37.803 111.754 37.803C111.199 37.803 110.849 37.5719 110.849 37.0519C110.849 36.5319 111.175 36.3173 111.834 36.3173H112.406V35.9789C112.406 35.6405 112.175 35.5249 111.77 35.5249C111.592 35.5238 111.413 35.5431 111.238 35.5827C111.119 35.5827 111.079 35.5827 111.079 35.4589V35.4176C111.079 35.3021 111.079 35.269 111.23 35.2443C111.403 35.2099 111.579 35.1933 111.754 35.1948C112.43 35.1948 112.763 35.4589 112.763 35.9789V36.9776ZM112.406 36.5814H111.834C111.405 36.5814 111.207 36.7052 111.207 37.0189C111.207 37.3325 111.389 37.4481 111.754 37.4481C112.12 37.4481 112.406 37.3408 112.406 36.9611V36.5814ZM111.834 34.9306C111.747 34.9306 111.739 34.9306 111.723 34.8316C111.707 34.7325 111.794 34.6335 111.937 34.4767C111.971 34.4474 111.994 34.4063 112.001 34.3611C112.001 34.2703 112.001 34.229 111.913 34.229C111.843 34.2115 111.769 34.2115 111.699 34.229C111.643 34.229 111.604 34.229 111.572 34.1795V34.1383C111.572 34.064 111.572 34.031 111.643 34.0062C111.733 33.9655 111.831 33.9458 111.929 33.9484C111.976 33.9443 112.024 33.9512 112.068 33.9687C112.113 33.9862 112.153 34.0137 112.185 34.0493C112.218 34.0849 112.243 34.1277 112.258 34.1745C112.272 34.2213 112.277 34.271 112.271 34.3198C112.271 34.5344 111.985 34.6252 111.977 34.7903C111.974 34.8154 111.963 34.8387 111.945 34.8566C111.928 34.8745 111.906 34.886 111.882 34.8894L111.834 34.9306Z" fill="#009EDB"/>
<path d="M111.754 37.7782C111.159 37.7782 110.841 37.5141 110.841 37.0189C110.841 36.5236 111.143 36.276 111.834 36.276H112.398V35.9789C112.398 35.6652 112.207 35.5332 111.77 35.5332C111.592 35.5306 111.413 35.5472 111.238 35.5827C111.175 35.5827 111.135 35.5827 111.111 35.5827C111.087 35.5827 111.111 35.5249 111.111 35.4671V35.4259C111.111 35.3103 111.111 35.2773 111.262 35.2443C111.435 35.2091 111.61 35.1925 111.786 35.1948C112.461 35.1948 112.803 35.4671 112.803 36.0201V37.0189C112.771 37.5306 112.453 37.7782 111.754 37.7782ZM111.834 36.2925C111.151 36.2925 110.849 36.5154 110.849 37.0189C110.849 37.5224 111.159 37.7617 111.754 37.7617C112.031 37.792 112.31 37.7283 112.549 37.5801C112.635 37.509 112.702 37.4167 112.745 37.3114C112.788 37.2062 112.805 37.0914 112.795 36.9776V35.9789C112.801 35.8671 112.781 35.7555 112.737 35.6534C112.693 35.5514 112.625 35.462 112.541 35.3928C112.314 35.2513 112.05 35.1851 111.786 35.203C111.61 35.2008 111.435 35.2174 111.262 35.2525C111.143 35.2525 111.119 35.3021 111.119 35.4176V35.4589C111.119 35.5167 111.119 35.5497 111.119 35.5662C111.119 35.5827 111.175 35.5662 111.238 35.5662C111.413 35.5271 111.591 35.5077 111.77 35.5084C112.215 35.5084 112.406 35.6487 112.406 35.9706V36.2843L111.834 36.2925ZM111.754 37.4481C111.381 37.4481 111.206 37.3078 111.206 37.0189C111.206 36.73 111.397 36.5732 111.834 36.5732H112.406V36.9611C112.406 37.3655 112.159 37.4481 111.754 37.4481ZM111.834 36.6227C111.397 36.6227 111.214 36.7465 111.214 37.0519C111.214 37.3573 111.389 37.4728 111.754 37.4728C112.12 37.4728 112.398 37.3408 112.398 36.9941V36.6227H111.834ZM111.834 34.9719C111.738 34.9719 111.731 34.9719 111.715 34.8728C111.699 34.7738 111.762 34.6913 111.866 34.5757L111.937 34.5014C111.953 34.4883 111.966 34.472 111.975 34.4536C111.985 34.4352 111.991 34.415 111.993 34.3941C111.993 34.3033 111.993 34.2703 111.913 34.2621C111.85 34.264 111.787 34.2809 111.731 34.3116C111.667 34.3116 111.627 34.3116 111.588 34.2538V34.2125C111.588 34.13 111.588 34.1052 111.659 34.0805C111.749 34.0398 111.847 34.0201 111.945 34.0227C112.037 34.0199 112.128 34.0522 112.199 34.1135C112.231 34.1516 112.256 34.1961 112.271 34.2444C112.286 34.2927 112.291 34.3436 112.286 34.3941C112.279 34.4495 112.262 34.5029 112.234 34.551C112.207 34.5992 112.171 34.6413 112.128 34.6748C112.062 34.7186 112.014 34.7862 111.993 34.8646C111.991 34.8902 111.98 34.9143 111.963 34.9325C111.945 34.9507 111.922 34.9617 111.897 34.9636L111.834 34.9719ZM111.889 34.2538C111.937 34.2538 111.985 34.2538 111.985 34.3941C111.978 34.4393 111.955 34.4804 111.921 34.5097L111.85 34.584C111.746 34.6913 111.691 34.749 111.699 34.8646C111.707 34.9801 111.699 34.9554 111.81 34.9554C111.832 34.9521 111.852 34.9414 111.868 34.9251C111.884 34.9087 111.894 34.8875 111.897 34.8646C111.918 34.7838 111.966 34.7135 112.032 34.6665C112.077 34.6388 112.116 34.6018 112.146 34.5577C112.176 34.5137 112.197 34.4636 112.207 34.4106C112.211 34.3614 112.205 34.3119 112.19 34.2651C112.175 34.2182 112.151 34.1751 112.12 34.1382C112.052 34.0753 111.964 34.0426 111.874 34.0475C111.775 34.0449 111.678 34.0646 111.588 34.1052C111.532 34.1052 111.5 34.1548 111.524 34.229C111.524 34.3033 111.596 34.3033 111.651 34.2868C111.726 34.252 111.809 34.2405 111.889 34.2538Z" fill="#009EDB"/>
<path d="M113.644 37.5637C113.644 37.6958 113.644 37.7205 113.486 37.7205H113.43C113.311 37.7205 113.279 37.7205 113.279 37.5637V36.1358C113.279 35.5085 113.621 35.1948 114.288 35.1948C114.955 35.1948 115.296 35.525 115.296 36.1358V37.5637C115.296 37.6958 115.296 37.7205 115.137 37.7205H115.082C114.947 37.7205 114.923 37.7205 114.923 37.5637V36.1358C114.923 35.7313 114.78 35.5497 114.288 35.5497C113.795 35.5497 113.644 35.7396 113.644 36.1358V37.5637Z" fill="#009EDB"/>
<path d="M115.138 37.7123H115.082C114.947 37.7123 114.923 37.7123 114.923 37.5472V36.1358C114.923 35.7148 114.749 35.558 114.288 35.558C113.827 35.558 113.645 35.7148 113.645 36.1358V37.5637C113.645 37.6958 113.645 37.7288 113.486 37.7288H113.43C113.311 37.7288 113.271 37.7288 113.271 37.5637V36.1358C113.271 35.5085 113.613 35.1866 114.288 35.1866C114.429 35.1714 114.572 35.1855 114.709 35.228C114.845 35.2705 114.972 35.3406 115.082 35.4342C115.168 35.5264 115.234 35.6368 115.275 35.7579C115.316 35.879 115.332 36.0079 115.32 36.1358V37.5637C115.296 37.7123 115.273 37.7123 115.138 37.7123ZM114.288 35.525C114.756 35.525 114.931 35.69 114.931 36.1193V37.5472C114.931 37.6793 114.931 37.6958 115.082 37.6958H115.138C115.265 37.6958 115.289 37.6958 115.289 37.5472V36.1358C115.298 36.0099 115.283 35.8834 115.243 35.7641C115.203 35.6448 115.141 35.5353 115.058 35.4424C114.947 35.3503 114.82 35.2817 114.684 35.2406C114.548 35.1996 114.405 35.1868 114.264 35.2031C113.98 35.1697 113.696 35.2526 113.47 35.4342C113.381 35.5253 113.313 35.6351 113.269 35.7561C113.225 35.8772 113.207 36.0067 113.216 36.1358V37.5637C113.216 37.6958 113.255 37.7123 113.367 37.7123H113.422C113.549 37.7123 113.573 37.7123 113.573 37.5637V36.1358C113.637 35.7066 113.795 35.5415 114.288 35.5415V35.525Z" fill="#009EDB"/>
<path d="M117.194 34.4107C117.194 34.2704 117.194 34.2456 117.353 34.2456H117.409C117.536 34.2456 117.559 34.2456 117.559 34.4107V35.5745C117.651 35.4499 117.773 35.3529 117.912 35.2934C118.052 35.2339 118.204 35.2142 118.354 35.2361C118.941 35.2361 119.243 35.525 119.243 36.1193V37.605C119.243 37.737 119.243 37.7618 119.092 37.7618H119.029C118.902 37.7618 118.878 37.7618 118.878 37.605V36.1193C118.878 35.7231 118.703 35.5497 118.258 35.5497C117.814 35.5497 117.591 35.7396 117.591 36.2018V37.5637C117.591 37.6958 117.591 37.7205 117.44 37.7205H117.385C117.258 37.7205 117.226 37.7205 117.226 37.5637L117.194 34.4107Z" fill="#009EDB"/>
<path d="M119.06 37.7122H118.997C118.87 37.7122 118.838 37.7122 118.838 37.5471V36.1192C118.838 35.7148 118.663 35.5579 118.227 35.5579C117.79 35.5579 117.567 35.7478 117.567 36.2017V37.5637C117.567 37.6957 117.567 37.7287 117.409 37.7287H117.353C117.234 37.7287 117.194 37.7287 117.194 37.5637V34.4106C117.194 34.2621 117.194 34.2373 117.353 34.2373H117.409C117.536 34.2373 117.567 34.2373 117.567 34.4106V35.5579C117.66 35.4355 117.783 35.3406 117.922 35.2826C118.061 35.2247 118.213 35.2058 118.362 35.2278C118.957 35.2278 119.259 35.5249 119.259 36.1192V37.6049C119.219 37.7122 119.188 37.7122 119.06 37.7122ZM118.266 35.5249C118.711 35.5249 118.894 35.6983 118.894 36.1027V37.5471C118.894 37.6792 118.894 37.6957 119.037 37.6957H119.1C119.227 37.6957 119.243 37.6957 119.243 37.5471V36.0614C119.243 35.4754 118.949 35.1865 118.362 35.1865C118.212 35.1646 118.06 35.1844 117.92 35.2438C117.781 35.3033 117.659 35.4003 117.567 35.5249V34.4106C117.567 34.2786 117.567 34.2538 117.424 34.2538H117.369C117.25 34.2538 117.218 34.2538 117.218 34.4106V37.6049C117.218 37.737 117.218 37.7535 117.369 37.7535H117.424C117.544 37.7535 117.567 37.7535 117.567 37.6049V36.2017C117.551 35.7395 117.766 35.5414 118.227 35.5414L118.266 35.5249Z" fill="#009EDB"/>
<path d="M119.728 36.7137V36.2515C119.728 35.5499 120.077 35.1949 120.792 35.1949C120.989 35.1646 121.191 35.2012 121.367 35.2993C121.543 35.3975 121.684 35.5519 121.769 35.7397C121.84 35.7397 121.912 35.6076 121.912 35.3435C121.912 35.2692 121.912 35.2445 122.023 35.2445H122.102C122.19 35.2445 122.205 35.2445 122.205 35.3435C122.205 35.748 122.047 35.9461 121.824 36.0121C121.833 36.0916 121.833 36.1719 121.824 36.2515V36.7137C121.824 37.4235 121.475 37.7702 120.776 37.7702C120.077 37.7702 119.728 37.407 119.728 36.7137ZM121.483 36.2515C121.483 35.7645 121.316 35.5499 120.792 35.5499C120.268 35.5499 120.085 35.7645 120.085 36.2515V36.7137C120.085 37.2007 120.26 37.4153 120.792 37.4153C121.324 37.4153 121.483 37.2007 121.483 36.7137V36.2515Z" fill="#009EDB"/>
<path d="M120.792 37.7782C120.061 37.7782 119.72 37.4398 119.72 36.7135V36.2512C119.707 36.1017 119.724 35.9511 119.771 35.809C119.817 35.6669 119.892 35.5364 119.99 35.4259C120.212 35.2356 120.496 35.1411 120.784 35.1617C121.308 35.1617 121.618 35.3351 121.761 35.7065C121.856 35.6652 121.896 35.5332 121.896 35.3185C121.896 35.236 121.896 35.2113 122.015 35.2113H122.094C122.182 35.2113 122.205 35.2112 122.205 35.3185C122.205 35.6817 122.078 35.9128 121.824 35.9954C121.828 36.0723 121.828 36.1495 121.824 36.2265V36.6887C121.845 36.8354 121.833 36.9851 121.789 37.126C121.744 37.267 121.669 37.3953 121.569 37.5009C121.469 37.6066 121.347 37.6866 121.212 37.7347C121.077 37.7828 120.933 37.7977 120.792 37.7782ZM120.792 35.203C120.505 35.1775 120.22 35.2693 119.997 35.4589C119.9 35.569 119.825 35.6996 119.78 35.842C119.735 35.9844 119.72 36.1352 119.735 36.2843V36.7465C119.735 37.4646 120.069 37.7947 120.792 37.7947C121.078 37.8194 121.363 37.7277 121.586 37.5389C121.684 37.4288 121.758 37.2981 121.803 37.1557C121.848 37.0133 121.864 36.8625 121.848 36.7135V36.2512C121.852 36.1715 121.852 36.0916 121.848 36.0119C122.102 35.9293 122.221 35.7065 122.221 35.3433C122.221 35.269 122.221 35.2525 122.126 35.2525H122.046C121.967 35.2525 121.943 35.2525 121.943 35.3433C121.943 35.5662 121.896 35.6982 121.792 35.7478C121.618 35.3763 121.316 35.236 120.792 35.236V35.203ZM120.792 37.4233C120.283 37.4233 120.085 37.2252 120.085 36.7135V36.2512C120.085 35.7395 120.275 35.5414 120.792 35.5414C121.308 35.5414 121.483 35.7395 121.483 36.2512V36.7135C121.483 37.2335 121.3 37.4233 120.792 37.4233ZM120.792 35.5579C120.283 35.5579 120.093 35.7395 120.093 36.2512V36.7135C120.093 37.217 120.291 37.4068 120.792 37.4068C121.292 37.4068 121.475 37.2252 121.475 36.7135V36.2512C121.475 35.7395 121.292 35.5579 120.792 35.5579Z" fill="#009EDB"/>
<path d="M122.721 37.5637C122.721 37.6958 122.721 37.7205 122.563 37.7205H122.531C122.412 37.7205 122.38 37.7205 122.38 37.5637V36.1358C122.38 35.5085 122.713 35.1948 123.389 35.1948C124.064 35.1948 124.397 35.525 124.397 36.1358V37.5637C124.397 37.6958 124.397 37.7205 124.238 37.7205H124.183C124.048 37.7205 124.024 37.7205 124.024 37.5637V36.1358C124.024 35.7313 123.881 35.5497 123.389 35.5497C122.896 35.5497 122.745 35.7396 122.745 36.1358L122.721 37.5637Z" fill="#009EDB"/>
<path d="M124.214 37.7123H124.159C124.024 37.7123 124 37.7123 124 37.5472V36.1358C124 35.7148 123.825 35.558 123.365 35.558C122.904 35.558 122.721 35.7148 122.721 36.1358V37.5637C122.721 37.6958 122.721 37.7288 122.562 37.7288H122.531C122.412 37.7288 122.372 37.7288 122.372 37.5637V36.1358C122.372 35.5085 122.713 35.1866 123.388 35.1866C123.53 35.1714 123.673 35.1855 123.809 35.228C123.946 35.2705 124.072 35.3406 124.183 35.4342C124.269 35.5264 124.334 35.6368 124.375 35.7579C124.417 35.879 124.432 36.0079 124.421 36.1358V37.5637C124.373 37.7123 124.349 37.7123 124.214 37.7123ZM123.365 35.525C123.833 35.525 124.008 35.69 124.008 36.1193V37.5472C124.008 37.6793 124.008 37.6958 124.159 37.6958H124.214C124.341 37.6958 124.365 37.6958 124.365 37.5472V36.1358C124.375 36.0099 124.359 35.8834 124.32 35.7641C124.28 35.6448 124.217 35.5353 124.135 35.4424C124.024 35.3503 123.897 35.2817 123.761 35.2406C123.624 35.1996 123.482 35.1868 123.341 35.2031C123.057 35.1697 122.772 35.2526 122.547 35.4342C122.458 35.5253 122.39 35.6351 122.346 35.7561C122.302 35.8772 122.284 36.0067 122.292 36.1358V37.5637C122.292 37.6958 122.332 37.7123 122.443 37.7123H122.531C122.658 37.7123 122.682 37.7123 122.682 37.5637V36.1358C122.713 35.7066 122.896 35.5415 123.365 35.5415V35.525Z" fill="#009EDB"/>
</g>
<defs>
<clipPath id="clip0_4148_2899">
<rect width="109.844" height="34.6667" fill="white" transform="translate(18.5 7.17261)"/>
</clipPath>
</defs>
</svg>
