<svg width="21" height="20" viewBox="0 0 21 20" fill="none" xmlns="http://www.w3.org/2000/svg">
<mask id="mask0_982_79500" style="mask-type:alpha" maskUnits="userSpaceOnUse" x="0" y="0" width="21" height="20">
<rect x="20.5" width="20" height="20" transform="rotate(90 20.5 0)" fill="#C4C4C4"/>
</mask>
<g mask="url(#mask0_982_79500)">
<path d="M13.3896 17.5108C13.1709 17.5138 12.9576 17.4457 12.7841 17.3176L3.36776 10.214C3.25478 10.1287 3.16313 10.02 3.09954 9.89611C3.03595 9.77218 3.00204 9.63609 3.0003 9.49783C2.99857 9.35958 3.02905 9.22268 3.08951 9.09719C3.14997 8.9717 3.23887 8.86082 3.34968 8.77268L12.5457 1.47367C12.6433 1.39638 12.7558 1.33833 12.8766 1.30284C12.9975 1.26734 13.1245 1.2551 13.2502 1.2668C13.5042 1.29044 13.7379 1.4102 13.8999 1.59973C14.062 1.78925 14.1391 2.03303 14.1143 2.27742C14.0894 2.52181 13.9647 2.7468 13.7676 2.90289L5.49511 9.46753L13.9719 15.8582C14.1286 15.9761 14.2432 16.1381 14.3001 16.3215C14.3569 16.505 14.3531 16.701 14.2892 16.8824C14.2252 17.0639 14.1043 17.2218 13.9432 17.3343C13.7821 17.4469 13.5886 17.5085 13.3896 17.5108Z" fill="#292929" stroke="#292929" stroke-width="0.2"/>
</g>
</svg>
