<svg width="169" height="101" viewBox="0 0 169 101" fill="none" xmlns="http://www.w3.org/2000/svg">
<g clip-path="url(#clip0_985_80468)">
<path d="M29.963 96.5784C28.8765 96.5537 27.7486 96.3827 26.0915 96.0078C16.3544 93.804 8.21085 88.3044 4.77936 78.5153C4.73438 78.3856 4.6894 78.256 4.64619 78.1264C2.21037 70.8418 3.11609 62.1251 8.31756 56.4739C12.5692 51.8553 18.9648 49.8366 23.7112 45.7287C33.5797 37.1884 34.25 21.8371 42.5866 11.7975C60.0051 -9.17863 94.4099 4.9971 107.482 23.6458C109.049 25.8815 110.777 30.6402 115.595 32.6942C121.471 35.1997 125.046 31.0697 132.857 32.0804C140.66 33.0902 145.98 38.3595 149.713 42.0574C155.111 47.4043 157.409 52.6711 160.662 60.1311C164.387 68.6715 166.228 72.9513 165.471 78.0567C164.431 85.0758 159.3 92.7369 152.301 94.7326C146.551 96.3721 144.31 92.8295 132.581 91.429C126.427 90.6944 121.152 88.6175 116.212 91.519C108.077 96.298 97.9005 97.8449 88.3786 96.8263C78.6547 95.7856 69.4026 92.4476 60.3825 88.5522C54.8953 86.1826 48.5509 87.0133 43.8345 90.6847C42.703 91.5657 41.6862 92.6928 39.3668 93.9971C37.9248 94.8084 34.4934 96.6843 29.9604 96.5793L29.963 96.5784Z" fill="url(#paint0_linear_985_80468)" fill-opacity="0.15"/>
<g style="mix-blend-mode:multiply" opacity="0.3">
<path d="M85.6696 100.72C128.378 100.72 162.999 100.078 162.999 99.2855C162.999 98.4936 128.378 97.8516 85.6696 97.8516C42.9616 97.8516 8.33984 98.4936 8.33984 99.2855C8.33984 100.078 42.9616 100.72 85.6696 100.72Z" fill="#BCBEC0"/>
</g>
<path d="M140.825 52.207V69.1184C140.825 85.5263 127.524 98.828 111.116 98.828C94.708 98.828 82.5695 86.6577 81.4812 71.2412C81.4309 70.5401 81.4062 69.8319 81.4062 69.1184V52.207H140.825Z" fill="#F4A733"/>
<g style="mix-blend-mode:screen" opacity="0.4">
<path d="M140.826 52.206V69.1174C140.826 85.5252 127.524 98.8261 111.116 98.8261C110.3 98.8261 109.491 98.7925 108.691 98.7282C123.965 97.4944 135.974 84.7077 135.974 69.1165V52.2051H140.826V52.206Z" fill="#F89D44"/>
</g>
<path d="M133.614 52.2057H128.281V32.3743C128.281 22.9097 120.58 15.2089 111.115 15.2089C101.651 15.2089 93.9501 22.9089 93.9501 32.3743V52.2057H88.6172V32.3743C88.6172 19.9695 98.7097 9.87695 111.115 9.87695C123.519 9.87695 133.612 19.9695 133.612 32.3743V52.2057H133.614Z" fill="#727272"/>
<path d="M115.968 70.9421C115.968 68.262 113.796 66.0898 111.116 66.0898C108.436 66.0898 106.264 68.262 106.264 70.9421C106.264 72.9422 107.475 74.6593 109.203 75.4019L107.701 84.235C107.638 84.6054 107.924 84.9441 108.3 84.9441H113.932C114.308 84.9441 114.593 84.6054 114.531 84.235L113.029 75.4019C114.757 74.6593 115.968 72.9422 115.968 70.9421Z" fill="#1D1709"/>
<g style="mix-blend-mode:multiply" opacity="0.5">
<path d="M114.529 84.234C114.593 84.6035 114.307 84.943 113.93 84.943H113.016C113.393 84.943 113.678 84.6035 113.615 84.234L112.113 75.3999C113.843 74.6591 115.054 72.9421 115.054 70.9401C115.054 68.4161 113.125 66.3401 110.658 66.1091C110.807 66.0949 110.961 66.0879 111.115 66.0879C113.795 66.0879 115.967 68.2618 115.967 70.9401C115.967 72.9412 114.756 74.6582 113.027 75.3999L114.529 84.234Z" fill="#402C01"/>
</g>
<g style="mix-blend-mode:screen" opacity="0.6">
<path d="M137.944 62.5367C137.425 62.5367 137.004 62.116 137.004 61.5966V57.0768C137.004 56.5574 137.425 56.1367 137.944 56.1367C138.463 56.1367 138.884 56.5574 138.884 57.0768V61.5966C138.884 62.116 138.463 62.5367 137.944 62.5367Z" fill="white"/>
<path d="M137.944 66.8794C137.425 66.8794 137.004 66.4587 137.004 65.9393V64.985C137.004 64.4656 137.425 64.0449 137.944 64.0449C138.463 64.0449 138.884 64.4656 138.884 64.985V65.9393C138.884 66.4587 138.463 66.8794 137.944 66.8794Z" fill="white"/>
</g>
<path d="M153.431 67.2038V83.5623C153.431 87.4338 151.584 91.0726 148.459 93.3567L140.208 99.3889V99.4119L140.192 99.4004L140.176 99.4119V99.3889L131.925 93.3567C128.801 91.0717 126.953 87.433 126.953 83.5623V67.2038C132.888 66.5962 137.074 65.1552 140.176 62.5694V62.543C140.182 62.5474 140.187 62.5518 140.192 62.5562C140.198 62.5518 140.203 62.5474 140.208 62.543V62.5694C143.311 65.1552 147.496 66.5962 153.431 67.2038Z" fill="url(#paint1_linear_985_80468)"/>
<g style="mix-blend-mode:multiply" opacity="0.4">
<path d="M153.431 67.2047V83.5632C153.431 87.4347 151.583 91.0735 148.458 93.3576L140.207 99.3898V99.4127L140.191 99.4013V62.5562C140.197 62.5518 140.202 62.5474 140.207 62.543V62.5694C143.31 65.1552 147.495 66.5962 153.431 67.2038V67.2047Z" fill="#D82F30"/>
</g>
<path d="M140.193 84.0827C139.53 84.0827 138.964 83.6056 138.852 82.953L137.167 73.1541C137.136 72.9707 137.121 72.7872 137.121 72.6038C137.121 71.0349 138.145 70.25 140.194 70.25C142.242 70.25 143.266 71.0296 143.266 72.5888C143.266 72.8031 143.251 72.9918 143.22 73.1541L141.535 82.953C141.423 83.6056 140.857 84.0827 140.195 84.0827H140.193ZM140.193 86.3298C141.986 86.3298 142.883 87.2267 142.883 89.0196C142.883 90.8125 141.986 91.7094 140.193 91.7094C138.4 91.7094 137.503 90.8125 137.503 89.0196C137.503 87.2267 138.4 86.3298 140.193 86.3298Z" fill="white"/>
<g style="mix-blend-mode:multiply" opacity="0.5">
<path d="M104.001 52.2051V62.4978C104.001 66.4981 100.758 69.74 96.7549 69.74H81.4812C81.4309 69.0389 81.4062 68.3307 81.4062 67.6172V52.2051H104.001Z" fill="#BCBEC0"/>
</g>
<path d="M102.152 25.7702V60.9917C102.152 64.992 98.9104 68.2339 94.9065 68.2339H19.1051C15.1057 68.2339 11.8594 64.9929 11.8594 60.9917V25.7702C11.8594 21.7708 15.1048 18.5254 19.1051 18.5254H94.9065C98.9095 18.5254 102.152 21.7708 102.152 25.7702Z" fill="#F5E2E2"/>
<path d="M102.151 25.7702V29.1162H11.8594V25.7702C11.8594 21.7699 15.1048 18.5254 19.1042 18.5254H94.9056C98.9086 18.5254 102.15 21.7708 102.15 25.7702H102.151Z" fill="url(#paint2_linear_985_80468)"/>
<path d="M19.5469 25.3945C18.6791 25.3945 17.9727 24.6881 17.9727 23.8203C17.9727 22.9525 18.6791 22.2461 19.5469 22.2461C20.4146 22.2461 21.1211 22.9525 21.1211 23.8203C21.1211 24.6881 20.4146 25.3945 19.5469 25.3945ZM19.5469 22.6041C18.8766 22.6041 18.3307 23.15 18.3307 23.8203C18.3307 24.4905 18.8766 25.0364 19.5469 25.0364C20.2171 25.0364 20.763 24.4905 20.763 23.8203C20.763 23.15 20.2171 22.6041 19.5469 22.6041Z" fill="white"/>
<path d="M23.9707 25.3945C23.1029 25.3945 22.3965 24.6881 22.3965 23.8203C22.3965 22.9525 23.1029 22.2461 23.9707 22.2461C24.8385 22.2461 25.5449 22.9525 25.5449 23.8203C25.5449 24.6881 24.8385 25.3945 23.9707 25.3945ZM23.9707 22.6041C23.3004 22.6041 22.7545 23.15 22.7545 23.8203C22.7545 24.4905 23.3004 25.0364 23.9707 25.0364C24.6409 25.0364 25.1868 24.4905 25.1868 23.8203C25.1868 23.15 24.6418 22.6041 23.9707 22.6041Z" fill="white"/>
<path d="M28.3965 25.3945C27.5287 25.3945 26.8223 24.6881 26.8223 23.8203C26.8223 22.9525 27.5287 22.2461 28.3965 22.2461C29.2643 22.2461 29.9707 22.9525 29.9707 23.8203C29.9707 24.6881 29.2643 25.3945 28.3965 25.3945ZM28.3965 22.6041C27.7262 22.6041 27.1803 23.15 27.1803 23.8203C27.1803 24.4905 27.7253 25.0364 28.3965 25.0364C29.0676 25.0364 29.6126 24.4905 29.6126 23.8203C29.6126 23.15 29.0667 22.6041 28.3965 22.6041Z" fill="white"/>
<path d="M84.7574 37.3359H30.3809C28.9743 37.3359 27.834 38.4762 27.834 39.8829V43.8356C27.834 45.2422 28.9743 46.3825 30.3809 46.3825H84.7574C86.164 46.3825 87.3043 45.2422 87.3043 43.8356V39.8829C87.3043 38.4762 86.164 37.3359 84.7574 37.3359Z" fill="#D1D3D4"/>
<path d="M86.7832 39.8832V43.8358C86.7832 44.9532 85.8757 45.8607 84.7584 45.8607H30.3819C29.2645 45.8607 28.3571 44.9532 28.3571 43.8358V39.8823C28.3571 38.7649 29.2645 37.8574 30.3819 37.8574H84.7584C85.8757 37.8574 86.7832 38.7649 86.7832 39.8823V39.8832Z" fill="white"/>
<path d="M84.7574 51.6133H30.3809C28.9743 51.6133 27.834 52.7536 27.834 54.1602V58.1129C27.834 59.5196 28.9743 60.6599 30.3809 60.6599H84.7574C86.164 60.6599 87.3043 59.5196 87.3043 58.1129V54.1602C87.3043 52.7536 86.164 51.6133 84.7574 51.6133Z" fill="#D1D3D4"/>
<path d="M86.7832 54.1605V58.1132C86.7832 59.2306 85.8757 60.138 84.7584 60.138H30.381C29.2636 60.138 28.3562 59.2306 28.3562 58.1132V54.1596C28.3562 53.0422 29.2636 52.1348 30.381 52.1348H84.7584C85.8757 52.1348 86.7832 53.0422 86.7832 54.1596V54.1605Z" fill="white"/>
<path d="M48.0027 40.8496H34.3535V42.8718H48.0027V40.8496Z" fill="#727272"/>
<path d="M64.3934 40.8496H50.7441V42.8718H64.3934V40.8496Z" fill="#727272"/>
<path d="M80.784 40.8496H67.1348V42.8718H80.784V40.8496Z" fill="#727272"/>
<path d="M43.7991 55.6759C44.0689 55.4995 44.3644 55.3134 44.6854 55.1176C45.0064 54.9219 45.3204 54.7737 45.6273 54.6714L45.8363 54.6017L46.3107 56.0525L46.0876 56.1221C45.7895 56.2156 45.4527 56.2782 45.0761 56.3109C44.6995 56.3435 44.3485 56.3647 44.0231 56.3735C44.2832 56.5781 44.5558 56.7994 44.8397 57.0358C45.1228 57.273 45.3627 57.5261 45.5585 57.796L45.6978 57.9918L44.4561 58.871L44.3168 58.6894C44.1307 58.4195 43.9675 58.1126 43.8282 57.7686C43.6888 57.4247 43.5539 57.1037 43.4234 56.8056C43.3026 57.1037 43.1703 57.4247 43.0257 57.7686C42.881 58.1126 42.7161 58.4195 42.5309 58.6894L42.4048 58.871L41.149 57.9918L41.3024 57.796C41.4885 57.5261 41.7231 57.273 42.0071 57.0358C42.2901 56.7986 42.5671 56.5781 42.8369 56.3735C42.5115 56.3647 42.1605 56.3479 41.7839 56.325C41.4074 56.302 41.0652 56.2341 40.7583 56.123L40.5352 56.0533L41.0096 54.6026L41.2186 54.6723C41.5352 54.7746 41.851 54.9236 42.1676 55.1185C42.4842 55.3134 42.777 55.5004 43.0468 55.6768C42.963 55.3513 42.8775 55.0118 42.7893 54.6582C42.7002 54.3045 42.657 53.965 42.657 53.6396V53.4023H44.1915V53.6396C44.1915 53.965 44.1474 54.3045 44.0592 54.6582C43.9711 55.0118 43.8846 55.3513 43.8008 55.6768L43.7991 55.6759Z" fill="#727272"/>
<path d="M50.8733 55.6759C51.1432 55.4995 51.4386 55.3134 51.7596 55.1176C52.0806 54.9219 52.3946 54.7737 52.7015 54.6714L52.9105 54.6017L53.385 56.0525L53.1618 56.1221C52.8638 56.2156 52.5269 56.2782 52.1503 56.3109C51.7737 56.3435 51.4227 56.3647 51.0973 56.3735C51.3575 56.5781 51.63 56.7994 51.914 57.0358C52.197 57.273 52.4369 57.5261 52.6327 57.796L52.772 57.9918L51.5303 58.871L51.391 58.6894C51.2049 58.4195 51.0417 58.1126 50.9024 57.7686C50.7631 57.4247 50.6281 57.1037 50.4976 56.8056C50.3768 57.1037 50.2445 57.4247 50.0999 57.7686C49.9552 58.1126 49.7903 58.4195 49.6051 58.6894L49.479 58.871L48.2232 57.9918L48.3766 57.796C48.5627 57.5261 48.7973 57.273 49.0813 57.0358C49.3644 56.7986 49.6413 56.5781 49.9111 56.3735C49.5857 56.3647 49.2347 56.3479 48.8582 56.325C48.4816 56.302 48.1394 56.2341 47.8325 56.123L47.6094 56.0533L48.0838 54.6026L48.2929 54.6723C48.6095 54.7746 48.9252 54.9236 49.2418 55.1185C49.5584 55.3134 49.8512 55.5004 50.121 55.6768C50.0373 55.3513 49.9517 55.0118 49.8635 54.6582C49.7745 54.3045 49.7312 53.965 49.7312 53.6396V53.4023H51.2657V53.6396C51.2657 53.965 51.2217 54.3045 51.1335 54.6582C51.0453 55.0118 50.9588 55.3513 50.8751 55.6768L50.8733 55.6759Z" fill="#727272"/>
<path d="M57.9475 55.6759C58.2174 55.4995 58.5128 55.3134 58.8338 55.1176C59.1548 54.9219 59.4688 54.7737 59.7757 54.6714L59.9847 54.6017L60.4592 56.0525L60.2361 56.1221C59.938 56.2156 59.6011 56.2782 59.2245 56.3109C58.8479 56.3435 58.497 56.3647 58.1715 56.3735C58.4317 56.5781 58.7042 56.7994 58.9882 57.0358C59.2713 57.273 59.5111 57.5261 59.7069 57.796L59.8463 57.9918L58.6045 58.871L58.4652 58.6894C58.2791 58.4195 58.116 58.1126 57.9766 57.7686C57.8373 57.4247 57.7024 57.1037 57.5718 56.8056C57.451 57.1037 57.3187 57.4247 57.1741 57.7686C57.0295 58.1126 56.8645 58.4195 56.6793 58.6894L56.5532 58.871L55.2974 57.9918L55.4509 57.796C55.6369 57.5261 55.8715 57.273 56.1555 57.0358C56.4386 56.7986 56.7155 56.5781 56.9854 56.3735C56.6599 56.3647 56.3089 56.3479 55.9324 56.325C55.5558 56.302 55.2136 56.2341 54.9067 56.123L54.6836 56.0533L55.1581 54.6026L55.3671 54.6723C55.6837 54.7746 55.9994 54.9236 56.316 55.1185C56.6326 55.3134 56.9254 55.5004 57.1953 55.6768C57.1115 55.3513 57.0259 55.0118 56.9377 54.6582C56.8487 54.3045 56.8055 53.965 56.8055 53.6396V53.4023H58.34V53.6396C58.34 53.965 58.2959 54.3045 58.2077 54.6582C58.1195 55.0118 58.0331 55.3513 57.9493 55.6768L57.9475 55.6759Z" fill="#727272"/>
<path d="M65.0198 55.6759C65.2897 55.4995 65.5851 55.3134 65.9061 55.1176C66.2271 54.9219 66.5411 54.7737 66.848 54.6714L67.057 54.6017L67.5314 56.0525L67.3083 56.1221C67.0102 56.2156 66.6734 56.2782 66.2968 56.3109C65.9202 56.3435 65.5692 56.3647 65.2438 56.3735C65.504 56.5781 65.7765 56.7994 66.0604 57.0358C66.3435 57.273 66.5834 57.5261 66.7792 57.796L66.9185 57.9918L65.6768 58.871L65.5375 58.6894C65.3514 58.4195 65.1882 58.1126 65.0489 57.7686C64.9096 57.4247 64.7746 57.1037 64.6441 56.8056C64.5233 57.1037 64.391 57.4247 64.2464 57.7686C64.1017 58.1126 63.9368 58.4195 63.7516 58.6894L63.6255 58.871L62.3697 57.9918L62.5231 57.796C62.7092 57.5261 62.9438 57.273 63.2278 57.0358C63.5108 56.7986 63.7878 56.5781 64.0576 56.3735C63.7322 56.3647 63.3812 56.3479 63.0046 56.325C62.6281 56.302 62.2859 56.2341 61.979 56.123L61.7559 56.0533L62.2303 54.6026L62.4393 54.6723C62.7559 54.7746 63.0717 54.9236 63.3883 55.1185C63.7049 55.3134 63.9977 55.5004 64.2675 55.6768C64.1837 55.3513 64.0982 55.0118 64.01 54.6582C63.9209 54.3045 63.8777 53.965 63.8777 53.6396V53.4023H65.4122V53.6396C65.4122 53.965 65.3681 54.3045 65.28 54.6582C65.1918 55.0118 65.1053 55.3513 65.0215 55.6768L65.0198 55.6759Z" fill="#727272"/>
<path d="M72.0931 55.6759C72.363 55.4995 72.6584 55.3134 72.9794 55.1176C73.3005 54.9219 73.6144 54.7737 73.9213 54.6714L74.1303 54.6017L74.6048 56.0525L74.3817 56.1221C74.0836 56.2156 73.7467 56.2782 73.3701 56.3109C72.9936 56.3435 72.6426 56.3647 72.3171 56.3735C72.5773 56.5781 72.8498 56.7994 73.1338 57.0358C73.4169 57.273 73.6567 57.5261 73.8525 57.796L73.9919 57.9918L72.7501 58.871L72.6108 58.6894C72.4247 58.4195 72.2616 58.1126 72.1222 57.7686C71.9829 57.4247 71.848 57.1037 71.7174 56.8056C71.5966 57.1037 71.4643 57.4247 71.3197 57.7686C71.1751 58.1126 71.0102 58.4195 70.825 58.6894L70.6997 58.871L69.4439 57.9918L69.5973 57.796C69.7834 57.5261 70.018 57.273 70.302 57.0358C70.5851 56.7986 70.862 56.5781 71.1319 56.3735C70.8064 56.3647 70.4554 56.3479 70.0789 56.325C69.7023 56.302 69.3601 56.2341 69.0532 56.123L68.8301 56.0533L69.3045 54.6026L69.5136 54.6723C69.8302 54.7746 70.1459 54.9236 70.4625 55.1185C70.7791 55.3134 71.0719 55.5004 71.3417 55.6768C71.258 55.3513 71.1724 55.0118 71.0842 54.6582C70.9952 54.3045 70.9519 53.965 70.9519 53.6396V53.4023H72.4865V53.6396C72.4865 53.965 72.4424 54.3045 72.3542 54.6582C72.266 55.0118 72.1796 55.3513 72.0958 55.6768L72.0931 55.6759Z" fill="#727272"/>
<path d="M65.4281 95.7668C64.4148 95.7668 63.5938 94.9458 63.5938 93.9325V91.0707C63.5938 90.0574 64.4148 89.2363 65.4281 89.2363C66.4414 89.2363 67.2625 90.0574 67.2625 91.0707V93.9325C67.2625 94.9458 66.4414 95.7668 65.4281 95.7668Z" fill="#F4A733"/>
<path d="M70.6176 96.7105C69.6043 96.7105 68.7832 95.8894 68.7832 94.8761V91.0707C68.7832 90.0574 69.6043 89.2363 70.6176 89.2363C71.6309 89.2363 72.4519 90.0574 72.4519 91.0707V94.8761C72.4519 95.8894 71.6309 96.7105 70.6176 96.7105Z" fill="#F4A733"/>
<g style="mix-blend-mode:screen" opacity="0.4">
<path d="M67.2615 91.0707V93.9325C67.2615 94.9449 66.4414 95.7668 65.4272 95.7668C65.2984 95.7668 65.1705 95.7536 65.0488 95.7271C65.8796 95.5525 66.5031 94.8144 66.5031 93.9325V91.0707C66.5031 90.1888 65.8796 89.4506 65.0488 89.276C65.1705 89.2496 65.2984 89.2363 65.4272 89.2363C66.4414 89.2363 67.2615 90.0583 67.2615 91.0707Z" fill="#F89D44"/>
</g>
<g style="mix-blend-mode:screen" opacity="0.4">
<path d="M72.4508 91.0707V94.8761C72.4508 95.8885 71.6289 96.7105 70.6164 96.7105C70.4859 96.7105 70.3598 96.6972 70.2363 96.6708C71.068 96.4962 71.6906 95.758 71.6906 94.8761V91.0707C71.6906 90.1888 71.068 89.4506 70.2363 89.276C70.3598 89.2496 70.4859 89.2363 70.6164 89.2363C71.6289 89.2363 72.4508 90.0583 72.4508 91.0707Z" fill="#F89D44"/>
</g>
<path d="M75.3452 88.2084C75.3452 89.8285 74.0303 91.1434 72.4102 91.1434H39.3256C37.7055 91.1434 36.3906 89.8285 36.3906 88.2084C36.3906 86.5884 37.7055 85.2734 39.3256 85.2734H72.4102C74.0303 85.2734 75.3452 86.5866 75.3452 88.2084Z" fill="#F4A733"/>
<g style="mix-blend-mode:screen" opacity="0.4">
<path d="M75.3452 88.2084C75.3452 88.3848 75.3293 88.5559 75.2994 88.7217C75.0568 87.345 73.8539 86.3009 72.4102 86.3009H39.3256C37.8819 86.3009 36.6781 87.3459 36.4365 88.7217C36.4074 88.5559 36.3906 88.3839 36.3906 88.2084C36.3906 86.5866 37.7055 85.2734 39.3256 85.2734H72.4102C74.0303 85.2734 75.3452 86.5866 75.3452 88.2084Z" fill="#F89D44"/>
</g>
<g style="mix-blend-mode:multiply" opacity="0.7">
<path d="M50.9152 88.2089C50.9152 89.223 50.7846 90.2064 50.5377 91.1438H49.4741C48.2033 95.5489 44.1404 98.7714 39.3243 98.7714C33.4914 98.7714 28.7617 94.0418 28.7617 88.2089C28.7617 82.3759 33.4914 77.6445 39.3243 77.6445C44.1404 77.6445 48.2033 80.867 49.4741 85.2739H50.5377C50.7846 86.2113 50.9152 87.1947 50.9152 88.2089Z" fill="#DD6E00" fill-opacity="0.5"/>
</g>
<path d="M49.475 85.2739C48.2051 80.867 44.1412 77.6445 39.3252 77.6445C33.4914 77.6445 28.7617 82.3742 28.7617 88.2089C28.7617 94.0435 33.4914 98.7705 39.3252 98.7705C44.1412 98.7705 48.2051 95.5481 49.475 91.1438C49.7449 90.2117 49.8886 89.2266 49.8886 88.2089C49.8886 87.1911 49.7449 86.2052 49.475 85.2739Z" fill="#F4A733"/>
<path d="M32.7326 90.4721C31.4821 90.4721 30.4688 89.4597 30.4688 88.2083C30.4688 86.9569 31.4829 85.9453 32.7326 85.9453C33.9823 85.9453 34.9964 86.9577 34.9964 88.2083C34.9964 89.4588 33.9823 90.4721 32.7326 90.4721Z" fill="white"/>
<g style="mix-blend-mode:screen" opacity="0.4">
<path d="M49.8897 88.2089V88.2794C49.8826 87.2864 49.7398 86.3251 49.4761 85.415C48.2053 81.0081 44.1423 77.7856 39.3262 77.7856C33.5171 77.7856 28.8016 82.4774 28.7654 88.2794C28.7637 88.2556 28.7637 88.2327 28.7637 88.2089C28.7637 82.3742 33.4933 77.6445 39.3262 77.6445C44.1423 77.6445 48.2053 80.867 49.4761 85.2739C49.7459 86.2061 49.8897 87.1903 49.8897 88.2089Z" fill="#FEB103"/>
</g>
<path d="M133.614 50.0273H128.281V52.2048H133.614V50.0273Z" fill="#414141"/>
<path d="M132.553 32.168H131.75V43.0877H132.553V32.168Z" fill="#E6E7E8"/>
<path d="M132.553 44.2266H131.75V45.2381H132.553V44.2266Z" fill="#E6E7E8"/>
</g>
<defs>
<linearGradient id="paint0_linear_985_80468" x1="84.232" y1="100.497" x2="84.232" y2="1.86512" gradientUnits="userSpaceOnUse">
<stop stop-color="#F78D8D"/>
<stop offset="1" stop-color="white"/>
</linearGradient>
<linearGradient id="paint1_linear_985_80468" x1="140.192" y1="62.543" x2="140.192" y2="99.4119" gradientUnits="userSpaceOnUse">
<stop stop-color="#EA6544"/>
<stop offset="1" stop-color="#D12A1E"/>
</linearGradient>
<linearGradient id="paint2_linear_985_80468" x1="57.0054" y1="18.5254" x2="57.0054" y2="29.1162" gradientUnits="userSpaceOnUse">
<stop stop-color="#EA6544"/>
<stop offset="1" stop-color="#D12A1E"/>
</linearGradient>
<clipPath id="clip0_985_80468">
<rect width="169" height="100" fill="white" transform="translate(0 0.71875)"/>
</clipPath>
</defs>
</svg>
