<svg width="14" height="14" viewBox="0 0 14 14" fill="none" xmlns="http://www.w3.org/2000/svg">
<mask id="mask0" style="mask-type:alpha" maskUnits="userSpaceOnUse" x="0" y="0" width="14" height="14">
<rect y="14" width="14" height="14" transform="rotate(-90 0 14)" fill="#C4C4C4"/>
</mask>
<g mask="url(#mask0)">
<path d="M4.97745 1.74245C5.13056 1.74035 5.27987 1.78799 5.40127 1.87767L11.9927 6.8502C12.0718 6.90993 12.136 6.98597 12.1805 7.07272C12.225 7.15947 12.2487 7.25474 12.25 7.35152C12.2512 7.44829 12.2298 7.54413 12.1875 7.63197C12.1452 7.71981 12.083 7.79743 12.0054 7.85913L5.56818 12.9684C5.49986 13.0225 5.42114 13.0632 5.33652 13.088C5.2519 13.1129 5.16304 13.1214 5.07501 13.1132C4.89724 13.0967 4.73364 13.0129 4.62021 12.8802C4.50679 12.7475 4.45282 12.5769 4.47019 12.4058C4.48757 12.2347 4.57485 12.0772 4.71284 11.968L10.5036 7.37273L4.56984 2.89929C4.46018 2.8167 4.37991 2.70336 4.34013 2.57492C4.30035 2.44648 4.30302 2.30929 4.34777 2.18229C4.39251 2.0553 4.47713 1.94477 4.58993 1.86598C4.70272 1.78719 4.83813 1.74402 4.97745 1.74245Z" fill="#985801" stroke="#985801" stroke-width="0.2"/>
</g>
</svg>
