<svg width="15" height="11" viewBox="0 0 15 11" fill="none" xmlns="http://www.w3.org/2000/svg">
<path d="M14.0086 1.68851C14.011 1.86349 13.9566 2.03414 13.8541 2.17288L8.1712 9.70598C8.10293 9.79637 8.01604 9.86969 7.91689 9.92057C7.81774 9.97144 7.70887 9.99856 7.59827 9.99995C7.48766 10.0013 7.37814 9.97695 7.27775 9.92859C7.17736 9.88022 7.08865 9.8091 7.01814 9.72045L1.17893 2.36364C1.1171 2.28555 1.07066 2.19558 1.04227 2.09888C1.01387 2.00217 1.00408 1.90062 1.01344 1.80002C1.03235 1.59684 1.12816 1.40987 1.27978 1.28024C1.4314 1.15061 1.62642 1.08894 1.82193 1.10879C2.01745 1.12865 2.19744 1.2284 2.32231 1.3861L7.57403 8.00411L12.6865 1.22267C12.7809 1.09735 12.9104 1.00562 13.0572 0.960152C13.204 0.914689 13.3608 0.917737 13.506 0.968876C13.6511 1.02001 13.7774 1.11672 13.8675 1.24563C13.9575 1.37454 14.0068 1.5293 14.0086 1.68851Z" fill="#727272" stroke="#727272" stroke-width="0.2"/>
</svg>
