<svg width="18" height="20" viewBox="0 0 18 20" fill="none" xmlns="http://www.w3.org/2000/svg">
<path d="M16.3591 11.0728C16.0511 10.7169 15.7043 10.358 15.3245 10C15.7043 9.64209 16.0511 9.28317 16.3591 8.9272C17.0011 8.18532 17.4471 7.48937 17.6848 6.85864C17.9595 6.12936 17.9513 5.50403 17.6603 5.00001C17.3694 4.49599 16.8319 4.1762 16.063 4.04952C15.3978 3.93996 14.5722 3.97822 13.6087 4.16326C13.1464 4.25205 12.6622 4.37289 12.1623 4.52285C12.053 4.06046 11.9291 3.62174 11.7914 3.21119C12.0054 3.0073 12.1391 2.71998 12.1391 2.40181C12.1391 1.78503 11.6373 1.28327 11.0206 1.28327C10.9802 1.28327 10.9403 1.28552 10.901 1.28974C10.8103 1.15225 10.7174 1.02455 10.6219 0.908137C10.1277 0.305536 9.58202 0 9.00002 0C8.41802 0 7.87242 0.305536 7.37823 0.908137C6.95083 1.42931 6.5711 2.16357 6.2496 3.09043C6.09535 3.5352 5.9579 4.01496 5.83782 4.52285C5.33793 4.37289 4.85371 4.25201 4.3914 4.16326C3.42793 3.97822 2.6022 3.93996 1.93716 4.04952C1.16821 4.1762 0.630774 4.49599 0.339796 5.00001C0.0488176 5.50403 0.0406024 6.12936 0.315363 6.85864C0.553007 7.48937 0.999009 8.18532 1.64098 8.9272C1.94903 9.28317 2.29581 9.64209 2.67563 10C2.44781 10.2147 2.23179 10.4297 2.0291 10.6443C1.92464 10.6119 1.81367 10.5944 1.6987 10.5944C1.08193 10.5944 0.580164 11.0962 0.580164 11.7129C0.580164 11.9231 0.638521 12.1199 0.739742 12.288C0.560073 12.5836 0.418159 12.8686 0.315363 13.1414C0.0405598 13.8707 0.0488176 14.496 0.339796 15C0.630774 15.504 1.16821 15.8238 1.93716 15.9505C2.18395 15.9911 2.45284 16.0114 2.74271 16.0114C3.23396 16.0114 3.78548 15.9531 4.39136 15.8367C4.85366 15.748 5.33789 15.6271 5.83778 15.4771C5.95786 15.9851 6.0953 16.4648 6.24956 16.9096C6.57106 17.8365 6.95079 18.5707 7.37819 19.0919C7.87237 19.6945 8.41802 20 9.00002 20C9.58202 20 10.1277 19.6945 10.6219 19.0919C11.0493 18.5707 11.429 17.8365 11.7505 16.9096C11.9048 16.4648 12.0422 15.9851 12.1623 15.4771C12.6026 15.6092 13.0307 15.7187 13.4423 15.8035C13.5568 16.2996 14.0017 16.6707 14.5321 16.6707C14.9885 16.6707 15.3817 16.3958 15.5554 16.0029C15.7333 15.9936 15.9033 15.9768 16.0629 15.9505C16.8319 15.8238 17.3693 15.504 17.6603 15C17.9513 14.496 17.9595 13.8707 17.6847 13.1414C17.4471 12.5107 17.0011 11.8147 16.3591 11.0728ZM13.7692 4.99929C15.4083 4.68451 16.5873 4.84397 16.9231 5.42567C17.2589 6.00737 16.8074 7.10811 15.7154 8.37014C15.4118 8.72101 15.068 9.07541 14.6896 9.42917C14.0772 8.90289 13.3976 8.38329 12.6667 7.88306C12.5989 6.99995 12.4888 6.15162 12.3392 5.35811C12.8348 5.20726 13.3136 5.0868 13.7692 4.99929ZM10.4477 12.5074C9.96532 12.7859 9.48127 13.0461 9.00007 13.2865C8.51882 13.0461 8.0348 12.7859 7.55241 12.5074C7.07001 12.2289 6.60264 11.9398 6.15392 11.6432C6.12144 11.1063 6.10475 10.557 6.10475 9.99998C6.10475 9.44292 6.12144 8.89366 6.15392 8.35673C6.60264 8.06014 7.07001 7.77107 7.55241 7.49252C8.0348 7.21402 8.51886 6.95381 9.00007 6.71349C9.48131 6.95381 9.96532 7.21402 10.4477 7.49252C10.9301 7.77103 11.3975 8.06014 11.8462 8.35673C11.8787 8.89366 11.8954 9.44292 11.8954 9.99998C11.8954 10.557 11.8787 11.1063 11.8462 11.6432C11.3975 11.9399 10.9302 12.2289 10.4477 12.5074ZM11.7589 12.7115C11.6994 13.2864 11.6207 13.8418 11.524 14.3717C11.0168 14.1905 10.4965 13.9809 9.96886 13.745C10.2705 13.5852 10.5724 13.4185 10.8734 13.2447C11.1744 13.0709 11.4697 12.8929 11.7589 12.7115ZM8.03123 13.745C7.50363 13.9809 6.98326 14.1905 6.47605 14.3717C6.37939 13.8419 6.30072 13.2864 6.24118 12.7115C6.53041 12.8929 6.82573 13.0709 7.12671 13.2447C7.42773 13.4185 7.72957 13.5852 8.03123 13.745ZM5.27234 11.0335C4.80429 10.6945 4.36259 10.3486 3.95204 9.99998C4.36259 9.65132 4.80433 9.30548 5.27234 8.96649C5.25987 9.30765 5.2534 9.65243 5.2534 9.99998C5.2534 10.3475 5.25991 10.6923 5.27234 11.0335ZM6.24118 7.28846C6.30072 6.71366 6.37934 6.15818 6.47605 5.62828C6.98326 5.80948 7.50363 6.01912 8.03123 6.25497C7.72957 6.41476 7.42773 6.58153 7.12671 6.75529C6.82573 6.92908 6.53041 7.10713 6.24118 7.28846ZM9.96886 6.25497C10.4965 6.01912 11.0168 5.80948 11.524 5.62828C11.6207 6.15813 11.6994 6.71362 11.7589 7.28846C11.4697 7.10709 11.1744 6.92908 10.8734 6.75529C10.5724 6.58153 10.2706 6.41476 9.96886 6.25497ZM12.7277 8.96653C13.1958 9.30552 13.6375 9.65137 14.048 10C13.6375 10.3487 13.1958 10.6945 12.7277 11.0335C12.7402 10.6924 12.7467 10.3476 12.7467 10C12.7467 9.65247 12.7402 9.30769 12.7277 8.96653ZM7.05388 3.36941C7.60081 1.79265 8.32834 0.851312 9.00002 0.851312C9.37996 0.851312 9.77778 1.15272 10.1507 1.69973C9.99529 1.89183 9.90199 2.13607 9.90199 2.40181C9.90199 3.01071 10.3911 3.50719 10.9971 3.51979C11.1285 3.91578 11.2465 4.33978 11.3505 4.78727C10.5885 5.05449 9.79872 5.38323 9.00002 5.76611C8.20132 5.38323 7.41156 5.05449 6.64959 4.78727C6.76678 4.28269 6.90184 3.80779 7.05388 3.36941ZM2.2847 8.37014C1.19264 7.10811 0.74119 6.00737 1.07703 5.42567C1.29931 5.04066 1.89089 4.84064 2.74079 4.84064C3.17496 4.84064 3.67664 4.89287 4.23084 4.99929C4.68651 5.0868 5.16529 5.20726 5.66088 5.35807C5.5113 6.15158 5.40114 6.99991 5.33338 7.88302C4.60244 8.38325 3.92288 8.90285 3.31045 9.42913C2.93208 9.07541 2.58832 8.72101 2.2847 8.37014ZM4.23089 15.0007C2.59194 15.3155 1.41292 15.1561 1.07707 14.5743C0.850498 14.1819 0.982749 13.5531 1.42769 12.7981C1.51452 12.8198 1.60523 12.8315 1.6987 12.8315C2.31548 12.8315 2.81724 12.3297 2.81724 11.7129C2.81724 11.5235 2.76974 11.345 2.68631 11.1885C2.88203 10.9829 3.09021 10.7768 3.31049 10.5708C3.92288 11.0971 4.60249 11.6166 5.33338 12.1169C5.40114 13 5.5113 13.8483 5.66088 14.6418C5.16533 14.7927 4.68655 14.9132 4.23089 15.0007ZM10.9462 16.6306C10.3993 18.2073 9.67175 19.1487 9.00007 19.1487C8.32838 19.1487 7.60085 18.2073 7.05392 16.6306C6.90188 16.1922 6.76682 15.7173 6.64964 15.2127C7.4116 14.9455 8.20136 14.6168 9.00007 14.2339C9.79877 14.6168 10.5885 14.9455 11.3505 15.2127C11.2333 15.7173 11.0983 16.1922 10.9462 16.6306ZM16.9231 14.5743C16.7295 14.9096 16.2555 15.1043 15.5752 15.1491C15.413 14.7309 15.0068 14.4335 14.532 14.4335C14.1313 14.4335 13.7793 14.6455 13.5817 14.963C13.1828 14.8797 12.7673 14.7722 12.3392 14.6419C12.4888 13.8484 12.5989 13 12.6667 12.1169C13.3976 11.6167 14.0772 11.0971 14.6896 10.5708C15.068 10.9246 15.4117 11.279 15.7153 11.6299C16.8074 12.8919 17.2589 13.9926 16.9231 14.5743Z" fill="#727272"/>
<path d="M9.00077 8.2336C8.02678 8.2336 7.23438 9.026 7.23438 10C7.23438 10.9741 8.02678 11.7664 9.00077 11.7664C9.97476 11.7664 10.7672 10.9741 10.7672 10C10.7672 9.026 9.9748 8.2336 9.00077 8.2336ZM9.00077 10.9151C8.4962 10.9151 8.08569 10.5046 8.08569 9.99998C8.08569 9.49537 8.4962 9.08487 9.00077 9.08487C9.50534 9.08487 9.91589 9.49537 9.91589 9.99998C9.91589 10.5046 9.50539 10.9151 9.00077 10.9151Z" fill="#727272"/>
</svg>
