<svg width="24" height="24" viewBox="0 0 24 24" fill="none" xmlns="http://www.w3.org/2000/svg">
<circle cx="12" cy="12" r="11.5" fill="url(#paint0_linear)" stroke="white"/>
<path d="M12.0016 9.60156C12.4762 9.60156 12.9403 9.74232 13.3349 10.006C13.7296 10.2698 14.0372 10.6446 14.2189 11.0831C14.4005 11.5217 14.4481 12.0042 14.3554 12.4698C14.2628 12.9353 14.0343 13.363 13.6986 13.6986C13.363 14.0343 12.9353 14.2628 12.4698 14.3554C12.0042 14.4481 11.5217 14.4005 11.0831 14.2189C10.6446 14.0372 10.2698 13.7296 10.006 13.3349C9.74232 12.9403 9.60156 12.4762 9.60156 12.0016C9.60156 11.365 9.85442 10.7546 10.3045 10.3045C10.7546 9.85442 11.365 9.60156 12.0016 9.60156V9.60156Z" fill="white"/>
<path d="M18 18H6C5.60218 18 5.22064 17.842 4.93934 17.5607C4.65804 17.2794 4.5 16.8978 4.5 16.5V7.5C4.5 7.10218 4.65804 6.72064 4.93934 6.43934C5.22064 6.15804 5.60218 6 6 6H8.3775L9.75 4.5H14.25L15.6225 6H18C18.3978 6 18.7794 6.15804 19.0607 6.43934C19.342 6.72064 19.5 7.10218 19.5 7.5V16.5C19.5 16.8978 19.342 17.2794 19.0607 17.5607C18.7794 17.842 18.3978 18 18 18ZM12 8.25C11.2583 8.25 10.5333 8.46993 9.91661 8.88199C9.29993 9.29404 8.81928 9.87971 8.53545 10.5649C8.25162 11.2502 8.17736 12.0042 8.32206 12.7316C8.46675 13.459 8.8239 14.1272 9.34835 14.6517C9.8728 15.1761 10.541 15.5333 11.2684 15.6779C11.9958 15.8226 12.7498 15.7484 13.4351 15.4645C14.1203 15.1807 14.706 14.7001 15.118 14.0834C15.5301 13.4667 15.75 12.7417 15.75 12C15.749 11.0057 15.3536 10.0525 14.6506 9.34945C13.9475 8.6464 12.9943 8.25099 12 8.25Z" fill="white"/>
<defs>
<linearGradient id="paint0_linear" x1="12" y1="0" x2="12" y2="24" gradientUnits="userSpaceOnUse">
<stop stop-color="#EA6544"/>
<stop offset="1" stop-color="#D12A1E"/>
</linearGradient>
</defs>
</svg>
