<svg width="24" height="24" viewBox="0 0 24 24" fill="none" xmlns="http://www.w3.org/2000/svg">
<mask id="mask0" mask-type="alpha" maskUnits="userSpaceOnUse" x="0" y="0" width="24" height="24">
<rect width="24" height="24" fill="#C4C4C4"/>
</mask>
<g mask="url(#mask0)">
<path d="M13.6304 12L20.9666 4.66378C21.4557 4.17469 21.4557 3.52258 20.9666 3.0335C20.4775 2.54442 19.8254 2.54442 19.3363 3.0335L12.0001 10.3697L4.66384 3.0335C4.17475 2.54442 3.52264 2.54442 3.03356 3.0335C2.54448 3.52258 2.54448 4.17469 3.03356 4.66378L10.3698 12L3.03356 19.3363C2.54448 19.8253 2.54448 20.4775 3.03356 20.9665C3.52264 21.4556 4.17475 21.4556 4.66384 20.9665L12.0001 13.6303L19.3363 20.9665C19.8254 21.4556 20.4775 21.4556 20.9666 20.9665C21.4557 20.4775 21.4557 19.8253 20.9666 19.3363L13.6304 12Z" fill="#727272"/>
</g>
</svg>
