<svg width="24" height="24" viewBox="0 0 24 24" fill="none" xmlns="http://www.w3.org/2000/svg">
<g clip-path="url(#clip0_17318_61630)">
<path d="M21.1709 6.24622L17.7693 2.8186L9.62891 10.9522L13.0304 14.38L21.1709 6.24622Z" fill="#727272"/>
<path d="M7.62109 16.4132L12.0692 14.9607L8.9584 12.1431L7.62109 16.4132Z" fill="#727272"/>
<path d="M23.3529 0.748167C23.1339 0.515682 22.8703 0.329639 22.5778 0.201133C22.2853 0.0726276 21.9699 0.00428995 21.6504 0.000195569C21.3309 -0.00389881 21.0138 0.0563341 20.7181 0.177302C20.4224 0.29827 20.1541 0.477496 19.9293 0.704293L18.582 2.06319L21.9544 5.43276L23.3189 4.0428C23.7494 3.60434 23.9933 3.01647 23.9996 2.40232C24.006 1.78818 23.7742 1.1954 23.3529 0.748167Z" fill="#727272"/>
<path d="M22.1875 12.8338L21.0257 12.8469L21.1128 20.545L21.1143 20.5808C21.1781 21.4496 21.0316 22.0971 20.691 22.4534C20.3663 22.7926 19.917 22.8175 19.7386 22.8119C19.4847 22.8049 19.2363 22.8034 18.9415 22.8034H4.34217C3.88581 22.8034 3.43662 22.8191 3.05834 22.8344C2.40908 22.8607 1.92299 22.7226 1.61493 22.4247C1.20965 22.0321 1.19462 21.4508 1.19564 21.3383V21.3212C1.19564 21.2748 1.19667 21.2284 1.19667 21.1819V5.93501C1.19667 5.45154 1.17958 4.9592 1.16506 4.53514C1.14558 3.99432 1.26142 3.59092 1.50934 3.33587C1.82645 3.0098 2.29529 2.99324 2.34484 2.99256H11.1396V1.83102H2.36551C2.22387 1.82828 1.35403 1.84297 0.691095 2.51046C0.202781 3.00229 -0.0289032 3.69762 0.00287652 4.57731C0.0184247 5.00973 0.0336309 5.47083 0.0336309 5.93501V21.1824C0.0336309 21.225 0.0336309 21.2676 0.0336309 21.3101V21.3272C0.031068 21.6022 0.0787381 22.5541 0.806254 23.2592C1.31422 23.7515 2.0202 24.0006 2.90628 24.0006C2.972 24.0006 3.03869 23.9992 3.10635 23.9963C3.47336 23.9817 3.90751 23.9665 4.34303 23.9665H18.9415C19.2265 23.9665 19.4657 23.9678 19.7063 23.9745C20.0398 23.984 20.8852 23.9325 21.5317 23.2566C22.1113 22.6506 22.3614 21.7282 22.2755 20.5144L22.1875 12.8338Z" fill="#727272"/>
</g>
<defs>
<clipPath id="clip0_17318_61630">
<rect width="24" height="24" fill="white"/>
</clipPath>
</defs>
</svg>
