<svg width="36" height="36" viewBox="0 0 36 36" fill="none" xmlns="http://www.w3.org/2000/svg">
<path d="M18 36C27.9411 36 36 27.9411 36 18C36 8.05887 27.9411 0 18 0C8.05887 0 0 8.05887 0 18C0 27.9411 8.05887 36 18 36Z" fill="url(#paint0_linear)"/>
<mask id="mask0" style="mask-type:alpha" maskUnits="userSpaceOnUse" x="7" y="7" width="22" height="22">
<rect x="7.7146" y="7.7146" width="20.5714" height="20.5714" fill="#C4C4C4"/>
</mask>
<g mask="url(#mask0)">
<path d="M25.314 11.1423H10.6861C10.2024 11.144 9.73906 11.3405 9.3979 11.6888C9.05673 12.037 8.86557 12.5085 8.86639 12.9998L8.85718 24.142C8.8586 24.6342 9.05173 25.1058 9.39441 25.4539C9.73708 25.8019 10.2014 25.998 10.6861 25.9995H25.314C25.7986 25.998 26.263 25.8019 26.6057 25.4539C26.9483 25.1058 27.1415 24.6342 27.1429 24.142V12.9998C27.1415 12.5076 26.9483 12.036 26.6057 11.688C26.263 11.3399 25.7986 11.1438 25.314 11.1423ZM25.314 14.8564L18 19.4988L10.6861 14.8564V12.9998L18 17.6422L25.314 12.9998V14.8564Z" fill="white"/>
</g>
<mask id="mask1" style="mask-type:alpha" maskUnits="userSpaceOnUse" x="7" y="7" width="22" height="22">
<rect x="7.7146" y="7.7146" width="20.5714" height="20.5714" fill="#C4C4C4"/>
</mask>
<g mask="url(#mask1)">
<path d="M25.314 11.1423H10.6861C10.2024 11.144 9.73906 11.3405 9.3979 11.6888C9.05673 12.037 8.86557 12.5085 8.86639 12.9998L8.85718 24.142C8.8586 24.6342 9.05173 25.1058 9.39441 25.4539C9.73708 25.8019 10.2014 25.998 10.6861 25.9995H25.314C25.7986 25.998 26.263 25.8019 26.6057 25.4539C26.9483 25.1058 27.1415 24.6342 27.1429 24.142V12.9998C27.1415 12.5076 26.9483 12.036 26.6057 11.688C26.263 11.3399 25.7986 11.1438 25.314 11.1423ZM25.314 14.8564L18 19.4988L10.6861 14.8564V12.9998L18 17.6422L25.314 12.9998V14.8564Z" fill="white"/>
</g>
<defs>
<linearGradient id="paint0_linear" x1="18" y1="0" x2="18" y2="36" gradientUnits="userSpaceOnUse">
<stop stop-color="#EA6544"/>
<stop offset="1" stop-color="#D12A1E"/>
</linearGradient>
</defs>
</svg>
