<svg width="18" height="18" viewBox="0 0 18 18" fill="none" xmlns="http://www.w3.org/2000/svg">
<mask id="mask0" style="mask-type:alpha" maskUnits="userSpaceOnUse" x="0" y="0" width="18" height="18">
<rect width="18" height="18" fill="#C4C4C4"/>
</mask>
<g mask="url(#mask0)">
<path d="M9.66975 8.71479L11.8806 10.3729L11.8806 10.3729L11.8506 10.4129C12.1245 10.618 12.1803 11.0066 11.9745 11.2799L9.66975 8.71479ZM9.66975 8.71479V5.3316C9.66975 4.9613 9.37036 4.66191 9.00006 4.66191C8.62976 4.66191 8.33037 4.9613 8.33037 5.3316V9.04966C8.33037 9.26047 8.4294 9.4594 8.59825 9.58541L9.66975 8.71479ZM11.4781 11.5784C11.682 11.5784 11.8831 11.4867 12.0145 11.3098L8.59835 9.58549L11.0769 11.4444C11.1974 11.5348 11.3382 11.5784 11.4781 11.5784Z" fill="#727272" stroke="#727272" stroke-width="0.1"/>
<path d="M9 0.95C4.56092 0.95 0.95 4.56092 0.95 9C0.95 13.4391 4.56092 17.05 9 17.05C13.4391 17.05 17.05 13.4391 17.05 9C17.05 4.56092 13.4391 0.95 9 0.95ZM9 15.7107C5.30027 15.7107 2.28934 12.6997 2.28934 9C2.28934 5.30027 5.30027 2.28934 9 2.28934C12.7004 2.28934 15.7107 5.30027 15.7107 9C15.7107 12.6997 12.6997 15.7107 9 15.7107Z" fill="#727272" stroke="#727272" stroke-width="0.1"/>
</g>
</svg>
