<svg width="16" height="18" viewBox="0 0 16 18" fill="none" xmlns="http://www.w3.org/2000/svg">
<path d="M14.5998 5.24536V5.25363H11.8105C11.5953 5.25374 11.3822 5.21084 11.1833 5.12739C10.9845 5.04394 10.8038 4.92158 10.6516 4.76729C10.4994 4.613 10.3787 4.42981 10.2964 4.2282C10.2141 4.02659 10.1718 3.81051 10.1719 3.59231V0.772705H10.18L14.5998 5.24536Z" fill="white"/>
<path d="M14.418 5.34701V15.3946C14.418 15.8193 14.2326 16.2267 13.9026 16.5275C13.5726 16.8283 13.1247 16.9981 12.6572 16.9996H2.80746C2.57506 17.0001 2.34482 16.959 2.12994 16.8786C1.91506 16.7981 1.71975 16.68 1.55521 16.5309C1.39067 16.3818 1.26013 16.2047 1.17105 16.0097C1.08198 15.8147 1.03613 15.6057 1.03613 15.3946V2.54883C1.03579 2.33752 1.08138 2.12822 1.17029 1.93295C1.25921 1.73768 1.3897 1.56029 1.55428 1.41094C1.71885 1.2616 1.91427 1.14324 2.12933 1.06266C2.34438 0.982091 2.57484 0.940885 2.80746 0.941411H9.5512L9.63923 0.949409V3.67482C9.63912 3.88573 9.68476 4.09459 9.77356 4.28946C9.86236 4.48434 9.99257 4.6614 10.1568 4.81054C10.3209 4.95967 10.5159 5.07795 10.7304 5.15862C10.9449 5.23928 11.1749 5.28074 11.407 5.28064H14.418V5.34461V5.34701Z" fill="#FFC76F"/>
<path fill-rule="evenodd" clip-rule="evenodd" d="M7.72744 11.9443L5.76563 12.9317C5.6863 12.9716 5.59688 12.9895 5.50748 12.9833C5.41809 12.9772 5.33228 12.9472 5.25977 12.8967C5.18725 12.8463 5.13092 12.7774 5.09714 12.698C5.06336 12.6185 5.05348 12.5315 5.06862 12.447L5.4433 10.3552L3.8581 8.87384C3.79387 8.81395 3.74843 8.73805 3.72692 8.65472C3.70541 8.57139 3.70869 8.48396 3.73638 8.40232C3.76407 8.32068 3.81507 8.24808 3.88361 8.19275C3.95215 8.13742 4.0355 8.10156 4.12422 8.08922L6.31757 7.78384L7.29511 5.88115C7.3348 5.80426 7.39616 5.73952 7.47226 5.69425C7.54836 5.64899 7.63617 5.625 7.72576 5.625C7.81534 5.625 7.90315 5.64899 7.97925 5.69425C8.05535 5.73952 8.11671 5.80426 8.1564 5.88115L9.13731 7.7843L11.3307 8.08968C11.4194 8.10202 11.5027 8.13788 11.5713 8.19321C11.6398 8.24854 11.6908 8.32114 11.7185 8.40278C11.7462 8.48442 11.7495 8.57185 11.728 8.65518C11.7064 8.73851 11.661 8.81441 11.5968 8.8743L10.0116 10.3557L10.3863 12.4474C10.4014 12.532 10.3915 12.6189 10.3577 12.6984C10.324 12.7779 10.2676 12.8468 10.1951 12.8972C10.1226 12.9476 10.0368 12.9776 9.94739 12.9838C9.85799 12.99 9.76858 12.9721 9.68925 12.9322L7.72744 11.9443Z" fill="url(#paint0_linear)"/>
<path d="M10.0339 0.396649L10.0294 0.392682C9.98677 0.354482 9.93574 0.324183 9.87939 0.303598C9.82304 0.283014 9.76251 0.272566 9.70142 0.27288C9.68614 0.272194 9.67082 0.273531 9.656 0.276847C9.64237 0.276847 9.6242 0.27288 9.61057 0.27288H2.65123C2.35149 0.272567 2.05462 0.32384 1.77758 0.423768C1.50054 0.523696 1.24877 0.670321 1.03665 0.855262C0.824538 1.0402 0.656235 1.25983 0.541364 1.5016C0.426493 1.74337 0.367307 2.00254 0.367188 2.2643L0.367188 15.0086C0.367428 15.5367 0.607762 16.0431 1.03537 16.4165C1.46298 16.7899 2.04287 16.9998 2.6476 17H12.8068C13.4115 16.9998 13.9914 16.7899 14.419 16.4165C14.8466 16.0431 15.0869 15.5367 15.0872 15.0086V4.96421C15.0861 4.85868 15.0386 4.75755 14.9545 4.68176L10.0339 0.396649ZM10.1566 1.6272L13.5409 4.57386H11.5258C11.1632 4.57302 10.8157 4.44687 10.5593 4.22297C10.3029 3.99908 10.1585 3.69565 10.1575 3.37901L10.1566 1.6272ZM14.1768 15.0038C14.1759 15.3196 14.0322 15.6223 13.777 15.8461C13.5218 16.0699 13.1757 16.1966 12.814 16.1987H2.65123C2.28864 16.1978 1.94118 16.0717 1.6848 15.8478C1.42841 15.6239 1.28394 15.3204 1.28299 15.0038V2.25636C1.28538 1.94055 1.43047 1.63834 1.68671 1.41547C1.94294 1.1926 2.28958 1.0671 2.65123 1.06627H9.24534V3.37901C9.24558 3.9071 9.48592 4.41351 9.91352 4.78692C10.3411 5.16034 10.921 5.37022 11.5258 5.37043H14.1768V15.0038Z" fill="#985801" stroke="#985801" stroke-width="0.2"/>
<defs>
<linearGradient id="paint0_linear" x1="7.72744" y1="5.625" x2="7.72744" y2="12.985" gradientUnits="userSpaceOnUse">
<stop stop-color="#E1590A"/>
<stop offset="1" stop-color="#C23102"/>
</linearGradient>
</defs>
</svg>
