<svg width="287" height="106" viewBox="0 0 287 106" fill="none" xmlns="http://www.w3.org/2000/svg">
<path d="M287 87C287 72.7295 222.753 46 143.5 46C64.2471 46 0 72.7295 0 87C0 87 64.2471 87 143.5 87C222.753 87 287 87 287 87Z" fill="url(#paint0_linear_535_46591)" fill-opacity="0.15"/>
<path d="M181 97.8533C181 92.4115 161.972 90 138.5 90C115.028 90 96 92.4115 96 97.8533C96 103.295 115.028 106 138.5 106C161.972 106 181 103.295 181 97.8533Z" fill="#F78D8D" fill-opacity="0.15"/>
<path d="M162.404 40.0353L161.749 40.2619C165.433 38.9867 167.406 34.9988 166.207 31.3072C164.97 27.4978 158.711 26.6479 154.926 27.958L137.373 33.5817C136.661 33.828 135.929 33.2653 135.985 32.5142L136.554 24.848C136.586 24.4219 136.576 23.9938 136.526 23.5692L136.123 20.1585C135.336 13.4968 128.592 9.26929 122.253 11.4635C120.305 12.1376 119.048 14.0293 119.18 16.0858L119.773 25.344C119.816 26.0156 119.774 26.6899 119.648 27.351L116.589 43.435C116.504 43.907 116.1 45.6969 115.632 47.0137C115.257 48.0718 114.421 48.9341 113.701 49.7953C112.331 51.4325 111.902 53.6597 112.565 55.6887L120.47 79.8916C121.536 83.1533 124.563 85.3724 127.994 85.4072L129.09 85.4184C129.339 85.4209 129.585 85.4349 129.832 85.4574C131.542 85.6129 138.841 86.1932 144.496 85.3489C150.944 84.3862 153.935 82.9599 156.377 82.1146L170.68 75.1682C173.684 74.1285 175.408 70.8944 174.451 67.8631C173.458 64.7181 170.074 63.0311 166.978 64.1028L169.034 63.3912C172.061 62.3432 173.666 59.0391 172.618 56.0115C171.57 52.9839 168.266 51.3791 165.239 52.4271L166.662 51.9344C170.016 50.7735 171.766 47.0718 170.506 43.7292C169.291 40.508 165.658 38.909 162.404 40.0353Z" fill="url(#paint1_linear_535_46591)"/>
<path opacity="0.2" d="M137.896 33.8065L132.544 37.0823C132.023 37.4015 131.235 37.0604 130.781 36.3188C130.328 35.5789 130.382 34.7209 130.903 34.4017L134.692 32.083C135.314 31.7021 136.113 32.15 136.113 32.8798C136.113 32.9588 136.121 33.0386 136.152 33.1113C136.419 33.7388 137.469 34.0682 137.896 33.8065Z" fill="#9D031B" fill-opacity="0.5"/>
<path opacity="0.2" d="M162.404 40.0348C163.905 39.5153 164.062 41.1237 162.561 41.6432L155.716 44.0126C154.894 44.297 154.002 43.8633 153.717 43.0416C153.433 42.2219 153.866 41.327 154.688 41.0426L160.894 38.8946C162.412 38.3688 163.267 39.7359 161.748 40.2617L162.404 40.0348Z" fill="#9D031B" fill-opacity="0.5"/>
<path opacity="0.2" d="M165.241 52.4272C166.723 51.9141 166.856 53.5309 165.374 54.044L158.615 56.3837C157.793 56.6681 156.899 56.2325 156.616 55.4127C156.332 54.593 156.765 53.6981 157.587 53.4137L165.787 50.5753C167.284 50.0569 168.162 51.4159 166.664 51.9343L165.241 52.4272Z" fill="#9D031B" fill-opacity="0.5"/>
<path opacity="0.2" d="M166.981 64.1021C168.464 63.5887 168.599 65.2051 167.115 65.7185L159.935 68.204C159.113 68.4884 158.22 68.0528 157.936 67.233C157.652 66.4133 158.085 65.5184 158.907 65.234L168.141 62.0376C169.623 61.5245 170.518 62.8776 169.036 63.3908L166.981 64.1021Z" fill="#9D031B" fill-opacity="0.5"/>
<rect x="89.1562" y="52.082" width="23" height="48.1397" rx="8" transform="rotate(-17.6538 89.1562 52.082)" fill="url(#paint2_linear_535_46591)"/>
<circle cx="117" cy="86.3132" r="2.5" transform="rotate(-4.09324 117 86.3132)" fill="white"/>
<path d="M173.5 97C182.613 97 190 89.6127 190 80.5C190 71.3873 182.613 64 173.5 64C164.387 64 157 71.3873 157 80.5C157 89.6127 164.387 97 173.5 97Z" fill="url(#paint3_linear_535_46591)"/>
<path d="M171.294 87C170.827 87 170.36 86.8153 170.004 86.4457L166.534 82.8459C165.822 82.1069 165.822 80.9087 166.534 80.1695C167.247 79.4304 168.402 79.4304 169.114 80.1695L171.013 82.1395C171.168 82.3006 171.42 82.3006 171.575 82.1395L178.886 74.5542C179.599 73.8152 180.754 73.8153 181.466 74.5542C182.178 75.2933 182.178 76.4916 181.466 77.2306L172.584 86.4457C172.228 86.8152 171.761 87 171.294 87Z" fill="#F8F3F1"/>
<defs>
<linearGradient id="paint0_linear_535_46591" x1="143.03" y1="44.5561" x2="143.03" y2="86.7901" gradientUnits="userSpaceOnUse">
<stop stop-color="#F78D8D"/>
<stop offset="1" stop-color="white"/>
</linearGradient>
<linearGradient id="paint1_linear_535_46591" x1="134.999" y1="29.4996" x2="159.815" y2="148.143" gradientUnits="userSpaceOnUse">
<stop stop-color="#FFC59A"/>
<stop offset="0.774583" stop-color="#FF826E"/>
<stop offset="1" stop-color="#FF7062"/>
</linearGradient>
<linearGradient id="paint2_linear_535_46591" x1="63.6963" y1="-8.57782" x2="97.0941" y2="99.2082" gradientUnits="userSpaceOnUse">
<stop stop-color="#FFC59A"/>
<stop offset="1" stop-color="#F95849"/>
</linearGradient>
<linearGradient id="paint3_linear_535_46591" x1="190" y1="77.5" x2="154.5" y2="76.5" gradientUnits="userSpaceOnUse">
<stop stop-color="#2DAA00"/>
<stop offset="1" stop-color="#35C800"/>
</linearGradient>
</defs>
</svg>
