<svg width="22" height="22" viewBox="0 0 22 22" fill="none" xmlns="http://www.w3.org/2000/svg">
<mask id="mask0_496_25883" style="mask-type:alpha" maskUnits="userSpaceOnUse" x="0" y="0" width="22" height="22">
<rect x="0.875" y="0.875" width="20.25" height="20.25" fill="#C4C4C4"/>
</mask>
<g mask="url(#mask0_496_25883)">
<path d="M12.3755 11L18.5655 4.81004C18.9782 4.39738 18.9782 3.84716 18.5655 3.4345C18.1528 3.02183 17.6026 3.02183 17.19 3.4345L11 9.62445L4.81004 3.4345C4.39738 3.02183 3.84716 3.02183 3.4345 3.4345C3.02183 3.84716 3.02183 4.39738 3.4345 4.81004L9.62445 11L3.4345 17.19C3.02183 17.6026 3.02183 18.1528 3.4345 18.5655C3.84716 18.9782 4.39738 18.9782 4.81004 18.5655L11 12.3755L17.19 18.5655C17.6026 18.9782 18.1528 18.9782 18.5655 18.5655C18.9782 18.1528 18.9782 17.6026 18.5655 17.19L12.3755 11Z" fill="white"/>
</g>
</svg>
