<svg width="287" height="97" viewBox="0 0 287 97" fill="none" xmlns="http://www.w3.org/2000/svg">
<path d="M287 78C287 63.7295 222.753 37 143.5 37C64.2471 37 0 63.7295 0 78C0 78 64.2471 78 143.5 78C222.753 78 287 78 287 78Z" fill="url(#paint0_linear_538_47251)" fill-opacity="0.15"/>
<path d="M186 88.8533C186 83.4115 166.972 81 143.5 81C120.028 81 101 83.4115 101 88.8533C101 94.2951 120.028 97 143.5 97C166.972 97 186 94.2951 186 88.8533Z" fill="#F78D8D" fill-opacity="0.15"/>
<path d="M110.095 88.1174C107.601 85.6378 105.196 83.2467 102.672 80.7376C106.324 77.1658 110.095 73.4759 113.836 69.8155C101.365 53.1666 105.611 30.9682 119.745 19.2195C133.285 7.94314 153.298 7.73651 167.135 19.0129C174.796 25.2709 179.279 33.3592 180.467 43.1891C181.655 52.9895 179.131 61.8453 173.311 69.845C177.023 73.5644 180.705 77.2543 184.327 80.8852C181.922 83.2762 179.517 85.6673 177.052 88.1174C173.46 84.4865 169.778 80.8262 166.096 77.0772C159.296 82.0069 151.873 84.5456 143.589 84.5456C135.334 84.5456 127.881 82.0069 121.171 77.0772C117.429 80.8262 113.747 84.4865 110.095 88.1174ZM139.046 30.2007C139.046 38.1413 139.046 45.9344 139.046 53.757C141.985 53.757 144.806 53.757 147.597 53.757C147.597 45.8459 147.597 38.0528 147.597 30.2007C144.717 30.2007 141.926 30.2007 139.046 30.2007ZM138.957 58.1554C138.957 59.5723 138.957 60.8711 138.957 62.1405C138.957 64.4135 138.957 64.4135 141.213 64.4135C143.351 64.4135 145.489 64.4135 147.627 64.4135C147.627 62.229 147.627 60.1922 147.627 58.1554C144.717 58.1554 141.926 58.1554 138.957 58.1554Z" fill="url(#paint1_linear_538_47251)"/>
<path d="M103.505 24.1202C98.0707 18.1573 99.11 8.35691 105.553 3.22056C112.383 -2.21098 121.736 -0.233192 126.041 5.28691C118.559 11.545 111.046 17.8031 103.505 24.1202Z" fill="url(#paint2_linear_538_47251)"/>
<path d="M183.471 24.0895C175.929 17.8019 168.476 11.5439 160.875 5.22673C164.527 1.27116 168.892 -0.559037 174.148 0.149425C179.967 0.946444 183.976 4.19356 186.084 9.6251C187.985 14.4958 186.856 20.6653 183.471 24.0895Z" fill="url(#paint3_linear_538_47251)"/>
<path d="M139.047 30.1992C141.897 30.1992 144.718 30.1992 147.598 30.1992C147.598 38.0218 147.598 45.8444 147.598 53.7556C144.807 53.7556 141.957 53.7556 139.047 53.7556C139.047 45.9625 139.047 38.1399 139.047 30.1992Z" fill="white"/>
<path d="M138.961 58.1543C141.93 58.1543 144.721 58.1543 147.631 58.1543C147.631 60.1911 147.631 62.228 147.631 64.4124C145.493 64.4124 143.355 64.4124 141.218 64.4124C138.961 64.4124 138.961 64.4124 138.961 62.1394C138.961 60.8405 138.961 59.5712 138.961 58.1543Z" fill="white"/>
<defs>
<linearGradient id="paint0_linear_538_47251" x1="143.03" y1="35.5561" x2="143.03" y2="77.7901" gradientUnits="userSpaceOnUse">
<stop stop-color="#F78D8D"/>
<stop offset="1" stop-color="white"/>
</linearGradient>
<linearGradient id="paint1_linear_538_47251" x1="143.5" y1="10.6582" x2="143.5" y2="88.1174" gradientUnits="userSpaceOnUse">
<stop stop-color="#FFBF74"/>
<stop offset="1" stop-color="#F4973B"/>
</linearGradient>
<linearGradient id="paint2_linear_538_47251" x1="100" y1="0.00976562" x2="126.475" y2="0.157821" gradientUnits="userSpaceOnUse">
<stop stop-color="#EA6544"/>
<stop offset="1" stop-color="#D12A1E"/>
</linearGradient>
<linearGradient id="paint3_linear_538_47251" x1="160.875" y1="0" x2="187.439" y2="0.149182" gradientUnits="userSpaceOnUse">
<stop stop-color="#EA6544"/>
<stop offset="1" stop-color="#D12A1E"/>
</linearGradient>
</defs>
</svg>
