<svg width="56" height="56" viewBox="0 0 56 56" fill="none" xmlns="http://www.w3.org/2000/svg">
<path d="M28 56C43.464 56 56 43.464 56 28C56 12.536 43.464 0 28 0C12.536 0 0 12.536 0 28C0 43.464 12.536 56 28 56Z" fill="url(#paint0_linear)"/>
<mask id="mask0" style="mask-type:alpha" maskUnits="userSpaceOnUse" x="11" y="12" width="33" height="32">
<rect x="11.9998" y="12" width="32" height="32" fill="#C4C4C4"/>
</mask>
<g mask="url(#mask0)">
<path d="M39.3771 17.3333H16.6224C15.87 17.3358 15.1493 17.6415 14.6186 18.1832C14.0879 18.725 13.7906 19.4584 13.7919 20.2226L13.7775 37.555C13.7797 38.3206 14.0802 39.0542 14.6132 39.5956C15.1463 40.137 15.8686 40.4421 16.6224 40.4444H39.3771C40.1309 40.4421 40.8532 40.137 41.3863 39.5956C41.9193 39.0542 42.2198 38.3206 42.222 37.555V20.2226C42.2198 19.457 41.9193 18.7234 41.3863 18.182C40.8532 17.6406 40.1309 17.3355 39.3771 17.3333ZM39.3771 23.1107L27.9997 30.3323L16.6224 23.1107V20.2226L27.9997 27.4441L39.3771 20.2226V23.1107Z" fill="white"/>
</g>
<mask id="mask1" style="mask-type:alpha" maskUnits="userSpaceOnUse" x="11" y="12" width="33" height="32">
<rect x="11.9998" y="12" width="32" height="32" fill="#C4C4C4"/>
</mask>
<g mask="url(#mask1)">
<path d="M39.3771 17.3333H16.6224C15.87 17.3358 15.1493 17.6415 14.6186 18.1832C14.0879 18.725 13.7906 19.4584 13.7919 20.2226L13.7775 37.555C13.7797 38.3206 14.0802 39.0542 14.6132 39.5956C15.1463 40.137 15.8686 40.4421 16.6224 40.4444H39.3771C40.1309 40.4421 40.8532 40.137 41.3863 39.5956C41.9193 39.0542 42.2198 38.3206 42.222 37.555V20.2226C42.2198 19.457 41.9193 18.7234 41.3863 18.182C40.8532 17.6406 40.1309 17.3355 39.3771 17.3333ZM39.3771 23.1107L27.9997 30.3323L16.6224 23.1107V20.2226L27.9997 27.4441L39.3771 20.2226V23.1107Z" fill="white"/>
</g>
<defs>
<linearGradient id="paint0_linear" x1="28" y1="0" x2="28" y2="56" gradientUnits="userSpaceOnUse">
<stop stop-color="#EA6544"/>
<stop offset="1" stop-color="#D12A1E"/>
</linearGradient>
</defs>
</svg>
