<svg width="18" height="18" viewBox="0 0 18 18" fill="none" xmlns="http://www.w3.org/2000/svg">
<mask id="mask0" style="mask-type:alpha" maskUnits="userSpaceOnUse" x="0" y="0" width="18" height="18">
<rect width="18" height="18" fill="#C4C4C4"/>
</mask>
<g mask="url(#mask0)">
<path d="M16.1667 12.4163C15.1631 12.4172 14.1653 12.2636 13.2084 11.961C13.0643 11.9104 12.9086 11.9031 12.7605 11.9401C12.6124 11.9771 12.4784 12.0567 12.3751 12.1691L10.5414 14.0021C8.17092 12.7985 6.24461 10.8723 5.04098 8.50188L6.87468 6.66892C6.97864 6.56 7.05249 6.42592 7.08898 6.27984C7.12547 6.13376 7.12335 5.98071 7.08283 5.8357C6.74829 4.87105 6.57917 3.85682 6.58261 2.83583C6.58262 2.61471 6.495 2.40261 6.33895 2.24595C6.18289 2.0893 5.97112 2.00086 5.75 2H2.83327C2.61248 2.00069 2.40094 2.08869 2.24482 2.2448C2.0887 2.40092 2.00069 2.61245 2.00001 2.83322C1.99838 4.69403 2.3637 6.5369 3.07506 8.25638C3.78642 9.97587 4.82986 11.5382 6.14568 12.854C7.4615 14.1699 9.02387 15.2133 10.7434 15.9247C12.4629 16.6361 14.3058 17.0015 16.1667 17C16.3875 16.9993 16.5991 16.9113 16.7552 16.7552C16.9113 16.5991 16.9993 16.3875 17 16.1668V13.2528C17.0002 13.0314 16.9125 12.8191 16.7563 12.6622C16.6001 12.5054 16.3881 12.417 16.1667 12.4163Z" fill="#727272"/>
</g>
</svg>
