<svg width="24" height="24" viewBox="0 0 24 24" fill="none" xmlns="http://www.w3.org/2000/svg">
<path d="M12.0026 22.6654C17.8379 22.6654 22.6693 17.8235 22.6693 11.9987C22.6693 6.1634 17.8274 1.33203 11.9921 1.33203C6.16731 1.33203 1.33594 6.1634 1.33594 11.9987C1.33594 17.8235 6.17777 22.6654 12.0026 22.6654ZM12.0026 20.8876C7.06666 20.8876 3.12417 16.9346 3.12417 11.9987C3.12417 7.06275 7.0562 3.10981 11.9921 3.10981C16.9281 3.10981 20.881 7.06275 20.8915 11.9987C20.9019 16.9346 16.9386 20.8876 12.0026 20.8876ZM7.8928 12.8876H16.1019C16.6876 12.8876 17.085 12.5843 17.085 12.0301C17.085 11.4654 16.7085 11.1412 16.1019 11.1412H7.8928C7.28626 11.1412 6.89934 11.4654 6.89934 12.0301C6.89934 12.5843 7.30718 12.8876 7.8928 12.8876Z" fill="#E6E6E6"/>
</svg>
