<svg width="120" height="120" viewBox="0 0 120 120" fill="none" xmlns="http://www.w3.org/2000/svg">
<path d="M60 120C93.1371 120 120 93.1371 120 60C120 26.8629 93.1371 0 60 0C26.8629 0 0 26.8629 0 60C0 93.1371 26.8629 120 60 120Z" fill="#F5F3F2"/>
<path opacity="0.6" d="M31.2138 33.9663C31.2767 28.3208 35.9963 23.8289 41.6361 24.0469L66.4314 25.005C71.7224 25.2095 75.9209 29.5048 76.0058 34.8002L76.7398 80.5702C76.8283 86.0923 72.4238 90.6575 66.9021 90.7669L40.8461 91.2829C35.2179 91.3944 30.6244 86.8399 30.6871 81.2104L31.2138 33.9663Z" fill="#C9C9C9"/>
<path opacity="0.7" d="M35.7953 33.2307C36.0799 27.7257 40.7668 23.4664 46.2739 23.7081L77.531 25.0798C80.0038 25.1883 82.3438 26.2098 84.0984 27.9467L85.9589 29.7884L87.6113 31.5885C89.4819 33.6262 90.418 36.3532 90.1958 39.118L86.6014 83.8396C86.1694 89.2155 81.5521 93.3025 76.1642 93.0782L42.836 91.6909C37.2985 91.4604 33.0276 86.7716 33.3137 81.2368L35.7953 33.2307Z" fill="#F5F3F2"/>
<path d="M33.6239 31.2412C33.8515 26.8372 37.601 23.4297 42.0067 23.6231L76.0249 25.116C78.0031 25.2028 79.8752 26.02 81.2789 27.4095L83.6844 29.7908L86.0213 32.3364C87.4603 33.904 88.2103 35.9843 88.1047 38.1151L85.7405 85.8216C85.5214 90.2411 81.7554 93.6616 77.3353 93.4557L38.5118 91.6476C34.0983 91.442 30.7054 87.6984 30.9335 83.286L33.6239 31.2412Z" fill="white"/>
<path d="M88.2397 37.9731C88.2405 37.6092 87.7858 35.2444 87.6883 34.7897L86.2149 32.9729L84.4936 31.4154L84.2491 31.1572L80.8089 27.9797C80.8089 27.9797 79.6485 27.3445 78.8412 27.0739C77.8571 26.7439 76.3174 25.2593 76.3174 25.2593L78.133 36.1741L88.2341 40.7028C88.4017 39.0343 88.239 38.3371 88.2397 37.9731Z" fill="#F5F3F2"/>
<path d="M88.2407 37.5182C88.2414 37.1542 88.2464 34.7885 87.3291 33.8805L85.9542 32.0636L84.3478 30.5058L84.1197 30.2476L80.9093 27.0696C80.9093 27.0696 79.3677 25.9803 78.6143 25.7095C77.6958 25.3794 76.3174 25.2593 76.3174 25.2593L79.054 35.2623L88.235 40.2478L88.2407 37.5182Z" fill="#E6E8E8"/>
<rect width="30.3821" height="2.67567" transform="matrix(0.999524 0.030849 -0.0356439 0.999365 46 60)" fill="#B5B5B5"/>
<rect width="41.2793" height="2.67567" transform="matrix(0.999524 0.030849 -0.0356439 0.999365 38.999 67.5723)" fill="#B5B5B5"/>
<rect width="41.2793" height="2.67567" transform="matrix(0.999524 0.030849 -0.0356439 0.999365 38.999 75.5732)" fill="#B5B5B5"/>
<path d="M50.8453 42.6831C50.2151 42.6831 50.0575 43.112 50.3989 43.6022L52.3596 46.3857C52.6484 46.7883 53.0686 46.7796 53.3487 46.3857L55.3094 43.5935C55.642 43.112 55.4844 42.6831 54.863 42.6831H53.5938C54.3553 39.3745 57.2963 36.9411 60.8501 36.9411C64.9815 36.9411 68.2902 40.241 68.2902 44.3725C68.2902 48.5039 64.9815 51.8301 60.8501 51.8126C58.3554 51.8038 56.1672 50.5959 54.828 48.7315C54.5566 48.3726 54.1452 48.2588 53.7776 48.4777C53.4275 48.6965 53.3312 49.1779 53.6288 49.563C55.2919 51.7951 57.9003 53.3006 60.8501 53.3006C65.7255 53.3006 69.7782 49.2479 69.7782 44.3725C69.7782 39.4883 65.7255 35.4443 60.8501 35.4443C56.5436 35.4443 52.8848 38.5867 52.0795 42.6831H50.8453ZM60.5175 39.2432C60.1323 39.2432 59.8172 39.5495 59.8172 39.9347V44.8189C59.8172 45.0202 59.8785 45.1953 60.0273 45.3878L62.1893 48.2413C62.4781 48.6177 62.8808 48.679 63.2397 48.4339C63.5635 48.2063 63.5898 47.7949 63.3272 47.4361L61.2089 44.5825V39.9347C61.2089 39.5495 60.9026 39.2432 60.5175 39.2432Z" fill="#727272"/>
</svg>
