<svg width="16" height="18" viewBox="0 0 16 18" fill="none" xmlns="http://www.w3.org/2000/svg">
<path d="M15.2002 3.4C15.2002 3.87468 15.0594 4.33869 14.7957 4.73337C14.532 5.12805 14.1571 5.43566 13.7186 5.61731C13.28 5.79897 12.7975 5.84649 12.3319 5.75389C11.8664 5.66128 11.4387 5.43271 11.1031 5.09706C10.7674 4.76141 10.5389 4.33377 10.4463 3.86822C10.3537 3.40266 10.4012 2.9201 10.5828 2.48156C10.7645 2.04302 11.0721 1.66819 11.4668 1.40447C11.8615 1.14076 12.3255 1 12.8001 1C13.4367 1 14.0471 1.25286 14.4972 1.70294C14.9473 2.15303 15.2002 2.76348 15.2002 3.4V3.4Z" stroke="white" stroke-width="1.4" stroke-linecap="round" stroke-linejoin="round"/>
<path d="M5.60005 8.99998C5.60005 9.47465 5.4593 9.93867 5.19558 10.3333C4.93187 10.728 4.55704 11.0356 4.11849 11.2173C3.67995 11.3989 3.19739 11.4465 2.73184 11.3539C2.26628 11.2613 1.83864 11.0327 1.50299 10.697C1.16735 10.3614 0.93877 9.93375 0.846165 9.4682C0.753561 9.00264 0.801089 8.52008 0.982739 8.08154C1.16439 7.64299 1.472 7.26816 1.86668 7.00445C2.26136 6.74073 2.72538 6.59998 3.20005 6.59998C3.83657 6.59998 4.44702 6.85283 4.89711 7.30292C5.3472 7.75301 5.60005 8.36346 5.60005 8.99998Z" stroke="white" stroke-width="1.4" stroke-linecap="round" stroke-linejoin="round"/>
<path d="M15.2002 14.6C15.2002 15.0747 15.0594 15.5387 14.7957 15.9334C14.532 16.328 14.1571 16.6356 13.7186 16.8173C13.28 16.9989 12.7975 17.0465 12.3319 16.9539C11.8664 16.8613 11.4387 16.6327 11.1031 16.297C10.7674 15.9614 10.5389 15.5338 10.4463 15.0682C10.3537 14.6026 10.4012 14.1201 10.5828 13.6815C10.7645 13.243 11.0721 12.8682 11.4668 12.6045C11.8615 12.3407 12.3255 12.2 12.8001 12.2C13.4367 12.2 14.0471 12.4528 14.4972 12.9029C14.9473 13.353 15.2002 13.9635 15.2002 14.6V14.6Z" stroke="white" stroke-width="1.4" stroke-linecap="round" stroke-linejoin="round"/>
<path d="M5.27197 10.208L10.736 13.392" stroke="white" stroke-width="1.4" stroke-linecap="round" stroke-linejoin="round"/>
<path d="M10.728 4.60797L5.27197 7.79197" stroke="white" stroke-width="1.4" stroke-linecap="round" stroke-linejoin="round"/>
</svg>
