<svg width="24" height="25" viewBox="0 0 24 25" fill="none" xmlns="http://www.w3.org/2000/svg">
<mask id="mask0" style="mask-type:alpha" maskUnits="userSpaceOnUse" x="0" y="0" width="24" height="25">
<rect y="0.820312" width="24" height="24" fill="#C4C4C4"/>
</mask>
<g mask="url(#mask0)">
<path d="M13.3901 16.5118L13.3915 16.5125C13.4286 16.5318 13.4668 16.5514 13.5056 16.5713C13.5608 16.5996 13.6173 16.6286 13.6738 16.6583L15.0441 15.2923C15.5145 14.822 16.0702 14.5696 16.6547 14.5696C17.2439 14.5696 17.7955 14.8266 18.2481 15.2976C18.2483 15.2978 18.2485 15.298 18.2487 15.2982L20.7188 17.7774C20.7189 17.7774 20.719 17.7775 20.719 17.7776C21.1899 18.2438 21.4419 18.8042 21.4419 19.3928C21.4419 19.9762 21.1949 20.5404 20.7343 21.0198C20.7342 21.0198 20.7342 21.0199 20.7341 21.02L20.662 20.9507C20.4684 21.1533 20.2703 21.3469 20.0767 21.5315L13.3901 16.5118ZM13.3901 16.5118C13.2271 16.4303 13.0786 16.3559 12.9528 16.2779C11.6308 15.4382 10.4277 14.343 9.27201 12.9231C8.73335 12.2422 8.36728 11.6681 8.0995 11.092C8.41493 10.8004 8.71097 10.5 8.99729 10.2094C9.0296 10.1766 9.06179 10.144 9.09387 10.1114C9.15715 10.0482 9.22038 9.98381 9.28324 9.91983L9.28334 9.91972C9.34643 9.8555 9.40916 9.79166 9.47183 9.72899C9.96014 9.24067 10.2103 8.67369 10.2103 8.1004C10.2103 7.52711 9.96014 6.96012 9.47183 6.47181L8.24263 5.24261C8.10284 5.10282 7.95992 4.95989 7.82614 4.81719L7.82615 4.81718L7.82504 4.81604C7.55504 4.53703 7.27019 4.24762 6.9758 3.9758C6.52306 3.52827 5.97677 3.28623 5.39835 3.28623C4.81967 3.28623 4.26437 3.52847 3.79823 3.97597L3.79822 3.97595L3.79677 3.97739L3.78777 3.9864L3.78746 3.98671L2.2569 5.53077C2.25684 5.53083 2.25678 5.53089 2.25672 5.53095C1.66392 6.12384 1.32505 6.84808 1.25095 7.68636L1.25089 7.68698C1.14097 9.02445 1.5348 10.2663 1.83312 11.0708C2.56716 13.0509 3.66318 14.8841 5.29445 16.8453L5.29467 16.8455C7.27566 19.211 9.65972 21.0794 12.3833 22.396L12.384 22.3963C13.422 22.8882 14.8185 23.4761 16.3827 23.5764L16.3843 23.5765C16.4786 23.581 16.5799 23.5856 16.6727 23.5856C17.7396 23.5856 18.6402 23.201 19.3443 22.4367L19.3538 22.4263L19.3552 22.4235C19.357 22.4217 19.359 22.4195 19.361 22.4171C19.3638 22.4138 19.367 22.4096 19.3703 22.4047C19.5823 22.1487 19.8245 21.9145 20.0843 21.6633C20.1047 21.6435 20.1253 21.6236 20.1459 21.6037L13.3901 16.5118ZM19.8535 20.0376C19.8334 20.0608 19.8121 20.0841 19.7898 20.1074L19.7885 20.1061V20.0107C19.7966 20.011 19.8056 20.0122 19.8152 20.0152C19.8279 20.0192 19.8416 20.0264 19.8535 20.0376ZM19.7058 20.0493C19.7045 20.0509 19.703 20.053 19.7015 20.0554C19.5636 20.203 19.4229 20.3398 19.2727 20.4858C19.2389 20.5186 19.2046 20.552 19.1698 20.586C18.8772 20.8651 18.5776 21.16 18.2955 21.4919C17.8609 21.9559 17.3523 22.1744 16.6772 22.1744C16.609 22.1744 16.5404 22.1744 16.4768 22.1701L16.4765 22.1701C15.1594 22.0859 13.9312 21.5709 13.0014 21.1262C10.4662 19.8988 8.23974 18.1563 6.38918 15.9473C4.85955 14.1037 3.83949 12.4024 3.16432 10.5781L3.16421 10.5778C2.74866 9.46522 2.59999 8.60707 2.6659 7.80258C2.70895 7.29928 2.90136 6.88463 3.25831 6.52768L4.79255 4.99344C5.00136 4.79778 5.21181 4.70192 5.40736 4.70192C5.65089 4.70192 5.85615 4.84994 5.99402 4.98781L6.00753 5.00132L6.00749 5.00136L6.00996 5.00367C6.28269 5.25851 6.54239 5.52266 6.81685 5.80612L6.81687 5.80614C6.88699 5.87852 6.95818 5.95084 7.02961 6.0234L7.03131 6.02513C7.10227 6.09721 7.17348 6.16953 7.24465 6.24292L7.24464 6.24293L7.24572 6.24402L8.47492 7.47321C8.70405 7.70235 8.80358 7.908 8.80358 8.1004C8.80358 8.2928 8.70405 8.49845 8.47492 8.72758C8.43033 8.77217 8.38671 8.8163 8.3435 8.86002C8.25847 8.94604 8.17504 9.03045 8.08895 9.11357L8.08892 9.11354L8.08687 9.11564C7.70905 9.50246 7.35071 9.86075 6.96152 10.2097L6.96142 10.2096L6.95794 10.213C6.95782 10.2132 6.95762 10.2133 6.95733 10.2136L6.95481 10.2156L6.95025 10.2195C6.94559 10.2235 6.93667 10.2313 6.92785 10.2432C6.72432 10.4495 6.63649 10.6588 6.61376 10.8552C6.59107 11.0511 6.63428 11.2259 6.67627 11.3588L6.67626 11.3588L6.67676 11.3603L6.69027 11.4009L6.69003 11.4009L6.6927 11.4074C7.0169 12.1928 7.47273 12.9302 8.1609 13.804L8.16034 13.8044L8.16874 13.8128L8.16959 13.8136C9.41708 15.3497 10.7342 16.5493 12.1887 17.4691C12.3776 17.5889 12.5705 17.6854 12.7495 17.7749L12.7513 17.7758C12.9145 17.8574 13.0631 17.9318 13.1891 18.0099L13.1888 18.0103L13.1971 18.0144C13.2011 18.0164 13.206 18.0194 13.2158 18.0255C13.224 18.0306 13.2371 18.0389 13.2511 18.0459C13.4162 18.1285 13.5755 18.169 13.7416 18.169C14.1567 18.169 14.4158 17.9099 14.4955 17.8302L14.4967 17.8291L16.0365 16.2892C16.1852 16.1406 16.4036 15.9808 16.6457 15.9808C16.8832 15.9808 17.088 16.1318 17.2202 16.2769L17.2201 16.2769L17.2234 16.2802L17.2324 16.2892L17.2324 16.2892L19.7133 18.7701L19.7136 18.7705C19.9339 18.9886 20.0319 19.1977 20.0324 19.3975C20.0329 19.5949 19.9384 19.8053 19.7262 20.0292C19.7193 20.0342 19.7122 20.0408 19.7058 20.0493Z" fill="#727272" stroke="#727272" stroke-width="0.2"/>
<path d="M18.2775 12.5424L18.2775 12.5425L18.2811 12.5419C18.6704 12.4788 18.9262 12.1109 18.8636 11.7248L18.8635 11.724C18.6168 10.2761 17.9316 8.95606 16.886 7.91047C15.8404 6.86487 14.5204 6.17965 13.0725 5.933L13.0725 5.93299L13.0717 5.93286C12.6849 5.87014 12.323 6.12654 12.2549 6.50932C12.1869 6.89066 12.4374 7.26445 12.8278 7.32792C13.9864 7.52255 15.0391 8.07085 15.8801 8.91188C16.721 9.75273 17.265 10.8055 17.4641 11.9646C17.5221 12.3114 17.8217 12.5522 18.1616 12.5522C18.2007 12.5522 18.2357 12.5477 18.2668 12.5438C18.2704 12.5433 18.274 12.5429 18.2775 12.5424Z" fill="#727272" stroke="#727272" stroke-width="0.2"/>
<path d="M21.4253 11.761L21.3267 11.7775C21.3845 12.1244 21.6842 12.3653 22.0241 12.3653C22.0632 12.3653 22.0983 12.3609 22.1293 12.3569C22.133 12.3565 22.1366 12.356 22.1401 12.3556L22.1401 12.3556L22.1426 12.3552C22.5271 12.2973 22.7894 11.9295 22.7216 11.5461C22.3173 9.17522 21.1999 7.01772 19.4834 5.30122C17.767 3.5848 15.6096 2.46738 13.2388 2.0631C12.8539 1.99474 12.4931 2.25849 12.4253 2.63936L12.4253 2.63936L12.425 2.64088C12.3623 3.0281 12.6192 3.38978 13.0062 3.45778L13.0068 3.45788C15.0843 3.81006 16.9791 4.79522 18.4866 6.29823C19.9938 7.80554 20.9745 9.70026 21.3267 11.7778L21.4253 11.761ZM21.4253 11.761C21.4748 12.0582 21.7315 12.2653 22.0241 12.2653C22.0565 12.2653 22.0853 12.2617 22.1169 12.2577C22.1205 12.2572 22.1241 12.2568 22.1277 12.2563L18.5572 6.22741C20.079 7.74927 21.0696 9.66286 21.4253 11.761Z" fill="#727272" stroke="#727272" stroke-width="0.2"/>
</g>
</svg>
