<svg width="24" height="24" viewBox="0 0 24 24" fill="none" xmlns="http://www.w3.org/2000/svg">
<path d="M19.7547 1.14307C19.3264 1.14307 18.9792 1.49027 18.9792 1.91859V4.7515C14.9865 0.886058 8.61635 0.989206 4.7509 4.98179C2.92921 6.86342 1.91294 9.38121 1.91799 12.0002C1.91799 12.4285 2.26519 12.7757 2.69351 12.7757C3.12183 12.7757 3.46899 12.4285 3.46899 12.0002C3.46995 7.28888 7.28995 3.47032 12.0013 3.47128C14.394 3.47173 16.6765 4.47709 18.2921 6.24203L14.8566 7.38743C14.4498 7.5228 14.2296 7.96234 14.365 8.36921C14.5003 8.77608 14.9399 8.99624 15.3467 8.86087L19.9998 7.30987C20.3174 7.20408 20.5313 6.90636 20.5303 6.57161V1.91855C20.5302 1.49027 20.183 1.14307 19.7547 1.14307Z" fill="#727272" stroke="#727272" stroke-width="0.25"/>
<path d="M21.3056 11.2241C20.8772 11.2241 20.53 11.5713 20.53 11.9996C20.5291 16.711 16.7091 20.5295 11.9977 20.5286C9.60498 20.5281 7.32248 19.5227 5.7069 17.7578L9.1424 16.6124C9.54927 16.477 9.76942 16.0375 9.63406 15.6306C9.49869 15.2238 9.05915 15.0036 8.65228 15.139L3.99922 16.69C3.68159 16.7958 3.46771 17.0935 3.46875 17.4282V22.0813C3.46875 22.5096 3.81596 22.8568 4.24428 22.8568C4.6726 22.8568 5.0198 22.5096 5.0198 22.0813V19.2483C9.01244 23.1138 15.3827 23.0107 19.2481 19.018C21.0698 17.1364 22.086 14.6186 22.081 11.9996C22.0811 11.5713 21.7339 11.2241 21.3056 11.2241Z" fill="#727272" stroke="#727272" stroke-width="0.25"/>
</svg>
