<svg width="37" height="32" viewBox="0 0 37 32" fill="none" xmlns="http://www.w3.org/2000/svg">
<path d="M36.0369 24.884C35.821 23.4546 35.1205 22.1429 34.0528 21.1684C32.9851 20.1939 31.615 19.6158 30.1719 19.531L30.1609 19.519L28.7609 17.731C28.4023 17.1663 28.1008 16.5674 27.8609 15.943L27.3609 14.155C27.2507 13.5642 27.1782 12.967 27.1439 12.367L26.9269 10.579C26.6201 9.30368 25.9703 8.13658 25.0479 7.20398C24.8795 7.03757 24.6522 6.94425 24.4154 6.94425C24.1787 6.94425 23.9514 7.03757 23.7829 7.20398L21.9949 8.99198C21.2135 9.77197 20.1545 10.21 19.0504 10.21C17.9464 10.21 16.8874 9.77197 16.1059 8.99198C15.3104 8.21053 14.8574 7.14545 14.8461 6.03038C14.8349 4.91532 15.2664 3.84131 16.0459 3.04398C16.1337 2.96199 16.204 2.86318 16.2527 2.75344C16.3015 2.64371 16.3277 2.52528 16.3297 2.40522C16.3317 2.28516 16.3096 2.16593 16.2645 2.05461C16.2195 1.94329 16.1526 1.84216 16.0677 1.75726C15.9828 1.67235 15.8816 1.6054 15.7703 1.56038C15.659 1.51537 15.5398 1.49322 15.4197 1.49524C15.2996 1.49727 15.1812 1.52344 15.0715 1.57218C14.9617 1.62093 14.8629 1.69125 14.7809 1.77898L7.77295 8.78698L8.79295 11.713L19.6429 24.013C21.1669 25.706 25.1359 28.466 27.4139 28.466H34.0199L36.1069 26.678V25.784C36.1057 25.4827 36.0823 25.1819 36.0369 24.884Z" fill="#FFC76F" stroke="#985801"/>
<path d="M15.7529 9.0584C14.4819 7.8784 13.9219 4.7904 15.4849 3.1674C15.8199 2.8844 16.1849 2.2804 15.7529 1.9674C15.2979 1.6784 15.0229 2.0784 14.7839 2.2954L8.23193 8.8724L11.5959 13.4614L15.7529 9.0584Z" fill="url(#paint0_linear)"/>
<path d="M27.4087 26.6719C23.2087 25.4559 20.5667 24.4219 16.4377 19.9239C13.3342 16.385 10.4428 12.6655 7.77872 8.78491L5.84072 10.7189C5.67907 10.8807 5.58556 11.0982 5.57942 11.3268C5.57329 11.5554 5.65499 11.7777 5.80772 11.9479C5.80772 11.9479 7.50772 15.2479 13.5447 22.2609C19.5817 29.2739 23.0397 29.4059 25.5647 30.0759C28.0897 30.7459 36.1017 30.5699 36.1017 30.0759V26.6759C33.2459 27.3734 30.2639 27.372 27.4087 26.6719Z" fill="#F8E0CA" stroke="#985801"/>
<path d="M23.9917 15.92H27.4367C27.218 15.3397 27.0507 14.7414 26.9367 14.132H23.9917C23.7546 14.132 23.5272 14.2261 23.3595 14.3938C23.1918 14.5615 23.0977 14.7889 23.0977 15.026C23.0977 15.2631 23.1918 15.4905 23.3595 15.6581C23.5272 15.8258 23.7546 15.92 23.9917 15.92ZM23.9917 19.497H29.7367C29.2125 18.9483 28.7436 18.3494 28.3367 17.709H23.9917C23.7546 17.709 23.5272 17.8032 23.3595 17.9708C23.1918 18.1385 23.0977 18.3658 23.0977 18.603C23.0977 18.8401 23.1918 19.0674 23.3595 19.2351C23.5272 19.4028 23.7546 19.497 23.9917 19.497ZM23.9917 12.343H26.7197C26.711 12.2023 26.7037 12.063 26.6977 11.925C26.6775 11.4627 26.6122 11.0035 26.5027 10.554H23.9917C23.7546 10.554 23.5272 10.6481 23.3595 10.8158C23.1918 10.9835 23.0977 11.2108 23.0977 11.448C23.0977 11.6851 23.1918 11.9125 23.3595 12.0801C23.5272 12.2478 23.7546 12.3419 23.9917 12.3419V12.343Z" fill="url(#paint1_linear)"/>
<path d="M0.565918 23.53H7.75192" stroke="#985801" stroke-width="1.2" stroke-linecap="round"/>
<path d="M2.61865 26.6082H9.80465" stroke="#985801" stroke-width="1.2" stroke-linecap="round"/>
<path d="M6.72607 29.6899H13.9121" stroke="#985801" stroke-width="1.2" stroke-linecap="round"/>
<defs>
<linearGradient id="paint0_linear" x1="12.091" y1="1.86621" x2="12.091" y2="13.4614" gradientUnits="userSpaceOnUse">
<stop stop-color="#E1590A"/>
<stop offset="1" stop-color="#C23102"/>
</linearGradient>
<linearGradient id="paint1_linear" x1="26.4172" y1="10.554" x2="26.4172" y2="19.497" gradientUnits="userSpaceOnUse">
<stop stop-color="#D95E1D"/>
<stop offset="1" stop-color="#BB3301"/>
</linearGradient>
</defs>
</svg>
