<svg width="18" height="20" viewBox="0 0 18 20" fill="none" xmlns="http://www.w3.org/2000/svg">
<path d="M17.4956 5.42648L17.495 5.41091C17.4863 5.2188 17.4805 5.01556 17.477 4.78942C17.4606 3.68667 16.584 2.77451 15.4811 2.71286C13.1816 2.58453 11.4028 1.83472 9.88284 0.353248L9.86987 0.340888C9.37411 -0.11367 8.62628 -0.11367 8.13037 0.340888L8.1174 0.353248C6.59748 1.83472 4.81861 2.58453 2.51912 2.71301C1.41637 2.77451 0.539605 3.68667 0.523278 4.78958C0.519921 5.01418 0.51397 5.21743 0.505272 5.41091L0.504357 5.44707C0.459649 7.79189 0.404107 10.7101 1.38036 13.3589C1.91716 14.8155 2.73015 16.0817 3.79658 17.1225C5.01118 18.3078 6.60206 19.2488 8.52496 19.9192C8.58752 19.9411 8.65253 19.9588 8.71875 19.972C8.81213 19.9906 8.90613 20 9.00012 20C9.09412 20 9.18826 19.9906 9.28149 19.972C9.34772 19.9588 9.41318 19.9409 9.47604 19.9189C11.3967 19.2472 12.9859 18.3058 14.1994 17.1206C15.2654 16.0795 16.0783 14.813 16.6156 13.3561C17.5955 10.6994 17.5401 7.77571 17.4956 5.42648ZM15.5145 12.9501C14.4849 15.7418 12.383 17.6591 9.08877 18.8111C9.07703 18.8151 9.06451 18.8186 9.05154 18.8212C9.01752 18.8279 8.98288 18.8279 8.94839 18.8211C8.93558 18.8185 8.92306 18.8151 8.91147 18.8111C5.61375 17.6612 3.51048 15.7451 2.48159 12.9532C1.58178 10.5116 1.63274 7.83278 1.67775 5.46951L1.67806 5.45638C1.68721 5.25329 1.69332 5.04058 1.69668 4.80682C1.704 4.31716 2.09401 3.91205 2.58458 3.88473C3.88585 3.8121 5.02903 3.56064 6.07944 3.116C7.12848 2.67197 8.06018 2.04605 8.92749 1.20255C8.97159 1.16532 9.02881 1.16517 9.07275 1.20255C9.94021 2.04605 10.8719 2.67197 11.9208 3.116C12.9712 3.56064 14.1144 3.8121 15.4158 3.88473C15.9064 3.91205 16.2964 4.31716 16.3036 4.80697C16.3071 5.04196 16.3132 5.25466 16.3223 5.45638C16.3672 7.8224 16.4169 10.5034 15.5145 12.9501Z" fill="#727272"/>
<path d="M10.4314 8.45292L8.11639 10.768L7.48803 10.1396C7.25884 9.91044 6.88729 9.91044 6.6581 10.1396C6.42907 10.3688 6.42907 10.7404 6.6581 10.9694L7.7015 12.0128C7.81609 12.1274 7.96624 12.1846 8.11639 12.1846C8.26653 12.1846 8.41668 12.1274 8.53127 12.0128L11.2614 9.28269C11.4904 9.0535 11.4904 8.68195 11.2614 8.45292C11.0322 8.22358 10.6606 8.22358 10.4314 8.45292Z" fill="#727272"/>
</svg>
