<svg width="18" height="18" viewBox="0 0 18 18" fill="none" xmlns="http://www.w3.org/2000/svg">
<path d="M8.96584 0.272461C5.30039 0.272461 2.31812 3.25473 2.31812 6.92019V8.0111C2.31812 8.29375 2.54683 8.52246 2.82948 8.52246C3.11213 8.52246 3.34084 8.29375 3.34084 8.0111V6.92019C3.34084 3.81856 5.86422 1.29519 8.96584 1.29519C12.0675 1.29519 14.5908 3.81856 14.5908 6.92019V8.0111C14.5908 8.29375 14.8196 8.52246 15.1022 8.52246C15.3849 8.52246 15.6136 8.29375 15.6136 8.0111V6.92019C15.6136 3.25473 12.6313 0.272461 8.96584 0.272461ZM15.1022 12.6134C14.8196 12.6134 14.5908 12.8421 14.5908 13.1247C14.5908 14.5345 13.4438 15.6816 12.034 15.6816H9.98857C9.70592 15.6816 9.47721 15.9103 9.47721 16.1929C9.47721 16.4756 9.70592 16.7043 9.98857 16.7043H12.034C14.0076 16.7043 15.6136 15.0983 15.6136 13.1247C15.6136 12.8421 15.3849 12.6134 15.1022 12.6134Z" fill="#FFC76F"/>
<path d="M2.82952 7.49976L3.92589 10.6124L2.82952 13.6361C1.41816 13.6361 0.272705 12.4907 0.272705 11.0793V10.0566C0.272705 8.64521 1.41816 7.49976 2.82952 7.49976Z" fill="url(#paint0_linear_4_13460)"/>
<path d="M15.1022 7.49976V13.6361H13.0568C12.7704 13.6361 12.5454 13.4111 12.5454 13.1248V8.01112C12.5454 7.72472 12.7704 7.49976 13.0568 7.49976H15.1022Z" fill="#FFC76F"/>
<path d="M5.38629 8.01112V13.1248C5.38629 13.4111 5.16132 13.6361 4.87492 13.6361H2.82947V7.49976H4.87492C5.16132 7.49976 5.38629 7.72472 5.38629 8.01112Z" fill="#FFC76F"/>
<path d="M17.6591 9.98839V11.0111C17.6591 12.4225 16.5137 13.6361 15.1023 13.6361V7.49976C16.5137 7.49976 17.6591 8.57703 17.6591 9.98839Z" fill="url(#paint1_linear_4_13460)"/>
<path d="M8.96585 17.7271C8.11992 17.7271 7.43176 17.039 7.43176 16.193C7.43176 15.3471 8.11992 14.6589 8.96585 14.6589C9.81179 14.6589 10.4999 15.3471 10.4999 16.193C10.4999 17.039 9.81179 17.7271 8.96585 17.7271Z" fill="white"/>
<defs>
<linearGradient id="paint0_linear_4_13460" x1="2.0993" y1="7.49976" x2="2.0993" y2="13.6361" gradientUnits="userSpaceOnUse">
<stop stop-color="#E1590A"/>
<stop offset="1" stop-color="#C23102"/>
</linearGradient>
<linearGradient id="paint1_linear_4_13460" x1="16.3807" y1="7.49976" x2="16.3807" y2="13.6361" gradientUnits="userSpaceOnUse">
<stop stop-color="#E1590A"/>
<stop offset="1" stop-color="#C23102"/>
</linearGradient>
</defs>
</svg>
