<svg width="37" height="13" viewBox="0 0 37 13" fill="none" xmlns="http://www.w3.org/2000/svg">
<path fill-rule="evenodd" clip-rule="evenodd" d="M27.3656 9.65627C27.078 9.65786 27.0053 9.74508 27.0053 9.74508L27.1248 9.94062C27.1248 9.94062 27.1895 9.89048 27.3316 9.89048C27.3316 9.89048 27.4889 9.89041 27.4899 9.95351C27.4915 10.0504 27.2422 10.0574 27.2422 10.0574V10.2552H27.5225V10.1748C27.5225 10.1748 27.8114 10.1652 27.8114 9.95679C27.8114 9.74839 27.6532 9.65466 27.3656 9.65627ZM20.1008 9.76008L19.6104 10.129L19.7832 10.3345L20.2643 9.95621L20.1008 9.76008ZM22.4782 9.81608V11.9879H22.8238V10.6195H23.3983C23.3983 10.6195 23.6738 10.6334 23.6738 10.9604V11.9879H24.0335V10.9137C24.0335 10.9137 24.0335 10.336 23.4871 10.3392L22.8238 10.3432V9.81608H22.4782ZM31.0085 9.81608V11.6703C31.0085 11.9926 31.2839 11.9926 31.2839 11.9926H31.9819C32.2545 11.9926 32.4555 11.8325 32.5513 11.6245C32.6681 11.3708 32.6474 11.0599 32.6474 11.0599C32.6474 10.3164 32.0338 10.3486 32.0338 10.3486H31.3769V9.81608H31.0085ZM9.57324 9.82076V10.101H10.1664V11.9926H10.5167V10.101H11.0818V9.82076H9.57324ZM11.1706 9.82076V11.9926H11.5163V10.6241H12.0907C12.0907 10.6241 12.3663 10.6381 12.3663 10.9651V11.9926H12.726V10.9183C12.726 10.9183 12.726 10.3407 12.1795 10.3439L11.5163 10.3479V9.82076H11.1706ZM15.5844 10.3112C15.136 10.319 14.6969 10.5136 14.6876 11.1612C14.6876 11.9926 15.4255 11.9926 15.4255 11.9926C15.4255 11.9926 16.1262 12.0394 16.313 11.8338C16.313 11.8338 16.5698 11.619 16.5651 11.0492C16.5154 10.337 15.9982 10.3079 15.5844 10.3112ZM13.3985 10.3486C13.3985 10.3486 12.9174 10.3486 12.9174 10.9371V11.4788C12.9174 11.4788 12.9175 11.9926 13.4873 11.9926H14.4774V11.7264H13.6087C13.6087 11.7264 13.2818 11.7263 13.2818 11.3994V11.292H14.3606C14.3606 11.292 14.5614 11.278 14.5614 10.9651C14.5614 10.6522 14.356 10.3486 14.0664 10.3486H13.3985ZM18.0457 10.3486C18.0457 10.3486 17.4666 10.3486 17.4666 10.9418V11.4695C17.4666 11.4695 17.5039 11.9926 18.1158 11.9926H18.9425V11.7217H18.1999C18.1999 11.7217 17.8263 11.661 17.8263 11.2407V11.0258C17.8263 11.0258 17.8636 10.6195 18.2232 10.6195H18.9425V10.3486H18.0457ZM19.1994 10.3486V10.6195H20.1148C20.1148 10.6195 20.2876 10.6475 20.2876 10.8623V10.9418H19.545C19.545 10.9418 19.0593 10.9417 19.0593 11.4135V11.6049C19.0593 11.6049 19.0593 11.9926 19.5217 11.9926H20.2876C20.2876 11.9926 20.6473 12.0066 20.6473 11.6517V10.7455C20.6473 10.7455 20.6426 10.3486 20.1615 10.3486H19.1994ZM21.418 10.3486C21.418 10.3486 20.8387 10.3486 20.8387 10.9418V11.4695C20.8387 11.4695 20.8762 11.9926 21.488 11.9926H22.3147V11.7217H21.572C21.572 11.7217 21.1984 11.661 21.1984 11.2407V11.0258C21.1984 11.0258 21.2357 10.6195 21.5954 10.6195H22.3147V10.3486H21.418ZM25.5748 10.3486C25.5748 10.3486 24.9956 10.3486 24.9956 10.9418V11.4695C24.9956 11.4695 25.033 11.9926 25.6448 11.9926H26.4715V11.7217H25.729C25.729 11.7217 25.3552 11.661 25.3552 11.2407V11.0258C25.3552 11.0258 25.3926 10.6195 25.7523 10.6195H26.4715V10.3486H25.5748ZM26.6023 10.3486V11.4508C26.6023 11.988 27.1021 11.9926 27.1021 11.9926H27.9288C28.2371 11.9926 28.2371 11.7358 28.2371 11.7358V10.3486H27.8867V11.5769C27.8867 11.7357 27.7372 11.7358 27.7372 11.7358H27.3497C26.9667 11.7358 26.9479 11.4182 26.9479 11.4182V10.3486H26.6023ZM34.886 10.3486C34.886 10.3486 34.6091 10.3486 34.6091 10.6533V11.9926H34.9531V10.7517C34.9531 10.7517 34.9492 10.6207 35.0961 10.6207H35.5791C35.5791 10.6207 35.8227 10.6241 35.8227 10.914V11.9926H36.1821V10.802C36.1821 10.802 36.1821 10.3486 35.7415 10.3486H34.886ZM28.5823 10.3626V10.6335H29.4977C29.4977 10.6335 29.6705 10.6615 29.6705 10.8764V10.9558H28.928C28.928 10.9558 28.4422 10.9558 28.4422 11.4275V11.619C28.4422 11.619 28.4422 12.0067 28.9046 12.0067H29.6705C29.6705 12.0067 30.0302 12.0207 30.0302 11.6657V10.7596C30.0302 10.7596 30.0255 10.3626 29.5445 10.3626H28.5823ZM32.9119 10.3626V10.6335H33.8273C33.8273 10.6335 34.0001 10.6615 34.0001 10.8764V10.9558H33.2576C33.2576 10.9558 32.7718 10.9558 32.7718 11.4275V11.619C32.7718 11.619 32.7718 12.0067 33.2343 12.0067H34.0001C34.0001 12.0067 34.3598 12.0207 34.3598 11.6657V10.7596C34.3598 10.7596 34.3551 10.3626 33.8741 10.3626H32.9119ZM15.6734 10.62C15.9385 10.6233 16.2108 10.728 16.2149 11.1939C16.2196 11.7264 15.7384 11.7404 15.7384 11.7404C15.7384 11.7404 15.0379 11.8291 15.0426 11.2266C15.0473 10.6241 15.5609 10.6241 15.5609 10.6241C15.5977 10.6212 15.6355 10.6196 15.6734 10.62V10.62ZM31.3769 10.6207H31.932C32.0033 10.6207 32.2855 10.6207 32.2855 11.1857C32.2855 11.7507 31.8801 11.7358 31.8801 11.7358H31.5201C31.3773 11.7358 31.3769 11.6105 31.3769 11.6105V10.6207ZM13.5666 10.6241H13.9169C13.9169 10.6241 14.2066 10.6661 14.2112 11.0164H13.2818V10.9091C13.2818 10.9091 13.291 10.6241 13.5666 10.6241ZM19.6478 11.2033H20.2876V11.5722C20.2876 11.5722 20.2877 11.7217 20.1382 11.7217H19.6198C19.6198 11.7217 19.4282 11.6983 19.4282 11.5722V11.4088C19.4282 11.4088 19.4283 11.2033 19.6478 11.2033V11.2033ZM29.0307 11.2173H29.6705V11.5863C29.6705 11.5863 29.6706 11.7358 29.5212 11.7358H29.0027C29.0027 11.7358 28.8111 11.7124 28.8111 11.5863V11.4228C28.8111 11.4228 28.8112 11.2173 29.0307 11.2173ZM33.3603 11.2173H34.0001V11.5863C34.0001 11.5863 34.0002 11.7358 33.8508 11.7358H33.3323C33.3323 11.7358 33.1408 11.7124 33.1408 11.5863V11.4228C33.1408 11.4228 33.1408 11.2173 33.3603 11.2173ZM33.3832 12.0914V12.4567H33.7504V12.0914H33.3832Z" fill="#727272"/>
<path d="M7.83448 0C7.83448 0 7.47908 0.0252821 7.47865 0.351734L7.47727 1.44685C7.47727 1.44685 7.75532 1.07489 8.14656 1.07489H8.61234C8.61234 1.07489 8.99325 1.05219 8.99325 0.735467V0.344233C8.99325 0.344233 8.99322 -1.19852e-06 8.60401 0H7.83448ZM17.8184 0.25211C17.3952 0.25211 17.3952 0.633732 17.3952 0.633732V1.50117H16.4584V2.08404C16.4584 2.08404 16.4583 2.45875 16.8816 2.45875H17.3952V5.36627C17.423 6.31936 18.429 6.87237 19.2895 6.87237H20.4345C20.7467 6.87237 20.7954 6.44175 20.7954 6.44175V5.88667C20.2263 5.99769 19.7614 5.87975 19.7614 5.87975C18.8801 5.62301 18.9079 4.95687 18.9079 4.95687V2.45875H21.8917V5.36627C21.9195 6.31936 22.9256 6.87237 23.7861 6.87237H24.931C25.2432 6.87237 25.2918 6.44175 25.2918 6.44175V5.88667C24.7228 5.99769 24.258 5.87975 24.258 5.87975C23.3767 5.62301 23.4045 4.95687 23.4045 4.95687V2.45875H24.8554C25.2792 2.45875 25.271 2.1151 25.271 2.1151V1.50117H23.4045V0.675457C23.4045 0.275943 23.0436 0.25211 23.0436 0.25211H22.3149C21.8916 0.25211 21.8917 0.633732 21.8917 0.633732V1.50117H18.9079V0.675457C18.9079 0.275943 18.5471 0.25211 18.5471 0.25211H17.8184ZM33.1996 0.25211C32.7763 0.25211 32.7764 0.633732 32.7764 0.633732V5.36627C32.8041 6.31936 33.8102 6.87237 34.6707 6.87237H35.8156C36.1279 6.87237 36.1765 6.44175 36.1765 6.44175V5.88667C35.6075 5.99769 35.1425 5.87975 35.1425 5.87975C34.2613 5.62301 34.289 4.95687 34.289 4.95687V0.675457C34.289 0.275943 33.9283 0.25211 33.9283 0.25211H33.1996ZM12.726 1.4632C12.4765 1.4638 11.4284 1.495 10.6247 1.95687C10.097 2.26012 9.75988 2.76726 9.74494 3.8283C9.74494 3.8283 9.74824 5.40096 9.97033 5.77567C9.97033 5.77567 10.2309 6.31033 10.8133 6.63303C11.065 6.7725 11.571 6.87237 11.9479 6.87237H15.6465C15.6465 6.87237 16.0074 6.83733 16.0074 6.39323V5.90753H12.3296C12.3296 5.90753 11.3443 5.87974 11.3235 4.76255C11.3224 4.70399 11.3223 4.65694 11.3215 4.60291H15.4869C15.4869 4.60291 16.2155 4.54745 16.2155 3.60373C16.2155 3.60373 16.3335 2.63218 15.5771 2.02848C14.8208 1.42478 13.6069 1.48173 12.7809 1.46367C12.7809 1.46367 12.7616 1.46313 12.726 1.46319L12.726 1.4632ZM28.5334 1.4632C28.284 1.46374 27.2359 1.495 26.4321 1.95687C25.9044 2.26012 25.5673 2.76726 25.5524 3.8283C25.5524 3.8283 25.5557 5.40096 25.7778 5.77567C25.7778 5.77567 26.0383 6.31033 26.6207 6.63303C26.8724 6.7725 27.3785 6.87237 27.7554 6.87237H31.4539C31.4539 6.87237 31.8148 6.83733 31.8148 6.39323V5.90753H28.137C28.137 5.90753 27.1517 5.87974 27.1309 4.76255C27.1299 4.70399 27.1296 4.65694 27.1288 4.60291H31.2943C31.2943 4.60291 32.023 4.54745 32.023 3.60373C32.023 3.60373 32.1409 2.63218 31.3846 2.02848C30.6282 1.42478 29.4144 1.48173 28.5884 1.46367C28.5884 1.46367 28.569 1.46313 28.5334 1.46319L28.5334 1.4632ZM0.181641 1.52004L2.7631 6.50235C2.7631 6.50235 2.9008 6.92406 3.66664 6.92406H3.94196C3.94196 6.92406 4.5099 6.94982 4.78525 6.45934C5.06061 5.96885 7.36683 1.52004 7.36683 1.52004H6.18786C6.18786 1.52004 5.74046 1.58891 5.45649 2.17405C5.17252 2.75919 3.8646 5.53857 3.8646 5.53857C3.8646 5.53857 3.76131 5.69346 3.68387 5.53857C3.60643 5.38368 1.98005 1.99332 1.98005 1.99332C1.98005 1.99332 1.68748 1.52004 1.3605 1.52004H0.181641ZM7.84867 1.52004C7.84867 1.52004 7.47865 1.5201 7.47865 1.94175V6.51102C7.47865 6.51102 7.50444 6.87237 7.87445 6.87237H8.70052C8.70052 6.87237 8.99318 6.85523 8.99318 6.40776V1.89006C8.99318 1.89006 8.93284 1.52004 8.64027 1.52004H7.84867ZM12.9747 2.41561C13.4071 2.41579 14.0479 2.47876 14.3905 2.81271C14.3905 2.81271 14.6473 3.02082 14.6473 3.34002C14.6473 3.66615 14.4391 3.6662 14.3767 3.6662H12.052C12.052 3.6662 11.6745 3.63351 11.3208 3.96988C11.328 3.51017 11.3512 3.36779 11.3512 3.36779C11.3512 3.36779 11.3442 2.56279 12.5308 2.43788C12.5308 2.43788 12.7152 2.41549 12.9747 2.41562V2.41561ZM28.7821 2.41561C29.2145 2.41579 29.8553 2.47876 30.198 2.81271C30.198 2.81271 30.4548 3.02082 30.4548 3.34002C30.4548 3.66615 30.2466 3.6662 30.1841 3.6662H27.8595C27.8595 3.6662 27.4819 3.63351 27.1282 3.96988C27.1355 3.51017 27.1587 3.36779 27.1587 3.36779C27.1587 3.36779 27.1517 2.56279 28.3383 2.43788C28.3383 2.43788 28.5227 2.4155 28.7821 2.41562V2.41561Z" fill="#727272"/>
</svg>
