<svg width="22" height="20" viewBox="0 0 22 20" fill="none" xmlns="http://www.w3.org/2000/svg">
<path d="M21.2404 14.5494L13.7664 1.60392C12.5456 -0.534639 9.45855 -0.534639 8.24217 1.60392L0.76381 14.5494C-0.456967 16.688 1.06242 19.3447 3.52593 19.3447H18.4519C20.9154 19.3447 22.4611 16.6616 21.2404 14.5494ZM10.9999 16.4728C10.35 16.4728 9.80985 15.9327 9.80985 15.2828C9.80985 14.6329 10.35 14.0927 10.9999 14.0927C11.6498 14.0927 12.1899 14.6329 12.1636 15.3135C12.1943 15.9327 11.6235 16.4728 10.9999 16.4728ZM12.0845 8.77927C12.0318 9.70144 11.9748 10.6192 11.9221 11.5414C11.8957 11.84 11.8957 12.1123 11.8957 12.4065C11.8694 12.8939 11.4873 13.2716 10.9999 13.2716C10.5125 13.2716 10.1348 12.9203 10.1041 12.4328C10.025 10.9969 9.94159 9.58727 9.86255 8.15132C9.8362 7.77367 9.80985 7.39163 9.77911 7.01398C9.77911 6.39042 10.1304 5.87664 10.7013 5.71416C11.2722 5.57803 11.8386 5.85029 12.0845 6.39042C12.168 6.57924 12.1943 6.76807 12.1943 6.98763C12.168 7.58924 12.1109 8.18645 12.0845 8.77927Z" fill="url(#paint0_linear)"/>
<defs>
<linearGradient id="paint0_linear" x1="2.36016" y1="-2.24399" x2="17.1055" y2="20.4804" gradientUnits="userSpaceOnUse">
<stop stop-color="#FAE340"/>
<stop offset="1" stop-color="#E57C30"/>
</linearGradient>
</defs>
</svg>
