<svg width="13" height="9" viewBox="0 0 13 9" fill="none" xmlns="http://www.w3.org/2000/svg">
<path d="M12.2576 0.977175C12.2597 1.13028 12.212 1.2796 12.1223 1.401L7.1498 7.99246C7.09006 8.07155 7.01403 8.13571 6.92728 8.18022C6.84053 8.22473 6.74526 8.24847 6.64848 8.24968C6.55171 8.2509 6.45587 8.22956 6.36803 8.18724C6.28019 8.14492 6.20257 8.08269 6.14087 8.00512L1.03157 1.56791C0.977465 1.49958 0.93683 1.42086 0.911985 1.33624C0.887139 1.25163 0.878568 1.16277 0.886762 1.07474C0.903311 0.896961 0.98714 0.733364 1.11981 0.619939C1.25248 0.506513 1.42312 0.45255 1.59419 0.46992C1.76527 0.487291 1.92276 0.574572 2.03202 0.712564L6.62727 6.50332L11.1007 0.569564C11.1833 0.459904 11.2966 0.379639 11.4251 0.339859C11.5535 0.300078 11.6907 0.302745 11.8177 0.347492C11.9447 0.392238 12.0552 0.476855 12.134 0.589653C12.2128 0.70245 12.256 0.83786 12.2576 0.977175Z" fill="white" stroke="white" stroke-width="0.2"/>
</svg>
