<svg width="100" height="100" viewBox="0 0 100 100" fill="none" xmlns="http://www.w3.org/2000/svg">
<path d="M50 0C42.6652 0 36.6973 5.96797 36.6973 13.3027V17.3164H43.5779V13.3027C43.5779 9.76152 46.4598 6.88066 50 6.88066C53.5412 6.88066 56.4232 9.76133 56.4232 13.3027V17.3164H63.3039V13.3027C63.3039 5.96797 57.3349 0 50 0Z" fill="white"/>
<path d="M59.4037 83.8291C59.4037 88.9518 55.2363 93.1191 50.1147 93.1191H49.8854C44.7639 93.1191 40.5963 88.9518 40.5963 83.8291H33.7156C33.7156 92.7465 40.9692 100 49.8854 100H50.1147C59.0309 100 66.2844 92.7465 66.2844 83.8291H59.4037Z" fill="white"/>
<path d="M94.5219 82.5435L84.7479 67.3383V47.8211C84.7479 28.4713 69.1596 12.7293 50.0002 12.7293C30.8397 12.7293 15.2525 28.4713 15.2525 47.8211V67.3383L5.47852 82.5424C4.79727 83.6008 4.74922 84.9473 5.35235 86.0515C5.95547 87.1558 7.1127 87.8439 8.37188 87.8439H91.6287C92.8879 87.8439 94.0449 87.1558 94.6471 86.0527C95.2512 84.9484 95.2031 83.6021 94.5219 82.5435ZM14.6732 80.9633L21.5861 70.2088C21.9428 69.6549 22.1332 69.008 22.1332 68.3486V47.8211C22.1332 32.266 34.6344 19.6102 50.0002 19.6102C65.3672 19.6102 77.8672 32.2662 77.8672 47.8211V68.3486C77.8672 69.008 78.0565 69.6537 78.4131 70.2088L85.326 80.9633H14.6732Z" fill="white"/>
</svg>
