<svg width="14" height="12" viewBox="0 0 14 12" fill="none" xmlns="http://www.w3.org/2000/svg">
<path d="M11.473 0.959049C11.5416 0.865357 11.6294 0.787386 11.7306 0.730347C11.8317 0.673307 11.9439 0.638514 12.0595 0.62829C12.1752 0.618067 12.2917 0.63265 12.4013 0.671065C12.5109 0.70948 12.611 0.770841 12.695 0.851049C12.872 1.02305 12.98 1.25393 12.9984 1.50008C13.0168 1.74623 12.9445 1.99061 12.795 2.18705L5.427 11.666C5.35737 11.761 5.26805 11.8397 5.16515 11.8969C5.06225 11.9541 4.9482 11.9884 4.83082 11.9974C4.71344 12.0065 4.59549 11.99 4.48506 11.9492C4.37463 11.9084 4.27432 11.8442 4.191 11.761L0.290999 7.96905C0.117738 7.79326 0.0147701 7.56016 0.00150734 7.31369C-0.0117554 7.06722 0.0656027 6.82442 0.218998 6.63105C0.289804 6.53904 0.379426 6.46321 0.481879 6.40861C0.584332 6.354 0.697257 6.32189 0.813111 6.31441C0.928966 6.30693 1.04508 6.32426 1.1537 6.36524C1.26233 6.40622 1.36095 6.46991 1.443 6.55205L4.68 9.70005L11.473 0.959049Z" fill="white"/>
</svg>
