<svg width="287" height="108" viewBox="0 0 287 108" fill="none" xmlns="http://www.w3.org/2000/svg">
<path d="M287 89C287 74.7295 222.753 48 143.5 48C64.2471 48 0 74.7295 0 89C0 89 64.2471 89 143.5 89C222.753 89 287 89 287 89Z" fill="url(#paint0_linear)" fill-opacity="0.15"/>
<path d="M181 99.8533C181 94.4115 161.972 92 138.5 92C115.028 92 96 94.4115 96 99.8533C96 105.295 115.028 108 138.5 108C161.972 108 181 105.295 181 99.8533Z" fill="#F78D8D" fill-opacity="0.15"/>
<path fill-rule="evenodd" clip-rule="evenodd" d="M152.834 42.189C152.834 42.189 152.699 39.0248 153.875 37H157.658C157.658 37 155.6 39.6109 155.355 42.2833L152.834 42.189Z" fill="url(#paint1_linear)"/>
<path fill-rule="evenodd" clip-rule="evenodd" d="M147.509 46.9312L148.673 40.8118H174.655L172.893 48.8248L147.509 46.9312Z" fill="url(#paint2_linear)"/>
<path fill-rule="evenodd" clip-rule="evenodd" d="M174.655 40.8118L176.311 41.4225V42.357L180.225 43.853L178.155 51.1119L172.757 49.4806L174.655 40.8118Z" fill="#DD6E00"/>
<path fill-rule="evenodd" clip-rule="evenodd" d="M170.806 47.7797L144.521 46.8206L135 87.3692L162.662 92.7099L170.806 47.7797Z" fill="url(#paint3_linear)"/>
<path fill-rule="evenodd" clip-rule="evenodd" d="M171.392 94.1611L179.299 50.936C179.299 50.936 177.504 48.7718 172.06 47.8701L162.662 92.7102L171.392 94.1611Z" fill="#DD6E00"/>
<path fill-rule="evenodd" clip-rule="evenodd" d="M168.453 73.9712C168.453 73.9712 171.527 74.4806 173.13 75.0082L176.829 55.9398C176.829 55.9398 175.645 54.5694 172.436 54.0691L168.453 73.9712Z" fill="url(#paint4_linear)"/>
<path opacity="0.5" d="M171.931 85.5037C172.328 83.112 171.45 80.9738 169.97 80.7278C168.489 80.4818 166.967 82.2212 166.57 84.6129C166.172 87.0045 167.05 89.1428 168.531 89.3888C170.011 89.6347 171.534 87.8953 171.931 85.5037Z" fill="#9A2463"/>
<path fill-rule="evenodd" clip-rule="evenodd" d="M172.024 84.9227C171.626 87.3164 170.106 89.0542 168.626 88.8083C167.147 88.5624 166.269 86.4228 166.667 84.0333C167.065 81.6396 168.585 79.9018 170.065 80.1477C171.544 80.3936 172.422 82.5332 172.024 84.9227Z" fill="url(#paint5_linear)"/>
<path fill-rule="evenodd" clip-rule="evenodd" d="M171.528 84.8406C171.228 86.6522 170.077 87.9679 168.954 87.7794C168.814 87.7548 168.683 87.7138 168.56 87.6482C167.683 87.1933 167.204 85.7546 167.47 84.1643C167.732 82.5781 168.65 81.369 169.63 81.2214C169.765 81.2009 169.905 81.2009 170.044 81.2255C171.163 81.4141 171.827 83.0331 171.528 84.8406Z" fill="#DD6E00"/>
<path fill-rule="evenodd" clip-rule="evenodd" d="M170.721 84.7056C170.458 86.2918 169.54 87.4968 168.565 87.6485C167.687 87.1935 167.208 85.7549 167.474 84.1646C167.737 82.5784 168.655 81.3692 169.634 81.2217C170.503 81.6848 170.983 83.1235 170.721 84.7056Z" fill="url(#paint6_linear)"/>
<path fill-rule="evenodd" clip-rule="evenodd" d="M172.061 47.8661L170.806 47.78L161.453 92.4766L162.662 92.7102L172.061 47.8661Z" fill="url(#paint7_linear)"/>
<path fill-rule="evenodd" clip-rule="evenodd" d="M176.492 49.1237L178.156 43.0617L176.803 42.5452L180.226 42.2788L177.012 49.3614L176.492 49.1237Z" fill="url(#paint8_linear)"/>
<path d="M114.263 4.47346L163.463 0.398193C163.463 0.398193 166.019 0.398193 166.658 6.22C167.297 12.0418 165.38 13.0121 165.38 13.0121L117.458 13.9824L114.263 4.47346Z" fill="#F6C3C4"/>
<path fill-rule="evenodd" clip-rule="evenodd" d="M166.788 10.7516C166.788 10.7516 159.53 56.1564 159.304 92.7709H103.376C103.376 92.7709 103.376 92.7539 103.373 92.7233C103.358 92.574 103.317 92.0785 103.25 91.2775C102.846 86.2747 101.591 69.3828 101.584 50.8177C101.577 41.4095 102.798 31.567 103.707 22.6272C104.037 19.3282 104.453 16.1481 104.961 13.1613C104.961 13.1613 134.186 9.15643 164.205 9.47207L166.788 10.7516Z" fill="url(#paint9_linear)"/>
<path fill-rule="evenodd" clip-rule="evenodd" d="M164.035 9.45435C164.035 9.45435 157.875 44.9873 156.827 92.7709H158.809C158.809 92.7709 160.023 48.9351 166.788 10.7408L164.035 9.45435Z" fill="#D82F30"/>
<path fill-rule="evenodd" clip-rule="evenodd" d="M159.317 4.44821C157.505 8.97619 157.063 12.8947 156.147 18.4852C153.619 33.9147 150.971 66.3929 153.303 95.4843L112.221 95.8635L103.574 95.9445L103.15 95.9482C103.15 95.9482 100.007 87.4593 99.1046 71.111C98.8028 65.6407 98.7549 59.2943 99.1599 52.0901C99.6642 43.1816 99.9917 34.9479 102.263 23.4662C102.561 21.9453 102.716 18.0325 105.433 10.7876C107.076 6.4059 109.055 4.44822 110.414 3.54261C110.414 3.54261 132.828 -1.41306 162.26 0.398196C162.26 0.398196 160.51 1.46474 159.317 4.44821Z" fill="url(#paint10_linear)"/>
<path fill-rule="evenodd" clip-rule="evenodd" d="M153.187 90.0541C153.187 90.0541 146.95 65.1461 157.732 13.0769C157.47 14.3529 150.166 52.8366 153.187 90.0541Z" fill="#D82F30"/>
<g opacity="0.3">
<path opacity="0.8" fill-rule="evenodd" clip-rule="evenodd" d="M150.374 11.7004C137.426 11.8366 124.49 12.6633 111.546 13.0729C111.669 12.4885 111.73 12.1963 111.859 11.6122C124.789 11.1733 137.709 10.2992 150.639 10.1371C150.533 10.7653 150.48 11.0794 150.374 11.7004Z" fill="#D82F30"/>
<path opacity="0.8" fill-rule="evenodd" clip-rule="evenodd" d="M148.303 19.9507C139.152 20.3299 120.763 20.8563 111.622 21.4784C111.622 21.4784 111.766 20.5655 111.865 19.9507C121.002 19.3138 139.391 18.7801 148.542 18.3972C148.447 19.023 148.399 19.3322 148.303 19.9507Z" fill="#D82F30"/>
<path opacity="0.8" fill-rule="evenodd" clip-rule="evenodd" d="M148.303 28.1011C139.152 28.4802 120.763 29.0067 111.622 29.6288C111.622 29.6288 111.766 28.7158 111.865 28.1011C121.002 27.4642 139.391 26.9305 148.542 26.5476C148.447 27.1734 148.399 27.4826 148.303 28.1011Z" fill="#D82F30"/>
<path opacity="0.8" fill-rule="evenodd" clip-rule="evenodd" d="M147.078 47.8652C140.538 47.8128 133.999 47.7604 127.456 47.6968C127.477 47.0492 127.49 46.7291 127.518 46.0892C134.077 46.1278 140.633 46.1515 147.192 46.1828C147.144 46.8475 147.12 47.1854 147.078 47.8652Z" fill="#D82F30"/>
<path opacity="0.8" fill-rule="evenodd" clip-rule="evenodd" d="M148.117 38.7589C139.239 38.8028 131.268 38.9217 122.391 38.9545C122.436 38.3376 122.459 38.0291 122.512 37.4125C131.409 37.3623 139.403 37.2261 148.3 37.1721C148.224 37.806 148.186 38.121 148.117 38.7589Z" fill="#D82F30"/>
</g>
<path d="M99.3266 68.1623L103.588 69.664L110.49 73.7793C110.49 73.7793 106.639 77.6139 103.797 81.5227C101.757 84.329 98.3925 88.6841 98.3925 88.6841L97.4428 80.7235C97.4428 80.7235 96.2764 80.6895 93.7147 81.488C91.8045 82.0835 89.3521 83.0819 89.3521 83.0819L94.6403 75.3499L99.3266 68.1623Z" fill="url(#paint11_linear)"/>
<path d="M102.56 73.8622L106.582 70.9928L114.6 67.4029C114.6 67.4029 115.612 73.2582 117.324 78.2569C118.553 81.8458 120.336 87.5925 120.336 87.5925L112.616 83.4404C112.616 83.4404 111.853 84.4628 110.958 87.2566C110.29 89.34 109.643 92.1618 109.643 92.1618L106.047 82.5717L102.56 73.8622Z" fill="url(#paint12_linear)"/>
<circle cx="107.606" cy="63.4758" r="15.3862" transform="rotate(17.6268 107.606 63.4758)" fill="url(#paint13_radial)" stroke="#DD6E00" stroke-width="2"/>
<path d="M116.694 75.0355C109.431 80.4344 99.9175 79.8776 95.1591 73.4763C90.4007 67.075 90.6521 57.4421 97.9151 52.0432C105.178 46.6443 114.923 47.4569 119.682 53.8582C124.44 60.2596 123.563 68.5085 116.694 75.0355Z" fill="url(#paint14_radial)"/>
<circle cx="107.606" cy="63.4758" r="15.3862" transform="rotate(17.6268 107.606 63.4758)" stroke="#DD6E00" stroke-width="2"/>
<path fill-rule="evenodd" clip-rule="evenodd" d="M98.8714 62.5482L101.423 61.3546L103.59 67.1395C103.59 67.1395 110.015 59.5484 117.06 56.7171L118.867 58.4638C118.867 58.4638 109.243 62.7353 104.272 70.5107L101.32 69.6189C101.331 69.6222 100.033 64.488 98.8714 62.5482Z" fill="#D82F30"/>
<defs>
<linearGradient id="paint0_linear" x1="143.03" y1="46.5561" x2="143.03" y2="88.7901" gradientUnits="userSpaceOnUse">
<stop stop-color="#F78D8D"/>
<stop offset="1" stop-color="white"/>
</linearGradient>
<linearGradient id="paint1_linear" x1="155.243" y1="42.2797" x2="155.243" y2="36.9983" gradientUnits="userSpaceOnUse">
<stop stop-color="#FFD328"/>
<stop offset="1" stop-color="#FFA700"/>
</linearGradient>
<linearGradient id="paint2_linear" x1="169.266" y1="48.9799" x2="168.581" y2="39.8018" gradientUnits="userSpaceOnUse">
<stop offset="0.0171" stop-color="#FFD2D2"/>
<stop offset="1" stop-color="white"/>
</linearGradient>
<linearGradient id="paint3_linear" x1="152.903" y1="46.8206" x2="152.903" y2="92.7099" gradientUnits="userSpaceOnUse">
<stop stop-color="#FFBF74"/>
<stop offset="1" stop-color="#F4973B"/>
</linearGradient>
<linearGradient id="paint4_linear" x1="175.166" y1="75.4136" x2="164.27" y2="58.1889" gradientUnits="userSpaceOnUse">
<stop offset="0.0171" stop-color="#FFD2D2"/>
<stop offset="1" stop-color="white"/>
</linearGradient>
<linearGradient id="paint5_linear" x1="169.346" y1="80.1245" x2="169.346" y2="88.8315" gradientUnits="userSpaceOnUse">
<stop stop-color="#FFBF74"/>
<stop offset="1" stop-color="#F4973B"/>
</linearGradient>
<linearGradient id="paint6_linear" x1="170.119" y1="87.7729" x2="167.233" y2="81.7544" gradientUnits="userSpaceOnUse">
<stop offset="0.0171" stop-color="#FFD2D2"/>
<stop offset="1" stop-color="white"/>
</linearGradient>
<linearGradient id="paint7_linear" x1="166.757" y1="47.78" x2="166.757" y2="92.7102" gradientUnits="userSpaceOnUse">
<stop stop-color="#FFBF74"/>
<stop offset="1" stop-color="#F4973B"/>
</linearGradient>
<linearGradient id="paint8_linear" x1="179.484" y1="49.4986" x2="176.302" y2="42.8682" gradientUnits="userSpaceOnUse">
<stop offset="0.0171" stop-color="#FFD2D2"/>
<stop offset="1" stop-color="white"/>
</linearGradient>
<linearGradient id="paint9_linear" x1="133.684" y1="-27.7837" x2="134.7" y2="92.7665" gradientUnits="userSpaceOnUse">
<stop stop-color="#FFB59A"/>
<stop offset="1" stop-color="#F75A4A"/>
</linearGradient>
<linearGradient id="paint10_linear" x1="147.383" y1="97.617" x2="115.762" y2="9.7937" gradientUnits="userSpaceOnUse">
<stop offset="0.0171" stop-color="#FFD2D2"/>
<stop offset="1" stop-color="white"/>
</linearGradient>
<linearGradient id="paint11_linear" x1="92.6113" y1="87.292" x2="102.118" y2="76.9099" gradientUnits="userSpaceOnUse">
<stop stop-color="#FFBF74"/>
<stop offset="1" stop-color="#F4973B"/>
</linearGradient>
<linearGradient id="paint12_linear" x1="115.458" y1="91.8907" x2="112.142" y2="76.8608" gradientUnits="userSpaceOnUse">
<stop stop-color="#FFBF74"/>
<stop offset="1" stop-color="#F4973B"/>
</linearGradient>
<radialGradient id="paint13_radial" cx="0" cy="0" r="1" gradientUnits="userSpaceOnUse" gradientTransform="translate(107.606 63.4758) rotate(87.1857) scale(14.038)">
<stop stop-color="#FFBF74"/>
<stop offset="1" stop-color="#F4973B"/>
</radialGradient>
<radialGradient id="paint14_radial" cx="0" cy="0" r="1" gradientUnits="userSpaceOnUse" gradientTransform="translate(107.318 63.5293) rotate(134.289) scale(28.8064 27.2193)">
<stop stop-color="#FFDC7B"/>
<stop offset="1" stop-color="#F4973B"/>
</radialGradient>
</defs>
</svg>
