<svg width="24" height="25" viewBox="0 0 24 25" fill="none" xmlns="http://www.w3.org/2000/svg">
<mask id="mask0" mask-type="alpha" maskUnits="userSpaceOnUse" x="0" y="0" width="24" height="25">
<rect width="24" height="24.2988" fill="#C4C4C4"/>
</mask>
<g mask="url(#mask0)">
<path d="M19.579 8.43631V20.3451C19.579 20.7544 19.2807 21.102 18.8908 21.102H5.78449C5.39466 21.102 5.05273 20.7544 5.05273 20.3451V3.9385C5.05273 3.52919 5.39466 3.19763 5.78449 3.19763H14.6048L19.579 8.43631Z" stroke="#DE181F" stroke-width="1.3" stroke-miterlimit="10"/>
<path d="M12.7864 17.1827C12.1304 17.1827 11.5544 17.0467 11.0584 16.7747C10.5704 16.4947 10.1904 16.1147 9.91841 15.6347C9.65441 15.1467 9.52241 14.5907 9.52241 13.9667C9.52241 13.2627 9.66241 12.6627 9.94241 12.1667C10.2304 11.6627 10.6024 11.2787 11.0584 11.0147C11.5224 10.7427 12.0104 10.6067 12.5224 10.6067C12.9064 10.6067 13.2744 10.6867 13.6264 10.8467C13.9864 10.9987 14.3024 11.2147 14.5744 11.4947C14.8464 11.7667 15.0624 12.0907 15.2224 12.4667C15.3824 12.8347 15.4664 13.2387 15.4744 13.6787C15.4664 13.8387 15.4024 13.9707 15.2824 14.0747C15.1624 14.1787 15.0224 14.2307 14.8624 14.2307H10.2064L9.91841 13.2107H14.4304L14.2024 13.4267V13.1267C14.1784 12.8467 14.0824 12.6027 13.9144 12.3947C13.7464 12.1787 13.5384 12.0147 13.2904 11.9027C13.0504 11.7827 12.7944 11.7227 12.5224 11.7227C12.2824 11.7227 12.0504 11.7627 11.8264 11.8427C11.6024 11.9147 11.4064 12.0347 11.2384 12.2027C11.0704 12.3707 10.9344 12.5947 10.8304 12.8747C10.7264 13.1467 10.6744 13.4867 10.6744 13.8947C10.6744 14.3347 10.7664 14.7187 10.9504 15.0467C11.1344 15.3747 11.3824 15.6307 11.6944 15.8147C12.0064 15.9907 12.3544 16.0787 12.7384 16.0787C13.0264 16.0787 13.2664 16.0507 13.4584 15.9947C13.6504 15.9307 13.8104 15.8547 13.9384 15.7667C14.0664 15.6787 14.1784 15.5947 14.2744 15.5147C14.4024 15.4427 14.5224 15.4067 14.6344 15.4067C14.7784 15.4067 14.8984 15.4587 14.9944 15.5627C15.0904 15.6587 15.1384 15.7747 15.1384 15.9107C15.1384 16.0867 15.0504 16.2467 14.8744 16.3907C14.6584 16.5987 14.3584 16.7827 13.9744 16.9427C13.5984 17.1027 13.2024 17.1827 12.7864 17.1827Z" fill="#DE181F"/>
<path d="M19.4855 8.45701H15.0543C14.65 8.45701 14.3135 8.1003 14.3135 7.69099V3.19775" stroke="#DE181F" stroke-width="1.3" stroke-miterlimit="10"/>
</g>
</svg>
