<svg width="21" height="18" viewBox="0 0 21 18" fill="none" xmlns="http://www.w3.org/2000/svg">
<g clip-path="url(#clip0)">
<path d="M10.6345 18.0016C16.066 18.0016 20.469 13.9722 20.469 9.00167C20.469 4.03113 16.066 0.00170898 10.6345 0.00170898C5.20314 0.00170898 0.80011 4.03113 0.80011 9.00167C0.80011 13.9722 5.20314 18.0016 10.6345 18.0016Z" fill="#1977F3"/>
<path d="M14.4626 11.6036L14.8983 9.00142H12.171V7.31305C12.171 6.60175 12.5513 5.90692 13.7739 5.90692H15.0144V3.69204C15.0144 3.69204 13.8887 3.51611 12.8127 3.51611C10.5668 3.51611 9.09802 4.76151 9.09802 7.01815V9.00142H6.60034V11.6036H9.09802V17.8926C9.59866 17.9647 10.1118 18.0014 10.6345 18.0014C11.1573 18.0014 11.6704 17.9634 12.171 17.8926V11.6036H14.4626Z" fill="white"/>
</g>
<defs>
<clipPath id="clip0">
<rect width="19.6689" height="18" fill="white" transform="translate(0.80011)"/>
</clipPath>
</defs>
</svg>
