<svg width="24" height="24" viewBox="0 0 24 24" fill="none" xmlns="http://www.w3.org/2000/svg">
<mask id="mask0" mask-type="alpha" maskUnits="userSpaceOnUse" x="0" y="0" width="24" height="24">
<rect x="0.5" y="0.5" width="23" height="23" fill="#C4C4C4" stroke="#DE181F"/>
</mask>
<g mask="url(#mask0)">
<path d="M17.8945 21.473H6.10506C5.17622 21.473 4.42085 20.7176 4.42085 19.7887V12.2096H2.73664C2.26422 12.2096 1.89453 11.8399 1.89453 11.3675C1.89453 11.1443 1.98548 10.9254 2.14379 10.7671L11.7051 1.38245C11.8684 1.22245 12.1312 1.22245 12.2945 1.38245L21.8524 10.7637C22.0141 10.9254 22.1051 11.1443 22.1051 11.3675C22.1051 11.8399 21.7354 12.2096 21.263 12.2096H19.5787V19.7887C19.5787 20.7176 18.8234 21.473 17.8945 21.473ZM11.9998 2.27342L2.73664 11.365L4.8419 11.3675C5.07432 11.3675 5.26295 11.5561 5.26295 11.7886V19.7887C5.26295 20.2527 5.64106 20.6309 6.10506 20.6309H17.8945C18.3585 20.6309 18.7366 20.2527 18.7366 19.7887V11.7886C18.7366 11.5561 18.9253 11.3675 19.1577 11.3675H21.263C21.263 11.3658 21.2613 11.3633 21.2604 11.3625L11.9998 2.27342Z" fill="#DE181F" stroke="#DE181F" stroke-width="0.5"/>
<path d="M12.0002 17.6844C11.8743 17.6844 11.7529 17.6405 11.6583 17.5607C11.3011 17.2598 10.9568 16.977 10.6529 16.7275L10.6514 16.7262C9.76055 15.9949 8.99131 15.3633 8.45608 14.7411C7.85778 14.0455 7.5791 13.386 7.5791 12.6656C7.5791 11.9656 7.82823 11.3199 8.28055 10.8472C8.73827 10.3689 9.36632 10.1055 10.0492 10.1055C10.5596 10.1055 11.027 10.2609 11.4385 10.5675C11.6461 10.7223 11.8343 10.9116 12.0002 11.1326C12.166 10.9116 12.3542 10.7223 12.5619 10.5675C12.9733 10.2609 13.4408 10.1055 13.9512 10.1055C14.634 10.1055 15.2621 10.3689 15.7198 10.8472C16.1721 11.3199 16.4212 11.9656 16.4212 12.6656C16.4212 13.386 16.1426 14.0455 15.5443 14.741C15.0091 15.3633 14.2399 15.9948 13.3492 16.7261C13.0448 16.9759 12.6999 17.2592 12.3419 17.5608C12.2474 17.6405 12.126 17.6844 12.0002 17.6844ZM10.0492 10.6045C9.5127 10.6045 9.01984 10.8108 8.66129 11.1854C8.29741 11.5657 8.09699 12.0913 8.09699 12.6656C8.09699 13.2715 8.33074 13.8134 8.85484 14.4227C9.36139 15.0116 10.1149 15.6302 10.9872 16.3465L10.9889 16.3478C11.2938 16.5982 11.6396 16.8821 11.9994 17.1852C12.3614 16.8815 12.7077 16.5972 13.0133 16.3463C13.8856 15.6301 14.639 15.0116 15.1455 14.4227C15.6696 13.8134 15.9033 13.2715 15.9033 12.6656C15.9033 12.0913 15.7029 11.5657 15.339 11.1854C14.9805 10.8108 14.4876 10.6045 13.9512 10.6045C13.5581 10.6045 13.1973 10.7249 12.8787 10.9622C12.5947 11.1738 12.397 11.4413 12.281 11.6285C12.2214 11.7248 12.1164 11.7822 12.0002 11.7822C11.8839 11.7822 11.779 11.7248 11.7193 11.6285C11.6034 11.4413 11.4056 11.1738 11.1216 10.9622C10.803 10.7249 10.4422 10.6045 10.0492 10.6045Z" fill="#DE181F" stroke="#DE181F" stroke-width="0.8"/>
</g>
</svg>
