<svg width="18" height="21" viewBox="0 0 18 21" fill="none" xmlns="http://www.w3.org/2000/svg">
<path d="M16.9933 9.58567L16.9874 4.30314C16.9875 4.17877 16.9455 4.05739 16.8673 3.95547C16.789 3.85356 16.6781 3.77604 16.5498 3.73344L9.22823 1.30922C9.08124 1.26053 8.92011 1.26053 8.77312 1.30922L1.45154 3.73344C1.32305 3.77592 1.21204 3.85338 1.1336 3.9553C1.05515 4.05723 1.01307 4.17867 1.01307 4.30314L1.00642 9.58567C0.962322 13.9114 0.929041 17.0364 8.78976 19.4235C8.85764 19.444 8.92871 19.4545 9.00026 19.4545C9.0717 19.4541 9.14267 19.4439 9.21075 19.4242C17.0706 17.0379 17.039 13.9129 16.9933 9.58567Z" fill="#FFC76F" stroke="#985801" stroke-width="1.2"/>
<path fill-rule="evenodd" clip-rule="evenodd" d="M7.05199 6.06562C6.80656 6.40854 6.66747 6.81608 6.65199 7.2375H6.6558C6.64472 7.81719 6.86429 8.37756 7.26629 8.79537C7.66829 9.21318 8.21988 9.45425 8.79957 9.46553C9.22127 9.46555 9.63374 9.34152 9.98546 9.10886C10.3372 8.8762 10.6125 8.54519 10.7775 8.15709C10.9424 7.76899 10.9898 7.34095 10.9132 6.92625C10.8366 6.51155 10.6396 6.12853 10.3469 5.82491C10.0543 5.52129 9.67866 5.31046 9.26706 5.21871C8.85546 5.12697 8.42588 5.15835 8.03197 5.30894C7.63807 5.45953 7.29742 5.72269 7.05199 6.06562ZM4.77375 14.2399C4.7636 14.3945 5.00089 14.7162 5.12037 14.7162L13.0041 14.7155C13.3625 14.7155 13.368 14.3562 13.3625 14.2406C13.3405 13.1089 12.8795 12.03 12.0767 11.232C11.2739 10.434 10.1924 9.9794 9.06052 9.96422C8.49742 9.96028 7.93893 10.0681 7.4178 10.2815C6.89667 10.4948 6.42316 10.8094 6.02447 11.2071C5.62579 11.6048 5.30988 12.0776 5.0952 12.5982C4.88053 13.1187 4.77126 13.6768 4.77375 14.2399Z" fill="url(#paint0_linear)"/>
<defs>
<linearGradient id="paint0_linear" x1="8.80369" y1="5.16724" x2="8.80369" y2="14.7162" gradientUnits="userSpaceOnUse">
<stop stop-color="#E1590A"/>
<stop offset="1" stop-color="#C23102"/>
</linearGradient>
</defs>
</svg>
