<svg width="18" height="18" viewBox="0 0 18 18" fill="none" xmlns="http://www.w3.org/2000/svg">
<mask id="mask0" mask-type="alpha" maskUnits="userSpaceOnUse" x="0" y="0" width="18" height="18">
<rect width="18" height="18" fill="#C4C4C4"/>
</mask>
<g mask="url(#mask0)">
<path d="M10.0561 11.748L10.0547 11.7473C9.93227 11.6861 9.82205 11.6309 9.72889 11.5731C8.74006 10.945 7.83977 10.1256 6.97449 9.06254C6.57655 8.55949 6.30506 8.13507 6.10597 7.7108C6.33801 7.49556 6.55611 7.27423 6.76675 7.06048C6.79096 7.03591 6.81507 7.01144 6.83909 6.9871C6.88662 6.93956 6.9341 6.89124 6.98121 6.84328L6.98132 6.84317C7.02865 6.795 7.07561 6.7472 7.12252 6.70028C7.49265 6.33016 7.68368 5.89881 7.68368 5.46116C7.68368 5.02351 7.49265 4.59217 7.12252 4.22204L6.20063 3.30014C6.09573 3.19525 5.98883 3.08834 5.88882 2.98165L5.88883 2.98165L5.88772 2.98051C5.68525 2.77129 5.47132 2.55391 5.2501 2.34963C4.90654 2.01017 4.49083 1.82554 4.04974 1.82554C3.60838 1.82554 3.18592 2.01037 2.83234 2.3498L2.83232 2.34979L2.83088 2.35123L2.82413 2.35799L2.82412 2.35798L2.82381 2.3583L1.67597 3.51627C1.67592 3.51632 1.67587 3.51638 1.67581 3.51643C1.22708 3.96524 0.970377 4.51389 0.914284 5.14844H0.914282L0.914232 5.14905C0.831317 6.15784 1.12835 7.09348 1.35238 7.69767C1.90406 9.18585 2.72768 10.5632 3.9526 12.0358L3.95281 12.0361C5.44078 13.8128 7.23162 15.2164 9.27758 16.2054L9.27827 16.2057C10.0573 16.5749 11.1083 17.0175 12.2864 17.0931L12.288 17.0932C12.3586 17.0966 12.4352 17.1001 12.5055 17.1001C13.3124 17.1001 13.9946 16.8089 14.5276 16.2303L14.5371 16.22L14.5382 16.2178C14.539 16.2169 14.5399 16.2159 14.5408 16.2148C14.5432 16.212 14.5459 16.2085 14.5488 16.2044C14.7066 16.0139 14.887 15.8394 15.0818 15.6511C15.097 15.6363 15.1124 15.6215 15.1278 15.6066C15.2734 15.4677 15.423 15.3215 15.5696 15.1682C15.9189 14.8047 16.1074 14.3755 16.1074 13.9305C16.1074 13.4815 15.9151 13.0551 15.558 12.7014C15.5579 12.7013 15.5578 12.7012 15.5577 12.7011L13.7049 10.8416C13.3615 10.4843 12.9416 10.2881 12.492 10.2881C12.0459 10.2881 11.623 10.4808 11.2664 10.8374L10.2517 11.8489C10.2145 11.8295 10.1775 11.8105 10.1413 11.7919C10.1122 11.777 10.0837 11.7624 10.0561 11.748ZM14.9073 14.395C14.8876 14.4187 14.8664 14.4424 14.8436 14.4661L14.8423 14.4648V14.3689C14.8507 14.3691 14.8599 14.3703 14.8698 14.3734C14.8823 14.3773 14.8956 14.3842 14.9073 14.395ZM14.4383 14.7321C14.4129 14.7567 14.3871 14.7818 14.3609 14.8074C14.1415 15.0167 13.9163 15.2384 13.704 15.4882C13.383 15.8306 13.0084 15.9917 12.5089 15.9917C12.4576 15.9917 12.407 15.9916 12.3602 15.9885L12.3599 15.9885C11.3772 15.9256 10.4596 15.5412 9.76286 15.208C7.86472 14.289 6.19776 12.9844 4.81209 11.3304C3.66629 9.94936 2.90287 8.67584 2.39766 7.31077L2.39755 7.31049C2.08669 6.47817 1.97629 5.83839 2.02531 5.23989C2.05711 4.86828 2.19886 4.56282 2.46239 4.2993L3.61277 3.14891C3.76642 3.00504 3.91834 2.9373 4.05649 2.9373C4.22911 2.9373 4.37697 3.04255 4.47881 3.1444L4.54952 3.07369L4.47881 3.1444L4.48388 3.14946L4.48894 3.15453L4.4889 3.15457L4.49138 3.15688C4.69544 3.34756 4.88985 3.5453 5.09565 3.75785L5.09567 3.75786C5.14834 3.81223 5.20181 3.86655 5.25537 3.92095L5.25635 3.92195C5.30968 3.97612 5.36312 4.0304 5.41651 4.08546L5.4165 4.08547L5.41759 4.08656L6.33949 5.00845C6.50896 5.17793 6.57866 5.32617 6.57866 5.46116C6.57866 5.59615 6.50896 5.7444 6.33949 5.91387C6.30582 5.94755 6.27299 5.98076 6.24053 6.0136C6.1769 6.07798 6.11469 6.14092 6.05033 6.20306L6.0503 6.20303L6.04825 6.20512C5.76497 6.49514 5.49668 6.76338 5.20543 7.02451L5.20533 7.0244L5.20253 7.02719L5.20119 7.0283L5.19739 7.03148C5.19359 7.03474 5.18584 7.04149 5.17791 7.05187C5.02238 7.20999 4.95414 7.37162 4.93646 7.52435C4.91884 7.67655 4.95248 7.81163 4.98434 7.91252L4.98433 7.91253L4.98483 7.91403L4.98989 7.92923L4.99496 7.94442L4.99473 7.9445L4.99739 7.95096C5.24167 8.54274 5.58493 9.09776 6.10201 9.7543L6.10146 9.75474L6.10958 9.76286C7.0464 10.9162 8.03592 11.8175 9.12909 12.5088C9.27185 12.5993 9.41749 12.6722 9.55148 12.7391L9.55328 12.74C9.67593 12.8014 9.78632 12.8567 9.87958 12.9145L9.87936 12.9149L9.8876 12.919C9.88934 12.9199 9.89199 12.9215 9.89958 12.9262L9.9006 12.9268C9.90669 12.9307 9.917 12.9371 9.92812 12.9427C10.0549 13.0061 10.1782 13.0376 10.3072 13.0376C10.6289 13.0376 10.8295 12.837 10.89 12.7765L10.8912 12.7753L12.0461 11.6204C12.1564 11.5101 12.314 11.3965 12.4853 11.3965C12.653 11.3965 12.8003 11.5036 12.8976 11.6104L12.8976 11.6104L12.9008 11.6137L12.9076 11.6204L12.9076 11.6204L14.7683 13.4811L14.7686 13.4815C14.931 13.6422 14.9999 13.793 15.0003 13.9341C15.0006 14.0731 14.9344 14.2246 14.7789 14.3891C14.7726 14.3939 14.7663 14.4 14.7604 14.4077C14.7595 14.4089 14.7585 14.4102 14.7574 14.4118C14.6549 14.5214 14.5504 14.6231 14.4383 14.7321Z" fill="white" stroke="white" stroke-width="0.2"/>
<path d="M13.7132 8.81566L13.7132 8.81573L13.7168 8.81515C14.0228 8.76553 14.2235 8.47643 14.1744 8.17363L14.1742 8.17285C13.9884 7.08174 13.472 6.08703 12.6842 5.29921C11.8963 4.51138 10.9016 3.995 9.81052 3.80913L9.81052 3.80913L9.80974 3.809C9.50624 3.75979 9.22201 3.96103 9.16848 4.26164C9.11521 4.56081 9.31167 4.85468 9.61871 4.90464C10.4824 5.04974 11.2672 5.45846 11.8944 6.08562C12.5213 6.71259 12.9269 7.49743 13.0754 8.36163C13.1209 8.63417 13.3564 8.82319 13.6231 8.82319C13.6541 8.82319 13.682 8.81964 13.7052 8.81668C13.7079 8.81633 13.7106 8.81599 13.7132 8.81566Z" fill="white" stroke="white" stroke-width="0.2"/>
<path d="M9.29681 1.36088L9.2968 1.36088L9.29655 1.3624C9.24727 1.66632 9.44903 1.95034 9.75279 2.0037L9.75338 2.0038C11.3062 2.26705 12.7226 3.00342 13.8496 4.12704C14.9765 5.25386 15.7095 6.67017 15.9728 8.2231C16.0183 8.49569 16.2538 8.68474 16.5205 8.68474C16.5515 8.68474 16.5794 8.68119 16.6026 8.67823C16.6053 8.67788 16.608 8.67754 16.6106 8.67721L16.6106 8.67724L16.6131 8.67687C16.9155 8.63131 17.1215 8.34236 17.0682 8.04113C16.7642 6.25781 15.9237 4.63499 14.6326 3.34398C13.3417 2.05305 11.719 1.21254 9.93585 0.908435C9.63305 0.854717 9.35 1.06218 9.29681 1.36088Z" fill="white" stroke="white" stroke-width="0.2"/>
</g>
</svg>
