<svg width="18" height="18" viewBox="0 0 18 18" fill="none" xmlns="http://www.w3.org/2000/svg">
<mask id="mask0" mask-type="alpha" maskUnits="userSpaceOnUse" x="0" y="0" width="18" height="18">
<rect width="18" height="18" fill="#C4C4C4"/>
</mask>
<g mask="url(#mask0)">
<path d="M10.0561 11.7479L10.0547 11.7472C9.93227 11.686 9.82205 11.6308 9.72889 11.573C8.74006 10.9449 7.83977 10.1255 6.97449 9.06245C6.57655 8.5594 6.30506 8.13498 6.10597 7.71071C6.33801 7.49547 6.55611 7.27414 6.76675 7.06039C6.79096 7.03582 6.81507 7.01135 6.83909 6.987C6.88662 6.93947 6.9341 6.89115 6.98121 6.84319L6.98132 6.84308C7.02865 6.79491 7.07561 6.7471 7.12252 6.70019C7.49265 6.33007 7.68368 5.89872 7.68368 5.46107C7.68368 5.02342 7.49265 4.59208 7.12252 4.22195L6.20063 3.30005C6.09573 3.19516 5.98883 3.08825 5.88882 2.98156L5.88883 2.98155L5.88772 2.98041C5.68525 2.7712 5.47132 2.55382 5.2501 2.34954C4.90654 2.01007 4.49083 1.82545 4.04974 1.82545C3.60838 1.82545 3.18592 2.01028 2.83234 2.34971L2.83232 2.3497L2.83088 2.35114L2.82413 2.35789L2.82412 2.35789L2.82381 2.35821L1.67597 3.51618C1.67592 3.51623 1.67587 3.51628 1.67581 3.51634C1.22708 3.96514 0.970377 4.5138 0.914284 5.14834H0.914282L0.914232 5.14896C0.831317 6.15775 1.12835 7.09339 1.35238 7.69758C1.90406 9.18576 2.72768 10.5631 3.9526 12.0357L3.95281 12.036C5.44078 13.8127 7.23162 15.2163 9.27758 16.2053L9.27827 16.2056C10.0573 16.5748 11.1083 17.0175 12.2864 17.093L12.288 17.0931C12.3586 17.0965 12.4352 17.1 12.5055 17.1C13.3124 17.1 13.9946 16.8088 14.5276 16.2303L14.5371 16.2199L14.5382 16.2177C14.539 16.2168 14.5399 16.2158 14.5408 16.2148C14.5432 16.2119 14.5459 16.2084 14.5488 16.2043C14.7066 16.0138 14.887 15.8394 15.0818 15.651C15.097 15.6363 15.1124 15.6214 15.1278 15.6065C15.2734 15.4676 15.423 15.3214 15.5696 15.1681C15.9189 14.8046 16.1074 14.3755 16.1074 13.9304C16.1074 13.4814 15.9151 13.055 15.558 12.7013C15.5579 12.7012 15.5578 12.7011 15.5577 12.701L13.7049 10.8415C13.3615 10.4842 12.9416 10.288 12.492 10.288C12.0459 10.288 11.623 10.4807 11.2664 10.8373L10.2517 11.8488C10.2145 11.8294 10.1775 11.8104 10.1413 11.7918C10.1122 11.7769 10.0837 11.7623 10.0561 11.7479ZM14.9073 14.3949C14.8876 14.4186 14.8664 14.4423 14.8436 14.466L14.8423 14.4647V14.3688C14.8507 14.369 14.8599 14.3702 14.8698 14.3733C14.8823 14.3772 14.8956 14.3841 14.9073 14.3949ZM14.4383 14.732C14.4129 14.7567 14.3871 14.7817 14.3609 14.8073C14.1415 15.0166 13.9163 15.2383 13.704 15.4881C13.383 15.8305 13.0084 15.9916 12.5089 15.9916C12.4576 15.9916 12.407 15.9915 12.3602 15.9884L12.3599 15.9884C11.3772 15.9255 10.4596 15.5411 9.76286 15.2079C7.86472 14.2889 6.19776 12.9843 4.81209 11.3303C3.66629 9.94927 2.90287 8.67575 2.39766 7.31068L2.39755 7.3104C2.08669 6.47808 1.97629 5.8383 2.02531 5.2398C2.05711 4.86819 2.19886 4.56273 2.46239 4.29921L3.61277 3.14882C3.76642 3.00495 3.91834 2.93721 4.05649 2.93721C4.22911 2.93721 4.37697 3.04246 4.47881 3.14431L4.54952 3.0736L4.47881 3.14431L4.48388 3.14937L4.48894 3.15444L4.4889 3.15448L4.49138 3.15679C4.69544 3.34747 4.88985 3.5452 5.09565 3.75775L5.09567 3.75777C5.14834 3.81214 5.20181 3.86646 5.25537 3.92086L5.25635 3.92186C5.30968 3.97603 5.36312 4.03031 5.41651 4.08537L5.4165 4.08538L5.41759 4.08646L6.33949 5.00836C6.50896 5.17783 6.57866 5.32608 6.57866 5.46107C6.57866 5.59606 6.50896 5.74431 6.33949 5.91378C6.30582 5.94746 6.27299 5.98067 6.24053 6.01351C6.1769 6.07789 6.11469 6.14082 6.05033 6.20297L6.0503 6.20294L6.04825 6.20503C5.76497 6.49505 5.49668 6.76329 5.20543 7.02442L5.20533 7.02431L5.20253 7.0271L5.20119 7.02821L5.19739 7.03139C5.19359 7.03465 5.18584 7.0414 5.17791 7.05178C5.02238 7.2099 4.95414 7.37153 4.93646 7.52426C4.91884 7.67646 4.95248 7.81154 4.98434 7.91243L4.98433 7.91243L4.98483 7.91394L4.98989 7.92914L4.99496 7.94433L4.99473 7.94441L4.99739 7.95086C5.24167 8.54265 5.58493 9.09767 6.10201 9.75421L6.10146 9.75465L6.10958 9.76277C7.0464 10.9161 8.03592 11.8174 9.12909 12.5087C9.27185 12.5992 9.41749 12.6721 9.55148 12.7391L9.55328 12.74C9.67593 12.8013 9.78632 12.8566 9.87958 12.9145L9.87936 12.9148L9.8876 12.9189C9.88934 12.9198 9.89199 12.9214 9.89958 12.9261L9.9006 12.9267C9.90669 12.9306 9.917 12.937 9.92812 12.9426C10.0549 13.006 10.1782 13.0376 10.3072 13.0376C10.6289 13.0376 10.8295 12.8369 10.89 12.7764L10.8912 12.7753L12.0461 11.6204C12.1564 11.51 12.314 11.3964 12.4853 11.3964C12.653 11.3964 12.8003 11.5035 12.8976 11.6103L12.8976 11.6103L12.9008 11.6136L12.9076 11.6203L12.9076 11.6204L14.7683 13.481L14.7686 13.4814C14.931 13.6421 14.9999 13.793 15.0003 13.934C15.0006 14.073 14.9344 14.2245 14.7789 14.389C14.7726 14.3938 14.7663 14.3999 14.7604 14.4076C14.7595 14.4088 14.7585 14.4102 14.7574 14.4117C14.6549 14.5213 14.5504 14.623 14.4383 14.732Z" fill="#DE181F" stroke="#DE181F" stroke-width="0.2"/>
<path d="M13.7132 8.81569L13.7132 8.81576L13.7168 8.81518C14.0228 8.76556 14.2235 8.47646 14.1744 8.17366L14.1742 8.17288C13.9884 7.08177 13.472 6.08706 12.6842 5.29924C11.8963 4.51141 10.9016 3.99503 9.81052 3.80917L9.81052 3.80916L9.80974 3.80903C9.50624 3.75982 9.22201 3.96106 9.16848 4.26167C9.11521 4.56084 9.31167 4.85471 9.61871 4.90467C10.4824 5.04977 11.2672 5.45849 11.8944 6.08565C12.5213 6.71262 12.9269 7.49746 13.0754 8.36166C13.1209 8.6342 13.3564 8.82322 13.6231 8.82322C13.6541 8.82322 13.682 8.81967 13.7052 8.81671C13.7079 8.81636 13.7106 8.81602 13.7132 8.81569Z" fill="#DE181F" stroke="#DE181F" stroke-width="0.2"/>
<path d="M9.29681 1.36088L9.2968 1.36088L9.29655 1.3624C9.24727 1.66632 9.44903 1.95034 9.75279 2.0037L9.75338 2.0038C11.3062 2.26705 12.7226 3.00342 13.8496 4.12704C14.9765 5.25386 15.7095 6.67017 15.9728 8.2231C16.0183 8.49569 16.2538 8.68474 16.5205 8.68474C16.5515 8.68474 16.5794 8.68119 16.6026 8.67823C16.6053 8.67788 16.608 8.67754 16.6106 8.67721L16.6106 8.67724L16.6131 8.67687C16.9155 8.63131 17.1215 8.34236 17.0682 8.04113C16.7642 6.25781 15.9237 4.63499 14.6326 3.34398C13.3417 2.05305 11.719 1.21254 9.93585 0.908435C9.63305 0.854717 9.35 1.06218 9.29681 1.36088Z" fill="#DE181F" stroke="#DE181F" stroke-width="0.2"/>
</g>
</svg>
