<svg width="24" height="24" viewBox="0 0 24 24" fill="none" xmlns="http://www.w3.org/2000/svg">
<path d="M12.0026 22.6654C17.8379 22.6654 22.6693 17.8235 22.6693 11.9987C22.6693 6.1634 17.8274 1.33203 11.9921 1.33203C6.16731 1.33203 1.33594 6.1634 1.33594 11.9987C1.33594 17.8235 6.17777 22.6654 12.0026 22.6654ZM12.0026 20.8876C7.06666 20.8876 3.12417 16.9346 3.12417 11.9987C3.12417 7.06275 7.0562 3.10981 11.9921 3.10981C16.9281 3.10981 20.881 7.06275 20.8915 11.9987C20.9019 16.9346 16.9386 20.8876 12.0026 20.8876ZM8.01829 12.8771H11.1137V15.9935C11.1137 16.5163 11.4693 16.8719 11.9817 16.8719C12.5046 16.8719 12.8706 16.5163 12.8706 15.9935V12.8771H15.9869C16.5098 12.8771 16.8653 12.5216 16.8653 12.0092C16.8653 11.4863 16.5098 11.1203 15.9869 11.1203H12.8706V8.02484C12.8706 7.48105 12.5046 7.12549 11.9817 7.12549C11.4693 7.12549 11.1137 7.49151 11.1137 8.02484V11.1203H8.01829C7.4745 11.1203 7.11894 11.4863 7.11894 12.0092C7.11894 12.5216 7.48496 12.8771 8.01829 12.8771Z" fill="#9B3A32"/>
</svg>
