<svg width="18" height="17" viewBox="0 0 18 17" fill="none" xmlns="http://www.w3.org/2000/svg">
<path d="M15.5081 3.54297H2.36076C1.8979 3.54422 1.45443 3.72897 1.12758 4.0567C0.800732 4.38444 0.617186 4.82841 0.617188 5.29127L0.617188 13.9296C0.617603 14.3922 0.801334 14.8357 1.12814 15.1631C1.45494 15.4905 1.89818 15.6751 2.36076 15.6763H15.5081C15.9718 15.6763 16.4165 15.4921 16.7443 15.1642C17.0722 14.8364 17.2564 14.3917 17.2564 13.928V5.29127C17.2564 4.82759 17.0722 4.38291 16.7443 4.05504C16.4165 3.72716 15.9718 3.54297 15.5081 3.54297V3.54297Z" fill="#FFC76F" stroke="#985801"/>
<g clip-path="url(#clip0)">
<path d="M11.5577 10.4092H9.88498V12.0055C9.88498 12.4564 9.68353 12.8164 9.23044 12.8164C8.77735 12.8164 8.57589 12.4528 8.57589 12.0055V10.4092H6.90316C6.45225 10.4092 6.08789 10.1983 6.08789 9.74807C6.09059 9.64678 6.11442 9.54717 6.15786 9.45563C6.2013 9.36409 6.26339 9.28263 6.34015 9.21649C6.41691 9.15034 6.50664 9.10097 6.60359 9.07152C6.70055 9.04208 6.80259 9.03323 6.90316 9.04552H8.57589V7.35534C8.57589 6.90443 8.77662 6.54443 9.23044 6.54443C9.68426 6.54443 9.88498 6.90807 9.88498 7.35534V9.04552H11.5577C11.6579 9.03316 11.7596 9.04202 11.8561 9.07153C11.9526 9.10104 12.0418 9.15054 12.118 9.21681C12.1941 9.28307 12.2555 9.36462 12.298 9.45615C12.3406 9.54768 12.3634 9.64714 12.365 9.74807C12.3643 10.199 12.0079 10.4092 11.5577 10.4092Z" fill="url(#paint0_linear)"/>
</g>
<path d="M3.22975 1.6636H14.4381C14.6033 1.6636 14.7617 1.59799 14.8785 1.48119C14.9953 1.36438 15.0609 1.20597 15.0609 1.04079C15.0609 0.875605 14.9953 0.717189 14.8785 0.600388C14.7617 0.483587 14.6033 0.417969 14.4381 0.417969H3.22975C3.06457 0.417969 2.90615 0.483587 2.78935 0.600388C2.67255 0.717189 2.60693 0.875605 2.60693 1.04079C2.60693 1.20597 2.67255 1.36438 2.78935 1.48119C2.90615 1.59799 3.06457 1.6636 3.22975 1.6636Z" fill="#FFC76F"/>
<defs>
<linearGradient id="paint0_linear" x1="9.22644" y1="6.54443" x2="9.22644" y2="12.8164" gradientUnits="userSpaceOnUse">
<stop stop-color="#E1590A"/>
<stop offset="1" stop-color="#C23102"/>
</linearGradient>
<clipPath id="clip0">
<rect width="6.27273" height="6.27273" fill="white" transform="translate(6.0918 6.5437)"/>
</clipPath>
</defs>
</svg>
