<svg width="16" height="18" viewBox="0 0 16 18" fill="none" xmlns="http://www.w3.org/2000/svg">
<path d="M12.6375 6C12.1368 6 11.6474 5.85338 11.2311 5.57867C10.8148 5.30397 10.4903 4.91353 10.2987 4.45671C10.1071 3.99989 10.0569 3.49723 10.1546 3.01228C10.2523 2.52732 10.4934 2.08187 10.8474 1.73223C11.2015 1.3826 11.6525 1.1445 12.1436 1.04804C12.6347 0.951575 13.1437 1.00108 13.6063 1.1903C14.0688 1.37952 14.4642 1.69995 14.7424 2.11108C15.0206 2.5222 15.169 3.00555 15.169 3.5C15.169 4.16304 14.9023 4.79893 14.4276 5.26777C13.9528 5.73661 13.3089 6 12.6375 6ZM12.6375 2C12.3371 2 12.0434 2.08797 11.7936 2.2528C11.5439 2.41762 11.3491 2.65189 11.2342 2.92598C11.1192 3.20007 11.0891 3.50167 11.1477 3.79264C11.2064 4.08361 11.351 4.35088 11.5634 4.56066C11.7759 4.77044 12.0465 4.9133 12.3412 4.97118C12.6358 5.02906 12.9412 4.99935 13.2188 4.88582C13.4963 4.77229 13.7335 4.58003 13.9004 4.33336C14.0673 4.08668 14.1564 3.79667 14.1564 3.5C14.1564 3.10218 13.9964 2.72065 13.7116 2.43934C13.4267 2.15804 13.0403 2 12.6375 2Z" fill="#727272" stroke="#727272" stroke-width="0.3"/>
<path d="M12.6375 17C12.1368 17 11.6474 16.8534 11.2311 16.5787C10.8148 16.304 10.4903 15.9135 10.2987 15.4567C10.1071 14.9999 10.0569 14.4972 10.1546 14.0123C10.2523 13.5273 10.4934 13.0819 10.8474 12.7322C11.2015 12.3826 11.6525 12.1445 12.1436 12.048C12.6347 11.9516 13.1437 12.0011 13.6063 12.1903C14.0688 12.3795 14.4642 12.7 14.7424 13.1111C15.0206 13.5222 15.169 14.0055 15.169 14.5C15.169 15.163 14.9023 15.7989 14.4276 16.2678C13.9528 16.7366 13.3089 17 12.6375 17ZM12.6375 13C12.3371 13 12.0434 13.088 11.7936 13.2528C11.5439 13.4176 11.3491 13.6519 11.2342 13.926C11.1192 14.2001 11.0891 14.5017 11.1477 14.7926C11.2064 15.0836 11.351 15.3509 11.5634 15.5607C11.7759 15.7704 12.0465 15.9133 12.3412 15.9712C12.6358 16.0291 12.9412 15.9994 13.2188 15.8858C13.4963 15.7723 13.7335 15.58 13.9004 15.3333C14.0673 15.0867 14.1564 14.7967 14.1564 14.5C14.1564 14.1022 13.9964 13.7206 13.7116 13.4393C13.4267 13.158 13.0403 13 12.6375 13Z" fill="#727272" stroke="#727272" stroke-width="0.3"/>
<path d="M2.84844 11.5C2.34775 11.5 1.8583 11.3534 1.44199 11.0787C1.02568 10.804 0.701204 10.4135 0.509598 9.95671C0.317991 9.4999 0.267858 8.99722 0.365539 8.51227C0.463219 8.02732 0.704325 7.58187 1.05837 7.23224C1.41241 6.88261 1.86349 6.6445 2.35456 6.54804C2.84563 6.45157 3.35464 6.50109 3.81722 6.69031C4.2798 6.87953 4.67517 7.19995 4.95334 7.61107C5.23151 8.02219 5.37998 8.50555 5.37998 9C5.37998 9.66304 5.11327 10.2989 4.63851 10.7678C4.16375 11.2366 3.51985 11.5 2.84844 11.5ZM2.84844 7.5C2.54802 7.5 2.25435 7.58797 2.00457 7.75279C1.75478 7.91762 1.5601 8.15189 1.44513 8.42598C1.33017 8.70007 1.30009 9.00166 1.3587 9.29263C1.41731 9.58361 1.56197 9.85088 1.7744 10.0607C1.98682 10.2704 2.25747 10.4133 2.55211 10.4712C2.84675 10.5291 3.15216 10.4994 3.42971 10.3858C3.70725 10.2723 3.94448 10.08 4.11138 9.83336C4.27828 9.58669 4.36736 9.29667 4.36736 9C4.36736 8.60218 4.20733 8.22065 3.92248 7.93935C3.63763 7.65804 3.25128 7.5 2.84844 7.5Z" fill="#727272" stroke="#727272" stroke-width="0.3"/>
<path d="M4.6115 8.51397C4.49989 8.51391 4.39143 8.47744 4.30299 8.41022C4.21454 8.343 4.15106 8.24881 4.12242 8.14229C4.09378 8.03577 4.10159 7.92288 4.14462 7.82119C4.18765 7.7195 4.26349 7.6347 4.36037 7.57997L10.6244 4.05297C10.7411 3.98733 10.8794 3.97016 11.0089 4.00523C11.1384 4.0403 11.2485 4.12473 11.315 4.23997C11.3815 4.35521 11.3989 4.4918 11.3634 4.6197C11.3279 4.7476 11.2423 4.85634 11.1257 4.92198L4.86161 8.44898C4.78534 8.49166 4.69916 8.51405 4.6115 8.51397Z" fill="#727272" stroke="#727272" stroke-width="0.3"/>
<path d="M10.8788 14.0119C10.791 14.0117 10.7048 13.989 10.6287 13.9459L4.36462 10.4189C4.24793 10.3533 4.16242 10.2445 4.12691 10.1166C4.0914 9.98874 4.10879 9.85215 4.17526 9.73691C4.24173 9.62168 4.35183 9.53724 4.48134 9.50217C4.61086 9.4671 4.74917 9.48429 4.86586 9.54993L11.1299 13.0769C11.2273 13.1314 11.3036 13.2163 11.347 13.3182C11.3904 13.42 11.3984 13.5333 11.3697 13.6401C11.341 13.747 11.2772 13.8414 11.1884 13.9087C11.0996 13.9759 10.9907 14.0123 10.8788 14.0119Z" fill="#727272" stroke="#727272" stroke-width="0.3"/>
</svg>
