<svg width="24" height="24" viewBox="0 0 24 24" fill="none" xmlns="http://www.w3.org/2000/svg">
<mask id="mask0" mask-type="alpha" maskUnits="userSpaceOnUse" x="1" y="0" width="23" height="25">
<path d="M23 1H2V24H23V1Z" fill="#C4C4C4" stroke="#DE181F"/>
</mask>
<g mask="url(#mask0)">
<path d="M18.6738 11.265V3.34311C18.6675 3.19819 18.6043 3.06155 18.4978 2.96302C18.3914 2.86449 18.2503 2.81203 18.1053 2.817C18.0109 2.81657 17.9177 2.83826 17.8331 2.88022L16.5699 3.5155C16.4852 3.55781 16.3918 3.57995 16.2971 3.57995C16.2024 3.57995 16.109 3.55781 16.0243 3.5155L14.1927 2.59218C14.1078 2.54996 14.0143 2.52804 13.9195 2.52804C13.8247 2.52804 13.7312 2.54996 13.6464 2.59218L11.8148 3.5155C11.7299 3.55776 11.6364 3.5798 11.5416 3.5798C11.4468 3.5798 11.3533 3.55776 11.2685 3.5155L10.5232 3.13664V3.13217L9.44951 2.58972C9.36245 2.5477 9.26705 2.52588 9.17038 2.52588C9.07371 2.52588 8.97828 2.5477 8.89122 2.58972L7.06278 3.51241C6.97932 3.5548 6.88702 3.57687 6.79341 3.57687C6.69979 3.57687 6.60753 3.5548 6.52407 3.51241L5.26091 2.87698C5.17585 2.83509 5.08222 2.81357 4.98741 2.81391C4.97162 2.81391 4.95646 2.81382 4.9413 2.81761H4.92743C4.8946 2.82071 4.86209 2.82648 4.83017 2.83473H4.82319C4.79089 2.84335 4.75942 2.85474 4.72909 2.86881L4.72088 2.87328C4.69222 2.88744 4.66476 2.90384 4.63877 2.92247L4.62617 2.93264C4.60348 2.95062 4.58233 2.97048 4.56299 2.99201L4.54846 3.00774C4.53007 3.02929 4.51322 3.05202 4.49796 3.07589L4.49036 3.08668C4.48657 3.093 4.48405 3.09933 4.48026 3.10565C4.47647 3.11196 4.46698 3.13093 4.4613 3.1442C4.45125 3.16796 4.44302 3.19243 4.43666 3.21744C4.43666 3.22691 4.43228 3.23694 4.43038 3.24704C4.42469 3.27555 4.42151 3.30464 4.4209 3.3337V20.2146C4.4215 20.2436 4.42468 20.2726 4.43038 20.3011C4.43038 20.3112 4.43414 20.3206 4.43666 20.3307C4.44308 20.3559 4.45131 20.3805 4.4613 20.4045C4.46698 20.4172 4.47395 20.4298 4.48026 20.4425C4.48658 20.4551 4.48657 20.4557 4.49036 20.462L4.49796 20.4722C4.51325 20.4961 4.5301 20.5188 4.54846 20.5404L4.56299 20.5569C4.58249 20.5781 4.60363 20.5975 4.62617 20.6155L4.63877 20.6256C4.66478 20.6441 4.69224 20.6603 4.72088 20.6742L4.72909 20.6787C4.75966 20.6929 4.79136 20.7044 4.82385 20.7134H4.83017C4.86229 20.7218 4.895 20.7278 4.92804 20.7311H4.9413C4.95646 20.7311 4.97162 20.735 4.98741 20.735C5.08221 20.7352 5.17583 20.7136 5.26091 20.6717L6.52407 20.0357C6.60867 19.9938 6.70185 19.9723 6.79626 19.9726C6.88879 19.9728 6.98001 19.9943 7.06278 20.0357L8.89122 20.9579C8.9783 20.9999 9.07373 21.0216 9.17038 21.0216C9.26704 21.0216 9.36243 20.9999 9.44951 20.9579L10.5232 20.4159V20.4102L11.2685 20.0345" stroke="#DE181F" stroke-width="1.3" stroke-miterlimit="10"/>
<mask id="mask1" mask-type="alpha" maskUnits="userSpaceOnUse" x="6" y="7" width="11" height="2">
<path d="M15.9719 7.15552H7.18853C6.92692 7.15552 6.71484 7.36759 6.71484 7.6292C6.71484 7.89081 6.92692 8.10289 7.18853 8.10289H15.9719C16.2335 8.10289 16.4456 7.89081 16.4456 7.6292C16.4456 7.36759 16.2335 7.15552 15.9719 7.15552Z" fill="white"/>
</mask>
<g mask="url(#mask1)">
<path d="M15.9719 7.15552H7.18853C6.92692 7.15552 6.71484 7.36759 6.71484 7.6292C6.71484 7.89081 6.92692 8.10289 7.18853 8.10289H15.9719C16.2335 8.10289 16.4456 7.89081 16.4456 7.6292C16.4456 7.36759 16.2335 7.15552 15.9719 7.15552Z" fill="#DE181F"/>
<path d="M7.18853 8.15552H15.9719V6.15552H7.18853V8.15552ZM15.9719 8.15552C15.6812 8.15552 15.4456 7.91988 15.4456 7.6292H17.4456C17.4456 6.81531 16.7858 6.15552 15.9719 6.15552V8.15552ZM15.4456 7.6292C15.4456 7.33853 15.6812 7.10289 15.9719 7.10289V9.10289C16.7858 9.10289 17.4456 8.44309 17.4456 7.6292H15.4456ZM15.9719 7.10289H7.18853V9.10289H15.9719V7.10289ZM7.18853 7.10289C7.4792 7.10289 7.71484 7.33853 7.71484 7.6292H5.71484C5.71484 8.4431 6.37463 9.10289 7.18853 9.10289V7.10289ZM7.71484 7.6292C7.71484 7.91988 7.4792 8.15552 7.18853 8.15552V6.15552C6.37463 6.15552 5.71484 6.81531 5.71484 7.6292H7.71484Z" fill="#DE181F"/>
</g>
<mask id="mask2" mask-type="alpha" maskUnits="userSpaceOnUse" x="6" y="9" width="7" height="2">
<path d="M12.1496 9.84839H7.18853C6.92692 9.84839 6.71484 10.0605 6.71484 10.3221C6.71484 10.5837 6.92692 10.7958 7.18853 10.7958H12.1496C12.4112 10.7958 12.6233 10.5837 12.6233 10.3221C12.6233 10.0605 12.4112 9.84839 12.1496 9.84839Z" fill="white"/>
</mask>
<g mask="url(#mask2)">
<path d="M12.1496 9.84839H7.18853C6.92692 9.84839 6.71484 10.0605 6.71484 10.3221C6.71484 10.5837 6.92692 10.7958 7.18853 10.7958H12.1496C12.4112 10.7958 12.6233 10.5837 12.6233 10.3221C12.6233 10.0605 12.4112 9.84839 12.1496 9.84839Z" fill="#DE181F"/>
<path d="M7.18853 10.8484H12.1496V8.84839H7.18853V10.8484ZM12.1496 10.8484C11.8589 10.8484 11.6233 10.6127 11.6233 10.3221H13.6233C13.6233 9.50818 12.9635 8.84839 12.1496 8.84839V10.8484ZM11.6233 10.3221C11.6233 10.0314 11.8589 9.79576 12.1496 9.79576V11.7958C12.9635 11.7958 13.6233 11.136 13.6233 10.3221H11.6233ZM12.1496 9.79576H7.18853V11.7958H12.1496V9.79576ZM7.18853 9.79576C7.4792 9.79576 7.71484 10.0314 7.71484 10.3221H5.71484C5.71484 11.136 6.37463 11.7958 7.18853 11.7958V9.79576ZM7.71484 10.3221C7.71484 10.6127 7.4792 10.8484 7.18853 10.8484V8.84839C6.37463 8.84839 5.71484 9.50818 5.71484 10.3221H7.71484Z" fill="#DE181F"/>
</g>
<path d="M11 17.0526C11 16.0533 11.2963 15.0764 11.8515 14.2455C12.4067 13.4146 13.1958 12.767 14.119 12.3846C15.0423 12.0022 16.0583 11.9021 17.0384 12.0971C18.0185 12.2921 18.9187 12.7732 19.6253 13.4799C20.3319 14.1865 20.8131 15.0868 21.0081 16.0669C21.203 17.047 21.1031 18.0629 20.7207 18.9862C20.3383 19.9094 19.6906 20.6985 18.8597 21.2537C18.0288 21.8089 17.052 22.1053 16.0526 22.1053C14.7131 22.1038 13.4287 21.571 12.4815 20.6237C11.5343 19.6765 11.0015 18.3922 11 17.0526ZM11.7768 17.0526C11.7767 17.8982 12.0273 18.7247 12.4969 19.4279C12.9666 20.131 13.6343 20.679 14.4154 21.0027C15.1965 21.3265 16.0561 21.4113 16.8854 21.2464C17.7148 21.0816 18.4765 20.6745 19.0745 20.0767C19.6725 19.4789 20.0798 18.7172 20.2449 17.8879C20.4099 17.0587 20.3255 16.199 20.002 15.4178C19.6785 14.6366 19.1307 13.9688 18.4277 13.4989C17.7247 13.0291 16.8982 12.7782 16.0526 12.7781C14.9193 12.7794 13.8326 13.2302 13.031 14.0315C12.2295 14.8328 11.7785 15.9192 11.7768 17.0526ZM17.3348 18.8842L15.7805 17.3292C15.7077 17.2563 15.6667 17.1575 15.6667 17.0545V14.7227C15.6667 14.6195 15.7077 14.5206 15.7806 14.4476C15.8536 14.3747 15.9525 14.3337 16.0557 14.3337C16.1589 14.3337 16.258 14.3747 16.331 14.4476C16.4039 14.5206 16.4449 14.6195 16.4449 14.7227V16.8941L17.8862 18.3347C17.9568 18.4082 17.9956 18.5065 17.9946 18.6084C17.9935 18.7103 17.9524 18.8077 17.8803 18.8797C17.8082 18.9516 17.7107 18.9925 17.6088 18.9933C17.5069 18.9942 17.4087 18.955 17.3354 18.8842H17.3348Z" fill="#DE181F" stroke="#DE181F" stroke-width="0.5"/>
</g>
</svg>
