<svg width="24" height="24" viewBox="0 0 24 24" fill="none" xmlns="http://www.w3.org/2000/svg">
<mask id="mask0" mask-type="alpha" maskUnits="userSpaceOnUse" x="0" y="0" width="22" height="24">
<path d="M0 0H22V24H0V0Z" fill="#C4C4C4"/>
</mask>
<g mask="url(#mask0)">
<path d="M17.4111 12.001V3.97616C17.4048 3.83124 17.3416 3.69461 17.2351 3.59608C17.1287 3.49754 16.9876 3.44509 16.8426 3.45005C16.7482 3.44962 16.655 3.47131 16.5704 3.51327L15.3072 4.14855C15.2225 4.19086 15.1291 4.21301 15.0344 4.21301C14.9397 4.21301 14.8463 4.19086 14.7616 4.14855L12.93 3.22524C12.8451 3.18302 12.7516 3.16109 12.6568 3.16109C12.562 3.16109 12.4685 3.18302 12.3837 3.22524L10.5521 4.14855C10.4672 4.19082 10.3737 4.21285 10.2789 4.21285C10.1841 4.21285 10.0906 4.19082 10.0058 4.14855L9.26051 3.7697V3.76523L8.18682 3.22277C8.09976 3.18076 8.00436 3.15894 7.90769 3.15894C7.81102 3.15894 7.71558 3.18076 7.62852 3.22277L5.80009 4.14547C5.71662 4.18785 5.62432 4.20992 5.53071 4.20992C5.4371 4.20992 5.34484 4.18785 5.26137 4.14547L3.99821 3.51004C3.91316 3.46815 3.81952 3.44662 3.72471 3.44697C3.70892 3.44697 3.69377 3.44688 3.67861 3.45067H3.66473C3.63191 3.45377 3.59939 3.45954 3.56747 3.46779H3.5605C3.5282 3.47641 3.49672 3.48779 3.4664 3.50186L3.45819 3.50633C3.42953 3.5205 3.40206 3.5369 3.37608 3.55552L3.36347 3.5657C3.34079 3.58368 3.31964 3.60353 3.30029 3.62506L3.28576 3.64079C3.26738 3.66234 3.25052 3.68508 3.23526 3.70895L3.22767 3.71974C3.22388 3.72606 3.22136 3.73239 3.21757 3.73871C3.21378 3.74502 3.20429 3.76399 3.1986 3.77725C3.18856 3.80102 3.18032 3.82549 3.17397 3.8505C3.17397 3.85997 3.16958 3.87 3.16769 3.8801C3.16199 3.90861 3.15881 3.93769 3.1582 3.96676V20.8476C3.15881 20.8767 3.16199 20.9056 3.16769 20.9341C3.16769 20.9442 3.17144 20.9536 3.17397 20.9637C3.18038 20.9889 3.18862 21.0136 3.1986 21.0376C3.20429 21.0502 3.21125 21.0629 3.21757 21.0755C3.22388 21.0881 3.22388 21.0888 3.22767 21.0951L3.23526 21.1053C3.25055 21.1291 3.26741 21.1519 3.28576 21.1734L3.30029 21.1899C3.3198 21.2111 3.34094 21.2306 3.36347 21.2485L3.37608 21.2587C3.40208 21.2771 3.42954 21.2933 3.45819 21.3073L3.4664 21.3117C3.49696 21.3259 3.52867 21.3375 3.56115 21.3464H3.56747C3.59959 21.3549 3.6323 21.3608 3.66535 21.3642H3.67861C3.69377 21.3642 3.70892 21.368 3.72471 21.368C3.81952 21.3683 3.91313 21.3466 3.99821 21.3048L5.26137 20.6688C5.34598 20.6269 5.43915 20.6053 5.53356 20.6057C5.62609 20.6059 5.71732 20.6274 5.80009 20.6688L7.62852 21.591C7.71561 21.6329 7.81103 21.6547 7.90769 21.6547C8.00434 21.6547 8.09973 21.6329 8.18682 21.591L9.26051 21.049V21.0433L10.0058 20.6675" stroke="#DE181F" stroke-width="1.3" stroke-miterlimit="10"/>
<path d="M14.7092 7.78857H5.92583C5.66422 7.78857 5.45215 8.00065 5.45215 8.26226C5.45215 8.52387 5.66422 8.73594 5.92583 8.73594H14.7092C14.9708 8.73594 15.1829 8.52387 15.1829 8.26226C15.1829 8.00065 14.9708 7.78857 14.7092 7.78857Z" fill="#DE181F"/>
<path d="M10.8869 10.4827H5.92583C5.66422 10.4827 5.45215 10.6947 5.45215 10.9564C5.45215 11.218 5.66422 11.43 5.92583 11.43H10.8869C11.1485 11.43 11.3606 11.218 11.3606 10.9564C11.3606 10.6947 11.1485 10.4827 10.8869 10.4827Z" fill="#DE181F"/>
<path d="M18.0594 15.5773C17.852 15.4734 17.5671 15.5089 17.42 15.6579H17.42C17.2716 15.8082 17.3197 16.017 17.5275 16.1243V16.1243L19.1011 16.9373L19.1012 16.9373C19.3945 17.0885 19.7982 16.9499 19.8302 16.6955L20.0069 15.2933C20.0301 15.1094 19.8428 14.9467 19.5885 14.9299C19.3342 14.9132 19.1093 15.0487 19.0862 15.2326L19.1841 15.2391L19.0862 15.2326L19.0629 15.4171C18.2098 14.5614 16.8328 14 15.2519 14C13.4434 14 11.8502 14.7467 11.0595 15.8665C10.9434 16.0309 11.0336 16.2323 11.261 16.3163H11.261L18.0594 15.5773ZM18.0594 15.5773C17.3585 15.0129 16.3496 14.6688 15.2519 14.6688C13.8052 14.6688 12.5222 15.2653 11.883 16.1706L18.0594 15.5773Z" fill="#DE181F" stroke="#DE181F" stroke-width="0.2"/>
<path d="M12.9579 20.438C13.1659 20.5407 13.4506 20.5035 13.5968 20.3536L13.5968 20.3536C13.7443 20.2024 13.6949 19.9939 13.4865 19.8878L13.4865 19.8878L11.908 19.0844L11.9079 19.0844C11.6138 18.9349 11.2109 19.076 11.1804 19.3305L11.0121 20.7338C10.99 20.9178 11.1784 21.0794 11.4327 21.0946C11.6871 21.1098 11.9112 20.973 11.9332 20.7889L11.8353 20.7831L11.9332 20.7889L11.9554 20.6043C12.8136 21.4549 14.194 22.008 15.7748 21.9984C17.5834 21.9876 19.172 21.2313 19.9559 20.1068C20.071 19.9416 19.9796 19.7408 19.7518 19.6581L19.7517 19.6581L12.9579 20.438ZM12.9579 20.438C13.6622 20.9982 14.6731 21.3363 15.7708 21.3297C17.2175 21.321 18.4969 20.7167 19.1307 19.8076L12.9579 20.438Z" fill="#DE181F" stroke="#DE181F" stroke-width="0.2"/>
</g>
</svg>
