<svg width="18" height="18" viewBox="0 0 18 18" fill="none" xmlns="http://www.w3.org/2000/svg">
<path d="M2.81836 6.92019C2.81836 3.53088 5.57677 0.772461 8.96609 0.772461C12.3554 0.772461 15.1138 3.53088 15.1138 6.92019V8.0111C15.1138 8.0176 15.109 8.02246 15.1025 8.02246C15.0959 8.02246 15.0911 8.0176 15.0911 8.0111V6.92019C15.0911 3.54242 12.3439 0.795188 8.96609 0.795188C5.58832 0.795188 2.84109 3.54242 2.84109 6.92019V8.0111C2.84109 8.0176 2.83623 8.02246 2.82972 8.02246C2.82322 8.02246 2.81836 8.0176 2.81836 8.0111V6.92019ZM15.0911 13.1247C15.0911 13.1182 15.0959 13.1134 15.1025 13.1134C15.109 13.1134 15.1138 13.1182 15.1138 13.1247C15.1138 14.8221 13.7317 16.2043 12.0343 16.2043H9.98881C9.98231 16.2043 9.97745 16.1994 9.97745 16.1929C9.97745 16.1864 9.98231 16.1816 9.98881 16.1816H12.0343C13.7202 16.1816 15.0911 14.8106 15.0911 13.1247Z" fill="#FFC76F" stroke="#99542D"/>
<path d="M2.82977 7.49976L3.92613 10.6124L2.82977 13.6361C1.4184 13.6361 0.272949 12.4907 0.272949 11.0793V10.0566C0.272949 8.64521 1.4184 7.49976 2.82977 7.49976Z" fill="url(#paint0_linear)"/>
<path d="M15.1027 7.49976V13.6361H13.0573C12.7709 13.6361 12.5459 13.4111 12.5459 13.1248V8.01112C12.5459 7.72472 12.7709 7.49976 13.0573 7.49976H15.1027Z" fill="#FFC76F"/>
<path d="M5.38641 8.01112V13.1248C5.38641 13.4111 5.16144 13.6361 4.87504 13.6361H2.82959V7.49976H4.87504C5.16144 7.49976 5.38641 7.72472 5.38641 8.01112Z" fill="#FFC76F"/>
<path d="M17.6594 9.98839V11.0111C17.6594 12.4225 16.5139 13.6361 15.1025 13.6361V7.49976C16.5139 7.49976 17.6594 8.57703 17.6594 9.98839Z" fill="url(#paint1_linear)"/>
<path d="M8.96622 17.7271C8.12029 17.7271 7.43213 17.039 7.43213 16.193C7.43213 15.3471 8.12029 14.6589 8.96622 14.6589C9.81215 14.6589 10.5003 15.3471 10.5003 16.193C10.5003 17.039 9.81215 17.7271 8.96622 17.7271Z" fill="white"/>
<defs>
<linearGradient id="paint0_linear" x1="2.09954" y1="7.49976" x2="2.09954" y2="13.6361" gradientUnits="userSpaceOnUse">
<stop stop-color="#E1590A"/>
<stop offset="1" stop-color="#C23102"/>
</linearGradient>
<linearGradient id="paint1_linear" x1="16.3809" y1="7.49976" x2="16.3809" y2="13.6361" gradientUnits="userSpaceOnUse">
<stop stop-color="#E1590A"/>
<stop offset="1" stop-color="#C23102"/>
</linearGradient>
</defs>
</svg>
