<svg width="23" height="18" viewBox="0 0 23 18" fill="none" xmlns="http://www.w3.org/2000/svg">
<path d="M22.2186 6.12677C21.9327 5.85375 21.5541 5.69916 21.1588 5.69414H21.2219V3.46656C21.2183 2.59034 20.8687 1.75104 20.2492 1.13133C19.6298 0.511633 18.7906 0.161704 17.9144 0.157715H3.38111C2.50467 0.161372 1.66518 0.511154 1.04544 1.13089C0.425707 1.75063 0.075923 2.59012 0.0722656 3.46656L0.0722656 14.6455C0.075923 15.5219 0.425707 16.3614 1.04544 16.9812C1.66518 17.6009 2.50467 17.9507 3.38111 17.9543H17.9144C18.7908 17.9507 19.6303 17.6009 20.25 16.9812C20.8698 16.3614 21.2196 15.5219 21.2232 14.6455V12.3983H21.1601C21.5553 12.3933 21.934 12.2387 22.2198 11.9657C22.4964 11.6822 22.6516 11.302 22.6525 10.9059V7.18592C22.6469 6.79071 22.4919 6.41227 22.2186 6.12677ZM20.0339 14.6259C20.0282 15.1863 19.803 15.7221 19.4068 16.1183C19.0105 16.5146 18.4747 16.7397 17.9144 16.7455H3.38111C2.82074 16.7397 2.28496 16.5146 1.8887 16.1183C1.49244 15.7221 1.26728 15.1863 1.26153 14.6259V3.46656C1.26728 2.90619 1.49244 2.37041 1.8887 1.97415C2.28496 1.57789 2.82074 1.35273 3.38111 1.34698H17.9144C18.4747 1.35273 19.0105 1.57789 19.4068 1.97415C19.803 2.37041 20.0282 2.90619 20.0339 3.46656V5.69414H14.5165C13.6502 5.69606 12.8193 6.03782 12.2024 6.64593C11.8996 6.95028 11.6598 7.3113 11.4966 7.70836C11.3334 8.10542 11.25 8.53074 11.2512 8.96003V9.11161C11.2531 9.97787 11.5949 10.8088 12.203 11.4257C12.5073 11.7286 12.8683 11.9685 13.2654 12.1318C13.6624 12.2951 14.0878 12.3786 14.5171 12.3775H20.0346L20.0339 14.6259ZM21.4613 10.9059C21.4596 10.986 21.4289 11.0628 21.3748 11.1219C21.3472 11.1511 21.3136 11.1739 21.2763 11.1889C21.239 11.2038 21.1989 11.2105 21.1588 11.2085H14.5165C14.2435 11.2095 13.9731 11.1566 13.7207 11.0526C13.4684 10.9487 13.2391 10.7958 13.0461 10.6028C12.8531 10.4098 12.7002 10.1805 12.5963 9.92818C12.4923 9.67582 12.4394 9.40538 12.4405 9.13245V8.98087C12.4394 8.70794 12.4923 8.4375 12.5963 8.18514C12.7002 7.93278 12.8531 7.70349 13.0461 7.5105C13.2391 7.31751 13.4684 7.16463 13.7207 7.06069C13.9731 6.95674 14.2435 6.90379 14.5165 6.90487H21.1588C21.2389 6.90656 21.3157 6.93731 21.3748 6.9914C21.404 7.01901 21.4268 7.05262 21.4417 7.08991C21.4567 7.1272 21.4634 7.16728 21.4613 7.2074V10.9059Z" fill="#DE181F"/>
<path d="M14.6675 8.07324C14.4194 8.07963 14.1836 8.18268 14.0104 8.36042C13.8372 8.53816 13.7402 8.77653 13.7402 9.02472C13.7402 9.2729 13.8372 9.51126 14.0104 9.689C14.1836 9.86674 14.4194 9.9698 14.6675 9.97619C14.9259 9.97196 15.1736 9.87178 15.3623 9.69513C15.4532 9.60403 15.5249 9.4956 15.5732 9.37626C15.6215 9.25692 15.6453 9.12911 15.6433 9.00039C15.6391 8.74196 15.5389 8.49434 15.3623 8.30566C15.1586 8.1615 14.9169 8.08065 14.6675 8.07324Z" fill="#DE181F"/>
</svg>
