<svg width="582" height="268" viewBox="0 0 582 268" fill="none" xmlns="http://www.w3.org/2000/svg">
<g clip-path="url(#clip0_2433_8020)">
<path d="M207.381 79.24C207.311 78.49 207.22 77.76 207.12 77.02C207.02 76.24 206.901 75.47 206.771 74.7C206.901 75.47 207.01 76.25 207.12 77.02C207.22 77.76 207.311 78.49 207.381 79.24Z" fill="#F5F5F5"/>
<path d="M201.42 88.44C200.78 86.99 200.63 85.38 200.21 83.85C199.98 83.03 199.6 82.16 198.83 81.79C198.32 81.55 197.72 81.58 197.18 81.42C195.24 80.84 194.71 78.13 192.87 77.29C192.29 77.03 191.65 76.98 191.02 76.91C188.56 76.62 186.02 75.77 184.47 73.84C183.96 73.22 183.58 72.48 182.95 71.97C182.32 71.46 181.34 71.24 180.73 71.76C181.25 72.8 181.76 73.84 182.27 74.86C182.74 75.79 183.21 76.76 183.99 77.44C184.78 78.14 185.94 78.5 186.89 78.06C187.2 77.91 187.51 77.68 187.87 77.72C188.12 77.75 188.34 77.93 188.5 78.12C189.84 79.6 189.4 82.06 188.1 83.58C186.8 85.08 184.87 85.87 183.01 86.61C182.35 86.87 181.64 87.14 180.93 87.01C179.64 86.77 178.96 85.37 178.58 84.11C177.74 81.33 177.33 78.31 175.61 75.96C175.06 75.22 174.37 74.55 174.04 73.69C173.69 72.76 173.77 71.67 173.21 70.85C172.63 69.99 171.39 69.49 171.31 68.45C171.26 67.72 171.86 67.08 172.52 66.77C173.18 66.45 173.93 66.35 174.62 66.07C174.89 65.96 175.19 65.76 175.2 65.47C175.2 65.03 174.6 64.86 174.44 64.45C174.27 63.99 174.74 63.57 174.94 63.12C175.37 62.1 174.31 61.08 173.28 60.66C172.26 60.24 171.03 59.94 170.55 58.95C170.33 58.49 170.31 57.96 170.22 57.47C169.98 56.21 169.06 55 167.79 54.79C166.51 54.58 165.1 55.71 165.31 56.98C165.43 57.68 165.95 58.22 166.23 58.86C166.52 59.5 166.44 60.46 165.77 60.67C164.68 61 163.63 59.01 162.72 59.69C163.09 60.97 163.46 62.24 163.83 63.53C162.4 64.26 160.68 62.94 160.07 61.44C159.46 59.96 159.44 58.25 158.71 56.82C157.98 55.38 156.02 54.31 154.78 55.33C154.72 57.18 157.16 57.93 158.24 59.42C159.02 60.5 158.9 62.25 157.75 62.94C156.61 63.63 154.79 62.43 155.23 61.18C155.39 60.74 155.75 60.38 155.79 59.91C155.83 59.33 155.34 58.86 154.9 58.49C154.2 57.9 153.51 57.32 152.81 56.74C152.36 56.37 151.89 55.97 151.33 55.81C149.9 55.39 148.47 56.56 147.71 57.83C146.95 59.12 146.53 60.62 145.48 61.69C143.98 63.25 141.12 63.34 139.71 61.71C138.29 60.08 139.01 57.03 141.1 56.44C141.89 56.22 142.89 56.24 143.3 55.55C144.03 54.31 141.95 52.74 142.67 51.49C143.22 50.54 144.67 50.97 145.73 50.65C146.78 50.33 147.37 49.27 147.99 48.36C148.6 47.46 149.57 46.54 150.65 46.78C150.57 46.15 150.48 45.46 150.76 44.89C151.04 44.31 151.83 43.94 152.35 44.31C151.82 45.18 152.45 46.4 153.38 46.83C154.3 47.27 155.38 47.16 156.4 47.05C157.42 46.93 158.69 46.55 158.78 45.53C158.81 45.2 158.69 44.84 158.81 44.53C159.26 43.32 161.5 44.99 162.36 44.01C162.86 43.5 162.31 42.6 161.61 42.43C160.93 42.25 160.21 42.51 159.5 42.53C158.79 42.56 157.93 42.19 157.9 41.48C157.87 40.78 158.65 40.29 158.73 39.6C158.86 38.44 156.89 38.14 156.2 39.08C155.51 40.02 155.75 41.32 155.96 42.47C156.18 43.62 156.28 44.98 155.43 45.79C155.07 46.34 154.12 46.05 153.81 45.47C153.49 44.89 153.56 44.18 153.51 43.53C153.46 42.87 153.17 42.12 152.52 41.94C152.07 41.82 151.6 42.03 151.14 42.1C149.33 42.32 148.08 39.98 148.65 38.26C149.21 36.53 150.85 35.42 152.44 34.53C153.6 33.89 155.05 33.28 156.2 33.94C156.74 34.24 157.11 34.76 157.64 35.07C158.55 35.61 159.68 35.41 160.73 35.43C162.38 35.47 164.01 36.1 165.25 37.18C165.72 37.61 166.15 38.31 165.79 38.82C165.4 39.36 164.26 39.47 164.46 40.11C165.68 40.51 167.15 39.57 167.28 38.29C167.88 38.56 168.32 39.17 168.37 39.83C169.69 38.49 172.22 38.69 173.3 40.23C173.59 40.63 173.8 41.12 174.21 41.4C174.63 41.67 175.35 41.53 175.4 41.05C175.42 40.89 175.37 40.74 175.32 40.59C175.07 39.88 174.81 39.19 174.56 38.49C175.53 37.97 176.67 38.78 177.32 39.65C179.75 42.9 181.48 40.95 184.91 41.48C187.22 41.83 188.24 43.32 189.55 45.11C193.56 50.63 198.85 55.16 202.49 60.93C202.87 61.53 203.23 62.14 203.56 62.77C203.5 62.61 203.45 62.46 203.38 62.3C201.95 58.53 200.17 54.93 198.09 51.54C197.64 50.81 197.19 50.1 196.72 49.39C196.43 48.95 196.13 48.51 195.83 48.08C195.45 47.52 195.04 46.98 194.64 46.44C194.32 46 194 45.58 193.66 45.16C193.43 44.87 193.19 44.58 192.95 44.29C192.7 43.96 192.43 43.64 192.14 43.31L191.27 42.3C191.19 42.2 191.09 42.09 190.99 41.99C190.69 41.64 190.37 41.29 190.05 40.95C190.03 40.91 190 40.88 189.96 40.85C189.88 40.76 189.78 40.66 189.69 40.57C189.43 40.28 189.15 40 188.88 39.72C188.43 39.26 187.98 38.81 187.51 38.37C187.13 37.99 186.73 37.62 186.33 37.26C185.98 36.94 185.62 36.62 185.26 36.31C184.91 36 184.55 35.7 184.19 35.4C183.75 35.03 183.31 34.66 182.85 34.3H182.84C181.58 33.29 180.29 32.34 178.96 31.45C178.63 31.22 178.31 31 177.97 30.79C177.64 30.56 177.3 30.35 176.96 30.15C176.62 29.94 176.29 29.72 175.94 29.53C175.6 29.31 175.26 29.11 174.91 28.92C174.63 28.75 174.36 28.6 174.08 28.45C173.93 28.36 173.8 28.28 173.65 28.21C173.06 27.88 172.46 27.56 171.85 27.26C171.55 27.1 171.25 26.95 170.94 26.8C170.56 26.6 170.16 26.42 169.77 26.24C169.72 26.21 169.66 26.18 169.59 26.16C169.24 25.99 168.88 25.83 168.52 25.67C168.01 25.45 167.5 25.23 166.99 25.03C166.41 24.79 165.83 24.55 165.24 24.33C164.59 24.08 163.93 23.84 163.27 23.62C162.61 23.39 161.93 23.17 161.26 22.97C160.59 22.76 159.91 22.58 159.23 22.39C157.88 22.03 156.51 21.71 155.13 21.42C155.11 21.41 155.08 21.41 155.06 21.4C154.53 21.3 154 21.19 153.47 21.11C153.43 21.1 153.4 21.09 153.37 21.09C153.14 21.05 152.9 21.01 152.66 20.98C151.67 20.81 150.68 20.68 149.67 20.56C149.56 20.54 149.43 20.53 149.31 20.52C149.02 20.48 148.73 20.46 148.43 20.43C147.77 20.37 147.1 20.32 146.43 20.27C145.73 20.22 145.03 20.19 144.32 20.17C143.58 20.14 142.85 20.13 142.11 20.13C140.16 20.13 138.23 20.21 136.32 20.39C135.86 20.42 135.42 20.46 134.97 20.51C134.5 20.56 134.04 20.61 133.57 20.68C133.1 20.74 132.64 20.8 132.18 20.88C131.71 20.95 131.26 21.03 130.79 21.11C130.4 21.17 129.99 21.24 129.6 21.33C128.62 21.52 127.66 21.72 126.7 21.95C126.25 22.05 125.81 22.17 125.36 22.29C124.91 22.4 124.47 22.53 124.03 22.65C123.29 22.86 122.58 23.09 121.86 23.31H121.85C121.27 23.51 120.68 23.7 120.11 23.9C120.1 23.9 120.08 23.91 120.07 23.92C119.48 24.13 118.91 24.35 118.33 24.57C118.3 24.58 118.27 24.59 118.24 24.6C117.71 24.81 117.18 25.03 116.66 25.24C116.01 25.51 115.36 25.8 114.73 26.09C114.19 26.34 113.66 26.59 113.14 26.85C112.58 27.13 112.02 27.41 111.47 27.7C111.45 27.71 111.43 27.72 111.41 27.73C110.88 28.01 110.35 28.3 109.83 28.6C109.29 28.9 108.76 29.21 108.23 29.54H108.22C107.72 29.84 107.23 30.14 106.75 30.45C106.56 30.56 106.39 30.69 106.2 30.81C105.68 31.14 105.18 31.48 104.67 31.84C104.05 32.27 103.45 32.71 102.84 33.16C102.31 33.55 101.79 33.96 101.28 34.36C98.3401 36.71 95.6001 39.29 93.1201 42.09C92.2401 43.07 91.4101 44.06 90.6001 45.08C89.9101 45.95 89.2501 46.83 88.6201 47.75C88.0501 48.54 87.5001 49.35 86.9701 50.18C87.5001 49.36 88.0501 48.55 88.6201 47.75C88.7901 47.73 88.9501 47.71 89.1201 47.7C90.0501 47.63 91.0401 47.66 91.8801 47.25C92.6601 46.87 93.2101 46.17 93.9101 45.67C95.7201 44.38 98.6701 44.14 99.1601 41.98C99.3301 41.25 99.1301 40.46 99.4001 39.77C99.9101 38.47 101.64 38.29 103.03 38.31C103.62 38.31 104.32 38.39 104.59 38.91C104.79 39.27 104.67 39.73 104.53 40.11C103.68 42.54 101.96 44.64 99.7701 45.96C97.9601 47.06 95.6101 47.91 95.1101 49.97C95.3601 50.67 96.6301 50.61 96.7301 51.34C96.8001 51.92 96.0601 52.22 95.7901 52.74C95.4001 53.5 96.3001 54.42 97.1601 54.38C98.0201 54.34 98.7401 53.72 99.3701 53.13C101.26 51.38 103.24 49.49 103.93 47C104.22 45.97 104.32 44.77 105.15 44.08C106.14 43.27 107.9 43.83 108.23 45.07C109.05 44.61 110.33 44.27 110.75 45.12C110.9 45.42 110.85 45.77 110.93 46.1C111.2 47.43 113.02 48.03 113.2 49.37C113.42 50.92 111.44 51.72 109.89 51.95C108.49 52.17 107.09 52.39 105.69 52.61C105.08 52.7 104.44 52.81 103.95 53.17C103.45 53.54 103.14 54.25 103.43 54.8C103.6 55.1 103.92 55.3 104.16 55.55C105.32 56.71 104.37 59.11 102.73 59.16C102.17 59.18 101.62 58.97 101.06 58.95C99.4001 58.88 98.0801 60.34 97.2901 61.8C96.5001 63.26 95.9101 64.93 94.5801 65.93C92.4401 67.54 88.7601 67.17 87.7201 69.64C87.3001 70.64 87.5201 71.76 87.6901 72.83C87.8601 73.89 87.9301 75.07 87.3101 75.95C86.7001 76.82 85.1001 77.01 84.6401 76.03C84.4401 75.6 84.5101 75.11 84.5801 74.65C84.8301 73.11 85.0701 71.58 85.3101 70.04C85.4901 68.9 85.6401 67.62 84.9701 66.69C84.0301 65.38 81.9101 65.51 80.6801 66.56C79.4701 67.61 78.9601 69.25 78.6101 70.82C78.3601 71.98 78.0701 73.62 77.4301 74.95C77.2101 76.24 77.0401 77.55 76.9001 78.86C76.7701 80.21 76.6701 81.55 76.6201 82.92C76.7901 82.79 76.9601 82.62 77.1501 82.42C77.8001 81.75 79.1201 78.89 80.3101 80.29C80.6101 80.64 80.6201 81.21 80.3301 81.59C79.9701 82.06 79.2401 82.16 78.9601 82.67C78.6201 83.27 79.0901 84.02 79.6601 84.41C80.2201 84.81 80.9101 85.06 81.3001 85.63C82.0601 86.72 81.3301 88.37 82.0701 89.48C82.7001 90.44 84.0501 90.5 85.2001 90.62C85.3401 90.64 85.4601 90.66 85.5901 90.68C85.9101 88.4 86.9801 86.54 90.0901 85.83C94.3901 84.85 100.03 88.41 102.45 91.65C105.15 95.27 106.43 100.4 110.56 102.22C113.52 103.52 117.72 103.05 119.17 105.95C120.46 108.55 118.22 111.46 117.87 114.34C117.65 116.24 118.27 118.13 118.42 120.03C118.56 121.94 117.99 124.16 116.26 124.96C115.29 125.4 114.08 125.34 113.3 126.07C111.92 127.38 113.05 130.08 111.67 131.38C111.18 131.84 110.51 132 109.92 132.3C106.82 133.87 106.9 138.43 108.34 141.6C108.39 141.71 108.44 141.82 108.5 141.93C113.09 144.68 118.03 146.88 123.25 148.44C129.23 150.26 135.57 151.22 142.14 151.22C153.26 151.22 163.74 148.45 172.92 143.56H172.93C174.92 142.49 176.86 141.33 178.73 140.06C181.63 138.12 184.35 135.95 186.88 133.58C188.63 131.94 190.31 130.21 191.86 128.38C192.96 127.11 194 125.8 194.99 124.45C195.5 123.75 196 123.06 196.46 122.34C197.89 120.24 199.2 118.05 200.37 115.79C202.07 112.53 203.49 109.11 204.62 105.56C205.77 101.98 206.61 98.26 207.12 94.44C207.32 92.97 207.47 91.47 207.58 89.97C206.86 90.67 205.93 91.16 204.94 91.14C203.36 91.12 202.06 89.8 201.43 88.35L201.42 88.44Z" fill="#F5F5F5"/>
<path d="M85.1001 102.98C84.8901 101.1 85.5201 99.22 85.5501 97.32C85.5701 96.01 85.4801 94.63 85.4601 93.31C84.3401 93.26 83.2201 93.1 82.1301 92.84C81.9001 92.79 81.6501 92.72 81.5201 92.53C81.3701 92.33 81.4001 92.07 81.3801 91.83C81.3001 90.36 79.8701 89.38 78.6001 88.64C77.9501 88.26 77.2801 87.88 76.5801 87.64C76.5801 87.8 76.5801 87.94 76.5901 88.1C76.8501 95.4 78.3001 102.4 80.7601 108.91C81.8801 111.88 83.2201 114.75 84.7701 117.5C85.4101 118.69 86.1201 119.87 86.8601 121.02C87.7701 122.44 88.7301 123.83 89.7601 125.17C90.7101 126.46 91.7301 127.71 92.8001 128.92C94.2601 130.59 95.8101 132.18 97.4401 133.69C98.8801 135.04 100.39 136.32 101.96 137.53C98.3801 127.92 95.0101 118.11 88.8801 109.93C87.2701 107.79 85.4201 105.61 85.1201 102.95L85.1001 102.98Z" fill="#F5F5F5"/>
<path d="M76.56 84.55C76.56 84.95 76.54 85.34 76.54 85.73C76.54 86.05 76.55 86.37 76.56 86.69C76.56 86.37 76.54 86.05 76.54 85.73C76.54 85.34 76.55 84.94 76.56 84.55Z" fill="#F5F5F5"/>
<g opacity="0.6">
<path d="M105.61 140.21C106.16 140.58 106.72 140.95 107.29 141.3C107.68 141.55 108.08 141.79 108.48 142.03C108.08 141.79 107.68 141.55 107.29 141.3C106.72 140.95 106.17 140.58 105.61 140.21Z" fill="#F5F5F5"/>
</g>
<path d="M161.16 136.1C160.75 136.1 160.34 136.06 159.94 135.97C158.59 135.67 157.56 134.89 157.04 133.78C156.63 132.88 156.58 131.89 156.54 130.92C156.51 130.27 156.48 129.6 156.33 128.97C156.07 127.84 155.45 126.86 154.79 125.83C154.3 125.06 153.8 124.27 153.46 123.41C152.84 121.83 152.79 120.11 152.74 118.44V118.04C152.38 106.5 149.17 97.14 143.43 90.96C142.63 90.1 141.74 89.27 140.61 88.97C139.3 88.62 137.82 89.13 137 90.22C136.79 90.49 136.62 90.81 136.46 91.11C136.2 91.59 135.93 92.08 135.51 92.46C134.91 93 134.09 93.23 133.2 93.08C132.03 92.89 130.9 92.11 130.32 91.09C129.3 89.29 129.49 87.08 129.63 85.31L130.22 78.15C130.31 77.05 130.44 75.53 131.33 74.5C132.02 73.7 133.02 73.33 133.99 72.97C134.71 72.71 135.45 72.43 136.04 71.99C137.19 71.13 137.7 69.77 138.24 68.33C138.54 67.53 138.85 66.7 139.28 65.96C140.06 64.63 141.9 63.72 143.39 63.94C144.09 64.04 144.61 64.4 144.9 64.95C145.61 63.62 146.49 62.81 147.57 62.5C149.94 61.82 152.83 63.7 155.63 65.51C158.18 67.17 160.59 68.73 162.48 68.39C162.96 68.3 163.44 68.17 163.91 68.03C164.91 67.75 165.94 67.46 166.99 67.61C169.75 68 171.15 70.99 172.07 73.55L176.55 86.08C177.11 87.64 177.83 89.35 179.31 89.93C179.89 90.16 180.52 90.18 181.18 90.2C181.83 90.22 182.5 90.25 183.13 90.48C184.25 90.89 184.96 91.76 185.19 93.01C185.57 95.08 184.53 97.79 182.78 99.31C181.97 100.01 181.04 100.64 180.15 101.25C178.12 102.63 176.21 103.93 175.38 106.08C174.94 107.23 174.88 108.51 174.83 109.75C174.77 111.08 174.72 112.45 174.19 113.69C173.74 114.77 172.98 115.66 172.24 116.53C171.79 117.06 171.32 117.61 170.94 118.19C169.5 120.35 169.11 123.03 168.72 125.63C168.67 125.96 168.62 126.29 168.57 126.62C168.12 129.51 167.35 132.73 165 134.74C163.97 135.62 162.55 136.11 161.15 136.11L161.16 136.1Z" fill="#FDE5D7"/>
<g opacity="0.6">
<path d="M76.5996 83C76.5896 83.12 76.5796 83.24 76.5796 83.36C76.5596 83.75 76.5696 84.15 76.5596 84.54C76.5596 84.14 76.5596 83.75 76.5796 83.36C76.5796 83.24 76.5896 83.12 76.5996 83Z" fill="#F5F5F5"/>
</g>
<g opacity="0.6">
<path d="M76.5498 86.69C76.5498 87.01 76.5498 87.33 76.5698 87.65C76.5598 87.33 76.5598 87.01 76.5498 86.69Z" fill="#F5F5F5"/>
</g>
<path d="M85.57 90.77C85.44 90.75 85.31 90.73 85.18 90.71C84.03 90.59 82.68 90.52 82.05 89.57C81.31 88.46 82.04 86.81 81.28 85.72C80.89 85.15 80.2 84.9 79.64 84.5C79.08 84.11 78.6 83.36 78.94 82.76C79.22 82.25 79.95 82.15 80.31 81.68C80.6 81.31 80.59 80.74 80.29 80.38C79.11 78.98 77.79 81.83 77.13 82.51C76.94 82.71 76.77 82.87 76.6 83.01C76.59 83.14 76.58 83.26 76.58 83.38C76.56 83.77 76.57 84.17 76.56 84.56C76.56 84.96 76.54 85.35 76.54 85.74C76.54 86.06 76.55 86.38 76.56 86.7C76.56 87.02 76.56 87.34 76.58 87.66C77.29 87.9 77.95 88.27 78.6 88.66C79.88 89.4 81.3 90.37 81.38 91.85C81.39 92.09 81.37 92.35 81.52 92.55C81.65 92.74 81.9 92.81 82.13 92.86C83.22 93.12 84.34 93.28 85.46 93.33" fill="#FDE5D7"/>
<path d="M85.4504 93.31C85.4704 94.63 85.5604 96.01 85.5404 97.32C85.5104 99.22 84.8904 101.1 85.0904 102.98C85.3904 105.64 87.2404 107.82 88.8504 109.96C94.9704 118.14 98.3504 127.95 101.93 137.56H101.94C102.6 138.09 103.28 138.59 103.96 139.08C104.5 139.47 105.04 139.85 105.6 140.22C106.15 140.59 106.71 140.96 107.28 141.31C107.67 141.56 108.07 141.8 108.47 142.04C108.42 141.93 108.37 141.82 108.31 141.71C106.87 138.54 106.78 133.98 109.89 132.41C110.48 132.11 111.16 131.94 111.64 131.49C113.02 130.18 111.89 127.48 113.27 126.18C114.05 125.45 115.26 125.51 116.23 125.07C117.96 124.27 118.52 122.05 118.39 120.14C118.24 118.24 117.62 116.35 117.84 114.45C118.18 111.57 120.42 108.66 119.14 106.06C117.7 103.16 113.49 103.63 110.53 102.33C106.4 100.51 105.12 95.39 102.42 91.76C100 88.52 94.3504 84.96 90.0604 85.94C86.9504 86.65 85.8804 88.5 85.5604 90.79" fill="#FDE5D7"/>
<path d="M80.6597 66.64C81.8797 65.59 83.9996 65.47 84.9496 66.77C85.6196 67.7 85.4697 68.98 85.2896 70.12C85.0497 71.66 84.8096 73.19 84.5596 74.73C84.4896 75.19 84.4197 75.69 84.6197 76.11C85.0797 77.09 86.6797 76.9 87.2896 76.03C87.9096 75.15 87.8396 73.96 87.6696 72.91C87.4996 71.84 87.2896 70.72 87.6996 69.72C88.7396 67.25 92.4196 67.62 94.5596 66.01C95.8896 65.01 96.4796 63.34 97.2696 61.88C98.0596 60.42 99.3797 58.95 101.04 59.03C101.6 59.05 102.15 59.26 102.71 59.24C104.35 59.19 105.31 56.79 104.14 55.63C103.9 55.38 103.58 55.18 103.41 54.88C103.12 54.33 103.43 53.62 103.93 53.25C104.43 52.89 105.06 52.78 105.67 52.69C107.07 52.46 108.47 52.24 109.87 52.03C111.42 51.79 113.4 50.99 113.18 49.45C112.99 48.11 111.18 47.51 110.91 46.18C110.84 45.86 110.88 45.51 110.73 45.2C110.3 44.35 109.03 44.69 108.21 45.15C107.88 43.91 106.11 43.35 105.13 44.16C104.3 44.84 104.2 46.05 103.91 47.08C103.22 49.57 101.24 51.46 99.3496 53.21C98.7196 53.79 97.9996 54.41 97.1396 54.46C96.2796 54.5 95.3796 53.58 95.7696 52.82C96.0396 52.3 96.7896 52 96.7096 51.42C96.6096 50.69 95.3396 50.75 95.0896 50.05C95.5896 47.99 97.9396 47.14 99.7496 46.04C101.94 44.71 103.66 42.61 104.51 40.19C104.66 39.81 104.77 39.35 104.57 38.99C104.3 38.47 103.6 38.39 103.01 38.39C101.62 38.37 99.8896 38.56 99.3796 39.85C99.1096 40.55 99.3096 41.33 99.1396 42.06C98.6496 44.22 95.6896 44.46 93.8896 45.75C93.1796 46.25 92.6297 46.94 91.8596 47.33C91.0196 47.73 90.0296 47.7 89.0996 47.78C88.9296 47.79 88.7696 47.81 88.5996 47.83C88.0296 48.62 87.4796 49.43 86.9496 50.26C86.4196 51.08 85.9096 51.92 85.4196 52.76C83.0896 56.74 81.1797 60.98 79.7297 65.44C79.2197 66.99 78.7696 68.57 78.3796 70.17C77.9896 71.77 77.6596 73.4 77.3896 75.04C78.0296 73.71 78.3196 72.07 78.5696 70.91C78.9096 69.34 79.4196 67.7 80.6396 66.65L80.6597 66.64Z" fill="#FDE5D7"/>
<path d="M135.68 36.21C136.3 35.4 136.12 34.23 136.52 33.29C137.19 31.73 139.26 31.17 139.98 29.63C140.26 29.04 140.33 28.31 140.81 27.87C141.21 27.5 141.81 27.43 142.24 27.1C143.21 26.36 142.81 24.67 141.78 24.02C139.21 22.38 134.47 24.28 132.25 25.88C129.39 27.95 126.6 30.44 122.79 30.19C121.74 30.12 120.65 29.83 119.67 30.21C118.69 30.58 118.08 32.05 118.93 32.68C119.4 33.03 120.07 32.93 120.6 33.18C121.58 33.63 121.68 35.05 121.2 36.02C120.72 36.99 119.86 37.71 119.29 38.63C118.74 39.52 118.49 40.59 118.58 41.63C118.64 42.36 118.9 43.11 119.47 43.56C120.65 44.5 122.45 43.7 123.45 42.56C124.45 41.43 125.14 39.96 126.44 39.18C127.09 38.79 127.84 38.61 128.57 38.44C130.22 38.05 131.88 37.65 133.53 37.26C134.32 37.07 135.17 36.84 135.66 36.2L135.68 36.21Z" fill="#FDE5D7"/>
<g opacity="0.6">
<path d="M207.68 84.83C207.68 83.89 207.65 82.95 207.6 82.02C207.65 82.95 207.68 83.89 207.68 84.83C207.7 85.13 207.7 85.43 207.7 85.73C207.7 87.18 207.65 88.62 207.57 90.05C207.65 88.62 207.7 87.19 207.7 85.73C207.7 85.43 207.7 85.13 207.68 84.83Z" fill="#F5F5F5"/>
</g>
<g opacity="0.6">
<path d="M203.58 62.83C203.89 63.66 204.18 64.5 204.46 65.34C204.18 64.5 203.89 63.66 203.58 62.83C203.58 62.83 203.59 62.82 203.58 62.82V62.83Z" fill="#F5F5F5"/>
</g>
<path d="M207.68 84.83C207.68 83.89 207.65 82.95 207.6 82.02C207.55 81.09 207.48 80.16 207.38 79.24C207.31 78.49 207.22 77.76 207.12 77.02C207.02 76.24 206.9 75.47 206.77 74.7C206.38 72.39 205.87 70.12 205.24 67.89C205 67.03 204.74 66.19 204.46 65.34C204.18 64.5 203.89 63.66 203.58 62.83V62.82C203.25 62.2 202.9 61.58 202.51 60.98C198.87 55.21 193.57 50.68 189.57 45.16C188.26 43.36 187.24 41.88 184.93 41.53C181.5 41 179.77 42.95 177.34 39.7C176.69 38.83 175.54 38.02 174.58 38.54C174.83 39.24 175.09 39.93 175.34 40.64C175.39 40.79 175.44 40.94 175.42 41.1C175.37 41.59 174.64 41.72 174.23 41.45C173.81 41.17 173.61 40.68 173.32 40.28C172.24 38.73 169.71 38.54 168.39 39.88C168.34 39.23 167.9 38.61 167.3 38.34C167.17 39.62 165.7 40.56 164.48 40.16C164.28 39.53 165.41 39.41 165.81 38.87C166.17 38.36 165.74 37.66 165.27 37.23C164.03 36.15 162.41 35.52 160.75 35.48C159.7 35.46 158.57 35.66 157.66 35.12C157.13 34.81 156.76 34.29 156.22 33.99C155.07 33.34 153.62 33.94 152.46 34.58C150.87 35.46 149.23 36.57 148.67 38.31C148.1 40.03 149.36 42.37 151.16 42.15C151.62 42.09 152.09 41.87 152.54 41.99C153.18 42.17 153.47 42.91 153.53 43.58C153.58 44.23 153.51 44.94 153.83 45.52C154.14 46.1 155.09 46.39 155.45 45.84C156.3 45.03 156.2 43.67 155.98 42.52C155.77 41.37 155.53 40.07 156.22 39.13C156.92 38.19 158.89 38.49 158.75 39.65C158.67 40.33 157.89 40.83 157.92 41.53C157.95 42.24 158.81 42.61 159.52 42.58C160.23 42.56 160.94 42.3 161.63 42.48C162.33 42.65 162.88 43.55 162.38 44.06C161.52 45.04 159.28 43.36 158.83 44.58C158.71 44.89 158.83 45.24 158.8 45.58C158.72 46.6 157.44 46.97 156.42 47.1C155.4 47.21 154.32 47.32 153.4 46.88C152.48 46.44 151.84 45.23 152.37 44.36C151.85 43.99 151.06 44.36 150.78 44.94C150.5 45.51 150.58 46.2 150.67 46.83C149.59 46.59 148.63 47.5 148.01 48.41C147.39 49.32 146.8 50.38 145.75 50.7C144.69 51.02 143.24 50.59 142.69 51.54C141.97 52.79 144.05 54.36 143.32 55.6C142.9 56.3 141.91 56.27 141.12 56.49C139.03 57.08 138.31 60.13 139.73 61.76C141.14 63.39 144 63.3 145.5 61.74C146.55 60.67 146.97 59.17 147.73 57.88C148.49 56.6 149.92 55.44 151.35 55.86C151.91 56.03 152.39 56.42 152.83 56.79C153.53 57.37 154.22 57.95 154.92 58.54C155.37 58.91 155.85 59.38 155.81 59.96C155.77 60.43 155.41 60.79 155.25 61.23C154.81 62.49 156.63 63.68 157.77 62.99C158.92 62.31 159.04 60.55 158.26 59.47C157.18 57.98 154.74 57.23 154.8 55.38C156.05 54.36 158.01 55.43 158.73 56.87C159.46 58.3 159.48 60 160.09 61.49C160.7 62.98 162.42 64.3 163.85 63.58C163.48 62.29 163.11 61.02 162.74 59.74C163.65 59.06 164.7 61.05 165.79 60.72C166.45 60.51 166.54 59.56 166.25 58.91C165.97 58.27 165.45 57.73 165.33 57.03C165.12 55.76 166.53 54.63 167.81 54.84C169.08 55.05 170 56.26 170.24 57.52C170.33 58.02 170.35 58.55 170.57 59C171.05 60 172.28 60.3 173.3 60.71C174.33 61.13 175.39 62.15 174.96 63.17C174.76 63.62 174.3 64.04 174.46 64.5C174.62 64.9 175.22 65.08 175.22 65.52C175.21 65.81 174.91 66.01 174.64 66.12C173.95 66.4 173.21 66.49 172.54 66.82C171.88 67.13 171.27 67.77 171.33 68.5C171.41 69.54 172.65 70.04 173.23 70.9C173.79 71.72 173.71 72.81 174.06 73.74C174.39 74.6 175.08 75.28 175.63 76.01C177.35 78.36 177.76 81.38 178.6 84.16C178.97 85.42 179.66 86.82 180.95 87.06C181.66 87.18 182.36 86.91 183.03 86.66C184.89 85.92 186.82 85.13 188.12 83.63C189.43 82.11 189.86 79.65 188.52 78.17C188.35 77.97 188.14 77.8 187.89 77.77C187.54 77.73 187.23 77.97 186.91 78.11C185.97 78.55 184.8 78.18 184.01 77.49C183.23 76.8 182.75 75.84 182.29 74.91C181.78 73.88 181.27 72.84 180.75 71.81C181.36 71.29 182.34 71.51 182.97 72.02C183.59 72.53 183.98 73.27 184.49 73.89C186.04 75.82 188.58 76.67 191.04 76.96C191.66 77.03 192.31 77.08 192.89 77.34C194.73 78.18 195.26 80.89 197.2 81.47C197.74 81.64 198.34 81.61 198.85 81.84C199.62 82.2 200 83.08 200.23 83.9C200.66 85.43 200.8 87.03 201.44 88.49C202.07 89.94 203.37 91.26 204.95 91.28C205.94 91.3 206.87 90.8 207.59 90.11C207.67 88.67 207.72 87.23 207.72 85.78C207.72 85.48 207.72 85.18 207.7 84.88L207.68 84.83Z" fill="#FDE5D7"/>
<path d="M181.13 112.06C180.15 112.25 179.96 112.83 179.43 113.55C178.74 114.49 177.75 115.44 177.12 116.36C176.05 117.94 177.01 120.4 175.61 121.72C175.32 121.99 174.95 122.17 174.7 122.47C174.14 123.13 174.35 124.24 175.04 124.76C175.73 125.28 176.74 125.24 177.48 124.8C178.22 124.36 178.72 123.58 178.98 122.75C179.17 122.16 179.27 121.48 179.74 121.07C180.54 120.37 181.79 120.89 182.85 120.74C187.35 120.11 185.42 111.2 181.14 112.05L181.13 112.06Z" fill="#FDE5D7"/>
<path d="M179.82 245.96L156.4 253.28C154.78 253.79 153.06 252.88 152.55 251.27L142.41 218.85C141.9 217.23 142.81 215.51 144.42 215L159.28 210.36L174.48 218.62L181.83 242.12C182.34 243.74 181.43 245.46 179.82 245.97V245.96Z" fill="#FDE5D7"/>
<path d="M149.827 242.591L179.109 233.437L181.771 241.951C182.305 243.659 181.347 245.489 179.639 246.023L156.484 253.261C154.813 253.783 153.025 252.855 152.5 251.175L149.817 242.594L149.827 242.591Z" fill="#E1E1E1"/>
<path d="M162.36 242.3L163.84 247.03L162.79 247.36L162.18 245.42L160.12 246.06L160.73 248L159.68 248.33L158.2 243.6L159.25 243.27L159.83 245.14L161.89 244.5L161.31 242.63L162.36 242.3Z" fill="white"/>
<path d="M167.04 245.84C166.88 246.06 166.6 246.23 166.29 246.33C165.47 246.59 164.85 246.3 164.58 245.43L164.11 243.94L163.57 244.11L163.32 243.3L163.86 243.13L163.58 242.24L164.59 241.92L164.87 242.81L165.74 242.54L165.99 243.35L165.12 243.62L165.58 245.1C165.68 245.41 165.89 245.53 166.16 245.44C166.31 245.39 166.44 245.3 166.53 245.18L167.03 245.84H167.04Z" fill="white"/>
<path d="M172.9 241.91L173.551 243.99L172.54 244.31L171.941 242.39C171.761 241.8 171.42 241.61 171.01 241.74C170.56 241.88 170.33 242.29 170.54 242.93L171.111 244.76L170.101 245.08L169.501 243.16C169.321 242.57 168.991 242.38 168.571 242.51C168.121 242.65 167.901 243.05 168.101 243.7L168.671 245.53L167.661 245.85L166.521 242.21L167.491 241.91L167.62 242.33C167.78 241.94 168.121 241.65 168.571 241.51C169.061 241.36 169.53 241.42 169.9 241.75C170.06 241.29 170.451 240.93 170.971 240.76C171.801 240.5 172.55 240.81 172.9 241.92V241.91Z" fill="white"/>
<path d="M172.891 238.69L173.901 238.37L175.471 243.39L174.461 243.71L172.891 238.69Z" fill="white"/>
<path d="M157.631 226.23L154.251 229.1L158.651 229.52L159.181 231.21L152.851 230.5L152.301 228.74L157.101 224.55L157.621 226.23H157.631Z" fill="white"/>
<path d="M160.261 219.92L161.881 219.41L162.001 233.35L160.381 233.86L160.261 219.92Z" fill="white"/>
<path d="M169.461 223.38L170.011 225.14L165.211 229.33L164.681 227.64L168.061 224.79L163.651 224.36L163.131 222.68L169.461 223.39V223.38Z" fill="white"/>
<g opacity="0.3">
<path d="M159.29 210.36L162.14 219.48C162.61 220.99 164.21 221.82 165.72 221.35L174.49 218.61L159.29 210.35V210.36Z" fill="white"/>
</g>
<path d="M162.51 220.25C162.51 220.25 163.09 222.5 165.83 222.44C165.93 222.44 166.04 222.43 166.14 222.41C167.35 222.26 175.31 221.24 175.26 221.07C175.2 220.88 174.49 218.62 174.49 218.62L165.72 221.36C165.72 221.36 163.51 221.97 162.51 220.25Z" fill="#E1E1E1"/>
<path d="M325.271 266.23C325.271 266.32 270.361 266.39 202.651 266.39C134.941 266.39 80.0205 266.32 80.0205 266.23C80.0205 266.14 134.911 266.07 202.651 266.07C270.391 266.07 325.271 266.14 325.271 266.23Z" fill="#1A2E35"/>
<path d="M288.69 59.47H89.5898V209.08H288.69V59.47Z" fill="#FDE5D7"/>
<path d="M288.69 209.08C288.69 209.08 288.68 208.84 288.67 208.38C288.67 207.92 288.67 207.24 288.65 206.34C288.65 204.54 288.63 201.87 288.62 198.39C288.6 191.43 288.58 181.21 288.55 168.15C288.51 142.09 288.46 104.72 288.4 59.48L288.68 59.76C232.47 59.78 163.73 59.8 89.5902 59.82H89.5702L89.9202 59.47C89.9102 113.26 89.9002 164.2 89.8902 209.08L89.5802 208.77C148.54 208.83 198.28 208.89 233.29 208.93C250.82 208.97 264.65 208.99 274.11 209.01C278.84 209.03 282.48 209.04 284.94 209.05C286.17 209.05 287.1 209.06 287.73 209.07C288.04 209.07 288.28 209.07 288.44 209.07C288.6 209.07 288.69 209.07 288.69 209.07C288.69 209.07 288.62 209.07 288.46 209.07C288.3 209.07 288.07 209.07 287.77 209.07C287.15 209.07 286.23 209.08 285.01 209.09C282.57 209.09 278.95 209.11 274.24 209.13C264.8 209.15 250.99 209.18 233.49 209.21C198.44 209.25 148.63 209.3 89.5802 209.37H89.2702V209.06C89.2602 164.18 89.2502 113.24 89.2402 59.45V59.1H89.5902H89.6102C163.75 59.12 232.49 59.14 288.7 59.16H288.99V59.44C288.93 104.75 288.88 142.19 288.84 168.29C288.81 181.32 288.78 191.51 288.77 198.46C288.76 201.92 288.75 204.57 288.74 206.36C288.74 207.25 288.73 207.92 288.72 208.37C288.72 208.82 288.7 209.04 288.7 209.04L288.69 209.08Z" fill="#1A2E35"/>
<path d="M287.691 77.79C287.691 77.79 287.521 77.81 287.191 77.82C286.851 77.82 286.351 77.84 285.711 77.85C284.401 77.86 282.491 77.88 280.031 77.91C275.101 77.95 267.961 77.97 259.151 77.97C241.521 77.97 217.161 77.84 190.251 77.62C163.341 77.4 138.991 77.21 121.351 77.07C112.541 77 105.411 76.94 100.471 76.91C98.0106 76.88 96.1006 76.86 94.7906 76.84C94.1506 76.82 93.6605 76.81 93.3105 76.8C92.9805 76.79 92.8105 76.78 92.8105 76.76C92.8105 76.74 92.9805 76.74 93.3105 76.73C93.6505 76.73 94.1406 76.71 94.7906 76.7C96.1006 76.69 98.0106 76.67 100.471 76.64C105.401 76.6 112.541 76.58 121.351 76.58C138.981 76.58 163.351 76.71 190.261 76.93C217.161 77.15 241.511 77.34 259.151 77.48C267.961 77.55 275.091 77.61 280.031 77.64C282.491 77.67 284.401 77.69 285.711 77.71C286.351 77.73 286.841 77.74 287.191 77.75C287.521 77.76 287.691 77.77 287.691 77.79Z" fill="url(#paint0_linear_2433_8020)"/>
<path d="M102.59 67.07C102.59 68.36 101.54 69.41 100.25 69.41C98.9602 69.41 97.9102 68.36 97.9102 67.07C97.9102 65.78 98.9602 64.73 100.25 64.73C101.54 64.73 102.59 65.78 102.59 67.07Z" fill="#1A2E35"/>
<path d="M111.97 67.07C111.97 68.36 110.92 69.41 109.63 69.41C108.34 69.41 107.29 68.36 107.29 67.07C107.29 65.78 108.34 64.73 109.63 64.73C110.92 64.73 111.97 65.78 111.97 67.07Z" fill="#1A2E35"/>
<path d="M119 69.41C120.292 69.41 121.34 68.3623 121.34 67.07C121.34 65.7776 120.292 64.73 119 64.73C117.708 64.73 116.66 65.7776 116.66 67.07C116.66 68.3623 117.708 69.41 119 69.41Z" fill="#1A2E35"/>
<path d="M160.101 153.38H123.551V180.74H160.101V153.38Z" fill="white"/>
<path d="M203.561 153.38H167.011V180.74H203.561V153.38Z" fill="white"/>
<path d="M247.021 153.38H210.471V180.74H247.021V153.38Z" fill="white"/>
<path d="M237.021 138.35H133.611C126.861 138.35 121.381 132.88 121.381 126.12C121.381 119.37 126.851 113.89 133.611 113.89H237.021C243.771 113.89 249.251 119.36 249.251 126.12C249.251 132.87 243.781 138.35 237.021 138.35Z" fill="white"/>
<path d="M237.021 138.35C237.021 138.35 237.271 138.33 237.751 138.3C237.991 138.28 238.291 138.28 238.641 138.21C238.991 138.14 239.411 138.12 239.861 137.98C240.091 137.92 240.331 137.86 240.581 137.79C240.831 137.71 241.091 137.6 241.361 137.51C241.501 137.46 241.631 137.41 241.781 137.35C241.921 137.28 242.061 137.22 242.201 137.15C242.481 137 242.791 136.88 243.081 136.69C244.271 136.01 245.541 135 246.621 133.58C246.891 133.22 247.171 132.86 247.401 132.45C247.661 132.06 247.871 131.62 248.081 131.17C248.311 130.73 248.441 130.23 248.631 129.75C248.691 129.5 248.761 129.24 248.821 128.99L248.921 128.6L248.981 128.2C249.021 127.93 249.061 127.66 249.101 127.39C249.111 127.11 249.131 126.83 249.141 126.55L249.161 126.12L249.141 125.69C249.121 125.4 249.121 125.11 249.091 124.82C248.951 123.65 248.641 122.46 248.151 121.29C247.141 118.98 245.281 116.82 242.751 115.45C241.491 114.77 240.061 114.31 238.561 114.12C237.061 113.95 235.481 114.04 233.881 114.02C208.211 114.03 172.771 114.05 133.611 114.07C132.401 114.09 131.201 114.26 130.051 114.6C128.911 114.97 127.821 115.49 126.821 116.15C125.841 116.83 124.961 117.65 124.211 118.56C123.461 119.48 122.881 120.52 122.421 121.6C121.971 122.69 121.721 123.85 121.591 125C121.491 126.17 121.551 127.33 121.761 128.48C122.011 129.61 122.371 130.72 122.911 131.73C123.461 132.73 124.111 133.69 124.911 134.5C126.491 136.14 128.521 137.32 130.701 137.84C131.241 138.01 131.801 138.04 132.351 138.14C132.911 138.16 133.461 138.22 134.021 138.21C135.141 138.21 136.261 138.21 137.371 138.21C141.811 138.21 146.161 138.21 150.401 138.21C167.371 138.22 182.641 138.23 195.481 138.24C208.311 138.26 218.691 138.28 225.871 138.29C229.451 138.3 232.241 138.31 234.131 138.32C235.071 138.32 235.791 138.33 236.281 138.34C236.761 138.34 237.011 138.36 237.011 138.36C237.011 138.36 236.761 138.37 236.281 138.38C235.791 138.38 235.071 138.38 234.131 138.4C232.241 138.4 229.451 138.42 225.871 138.43C218.691 138.44 208.311 138.46 195.481 138.48C182.651 138.48 167.371 138.5 150.401 138.51C146.161 138.51 141.811 138.51 137.371 138.51C136.261 138.51 135.141 138.51 134.021 138.51C133.461 138.52 132.891 138.47 132.321 138.44C131.761 138.34 131.181 138.3 130.631 138.13C128.401 137.6 126.321 136.39 124.691 134.71C123.871 133.88 123.201 132.9 122.631 131.87C122.071 130.83 121.701 129.69 121.451 128.53C121.231 127.36 121.171 126.16 121.271 124.97C121.411 123.78 121.661 122.59 122.121 121.48C122.591 120.37 123.191 119.3 123.961 118.36C124.731 117.42 125.631 116.58 126.641 115.89C127.661 115.21 128.781 114.68 129.951 114.3C131.131 113.95 132.361 113.78 133.601 113.75C172.751 113.77 208.201 113.78 233.871 113.8C235.471 113.82 237.041 113.74 238.571 113.92C240.101 114.11 241.551 114.58 242.831 115.28C245.401 116.68 247.271 118.88 248.291 121.23C248.791 122.41 249.101 123.62 249.23 124.81C249.26 125.11 249.26 125.4 249.281 125.69L249.301 126.13L249.281 126.56C249.26 126.85 249.251 127.13 249.23 127.41C249.19 127.69 249.141 127.96 249.101 128.23L249.041 128.63L248.941 129.02C248.871 129.28 248.811 129.54 248.741 129.79C248.551 130.28 248.411 130.78 248.181 131.22C247.971 131.67 247.751 132.11 247.491 132.51C247.261 132.93 246.981 133.29 246.701 133.65C245.591 135.08 244.311 136.09 243.111 136.77C242.821 136.96 242.511 137.08 242.221 137.23C242.081 137.3 241.931 137.37 241.801 137.43C241.661 137.48 241.521 137.53 241.381 137.58C241.101 137.68 240.841 137.78 240.591 137.86C240.331 137.92 240.091 137.99 239.861 138.04C239.401 138.18 238.981 138.2 238.631 138.26C238.281 138.32 237.971 138.33 237.731 138.34C237.251 138.36 237.001 138.36 237.001 138.36L237.021 138.35Z" fill="#1A2E35"/>
<path d="M232.33 131.19C229.17 131.19 226.59 128.62 226.59 125.45C226.59 122.28 229.16 119.71 232.33 119.71C235.5 119.71 238.07 122.28 238.07 125.45C238.07 128.62 235.5 131.19 232.33 131.19ZM232.33 120.31C229.49 120.31 227.19 122.62 227.19 125.45C227.19 128.28 229.5 130.59 232.33 130.59C235.16 130.59 237.47 128.28 237.47 125.45C237.47 122.62 235.16 120.31 232.33 120.31Z" fill="url(#paint1_linear_2433_8020)"/>
<path d="M236.872 128.424L236.552 128.931L241.16 131.841L241.48 131.333L236.872 128.424Z" fill="url(#paint2_linear_2433_8020)"/>
<path d="M113.88 41.83L94.6805 31.69C93.3505 30.99 92.8505 29.35 93.5505 28.02L107.58 1.44999C108.28 0.119988 109.92 -0.380012 111.25 0.319988L123.43 6.74999L127.73 21.44L117.56 40.7C116.86 42.03 115.22 42.53 113.89 41.83H113.88Z" fill="#DD1F26"/>
<g opacity="0.3">
<path d="M123.42 6.73999L119.47 14.22C118.82 15.45 119.29 16.98 120.52 17.63L127.71 21.43L123.41 6.73999H123.42Z" fill="white"/>
</g>
<g opacity="0.2">
<path d="M119.221 14.93C119.221 14.93 118.171 16.69 119.921 18.38C119.991 18.44 120.061 18.5 120.131 18.56C120.981 19.22 126.581 23.59 126.661 23.45C126.741 23.3 127.721 21.44 127.721 21.44L120.531 17.64C120.531 17.64 118.771 16.63 119.231 14.93H119.221Z" fill="black"/>
</g>
<path d="M118.021 13.07C117.971 13.17 115.941 12.19 113.491 10.9C111.041 9.59998 109.091 8.47998 109.141 8.37998C109.191 8.27998 111.221 9.25998 113.671 10.55C116.121 11.85 118.071 12.97 118.021 13.07Z" fill="#FAFAFA"/>
<path d="M121.531 20.33C121.481 20.43 118.171 18.78 114.131 16.64C110.091 14.51 106.861 12.7 106.911 12.61C106.961 12.51 110.271 14.16 114.311 16.3C118.351 18.43 121.581 20.24 121.531 20.33Z" fill="#FAFAFA"/>
<path d="M120.981 24.55C120.931 24.65 117.321 22.84 112.921 20.52C108.521 18.2 104.991 16.23 105.041 16.14C105.091 16.04 108.701 17.85 113.101 20.17C117.501 22.49 121.031 24.46 120.981 24.55Z" fill="#FAFAFA"/>
<path d="M119.221 27.88C119.171 27.98 115.561 26.17 111.161 23.85C106.761 21.53 103.231 19.56 103.281 19.47C103.331 19.37 106.941 21.18 111.341 23.5C115.741 25.82 119.271 27.79 119.221 27.88Z" fill="#FAFAFA"/>
<path d="M117.46 31.22C117.41 31.32 113.8 29.51 109.4 27.19C105 24.87 101.47 22.9 101.52 22.81C101.57 22.71 105.18 24.52 109.58 26.84C113.98 29.16 117.51 31.13 117.46 31.22Z" fill="#FAFAFA"/>
<path d="M115.7 34.55C115.65 34.65 112.04 32.84 107.64 30.52C103.24 28.2 99.7103 26.23 99.7603 26.14C99.8103 26.04 103.42 27.85 107.82 30.17C112.22 32.49 115.75 34.46 115.7 34.55Z" fill="#FAFAFA"/>
<path d="M208.5 241.63C206.81 241.39 205.63 239.82 205.88 238.13L209.71 211.5C209.9 210.14 211.24 209.21 212.68 209.42L215.18 209.78C216.2 209.93 217.21 209.5 217.76 208.7L218.46 207.69C219.01 206.88 220.02 206.46 221.04 206.61L232.93 208.32C233.86 208.45 234.65 209.03 235.01 209.85L235.46 210.86C235.82 211.67 236.62 212.26 237.54 212.39L252.69 214.57C254.14 214.78 255.15 216.05 254.96 217.4L251.04 244.64C250.8 246.33 249.23 247.51 247.54 247.26L208.49 241.64L208.5 241.63Z" fill="#F15B57"/>
<g opacity="0.3">
<path d="M208.5 241.63C206.81 241.39 205.63 239.82 205.88 238.13L209.71 211.5C209.9 210.14 211.24 209.21 212.68 209.42L215.18 209.78C216.2 209.93 217.21 209.5 217.76 208.7L218.46 207.69C219.01 206.88 220.02 206.46 221.04 206.61L232.93 208.32C233.86 208.45 234.65 209.03 235.01 209.85L235.46 210.86C235.82 211.67 236.62 212.26 237.54 212.39L252.69 214.57C254.14 214.78 255.15 216.05 254.96 217.4L251.04 244.64C250.8 246.33 249.23 247.51 247.54 247.26L208.49 241.64L208.5 241.63Z" fill="black"/>
</g>
<path d="M236.06 212.16L226.42 210.75L225.79 209.02C225.38 207.89 224.34 207.07 223.09 206.89L213.67 205.54C211.99 205.3 210.45 206.38 210.22 207.95L210.06 209.05L205.9 237.97C205.64 239.75 206.98 241.42 208.89 241.7L247.17 247.2C249.08 247.47 250.83 246.25 251.08 244.46L255.01 217.14C255.19 215.92 254.34 214.79 253.12 214.62L236.06 212.17V212.16Z" fill="#F15B57"/>
<path d="M243.788 224.041L221.012 220.767L219.634 230.349L242.41 233.623L243.788 224.041Z" fill="white"/>
<path d="M239.66 227.77C239.65 227.85 236.13 227.42 231.81 226.8C227.49 226.18 223.99 225.61 224.01 225.52C224.02 225.44 227.54 225.87 231.86 226.49C236.18 227.11 239.68 227.68 239.66 227.77Z" fill="#1A2E35"/>
<path d="M239.371 229.81C239.361 229.89 235.841 229.46 231.521 228.84C227.201 228.22 223.701 227.65 223.721 227.56C223.731 227.48 227.251 227.91 231.571 228.53C235.891 229.15 239.391 229.72 239.371 229.81Z" fill="#1A2E35"/>
<path d="M277.63 229.79C276.58 230.19 275.41 229.67 275.01 228.62L268.7 212.12C268.38 211.28 268.84 210.32 269.74 209.98L271.29 209.39C271.92 209.15 272.37 208.58 272.43 207.94L272.5 207.14C272.56 206.5 273 205.94 273.64 205.69L281 202.87C281.57 202.65 282.21 202.73 282.68 203.08L283.26 203.51C283.73 203.86 284.37 203.94 284.94 203.72L294.33 200.13C295.23 199.79 296.21 200.19 296.53 201.03L302.99 217.9C303.39 218.95 302.87 220.12 301.82 220.52L277.63 229.78V229.79Z" fill="#DD1F26"/>
<g opacity="0.3">
<path d="M277.63 229.79C276.58 230.19 275.41 229.67 275.01 228.62L268.7 212.12C268.38 211.28 268.84 210.32 269.74 209.98L271.29 209.39C271.92 209.15 272.37 208.58 272.43 207.94L272.5 207.14C272.56 206.5 273 205.94 273.64 205.69L281 202.87C281.57 202.65 282.21 202.73 282.68 203.08L283.26 203.51C283.73 203.86 284.37 203.94 284.94 203.72L294.33 200.13C295.23 199.79 296.21 200.19 296.53 201.03L302.99 217.9C303.39 218.95 302.87 220.12 301.82 220.52L277.63 229.78V229.79Z" fill="black"/>
</g>
<path d="M284.01 204.09L278.03 206.36L277.11 205.57C276.52 205.06 275.65 204.92 274.88 205.21L269.04 207.44C268 207.84 267.46 208.95 267.83 209.92L268.09 210.6L274.95 228.51C275.37 229.62 276.67 230.15 277.85 229.69L301.56 220.62C302.74 220.17 303.35 218.91 302.93 217.8L296.45 200.88C296.16 200.13 295.31 199.75 294.56 200.04L283.99 204.09H284.01Z" fill="#DD1F26"/>
<path d="M292.252 208.418L278.141 213.821L280.415 219.76L294.526 214.358L292.252 208.418Z" fill="white"/>
<path d="M291.07 211.89C291.1 211.97 288.96 212.87 286.28 213.89C283.6 214.91 281.41 215.68 281.38 215.6C281.35 215.52 283.49 214.62 286.17 213.6C288.85 212.58 291.04 211.81 291.07 211.89Z" fill="#1A2E35"/>
<path d="M291.551 213.15C291.581 213.23 289.441 214.13 286.761 215.15C284.081 216.17 281.891 216.94 281.861 216.86C281.831 216.78 283.971 215.88 286.651 214.86C289.331 213.84 291.521 213.07 291.551 213.15Z" fill="#1A2E35"/>
<path d="M301.391 240.08C302.591 240.6 303.471 241.71 303.911 242.94C304.351 244.17 304.391 245.51 304.251 246.81C303.971 249.32 302.541 251.86 301.001 253.87C298.881 252.02 298.401 248.8 298.251 247.15C298.021 244.54 299.191 239.69 301.391 240.08Z" fill="#4FAE86"/>
<path d="M303.46 258.02C303.12 256.6 303.71 255.04 304.8 254.07C305.89 253.1 307.41 252.69 308.87 252.8C309.54 252.85 310.27 253.05 310.66 253.6C311.02 254.12 310.98 254.84 310.69 255.4C310.4 255.96 309.89 256.38 309.36 256.71C307.53 257.86 305.54 258.64 303.46 258.02Z" fill="#6CE08B"/>
<path d="M300.74 265.73C300.74 265.73 300.76 265.54 300.82 265.21C300.89 264.85 300.97 264.38 301.08 263.81C301.31 262.64 301.61 260.97 302.52 259.35C303.41 257.73 304.67 256.54 305.72 255.95C306.24 255.65 306.7 255.47 307.03 255.37C307.19 255.32 307.32 255.3 307.41 255.27C307.5 255.25 307.54 255.25 307.54 255.25C307.56 255.29 306.81 255.43 305.79 256.05C304.77 256.66 303.56 257.84 302.68 259.43C301.79 261.02 301.47 262.67 301.21 263.83C301.08 264.42 300.98 264.89 300.9 265.21C300.82 265.54 300.77 265.71 300.75 265.71L300.74 265.73Z" fill="#1A2E35"/>
<path d="M300.82 243.85C300.82 243.85 300.84 243.93 300.85 244.08C300.85 244.25 300.87 244.46 300.89 244.73C300.92 245.29 300.95 246.11 300.99 247.12C301.06 249.13 301.11 251.92 301.09 255C301.08 258.08 301 260.86 300.92 262.88C300.88 263.89 300.84 264.7 300.8 265.26C300.78 265.53 300.77 265.74 300.76 265.91C300.75 266.06 300.74 266.14 300.73 266.14C300.73 266.14 300.73 266.06 300.73 265.91C300.73 265.74 300.73 265.53 300.73 265.26C300.74 264.67 300.76 263.86 300.79 262.87C300.84 260.86 300.89 258.07 300.91 255C300.92 251.93 300.89 249.14 300.86 247.13C300.84 246.14 300.83 245.33 300.82 244.74C300.82 244.47 300.82 244.26 300.82 244.09C300.82 243.94 300.82 243.86 300.83 243.86L300.82 243.85Z" fill="#1A2E35"/>
<path d="M299.801 259.55C299.321 256.51 297.271 253.76 294.491 252.43C293.781 252.09 292.861 251.87 292.281 252.4C291.701 252.93 291.831 253.87 292.111 254.61C293.301 257.66 296.481 259.81 299.751 259.77" fill="#319188"/>
<path d="M294.831 254.81C294.831 254.81 294.991 254.87 295.281 255.01C295.421 255.08 295.601 255.16 295.791 255.28C295.981 255.4 296.211 255.51 296.441 255.69C296.671 255.85 296.931 256.03 297.181 256.25C297.441 256.46 297.701 256.7 297.971 256.97C298.491 257.51 299.021 258.15 299.471 258.89C299.911 259.64 300.231 260.4 300.461 261.12C300.561 261.48 300.661 261.82 300.711 262.15C300.781 262.48 300.811 262.79 300.841 263.07C300.881 263.35 300.871 263.61 300.881 263.83C300.891 264.05 300.881 264.25 300.861 264.41C300.841 264.73 300.821 264.9 300.811 264.9C300.771 264.9 300.841 264.2 300.721 263.09C300.681 262.81 300.651 262.51 300.571 262.19C300.511 261.87 300.411 261.53 300.311 261.18C300.081 260.48 299.761 259.73 299.331 259C298.891 258.27 298.381 257.64 297.871 257.1C297.611 256.84 297.361 256.59 297.111 256.38C296.871 256.16 296.621 255.98 296.391 255.81C295.481 255.16 294.841 254.87 294.861 254.83L294.831 254.81Z" fill="#1A2E35"/>
<path d="M582 266.23C582 266.32 527.09 266.39 459.38 266.39C391.67 266.39 336.75 266.32 336.75 266.23C336.75 266.14 391.64 266.07 459.38 266.07C527.12 266.07 582 266.14 582 266.23Z" fill="#1A2E35"/>
<path d="M558.12 240.08C559.32 240.6 560.2 241.71 560.64 242.94C561.08 244.17 561.12 245.51 560.98 246.81C560.7 249.32 559.27 251.86 557.73 253.87C555.61 252.02 555.13 248.8 554.98 247.15C554.75 244.54 555.92 239.69 558.12 240.08Z" fill="#4FAE86"/>
<path d="M560.19 258.02C559.85 256.6 560.44 255.04 561.53 254.07C562.62 253.1 564.14 252.69 565.6 252.8C566.27 252.85 567 253.05 567.39 253.6C567.75 254.12 567.71 254.84 567.42 255.4C567.13 255.96 566.62 256.38 566.09 256.71C564.26 257.86 562.27 258.64 560.19 258.02Z" fill="#6CE08B"/>
<path d="M557.47 265.73C557.47 265.73 557.49 265.54 557.55 265.21C557.62 264.85 557.7 264.38 557.81 263.81C558.04 262.64 558.34 260.97 559.25 259.35C560.14 257.73 561.4 256.54 562.45 255.95C562.97 255.65 563.43 255.47 563.76 255.37C563.92 255.32 564.05 255.3 564.14 255.27C564.23 255.25 564.27 255.25 564.27 255.25C564.29 255.29 563.54 255.43 562.52 256.05C561.5 256.66 560.29 257.84 559.41 259.43C558.52 261.02 558.2 262.67 557.94 263.83C557.81 264.42 557.71 264.89 557.63 265.21C557.55 265.54 557.5 265.71 557.48 265.71L557.47 265.73Z" fill="#1A2E35"/>
<path d="M557.55 243.85C557.55 243.85 557.57 243.93 557.58 244.08C557.58 244.25 557.6 244.46 557.62 244.73C557.65 245.29 557.68 246.11 557.72 247.12C557.79 249.13 557.84 251.92 557.82 255C557.81 258.08 557.73 260.86 557.65 262.88C557.61 263.89 557.57 264.7 557.53 265.26C557.51 265.53 557.5 265.74 557.49 265.91C557.48 266.06 557.47 266.14 557.46 266.14C557.46 266.14 557.46 266.06 557.46 265.91C557.46 265.74 557.46 265.53 557.46 265.26C557.47 264.67 557.49 263.86 557.52 262.87C557.57 260.86 557.62 258.07 557.64 255C557.65 251.93 557.62 249.14 557.59 247.13C557.57 246.14 557.56 245.33 557.55 244.74C557.55 244.47 557.55 244.26 557.55 244.09C557.55 243.94 557.55 243.86 557.56 243.86L557.55 243.85Z" fill="#1A2E35"/>
<path d="M556.53 259.55C556.05 256.51 554 253.76 551.22 252.43C550.51 252.09 549.59 251.87 549.01 252.4C548.43 252.93 548.56 253.87 548.84 254.61C550.03 257.66 553.21 259.81 556.48 259.77" fill="#319188"/>
<path d="M551.561 254.81C551.561 254.81 551.721 254.87 552.011 255.01C552.151 255.08 552.331 255.16 552.521 255.28C552.711 255.4 552.941 255.51 553.171 255.69C553.401 255.85 553.661 256.03 553.911 256.25C554.171 256.46 554.431 256.7 554.701 256.97C555.221 257.51 555.751 258.15 556.201 258.89C556.641 259.64 556.961 260.4 557.191 261.12C557.291 261.48 557.391 261.82 557.441 262.15C557.511 262.48 557.541 262.79 557.571 263.07C557.611 263.35 557.601 263.61 557.611 263.83C557.621 264.05 557.611 264.25 557.591 264.41C557.571 264.73 557.551 264.9 557.541 264.9C557.501 264.9 557.571 264.2 557.451 263.09C557.411 262.81 557.381 262.51 557.301 262.19C557.241 261.87 557.141 261.53 557.041 261.18C556.811 260.48 556.491 259.73 556.061 259C555.621 258.27 555.111 257.64 554.601 257.1C554.341 256.84 554.091 256.59 553.841 256.38C553.601 256.16 553.351 255.98 553.121 255.81C552.211 255.16 551.571 254.87 551.591 254.83L551.561 254.81Z" fill="#1A2E35"/>
<path d="M138.031 124.06C138.011 123.82 137.901 123.63 137.721 123.5C137.541 123.37 137.29 123.3 136.98 123.3C136.77 123.3 136.591 123.33 136.451 123.39C136.301 123.45 136.19 123.53 136.12 123.63C136.05 123.73 136.01 123.85 136.01 123.98C136.01 124.09 136.031 124.19 136.081 124.27C136.131 124.35 136.2 124.42 136.29 124.48C136.38 124.54 136.481 124.59 136.601 124.63C136.721 124.67 136.84 124.71 136.98 124.74L137.531 124.87C137.801 124.93 138.04 125.01 138.26 125.11C138.48 125.21 138.681 125.33 138.84 125.48C139 125.63 139.131 125.8 139.221 125.99C139.311 126.19 139.361 126.41 139.361 126.67C139.361 127.04 139.261 127.37 139.071 127.64C138.881 127.91 138.61 128.13 138.26 128.28C137.91 128.43 137.48 128.51 136.98 128.51C136.48 128.51 136.061 128.43 135.691 128.28C135.321 128.13 135.04 127.9 134.84 127.61C134.64 127.32 134.531 126.94 134.521 126.5H135.771C135.781 126.71 135.841 126.88 135.951 127.01C136.051 127.15 136.2 127.25 136.37 127.32C136.55 127.39 136.751 127.42 136.971 127.42C137.191 127.42 137.38 127.39 137.54 127.32C137.7 127.25 137.831 127.17 137.921 127.05C138.011 126.94 138.051 126.81 138.051 126.66C138.051 126.52 138.01 126.41 137.93 126.31C137.85 126.21 137.731 126.14 137.581 126.07C137.431 126 137.24 125.95 137.01 125.89L136.34 125.72C135.82 125.59 135.42 125.4 135.12 125.13C134.82 124.86 134.67 124.5 134.68 124.05C134.68 123.68 134.78 123.36 134.98 123.08C135.18 122.8 135.461 122.59 135.811 122.43C136.161 122.27 136.561 122.2 137.001 122.2C137.441 122.2 137.851 122.28 138.191 122.43C138.531 122.58 138.79 122.8 138.98 123.08C139.17 123.36 139.271 123.68 139.271 124.04H138.031V124.06Z" fill="url(#paint3_linear_2433_8020)"/>
<path d="M142.29 128.51C141.82 128.51 141.411 128.41 141.071 128.22C140.731 128.03 140.47 127.76 140.29 127.4C140.11 127.04 140.021 126.63 140.021 126.15C140.021 125.67 140.11 125.26 140.29 124.91C140.47 124.56 140.731 124.28 141.061 124.08C141.391 123.88 141.79 123.78 142.23 123.78C142.53 123.78 142.811 123.83 143.081 123.92C143.341 124.02 143.571 124.16 143.771 124.35C143.971 124.54 144.12 124.79 144.23 125.08C144.34 125.37 144.391 125.71 144.391 126.1V126.45H140.521V125.66H143.191C143.191 125.48 143.151 125.32 143.071 125.17C142.991 125.02 142.881 124.92 142.741 124.84C142.601 124.76 142.441 124.72 142.251 124.72C142.061 124.72 141.891 124.76 141.741 124.85C141.591 124.94 141.481 125.06 141.391 125.21C141.301 125.36 141.26 125.52 141.26 125.7V126.45C141.26 126.68 141.301 126.87 141.391 127.04C141.481 127.21 141.591 127.33 141.751 127.42C141.911 127.51 142.091 127.55 142.301 127.55C142.441 127.55 142.571 127.53 142.691 127.49C142.811 127.45 142.911 127.39 142.991 127.31C143.071 127.23 143.14 127.13 143.18 127.02L144.361 127.1C144.301 127.38 144.181 127.63 143.991 127.84C143.801 128.05 143.571 128.21 143.281 128.33C142.991 128.45 142.661 128.5 142.281 128.5L142.29 128.51Z" fill="url(#paint4_linear_2433_8020)"/>
<path d="M146.531 128.5C146.241 128.5 145.981 128.45 145.751 128.35C145.521 128.25 145.341 128.1 145.211 127.89C145.081 127.69 145.011 127.44 145.011 127.13C145.011 126.88 145.061 126.66 145.151 126.49C145.241 126.32 145.371 126.18 145.531 126.07C145.691 125.96 145.871 125.89 146.081 125.83C146.291 125.77 146.501 125.74 146.731 125.72C147.001 125.69 147.211 125.67 147.381 125.64C147.541 125.61 147.661 125.58 147.731 125.53C147.801 125.48 147.841 125.41 147.841 125.31V125.29C147.841 125.1 147.781 124.96 147.661 124.85C147.541 124.75 147.371 124.69 147.161 124.69C146.931 124.69 146.751 124.74 146.611 124.84C146.471 124.94 146.381 125.07 146.341 125.22L145.161 125.12C145.221 124.84 145.341 124.6 145.511 124.4C145.681 124.2 145.911 124.04 146.191 123.93C146.471 123.82 146.791 123.76 147.161 123.76C147.411 123.76 147.661 123.79 147.891 123.85C148.121 123.91 148.331 124 148.511 124.13C148.691 124.26 148.841 124.42 148.941 124.61C149.041 124.8 149.101 125.04 149.101 125.31V128.4H147.891V127.76H147.851C147.781 127.9 147.681 128.03 147.551 128.14C147.431 128.25 147.281 128.33 147.111 128.39C146.941 128.45 146.741 128.48 146.511 128.48L146.531 128.5ZM146.891 127.62C147.081 127.62 147.241 127.58 147.391 127.51C147.531 127.44 147.651 127.33 147.731 127.21C147.811 127.09 147.851 126.94 147.851 126.78V126.29C147.851 126.29 147.761 126.34 147.691 126.36C147.621 126.38 147.541 126.4 147.461 126.42C147.371 126.44 147.291 126.45 147.201 126.46C147.111 126.47 147.041 126.48 146.971 126.49C146.821 126.51 146.691 126.55 146.581 126.59C146.471 126.63 146.381 126.7 146.321 126.78C146.261 126.86 146.231 126.96 146.231 127.08C146.231 127.25 146.291 127.38 146.421 127.48C146.551 127.58 146.711 127.62 146.901 127.62H146.891Z" fill="url(#paint5_linear_2433_8020)"/>
<path d="M150.101 128.42V123.83H151.331V124.63H151.381C151.461 124.34 151.601 124.13 151.801 123.98C152.001 123.83 152.221 123.76 152.481 123.76C152.541 123.76 152.611 123.76 152.691 123.77C152.771 123.78 152.831 123.79 152.881 123.8V124.93C152.821 124.91 152.741 124.9 152.631 124.88C152.521 124.87 152.431 124.86 152.341 124.86C152.151 124.86 151.991 124.9 151.841 124.98C151.691 125.06 151.581 125.17 151.491 125.32C151.401 125.47 151.361 125.63 151.361 125.82V128.41H150.091L150.101 128.42Z" fill="url(#paint6_linear_2433_8020)"/>
<path d="M155.391 128.51C154.921 128.51 154.521 128.41 154.181 128.21C153.841 128.01 153.581 127.73 153.401 127.38C153.221 127.03 153.131 126.61 153.131 126.15C153.131 125.69 153.221 125.27 153.401 124.91C153.581 124.56 153.841 124.28 154.181 124.08C154.521 123.88 154.921 123.78 155.381 123.78C155.781 123.78 156.131 123.85 156.431 124C156.731 124.15 156.971 124.35 157.141 124.61C157.311 124.87 157.411 125.18 157.431 125.54H156.231C156.201 125.31 156.111 125.13 155.961 124.99C155.821 124.85 155.631 124.78 155.391 124.78C155.191 124.78 155.021 124.83 154.871 124.94C154.721 125.05 154.611 125.2 154.531 125.4C154.451 125.6 154.411 125.85 154.411 126.14C154.411 126.43 154.451 126.68 154.531 126.89C154.611 127.1 154.721 127.25 154.871 127.36C155.021 127.47 155.191 127.52 155.391 127.52C155.541 127.52 155.671 127.49 155.781 127.43C155.901 127.37 155.991 127.28 156.071 127.17C156.151 127.06 156.201 126.92 156.221 126.76H157.421C157.401 127.11 157.301 127.42 157.131 127.68C156.961 127.95 156.731 128.15 156.431 128.3C156.131 128.45 155.781 128.52 155.371 128.52L155.391 128.51Z" fill="url(#paint7_linear_2433_8020)"/>
<path d="M159.531 125.77V128.42H158.261V122.31H159.501V124.65H159.551C159.651 124.38 159.821 124.17 160.051 124.01C160.281 123.85 160.571 123.78 160.921 123.78C161.241 123.78 161.521 123.85 161.751 123.99C161.991 124.13 162.171 124.33 162.311 124.58C162.451 124.83 162.511 125.15 162.511 125.5V128.42H161.241V125.73C161.241 125.45 161.171 125.23 161.031 125.07C160.891 124.91 160.681 124.83 160.431 124.83C160.261 124.83 160.101 124.87 159.971 124.94C159.841 125.01 159.731 125.12 159.661 125.26C159.591 125.4 159.551 125.57 159.551 125.77H159.531Z" fill="url(#paint8_linear_2433_8020)"/>
<path d="M61.1805 247.08L60.7705 266.54L86.3805 267.14C86.2905 264.82 73.1605 259.87 73.1605 259.87L73.9605 247.41L61.1705 247.08H61.1805Z" fill="#231F20"/>
<g opacity="0.6">
<path d="M60.7705 266.53L60.8905 264.57L85.4005 265.88C85.4005 265.88 86.5305 266.38 86.3805 267.13L60.7705 266.53Z" fill="white"/>
</g>
<path d="M73.5809 259.75C73.5809 259.87 72.9509 259.91 72.3209 260.27C71.6809 260.62 71.3509 261.12 71.2409 261.08C71.1309 261.05 71.3309 260.35 72.1009 259.92C72.8609 259.48 73.6109 259.64 73.5809 259.75Z" fill="#1A2E35"/>
<path d="M76.2404 260.87C76.2704 260.99 75.7204 261.17 75.2804 261.66C74.8304 262.14 74.7104 262.68 74.5804 262.67C74.4604 262.69 74.3904 261.99 74.9504 261.39C75.5004 260.79 76.2404 260.75 76.2404 260.87Z" fill="#1A2E35"/>
<path d="M77.6901 263.94C77.5801 263.96 77.4201 263.37 77.7601 262.73C78.0901 262.09 78.6901 261.85 78.7401 261.95C78.8101 262.05 78.4201 262.39 78.1501 262.92C77.8701 263.44 77.8201 263.94 77.6901 263.95V263.94Z" fill="#1A2E35"/>
<path d="M73.4306 256.9C73.3706 257.01 72.8106 256.83 72.1006 256.86C71.3906 256.88 70.8406 257.09 70.7706 256.98C70.7006 256.89 71.2506 256.47 72.0806 256.45C72.9106 256.42 73.4906 256.81 73.4306 256.9Z" fill="#1A2E35"/>
<path d="M72.9008 254.01C72.9008 254.01 72.4008 254.12 71.6208 253.97C71.2308 253.9 70.7708 253.76 70.2908 253.55C70.0508 253.44 69.8108 253.31 69.5608 253.16C69.4408 253.09 69.3108 253.01 69.1808 252.87C69.0408 252.74 68.9708 252.43 69.1408 252.24C69.2808 252.06 69.5108 251.98 69.7008 251.98C69.8908 251.98 70.0408 252.02 70.1808 252.05C70.4608 252.12 70.7308 252.22 70.9708 252.33C71.4508 252.55 71.8408 252.83 72.1308 253.09C72.7108 253.62 72.9008 254.07 72.8608 254.09C72.8008 254.13 72.5208 253.75 71.9308 253.31C71.6308 253.09 71.2508 252.86 70.8008 252.67C70.5708 252.58 70.3308 252.5 70.0708 252.44C69.8008 252.37 69.5708 252.36 69.5008 252.47C69.4708 252.51 69.4708 252.53 69.5208 252.61C69.5808 252.68 69.6808 252.75 69.8008 252.83C70.0208 252.97 70.2508 253.1 70.4708 253.21C70.9108 253.43 71.3308 253.58 71.7008 253.69C72.4308 253.9 72.9108 253.94 72.9108 254.01H72.9008Z" fill="#1A2E35"/>
<path d="M72.7302 254.17C72.7302 254.17 72.4502 253.76 72.4202 252.99C72.4102 252.61 72.4602 252.15 72.6302 251.67C72.7202 251.43 72.8302 251.18 72.9802 250.94C73.1402 250.7 73.3302 250.39 73.8102 250.35C74.0602 250.35 74.2702 250.54 74.3402 250.7C74.4202 250.87 74.4302 251.01 74.4602 251.15C74.5002 251.43 74.4902 251.71 74.4402 251.97C74.3502 252.48 74.1102 252.91 73.8602 253.21C73.3402 253.83 72.8202 253.95 72.8102 253.91C72.7702 253.85 73.2102 253.63 73.6102 253.04C73.8102 252.75 73.9802 252.36 74.0502 251.91C74.0802 251.69 74.0802 251.45 74.0502 251.21C74.0202 250.95 73.9202 250.74 73.8202 250.77C73.6902 250.77 73.4702 250.95 73.3602 251.16C73.2202 251.37 73.1102 251.59 73.0202 251.81C72.8502 252.24 72.7702 252.66 72.7402 253.01C72.6902 253.72 72.8102 254.17 72.7402 254.18L72.7302 254.17Z" fill="#1A2E35"/>
<path d="M41.7704 248.69L39.3204 268L13.9004 264.84C14.3304 262.56 28.0404 259.58 28.0404 259.58L29.0704 247.14L41.7704 248.68V248.69Z" fill="#231F20"/>
<g opacity="0.6">
<path d="M39.3204 268L39.4904 266.04L15.0504 263.75C15.0504 263.75 13.8604 264.08 13.9004 264.84L39.3204 268Z" fill="white"/>
</g>
<path d="M27.64 259.42C27.63 259.54 28.24 259.67 28.81 260.12C29.39 260.56 29.64 261.11 29.76 261.07C29.88 261.07 29.78 260.34 29.08 259.8C28.39 259.26 27.62 259.3 27.64 259.41V259.42Z" fill="#1A2E35"/>
<path d="M24.8401 260.13C24.8001 260.24 25.3101 260.51 25.6701 261.06C26.0501 261.6 26.0901 262.15 26.2101 262.16C26.3201 262.19 26.4901 261.52 26.0301 260.84C25.5701 260.16 24.8501 260.02 24.8301 260.13H24.8401Z" fill="#1A2E35"/>
<path d="M22.9603 262.96C23.0703 263 23.3103 262.43 23.0703 261.75C22.8303 261.07 22.2803 260.74 22.2203 260.83C22.1403 260.92 22.4703 261.31 22.6603 261.87C22.8603 262.43 22.8403 262.93 22.9603 262.95V262.96Z" fill="#1A2E35"/>
<path d="M28.2003 256.61C28.2403 256.72 28.8303 256.63 29.5203 256.76C30.2203 256.88 30.7403 257.17 30.8103 257.08C30.8903 257 30.4103 256.5 29.5903 256.36C28.7703 256.21 28.1403 256.51 28.1903 256.61H28.2003Z" fill="#1A2E35"/>
<path d="M29.1602 253.83C29.1602 253.83 29.6302 254.01 30.4302 253.98C30.8302 253.96 31.3002 253.9 31.8102 253.76C32.0602 253.69 32.3202 253.6 32.5902 253.48C32.7202 253.42 32.8602 253.37 33.0102 253.24C33.1602 253.13 33.2802 252.83 33.1402 252.62C33.0302 252.42 32.8102 252.31 32.6302 252.28C32.4402 252.25 32.2902 252.27 32.1402 252.28C31.8502 252.31 31.5702 252.37 31.3202 252.44C30.8102 252.59 30.3802 252.8 30.0602 253.02C29.4102 253.46 29.1502 253.88 29.1902 253.9C29.2402 253.95 29.5702 253.61 30.2302 253.26C30.5602 253.09 30.9602 252.91 31.4402 252.8C31.6802 252.74 31.9302 252.7 32.2002 252.68C32.4802 252.65 32.7102 252.68 32.7602 252.79C32.7802 252.84 32.7802 252.85 32.7202 252.92C32.6502 252.98 32.5402 253.04 32.4102 253.09C32.1702 253.2 31.9302 253.29 31.6902 253.37C31.2202 253.52 30.7802 253.61 30.4102 253.66C29.6602 253.76 29.1802 253.73 29.1702 253.8L29.1602 253.83Z" fill="#1A2E35"/>
<path d="M29.3003 254.02C29.3003 254.02 29.6403 253.65 29.7803 252.9C29.8503 252.53 29.8603 252.06 29.7703 251.56C29.7203 251.31 29.6403 251.05 29.5303 250.79C29.4103 250.53 29.2703 250.19 28.7903 250.08C28.5403 250.04 28.3103 250.2 28.2203 250.35C28.1203 250.5 28.0803 250.64 28.0403 250.78C27.9603 251.06 27.9303 251.33 27.9403 251.59C27.9603 252.11 28.1303 252.56 28.3303 252.9C28.7503 253.58 29.2503 253.79 29.2703 253.75C29.3203 253.7 28.9103 253.42 28.6103 252.77C28.4603 252.45 28.3403 252.04 28.3403 251.59C28.3403 251.36 28.3703 251.13 28.4503 250.9C28.5203 250.65 28.6503 250.46 28.7503 250.49C28.8803 250.5 29.0703 250.72 29.1503 250.94C29.2503 251.17 29.3303 251.41 29.3903 251.63C29.5003 252.08 29.5203 252.51 29.4903 252.86C29.4403 253.57 29.2503 253.99 29.3203 254.02H29.3003Z" fill="#1A2E35"/>
<path d="M81.0407 143.81L41.1607 145.09C41.1607 145.09 31.7607 207.85 32.0207 212.21L26.2207 257.74L43.0907 258.33C43.0907 258.33 45.7407 243.57 47.5907 233.46C48.8207 226.74 51.0707 216.87 51.6807 211.26C52.2907 205.65 62.1507 166.44 62.1507 166.44C62.1507 166.44 61.4207 211.95 61.4407 213.82C61.4607 215.69 59.4907 258.29 59.4907 258.29H76.2407C77.1107 250.6 79.1607 219.83 79.6007 213.61C80.4007 202.38 82.9207 170.67 83.2907 162.56C83.6607 154.46 81.0407 143.8 81.0407 143.8V143.81Z" fill="#1A2E35"/>
<g opacity="0.5">
<path d="M93.8705 185.8C93.8505 186.1 93.8305 186.51 93.7905 187.05C93.7805 187.33 93.7605 187.63 93.7405 187.97C93.7005 188.31 93.6305 188.67 93.5705 189.07C93.5105 189.47 93.4405 189.89 93.3705 190.35C93.3105 190.81 93.1405 191.27 93.0205 191.78C92.5605 193.81 91.6105 196.21 90.1105 198.76C88.6005 201.29 86.4205 203.94 83.4505 206.19C83.0805 206.46 82.7005 206.74 82.3205 207.03C81.9205 207.29 81.5005 207.53 81.0905 207.78C80.6705 208.02 80.2605 208.31 79.8105 208.52C79.3605 208.74 78.9105 208.95 78.4505 209.17L77.7605 209.5C77.5205 209.59 77.2805 209.68 77.0405 209.76C76.5505 209.94 76.0605 210.12 75.5605 210.3C75.0605 210.47 74.5405 210.57 74.0205 210.71C73.5005 210.83 72.9805 211.02 72.4405 211.07C71.3605 211.22 70.2605 211.45 69.1305 211.45C68.5705 211.47 68.0005 211.53 67.4305 211.52C66.8505 211.49 66.2805 211.46 65.7005 211.43C65.4105 211.41 65.1105 211.41 64.8205 211.37L63.9505 211.24C63.3705 211.14 62.7805 211.07 62.1905 210.95C61.0405 210.64 59.8405 210.4 58.7005 209.93C57.5305 209.55 56.4305 208.97 55.3005 208.43C54.7405 208.13 54.2105 207.78 53.6705 207.46C53.4005 207.29 53.1105 207.14 52.8605 206.95L52.0905 206.37C51.0305 205.64 50.1005 204.73 49.1205 203.85C48.2505 202.88 47.3205 201.93 46.5605 200.82L45.9605 200.02L45.4405 199.16L44.9105 198.29L44.6505 197.86L44.4205 197.4C44.1305 196.79 43.8305 196.17 43.5405 195.56C43.3005 194.91 43.0705 194.27 42.8305 193.62C41.9805 191 41.5205 188.21 41.4805 185.37C41.5205 182.54 41.9805 179.75 42.8305 177.13C43.0705 176.48 43.3005 175.84 43.5405 175.19C43.8405 174.58 44.1305 173.96 44.4305 173.35C44.5605 173.04 44.7305 172.75 44.9105 172.46L45.4405 171.59L45.9605 170.73L46.5705 169.93C47.3205 168.83 48.2505 167.87 49.1305 166.9C50.1005 166.02 51.0305 165.11 52.0905 164.38L52.8605 163.81C53.1205 163.61 53.4005 163.47 53.6705 163.3C54.2105 162.97 54.7405 162.62 55.3005 162.32C56.4305 161.78 57.5305 161.2 58.7005 160.82C59.8405 160.35 61.0405 160.12 62.1905 159.8C62.7805 159.68 63.3705 159.61 63.9505 159.52L64.8205 159.38C65.1105 159.34 65.4005 159.34 65.6905 159.32C66.2805 159.29 66.8505 159.26 67.4305 159.24C68.0005 159.23 68.5705 159.28 69.1305 159.3C70.2605 159.3 71.3605 159.53 72.4405 159.68C72.9805 159.74 73.5005 159.92 74.0205 160.04C74.5405 160.18 75.0605 160.29 75.5605 160.45C76.0605 160.63 76.5505 160.81 77.0305 160.99C77.2805 161.08 77.5205 161.17 77.7605 161.25L78.4505 161.58C78.9105 161.8 79.3605 162.02 79.8105 162.23C80.2605 162.44 80.6605 162.73 81.0905 162.97C81.5005 163.23 81.9205 163.46 82.3205 163.72C82.7005 164.01 83.0805 164.29 83.4505 164.57C86.4205 166.81 88.6005 169.46 90.1105 172C91.6105 174.54 92.5605 176.94 93.0205 178.97C93.1405 179.48 93.3105 179.95 93.3705 180.41C93.4405 180.86 93.5105 181.29 93.5705 181.69C93.6305 182.08 93.7005 182.45 93.7405 182.78C93.7605 183.12 93.7805 183.43 93.7905 183.7C93.8305 184.24 93.8505 184.66 93.8705 184.95C93.8905 185.23 93.9105 185.38 93.9105 185.38C93.9105 185.38 93.8905 185.52 93.8705 185.8Z" fill="#B7D5DA"/>
</g>
<path d="M78.4205 144.11C78.3405 144.11 78.2705 143.47 78.2705 142.68C78.2705 141.89 78.3405 141.25 78.4205 141.25C78.5005 141.25 78.5705 141.89 78.5705 142.68C78.5705 143.47 78.5005 144.11 78.4205 144.11Z" fill="#F15B57"/>
<path d="M80.0704 144.87C79.9904 144.88 79.8204 144.06 79.9104 143.04C79.9904 142.02 80.3004 141.23 80.3704 141.26C80.4504 141.28 80.2804 142.08 80.2004 143.06C80.1104 144.05 80.1604 144.86 80.0704 144.87Z" fill="#F15B57"/>
<path d="M65.1803 141.88C65.1903 141.93 64.7403 141.88 64.3403 142.35C64.1503 142.58 63.9903 142.93 64.0603 143.29C64.1203 143.66 64.4703 143.97 64.9003 144.05C65.3303 144.13 65.7803 143.97 65.9703 143.65C66.1703 143.33 66.1503 142.95 66.0603 142.67C65.8603 142.08 65.4203 141.97 65.4503 141.92C65.4503 141.91 65.5603 141.9 65.7303 141.99C65.9003 142.08 66.1203 142.27 66.2503 142.59C66.3803 142.9 66.4403 143.36 66.2003 143.78C65.9603 144.22 65.3803 144.43 64.8503 144.32C64.3203 144.23 63.8603 143.81 63.8003 143.32C63.7303 142.83 63.9503 142.43 64.1903 142.19C64.4403 141.94 64.7103 141.84 64.9003 141.82C65.0903 141.8 65.1903 141.84 65.1903 141.86L65.1803 141.88Z" fill="#F15B57"/>
<path d="M44.6302 49.48C44.7602 47.16 46.1902 45.73 48.1902 44.55C50.1902 43.36 52.7802 43.25 54.8802 44.25C56.2802 44.92 57.5102 46.06 59.0602 46.26C61.6002 46.59 64.0002 44.23 66.5002 44.82C67.9802 45.17 69.1002 46.64 69.0402 48.16C68.9802 49.67 67.7502 51.06 66.2502 51.3C67.9102 51.54 68.8502 53.64 68.2402 55.21C67.6302 56.77 65.8802 57.68 64.2002 57.72C62.5202 57.76 60.9102 57.07 59.4502 56.23C58.0002 55.39 56.6402 54.37 55.1202 53.65C53.6002 52.92 51.8602 52.5 50.2402 52.93C48.0402 53.52 46.4802 55.59 45.9102 57.79C45.3402 59.99 45.5802 62.32 45.9302 64.57C46.2702 66.82 46.7002 69.09 46.4902 71.35C46.4602 71.62 46.4102 71.92 46.1702 72.05C45.8302 72.24 45.4402 71.92 45.2002 71.62C42.3902 68.29 40.2402 64.4 38.9202 60.25C38.1502 57.84 37.7302 55.49 38.6502 53.13C39.5702 50.77 42.6702 48.53 44.6302 49.49" fill="#1A2E35"/>
<path d="M42.4805 60.7L46.2005 83.63C46.8905 87.91 49.6805 92.05 56.4005 90.64C62.1405 88.98 61.7105 84.85 60.9705 79.76C60.9705 79.76 60.9905 79.96 60.9705 79.76C60.9705 79.76 67.2805 78.12 66.7205 71.7C66.4505 68.6 65.3605 62.25 64.3205 56.52C63.2005 50.37 57.5305 46.11 51.3105 46.74L50.6905 46.8C44.0605 47.86 41.2505 54.09 42.5005 60.69L42.4805 60.7Z" fill="#FFBF9D"/>
<path d="M60.9604 79.77C60.9604 79.77 56.9404 80.41 52.3604 78.14C52.3604 78.14 54.8804 82.91 61.2204 81.69L60.9604 79.77Z" fill="#FF9A6C"/>
<path d="M63.0514 62.15C63.1214 62.63 62.7614 63.08 62.2614 63.16C61.7614 63.24 61.3014 62.91 61.2314 62.43C61.1614 61.95 61.5214 61.49 62.0214 61.42C62.5214 61.34 62.9814 61.67 63.0514 62.15Z" fill="#1A2E35"/>
<path d="M63.2517 59.82C63.1517 59.95 62.4017 59.51 61.4217 59.61C60.4317 59.7 59.7617 60.28 59.6417 60.17C59.5817 60.12 59.6817 59.89 59.9717 59.63C60.2617 59.37 60.7617 59.1 61.3817 59.04C61.9917 58.98 62.5317 59.16 62.8517 59.36C63.1817 59.56 63.3017 59.77 63.2517 59.83V59.82Z" fill="#1A2E35"/>
<path d="M54.0816 63.57C54.1516 64.05 53.7916 64.5 53.2916 64.58C52.7916 64.66 52.3316 64.33 52.2616 63.85C52.1916 63.37 52.5516 62.91 53.0516 62.84C53.5516 62.76 54.0116 63.09 54.0816 63.57Z" fill="#1A2E35"/>
<path d="M53.7712 60.97C53.6712 61.1 52.9212 60.66 51.9412 60.76C50.9512 60.85 50.2812 61.43 50.1612 61.32C50.1012 61.27 50.2012 61.04 50.4912 60.78C50.7812 60.52 51.2812 60.25 51.9012 60.19C52.5112 60.13 53.0512 60.31 53.3712 60.51C53.7012 60.71 53.8212 60.92 53.7712 60.98V60.97Z" fill="#1A2E35"/>
<path d="M57.8916 67.93C57.8816 67.87 58.4816 67.71 59.4616 67.48C59.7116 67.43 59.9416 67.35 59.9716 67.18C60.0116 66.99 59.8816 66.73 59.7316 66.45C59.4316 65.86 59.1216 65.25 58.7916 64.61C57.4816 61.99 56.5116 59.82 56.6116 59.77C56.7216 59.72 57.8616 61.8 59.1716 64.43C59.4916 65.08 59.7916 65.69 60.0816 66.29C60.2016 66.57 60.4016 66.87 60.3116 67.26C60.2616 67.45 60.0916 67.61 59.9316 67.67C59.7716 67.74 59.6316 67.75 59.5116 67.77C58.5216 67.92 57.9016 67.99 57.8916 67.94V67.93Z" fill="#1A2E35"/>
<path d="M53.4509 57.09C53.3809 57.37 52.3809 57.34 51.2409 57.6C50.0909 57.83 49.1909 58.26 49.0209 58.04C48.9409 57.93 49.0809 57.66 49.4309 57.37C49.7809 57.07 50.3509 56.77 51.0409 56.62C51.7309 56.47 52.3709 56.52 52.8109 56.65C53.2509 56.78 53.4909 56.97 53.4609 57.1L53.4509 57.09Z" fill="#1A2E35"/>
<path d="M62.6007 57C62.4507 57.24 61.7507 57.08 60.9307 57.15C60.1107 57.19 59.4407 57.45 59.2607 57.23C59.1807 57.12 59.2607 56.89 59.5507 56.65C59.8307 56.41 60.3107 56.19 60.8707 56.15C61.4307 56.11 61.9407 56.27 62.2507 56.47C62.5607 56.67 62.6807 56.89 62.6107 57.01L62.6007 57Z" fill="#1A2E35"/>
<path d="M43.4801 65.4C43.3701 65.36 38.9401 64.54 39.5201 68.91C40.1001 73.28 44.3701 71.8 44.3601 71.67C44.3601 71.54 43.4801 65.4 43.4801 65.4Z" fill="#FFBF9D"/>
<path d="M42.8098 70.19C42.8098 70.19 42.7398 70.25 42.6198 70.33C42.4998 70.4 42.2898 70.47 42.0498 70.42C41.5698 70.31 41.0798 69.63 40.9498 68.85C40.8898 68.45 40.9198 68.06 41.0198 67.73C41.1098 67.39 41.2898 67.14 41.5098 67.07C41.7298 66.99 41.9198 67.1 41.9898 67.22C42.0598 67.33 42.0498 67.43 42.0698 67.43C42.0798 67.43 42.1498 67.34 42.0898 67.17C42.0598 67.09 41.9998 66.99 41.8798 66.92C41.7598 66.85 41.5998 66.83 41.4398 66.86C41.1098 66.93 40.8398 67.28 40.7298 67.64C40.5998 68.01 40.5598 68.45 40.6298 68.89C40.7798 69.77 41.3398 70.53 41.9898 70.63C42.3098 70.67 42.5498 70.54 42.6698 70.42C42.7898 70.29 42.7998 70.19 42.7798 70.19H42.8098Z" fill="#FF9A6C"/>
<path d="M63.7901 50.55C63.0901 49.35 61.9701 48.44 60.7901 47.72C58.2301 46.16 55.1901 45.34 52.2101 45.59C49.2201 45.84 46.3101 47.22 44.3601 49.49C42.8001 51.31 41.9001 53.65 41.6101 56.03C41.3201 58.41 41.6301 60.84 42.2801 63.15C42.5701 64.16 42.9601 65.2 43.7601 65.89C44.2601 66.32 45.0701 66.55 45.5501 66.1C45.8301 65.83 45.9001 65.42 45.9601 65.04C46.4601 61.57 46.9301 57.85 45.3601 54.72C46.0901 53.54 46.9601 52.43 48.1001 51.64C49.2401 50.85 50.6701 50.42 52.0301 50.69C54.0501 51.1 55.4401 52.88 57.1301 54.04C59.5501 55.71 62.7901 56.1 65.5401 55.07L63.7901 50.56V50.55Z" fill="#1A2E35"/>
<path d="M58.7606 70.59C58.6906 71 58.6206 71.42 58.4306 71.79C58.2506 72.16 57.9306 72.5 57.5306 72.6C57.1006 72.71 56.6306 72.54 56.3106 72.23C55.9906 71.92 55.8106 71.49 55.7406 71.05C55.6806 70.65 55.7606 70.15 56.1406 70.02C56.3006 69.97 56.4706 70 56.6406 70.02C57.3806 70.15 58.1306 70.29 58.8706 70.42" fill="#FF9A6C"/>
<path d="M58.2907 72.45C58.2707 72.39 57.8507 72.67 57.1707 72.54C56.8407 72.48 56.4507 72.31 56.1807 71.96C55.9207 71.62 55.7707 71.11 55.8707 70.62C55.8907 70.5 55.9407 70.38 55.9807 70.28C56.0407 70.18 56.0307 70.18 56.1207 70.18C56.2107 70.18 56.3607 70.22 56.4807 70.24C56.6007 70.26 56.7307 70.28 56.8507 70.31C57.3307 70.4 57.7607 70.47 58.1207 70.52C58.8507 70.63 59.3008 70.67 59.3108 70.62C59.3207 70.57 58.8807 70.43 58.1707 70.26C57.8107 70.17 57.3907 70.07 56.9207 69.97C56.8007 69.94 56.6808 69.92 56.5608 69.89C56.4308 69.87 56.3308 69.83 56.1508 69.81C56.0608 69.81 55.9507 69.81 55.8507 69.88C55.7507 69.95 55.7007 70.03 55.6607 70.11C55.5907 70.25 55.5407 70.39 55.5107 70.55C55.3907 71.16 55.5707 71.77 55.9207 72.18C56.2707 72.6 56.7507 72.77 57.1407 72.81C57.5307 72.85 57.8507 72.75 58.0407 72.66C58.2307 72.56 58.3107 72.47 58.3007 72.46L58.2907 72.45Z" fill="#1A2E35"/>
<path d="M80.1499 55.62L77.7199 60.25C77.7199 60.25 76.8799 60.7 75.9399 61.19C75.5699 61.37 75.1899 61.56 74.8299 61.74C73.5599 62.36 68.8699 62.29 68.8699 62.29C68.8699 62.29 65.4099 61.9 64.9599 61.69L64.8199 59.99L67.8599 60.03L67.9499 58.71L65.7199 58.11C65.7199 58.11 64.6599 58.59 61.8599 58.62C59.0599 58.65 59.0899 57.15 59.0899 57.15C59.0899 57.15 62.0199 56.91 61.8099 56.83C61.6099 56.76 61.2299 55.66 61.2299 55.66L65.8699 54.13C64.6999 54.54 64.5999 53.03 64.5999 53.03L69.0299 51.38L72.9299 53.23L74.5799 53.69L80.1499 55.62Z" fill="#FFBF9D"/>
<path d="M70.4003 54.47C70.4003 54.47 70.1303 54.38 69.7303 54.19C69.3303 53.99 68.7603 53.77 68.1503 53.35H68.3503C68.2903 53.39 68.2303 53.43 68.1703 53.47C67.5203 53.88 66.8403 54.08 66.3403 54.14C65.8403 54.2 65.5403 54.16 65.5303 54.11C65.5203 54.01 66.7503 53.96 67.9803 53.17C68.0403 53.13 68.0903 53.1 68.1503 53.06L68.2503 52.99L68.3503 53.06C68.8903 53.44 69.4603 53.72 69.8303 53.97C70.2103 54.21 70.4103 54.42 70.3803 54.45L70.4003 54.47Z" fill="#FF9A6C"/>
<path d="M68.97 56.83C68.97 56.83 68.67 56.94 68.22 56.75C67.76 56.58 67.27 56.1 66.64 55.81H66.8C66.53 55.98 66.23 56.15 65.91 56.31C64.99 56.75 64.06 56.91 63.4 56.93C62.74 56.95 62.33 56.86 62.34 56.81C62.34 56.7 63.99 56.84 65.76 56C66.07 55.85 66.36 55.69 66.62 55.53L66.7 55.48L66.78 55.52C67.5 55.88 67.92 56.38 68.32 56.57C68.7 56.79 68.98 56.79 68.98 56.84L68.97 56.83Z" fill="#FF9A6C"/>
<path d="M73.1208 58.28C73.1008 58.34 72.7808 58.23 72.2508 58.24C71.7308 58.24 70.9908 58.39 70.3208 58.82C69.9108 59.09 69.5808 59.43 69.3708 59.76L69.3308 59.82H69.2708C68.3308 60.01 67.6908 60.09 67.6808 60.02C67.6708 59.96 68.2808 59.76 69.2108 59.53L69.1108 59.6C69.3308 59.22 69.6808 58.82 70.1408 58.52C70.8808 58.04 71.7108 57.92 72.2708 57.99C72.8408 58.05 73.1508 58.24 73.1308 58.28H73.1208Z" fill="#FF9A6C"/>
<path d="M77.7199 60.24C77.7199 60.24 77.6799 60.28 77.5799 60.33C77.4699 60.39 77.3299 60.47 77.1599 60.57C76.7599 60.79 76.2199 61.08 75.5399 61.45C75.1899 61.63 74.8099 61.89 74.3099 62C73.8299 62.12 73.2999 62.19 72.7299 62.25C71.5899 62.36 70.2999 62.41 68.8599 62.41H68.8499C68.2999 62.35 67.7099 62.29 67.1099 62.23C66.4899 62.14 65.8899 62.11 65.1999 61.9L65.1299 61.88V61.79C65.0199 61.21 64.9199 60.57 64.8099 59.92L64.7799 59.74H64.9699C65.8799 59.78 66.8499 59.82 67.8599 59.86L67.6899 60.01C67.7199 59.6 67.7499 59.14 67.7799 58.68L67.8999 58.85C67.1999 58.66 66.4399 58.46 65.6699 58.26H65.7799C64.6999 58.63 63.5799 58.71 62.4299 58.76C61.8599 58.78 61.2599 58.79 60.6699 58.67C60.0899 58.56 59.4399 58.3 59.0899 57.71C58.9999 57.53 58.9299 57.36 58.9199 57.13V56.97L59.0799 56.96C59.7699 56.9 60.4599 56.84 61.1399 56.76C61.3099 56.74 61.4799 56.72 61.6399 56.69L61.7499 56.67C61.7499 56.67 61.7599 56.66 61.7099 56.7C61.6699 56.74 61.6599 56.81 61.6699 56.85C61.6599 56.91 61.7899 56.99 61.7699 56.97C61.7299 56.95 61.6699 56.92 61.6599 56.9C61.5699 56.81 61.5299 56.73 61.4799 56.65C61.3099 56.33 61.1899 56.02 61.0799 55.7L61.0199 55.54L61.1899 55.48C62.7899 54.95 64.3499 54.44 65.8399 53.96L65.9499 54.27C65.7699 54.32 65.5699 54.38 65.3699 54.33C65.1699 54.3 64.9699 54.18 64.8499 54.03C64.5999 53.72 64.5199 53.37 64.4799 53.02V52.9L64.5799 52.86C66.1499 52.28 67.6299 51.74 69.0199 51.23L69.0799 51.21L69.1299 51.24C70.5399 51.92 71.8399 52.55 73.0099 53.11H72.9899C73.5599 53.27 74.0999 53.42 74.6199 53.57C75.1199 53.75 75.5899 53.92 76.0399 54.07C76.9099 54.38 77.6699 54.65 78.2899 54.88C78.8799 55.1 79.3499 55.27 79.6999 55.4C80.0199 55.52 80.1899 55.59 80.1799 55.6C80.1799 55.61 79.9999 55.56 79.6799 55.46C79.3199 55.35 78.8499 55.19 78.2499 55C77.6199 54.79 76.8599 54.54 75.9799 54.24C75.5399 54.09 75.0599 53.93 74.5599 53.76C74.0499 53.62 73.4999 53.47 72.9299 53.32C71.7499 52.77 70.4399 52.16 69.0299 51.49H69.1399C67.7599 52.01 66.2799 52.57 64.7199 53.16L64.8199 53C64.8499 53.29 64.9399 53.61 65.1199 53.82C65.2999 54.03 65.5799 54.06 65.8699 53.96L65.9799 54.27C64.4899 54.76 62.9399 55.28 61.3399 55.81L61.4499 55.59C61.5599 55.89 61.6799 56.21 61.8299 56.49C61.8699 56.56 61.9099 56.63 61.9399 56.66C61.9399 56.66 61.9099 56.71 61.8999 56.74C61.9599 56.57 61.9199 56.69 61.9399 56.66C61.9599 56.66 61.9699 56.68 61.9899 56.69C62.0199 56.72 62.0399 56.76 62.0499 56.79C62.0599 56.83 62.0499 56.91 61.9999 56.95C61.9499 57 61.9599 56.98 61.9499 56.99C61.9199 57 61.8999 57.01 61.8899 57.01C61.8299 57.03 61.7899 57.03 61.7499 57.04C61.5699 57.07 61.4099 57.09 61.2299 57.11C60.5499 57.19 59.8599 57.25 59.1599 57.31L59.3199 57.14C59.3199 57.25 59.3799 57.41 59.4499 57.54C59.7099 57.99 60.2599 58.23 60.7999 58.33C61.3499 58.44 61.9099 58.43 62.4799 58.41C63.5999 58.36 64.7399 58.27 65.6999 57.94L65.7599 57.92H65.8099C66.5799 58.14 67.3399 58.34 68.0399 58.53L68.1699 58.57V58.7C68.1299 59.16 68.0999 59.61 68.0699 60.03V60.19H67.8999C66.8999 60.14 65.9299 60.1 65.0099 60.06L65.1699 59.88C65.2699 60.53 65.3699 61.17 65.4599 61.75L65.3799 61.64C65.9399 61.81 66.6099 61.87 67.1999 61.96C67.7999 62.03 68.3799 62.09 68.9299 62.16C70.3599 62.18 71.6499 62.15 72.7799 62.05C73.3399 62 73.8699 61.94 74.3299 61.83C74.7899 61.74 75.1699 61.49 75.5299 61.32C76.2199 60.98 76.7699 60.71 77.1799 60.5C77.3499 60.42 77.4999 60.35 77.6099 60.3C77.7099 60.26 77.7599 60.24 77.7599 60.24H77.7199Z" fill="#FF9A6C"/>
<path d="M72.1206 55.21C72.1906 55.27 71.5206 56.17 70.4006 56.96C69.2906 57.76 68.2206 58.1 68.1906 58.01C68.1506 57.92 69.1306 57.44 70.2006 56.67C71.2806 55.91 72.0506 55.14 72.1206 55.21Z" fill="#FF9A6C"/>
<path d="M104.73 77.66L91.7701 76.57L76.4901 82.39L73.1201 84.44L77.9001 100.77C77.9001 100.77 101.85 86.66 102.87 85.45C106.01 81.73 104.73 77.67 104.73 77.67V77.66Z" fill="#FFF1E6"/>
<path d="M35.5401 89.67L31.0801 92.44L41.3701 132.95L40.4901 149.58C43.1501 151.9 51.0401 155.28 63.7701 154.56C76.5001 153.84 81.9901 149 81.9901 149L81.5901 129.6L78.7001 102.49L75.4201 83.96L65.6201 84.67L61.8001 82.41L60.0901 83.27L57.8901 89.36L52.1701 85.23L45.4801 82.01L43.0401 86.57L35.5301 89.69L35.5401 89.67Z" fill="#FFF1E6"/>
<path d="M75.4303 88.66C75.4303 88.66 75.5803 88.97 75.7803 89.56C75.9903 90.15 76.2603 91.01 76.5803 92.07C77.2103 94.2 77.9602 97.19 78.5602 100.54C79.1502 103.89 79.4803 106.95 79.6203 109.17C79.6903 110.28 79.7302 111.18 79.7403 111.8C79.7403 112.42 79.7403 112.77 79.7203 112.77C79.7003 112.77 79.6603 112.43 79.6003 111.81C79.5403 111.13 79.4603 110.25 79.3703 109.19C79.1603 106.98 78.8003 103.93 78.2103 100.6C77.6203 97.27 76.9003 94.28 76.3303 92.14C76.0503 91.12 75.8203 90.26 75.6403 89.6C75.4703 89 75.3903 88.67 75.4203 88.66H75.4303Z" fill="#1A2E35"/>
<path d="M56.0808 88.99C56.0808 88.99 55.7308 88.94 55.1608 88.65C54.6008 88.36 53.8108 87.84 53.1308 86.92L53.3708 86.85C53.2708 88.46 52.9308 90.54 52.1808 92.7L52.1008 92.92L51.9108 92.79C51.7608 92.69 51.6008 92.58 51.4408 92.47C49.1408 90.88 47.0608 89.43 45.5708 88.36C44.8708 87.85 44.2908 87.43 43.8108 87.08C43.4008 86.77 43.1808 86.59 43.1908 86.57C43.2008 86.55 43.4508 86.69 43.8808 86.97C44.3708 87.29 44.9808 87.69 45.7008 88.16C47.2308 89.18 49.3208 90.6 51.6308 92.19C51.7908 92.3 51.9508 92.41 52.1008 92.51L51.8408 92.6C52.5908 90.47 52.9508 88.42 53.1008 86.84L53.1308 86.48L53.3408 86.78C53.9608 87.67 54.7008 88.22 55.2208 88.54C55.7508 88.86 56.0808 88.98 56.0708 89.01L56.0808 88.99Z" fill="#1A2E35"/>
<path d="M65.2403 85.4C65.2903 85.45 64.3903 86.47 63.0603 87.87L62.9403 88L62.8203 87.86C62.4003 87.38 61.9203 86.87 61.3603 86.39C61.0803 86.15 60.8103 85.92 60.5303 85.71C60.3903 85.61 60.2603 85.51 60.1203 85.41C60.0603 85.37 60.0303 85.37 60.0403 85.37C60.0403 85.37 60.0103 85.4 59.9803 85.47C59.7603 86.04 59.5503 86.57 59.3503 87.06C58.9803 87.96 58.7303 88.52 58.6903 88.5C58.6403 88.48 58.8103 87.9 59.1203 86.98C59.2903 86.48 59.4803 85.94 59.6803 85.36C59.7103 85.28 59.7503 85.15 59.9103 85.08C60.0803 85.01 60.2203 85.09 60.3003 85.14C60.4503 85.24 60.5903 85.34 60.7303 85.44C61.0203 85.65 61.3003 85.88 61.5903 86.13C62.1603 86.63 62.6503 87.15 63.0603 87.66H62.8203C64.1903 86.28 65.1803 85.35 65.2303 85.4H65.2403Z" fill="#1A2E35"/>
<path d="M62.58 158.14C68.08 157.1 73.94 157.71 79.39 160.24C86.1 163.36 91.2 168.92 93.74 175.87C96.28 182.83 95.95 190.36 92.83 197.07C86.38 210.93 69.86 216.96 56 210.51C49.29 207.38 44.19 201.83 41.65 194.88C39.11 187.92 39.44 180.39 42.56 173.68C46.47 165.27 54.1 159.75 62.58 158.14ZM72.46 210.79C80.38 209.29 87.49 204.14 91.14 196.29C94.06 190.03 94.36 183 91.99 176.51C89.62 170.02 84.87 164.84 78.6 161.92C72.34 159 65.31 158.7 58.82 161.07C52.33 163.44 47.15 168.19 44.23 174.46C41.31 180.72 41.01 187.75 43.38 194.24C45.75 200.73 50.5 205.91 56.77 208.83C61.85 211.2 67.33 211.76 72.46 210.79Z" fill="#F15B57"/>
<path d="M67.6601 214.44C63.4901 214.44 59.33 213.53 55.44 211.72C48.4 208.44 43.06 202.62 40.4 195.33C37.74 188.04 38.08 180.15 41.35 173.11C45.29 164.65 53.13 158.56 62.34 156.82C68.34 155.69 74.43 156.45 79.97 159.02C87.01 162.3 92.35 168.12 95.01 175.41C97.67 182.7 97.33 190.6 94.06 197.63C90.79 204.66 84.97 209.99 77.67 212.66C74.41 213.85 71.04 214.44 67.67 214.44H67.6601ZM67.72 160.83C64.88 160.83 62.04 161.33 59.3 162.33C53.14 164.58 48.23 169.08 45.47 175.02C42.71 180.96 42.42 187.62 44.66 193.78C46.9 199.94 51.41 204.85 57.35 207.61C62.02 209.78 67.16 210.43 72.22 209.47C79.99 208 86.61 202.86 89.94 195.72C92.7 189.78 92.99 183.12 90.75 176.96C88.51 170.8 84 165.89 78.06 163.13C74.77 161.6 71.25 160.83 67.72 160.83Z" fill="#F15B57"/>
<path d="M0.260342 158.29L0.510342 157.69C1.04034 156.4 2.19034 155.64 3.08034 156.01L43.5903 172.49C43.7903 172.57 43.8603 172.87 43.7403 173.16L42.0103 177.4C41.8903 177.69 41.6403 177.86 41.4403 177.78L0.930342 161.29C0.0303421 160.93 -0.259658 159.58 0.260342 158.29Z" fill="#F15B57"/>
<path d="M38.1012 111.64L33.2312 127.76L35.6712 160.61L28.4912 161.52C28.4912 161.52 20.2512 133.52 21.0812 128.5C21.9012 123.47 25.2312 108.71 25.2312 108.71L38.1112 111.64H38.1012Z" fill="#FFBF9D"/>
<path d="M35.6507 160.38L39.0007 166.09L41.0907 171.46L37.9307 170.22C37.9307 170.22 36.5807 176.68 36.0507 176.85C35.5207 177.02 34.0007 176.49 34.1507 175.25C34.1507 175.25 33.3907 176.01 32.4407 175.81C31.4907 175.61 31.2707 175 31.3707 173.82C31.3707 173.82 30.2607 174.72 29.6007 174.16C28.9407 173.6 29.0007 172.62 29.0007 172.62C29.0007 172.62 27.5607 172.74 27.3607 172C27.1607 171.25 27.1107 169.12 27.2807 168.31C27.4507 167.5 28.1407 164.18 28.1407 164.18L28.4707 161.51L35.6407 160.37L35.6507 160.38Z" fill="#FFBF9D"/>
<path d="M34.8611 171.54C34.7811 171.52 34.5511 172.35 34.3611 173.38C34.1611 174.41 34.0711 175.26 34.1511 175.27C34.2311 175.29 34.4611 174.46 34.6511 173.43C34.8511 172.4 34.9411 171.55 34.8611 171.54Z" fill="#FF9A6C"/>
<path d="M31.9309 170.79C31.8509 170.77 31.6509 171.43 31.4809 172.25C31.3109 173.07 31.2509 173.76 31.3309 173.77C31.4109 173.79 31.6109 173.13 31.7809 172.31C31.9509 171.49 32.0109 170.8 31.9309 170.79Z" fill="#FF9A6C"/>
<path d="M29.4909 170.1C29.4009 170.1 29.3309 170.68 29.2309 171.37C29.1209 172.06 28.9409 172.6 29.0209 172.64C29.0909 172.67 29.4009 172.15 29.5309 171.42C29.6409 170.69 29.5709 170.11 29.5009 170.1H29.4909Z" fill="#FF9A6C"/>
<path d="M38.1707 168.36C38.0907 168.35 37.8807 169.16 37.6307 170.15C37.3907 171.15 37.2107 171.97 37.2907 171.99C37.3707 172.01 37.6807 171.23 37.9207 170.22C38.1607 169.21 38.2407 168.37 38.1607 168.36H38.1707Z" fill="#FF9A6C"/>
<path d="M28.0008 161.52C28.0008 160.97 18.4208 131.15 19.1108 127.18C19.7908 123.21 27.9608 96.4 29.0508 94.48C30.1408 92.56 32.5408 91.53 32.5408 91.53C32.5408 91.53 37.4008 93.8 39.0408 99.68C40.6808 105.56 40.6808 112.95 40.6808 112.95L34.1108 129.23L35.6708 160.61L28.0008 161.52Z" fill="#FFF1E6"/>
<path d="M40.25 112.41C40.18 112.41 40.31 111.21 40.25 109.28C40.22 108.32 40.12 107.17 39.93 105.91C39.72 104.65 39.42 103.29 38.98 101.88C38.53 100.48 37.99 99.19 37.44 98.04C36.87 96.9 36.3 95.9 35.77 95.1C34.71 93.49 33.92 92.58 33.97 92.54C33.99 92.52 34.2 92.74 34.56 93.15C34.93 93.55 35.42 94.17 35.97 94.97C36.53 95.76 37.13 96.76 37.73 97.9C38.3 99.05 38.86 100.36 39.32 101.78C39.76 103.2 40.06 104.59 40.25 105.86C40.43 107.14 40.51 108.3 40.5 109.27C40.5 110.24 40.46 111.03 40.39 111.57C40.33 112.11 40.28 112.41 40.26 112.4L40.25 112.41Z" fill="#1A2E35"/>
<path d="M39.8307 115.82C39.8307 115.82 39.6307 116.62 39.1507 117.85C38.6807 119.08 37.9607 120.76 37.1307 122.6C36.3307 124.39 35.6007 126 35.0207 127.3C34.4907 128.51 34.1607 129.25 34.1107 129.24C34.0707 129.22 34.3107 128.44 34.7907 127.21C35.2607 125.98 35.9807 124.3 36.8107 122.46C37.6107 120.67 38.3407 119.06 38.9207 117.76C39.4507 116.55 39.7807 115.81 39.8307 115.82Z" fill="#1A2E35"/>
<path d="M34.4902 129.86C34.4302 129.96 32.6002 128.67 29.9902 127.9C27.3902 127.1 25.1502 127.16 25.1602 127.05C25.1602 127.01 25.7102 126.94 26.6202 126.97C27.5202 127 28.7702 127.17 30.0902 127.56C31.4102 127.96 32.5402 128.51 33.3102 128.98C34.0802 129.45 34.5102 129.81 34.4802 129.85L34.4902 129.86Z" fill="#1A2E35"/>
<path d="M77.2202 175.97C77.2802 176.04 72.0102 180.66 65.4402 186.28C58.8702 191.9 53.4902 196.4 53.4302 196.33C53.3702 196.26 58.6402 191.64 65.2102 186.02C71.7802 180.4 77.1602 175.9 77.2202 175.97Z" fill="white"/>
<path d="M84.0101 175.97C84.0701 176.04 79.6301 179.97 74.0901 184.73C68.5501 189.5 64.0001 193.3 63.9401 193.23C63.8801 193.16 68.3201 189.24 73.8601 184.47C79.4001 179.71 83.9501 175.9 84.0101 175.98V175.97Z" fill="white"/>
<path d="M94.0002 185.37C94.0002 185.37 93.9802 185.23 93.9602 184.94C93.9402 184.65 93.9102 184.23 93.8802 183.69C93.8602 183.41 93.8502 183.11 93.8302 182.77C93.7902 182.43 93.7202 182.07 93.6602 181.67C93.6002 181.27 93.5302 180.85 93.4602 180.39C93.4102 179.93 93.2302 179.46 93.1202 178.96C92.6602 176.93 91.7102 174.53 90.2102 171.98C88.7002 169.45 86.5202 166.8 83.5502 164.55C83.1802 164.27 82.8002 163.99 82.4202 163.71C82.0202 163.45 81.6002 163.21 81.1902 162.96C80.7702 162.72 80.3702 162.43 79.9102 162.22C79.4602 162.01 79.0102 161.79 78.5502 161.57C78.3202 161.46 78.0902 161.35 77.8602 161.24C77.6202 161.15 77.3802 161.06 77.1302 160.98C76.6402 160.8 76.1502 160.62 75.6602 160.44C75.1602 160.27 74.6402 160.17 74.1202 160.03C73.6002 159.91 73.0802 159.73 72.5402 159.67C71.4602 159.52 70.3702 159.29 69.2302 159.29C68.6702 159.27 68.1002 159.22 67.5302 159.22C66.9602 159.25 66.3802 159.28 65.8002 159.31C65.5102 159.33 65.2202 159.33 64.9302 159.37L64.0602 159.5C63.4802 159.6 62.8902 159.66 62.3002 159.79C61.1502 160.1 59.9502 160.34 58.8102 160.81C57.6402 161.19 56.5302 161.76 55.4002 162.31C54.8502 162.61 54.3202 162.96 53.7702 163.28C53.5002 163.45 53.2202 163.6 52.9602 163.79L52.1902 164.37C51.1302 165.1 50.2002 166.01 49.2302 166.89C48.3502 167.86 47.4302 168.81 46.6702 169.92L46.0702 170.72L45.5402 171.58L45.0102 172.45C44.8302 172.74 44.6602 173.03 44.5202 173.34C44.2302 173.95 43.9302 174.57 43.6302 175.18C43.3902 175.82 43.1602 176.47 42.9202 177.12C42.0702 179.74 41.6102 182.53 41.5702 185.36C41.6102 188.2 42.0602 190.98 42.9202 193.61C43.1602 194.26 43.3902 194.9 43.6302 195.55C43.9302 196.17 44.2202 196.78 44.5202 197.39L44.7402 197.85L45.0002 198.28L45.5302 199.15L46.0602 200.01L46.6602 200.81C47.4202 201.91 48.3402 202.87 49.2202 203.84C50.1902 204.72 51.1202 205.63 52.1802 206.36L52.9502 206.94C53.2002 207.13 53.4902 207.28 53.7602 207.45C54.3102 207.77 54.8402 208.12 55.3902 208.42C56.5202 208.96 57.6302 209.54 58.8002 209.92C59.9402 210.39 61.1302 210.63 62.2902 210.94C62.8802 211.06 63.4702 211.13 64.0502 211.23L64.9202 211.36C65.2102 211.4 65.5002 211.4 65.7902 211.42C66.3702 211.45 66.9502 211.48 67.5202 211.51C68.0902 211.51 68.6602 211.46 69.2202 211.44C70.3502 211.44 71.4502 211.21 72.5302 211.06C73.0802 211 73.5902 210.82 74.1102 210.7C74.6302 210.56 75.1502 210.45 75.6502 210.29C76.1502 210.11 76.6402 209.93 77.1202 209.75C77.3602 209.66 77.6102 209.57 77.8502 209.49C78.0802 209.38 78.3102 209.27 78.5402 209.16C79.0002 208.94 79.4502 208.72 79.9002 208.51C80.3502 208.3 80.7502 208.01 81.1802 207.77C81.5902 207.51 82.0102 207.28 82.4102 207.02C82.7902 206.74 83.1702 206.45 83.5402 206.18C86.5102 203.93 88.6902 201.29 90.2002 198.75C91.7002 196.21 92.6502 193.81 93.1102 191.77C93.2302 191.26 93.4002 190.8 93.4502 190.34C93.5202 189.88 93.5902 189.46 93.6502 189.06C93.7102 188.66 93.7802 188.3 93.8202 187.96C93.8402 187.62 93.8602 187.32 93.8702 187.04C93.9002 186.5 93.9302 186.09 93.9502 185.79C93.9702 185.51 93.9902 185.36 93.9902 185.36C93.9902 185.36 93.9902 185.5 93.9902 185.79C93.9802 186.08 93.9602 186.5 93.9402 187.04C93.9302 187.32 93.9202 187.62 93.9002 187.96C93.8702 188.3 93.8002 188.67 93.7502 189.06C93.6902 189.46 93.6302 189.89 93.5602 190.35C93.5102 190.81 93.3402 191.28 93.2302 191.79C92.7802 193.84 91.8502 196.26 90.3502 198.83C88.8402 201.39 86.6602 204.07 83.6702 206.35C83.2902 206.63 82.9102 206.92 82.5302 207.21C82.1302 207.48 81.7102 207.72 81.2902 207.98C80.8602 208.22 80.4602 208.52 80.0002 208.73C79.5502 208.95 79.0902 209.17 78.6302 209.39C78.4002 209.5 78.1702 209.61 77.9302 209.72C77.6902 209.81 77.4402 209.9 77.2002 209.99C76.7102 210.17 76.2102 210.35 75.7102 210.54C75.2102 210.71 74.6802 210.82 74.1502 210.96C73.6202 211.08 73.1002 211.27 72.5502 211.33C71.4602 211.49 70.3502 211.72 69.2102 211.73C68.6402 211.75 68.0702 211.81 67.4902 211.8C66.9102 211.77 66.3302 211.74 65.7402 211.71C65.4502 211.69 65.1502 211.69 64.8602 211.65L63.9802 211.52C63.3902 211.42 62.7902 211.36 62.2002 211.23C61.0302 210.92 59.8202 210.68 58.6702 210.2C57.4802 209.82 56.3602 209.24 55.2202 208.69C54.6602 208.39 54.1202 208.04 53.5702 207.71C53.3002 207.54 53.0102 207.39 52.7502 207.19L51.9702 206.61C50.8902 205.87 49.9502 204.95 48.9602 204.06C48.0702 203.08 47.1302 202.11 46.3602 200.99L45.7502 200.18L45.2202 199.31L44.6902 198.43L44.4202 197.99L44.1902 197.53C43.8902 196.91 43.5902 196.29 43.2902 195.66C43.0502 195.01 42.8102 194.35 42.5702 193.7C41.7102 191.04 41.2402 188.22 41.2002 185.34C41.2402 182.47 41.7002 179.64 42.5702 176.99C42.8102 176.33 43.0502 175.68 43.2902 175.03C43.5902 174.41 43.8902 173.78 44.1902 173.16C44.3302 172.84 44.5002 172.55 44.6802 172.26L45.2102 171.38L45.7402 170.51L46.3502 169.7C47.1202 168.58 48.0602 167.62 48.9502 166.63C49.9402 165.74 50.8802 164.82 51.9602 164.08L52.7402 163.5C53.0002 163.3 53.2902 163.16 53.5602 162.98C54.1102 162.65 54.6502 162.3 55.2102 162C56.3602 161.45 57.4802 160.87 58.6602 160.49C59.8102 160.01 61.0202 159.78 62.1902 159.46C62.7802 159.34 63.3802 159.27 63.9702 159.17L64.8502 159.04C65.1402 159 65.4402 159 65.7302 158.98C66.3202 158.95 66.9002 158.92 67.4802 158.89C68.0602 158.89 68.6302 158.94 69.2002 158.96C70.3502 158.96 71.4502 159.2 72.5402 159.36C73.0902 159.42 73.6102 159.61 74.1402 159.73C74.6602 159.87 75.1902 159.98 75.7002 160.15C76.2002 160.33 76.7002 160.52 77.1902 160.7C77.4402 160.79 77.6802 160.88 77.9202 160.97C78.1502 161.08 78.3902 161.19 78.6202 161.3C79.0802 161.52 79.5402 161.74 79.9902 161.96C80.4502 162.17 80.8502 162.47 81.2802 162.71C81.7002 162.97 82.1202 163.21 82.5202 163.48C82.9002 163.77 83.2802 164.05 83.6602 164.34C86.6502 166.62 88.8302 169.3 90.3402 171.86C91.8302 174.43 92.7702 176.86 93.2202 178.9C93.3302 179.41 93.5002 179.88 93.5502 180.34C93.6202 180.8 93.6802 181.23 93.7402 181.63C93.7902 182.03 93.8602 182.4 93.8902 182.73C93.9002 183.07 93.9202 183.38 93.9302 183.65C93.9502 184.19 93.9702 184.61 93.9802 184.9C93.9802 185.18 93.9802 185.33 93.9802 185.33L94.0002 185.37Z" fill="#1A2E35"/>
<path d="M84.29 199.34C84.29 199.34 84.52 199.01 84.95 198.44C85.38 197.87 85.98 197.03 86.62 195.93C87.91 193.75 89.31 190.44 89.72 186.57C90.13 182.7 89.45 179.17 88.63 176.77C88.23 175.56 87.82 174.61 87.51 173.97C87.21 173.32 87.03 172.97 87.05 172.96C87.06 172.96 87.12 173.04 87.22 173.2C87.32 173.36 87.47 173.6 87.63 173.92C87.97 174.55 88.42 175.49 88.86 176.7C89.74 179.1 90.47 182.68 90.06 186.61C89.65 190.54 88.19 193.89 86.83 196.06C86.15 197.15 85.52 197.98 85.05 198.53C84.82 198.81 84.62 199.01 84.5 199.14C84.37 199.28 84.3 199.34 84.29 199.34Z" fill="#1A2E35"/>
<path d="M82.9001 201.74C82.9501 201.82 82.7401 202.03 82.4401 202.2C82.1401 202.37 81.8501 202.45 81.8101 202.36C81.7601 202.28 81.9701 202.07 82.2701 201.9C82.5701 201.73 82.8601 201.65 82.9001 201.74Z" fill="#1A2E35"/>
<path d="M48.4004 196.64C48.4004 196.64 48.3304 196.54 48.2404 196.33C48.1504 196.12 48.0004 195.81 47.8504 195.4C47.5304 194.58 47.1304 193.37 46.7904 191.83C46.1004 188.77 45.8204 184.29 47.0804 179.61C48.3404 174.93 50.8404 171.2 52.9804 168.9C54.0504 167.74 55.0004 166.89 55.7004 166.35C56.0404 166.07 56.3204 165.88 56.5104 165.74C56.7004 165.61 56.8004 165.54 56.8104 165.55C56.8304 165.57 56.4504 165.88 55.7904 166.45C55.1304 167.02 54.2004 167.89 53.1704 169.06C51.1004 171.38 48.6704 175.08 47.4304 179.69C46.1804 184.3 46.4204 188.72 47.0404 191.77C47.3404 193.3 47.7004 194.52 47.9904 195.35C48.2704 196.18 48.4504 196.63 48.4204 196.64H48.4004Z" fill="white"/>
<path d="M63.9308 163.84C63.9308 163.94 63.2408 164.07 62.3808 164.14C61.5208 164.21 60.8108 164.19 60.8008 164.1C60.8008 164 61.4908 163.87 62.3508 163.8C63.2108 163.73 63.9208 163.75 63.9308 163.84Z" fill="white"/>
<path d="M354.401 153.52V85.33H317.371L274.011 153.52V176.25H326.411V193.08H354.401V176.25H366.821V153.52H354.401ZM302.851 153.52V152.68L326.201 115.64H327.041V153.52H302.851Z" fill="#F15B57"/>
<path d="M425.951 196.02C416.161 195.98 407.711 193.72 400.591 189.23C393.471 184.74 387.981 178.27 384.121 169.82C380.261 161.37 378.351 151.23 378.391 139.41C378.431 127.55 380.361 117.49 384.201 109.21C388.041 100.93 393.511 94.64 400.621 90.32C407.721 86.01 416.171 83.85 425.951 83.85C435.731 83.85 444.191 86.02 451.311 90.35C458.431 94.68 463.921 100.99 467.781 109.26C471.641 117.54 473.551 127.59 473.521 139.41C473.521 151.3 471.591 161.47 467.731 169.92C463.871 178.37 458.391 184.84 451.291 189.31C444.191 193.78 435.741 196.02 425.961 196.02H425.951ZM425.951 172.24C431.001 172.24 435.151 169.6 438.391 164.32C441.631 159.04 443.241 150.74 443.201 139.41C443.201 132.01 442.461 125.96 440.991 121.26C439.521 116.56 437.481 113.08 434.891 110.82C432.291 108.56 429.311 107.43 425.951 107.43C420.901 107.43 416.781 109.99 413.591 115.11C410.401 120.23 408.771 128.33 408.701 139.42C408.661 146.96 409.381 153.16 410.861 158.02C412.331 162.88 414.381 166.46 416.991 168.78C419.601 171.09 422.591 172.25 425.961 172.25L425.951 172.24Z" fill="#F15B57"/>
<path d="M566.521 153.52V85.33H529.491L486.141 153.52V176.25H538.541V193.08H566.521V176.25H578.941V153.52H566.521ZM514.971 153.52V152.68L538.331 115.64H539.171V153.52H514.971Z" fill="#F15B57"/>
<path d="M303.11 77.65L278.65 68.34C276.96 67.7 276.11 65.8 276.76 64.11L289.65 30.26C290.29 28.57 292.19 27.72 293.88 28.37L309.39 34.28L316.68 51.23L307.34 75.77C306.7 77.46 304.8 78.31 303.11 77.66V77.65Z" fill="#FDE5D7"/>
<path d="M309.39 34.28L305.76 43.81C305.16 45.38 305.95 47.14 307.52 47.74L316.68 51.23L309.39 34.28Z" fill="#E1E1E1"/>
<path d="M303.861 42.63C303.811 42.75 301.241 41.89 298.121 40.7C295.001 39.51 292.501 38.45 292.551 38.32C292.601 38.2 295.171 39.06 298.291 40.25C301.411 41.44 303.911 42.5 303.861 42.63Z" fill="white"/>
<path d="M309.111 50.8C309.061 50.92 304.861 49.43 299.721 47.48C294.581 45.52 290.451 43.83 290.491 43.71C290.541 43.59 294.741 45.08 299.891 47.03C305.031 48.99 309.161 50.67 309.121 50.8H309.111Z" fill="white"/>
<path d="M309.071 55.94C309.021 56.06 304.441 54.43 298.841 52.3C293.231 50.16 288.731 48.34 288.771 48.21C288.821 48.09 293.401 49.72 299.001 51.85C304.601 53.98 309.111 55.81 309.061 55.94H309.071Z" fill="white"/>
<path d="M307.46 60.18C307.41 60.3 302.83 58.67 297.23 56.54C291.62 54.4 287.12 52.58 287.16 52.45C287.21 52.33 291.79 53.96 297.39 56.09C302.99 58.22 307.5 60.05 307.45 60.18H307.46Z" fill="white"/>
<path d="M305.84 64.43C305.79 64.55 301.21 62.92 295.61 60.79C290 58.65 285.5 56.83 285.54 56.7C285.59 56.58 290.17 58.21 295.77 60.34C301.37 62.47 305.88 64.3 305.83 64.43H305.84Z" fill="white"/>
<path d="M304.231 68.67C304.181 68.79 299.601 67.16 294.001 65.03C288.391 62.89 283.891 61.07 283.931 60.94C283.981 60.82 288.561 62.45 294.161 64.58C299.761 66.71 304.271 68.54 304.221 68.67H304.231Z" fill="white"/>
<path d="M104.84 78.15L91.7704 76.57L75.9404 61.19C76.8804 60.7 77.7204 60.25 77.7204 60.25L80.1504 55.62C80.1504 55.62 80.7904 55.83 81.6504 56.52C85.1304 59.28 95.4004 64.65 99.7904 69.15C104.71 74.19 104.84 78.15 104.84 78.15Z" fill="#FFF1E6"/>
<path d="M81.9805 149C81.9805 149 77.5005 152.95 67.2305 154.25V150.31C76.7305 149.12 81.2705 145.65 81.9005 145.14L81.9805 149Z" fill="#231F20"/>
<path d="M60.5707 150.73V154.66C49.7007 154.71 42.9007 151.7 40.4707 149.58L40.6707 145.81C43.2507 147.92 49.9607 150.78 60.5707 150.73Z" fill="#231F20"/>
<path d="M67.2303 150.31V154.25C66.1403 154.38 64.9803 154.49 63.7503 154.56C62.6503 154.62 61.6003 154.66 60.5703 154.66V150.73C61.5903 150.72 62.6503 150.69 63.7503 150.63C64.9803 150.56 66.1403 150.45 67.2303 150.31Z" fill="#C68158"/>
<path d="M53.34 87.18C54.23 88.25 56.5499 89.41 56.5499 89.41L58.8699 88.67C58.8699 88.67 59.91 85.9 60 85.48C60 85.48 60.25 85.24 60.4 85.48C60.55 85.72 61.9799 86.66 61.9799 86.66L60.5299 89.7L56.5499 91.54C56.5499 91.54 53.1899 90.42 52.9599 89.92C52.7799 89.19 53.3499 87.19 53.3499 87.19L53.34 87.18Z" fill="#DD1F26"/>
<path d="M56.54 89.41L58.86 88.66L60.52 89.69L60.11 91.96L58.37 92.55L56.54 91.53V89.41Z" fill="#DD1F26"/>
<path d="M60.1104 91.96C64.1804 96.4 72.1804 131 70.5504 139.81C67.8104 141.44 67.2204 141.83 67.2204 141.83L64.2504 139.51C64.2504 139.51 66.3204 122.47 58.3604 92.54L60.1003 91.95L60.1104 91.96Z" fill="#DD1F26"/>
</g>
<defs>
<linearGradient id="paint0_linear_2433_8020" x1="92.8205" y1="77.28" x2="287.691" y2="77.28" gradientUnits="userSpaceOnUse">
<stop stop-color="#E2A37E"/>
<stop offset="1" stop-color="#C68158"/>
</linearGradient>
<linearGradient id="paint1_linear_2433_8020" x1="226.59" y1="125.46" x2="238.06" y2="125.46" gradientUnits="userSpaceOnUse">
<stop stop-color="#E2A37E"/>
<stop offset="1" stop-color="#C68158"/>
</linearGradient>
<linearGradient id="paint2_linear_2433_8020" x1="236.552" y1="130.12" x2="241.472" y2="130.12" gradientUnits="userSpaceOnUse">
<stop stop-color="#E2A37E"/>
<stop offset="1" stop-color="#C68158"/>
</linearGradient>
<linearGradient id="paint3_linear_2433_8020" x1="134.521" y1="125.36" x2="162.5" y2="125.36" gradientUnits="userSpaceOnUse">
<stop stop-color="#E2A37E"/>
<stop offset="1" stop-color="#C68158"/>
</linearGradient>
<linearGradient id="paint4_linear_2433_8020" x1="134.521" y1="125.36" x2="162.5" y2="125.36" gradientUnits="userSpaceOnUse">
<stop stop-color="#E2A37E"/>
<stop offset="1" stop-color="#C68158"/>
</linearGradient>
<linearGradient id="paint5_linear_2433_8020" x1="134.521" y1="125.36" x2="162.501" y2="125.36" gradientUnits="userSpaceOnUse">
<stop stop-color="#E2A37E"/>
<stop offset="1" stop-color="#C68158"/>
</linearGradient>
<linearGradient id="paint6_linear_2433_8020" x1="134.521" y1="125.36" x2="162.501" y2="125.36" gradientUnits="userSpaceOnUse">
<stop stop-color="#E2A37E"/>
<stop offset="1" stop-color="#C68158"/>
</linearGradient>
<linearGradient id="paint7_linear_2433_8020" x1="134.521" y1="125.36" x2="162.501" y2="125.36" gradientUnits="userSpaceOnUse">
<stop stop-color="#E2A37E"/>
<stop offset="1" stop-color="#C68158"/>
</linearGradient>
<linearGradient id="paint8_linear_2433_8020" x1="134.521" y1="125.36" x2="162.501" y2="125.36" gradientUnits="userSpaceOnUse">
<stop stop-color="#E2A37E"/>
<stop offset="1" stop-color="#C68158"/>
</linearGradient>
<clipPath id="clip0_2433_8020">
<rect width="582" height="268" fill="white"/>
</clipPath>
</defs>
</svg>
