<svg width="38" height="36" viewBox="0 0 38 36" fill="none" xmlns="http://www.w3.org/2000/svg">
<path fill-rule="evenodd" clip-rule="evenodd" d="M9.62666 6.85333C8.10666 7.23333 6.58666 7.74 6.07999 8.37333C5.06666 9.51333 8.10666 14.96 10.0067 16.86C11.9067 18.76 12.4133 17.1133 15.0733 19.6467C17.7333 22.3067 19.1267 25.8533 23.6867 30.4133C30.9067 37.6333 36.6067 32.9467 36.6067 32.9467C37.3667 32.1867 37.1133 31.1733 36.48 30.16C34.7067 30.54 33.1867 30.4133 32.1733 30.4133C30.9067 30.2867 26.98 29.5267 22.42 23.32C16.9733 16.1 16.9733 13.06 9.62666 6.85333Z" fill="white"/>
<path d="M10.3867 6.72666C10.3867 6.72666 12.0333 5.46 13.3 4.19333C14.5667 2.92666 15.4533 2.54666 16.2133 4.19333C17.1 5.84 24.7 11.4133 25.84 10.9067C27.1067 10.5267 29.64 10.9067 29.64 10.9067C29.64 10.9067 29.26 16.3533 29.64 18.1267C30.02 19.7733 32.5533 26.1067 33.44 26.9933C34.3267 27.88 36.3533 30.4133 36.3533 30.4133L35.4667 30.54C35.4667 30.54 33.9467 30.6667 33.3133 30.6667C32.8067 30.6667 32.4267 30.6667 32.4267 30.6667C32.4267 30.6667 24.8267 26.6133 24.0667 25.7267C23.3067 24.84 19.6333 19.7733 19.1267 18.8867C18.7467 17.8733 13.9333 11.0333 13.9333 11.0333L11.2733 8.37333L10.3867 6.72666Z" fill="#FFC76F"/>
<path d="M31.92 35.3533C29.5133 35.3533 26.3467 34.4667 23.0533 31.0467C18.3667 26.36 16.9733 22.8133 14.44 20.28C12.0333 17.8733 11.5267 19.52 9.37333 17.4933C7.85333 15.8467 3.79999 9.76667 5.44666 7.86667C6.20666 7.10667 7.72666 6.6 9.37333 6.09333C12.2867 5.20667 12.16 5.20667 13.0467 3.68667C13.8067 2.29333 14.82 0.646667 16.5933 0.646667C17.7333 0.646667 17.7333 2.29333 16.5933 2.29333C16.5933 2.29333 16.5933 2.29333 16.4667 2.29333C21.66 9.38667 25.2067 9.38667 25.3333 9.38667C25.84 9.38667 26.22 9.76667 26.22 10.1467C26.3467 12.1733 20.7733 10.9067 15.2 3.30667C13.5533 5.58667 13.9333 6.22 11.2733 7.10667C17.6067 12.8067 17.9867 15.9733 23.0533 22.8133C28.12 29.6533 32.4267 29.5267 32.4267 29.5267C33.5667 29.5267 33.5667 31.1733 32.5533 31.1733C32.3 31.1733 27.36 31.4267 21.66 23.7C19.76 21.1667 18.4933 19.14 17.48 17.3667C15.4533 14.2 13.9333 11.6667 9.37333 7.74C8.35999 8.12 7.09333 8.5 6.71333 8.88C6.45999 9.76667 8.73999 14.3267 10.64 16.2267C11.4 16.9867 11.78 16.9867 12.2867 17.1133C16.72 18 18.24 23.8267 24.32 29.78C30.6533 36.1133 35.5933 32.6933 36.1 32.3133C37.1133 31.1733 33.3133 28.1333 31.7933 25.7267C31.16 24.7133 30.5267 23.0667 30.1467 21.42L28.5 21.5467C27.36 21.6733 27.2333 20.0267 28.3733 19.9L29.7667 19.7733C29.64 19.2667 29.5133 18.76 29.3867 18.1267L27.4867 18.38C26.3467 18.5067 26.22 16.86 27.36 16.7333L29.26 16.48C29.1333 15.9733 29.1333 15.34 29.0067 14.96L26.6 15.34C25.46 15.4667 25.3333 13.82 26.4733 13.6933L28.6267 13.44C28.3733 11.54 28.5 9.51333 28.7533 7.86667C28.88 7.36 29.26 7.10667 29.7667 7.10667C31.16 7.36 30.02 8.88 30.2733 12.68C30.5267 16.3533 31.54 20.0267 31.54 20.5333C32.5533 24.46 33.06 25.0933 35.0867 27.3733C36.48 28.8933 39.52 31.9333 37.24 33.8333C37.1133 33.7067 35.0867 35.3533 31.92 35.3533Z" fill="#985801"/>
<path d="M17.2267 32.82H11.4C10.26 32.82 10.26 31.1733 11.4 31.1733H17.3533C17.86 31.1733 18.24 31.5533 18.24 32.06C18.1133 32.44 17.7333 32.82 17.2267 32.82Z" fill="url(#paint0_linear_143_3361)"/>
<path d="M11.4 26.9933H5.44666C4.30666 26.9933 4.30666 25.3467 5.44666 25.3467H11.4C11.9067 25.3467 12.2867 25.7267 12.2867 26.2333C12.16 26.6133 11.78 26.9933 11.4 26.9933Z" fill="url(#paint1_linear_143_3361)"/>
<path d="M5.44666 21.9267H0.886662C-0.253338 21.9267 -0.253338 20.28 0.886662 20.28H5.57333C6.58666 20.1533 6.58666 21.9267 5.44666 21.9267Z" fill="url(#paint2_linear_143_3361)"/>
<defs>
<linearGradient id="paint0_linear_143_3361" x1="10.5295" y1="31.9978" x2="18.1028" y2="31.9978" gradientUnits="userSpaceOnUse">
<stop stop-color="#E1590A"/>
<stop offset="1" stop-color="#C23102"/>
</linearGradient>
<linearGradient id="paint1_linear_143_3361" x1="4.63207" y1="26.102" x2="12.2072" y2="26.102" gradientUnits="userSpaceOnUse">
<stop stop-color="#E1590A"/>
<stop offset="1" stop-color="#C23102"/>
</linearGradient>
<linearGradient id="paint2_linear_143_3361" x1="-4.67987e-06" y1="21.0472" x2="6.30268" y2="21.0472" gradientUnits="userSpaceOnUse">
<stop stop-color="#E1590A"/>
<stop offset="1" stop-color="#C23102"/>
</linearGradient>
</defs>
</svg>
