<svg width="30" height="30" viewBox="0 0 30 30" fill="none" xmlns="http://www.w3.org/2000/svg">
<g clip-path="url(#clip0_205_7618)">
<path d="M23.2 13.2C26.8451 13.2 29.8 10.2451 29.8 6.6C29.8 2.95492 26.8451 0 23.2 0C19.5549 0 16.6 2.95492 16.6 6.6C16.6 10.2451 19.5549 13.2 23.2 13.2Z" fill="url(#paint0_linear_205_7618)"/>
<path d="M20.1 4.7998L26.3 8.3998" stroke="white" stroke-width="1.2946" stroke-miterlimit="10" stroke-linecap="round"/>
<path d="M9.79995 5.10003L1.19995 10.1C0.199951 10.7 0.199951 12.2 1.19995 12.8L9.79995 17.8C10.8 18.4 12.1 17.7 12.1 16.5V6.50003C12.1 5.30003 10.8 4.50003 9.79995 5.10003Z" fill="#FFC76F" stroke="#985801" stroke-width="1.6499" stroke-miterlimit="10"/>
<path d="M28.9 19.3001C29.3 20.6001 29.2 22.0001 28.7 23.1001C28.1 24.3001 27.1 25.2001 25.8 25.6001L21.1 27.2001L17.9 17.7001L22.6 16.1001C25.2 15.3001 28 16.7001 28.9 19.3001Z" fill="#FFC76F" stroke="#985801" stroke-width="1.5" stroke-miterlimit="10"/>
<path d="M17.8 17.8003L21 27.3003L16.3 28.9003C13.7 29.8003 10.8 28.4003 9.90002 25.8003C9.50002 24.5003 9.60002 23.1003 10.1 22.0003C10.7 20.8003 11.7 19.9003 13 19.5003L17.8 17.8003Z" fill="url(#paint1_linear_205_7618)" stroke="#985801" stroke-width="1.5" stroke-miterlimit="10"/>
</g>
<defs>
<linearGradient id="paint0_linear_205_7618" x1="26.4022" y1="1.00916" x2="19.6482" y2="12.707" gradientUnits="userSpaceOnUse">
<stop stop-color="#E1590A"/>
<stop offset="1" stop-color="#C23102"/>
</linearGradient>
<linearGradient id="paint1_linear_205_7618" x1="10.0105" y1="25.805" x2="19.4695" y2="22.56" gradientUnits="userSpaceOnUse">
<stop stop-color="#E1590A"/>
<stop offset="1" stop-color="#C23102"/>
</linearGradient>
<clipPath id="clip0_205_7618">
<rect width="30" height="30" fill="white"/>
</clipPath>
</defs>
</svg>
