<svg width="27" height="30" viewBox="0 0 27 30" fill="none" xmlns="http://www.w3.org/2000/svg">
<g clip-path="url(#clip0_143_7823)">
<path d="M25.5469 9.375H0.703125C0.314824 9.375 0 9.06018 0 8.67188V6.5625C0 5.00918 1.25918 3.75 2.8125 3.75H5.625V0.703125C5.625 0.314824 5.93982 0 6.32812 0H8.67188C9.06018 0 9.375 0.314824 9.375 0.703125V3.75H16.875V0.703125C16.875 0.314824 17.1898 0 17.5781 0H19.9219C20.3102 0 20.625 0.314824 20.625 0.703125V3.75H23.4375C24.9908 3.75 26.25 5.00918 26.25 6.5625V8.67188C26.25 9.06018 25.9352 9.375 25.5469 9.375ZM0.703125 11.25H25.5469C25.9352 11.25 26.25 11.5648 26.25 11.9531V27.1875C26.25 28.7408 24.9908 30 23.4375 30H2.8125C1.25918 30 0 28.7408 0 27.1875V11.9531C0 11.5648 0.314824 11.25 0.703125 11.25ZM20.2322 16.8719L18.5817 15.2079C18.3082 14.9323 17.863 14.9304 17.5873 15.204L11.3742 21.3671L8.68008 18.6512C8.40662 18.3755 7.96137 18.3737 7.68568 18.6472L6.0218 20.2978C5.74611 20.5712 5.7443 21.0164 6.01781 21.2921L10.8577 26.1711C11.1312 26.4468 11.5764 26.4486 11.8521 26.1751L20.2282 17.8662C20.5039 17.5928 20.5057 17.1476 20.2322 16.8719Z" fill="white"/>
</g>
<defs>
<clipPath id="clip0_143_7823">
<rect width="26.25" height="30" fill="white"/>
</clipPath>
</defs>
</svg>
