<svg width="15" height="11" viewBox="0 0 15 11" fill="none" xmlns="http://www.w3.org/2000/svg">
<path d="M14.7597 1.40104C14.7624 1.59789 14.7012 1.78987 14.5859 1.94596L8.19259 10.4207C8.1158 10.5224 8.01804 10.6049 7.9065 10.6621C7.79496 10.7193 7.67248 10.7498 7.54805 10.7514C7.42362 10.753 7.30041 10.7255 7.18747 10.6711C7.07453 10.6167 6.97473 10.5367 6.89541 10.437L0.326302 2.16056C0.256741 2.07271 0.204496 1.9715 0.172552 1.8627C0.140607 1.75391 0.129588 1.63966 0.140123 1.52648C0.161399 1.29791 0.26918 1.08757 0.439754 0.941739C0.610328 0.795906 0.829723 0.726525 1.04968 0.748858C1.26963 0.771192 1.47212 0.883411 1.6126 1.06083L7.52078 8.50609L13.2723 0.876972C13.3785 0.73598 13.5243 0.632782 13.6894 0.581636C13.8545 0.530489 14.0309 0.533918 14.1942 0.59145C14.3575 0.648981 14.4996 0.757774 14.6009 0.902799C14.7022 1.04782 14.7577 1.22192 14.7597 1.40104Z" fill="#727272" stroke="#727272" stroke-width="0.2"/>
</svg>
