<svg width="21" height="18" viewBox="0 0 21 18" fill="none" xmlns="http://www.w3.org/2000/svg">
<g clip-path="url(#clip0_143_9751)">
<path d="M10.6345 18.0016C16.0659 18.0016 20.4689 13.9722 20.4689 9.00166C20.4689 4.03112 16.0659 0.00169373 10.6345 0.00169373C5.20308 0.00169373 0.800049 4.03112 0.800049 9.00166C0.800049 13.9722 5.20308 18.0016 10.6345 18.0016Z" fill="#1977F3"/>
<path d="M14.4626 11.6036L14.8983 9.00145H12.171V7.31308C12.171 6.60179 12.5513 5.90695 13.7739 5.90695H15.0144V3.69207C15.0144 3.69207 13.8887 3.51614 12.8127 3.51614C10.5668 3.51614 9.09802 4.76154 9.09802 7.01818V9.00145H6.60034V11.6036H9.09802V17.8926C9.59866 17.9647 10.1118 18.0014 10.6345 18.0014C11.1573 18.0014 11.6704 17.9635 12.171 17.8926V11.6036H14.4626Z" fill="white"/>
</g>
<defs>
<clipPath id="clip0_143_9751">
<rect width="19.6689" height="18" fill="white" transform="translate(0.800049)"/>
</clipPath>
</defs>
</svg>
