<svg width="24" height="31" viewBox="0 0 24 31" fill="none" xmlns="http://www.w3.org/2000/svg">
<path d="M17.2544 17.7464L16.7914 17.6284L12.2844 22.2594L7.55741 17.6284L7.15741 17.7284C5.35165 18.2381 3.76678 19.3341 2.65243 20.8437C1.53808 22.3532 0.957598 24.1906 1.00241 26.0664C1.00241 28.4064 6.00241 30.3044 12.1684 30.3044C18.3344 30.3044 23.3344 28.4044 23.3344 26.0664C23.3785 24.2037 22.8065 22.3784 21.7071 20.8741C20.6078 19.3697 19.0425 18.2702 17.2544 17.7464Z" fill="#FFC76F" stroke="#985801" stroke-width="1.2"/>
<path d="M11.9174 15.9914C15.0464 15.9914 17.5914 12.9324 17.5914 10.0494C17.5283 8.60517 16.896 7.24459 15.8329 6.265C14.7697 5.2854 13.362 4.76642 11.9174 4.82144C10.4728 4.76642 9.06515 5.2854 8.00198 6.265C6.93882 7.24459 6.30659 8.60517 6.24342 10.0494C6.24442 12.9314 8.79243 15.9914 11.9174 15.9914Z" fill="#F8E0CA" stroke="#985801" stroke-width="1.2"/>
<path d="M18.3914 9.11743C18.5222 8.94674 18.5925 8.73745 18.5914 8.52243V3.40543C18.5932 3.16988 18.5273 2.93877 18.4016 2.73954C18.276 2.5403 18.0958 2.38131 17.8824 2.28143L12.7084 0.100429C12.4749 0.0293168 12.2315 -0.0044329 11.9874 0.000428935C11.7503 -0.00272906 11.5142 0.0310074 11.2874 0.100429L5.87342 2.28743C5.65991 2.38553 5.47931 2.54325 5.35335 2.7416C5.22738 2.93995 5.16143 3.17047 5.16342 3.40543V8.52243C5.1623 8.73745 5.23265 8.94674 5.36342 9.11743L11.9064 7.75343L18.3914 9.11743Z" fill="url(#paint0_linear_143_3321)"/>
<path d="M11.1817 1.77438L12.4663 1.80132L12.5397 6.49966L11.2551 6.47273L11.1817 1.77438Z" fill="white"/>
<path d="M14.2715 3.36794L14.2925 4.72039L9.44744 4.6367L9.42634 3.28424L14.2715 3.36794Z" fill="white"/>
<defs>
<linearGradient id="paint0_linear_143_3321" x1="11.8774" y1="-3.05176e-05" x2="11.8774" y2="9.11743" gradientUnits="userSpaceOnUse">
<stop stop-color="#E1590A"/>
<stop offset="1" stop-color="#C23102"/>
</linearGradient>
</defs>
</svg>
