<svg width="470" height="112" viewBox="0 0 470 112" fill="none" xmlns="http://www.w3.org/2000/svg">
<rect x="2.69922" y="3.01172" width="464.6" height="105.8" rx="52.9" fill="url(#paint0_linear_284_67806)"/>
<rect x="2.69922" y="3.01172" width="464.6" height="105.8" rx="52.9" stroke="white" stroke-width="5"/>
<path d="M172.042 27.6494C171.181 18.7177 162.813 16.2451 148.278 18.0773C133.743 19.9095 133.18 23.4137 133.555 33.9597C133.678 37.4217 134.573 40.1677 136.021 42.3312C135.131 45.5708 131.546 46.2378 132.043 46.747C134.604 49.3641 139.115 46.9627 140.202 46.3223C147.216 50.7004 151.531 50.0622 159.552 48.8571C170.211 47.2584 172.987 37.4417 172.042 27.6494Z" fill="white"/>
<path d="M147.077 33.5508C147.077 34.4558 146.388 35.1895 145.537 35.1895C144.686 35.1895 143.996 34.4558 143.996 33.5508C143.996 32.6459 144.686 31.9121 145.537 31.9121C146.388 31.9121 147.077 32.6459 147.077 33.5508Z" fill="#D73F44"/>
<path d="M154.699 33.5508C154.699 34.4558 154.009 35.1895 153.158 35.1895C152.307 35.1895 151.617 34.4558 151.617 33.5508C151.617 32.6459 152.307 31.9121 153.158 31.9121C154.009 31.9121 154.699 32.6459 154.699 33.5508Z" fill="#D73F44"/>
<path d="M162.027 33.5508C162.027 34.4558 161.337 35.1895 160.486 35.1895C159.635 35.1895 158.945 34.4558 158.945 33.5508C158.945 32.6459 159.635 31.9121 160.486 31.9121C161.337 31.9121 162.027 32.6459 162.027 33.5508Z" fill="#D73F44"/>
<g clip-path="url(#clip0_284_67806)">
<g clip-path="url(#clip1_284_67806)">
<path d="M107.014 59.2592C107.204 58.9584 114.431 62.6013 122.552 57.8349C130.672 53.0684 125.927 103.253 125.927 103.253L125.267 129.301L124.343 141.881H104.112L99.9609 102.291C99.9609 102.291 104.189 63.7505 107.012 59.2592H107.014Z" fill="#5DCEC1"/>
<path d="M143.552 66.6628C140.248 63.8091 125.033 58.0117 125.033 58.0117L122.551 62.4697C122.551 62.4697 123.357 117.749 122.94 129.136L122.935 141.88H141.502L141.597 113.094C146.966 111.726 151.092 109.453 153.359 106.957C155.931 104.126 156.553 102.53 156.553 98.7684C156.553 95.0072 146.859 69.5191 143.555 66.6628H143.552Z" fill="white"/>
<path d="M105.344 107.895C105.518 107.61 105.615 107.453 105.615 107.453V58.5078C105.615 58.5078 90.4029 64.3052 87.0964 67.1589C83.7898 70.0152 74.1797 96.4108 74.0876 100.172C73.7242 115.101 86.651 133.936 86.651 133.936C86.651 133.936 87.0938 133.748 87.859 133.206C87.6082 136.684 87.1783 141.88 87.1783 141.88H107.345C107.345 141.88 107.412 126.411 107.345 125.704C107.307 125.285 106.219 115.649 105.344 107.895Z" fill="white"/>
<path d="M137.701 94.5783L134.303 96.6042C134.226 96.6505 134.129 96.653 134.049 96.6068L130.459 94.5783C130.379 94.532 130.328 94.4472 130.328 94.3572V86.7936C130.328 86.6522 130.441 86.5391 130.581 86.5391H137.571C137.712 86.5391 137.824 86.6522 137.824 86.7936V94.3624C137.824 94.4523 137.778 94.5346 137.699 94.5809L137.701 94.5783Z" fill="#D5E1ED"/>
<path d="M137.701 94.5707L134.303 96.5966C134.226 96.6429 134.129 96.6454 134.049 96.5992L130.459 94.5707C130.379 94.5244 130.328 94.4396 130.328 94.3496V88.3131C130.328 88.1717 130.441 88.0586 130.581 88.0586H137.571C137.712 88.0586 137.824 88.1717 137.824 88.3131V94.3522C137.824 94.4422 137.778 94.5244 137.699 94.5707H137.701Z" fill="#B8DDFF"/>
<g opacity="0.5">
<path d="M122.939 129.636V53.7637C122.939 53.7637 123.579 54.9411 125.916 57.3218C128.839 60.2989 131.344 64.7903 131.344 64.7903L126.067 63.7645L132.923 70.6957L127.766 101.153L124.117 101.701L126.425 109.072L122.942 129.639L122.939 129.636Z" fill="#8FA7D7"/>
</g>
<g opacity="0.5">
<path d="M103.287 57.2769C100.364 60.254 97.8584 64.7454 97.8584 64.7454L103.136 63.7196L96.2793 70.6508L107.34 128.093L106.263 53.7188C106.263 53.7188 105.623 54.8962 103.287 57.2769Z" fill="#8FA7D7"/>
</g>
<path d="M122.94 126.455L121.793 53.1738C121.793 53.1738 122.98 53.6854 125.317 56.0661C128.24 59.0432 130.198 64.203 130.198 64.203L124.92 63.1772L131.777 70.1084L126.863 101.445L124.345 102.029L126.187 105.746L122.94 126.458V126.455Z" fill="white"/>
<path d="M107.343 125.704V53.1738C107.343 53.1738 106.156 53.6854 103.819 56.0661C100.896 59.0432 98.9384 64.203 98.9384 64.203L104.216 63.1772L97.3594 70.1084L107.341 125.71L107.343 125.704Z" fill="white"/>
<path d="M114.533 65.9779C110.374 65.9779 107.39 64.5176 107.344 64.4945V63.9829C107.415 64.0188 114.778 67.5307 121.96 63.6641L121.967 64.1603C119.349 65.5717 116.823 65.9779 114.535 65.9779H114.533Z" fill="#38A595"/>
<path opacity="0.5" d="M93.1315 81.0395C93.1161 80.7747 91.4449 102.987 90.7283 105.895L96.2845 122.968C96.2845 122.968 93.3516 129.632 87.8594 133.206C87.8594 133.206 91.3758 132.679 96.9115 125C96.9115 125 94.1424 132.944 90.2344 136.299C90.2344 136.299 96.3843 132.635 98.186 121.513L92.3867 105.895C92.3867 105.895 93.3976 85.9833 93.134 81.0395H93.1315Z" fill="#8FA7D7"/>
<path opacity="0.5" d="M140.951 96.4294L138.916 79.6953L139.548 96.959C132.725 99.5608 125.375 102.669 125.375 102.669C125.375 102.669 129.28 101.659 134.074 100.373C138.867 99.0877 147.781 94.0616 147.781 94.0616C145.964 94.5989 143.536 95.4576 140.951 96.4268V96.4294Z" fill="#8FA7D7"/>
<path opacity="0.1" d="M150.386 80.1198C150.386 80.1198 154.681 91.7326 154.727 99.2731C154.745 102.078 153.15 104.394 152.004 105.232C140.82 113.398 127.031 113.688 127.031 113.688C127.031 113.688 126.918 115.56 126.654 115.912C126.654 115.912 151.065 114.287 155.73 103.669C155.73 103.669 156.79 101.978 156.549 99.3168C156.096 94.3061 153.322 87.2669 150.386 80.1172V80.1198Z" fill="#8FA7D7"/>
<path opacity="0.1" d="M82.4065 75.8517C82.578 75.407 75.4504 93.6399 75.5119 100.201C75.6449 113.976 85.7694 131.355 87.8578 133.211L86.6498 133.942C86.6498 133.942 73.206 113.881 74.0863 100.178C74.2604 97.468 74.588 96.2725 82.404 75.8517H82.4065Z" fill="#8FA7D7"/>
<path d="M126.718 115.795C127.509 107.717 125.198 102.743 125.466 102.622C128.077 101.439 134.565 98.8787 139.788 96.8425L140.011 84.9443L113.317 83.8594L112.711 123.464L139.307 122.377L139.468 113.733C132.896 115.273 126.715 115.793 126.715 115.793L126.718 115.795Z" fill="url(#paint1_linear_284_67806)"/>
<path d="M131.04 84.5795L131.052 84.0962L123.81 83.6797L123.797 84.2839L131.04 84.5795Z" fill="#A1B5BF"/>
<path d="M124.737 85.0901C124.737 85.1755 124.67 85.2427 124.586 85.2427C124.501 85.2427 124.434 85.1755 124.434 85.0901C124.434 85.0048 124.501 84.9375 124.586 84.9375C124.67 84.9375 124.737 85.0048 124.737 85.0901Z" fill="#A1B5BF"/>
<path d="M130.474 85.3294C130.474 85.3812 130.433 85.4226 130.382 85.4226C130.33 85.4226 130.289 85.3812 130.289 85.3294C130.289 85.2777 130.33 85.2363 130.382 85.2363C130.433 85.2363 130.474 85.2777 130.474 85.3294Z" fill="#A1B5BF"/>
<path d="M126.238 43.6282C125.478 46.3816 124.134 48.4898 123.551 48.3278C123.551 48.3278 123.96 46.5744 124.508 43.7696C125.143 40.5174 125.232 38.2241 126.558 38.3475C127.159 38.4041 126.996 40.8722 126.235 43.6256L126.238 43.6282Z" fill="#F2D6BB"/>
<g opacity="0.6">
<path d="M125.219 42.484C124.528 45.2555 124.134 48.4871 123.551 48.3226C123.551 48.3226 124.132 45.8237 124.679 43.0188C125.314 39.7666 125.25 38.6405 126.576 38.7639C126.576 38.7639 126.061 39.1161 125.219 42.4815V42.484Z" fill="#D88D64"/>
</g>
<path d="M102.994 43.6284C103.754 46.3818 105.016 48.508 105.599 48.346C105.599 48.346 104.98 46.0759 104.611 43.6875C104.105 40.4122 103.997 38.2243 102.674 38.3477C102.073 38.4043 102.236 40.8724 102.997 43.6258L102.994 43.6284Z" fill="#F2D6BB"/>
<g opacity="0.6">
<path d="M103.604 42.1917C104.295 44.9631 105.017 48.5135 105.601 48.3516C105.601 48.3516 104.981 45.4979 104.434 42.6956C103.799 39.4434 103.901 38.6721 102.578 38.7955C102.578 38.7955 102.765 38.8263 103.607 42.1942L103.604 42.1917Z" fill="#D88D64"/>
</g>
<path d="M121.894 59.6268C121.894 59.6268 120.891 62.2851 114.567 62.2851C108.243 62.2851 107.34 59.7862 107.34 59.7862V51.7109H121.795L121.894 59.6268Z" fill="#F2D6BB"/>
<g opacity="0.6">
<path d="M121.802 53.7612C120.497 56.4992 115.391 58.6511 114.567 58.6511C113.743 58.6511 109.405 56.998 107.34 53.8075V49.5938H121.795L121.805 53.7612H121.802Z" fill="#D88D64"/>
</g>
<path d="M123.553 48.3245C121.145 56.2764 114.567 56.4101 114.567 56.4101C114.567 56.4101 107.622 56.3921 105.546 48.1343C104.177 42.6865 100.88 34.3439 104.832 28.1634C107.069 24.6644 123.325 23.2658 125.242 28.1634C127.157 33.061 124.968 43.6609 123.556 48.3245H123.553Z" fill="#F2D6BB"/>
<path d="M118.1 48.0311C118.366 48.2547 117.545 51.1316 114.571 51.1624C112.048 51.1881 110.781 48.5812 111.009 48.193C111.29 47.7123 112.296 48.0362 114.469 48.0362C116.642 48.0362 117.811 47.7868 118.1 48.0311Z" fill="white"/>
<path d="M114.534 51.3078C112.922 51.3078 111.739 50.2511 111.166 49.2536C110.938 48.8577 110.744 48.3486 110.882 48.1147C111.112 47.7213 111.652 47.7548 112.633 47.8165C113.119 47.8473 113.725 47.8859 114.468 47.8859C115.353 47.8859 116.065 47.8447 116.635 47.8113C117.531 47.7599 117.979 47.7342 118.194 47.9141C118.399 48.0838 118.24 48.6057 118.166 48.8217C118.02 49.2305 117.163 51.2795 114.573 51.3052C114.56 51.3052 114.547 51.3052 114.534 51.3052V51.3078ZM111.801 48.0761C111.445 48.0761 111.223 48.1198 111.136 48.2664C111.105 48.3332 111.166 48.7188 111.514 49.2613C111.778 49.6727 112.773 51.0121 114.532 51.0121C114.544 51.0121 114.555 51.0121 114.567 51.0121C116.287 50.9941 117.178 49.9914 117.557 49.3924C117.933 48.796 118.03 48.2561 117.992 48.1352C117.846 48.0401 117.316 48.071 116.651 48.1095C116.077 48.143 115.361 48.1841 114.465 48.1841C113.713 48.1841 113.104 48.1455 112.612 48.1147C112.292 48.0941 112.018 48.0761 111.798 48.0761H111.801Z" fill="#D3976E"/>
<path d="M114.576 45.6092C114.225 45.3572 113.688 44.7942 114 43.8584C114.271 43.0537 114.307 41.5086 114.31 41.4932L114.604 41.4983C114.604 41.5626 114.566 43.1026 114.279 43.951C114.039 44.6682 114.399 45.1156 114.747 45.365L114.576 45.6066V45.6092Z" fill="#D88D64"/>
<path d="M107.997 85.234C107.836 76.8631 106.587 70.5078 102.607 70.5078C98.6276 70.5078 97.353 77.0714 97.2251 85.6376C97.2251 85.6376 97.2251 85.6376 97.2251 85.6402L97.2148 86.0953C97.2148 87.7561 98.0952 88.17 99.2188 88.3474C99.6257 88.4117 100.058 88.4374 100.455 88.4477C100.56 88.6842 100.795 88.8513 101.069 88.8513C101.443 88.8513 101.745 88.5479 101.745 88.1726V87.6198C101.745 87.2445 101.443 86.9411 101.069 86.9411C100.729 86.9411 100.46 87.1982 100.414 87.5273C99.5182 87.4836 98.4126 87.2882 98.0543 86.6249C97.7037 85.9744 97.9084 84.5964 97.9391 83.6658C98.1771 76.552 99.3262 71.1994 102.615 71.1994C105.904 71.1994 107.05 76.5366 107.288 83.6349C107.319 84.527 107.472 85.833 107.142 86.4989C106.843 87.1005 106.034 87.3653 105.23 87.4758C105.143 87.1571 104.839 86.9385 104.501 86.9797C104.13 87.0259 103.866 87.3627 103.912 87.7329L103.979 88.2831C104.025 88.6559 104.36 88.9207 104.729 88.8744C105.01 88.841 105.228 88.6353 105.3 88.3782C106.587 88.1983 108.046 87.6275 108 85.9307L107.992 85.2649C107.992 85.2649 107.997 85.2443 108 85.234H107.997Z" fill="url(#paint2_linear_284_67806)"/>
<path d="M102.682 70.8551H102.02V63.6051L102.682 63.4766V70.8551Z" fill="url(#paint3_linear_284_67806)"/>
<path d="M132.818 75.8504C132.478 66.4383 129.486 61.6127 127.569 58.9466C125.75 56.4169 125.33 56.0801 125.33 56.0801C125.642 56.2266 133 59.8362 133.581 75.8221L132.821 75.8504H132.818Z" fill="url(#paint4_linear_284_67806)"/>
<path d="M133.244 76.0231C132.735 66.2356 130.406 61.9473 128.489 59.2813C126.67 56.7515 125.318 56.0625 125.318 56.0625C125.631 56.209 132.999 60.1194 133.58 76.1053L133.244 76.0205V76.0231Z" fill="url(#paint5_linear_284_67806)"/>
<path d="M136.475 78.7231C136.475 80.5099 135.032 81.9599 133.253 81.9599C131.475 81.9599 130.031 80.5099 130.031 78.7231C130.031 76.9363 131.475 75.4863 133.253 75.4863C135.032 75.4863 136.475 76.9363 136.475 78.7231Z" fill="#BCBCBC"/>
<path d="M133.254 82.0564C131.427 82.0564 129.938 80.5627 129.938 78.7245C129.938 76.8863 131.424 75.3926 133.254 75.3926C135.084 75.3926 136.571 76.8863 136.571 78.7245C136.571 80.5627 135.084 82.0564 133.254 82.0564ZM133.254 75.5828C131.529 75.5828 130.127 76.9917 130.127 78.7271C130.127 80.4624 131.529 81.8687 133.254 81.8687C134.979 81.8687 136.382 80.4598 136.382 78.7271C136.382 76.9943 134.979 75.5828 133.254 75.5828Z" fill="#444444"/>
<g opacity="0.3">
<path d="M134.853 81.6531L134.039 79.9332L134.612 78.3495L136.391 77.5859C136.391 77.5859 137.428 79.8766 134.853 81.6557V81.6531Z" fill="white"/>
</g>
<path d="M134.702 78.9672C134.702 79.8105 134.054 80.4969 133.253 80.4969C132.452 80.4969 131.805 79.813 131.805 78.9672C131.805 78.1214 132.452 77.4375 133.253 77.4375C134.054 77.4375 134.702 78.1214 134.702 78.9672Z" fill="#635B53"/>
<g opacity="0.4">
<path d="M132.743 75.375L132.92 77.3392L131.834 78.6272L129.905 78.7275C129.905 78.7275 129.713 76.1514 132.743 75.3776V75.375Z" fill="white"/>
</g>
<path d="M134.539 78.7307C134.539 79.4454 133.964 80.0238 133.252 80.0238C132.541 80.0238 131.965 79.4454 131.965 78.7307C131.965 78.016 132.541 77.4375 133.252 77.4375C133.964 77.4375 134.539 78.016 134.539 78.7307Z" fill="#D3D3D3"/>
<path d="M133.253 80.1203C132.49 80.1203 131.871 79.4982 131.871 78.732C131.871 77.9659 132.49 77.3438 133.253 77.3438C134.016 77.3438 134.635 77.9659 134.635 78.732C134.635 79.4982 134.016 80.1203 133.253 80.1203ZM133.253 77.534C132.595 77.534 132.058 78.0713 132.058 78.7346C132.058 79.3979 132.593 79.9327 133.253 79.9327C133.913 79.9327 134.448 79.3953 134.448 78.7346C134.448 78.0739 133.913 77.534 133.253 77.534Z" fill="#A8A6A0"/>
<path d="M133.758 78.8821C133.758 79.1623 133.53 79.3911 133.251 79.3911C132.972 79.3911 132.744 79.1623 132.744 78.8821C132.744 78.6019 132.972 78.373 133.251 78.373C133.53 78.373 133.758 78.6019 133.758 78.8821Z" fill="#BABABA"/>
<path d="M133.251 79.2427C133.531 79.2427 133.758 79.0148 133.758 78.7336C133.758 78.4525 133.531 78.2246 133.251 78.2246C132.971 78.2246 132.744 78.4525 132.744 78.7336C132.744 79.0148 132.971 79.2427 133.251 79.2427Z" fill="white"/>
<path d="M100.993 87.2246H100.85C100.735 87.2246 100.643 87.3178 100.643 87.4329V88.325C100.643 88.44 100.735 88.5332 100.85 88.5332H100.993C101.108 88.5332 101.2 88.44 101.2 88.325V87.4329C101.2 87.3178 101.108 87.2246 100.993 87.2246Z" fill="#FDE5D7"/>
<path d="M104.658 87.2187L104.515 87.2323C104.401 87.2432 104.317 87.3448 104.328 87.4593L104.412 88.3474C104.423 88.4619 104.524 88.5459 104.638 88.5351L104.78 88.5215C104.894 88.5107 104.978 88.4091 104.967 88.2946L104.884 87.4064C104.873 87.2919 104.772 87.2079 104.658 87.2187Z" fill="#FDE5D7"/>
<g opacity="0.4">
<path d="M132.926 77.6152C132.179 77.8646 132.133 78.5536 132.133 78.5536L132.857 78.6076L133.049 78.4148L132.929 77.6152H132.926Z" fill="white"/>
</g>
<g opacity="0.4">
<path d="M133.945 79.6778C134.559 79.1842 134.367 78.5234 134.367 78.5234L133.671 78.724L133.559 78.9708L133.948 79.6778H133.945Z" fill="white"/>
</g>
<path d="M104.089 42.7998C104.089 42.7998 102.699 37.2672 102.451 34.4726C102.203 31.678 101.911 27.9245 105.046 26.6468C108.181 25.369 107.217 29.2691 107.217 29.2691C107.217 29.2691 104.737 30.9428 104.243 35.1359C103.974 37.4137 104.092 42.7972 104.092 42.7972L104.089 42.7998Z" fill="#2A445D"/>
<path d="M124.921 42.7175C124.921 42.7175 126.464 37.2672 126.712 34.4726C126.96 31.678 127.252 27.9245 124.117 26.6468C120.982 25.369 121.947 29.2691 121.947 29.2691C121.947 29.2691 124.427 30.9428 124.921 35.1359C125.189 37.4137 124.921 42.715 124.921 42.715V42.7175Z" fill="#2A445D"/>
<path d="M122.361 30.6138C122.361 30.6138 118.542 31.2257 115.983 30.0173C115.233 29.6625 111.597 31.2179 109.925 30.9043C106.726 30.3027 105.321 27.6881 105.257 27.4181C105.073 26.6314 104.308 25.5079 106.621 23.7649C109.82 21.3533 113.769 21.9395 114.43 21.2325C115.09 20.5281 115.755 20.0962 117.032 20.2247C120.462 20.5692 120.628 22.59 122.558 22.8933C125.069 23.2867 125.916 24.3048 126.077 26.4206C126.387 30.4492 122.361 30.6112 122.361 30.6112V30.6138Z" fill="#2A445D"/>
<path d="M115.09 20.6992C115.09 20.6992 114.015 21.4731 111.317 24.6276C108.617 27.7821 107.215 27.5867 106.91 27.6433C106.91 27.6433 109.239 28.0469 111.704 24.7947C114.166 21.5425 115.092 20.6992 115.092 20.6992H115.09Z" fill="#1F384C"/>
<path d="M119.326 30.5144C119.326 30.5144 123.83 31.0492 125.791 28.6865C125.791 28.6865 125.379 31.1572 119.429 30.5556L119.326 30.5144Z" fill="#1F384C"/>
<path d="M111.921 30.5832C106.615 31.3287 105.09 26.9273 105.116 27.0096C105.952 29.6782 108.064 30.7066 109.61 31.1051C110.075 31.2336 110.536 31.3107 110.992 31.3416C111.242 31.3621 111.396 31.3596 111.396 31.3596C111.396 31.3596 111.401 31.3596 111.406 31.3596C116.481 31.4033 120.589 26.0146 120.589 26.0146C117.144 28.9918 114.091 30.1538 111.923 30.5832H111.921Z" fill="#1F384C"/>
<mask id="mask0_284_67806" style="mask-type:luminance" maskUnits="userSpaceOnUse" x="108" y="38" width="5" height="5">
<path d="M112.25 38.7981C113.128 39.6799 113.128 41.1068 112.25 41.986C111.372 42.8678 109.952 42.8678 109.076 41.986C108.199 41.1042 108.199 39.6773 109.076 38.7981C109.954 37.9163 111.375 37.9163 112.25 38.7981Z" fill="white"/>
</mask>
<g mask="url(#mask0_284_67806)">
<path d="M111.375 42.8695L113.128 41.1084V42.8695H111.375Z" fill="white"/>
<path d="M109.12 42.8725L108.201 41.9495V39.682L109.954 37.9209H112.209L113.128 38.8439V41.1114L111.375 42.8725H109.12Z" fill="white"/>
<path d="M109.954 37.9209L108.201 39.682V37.9209H109.954Z" fill="white"/>
</g>
<mask id="mask1_284_67806" style="mask-type:luminance" maskUnits="userSpaceOnUse" x="116" y="38" width="5" height="5">
<path d="M120.253 38.9563C121.131 39.8381 121.131 41.265 120.253 42.1442C119.375 43.0261 117.955 43.0261 117.079 42.1442C116.204 41.2624 116.201 39.8356 117.079 38.9563C117.957 38.077 119.378 38.0745 120.253 38.9563Z" fill="white"/>
</mask>
<g mask="url(#mask1_284_67806)">
<path d="M119.379 43.0287L121.132 41.2676V43.0287H119.379Z" fill="white"/>
<path d="M117.12 43.0291L116.201 42.1061V39.8412L117.954 38.0801H120.212L121.13 39.003V41.268L119.377 43.0291H117.12Z" fill="white"/>
<path d="M117.954 38.0801L116.201 39.8412V38.0801H117.954Z" fill="white"/>
</g>
<path d="M120.974 37.2409C120.326 36.791 119.587 36.5905 118.796 36.7088C118.461 36.7576 118.184 36.444 118.264 36.1123C118.302 35.9478 118.42 35.8089 118.581 35.7575C119.674 35.4156 120.772 35.5981 121.611 36.4722C121.724 36.5879 121.76 36.7576 121.724 36.9144L121.716 36.9453C121.639 37.2769 121.253 37.4338 120.974 37.2384V37.2409Z" fill="#2A445D"/>
<path d="M118.672 41.2469C118.985 41.2469 119.24 40.9223 119.24 40.5219C119.24 40.1215 118.985 39.7969 118.672 39.7969C118.358 39.7969 118.104 40.1215 118.104 40.5219C118.104 40.9223 118.358 41.2469 118.672 41.2469Z" fill="#210601"/>
<path d="M110.662 39.7402C110.347 39.7402 110.094 40.0642 110.094 40.4652C110.094 40.8663 110.347 41.1902 110.662 41.1902C110.977 41.1902 111.23 40.8663 111.23 40.4652C111.23 40.0642 110.977 39.7402 110.662 39.7402Z" fill="#210601"/>
<path d="M120.942 39.7918C120.629 38.8251 119.734 38.1207 118.669 38.1207C117.471 38.1207 116.486 39.0076 116.307 40.162C116.307 40.162 116.307 40.162 116.304 40.162C115.885 39.6863 115.283 39.3804 114.602 39.3804C113.986 39.3804 113.428 39.6324 113.016 40.0334C112.808 38.9125 111.833 38.0615 110.661 38.0615C109.596 38.0615 108.701 38.766 108.388 39.7326C104.401 38.3135 103.418 38.1284 103.155 38.1772C103.075 38.1926 103.009 38.3109 102.996 38.3752L103.201 38.4574C103.201 38.4574 103.237 38.406 103.242 38.406C103.587 38.3649 106.067 39.1747 108.312 39.9743C108.278 40.1337 108.261 40.3008 108.261 40.4705C108.261 41.7996 109.338 42.882 110.661 42.882C111.549 42.882 112.317 42.3884 112.732 41.6659C112.801 41.6557 112.875 41.6274 112.934 41.5965C113.003 41.5631 113.067 41.5143 113.121 41.4577C113.223 41.3446 113.287 41.2006 113.307 41.0489C113.359 40.6736 113.274 40.4011 113.167 40.2417C113.533 39.8689 114.039 39.6324 114.6 39.6324C115.214 39.6324 115.757 39.9126 116.128 40.3471C116.036 40.5116 115.969 40.7661 116.018 41.1081C116.038 41.2572 116.102 41.4037 116.204 41.5168C116.256 41.5734 116.322 41.6222 116.391 41.6557C116.45 41.6865 116.524 41.7148 116.596 41.7251C117.011 42.4475 117.778 42.9385 118.666 42.9385C119.99 42.9385 121.067 41.8562 121.067 40.527C121.067 40.3574 121.049 40.1902 121.016 40.0308C123.294 39.221 125.771 38.3932 126.053 38.4626C126.042 38.4626 126.308 38.3572 126.308 38.3572C126.229 38.1875 126.122 37.9458 120.942 39.7892V39.7918ZM110.664 42.6275C109.481 42.6275 108.519 41.6608 108.519 40.473C108.519 39.2853 109.481 38.316 110.664 38.316C111.846 38.316 112.811 39.2827 112.811 40.473C112.811 41.6634 111.849 42.6275 110.664 42.6275ZM113.057 41.1723C113.031 41.2263 112.998 41.2752 112.954 41.3137C112.936 41.3292 112.916 41.3369 112.895 41.3497C112.993 41.0978 113.049 40.8278 113.059 40.545C113.08 40.5913 113.103 40.635 113.11 40.6864C113.133 40.8433 113.115 41.0206 113.059 41.1723H113.057ZM116.384 41.3729C116.338 41.3317 116.307 41.2829 116.281 41.2315C116.225 41.0798 116.207 40.9024 116.23 40.7456C116.238 40.6941 116.261 40.6504 116.281 40.6042C116.289 40.887 116.345 41.1595 116.445 41.4089C116.425 41.396 116.402 41.3883 116.386 41.3729H116.384ZM118.672 42.6866C117.489 42.6866 116.527 41.7199 116.527 40.5322C116.527 39.3444 117.489 38.3777 118.672 38.3777C119.854 38.3777 120.816 39.3444 120.816 40.5322C120.816 41.7199 119.854 42.6866 118.672 42.6866Z" fill="#302420"/>
<path d="M108.353 37.1853C109.001 36.7354 109.74 36.5348 110.531 36.6531C110.866 36.7019 111.143 36.3883 111.063 36.0566C111.025 35.8921 110.907 35.7533 110.746 35.7019C109.653 35.3599 108.555 35.5425 107.716 36.4166C107.603 36.5323 107.567 36.7019 107.603 36.8588L107.611 36.8896C107.688 37.2213 108.074 37.3781 108.353 37.1827V37.1853Z" fill="#2A445D"/>
<path d="M97.8523 85.5475C97.8523 85.5475 97.2253 72.7649 101.522 71.1067C102.503 70.7288 103.424 70.9576 104.097 71.3149C106.372 72.5207 106.938 76.8964 107.112 78.8811C107.337 81.4546 107.688 85.1979 107.235 86.2442C107.235 86.2442 107.396 80.2977 106.403 75.9632C105.412 71.626 103.542 71.1504 102.346 71.2173C101.151 71.2841 99.7615 72.6313 98.9861 75.2587C98.2106 77.8862 97.8498 85.5501 97.8498 85.5501L97.8523 85.5475Z" fill="url(#paint6_linear_284_67806)"/>
<path d="M97.2363 86.4836C97.2363 86.4399 97.5332 87.6122 98.6772 87.877C99.8212 88.1418 100.417 87.5248 100.417 87.5248C100.417 87.5248 100.338 88.2601 100.458 88.4452C100.458 88.4452 97.3387 88.782 97.2363 86.4836Z" fill="url(#paint7_linear_284_67806)"/>
<path d="M107.994 85.6122C107.994 85.5865 108.041 86.1341 107.813 86.5943C107.414 87.3964 107.053 87.435 106.63 87.6586C105.594 88.2088 105.23 87.4735 105.23 87.4735C105.23 87.4735 105.369 88.1677 105.3 88.3759C105.3 88.3759 108.227 88.2808 107.994 85.6122Z" fill="url(#paint8_linear_284_67806)"/>
<path d="M102.02 63.6051L102.682 63.4766L102.641 63.8159L102.02 63.9342V63.6051Z" fill="#1A2026"/>
<g opacity="0.1">
<path d="M103.214 71.277L103.344 63.3457L102.684 63.4742L102.556 71.3258C98.9805 71.9403 98.2639 78.3213 98.1411 86.4582C98.1411 86.4582 98.1411 86.4582 98.1411 86.4608L98.1309 86.9158C98.1309 88.5766 99.0112 88.9931 100.135 89.168C100.542 89.2322 100.974 89.2579 101.371 89.2682C101.476 89.5047 101.711 89.6719 101.985 89.6719C102.359 89.6719 102.661 89.3685 102.661 88.9931V88.4404C102.661 88.065 102.359 87.7617 101.985 87.7617C101.645 87.7617 101.376 88.0188 101.33 88.3478C100.434 88.3041 99.3286 88.1087 98.9703 87.4454C98.6197 86.795 98.8244 85.417 98.8551 84.4863C99.0931 77.3726 99.8609 71.966 103.147 71.966C106.433 71.966 107.964 77.3572 108.204 84.458C108.235 85.3501 108.388 86.6562 108.058 87.322C107.759 87.9236 106.95 88.1884 106.146 88.299C106.059 87.9802 105.755 87.7617 105.417 87.8028C105.046 87.8491 104.782 88.1859 104.828 88.5561L104.895 89.1063C104.941 89.479 105.276 89.7438 105.645 89.6976C105.926 89.6641 106.144 89.4585 106.216 89.2014C107.503 89.0214 108.962 88.4507 108.916 86.7539L108.908 86.088C108.908 86.088 108.913 86.0674 108.916 86.0572C108.754 77.7402 107.139 71.3592 103.219 71.2795L103.214 71.277Z" fill="#0E3368"/>
<path d="M135.247 77.6868C134.582 61.9708 127.324 58.4024 127.012 58.2559C127.012 58.2559 127.431 58.5901 129.251 61.1224C131.147 63.7576 134.088 68.5061 134.487 77.7048C132.921 77.9259 131.716 79.2731 131.716 80.9056C131.716 82.6924 133.159 84.1424 134.938 84.1424C136.716 84.1424 138.16 82.6924 138.16 80.9056C138.16 79.2217 136.88 77.8411 135.247 77.6842V77.6868Z" fill="#0E3368"/>
</g>
</g>
</g>
<rect x="55.1992" y="31.9121" width="48" height="48" rx="24" fill="#DE181F"/>
<mask id="mask2_284_67806" style="mask-type:alpha" maskUnits="userSpaceOnUse" x="64" y="41" width="30" height="30">
<rect x="64.7988" y="41.5122" width="28.8" height="28.8" fill="#C4C4C4"/>
</mask>
<g mask="url(#mask2_284_67806)">
<rect x="77.5996" y="44.7124" width="2.56" height="22.4003" rx="1.28" fill="white"/>
<rect x="68" y="57.5127" width="2.56" height="22.4003" rx="1.28" transform="rotate(-90 68 57.5127)" fill="white"/>
</g>
<path d="M189.793 49.0977V45.548H206.518V49.0977H200.283V65.9116H196.028V49.0977H189.793ZM223.262 49.7937H225.718C225.711 50.9471 225.539 51.9149 225.201 52.6971C224.863 53.4727 224.289 54.056 223.481 54.4471C222.679 54.8382 221.581 55.0338 220.189 55.0338V53.1446C221.111 53.1446 221.787 53.0219 222.218 52.7767C222.655 52.5314 222.937 52.1635 223.063 51.673C223.196 51.1758 223.262 50.5494 223.262 49.7937ZM217.008 59.4088V50.6389H221.233V65.9116H217.177V63.1375H217.018C216.673 64.0324 216.099 64.7516 215.297 65.2951C214.502 65.8387 213.531 66.1105 212.384 66.1105C211.363 66.1105 210.465 65.8785 209.689 65.4145C208.914 64.9504 208.307 64.2909 207.87 63.4358C207.439 62.5807 207.22 61.5565 207.214 60.3633V50.6389H211.449V59.6076C211.449 60.5092 211.688 61.2218 212.165 61.7454C212.649 62.2691 213.292 62.5309 214.094 62.5309C214.605 62.5309 215.079 62.4149 215.516 62.1829C215.96 61.9443 216.318 61.593 216.59 61.129C216.868 60.6649 217.008 60.0915 217.008 59.4088ZM247.685 50.6389L242.345 65.9116H237.573L232.233 50.6389H236.708L239.879 61.5665H240.039L243.2 50.6389H247.685ZM253.797 66.2C252.823 66.2 251.955 66.0309 251.192 65.6929C250.43 65.3482 249.827 64.8411 249.383 64.1716C248.945 63.4954 248.726 62.6536 248.726 61.646C248.726 60.7975 248.882 60.0849 249.194 59.5082C249.505 58.9315 249.93 58.4675 250.466 58.1162C251.003 57.7648 251.613 57.4997 252.296 57.3207C252.985 57.1417 253.708 57.0158 254.464 56.9429C255.352 56.8501 256.068 56.7639 256.611 56.6843C257.155 56.5982 257.549 56.4722 257.795 56.3065C258.04 56.1408 258.162 55.8955 258.162 55.5707V55.5111C258.162 54.8813 257.964 54.3941 257.566 54.0494C257.175 53.7047 256.618 53.5324 255.895 53.5324C255.133 53.5324 254.527 53.7014 254.076 54.0395C253.625 54.3709 253.327 54.7885 253.181 55.2923L249.263 54.9741C249.462 54.0461 249.853 53.244 250.437 52.5679C251.02 51.8851 251.772 51.3614 252.694 50.9968C253.622 50.6256 254.696 50.44 255.915 50.44C256.764 50.44 257.576 50.5395 258.351 50.7383C259.134 50.9372 259.826 51.2454 260.43 51.663C261.039 52.0807 261.52 52.6176 261.871 53.2738C262.223 53.9235 262.398 54.7023 262.398 55.6105V65.9116H258.381V63.7937H258.262C258.017 64.271 257.689 64.6919 257.278 65.0565C256.867 65.4145 256.373 65.6962 255.796 65.9017C255.219 66.1005 254.553 66.2 253.797 66.2ZM255.01 63.2767C255.634 63.2767 256.184 63.154 256.661 62.9088C257.138 62.6569 257.513 62.3188 257.785 61.8946C258.056 61.4703 258.192 60.9897 258.192 60.4528V58.8321C258.06 58.9182 257.877 58.9978 257.645 59.0707C257.42 59.137 257.165 59.2 256.88 59.2596C256.595 59.3127 256.31 59.3624 256.025 59.4088C255.74 59.4486 255.481 59.485 255.249 59.5182C254.752 59.5911 254.318 59.7071 253.947 59.8662C253.575 60.0253 253.287 60.2407 253.081 60.5125C252.876 60.7776 252.773 61.1091 252.773 61.5068C252.773 62.0835 252.982 62.5243 253.4 62.8292C253.824 63.1275 254.361 63.2767 255.01 63.2767ZM250.894 48.9684L254.901 45.8761H257.188L261.215 48.9684H258.162L256.064 47.298L253.937 48.9684H250.894ZM260.171 47.2184L262.498 43.4897H265.779L262.567 47.2184H260.171ZM269.92 57.0821V65.9116H265.684V50.6389H269.721V53.3335H269.9C270.238 52.4452 270.805 51.7426 271.601 51.2255C272.396 50.7019 273.361 50.44 274.494 50.44C275.555 50.44 276.479 50.672 277.268 51.1361C278.057 51.6001 278.67 52.2629 279.108 53.1247C279.545 53.9798 279.764 55.0006 279.764 56.1872V65.9116H275.528V56.9429C275.535 56.0082 275.296 55.279 274.812 54.7554C274.328 54.2251 273.662 53.9599 272.814 53.9599C272.244 53.9599 271.74 54.0825 271.302 54.3278C270.872 54.5731 270.533 54.931 270.288 55.4017C270.05 55.8657 269.927 56.4258 269.92 57.0821ZM302.29 54.994L298.412 55.2326C298.346 54.9012 298.204 54.6029 297.985 54.3378C297.766 54.066 297.478 53.8505 297.12 53.6914C296.769 53.5257 296.348 53.4429 295.857 53.4429C295.201 53.4429 294.647 53.5821 294.197 53.8605C293.746 54.1323 293.52 54.4968 293.52 54.9542C293.52 55.3188 293.666 55.6271 293.958 55.879C294.25 56.1308 294.75 56.333 295.459 56.4855L298.224 57.0423C299.708 57.3472 300.815 57.8378 301.545 58.5139C302.274 59.19 302.638 60.0783 302.638 61.1787C302.638 62.1796 302.343 63.0579 301.753 63.8136C301.17 64.5693 300.368 65.1593 299.347 65.5835C298.333 66.0011 297.163 66.2099 295.837 66.2099C293.815 66.2099 292.205 65.789 291.005 64.9471C289.812 64.0986 289.112 62.9452 288.907 61.4869L293.073 61.2682C293.199 61.8846 293.504 62.3553 293.988 62.6801C294.472 62.9983 295.091 63.1574 295.847 63.1574C296.59 63.1574 297.186 63.0148 297.637 62.7298C298.094 62.4381 298.326 62.0636 298.333 61.6062C298.326 61.2218 298.164 60.9069 297.846 60.6616C297.528 60.4097 297.037 60.2175 296.374 60.0849L293.729 59.5579C292.238 59.2596 291.127 58.7426 290.398 58.0068C289.676 57.271 289.314 56.333 289.314 55.1929C289.314 54.2118 289.58 53.3666 290.11 52.6574C290.647 51.9481 291.399 51.4012 292.367 51.0167C293.341 50.6323 294.482 50.44 295.787 50.44C297.716 50.44 299.234 50.8477 300.341 51.663C301.455 52.4784 302.105 53.5887 302.29 54.994ZM321.453 49.7937H323.909C323.903 50.9471 323.73 51.9149 323.392 52.6971C323.054 53.4727 322.481 54.056 321.672 54.4471C320.87 54.8382 319.773 55.0338 318.381 55.0338V53.1446C319.302 53.1446 319.978 53.0219 320.409 52.7767C320.847 52.5314 321.128 52.1635 321.254 51.673C321.387 51.1758 321.453 50.5494 321.453 49.7937ZM315.199 59.4088V50.6389H319.425V65.9116H315.368V63.1375H315.209C314.864 64.0324 314.291 64.7516 313.489 65.2951C312.693 65.8387 311.722 66.1105 310.575 66.1105C309.555 66.1105 308.656 65.8785 307.881 65.4145C307.105 64.9504 306.499 64.2909 306.061 63.4358C305.63 62.5807 305.412 61.5565 305.405 60.3633V50.6389H309.641V59.6076C309.641 60.5092 309.879 61.2218 310.357 61.7454C310.841 62.2691 311.484 62.5309 312.286 62.5309C312.796 62.5309 313.27 62.4149 313.708 62.1829C314.152 61.9443 314.51 61.593 314.781 61.129C315.06 60.6649 315.199 60.0915 315.199 59.4088ZM310.914 48.6701L313.021 44.146H316.939L313.906 48.6701H310.914ZM332.058 66.2099C330.493 66.2099 329.148 65.8785 328.021 65.2156C326.901 64.5461 326.039 63.6181 325.436 62.4315C324.839 61.245 324.541 59.8794 324.541 58.3349C324.541 56.7705 324.842 55.3984 325.445 54.2184C326.055 53.0319 326.92 52.1072 328.041 51.4443C329.161 50.7748 330.493 50.44 332.038 50.44C333.37 50.44 334.537 50.682 335.538 51.1659C336.539 51.6498 337.331 52.3292 337.914 53.2042C338.498 54.0792 338.819 55.1067 338.879 56.2866H334.882C334.769 55.5243 334.471 54.9111 333.987 54.4471C333.509 53.9765 332.883 53.7412 332.107 53.7412C331.451 53.7412 330.878 53.9201 330.387 54.2781C329.903 54.6294 329.526 55.1432 329.254 55.8193C328.982 56.4954 328.846 57.3141 328.846 58.2753C328.846 59.2497 328.979 60.0783 329.244 60.7611C329.516 61.4438 329.897 61.9642 330.387 62.3221C330.878 62.6801 331.451 62.8591 332.107 62.8591C332.591 62.8591 333.026 62.7596 333.41 62.5608C333.801 62.3619 334.123 62.0736 334.374 61.6957C334.633 61.3112 334.802 60.8505 334.882 60.3136H338.879C338.812 61.4803 338.494 62.5077 337.924 63.396C337.361 64.2776 336.582 64.967 335.588 65.4642C334.593 65.9613 333.417 66.2099 332.058 66.2099ZM351.909 61.5167L351.919 56.4358H352.536L357.428 50.6389H362.29L355.718 58.315H354.713L351.909 61.5167ZM348.071 65.9116V45.548H352.307V65.9116H348.071ZM357.617 65.9116L353.122 59.2596L355.946 56.2667L362.578 65.9116H357.617ZM368.604 57.0821V65.9116H364.368V45.548H368.485V53.3335H368.664C369.008 52.432 369.565 51.726 370.334 51.2156C371.103 50.6986 372.067 50.44 373.227 50.44C374.288 50.44 375.213 50.672 376.002 51.1361C376.797 51.5934 377.414 52.253 377.851 53.1147C378.295 53.9699 378.514 54.994 378.507 56.1872V65.9116H374.271V56.9429C374.278 56.0016 374.039 55.2691 373.556 54.7454C373.078 54.2218 372.409 53.9599 371.547 53.9599C370.97 53.9599 370.46 54.0825 370.016 54.3278C369.578 54.5731 369.234 54.931 368.982 55.4017C368.736 55.8657 368.61 56.4258 368.604 57.0821ZM388.741 66.2099C387.197 66.2099 385.861 65.8818 384.734 65.2255C383.614 64.5627 382.749 63.6413 382.139 62.4613C381.529 61.2748 381.224 59.8993 381.224 58.3349C381.224 56.7573 381.529 55.3785 382.139 54.1986C382.749 53.012 383.614 52.0906 384.734 51.4343C385.861 50.7715 387.197 50.44 388.741 50.44C390.286 50.44 391.618 50.7715 392.738 51.4343C393.865 52.0906 394.734 53.012 395.344 54.1986C395.953 55.3785 396.258 56.7573 396.258 58.3349C396.258 59.8993 395.953 61.2748 395.344 62.4613C394.734 63.6413 393.865 64.5627 392.738 65.2255C391.618 65.8818 390.286 66.2099 388.741 66.2099ZM388.761 62.9287C389.464 62.9287 390.05 62.7298 390.521 62.3321C390.992 61.9277 391.346 61.3775 391.585 60.6815C391.83 59.9855 391.953 59.1933 391.953 58.3051C391.953 57.4168 391.83 56.6247 391.585 55.9287C391.346 55.2326 390.992 54.6825 390.521 54.2781C390.05 53.8737 389.464 53.6716 388.761 53.6716C388.052 53.6716 387.455 53.8737 386.971 54.2781C386.494 54.6825 386.133 55.2326 385.888 55.9287C385.649 56.6247 385.53 57.4168 385.53 58.3051C385.53 59.1933 385.649 59.9855 385.888 60.6815C386.133 61.3775 386.494 61.9277 386.971 62.3321C387.455 62.7298 388.052 62.9287 388.761 62.9287ZM390.302 48.4514H387.16L386.942 46.6616C387.644 46.6285 388.145 46.5357 388.443 46.3832C388.741 46.2241 388.887 46.0153 388.881 45.7568C388.887 45.3988 388.698 45.1569 388.314 45.0309C387.936 44.905 387.462 44.842 386.892 44.842L387.001 42.923C388.771 42.923 390.117 43.1616 391.038 43.6389C391.966 44.1162 392.427 44.779 392.42 45.6275C392.427 46.2307 392.208 46.6881 391.764 46.9997C391.327 47.3046 390.839 47.4968 390.302 47.5764V48.4514ZM405.973 66.2099C404.402 66.2099 403.05 65.8917 401.916 65.2554C400.789 64.6124 399.921 63.7042 399.311 62.5309C398.701 61.351 398.396 59.9557 398.396 58.3449C398.396 56.7738 398.701 55.395 399.311 54.2085C399.921 53.0219 400.779 52.0972 401.886 51.4343C403 50.7715 404.306 50.44 405.804 50.44C406.811 50.44 407.749 50.6024 408.618 50.9272C409.493 51.2454 410.255 51.726 410.905 52.369C411.561 53.012 412.071 53.8207 412.436 54.7951C412.8 55.7629 412.983 56.8965 412.983 58.1957V59.3591H400.086V56.7341H408.996C408.996 56.1242 408.863 55.584 408.598 55.1133C408.333 54.6427 407.965 54.2748 407.494 54.0096C407.03 53.7379 406.49 53.602 405.873 53.602C405.23 53.602 404.66 53.7511 404.163 54.0494C403.673 54.3411 403.288 54.7355 403.01 55.2326C402.731 55.7232 402.589 56.27 402.582 56.8733V59.369C402.582 60.1247 402.721 60.7776 403 61.3278C403.285 61.878 403.686 62.3022 404.203 62.6005C404.72 62.8988 405.333 63.048 406.042 63.048C406.513 63.048 406.944 62.9817 407.335 62.8491C407.726 62.7165 408.061 62.5177 408.339 62.2525C408.618 61.9874 408.83 61.6626 408.976 61.2781L412.893 61.5366C412.694 62.4779 412.287 63.2999 411.67 64.0025C411.06 64.6986 410.272 65.2421 409.304 65.6332C408.343 66.0177 407.232 66.2099 405.973 66.2099Z" fill="white"/>
<defs>
<linearGradient id="paint0_linear_284_67806" x1="5.19922" y1="5.51172" x2="472.21" y2="16.5366" gradientUnits="userSpaceOnUse">
<stop stop-color="#EA6544"/>
<stop offset="1" stop-color="#D12A1E"/>
</linearGradient>
<linearGradient id="paint1_linear_284_67806" x1="112.713" y1="103.663" x2="140.011" y2="103.663" gradientUnits="userSpaceOnUse">
<stop stop-color="#FFBF74"/>
<stop offset="1" stop-color="#F4973B"/>
</linearGradient>
<linearGradient id="paint2_linear_284_67806" x1="97.2148" y1="79.6937" x2="107.997" y2="79.6937" gradientUnits="userSpaceOnUse">
<stop stop-color="#FFBF74"/>
<stop offset="1" stop-color="#F4973B"/>
</linearGradient>
<linearGradient id="paint3_linear_284_67806" x1="102.02" y1="67.1658" x2="102.682" y2="67.1658" gradientUnits="userSpaceOnUse">
<stop stop-color="#FFBF74"/>
<stop offset="1" stop-color="#F4973B"/>
</linearGradient>
<linearGradient id="paint4_linear_284_67806" x1="125.328" y1="65.9652" x2="133.579" y2="65.9652" gradientUnits="userSpaceOnUse">
<stop stop-color="#FFBF74"/>
<stop offset="1" stop-color="#F4973B"/>
</linearGradient>
<linearGradient id="paint5_linear_284_67806" x1="125.318" y1="66.0839" x2="133.58" y2="66.0839" gradientUnits="userSpaceOnUse">
<stop stop-color="#FFBF74"/>
<stop offset="1" stop-color="#F4973B"/>
</linearGradient>
<linearGradient id="paint6_linear_284_67806" x1="97.8216" y1="78.5778" x2="107.457" y2="78.5778" gradientUnits="userSpaceOnUse">
<stop stop-color="#FFBF74"/>
<stop offset="1" stop-color="#F4973B"/>
</linearGradient>
<linearGradient id="paint7_linear_284_67806" x1="97.2363" y1="87.4708" x2="100.458" y2="87.4708" gradientUnits="userSpaceOnUse">
<stop stop-color="#FFBF74"/>
<stop offset="1" stop-color="#F4973B"/>
</linearGradient>
<linearGradient id="paint8_linear_284_67806" x1="105.23" y1="86.9928" x2="108.007" y2="86.9928" gradientUnits="userSpaceOnUse">
<stop stop-color="#FFBF74"/>
<stop offset="1" stop-color="#F4973B"/>
</linearGradient>
<clipPath id="clip0_284_67806">
<rect x="76.7988" y="17.5117" width="76.8" height="76.8" rx="38.4" fill="white"/>
</clipPath>
<clipPath id="clip1_284_67806">
<rect width="83.7547" height="88.8" fill="white" transform="translate(73.5391 17.5117)"/>
</clipPath>
</defs>
</svg>
