<svg width="55" height="55" viewBox="0 0 55 55" fill="none" xmlns="http://www.w3.org/2000/svg">
<g clip-path="url(#clip0_284_67946)">
<path fill-rule="evenodd" clip-rule="evenodd" d="M27.8219 43.0843C26.9516 41.0958 26.4688 38.8992 26.4688 36.5897C26.4688 27.6357 33.7275 20.377 42.6815 20.377C46.0123 20.377 49.1085 21.3814 51.6838 23.1038V6.63468C51.6838 3.86125 49.4146 1.59208 46.6412 1.59208L6.30041 1.58984C3.52698 1.58984 1.25781 3.85901 1.25781 6.63244V38.0417C1.25781 40.8151 3.52698 43.0843 6.30041 43.0843H9.80131V51.5971C9.80131 52.7302 11.2053 53.2585 11.9523 52.4065L20.1257 43.0843H27.8219Z" fill="#FFC76F"/>
<path d="M27.8219 43.0843V43.7943H28.9077L28.4723 42.7996L27.8219 43.0843ZM51.6838 23.1038L51.2891 23.694L52.3938 24.4329V23.1038H51.6838ZM46.6412 1.59208L46.6412 2.30208H46.6412V1.59208ZM6.30041 1.58984L6.30045 0.879844H6.30041V1.58984ZM9.80131 43.0843H10.5113V42.3743H9.80131V43.0843ZM11.9523 52.4065L11.4185 51.9385H11.4185L11.9523 52.4065ZM20.1257 43.0843V42.3743H19.8039L19.5918 42.6162L20.1257 43.0843ZM27.8219 43.0843L28.4723 42.7996C27.6406 40.8992 27.1787 38.7994 27.1787 36.5897H26.4688H25.7588C25.7588 38.999 26.2626 41.2925 27.1715 43.369L27.8219 43.0843ZM26.4688 36.5897H27.1787C27.1787 28.0278 34.1196 21.087 42.6815 21.087V20.377V19.667C33.3353 19.667 25.7588 27.2435 25.7588 36.5897H26.4688ZM42.6815 20.377V21.087C45.8675 21.087 48.827 22.0472 51.2891 23.694L51.6838 23.1038L52.0785 22.5137C49.3901 20.7155 46.1572 19.667 42.6815 19.667V20.377ZM51.6838 23.1038H52.3938V6.63468H51.6838H50.9738V23.1038H51.6838ZM51.6838 6.63468H52.3938C52.3938 3.46913 49.8067 0.88208 46.6412 0.88208V1.59208V2.30208C49.0225 2.30208 50.9738 4.25337 50.9738 6.63468H51.6838ZM46.6412 1.59208L46.6412 0.88208L6.30045 0.879844L6.30041 1.58984L6.30037 2.29984L46.6412 2.30208L46.6412 1.59208ZM6.30041 1.58984V0.879844C3.13486 0.879844 0.547813 3.46689 0.547813 6.63244H1.25781H1.96781C1.96781 4.25114 3.9191 2.29984 6.30041 2.29984V1.58984ZM1.25781 6.63244H0.547813V38.0417H1.25781H1.96781V6.63244H1.25781ZM1.25781 38.0417H0.547813C0.547813 41.2072 3.13486 43.7943 6.30041 43.7943V43.0843V42.3743C3.9191 42.3743 1.96781 40.423 1.96781 38.0417H1.25781ZM6.30041 43.0843V43.7943H9.80131V43.0843V42.3743H6.30041V43.0843ZM9.80131 43.0843H9.09131V51.5971H9.80131H10.5113V43.0843H9.80131ZM9.80131 51.5971H9.09131C9.09131 53.3854 11.3072 54.2193 12.4862 52.8746L11.9523 52.4065L11.4185 51.9385C11.1034 52.2978 10.5113 52.075 10.5113 51.5971H9.80131ZM11.9523 52.4065L12.4862 52.8746L20.6595 43.5523L20.1257 43.0843L19.5918 42.6162L11.4185 51.9385L11.9523 52.4065ZM20.1257 43.0843V43.7943H27.8219V43.0843V42.3743H20.1257V43.0843Z" fill="#985801"/>
<path d="M45.4688 14.1523L9.80984 14.1523" stroke="#985801" stroke-width="1.42" stroke-linecap="round"/>
<path d="M23.0938 21.8652L9.80826 21.8652" stroke="#985801" stroke-width="1.42" stroke-linecap="round"/>
<path d="M19.2344 29.5801L9.80603 29.5801" stroke="#985801" stroke-width="1.42" stroke-linecap="round"/>
<ellipse cx="42.6802" cy="36.5904" rx="11.3404" ry="11.3404" fill="url(#paint0_linear_284_67946)"/>
<path fill-rule="evenodd" clip-rule="evenodd" d="M39.0099 33.4042C38.696 33.4042 38.4417 33.1422 38.4904 32.8327C38.7943 30.9526 40.2268 29.582 42.7126 29.582C45.1996 29.582 46.8763 31.0853 46.8763 33.1356C46.8763 34.6211 46.1413 35.6645 44.8978 36.4217C43.682 37.1501 43.3349 37.6574 43.3349 38.6434V38.6765C43.3349 38.8231 43.2767 38.9637 43.1731 39.0673C43.0694 39.1709 42.9289 39.2292 42.7823 39.2292H41.9312C41.7856 39.2292 41.6458 39.1717 41.5423 39.0693C41.4389 38.9668 41.38 38.8277 41.3785 38.682L41.3752 38.461C41.3277 37.1114 41.9025 36.2493 43.1935 35.4634C44.3319 34.7648 44.7376 34.2089 44.7376 33.2218C44.7376 32.1397 43.8997 31.345 42.6087 31.345C41.4935 31.345 40.7187 31.9297 40.4667 32.8946C40.3937 33.1754 40.1594 33.4042 39.8698 33.4042H39.0099ZM42.349 43.5981C43.0365 43.5981 43.5593 43.0742 43.5593 42.3933C43.5593 41.7102 43.0365 41.1863 42.349 41.1863C41.6792 41.1863 41.1475 41.7102 41.1475 42.3922C41.1475 43.0742 41.6792 43.5981 42.349 43.5981Z" fill="white" stroke="white" stroke-width="0.982248"/>
</g>
<defs>
<linearGradient id="paint0_linear_284_67946" x1="42.6802" y1="25.25" x2="42.6802" y2="45.8689" gradientUnits="userSpaceOnUse">
<stop stop-color="#E1590A"/>
<stop offset="1" stop-color="#C23102"/>
</linearGradient>
<clipPath id="clip0_284_67946">
<rect width="54" height="54" fill="white" transform="translate(0.193359 0.498047)"/>
</clipPath>
</defs>
</svg>
