<svg width="55" height="55" viewBox="0 0 55 55" fill="none" xmlns="http://www.w3.org/2000/svg">
<path d="M38.6527 3.93708C39.1592 4.44262 39.4447 5.12768 39.4468 5.84262V44.5044C39.4468 47.4906 41.8676 49.9113 44.8537 49.9113H7.90619C6.71227 49.9078 5.56828 49.4329 4.72405 48.5903C3.87982 47.7478 3.40396 46.6061 3.40039 45.4145V5.84262C3.40247 5.12768 3.68797 4.44262 4.19452 3.93708C4.70107 3.43154 5.3875 3.14661 6.10387 3.14453H36.7433C37.4597 3.14661 38.1461 3.43154 38.6527 3.93708Z" fill="#FFC76F" stroke="#985801" stroke-width="1.61992" stroke-linejoin="round"/>
<path d="M18.5904 22.2909H11.3665C10.8875 22.2909 10.4282 22.1006 10.0895 21.7619C9.75082 21.4232 9.56055 20.9639 9.56055 20.4849V13.261C9.56055 12.7821 9.75082 12.3227 10.0895 11.984C10.4282 11.6453 10.8875 11.4551 11.3665 11.4551H18.5904C19.0694 11.4551 19.5287 11.6453 19.8674 11.984C20.2061 12.3227 20.3964 12.7821 20.3964 13.261V20.4849C20.3964 20.9639 20.2061 21.4232 19.8674 21.7619C19.5287 22.1006 19.0694 22.2909 18.5904 22.2909Z" fill="url(#paint0_linear_284_67966)"/>
<path d="M34.7617 20.3081C34.7617 21.3056 33.9531 22.1143 32.9556 22.1143H24.7319C23.7344 22.1143 22.9258 21.3056 22.9258 20.3081C22.9258 19.3106 23.7344 18.502 24.7319 18.502H32.9556C33.9531 18.502 34.7617 19.3106 34.7617 20.3081ZM34.7617 13.439C34.7617 14.4365 33.9531 15.2451 32.9556 15.2451H24.7319C23.7344 15.2451 22.9258 14.4365 22.9258 13.439C22.9258 12.4415 23.7344 11.6328 24.7319 11.6328H32.9556C33.9531 11.6328 34.7617 12.4415 34.7617 13.439Z" fill="url(#paint1_linear_284_67966)"/>
<path d="M41.0375 48.3314C42.0495 49.3434 43.4221 49.9119 44.8532 49.9119C46.2844 49.9119 47.6569 49.3434 48.6689 48.3314C49.6809 47.3194 50.2494 45.9469 50.2494 44.5157V14.8368C50.2494 14.1212 49.9651 13.4349 49.4591 12.9289C48.9531 12.4229 48.2669 12.1387 47.5513 12.1387H39.457V44.5157C39.457 45.9469 40.0256 47.3194 41.0375 48.3314Z" fill="white" stroke="#985801" stroke-width="1.61992" stroke-linejoin="round"/>
<path d="M33.3535 27.9492L9.93438 27.9492" stroke="#985801" stroke-width="1.61992" stroke-linecap="round" stroke-linejoin="round"/>
<path d="M33.3535 27.9492L9.93438 27.9492" stroke="#985801" stroke-width="1.61992" stroke-linecap="round" stroke-linejoin="round"/>
<path d="M33.3535 34.9492L9.93438 34.9492" stroke="#985801" stroke-width="1.61992" stroke-linecap="round" stroke-linejoin="round"/>
<path d="M33.3535 41.9492L9.93438 41.9492" stroke="#985801" stroke-width="1.61992" stroke-linecap="round" stroke-linejoin="round"/>
<defs>
<linearGradient id="paint0_linear_284_67966" x1="14.9785" y1="11.4551" x2="14.9785" y2="22.2909" gradientUnits="userSpaceOnUse">
<stop stop-color="#E1590A"/>
<stop offset="1" stop-color="#C23102"/>
</linearGradient>
<linearGradient id="paint1_linear_284_67966" x1="28.8438" y1="11.6328" x2="28.8438" y2="22.1143" gradientUnits="userSpaceOnUse">
<stop stop-color="#E1590A"/>
<stop offset="1" stop-color="#C23102"/>
</linearGradient>
</defs>
</svg>
