<svg width="561" height="81" viewBox="0 0 561 81" fill="none" xmlns="http://www.w3.org/2000/svg">
<path d="M44.479 77.7757C43.9672 77.7757 43.4856 77.5801 43.1244 77.2188L28.1182 62.2127C27.3807 61.4752 27.3807 60.256 28.1182 59.5185L31.279 56.3577L28.7955 53.8743L25.6649 57.0049C25.3036 57.3662 24.822 57.5618 24.3102 57.5618C23.7985 57.5618 23.3169 57.3662 22.9556 57.0049L7.94948 41.9988C7.58824 41.6376 7.39258 41.1559 7.39258 40.6442C7.39258 40.1324 7.58824 39.6508 7.94948 39.3046L22.9707 24.2985C23.3319 23.9372 23.8135 23.7416 24.3253 23.7416C24.837 23.7416 25.3036 23.9372 25.6649 24.2985L28.7955 27.4291L31.279 24.9457L28.1182 21.7698C27.3807 21.0323 27.3807 19.8282 28.1182 19.0757L43.1394 4.05446C43.5007 3.69323 43.9823 3.49756 44.494 3.49756C45.0058 3.49756 45.4874 3.69323 45.8487 4.05446L60.8699 19.0606C61.6074 19.8132 61.6074 21.0173 60.8699 21.7548L57.6188 25.0059L60.1323 27.5194L63.3834 24.2684C63.7597 23.9071 64.2263 23.7265 64.723 23.7265C65.2197 23.7265 65.6863 23.9071 66.0475 24.2533L81.0837 39.2896C81.445 39.6508 81.6406 40.1324 81.6406 40.6442C81.6406 41.1559 81.445 41.6376 81.0837 41.9837L66.0776 56.9899C65.7164 57.3511 65.2347 57.5468 64.738 57.5468C64.2263 57.5468 63.7447 57.3511 63.3834 56.9899L60.1474 53.7539L57.6338 56.2674L60.8849 59.5185C61.2461 59.8797 61.4418 60.3614 61.4418 60.8731C61.4418 61.3849 61.2461 61.8665 60.8849 62.2127L45.8637 77.2188C45.5025 77.5801 45.0208 77.7757 44.5091 77.7757H44.479ZM44.479 73.17L56.806 60.843L54.9095 58.9466L45.7583 68.0977C45.3971 68.459 44.9155 68.6546 44.4037 68.6546C43.892 68.6546 43.4103 68.459 43.0491 68.0977L33.9732 59.0218L32.152 60.843L44.4639 73.17H44.479ZM44.3887 64.064L52.2003 56.2524L50.0329 54.0699L45.7583 58.3596C45.3971 58.7208 44.9155 58.9165 44.4037 58.9165C43.892 58.9165 43.4254 58.7208 43.0642 58.3596L38.8498 54.1452L36.6523 56.3276L44.3736 64.064H44.3887ZM44.3887 54.3108L47.3237 51.3758L44.4639 48.516L41.5289 51.451L44.3887 54.3108ZM33.9581 53.6334L43.2297 44.3769L43.3351 44.3167C43.6662 44.0608 44.0575 43.9254 44.479 43.9254C44.9004 43.9254 45.3219 44.0759 45.653 44.3468L45.7132 44.3769L54.8945 53.5582L57.4081 51.0296L48.2268 41.8483L48.1515 41.7279C48.0762 41.6225 48.001 41.5172 47.9408 41.3967C47.8204 41.1108 47.7752 40.9 47.7752 40.6743V40.4786C47.7752 40.313 47.8204 40.1174 47.8956 39.9217C48.001 39.6508 48.1364 39.4401 48.3171 39.2595L57.393 30.1835L54.8794 27.67L45.8035 36.7459C45.653 36.8964 45.4573 37.0319 45.2617 37.1222L45.081 37.2426H44.8703C44.7499 37.2877 44.6295 37.3028 44.5091 37.3028H44.4338L44.2231 37.2727C44.0877 37.2727 43.9371 37.2275 43.8017 37.1824C43.6963 37.1372 43.606 37.0921 43.5308 37.0469H43.4254L33.9882 27.5947L31.5048 30.0782L35.0268 33.6002L37.0888 35.6321L40.7011 39.2444C40.8817 39.425 41.0322 39.6357 41.1225 39.8766L41.1978 40.0572V40.1324C41.2279 40.2679 41.258 40.4034 41.258 40.5539C41.258 41.0957 41.0623 41.5774 40.7011 41.9235L31.5198 51.1199L34.0033 53.6033L33.9581 53.6334ZM24.2952 52.9561L26.0863 51.165L16.8899 41.9837C16.1524 41.2312 16.1524 40.0271 16.8899 39.2896L26.0863 30.0932L24.2952 28.3021L11.9682 40.6291L24.2952 52.9561ZM64.6778 52.9561L76.9898 40.6442L64.6628 28.3172L62.7663 30.2136L71.8573 39.2896C72.2185 39.6508 72.4142 40.1324 72.4142 40.6442C72.4142 41.1559 72.2185 41.6376 71.8573 41.9837L62.7814 51.0597L64.6778 52.9561ZM28.7805 48.4709L30.9479 46.3035L26.6281 41.9837C25.8906 41.2312 25.8906 40.0271 26.6281 39.2896L30.9479 34.9698L28.7654 32.7874L20.9237 40.6291L28.7805 48.4558V48.4709ZM60.0872 48.3655L67.8236 40.6291L60.0872 32.9078L57.9047 35.0752L62.1041 39.2745C62.4653 39.6357 62.661 40.1174 62.661 40.6291C62.661 41.1409 62.4653 41.6225 62.1041 41.9837L57.9047 46.1831L60.0872 48.3655ZM33.6571 43.6093L36.6222 40.6442L33.6571 37.6791L30.6769 40.6442L33.6571 43.6093ZM55.2106 43.5039L58.0703 40.6442L55.2106 37.7844L52.3508 40.6442L55.2106 43.5039ZM44.4489 32.7422L47.3086 29.8825L44.3736 26.9475L41.5139 29.8072L44.4489 32.7422ZM44.3736 22.3568C44.8703 22.3568 45.3369 22.5375 45.6981 22.8836L50.0028 27.1883L52.1852 25.0059L44.3887 17.2093L36.6523 24.9457L38.8197 27.1131L43.019 22.9137C43.3953 22.5525 43.8769 22.3719 44.3736 22.3719V22.3568ZM44.3736 12.6337C44.8703 12.6337 45.3369 12.8143 45.6981 13.1605L54.8794 22.3267L56.7759 20.4152L44.4489 8.08821L32.1369 20.4152L33.9581 22.2364L43.0341 13.1755C43.4103 12.8143 43.892 12.6337 44.3736 12.6337Z" fill="url(#paint0_linear_284_69664)"/>
<path d="M80.3316 39.9951L65.3254 24.989C64.9792 24.6578 64.4223 24.6578 64.0762 24.989L60.1177 28.9474L56.1592 24.989L60.1327 21.0154C60.4789 20.6692 60.4789 20.1123 60.1327 19.7661L45.1115 4.76C44.7653 4.41382 44.2084 4.41382 43.8623 4.76L28.8561 19.7661C28.5099 20.1123 28.5099 20.6692 28.8561 21.0154L32.7393 24.8986L28.811 28.827L24.9578 24.9739C24.6116 24.6277 24.0547 24.6277 23.7086 24.9739L8.68737 39.98C8.34119 40.3262 8.34119 40.8831 8.68737 41.2293L23.6935 56.2355C24.0397 56.5816 24.5966 56.5816 24.9428 56.2355L28.7959 52.3823L32.7243 56.3107L28.8411 60.1939C28.4949 60.5401 28.4949 61.097 28.8411 61.4432L43.8472 76.4493C44.1934 76.7955 44.7503 76.7955 45.0965 76.4493L60.1177 61.4432C60.4638 61.097 60.4638 60.5401 60.1177 60.1939L56.1441 56.2355L60.1026 52.277L64.0611 56.2355C64.4073 56.5816 64.9642 56.5816 65.3104 56.2355L80.3165 41.2143C80.6627 40.8681 80.6627 40.3112 80.3165 39.965L80.3316 39.9951ZM55.226 36.3226L59.5156 40.6273L55.226 44.9169L50.9213 40.6273L54.7444 36.8042L55.2109 36.3376L55.226 36.3226ZM56.4753 46.1661L61.397 41.2444C61.7432 40.8982 61.7432 40.3413 61.397 39.9951L56.4753 35.0733L60.1026 31.461L69.2839 40.6273L60.1177 49.7935L56.4903 46.1661H56.4753ZM48.4379 30.1817L44.4643 34.1552L40.0844 29.7753L44.374 25.4706L48.7539 29.8505L48.4228 30.1817H48.4379ZM50.0182 28.6013L45.0212 23.6042C44.675 23.2731 44.1181 23.2731 43.772 23.6042L38.8502 28.526L35.2379 24.9137L44.4041 15.7475L53.6456 24.989L50.0182 28.6163V28.6013ZM44.4643 6.62636L58.2363 20.3833L54.8949 23.7397L45.0212 13.8811C44.675 13.55 44.1181 13.55 43.772 13.8811L33.9736 23.6494L30.7074 20.3833L44.4643 6.62636ZM33.6725 45.0222L29.2474 40.6122L33.6725 36.2022L38.0826 40.6122L33.6725 45.0222ZM32.4082 34.9529L27.366 39.9951C27.0199 40.3413 27.0199 40.8982 27.366 41.2444L32.4082 46.2865L28.7959 49.8989L19.4942 40.6273L28.7809 31.3406L32.3932 34.9529H32.4082ZM24.3106 54.3841L10.5537 40.6273L24.3106 26.8704L27.5466 30.1064L17.6278 40.0102C17.2817 40.3563 17.2817 40.9132 17.6278 41.2594L27.5316 51.1632L24.2956 54.3992L24.3106 54.3841ZM42.9893 48.5593L44.4794 47.0692L48.769 51.3588L44.3891 55.7237L40.0994 51.4341L42.9893 48.5442V48.5593ZM38.8502 52.6984L43.772 57.6202C44.1181 57.9664 44.675 57.9664 45.0212 57.6202L50.0182 52.6231L53.6306 56.2505L44.374 65.507L35.2078 56.3408L38.8351 52.7134L38.8502 52.6984ZM44.4794 74.598L30.7225 60.8411L33.9736 57.575L43.772 67.3734C44.1181 67.7196 44.675 67.7196 45.0212 67.3734L54.8949 57.4998L58.2363 60.8411L44.4643 74.598H44.4794ZM54.9099 54.9862L47.881 47.9723L45.1115 45.2029C45.1115 45.2029 45.0965 45.2028 45.0814 45.1878C44.7653 44.8717 44.2686 44.8717 43.9375 45.1577C43.9074 45.1577 43.8924 45.1878 43.8623 45.2029L33.9886 55.0615L30.0753 51.1331L31.9567 49.2516L39.979 41.2293C40.1446 41.0637 40.2349 40.838 40.2349 40.5971C40.2349 40.4918 40.2048 40.4015 40.1747 40.3112V40.266C40.1295 40.1607 40.0693 40.0553 39.979 39.98L36.3667 36.3677L34.3047 34.3208L30.0602 30.0763L33.9886 26.1479L43.8472 36.0216C43.8472 36.0216 43.8773 36.0216 43.8924 36.0517C43.8924 36.0517 44.0429 36.1721 44.1332 36.2172C44.2084 36.2473 44.2987 36.2624 44.374 36.2624C44.4041 36.2624 44.4493 36.2774 44.4794 36.2774C44.5546 36.2774 44.6449 36.2624 44.7202 36.2323C44.7503 36.2323 44.7804 36.2323 44.8105 36.2172C44.9159 36.1721 45.0212 36.1119 45.1115 36.0216L54.9099 26.2232L58.8684 30.1817L49.07 39.98C48.9797 40.0704 48.9195 40.1607 48.8743 40.266C48.8442 40.3563 48.8292 40.4466 48.8141 40.5369C48.8141 40.552 48.8141 40.5821 48.8141 40.5971V40.6423C48.8141 40.7477 48.8442 40.838 48.8743 40.9433C48.9044 41.0186 48.9496 41.0788 48.9948 41.139C49.0098 41.1691 49.0399 41.2143 49.055 41.2444L58.8534 51.0428L54.8949 55.0012L54.9099 54.9862ZM64.7083 54.3691L61.3669 51.0277L71.1653 41.2293C71.5115 40.8831 71.5115 40.3262 71.1653 39.98L61.3519 30.1817L64.6933 26.8403L78.4501 40.5971L64.6933 54.354L64.7083 54.3691Z" fill="url(#paint1_linear_284_69664)"/>
<path d="M168.787 77.7833C148.302 77.7833 131.641 61.1215 131.641 40.6367C131.641 20.1519 148.302 3.49011 168.787 3.49011C189.272 3.49011 205.934 20.1519 205.934 40.6367C205.934 61.1215 189.272 77.7833 168.787 77.7833ZM168.787 7.10242C150.289 7.10242 135.238 22.1537 135.238 40.6518C135.238 59.1498 150.289 74.2011 168.787 74.2011C187.285 74.2011 202.337 59.1498 202.337 40.6518C202.337 22.1537 187.285 7.08737 168.787 7.08737V7.10242Z" fill="url(#paint2_linear_284_69664)"/>
<path d="M168.787 69.6408C152.788 69.6408 139.783 56.6365 139.783 40.6369C139.783 24.6374 152.788 11.6331 168.787 11.6331C184.756 11.6481 197.776 24.6675 197.791 40.6369C197.791 56.6365 184.787 69.6408 168.787 69.6408ZM168.787 15.2303C154.774 15.2303 143.38 26.6242 143.38 40.6369C143.38 54.6497 154.774 66.0435 168.787 66.0435C182.785 66.0285 194.179 54.6346 194.194 40.6369C194.194 26.6242 182.8 15.2303 168.787 15.2303Z" fill="url(#paint3_linear_284_69664)"/>
<path d="M181.19 57.7047C180.211 57.7047 179.399 56.8919 179.399 55.9136V54.8901H178.375C177.382 54.8901 176.584 54.0774 176.584 53.0991C176.584 52.1057 177.382 51.2929 178.375 51.2929H179.399V50.2695C179.399 49.7878 179.579 49.3363 179.925 49.0052C180.271 48.6741 180.708 48.4784 181.19 48.4784C182.183 48.4784 182.981 49.2761 182.996 50.2695V51.2929H184.019L184.064 51.4736V51.2929C184.998 51.3531 185.72 52.0756 185.765 52.9937C185.825 53.9871 185.058 54.8299 184.064 54.8901H182.981V55.9136C182.981 56.907 182.168 57.7197 181.19 57.7197V57.7047Z" fill="url(#paint4_linear_284_69664)"/>
<path d="M156.265 57.7202C155.271 57.7202 154.458 56.9075 154.458 55.9141V54.8907H153.435C152.442 54.8907 151.644 54.0779 151.629 53.0996C151.629 52.1062 152.442 51.2935 153.42 51.2935H154.443V50.27C154.443 49.2766 155.256 48.4639 156.25 48.4639C157.243 48.4639 158.041 49.2616 158.056 50.2399V51.2784H160.735L160.404 51.9407C160.644 52.2266 160.81 52.6029 160.825 53.0093C160.855 53.4909 160.69 53.9575 160.374 54.3037C160.057 54.6649 159.606 54.8756 159.139 54.9057H158.056V55.9292C158.056 56.9225 157.243 57.7353 156.25 57.7353L156.265 57.7202Z" fill="url(#paint5_linear_284_69664)"/>
<path d="M166.694 62.1467C166.182 62.1467 165.7 61.936 165.354 61.5597C165.038 61.1985 164.873 60.7469 164.888 60.2653C164.903 59.7837 165.113 59.3472 165.475 59.016L166.167 58.3237L165.445 57.6013C164.767 56.8939 164.767 55.8102 165.414 55.1178C165.761 54.7566 166.227 54.5459 166.724 54.5459C167.175 54.5459 167.612 54.7115 167.958 55.0275L168.711 55.7801L169.433 55.0576C169.809 54.7265 170.231 54.5609 170.682 54.5609C171.134 54.5609 171.555 54.7265 171.871 55.0125C172.609 55.6747 172.684 56.8036 172.022 57.5561L171.254 58.3237L171.977 59.0462C172.308 59.3773 172.503 59.8439 172.503 60.3255C172.503 61.3189 171.691 62.1316 170.712 62.1316C170.231 62.1316 169.779 61.951 169.448 61.6048L168.726 60.8824L168.003 61.6048C167.582 61.9962 167.145 62.1617 166.694 62.1617V62.1467Z" fill="url(#paint6_linear_284_69664)"/>
<path d="M184.396 44.3975C183.944 44.3975 183.508 44.232 183.161 43.9159C182.439 43.2386 182.394 42.0947 183.071 41.3723L183.824 40.6197L183.101 39.8973C182.725 39.4909 182.544 39.0394 182.559 38.5577C182.559 38.0761 182.77 37.6246 183.116 37.2934C183.447 36.9774 183.899 36.7968 184.351 36.7968C184.847 36.7968 185.314 37.0075 185.66 37.3536L186.367 38.061L187.09 37.3386C187.421 36.9924 187.888 36.8118 188.369 36.8118C188.851 36.8118 189.302 36.9924 189.633 37.3386C190.341 38.0309 190.341 39.1748 189.633 39.8822L188.911 40.6047L189.633 41.3271C190.311 42.0345 190.311 43.1182 189.664 43.8105C189.332 44.1718 188.851 44.3825 188.354 44.3825C187.903 44.3825 187.466 44.2169 187.12 43.9008L186.367 43.1483L185.645 43.8707C185.299 44.2019 184.847 44.3825 184.381 44.3825L184.396 44.3975Z" fill="url(#paint7_linear_284_69664)"/>
<path d="M181.205 32.7802C180.211 32.7802 179.414 31.9674 179.414 30.9891V29.9656H178.39C177.397 29.9656 176.584 29.1529 176.584 28.1595C176.584 27.1662 177.397 26.3534 178.39 26.3534H179.414V25.3299C179.414 24.3366 180.211 23.5238 181.205 23.5238C182.198 23.5238 183.011 24.3215 183.011 25.3149V26.3383H184.034C185.013 26.3835 185.735 27.121 185.795 28.0391C185.855 29.0325 185.088 29.8753 184.094 29.9355H183.011V30.959C183.011 31.9524 182.213 32.7501 181.22 32.7651L181.205 32.7802Z" fill="url(#paint8_linear_284_69664)"/>
<path d="M166.785 44.415C166.304 44.415 165.852 44.2344 165.521 43.8882C164.829 43.1959 164.814 42.052 165.506 41.3597L166.243 40.6222L165.521 39.8997C164.844 39.1923 164.844 38.1086 165.491 37.4163C165.822 37.0551 166.304 36.8444 166.8 36.8444C167.252 36.8444 167.688 37.0099 168.035 37.326L168.787 38.0785L169.51 37.3561C169.871 37.025 170.307 36.8444 170.774 36.8444C171.24 36.8444 171.662 37.0099 172.008 37.326C172.73 38.0033 172.776 39.1472 172.098 39.8696L171.346 40.6222L172.068 41.3446C172.745 42.052 172.745 43.1357 172.098 43.828C171.767 44.1893 171.286 44.4 170.789 44.4C170.337 44.4 169.901 44.2344 169.555 43.9183L168.802 43.1658L168.08 43.8882C167.733 44.2344 167.282 44.415 166.815 44.415H166.785Z" fill="url(#paint9_linear_284_69664)"/>
<path d="M174.627 41.1326C174.176 41.1326 173.739 40.967 173.393 40.6509C173.047 40.3198 172.836 39.8833 172.821 39.4017C172.806 38.9201 172.972 38.4685 173.303 38.1073L174.055 37.3548L173.333 36.6323C173.212 36.5119 173.122 36.3915 173.032 36.241C172.926 36.1808 172.836 36.1055 172.746 36.0152L172.008 35.2777L171.286 36.0002C170.925 36.3313 170.488 36.4969 170.037 36.4969C169.585 36.4969 169.179 36.3313 168.848 36.0453C168.11 35.3831 168.035 34.2542 168.697 33.5017L169.465 32.7341L168.742 32.0116C168.065 31.3042 168.065 30.2206 168.712 29.5282C169.043 29.167 169.525 28.9563 170.022 28.9563C170.473 28.9563 170.91 29.1218 171.256 29.4379L172.008 30.1754L172.731 29.453C173.122 29.0767 173.559 28.9111 174.025 28.9111C174.522 28.9111 174.988 29.1218 175.335 29.468C175.666 29.8142 175.846 30.2808 175.831 30.7474C175.831 31.229 175.621 31.6805 175.274 32.0116L174.567 32.719L175.289 33.4415C175.41 33.5619 175.5 33.6823 175.575 33.8178C175.681 33.878 175.771 33.9532 175.861 34.0435L176.599 34.781L177.321 34.0586C177.758 33.6673 178.179 33.5017 178.631 33.5017C179.143 33.5017 179.624 33.7124 179.97 34.1037C180.286 34.465 180.452 34.9165 180.437 35.3981C180.422 35.8798 180.196 36.3162 179.85 36.6474L179.158 37.3397L179.88 38.0622C180.527 38.7846 180.542 39.8081 179.925 40.5004C179.579 40.8918 179.097 41.1025 178.571 41.1025C178.134 41.1025 177.713 40.9369 177.382 40.6509L176.614 39.8833L175.892 40.6058C175.53 40.9369 175.094 41.1175 174.627 41.1175V41.1326Z" fill="url(#paint10_linear_284_69664)"/>
<path d="M163.488 52.2565C163.006 52.2565 162.555 52.0759 162.224 51.7298C161.893 51.3986 161.697 50.9471 161.697 50.4655C161.697 49.9838 161.878 49.5323 162.224 49.1861L162.946 48.4637L162.224 47.7412C162.103 47.6208 162.013 47.5004 161.923 47.3499C161.817 47.2747 161.727 47.1994 161.637 47.1091L160.914 46.3866L160.312 46.9887L160.282 47.0338L160.117 47.1693C159.846 47.4402 159.394 47.6359 158.928 47.6359C158.461 47.6359 157.994 47.4553 157.648 47.1091C156.956 46.4167 156.956 45.2729 157.648 44.5655L158.371 43.843L157.648 43.1206C157.227 42.669 157.061 42.2025 157.091 41.7208C157.121 41.2392 157.332 40.8027 157.678 40.4716C158.009 40.1706 158.431 40.005 158.882 40.005C159.394 40.005 159.876 40.2157 160.222 40.607L160.914 41.2994L161.637 40.5769C161.983 40.2308 162.434 40.0502 162.916 40.0502C163.398 40.0502 163.849 40.2308 164.18 40.5769C164.527 40.9081 164.707 41.3596 164.707 41.8412C164.707 42.3229 164.527 42.7744 164.18 43.1206L163.458 43.843L164.18 44.5655C164.301 44.6859 164.391 44.8213 164.481 44.9568C164.587 45.017 164.677 45.1073 164.767 45.1826L165.49 45.905L166.212 45.1826C166.634 44.7912 167.07 44.6257 167.522 44.6257C168.033 44.6257 168.515 44.8364 168.861 45.2127C169.177 45.5739 169.343 46.0254 169.328 46.5071C169.313 46.9887 169.087 47.4252 168.741 47.7563L168.048 48.4486L168.771 49.1711C169.117 49.5022 169.298 49.9537 169.298 50.4354C169.298 51.4287 168.5 52.2415 167.507 52.2415C167.025 52.2415 166.573 52.0609 166.227 51.7147L165.49 50.9772L164.767 51.6997C164.451 52.0308 163.985 52.2264 163.503 52.2415H163.488V52.2565Z" fill="url(#paint11_linear_284_69664)"/>
<path d="M170.021 52.2547C169.554 52.2547 169.088 52.0591 168.757 51.7279C168.064 51.0205 168.064 49.8917 168.757 49.1843L169.479 48.4619L168.757 47.7394C168.019 46.9718 168.049 45.8279 168.757 45.1506C169.088 44.8346 169.539 44.654 169.991 44.654C170.488 44.654 170.954 44.8647 171.3 45.2108L172.008 45.9182L172.73 45.1958C172.851 45.0754 172.971 44.9851 173.122 44.8948C173.182 44.7894 173.257 44.6991 173.347 44.6088L174.085 43.8713L173.362 43.1489C172.595 42.306 172.655 41.1772 173.392 40.5149C173.724 40.2139 174.16 40.0483 174.597 40.0483C175.108 40.0483 175.59 40.2591 175.936 40.6504L176.628 41.3427L177.351 40.6203C177.742 40.244 178.179 40.0784 178.645 40.0784C179.142 40.0784 179.609 40.2892 179.955 40.6353C180.286 40.9815 180.466 41.4481 180.451 41.9147C180.436 42.3812 180.241 42.8478 179.895 43.179L179.187 43.8864L179.91 44.6088C180.256 44.9399 180.436 45.3915 180.436 45.8731C180.436 46.8665 179.639 47.6792 178.645 47.6792C178.164 47.6792 177.712 47.4986 177.366 47.1524L176.643 46.43L175.921 47.1524C175.801 47.2728 175.665 47.3782 175.515 47.4534C175.454 47.5588 175.379 47.6491 175.289 47.7244L174.566 48.4468L175.289 49.1693C175.62 49.5004 175.816 49.967 175.816 50.4486C175.816 50.9302 175.635 51.3818 175.289 51.7279C174.943 52.0741 174.491 52.2547 174.01 52.2547C173.528 52.2547 173.076 52.0741 172.745 51.7279L172.023 51.0055L171.3 51.7279C170.984 52.0591 170.518 52.2547 170.051 52.2698H170.036L170.021 52.2547Z" fill="url(#paint12_linear_284_69664)"/>
<path d="M149.115 44.4005C148.634 44.4005 148.182 44.2199 147.851 43.8737C147.143 43.1814 147.143 42.0375 147.851 41.3301L148.573 40.6076L147.851 39.8852C147.174 39.1778 147.174 38.0941 147.821 37.4018C148.152 37.0405 148.634 36.8298 149.13 36.8298C149.582 36.8298 150.018 36.9954 150.364 37.3115L151.117 38.064L151.839 37.3416C152.186 37.0104 152.637 36.8298 153.104 36.8298C153.57 36.8298 153.992 36.9954 154.338 37.3115C155.06 37.9888 155.105 39.1326 154.428 39.8551L153.676 40.6076L154.398 41.3301C155.105 42.0375 155.105 43.1663 154.398 43.8737C154.052 44.2199 153.6 44.4005 153.119 44.4005C152.637 44.4005 152.186 44.2199 151.854 43.8737L151.132 43.1513L150.41 43.8737C150.078 44.2199 149.627 44.4005 149.13 44.4005H149.115Z" fill="url(#paint13_linear_284_69664)"/>
<path d="M156.265 32.7807C155.271 32.7807 154.474 31.968 154.458 30.9896V29.9662H152.682L152.622 29.7555C152.035 29.4544 151.629 28.8524 151.629 28.145C151.629 27.1516 152.442 26.3389 153.435 26.3389H154.458V25.3154C154.458 24.322 155.256 23.5243 156.25 23.5093C157.273 23.5093 158.071 24.3371 158.056 25.3305V26.3389H159.079C160.057 26.384 160.78 27.1215 160.84 28.0396C160.9 29.033 160.133 29.8759 159.139 29.9361H158.056V30.9595C158.056 31.9529 157.258 32.7506 156.265 32.7657V32.7807Z" fill="url(#paint14_linear_284_69664)"/>
<path d="M166.756 26.7124C166.274 26.7124 165.822 26.5318 165.491 26.1856C164.784 25.4782 164.784 24.3343 165.491 23.642L166.214 22.9196L165.476 22.1821C165.1 21.7907 164.919 21.3241 164.934 20.8425C164.934 20.3609 165.145 19.9093 165.491 19.5782C165.822 19.2622 166.274 19.0815 166.726 19.0815C167.222 19.0815 167.689 19.2923 168.035 19.6384L168.742 20.3458L169.465 19.6234C169.796 19.2772 170.247 19.0966 170.744 19.0966C171.241 19.0966 171.677 19.2772 172.008 19.6234C172.355 19.9545 172.535 20.406 172.535 20.8877C172.535 21.3693 172.355 21.8208 172.008 22.167L171.286 22.8895L172.008 23.6119C172.656 24.3344 172.671 25.3578 172.054 26.0502C171.707 26.4415 171.226 26.6522 170.699 26.6522C170.263 26.6522 169.841 26.4866 169.51 26.2007L168.742 25.4331L168.02 26.1555C167.704 26.4866 167.252 26.6823 166.756 26.6974H166.741L166.756 26.7124Z" fill="url(#paint15_linear_284_69664)"/>
<path d="M158.943 41.1041C158.506 41.1041 158.085 40.9386 157.754 40.6526C157.016 39.9904 156.941 38.8465 157.603 38.109L158.371 37.3414L157.649 36.6189C156.971 35.9115 156.971 34.8279 157.618 34.1355C157.95 33.7743 158.431 33.5636 158.928 33.5636C159.379 33.5636 159.816 33.7291 160.162 34.0452L160.915 34.7978L161.637 34.0753C161.757 33.97 161.878 33.8646 162.013 33.7894C162.074 33.684 162.149 33.5937 162.239 33.5034L162.977 32.7659L162.254 32.0434C161.607 31.321 161.592 30.2975 162.209 29.6052C162.555 29.2138 163.037 29.0031 163.564 29.0031C164 29.0031 164.421 29.1687 164.753 29.4547L165.52 30.2223L166.243 29.4998C166.589 29.1536 167.04 28.973 167.522 28.973C168.004 28.973 168.455 29.1536 168.786 29.4998C169.494 30.2072 169.494 31.336 168.786 32.0434L168.064 32.7659L168.786 33.4883C169.433 34.2108 169.449 35.2343 168.831 35.9266C168.485 36.3179 168.004 36.5286 167.477 36.5286C167.04 36.5286 166.619 36.3631 166.288 36.0771L165.52 35.3095L164.798 36.032C164.677 36.1524 164.557 36.2427 164.421 36.3179C164.361 36.4233 164.271 36.5136 164.181 36.6039L163.458 37.3263L164.181 38.0488C164.828 38.7712 164.843 39.7947 164.226 40.4871C163.88 40.8784 163.398 41.0891 162.871 41.0891C162.435 41.0891 162.013 40.9235 161.682 40.6376L160.915 39.87L160.192 40.5924C159.816 40.9235 159.394 41.0891 158.943 41.0891V41.1041Z" fill="url(#paint16_linear_284_69664)"/>
<path d="M168.787 4.51514C148.874 4.51514 132.664 20.7254 132.664 40.6383C132.664 60.5511 148.874 76.7614 168.787 76.7614C188.7 76.7614 204.91 60.5511 204.91 40.6383C204.91 20.7254 188.7 4.51514 168.787 4.51514ZM168.787 75.1961C149.732 75.1961 134.229 59.6932 134.229 40.6383C134.229 21.5833 149.732 6.08047 168.787 6.08047C187.842 6.08047 203.345 21.5833 203.345 40.6383C203.345 59.6932 187.842 75.1961 168.787 75.1961Z" fill="url(#paint17_linear_284_69664)"/>
<path d="M168.787 12.6581C153.329 12.6581 140.807 25.1808 140.807 40.6384C140.807 56.0961 153.329 68.6188 168.787 68.6188C184.245 68.6188 196.767 56.0961 196.767 40.6384C196.752 25.1958 184.23 12.6731 168.787 12.6581ZM168.787 67.0685C154.187 67.0685 142.357 55.2382 142.357 40.6384C142.357 26.0387 154.187 14.2084 168.787 14.2084C183.387 14.2084 195.217 26.0387 195.217 40.6384C195.202 55.2232 183.372 67.0535 168.787 67.0685Z" fill="url(#paint18_linear_284_69664)"/>
<path d="M184.02 52.3051H181.973V50.2581C181.973 49.8216 181.627 49.4755 181.19 49.4755C180.754 49.4755 180.408 49.8216 180.408 50.2581V52.3051H178.361C177.924 52.3051 177.578 52.6512 177.578 53.0877C177.578 53.5242 177.924 53.8704 178.361 53.8704H180.408V55.9173C180.408 56.3387 180.754 56.6849 181.19 56.7C181.612 56.7 181.973 56.3538 181.973 55.9173V53.8704H184.02C184.456 53.8403 184.773 53.479 184.757 53.0426C184.742 52.6512 184.411 52.3352 184.02 52.3051Z" fill="url(#paint19_linear_284_69664)"/>
<path d="M159.094 52.3036H157.047V50.2566C157.047 49.8352 156.686 49.489 156.265 49.489C155.828 49.489 155.482 49.8352 155.482 50.2717V52.3186H153.435C152.999 52.3186 152.652 52.6648 152.652 53.1013C152.652 53.5377 152.999 53.8839 153.435 53.8839H155.482V55.9309C155.482 56.3673 155.828 56.7135 156.265 56.7135C156.701 56.7135 157.047 56.3673 157.047 55.9309V53.8839H159.094C159.531 53.8538 159.847 53.4926 159.832 53.0561C159.817 52.6648 159.486 52.3487 159.094 52.3186V52.3036Z" fill="url(#paint20_linear_284_69664)"/>
<path d="M169.812 58.3073L171.256 56.8624C171.542 56.5463 171.512 56.0496 171.196 55.7636C170.895 55.4927 170.444 55.5078 170.158 55.7636L168.713 57.2085L167.268 55.7636C166.952 55.4626 166.455 55.4927 166.169 55.7937C165.883 56.0948 165.883 56.5613 166.169 56.8624L167.614 58.3073L166.169 59.7522C165.853 60.0381 165.823 60.5348 166.109 60.8509C166.395 61.167 166.892 61.1971 167.208 60.9111C167.223 60.896 167.253 60.8659 167.268 60.8509L168.713 59.406L170.158 60.8509C170.308 61.0014 170.504 61.0767 170.7 61.0767C171.136 61.0767 171.482 60.7305 171.482 60.294C171.482 60.0833 171.392 59.8876 171.256 59.7371L169.812 58.2922V58.3073Z" fill="url(#paint21_linear_284_69664)"/>
<path d="M188.926 42.069L187.481 40.6241L188.926 39.1792C189.227 38.8782 189.227 38.3815 188.926 38.0805C188.625 37.7795 188.128 37.7795 187.827 38.0805L186.382 39.5254L184.937 38.0805C184.636 37.7644 184.14 37.7494 183.839 38.0504C183.522 38.3514 183.507 38.8481 183.808 39.1491C183.808 39.1491 183.824 39.1642 183.839 39.1792L185.283 40.6241L183.839 42.069C183.538 42.3851 183.568 42.8818 183.869 43.1678C184.17 43.4537 184.636 43.4537 184.937 43.1678L186.382 41.7229L187.827 43.1678C188.143 43.4688 188.64 43.4387 188.926 43.1377C189.212 42.8366 189.212 42.3701 188.926 42.069Z" fill="url(#paint22_linear_284_69664)"/>
<path d="M178.374 28.9446H180.421V30.9915C180.421 31.428 180.768 31.7742 181.204 31.7742C181.641 31.7742 181.987 31.428 181.987 30.9915V28.9446H184.034C184.47 28.9145 184.786 28.5533 184.771 28.1168C184.756 27.7255 184.425 27.4094 184.034 27.3793H181.987V25.3323C181.987 24.8959 181.641 24.5497 181.204 24.5497C180.768 24.5497 180.421 24.8959 180.421 25.3323V27.3793H178.374C177.938 27.3793 177.592 27.7254 177.592 28.1619C177.592 28.5984 177.938 28.9446 178.374 28.9446Z" fill="url(#paint23_linear_284_69664)"/>
<path d="M166.228 43.1685C166.529 43.4696 167.025 43.4696 167.326 43.1685L168.771 41.7236L170.216 43.1685C170.532 43.4696 171.029 43.4395 171.315 43.1384C171.601 42.8374 171.601 42.3708 171.315 42.0698L169.87 40.6249L171.315 39.18C171.616 38.864 171.586 38.3673 171.285 38.0813C170.984 37.7953 170.517 37.7953 170.216 38.0813L168.771 39.5262L167.326 38.0813C167.01 37.7803 166.514 37.8104 166.228 38.1114C165.942 38.4124 165.942 38.879 166.228 39.18L167.673 40.6249L166.228 42.0698C165.927 42.3708 165.927 42.8675 166.228 43.1685Z" fill="url(#paint24_linear_284_69664)"/>
<path d="M170.563 30.2093C170.247 29.9083 169.75 29.9384 169.464 30.2394C169.179 30.5404 169.179 31.007 169.464 31.308L170.909 32.7529L169.464 34.1978C169.179 34.5139 169.209 35.0106 169.525 35.2965C169.826 35.5675 170.277 35.5524 170.563 35.2965L172.008 33.8516L173.453 35.2965C173.558 35.4019 173.679 35.4621 173.829 35.4922C173.859 35.6578 173.935 35.7932 174.04 35.9136L175.485 37.3585L174.04 38.8034C173.739 39.1195 173.769 39.6162 174.07 39.9022C174.371 40.1881 174.838 40.1881 175.139 39.9022L176.584 38.4573L178.029 39.9022C178.345 40.1881 178.841 40.158 179.127 39.842C179.398 39.5409 179.383 39.0894 179.127 38.8034L177.682 37.3585L179.127 35.9136C179.443 35.6277 179.473 35.131 179.187 34.8149C178.901 34.4988 178.405 34.4687 178.089 34.7547C178.074 34.7698 178.044 34.7999 178.029 34.8149L176.584 36.2598L175.139 34.8149C175.033 34.7096 174.913 34.6493 174.762 34.6192C174.732 34.4537 174.657 34.3182 174.552 34.1978L173.107 32.7529L174.552 31.308C174.868 31.007 174.883 30.5254 174.582 30.2093C174.281 29.8932 173.799 29.8782 173.483 30.1792C173.483 30.1792 173.468 30.1942 173.453 30.2093L172.008 31.6542L170.563 30.2093Z" fill="url(#paint25_linear_284_69664)"/>
<path d="M166.95 51.0096C167.101 51.1601 167.296 51.2354 167.492 51.2354C167.928 51.2354 168.275 50.8892 168.275 50.4527C168.275 50.242 168.184 50.0463 168.049 49.8958L166.604 48.4509L168.049 47.006C168.365 46.7201 168.395 46.2234 168.109 45.9073C167.823 45.5912 167.326 45.5611 167.01 45.8471C166.995 45.8622 166.965 45.8923 166.95 45.9073L165.505 47.3522L164.06 45.9073C163.955 45.8019 163.835 45.7417 163.699 45.7116C163.669 45.5461 163.594 45.4106 163.473 45.2902L162.028 43.8453L163.473 42.4004C163.774 42.0994 163.774 41.6027 163.473 41.3017C163.172 41.0007 162.676 41.0007 162.375 41.3017L160.93 42.7466L159.485 41.3017C159.199 40.9856 158.702 40.9555 158.386 41.2415C158.07 41.5275 158.04 42.0241 158.326 42.3402C158.341 42.3553 158.371 42.3854 158.386 42.4004L159.831 43.8453L158.386 45.2902C158.085 45.5912 158.085 46.0879 158.386 46.3889C158.687 46.69 159.184 46.69 159.485 46.3889L160.93 44.944L162.375 46.3889C162.48 46.4943 162.6 46.5545 162.736 46.5846C162.766 46.7502 162.841 46.8856 162.962 47.006L164.406 48.4509L162.962 49.8958C162.661 50.1968 162.661 50.6935 162.962 50.9946C163.112 51.1451 163.308 51.2203 163.503 51.2203C163.714 51.2203 163.91 51.13 164.06 50.9795L165.505 49.5346L166.965 50.9795L166.95 51.0096Z" fill="url(#paint26_linear_284_69664)"/>
<path d="M174.762 46.645C174.928 46.6149 175.078 46.5397 175.184 46.4192L176.628 44.9744L178.073 46.4192C178.224 46.5698 178.42 46.645 178.615 46.645C179.052 46.645 179.398 46.2988 179.398 45.8624C179.398 45.6516 179.308 45.456 179.172 45.3055L177.727 43.8606L179.172 42.4157C179.488 42.1147 179.503 41.633 179.202 41.317C178.901 41.0009 178.42 40.9858 178.103 41.2868C178.103 41.2868 178.088 41.3019 178.073 41.317L176.628 42.7618L175.184 41.317C174.898 41.0009 174.401 40.9708 174.085 41.2567C173.769 41.5427 173.739 42.0394 174.025 42.3555C174.04 42.3705 174.07 42.4006 174.085 42.4157L175.53 43.8606L174.085 45.3055C173.979 45.4108 173.919 45.5312 173.889 45.6817C173.724 45.7118 173.588 45.7871 173.468 45.9075L172.023 47.3524L170.578 45.9075C170.277 45.5914 169.78 45.5764 169.479 45.8774C169.163 46.1784 169.148 46.6751 169.449 46.9761C169.449 46.9761 169.464 46.9912 169.479 47.0062L170.924 48.4511L169.479 49.896C169.178 50.1971 169.178 50.6937 169.479 50.9948C169.63 51.1453 169.825 51.2205 170.021 51.2205C170.232 51.2205 170.427 51.1302 170.578 50.9797L172.023 49.5348L173.468 50.9797C173.618 51.1302 173.814 51.2055 174.01 51.2055C174.446 51.2055 174.792 50.8593 174.792 50.4228C174.792 50.2121 174.702 50.0164 174.566 49.8659L173.122 48.421L174.566 46.9761C174.672 46.8858 174.732 46.7504 174.777 46.6149L174.762 46.645Z" fill="url(#paint27_linear_284_69664)"/>
<path d="M153.104 43.379C153.314 43.379 153.51 43.3038 153.661 43.1533C153.962 42.8523 153.962 42.3556 153.661 42.0546L152.216 40.6097L153.661 39.1648C153.962 38.8487 153.932 38.352 153.631 38.066C153.33 37.7801 152.863 37.7801 152.562 38.066L151.117 39.5109L149.672 38.066C149.356 37.765 148.859 37.7951 148.573 38.0961C148.287 38.3972 148.287 38.8637 148.573 39.1648L150.018 40.6097L148.573 42.0546C148.272 42.3556 148.272 42.8523 148.573 43.1533C148.874 43.4543 149.371 43.4543 149.672 43.1533L151.117 41.7084L152.562 43.1533C152.712 43.3038 152.908 43.379 153.104 43.379Z" fill="url(#paint28_linear_284_69664)"/>
<path d="M153.451 28.9446H155.498V30.9915C155.498 31.428 155.844 31.7742 156.28 31.7742C156.717 31.7742 157.063 31.428 157.063 30.9915V28.9446H159.11C159.546 28.9145 159.862 28.5533 159.847 28.1168C159.832 27.7255 159.501 27.4094 159.11 27.3793H157.063V25.3323C157.063 24.8959 156.732 24.5497 156.295 24.5497C156.295 24.5497 156.295 24.5497 156.28 24.5497C155.844 24.5497 155.498 24.8959 155.498 25.3323V27.3793H153.451C153.014 27.3793 152.668 27.7254 152.668 28.1619C152.668 28.5984 153.014 28.9446 153.451 28.9446Z" fill="url(#paint29_linear_284_69664)"/>
<path d="M167.658 22.924L166.214 24.3689C165.913 24.6699 165.913 25.1666 166.214 25.4676C166.364 25.6181 166.56 25.6934 166.755 25.6934C166.966 25.6934 167.162 25.6031 167.312 25.4525L168.757 24.0076L170.202 25.4525C170.518 25.7385 171.015 25.7084 171.301 25.3923C171.572 25.0913 171.557 24.6398 171.301 24.3538L169.856 22.9089L171.301 21.464C171.602 21.163 171.602 20.6663 171.301 20.3653C171 20.0643 170.503 20.0643 170.202 20.3653L168.757 21.8102L167.312 20.3653C167.011 20.0492 166.515 20.0342 166.214 20.3352C165.897 20.6362 165.882 21.1329 166.183 21.4339C166.183 21.4339 166.199 21.449 166.214 21.464L167.658 22.9089V22.924Z" fill="url(#paint30_linear_284_69664)"/>
<path d="M162.767 34.5718C162.601 34.6019 162.466 34.6771 162.346 34.7825L160.901 36.2274L159.456 34.7825C159.14 34.4815 158.643 34.5116 158.357 34.8126C158.071 35.1136 158.071 35.5802 158.357 35.8812L159.802 37.3261L158.357 38.771C158.071 39.0871 158.101 39.5838 158.417 39.8697C158.718 40.1406 159.17 40.1256 159.456 39.8697L160.901 38.4248L162.346 39.8697C162.662 40.1557 163.158 40.1256 163.444 39.8095C163.715 39.5085 163.7 39.057 163.444 38.771L161.999 37.3261L163.444 35.8812C163.55 35.7758 163.61 35.6554 163.64 35.5049C163.806 35.4748 163.941 35.3996 164.061 35.2942L165.506 33.8493L166.951 35.2942C167.267 35.5802 167.764 35.5501 168.05 35.234C168.321 34.933 168.306 34.4815 168.05 34.1955L166.605 32.7506L168.05 31.3057C168.351 31.0047 168.351 30.508 168.05 30.207C167.749 29.9059 167.252 29.9059 166.951 30.207L165.506 31.6519L164.061 30.207C163.745 29.921 163.249 29.9511 162.963 30.2672C162.692 30.5682 162.707 31.0197 162.963 31.3057L164.408 32.7506L162.963 34.1955C162.857 34.3008 162.797 34.4213 162.767 34.5718Z" fill="url(#paint31_linear_284_69664)"/>
<path d="M280.78 67.5089C275.723 67.5089 270.455 65.0255 267.354 61.1875C264.901 58.1472 263.968 54.5199 264.751 50.9678C265.398 47.9576 269.266 40.7632 269.702 39.9505L277.694 22.2806C278.266 21.0614 279.486 20.2938 280.81 20.2938C281.307 20.2938 281.788 20.3992 282.255 20.6099C282.992 20.9561 283.579 21.5431 283.926 22.2806L291.993 40.0859C292.399 40.8385 296.192 48.0028 296.839 50.9829C297.607 54.5349 296.674 58.1622 294.205 61.2025C291.105 65.0405 285.852 67.5089 280.81 67.5089H280.78ZM273.495 41.8619L273.435 41.9824C271.9 44.827 269.296 50.0497 268.905 51.8859C268.273 54.7757 269.522 57.0936 270.666 58.5234C272.983 61.3982 276.957 63.2495 280.765 63.2495C284.573 63.2495 288.531 61.3982 290.849 58.5234C292.008 57.0936 293.257 54.7757 292.625 51.8709C292.234 50.0497 289.675 44.8571 288.14 41.9974L288.065 41.8619L280.765 25.7573L273.465 41.8619H273.495Z" fill="url(#paint32_linear_284_69664)"/>
<path d="M280.781 77.7757C273.059 77.7757 265.007 73.9828 260.266 68.1128C256.578 63.5372 255.178 58.1037 256.322 52.8056C257.24 48.5612 262.508 38.5069 264.104 35.5117L277.71 5.49938C278.252 4.28023 279.471 3.49756 280.811 3.49756C282.15 3.49756 283.4 4.28023 283.941 5.51443L297.578 35.6321C298.225 36.8512 304.261 48.1849 305.254 52.8207C306.398 58.1338 304.983 63.5673 301.281 68.1429C296.554 73.9979 288.502 77.7757 280.796 77.7757H280.781ZM267.972 37.3479L267.912 37.4533C266.226 40.5539 261.244 50.2168 260.492 53.7238C259.378 58.8563 261.56 62.9352 263.592 65.4487C267.536 70.3555 274.279 73.5162 280.781 73.5162C287.283 73.5162 293.996 70.3554 297.954 65.4638C299.986 62.9502 302.169 58.8713 301.07 53.7238C300.302 50.1114 295.11 40.0572 293.755 37.5587L280.796 8.99128L267.957 37.363L267.972 37.3479Z" fill="url(#paint33_linear_284_69664)"/>
<path d="M280.78 57.3192C277.243 57.3192 274.354 54.4294 274.354 50.8924C274.354 47.3554 277.243 44.4656 280.78 44.4656C284.332 44.4656 287.207 47.3554 287.207 50.8924C287.207 54.4294 284.317 57.3192 280.78 57.3192ZM280.78 48.725C279.591 48.725 278.628 49.6883 278.628 50.8924C278.628 52.0964 279.591 53.0447 280.795 53.0447C281.999 53.0447 282.948 52.0814 282.948 50.8924C282.948 49.7033 281.984 48.7401 280.78 48.725Z" fill="url(#paint34_linear_284_69664)"/>
<path d="M280.78 66.4849C276.024 66.4849 271.072 64.152 268.152 60.5398C265.894 57.7403 265.036 54.414 265.744 51.178C266.361 48.3033 270.244 41.0637 270.59 40.4316L278.612 22.7015C279.169 21.4974 280.599 20.9706 281.818 21.5275C282.33 21.7683 282.751 22.1747 282.992 22.7015L291.059 40.4918C291.391 41.1089 295.214 48.3334 295.831 51.178C296.523 54.429 295.665 57.7553 293.407 60.5548C290.488 64.152 285.536 66.4849 280.795 66.4849H280.78ZM280.78 23.5293C280.78 23.5293 280.644 23.5594 280.629 23.6346L272.577 41.3949C272.577 41.3949 272.547 41.44 272.547 41.4701C271.418 43.5622 268.378 49.4923 267.896 51.6747C267.174 54.9709 268.573 57.5597 269.868 59.1701C272.381 62.2706 276.656 64.2875 280.765 64.2875C284.874 64.2875 289.133 62.2857 291.646 59.1852C292.941 57.5898 294.341 54.9859 293.633 51.6898C293.167 49.5224 290.171 43.6375 289.058 41.5604C289.058 41.5454 289.028 41.5153 289.028 41.5002L280.945 23.6798C280.945 23.6798 280.855 23.5594 280.78 23.5744V23.5293Z" fill="url(#paint35_linear_284_69664)"/>
<path d="M280.781 76.752C273.345 76.752 265.609 73.1096 261.049 67.4804C257.557 63.1457 256.232 58.0282 257.316 53.0312C258.294 48.4857 264.571 36.8059 265.037 35.9329L278.628 5.90556C279.005 5.04764 279.863 4.49074 280.811 4.50579C281.759 4.50579 282.617 5.04764 282.993 5.90556L296.645 36.0232C297.096 36.8661 303.282 48.5007 304.246 53.0161C305.314 58.0132 303.975 63.1607 300.483 67.4804C295.937 73.1096 288.201 76.737 280.781 76.737V76.752ZM280.811 6.73338C280.811 6.73338 280.69 6.76349 280.66 6.82369L267.054 36.8811L267.024 36.9564C266.964 37.0768 260.431 49.1781 259.498 53.4978C258.294 59.0367 260.627 63.4015 262.794 66.0807C266.919 71.2132 273.993 74.5244 280.781 74.5244C287.569 74.5244 294.613 71.2132 298.752 66.0957C300.919 63.4166 303.267 59.0517 302.063 53.4978C301.145 49.2232 294.718 37.1822 294.658 37.0618L294.628 37.0015L280.961 6.83874C280.961 6.83874 280.871 6.73338 280.811 6.73338Z" fill="url(#paint36_linear_284_69664)"/>
<path d="M280.78 56.3106C277.8 56.3106 275.377 53.8874 275.377 50.8922C275.377 47.8971 277.8 45.4889 280.795 45.4889C283.775 45.4889 286.199 47.9121 286.199 50.8922C286.199 53.8723 283.775 56.2955 280.78 56.2955V56.3106ZM280.78 47.7164C279.019 47.7164 277.605 49.1463 277.605 50.8922C277.605 52.6381 279.034 54.068 280.78 54.068C282.526 54.068 283.956 52.6381 283.956 50.8922C283.956 49.1312 282.526 47.7164 280.78 47.7164Z" fill="url(#paint37_linear_284_69664)"/>
<g clip-path="url(#clip0_284_69664)">
<path d="M376.361 44.2809C375.9 44.2809 375.455 44.1028 375.128 43.7761L374.134 42.7815L373.139 43.7761C372.798 44.1028 372.367 44.2809 371.907 44.2809C371.506 44.2809 371.135 44.1473 370.823 43.9098H370.793L370.675 43.7761C370.348 43.4495 370.17 43.0042 370.17 42.5439C370.17 42.0837 370.348 41.6384 370.69 41.3118L371.684 40.3171L370.69 39.3224C370.007 38.6395 370.007 37.5409 370.69 36.858C371.031 36.5314 371.462 36.3533 371.922 36.3533C372.382 36.3533 372.812 36.5314 373.139 36.8432L374.149 37.8527L375.143 36.858C375.485 36.5314 375.915 36.3533 376.375 36.3533C376.836 36.3533 377.266 36.5314 377.593 36.8432C377.934 37.1995 378.127 37.63 378.112 38.0902C378.112 38.5504 377.934 38.9958 377.593 39.3224L376.598 40.3171L377.593 41.3118C377.919 41.6384 378.098 42.0689 378.098 42.5439C378.098 43.0042 377.919 43.4495 377.593 43.7761C377.266 44.1028 376.821 44.2809 376.361 44.2809Z" fill="url(#paint38_linear_284_69664)"/>
<path d="M412.451 44.3819C411.991 44.3819 411.546 44.2038 411.219 43.8772L410.224 42.8825L409.23 43.8772C408.888 44.2038 408.458 44.3819 407.998 44.3819C407.537 44.3819 407.107 44.2038 406.78 43.892C406.439 43.5506 406.246 43.1052 406.246 42.645C406.246 42.1848 406.439 41.7394 406.765 41.4128L407.745 40.433L406.75 39.4532C406.068 38.7703 406.068 37.6717 406.75 36.9888C407.092 36.6622 407.522 36.484 407.983 36.484C408.443 36.484 408.873 36.6622 409.2 36.9739L410.21 37.9834L411.204 36.9888C411.546 36.6622 411.976 36.484 412.436 36.484C412.897 36.484 413.327 36.6622 413.654 36.9739L413.787 37.0927L413.817 37.1372C414.351 37.8201 414.307 38.8148 413.683 39.4532L412.689 40.4478L413.683 41.4276C414.01 41.7394 414.203 42.1996 414.188 42.6598C414.188 43.1201 414.01 43.5506 413.683 43.8772C413.357 44.2038 412.911 44.3819 412.451 44.3819Z" fill="url(#paint39_linear_284_69664)"/>
<path d="M392.779 77.2616C391.829 77.2616 391.042 76.4896 391.042 75.5246C391.042 66.8694 383.991 59.8175 375.335 59.8175C364.75 59.8175 356.154 51.2069 356.154 40.6365C356.154 30.0661 364.765 21.4554 375.335 21.4554C383.991 21.4554 391.028 14.3887 391.042 5.74834C391.042 4.79819 391.829 4.01135 392.779 4.01135C393.24 4.01135 393.685 4.1895 394.012 4.51612C394.338 4.84273 394.516 5.28811 394.516 5.74834C394.516 14.4036 401.568 21.4554 410.224 21.4554C420.809 21.4554 429.405 30.0661 429.405 40.6365C429.405 51.2069 420.794 59.8175 410.224 59.8175C401.568 59.8175 394.516 66.8694 394.516 75.5246C394.516 76.4748 393.744 77.2616 392.779 77.2616ZM378.097 56.5366C384.555 57.4719 390.092 61.6436 392.794 67.5375C395.481 61.6585 401.034 57.4719 407.492 56.5366C404.315 51.3108 398.807 48.1337 392.794 48.1337C386.782 48.1337 381.274 51.3256 378.112 56.5366H378.097ZM400.781 40.6365C406.675 43.3385 410.862 48.8909 411.782 55.3489C411.871 55.3044 412.153 55.1114 412.153 55.1114C412.391 54.9629 412.554 54.8441 412.688 54.7551L413.178 54.3987C413.356 54.2651 413.564 54.1167 413.712 53.9831C413.89 53.8346 414.009 53.7455 414.143 53.6268L414.648 53.1665L415.063 52.7657C415.227 52.6172 415.39 52.4391 415.524 52.3055L415.91 51.8898C416.058 51.7265 416.206 51.5335 416.34 51.3702C416.474 51.2217 416.563 51.1029 416.696 50.9248C416.83 50.7466 416.978 50.5388 417.082 50.3903L417.409 49.9004C417.513 49.7519 417.602 49.6035 417.691 49.455L418.033 48.8909C418.136 48.6979 418.24 48.5049 418.329 48.3119L418.582 47.8071C418.671 47.6141 418.745 47.436 418.819 47.2578L419.057 46.6937C419.131 46.5155 419.19 46.3374 419.25 46.1592C419.25 46.1592 419.428 45.6544 419.458 45.5357C419.517 45.3575 419.562 45.1794 419.606 44.9864L419.769 44.3628C419.814 44.155 419.844 43.962 419.888 43.769L419.918 43.6205L419.963 43.4572L420.007 43.1455C420.052 42.8931 420.066 42.6555 420.096 42.4329L420.126 42.1211L420.155 41.9578C420.185 41.4827 420.2 41.067 420.2 40.6513C420.2 40.2356 420.185 39.82 420.155 39.4043C420.141 39.2707 420.126 39.1816 420.126 39.0777V38.9589L420.111 38.8253C420.081 38.6471 420.066 38.4096 420.037 38.1869L420.007 37.9939L419.977 37.8157L419.933 37.5782C419.888 37.3555 419.859 37.1625 419.814 36.9844L419.651 36.3757C419.591 36.1233 419.547 35.96 419.487 35.7967C419.458 35.6779 419.309 35.2474 419.309 35.2474L419.087 34.6535C419.042 34.5348 418.864 34.1191 418.864 34.1191C418.79 33.9261 418.701 33.7331 418.612 33.5401C418.552 33.3916 418.315 32.9462 418.315 32.9462C418.226 32.7681 418.136 32.6048 418.047 32.4415C417.988 32.3227 417.943 32.2485 417.884 32.1594L417.78 31.9813C417.661 31.7883 417.543 31.5953 417.424 31.4171C417.335 31.2835 417.246 31.1499 417.142 31.0014C416.978 30.7787 416.86 30.6006 416.726 30.4224C416.637 30.3037 416.355 29.9473 416.355 29.9473C416.251 29.8137 416.088 29.6207 415.954 29.4723C415.835 29.3238 415.731 29.2199 415.583 29.0566C415.434 28.8933 415.256 28.7151 415.123 28.5815L414.692 28.1658C414.544 28.0174 414.366 27.8541 414.217 27.7353L413.757 27.3493C413.638 27.2602 413.534 27.1711 413.43 27.0969L413.222 26.9336C413.074 26.8148 412.94 26.7258 412.777 26.607C412.599 26.4882 412.391 26.3398 412.228 26.2358C412.05 26.1171 411.946 26.0577 411.842 25.9835C410.906 32.4415 406.735 37.979 400.841 40.6662L400.781 40.6365ZM368.566 50.4794C368.669 50.613 368.759 50.7615 368.848 50.8802L369.219 51.3405C369.338 51.4889 369.486 51.6522 369.59 51.7859C369.768 51.9937 369.872 52.1125 370.02 52.2609C370.169 52.4242 370.347 52.6024 370.481 52.736L370.792 53.0329C371.045 53.2705 371.223 53.4338 371.371 53.5525L371.847 53.9534C371.98 54.0721 372.129 54.1761 372.247 54.2651C372.247 54.2651 372.663 54.5769 372.856 54.7105C373.049 54.8441 373.242 54.9777 373.42 55.0817C373.42 55.0817 373.702 55.2747 373.791 55.3192C374.727 48.876 378.898 43.3236 384.792 40.6365C378.913 37.9494 374.742 32.4118 373.806 25.9538C373.732 25.9983 373.42 26.2062 373.42 26.2062C373.198 26.3398 373.019 26.4585 372.886 26.5625L372.396 26.9188L371.847 27.3493C371.698 27.4681 371.579 27.5571 371.416 27.7056C371.238 27.8541 371.045 28.0322 370.911 28.1658C370.778 28.2994 370.659 28.4034 370.51 28.5518C370.362 28.7003 370.169 28.8933 370.035 29.0417C369.902 29.1754 369.798 29.2941 369.649 29.4574C369.516 29.6059 369.367 29.784 369.248 29.9325C369.085 30.1255 369.011 30.2294 368.877 30.4076C368.744 30.5857 368.61 30.7639 368.491 30.942L368.15 31.432C368.061 31.5656 367.987 31.6843 367.897 31.8179L367.526 32.4415C367.422 32.6345 367.319 32.8423 367.215 33.0353L366.962 33.5252C366.873 33.7034 366.799 33.8964 366.725 34.0745L366.487 34.6535C366.428 34.8317 366.354 34.995 366.309 35.1731L366.101 35.7967C366.057 35.96 365.878 36.6577 365.878 36.6577C365.849 36.7765 365.819 36.8804 365.789 36.9844C365.745 37.1774 365.715 37.3852 365.671 37.593L365.567 38.1869C365.537 38.4393 365.507 38.6768 365.478 38.9143L365.448 39.2558L365.418 39.4191C365.389 39.8348 365.374 40.2505 365.374 40.6662C365.374 41.0819 365.389 41.4976 365.418 41.9132V42.1211C365.463 42.225 365.463 42.3289 365.463 42.418C365.492 42.6704 365.507 42.9079 365.537 43.1306L365.641 43.7245C365.671 43.9323 365.715 44.1401 365.76 44.3331C365.76 44.3331 366.027 45.3575 366.071 45.506L366.279 46.1147C366.354 46.3225 366.413 46.4858 366.472 46.664L366.695 47.1984C366.814 47.4657 366.873 47.629 366.947 47.7923L367.215 48.3267C367.289 48.5049 367.393 48.6682 367.482 48.8463C367.586 49.0245 367.645 49.1433 367.719 49.2472L367.823 49.4105C368.044 49.7888 368.316 50.1185 368.566 50.4794ZM366.74 27.4978C363.355 29.7247 360.89 33.1986 359.999 37.2813C358.574 43.8284 361.454 50.3161 366.754 53.7901C366.665 53.6713 366.131 53.0181 366.131 53.0181C365.982 52.8251 365.804 52.5875 365.671 52.3797L365.329 51.8749C365.136 51.5928 364.943 51.2811 364.75 50.9248L364.602 50.6724C364.364 50.2567 364.156 49.841 363.948 49.4253L363.845 49.2026C363.681 48.8463 363.533 48.5049 363.384 48.1486L363.206 47.6735C363.102 47.3914 362.998 47.1093 362.909 46.8273C362.85 46.6491 362.805 46.471 362.746 46.2928C362.672 46.0256 362.597 45.7435 362.523 45.4614C362.479 45.2684 362.434 45.0903 362.39 44.8973C362.33 44.6152 362.271 44.3183 362.226 44.0214L362.137 43.5018C362.093 43.1752 362.063 42.8485 362.033 42.5368V42.3735C362.004 42.2547 361.989 42.1211 361.989 41.9875C361.959 41.5421 361.929 41.0819 361.929 40.6216C361.929 40.1614 361.944 39.7012 361.989 39.1816L362.033 38.7213C362.063 38.4096 362.093 38.083 362.137 37.7564L362.226 37.2071C362.271 36.9398 362.33 36.6429 362.39 36.3608C362.434 36.1827 362.479 35.9897 362.523 35.8115C362.597 35.5295 362.672 35.2474 362.746 34.9802C362.805 34.802 362.85 34.6238 362.909 34.4457C363.05 34.0013 363.213 33.5633 363.369 33.1244C363.518 32.7533 363.666 32.4118 363.8 32.1446L363.934 31.8328C364.141 31.4023 364.349 30.9866 364.587 30.5857L364.691 30.4076C364.958 29.9622 365.136 29.6653 365.314 29.398L365.611 28.9972C365.775 28.7597 365.953 28.5073 366.131 28.2697C366.131 28.2697 366.65 27.6165 366.754 27.4978H366.74ZM419.131 53.4338C419.042 53.5377 418.968 53.6416 418.879 53.7455C422.249 51.5186 424.728 48.0447 425.619 43.962C426.51 39.8645 425.752 35.6631 423.496 32.1297C422.278 30.2146 420.69 28.6261 418.834 27.4384C418.938 27.5571 419.473 28.2401 419.473 28.2401C419.651 28.4627 419.829 28.73 420.007 28.9824L420.289 29.3832C420.467 29.6653 420.645 29.9473 420.853 30.3037L421.002 30.556C421.254 31.0014 421.462 31.4171 421.67 31.8328L421.729 31.9813L421.789 32.1297C421.982 32.5602 422.115 32.8572 422.219 33.1392L422.323 33.4213L422.382 33.6143C422.486 33.8964 422.59 34.1785 422.679 34.4754C422.739 34.6535 422.783 34.8168 422.843 35.0098C422.917 35.2919 422.991 35.5591 423.065 35.8412L423.199 36.3905C423.258 36.6874 423.318 36.9844 423.362 37.2664L423.451 37.8009C423.496 38.1127 423.526 38.4244 423.555 38.7362V38.9292C423.585 39.048 423.6 39.1667 423.6 39.3003C423.629 39.7457 423.659 40.206 423.659 40.6662C423.659 41.1264 423.644 41.6015 423.6 42.1062C423.6 42.2102 423.555 42.5665 423.555 42.5665C423.526 42.8931 423.496 43.2197 423.436 43.5315L423.377 43.9323C423.303 44.348 423.258 44.6301 423.184 44.927L423.05 45.4763C422.976 45.7584 422.902 46.0404 422.828 46.3077C422.768 46.4858 422.724 46.664 422.664 46.8421C422.575 47.1242 422.471 47.4063 422.368 47.6883C422.368 47.6883 422.234 48.0446 422.189 48.1783C422.085 48.4455 421.952 48.7424 421.789 49.1284L421.64 49.455C421.432 49.8856 421.224 50.3012 420.987 50.7021L420.883 50.8802C420.616 51.3405 420.423 51.6374 420.245 51.9046C420.2 51.9788 419.963 52.3055 419.963 52.3055C419.814 52.5133 419.621 52.7954 419.413 53.0626C419.339 53.1665 419.265 53.2556 419.176 53.3595L419.072 53.4783L419.131 53.4338ZM392.794 44.6449C397.619 44.6449 402.236 46.3819 405.903 49.4402C403.676 46.085 400.202 43.6205 396.149 42.7298C395.036 42.4922 393.908 42.3586 392.779 42.3586C387.435 42.3586 382.551 45.1348 379.7 49.4253C383.367 46.3671 387.969 44.6449 392.794 44.6449ZM379.67 31.8031C381.897 35.1731 385.371 37.6376 389.454 38.5284C390.567 38.7659 391.696 38.8847 392.809 38.8847C398.154 38.8847 403.038 36.1084 405.888 31.8179C402.221 34.8762 397.619 36.5984 392.794 36.5984C387.969 36.5984 383.337 34.8614 379.67 31.7883V31.8031ZM378.097 24.7216C381.274 29.9474 386.782 33.1244 392.779 33.1244C398.777 33.1244 404.3 29.9325 407.477 24.7216C401.019 23.7863 395.481 19.6145 392.779 13.7206C390.092 19.5997 384.54 23.7863 378.082 24.7216H378.097Z" fill="url(#paint40_linear_284_69664)"/>
<path d="M392.78 59.5954C390.598 59.5954 388.816 57.8139 388.816 55.6315C388.816 53.4492 390.598 51.6677 392.78 51.6677C394.963 51.6677 396.744 53.4492 396.744 55.6315C396.744 57.8139 394.963 59.5954 392.78 59.5954ZM392.78 55.1416C392.513 55.1416 392.29 55.3643 392.29 55.6315C392.29 55.8988 392.513 56.1214 392.78 56.1214C393.047 56.1214 393.27 55.8988 393.27 55.6315C393.27 55.3643 393.047 55.1416 392.78 55.1416Z" fill="url(#paint41_linear_284_69664)"/>
<path d="M392.78 29.2805C390.598 29.2805 388.816 27.499 388.816 25.3167C388.816 23.1344 390.598 21.3529 392.78 21.3529C394.963 21.3529 396.744 23.1344 396.744 25.3167C396.744 27.499 394.963 29.2805 392.78 29.2805ZM392.78 24.8268C392.513 24.8268 392.29 25.0495 392.29 25.3167C392.29 25.5839 392.513 25.8066 392.78 25.8066C393.047 25.8066 393.27 25.5839 393.27 25.3167C393.27 25.0495 393.047 24.8268 392.78 24.8268Z" fill="url(#paint42_linear_284_69664)"/>
<path d="M374.105 41.386L374.149 41.3415L374.194 41.386L375.857 43.0487C376.139 43.3308 376.614 43.3308 376.896 43.0487C377.178 42.7666 377.178 42.2916 376.896 42.0095L375.233 40.3468L375.189 40.3023L375.233 40.2577L376.896 38.595C377.178 38.3129 377.178 37.8527 376.896 37.5558C376.599 37.2737 376.154 37.2737 375.857 37.5558L374.194 39.2185L374.149 39.2631L374.105 39.2185L372.442 37.5558C372.145 37.2737 371.7 37.2737 371.403 37.5558C371.121 37.8379 371.121 38.3129 371.403 38.595L373.066 40.2577L373.11 40.3023L373.066 40.3468L371.403 42.0095C371.121 42.2916 371.121 42.7518 371.403 43.0487C371.7 43.3308 372.145 43.3308 372.442 43.0487L374.105 41.386ZM374.179 40.3468L374.135 40.3913C374.135 40.3913 374.105 40.3616 374.09 40.3468L374.045 40.3023L374.09 40.2726C374.09 40.2726 374.12 40.2429 374.12 40.228L374.164 40.2726L374.209 40.3171L374.164 40.3468H374.179Z" fill="url(#paint43_linear_284_69664)"/>
<path d="M412.971 38.7199C413.254 38.4378 413.254 37.9776 412.971 37.6807C412.675 37.3986 412.229 37.3986 411.932 37.6807L410.27 39.3434C410.27 39.3434 410.255 39.3879 410.225 39.3879C410.195 39.3879 410.18 39.3731 410.18 39.3434L408.518 37.6807C408.221 37.3986 407.775 37.3986 407.479 37.6807C407.196 37.9627 407.196 38.4378 407.479 38.7199L409.141 40.3826L409.186 40.4123L409.141 40.4568L407.479 42.1195C407.345 42.2532 407.256 42.4462 407.256 42.6391C407.256 42.8321 407.33 43.0251 407.479 43.1587C407.775 43.4408 408.221 43.4408 408.518 43.1587L410.18 41.496L410.225 41.4515L410.27 41.496L411.932 43.1587C412.214 43.4408 412.689 43.4408 412.971 43.1587C413.105 43.0251 413.179 42.8321 413.179 42.6391C413.179 42.4462 413.105 42.2532 412.957 42.1195L411.294 40.4568L411.249 40.4123L411.294 40.3826L412.957 38.7199H412.971ZM410.195 40.3826L410.24 40.3381L410.284 40.3826C410.284 40.3826 410.314 40.4123 410.329 40.4123C410.329 40.4123 410.299 40.442 410.284 40.4568L410.24 40.5014L410.195 40.4568C410.195 40.4568 410.166 40.4271 410.151 40.4123C410.151 40.4123 410.18 40.3826 410.195 40.3826Z" fill="url(#paint44_linear_284_69664)"/>
<path d="M410.224 22.432C400.99 22.432 393.522 14.9496 393.508 5.71537C393.508 5.31453 393.181 4.98792 392.765 4.98792C392.364 4.98792 392.038 5.31453 392.038 5.71537C392.038 14.9347 384.555 22.4171 375.321 22.432C365.285 22.432 357.135 30.5676 357.135 40.6184C357.135 50.6691 365.27 58.8047 375.321 58.8047C384.541 58.8047 392.023 66.2871 392.038 75.5213C392.038 75.9222 392.364 76.2488 392.78 76.2488C393.181 76.2488 393.508 75.9222 393.508 75.5213C393.508 66.2871 400.99 58.8196 410.224 58.8047C420.26 58.8047 428.411 50.6691 428.411 40.6184C428.411 30.5676 420.275 22.432 410.224 22.432ZM371.179 24.6886L371.12 24.7331C370.778 24.9707 370.437 25.2527 370.095 25.52L369.887 25.6981L369.754 25.8169C369.561 25.9802 369.309 26.2029 369.071 26.4404C368.952 26.5592 368.833 26.6779 368.715 26.7967C368.507 26.9897 368.314 27.1976 368.121 27.4054C368.002 27.539 367.883 27.6726 367.765 27.8062C367.586 28.0141 367.408 28.2368 367.23 28.4446L367.186 28.504C367.096 28.6228 366.993 28.7415 366.903 28.8603C366.725 29.0979 366.562 29.3354 366.399 29.5729L366.31 29.7065L366.131 29.9441C365.968 30.1965 365.79 30.4785 365.597 30.82L365.538 30.9239L365.449 31.0724C365.226 31.4584 365.018 31.8592 364.825 32.2601C364.795 32.3194 364.766 32.3788 364.736 32.4382L364.677 32.5718C364.558 32.8094 364.424 33.136 364.276 33.4774C364.231 33.5813 364.187 33.7001 364.157 33.8189L364.112 33.9377C364.008 34.2049 363.919 34.4721 363.83 34.7393C363.771 34.9026 363.726 35.0808 363.682 35.2441C363.608 35.5113 363.533 35.7786 363.474 36.0309C363.429 36.2091 363.385 36.3724 363.355 36.5506C363.296 36.8178 363.236 37.0999 363.192 37.3819L363.162 37.5007C363.147 37.6343 363.118 37.7531 363.103 37.8867C363.058 38.1836 363.029 38.5102 362.999 38.7923V38.9556C362.984 39.0447 362.954 39.1338 362.954 39.2377C362.925 39.7276 362.895 40.173 362.895 40.6035C362.895 41.034 362.91 41.4794 362.954 41.9693C362.954 42.0584 362.954 42.1475 362.984 42.2514V42.4147C363.029 42.7116 363.058 43.0234 363.103 43.3203C363.118 43.4539 363.147 43.5727 363.162 43.7063L363.192 43.8251C363.236 44.1072 363.296 44.3744 363.355 44.6416C363.4 44.8198 363.429 44.9979 363.474 45.1612C363.533 45.4285 363.608 45.6957 363.682 45.9481C363.726 46.1262 363.786 46.2895 363.83 46.4528C363.919 46.7201 364.008 46.9873 364.112 47.2545L364.172 47.4178C364.201 47.5218 364.246 47.6257 364.291 47.7148C364.424 48.0562 364.573 48.368 364.691 48.6204L364.751 48.754C364.751 48.754 364.81 48.8727 364.84 48.9321C365.033 49.333 365.241 49.7338 365.463 50.1198C365.493 50.1644 365.523 50.2089 365.552 50.2534L365.612 50.3573C365.805 50.6988 365.998 50.9809 366.161 51.2481C366.221 51.3372 366.28 51.4263 366.339 51.5005L366.428 51.6193C366.577 51.8271 366.755 52.0943 366.948 52.3319C367.037 52.4506 367.141 52.5694 367.23 52.703L367.26 52.7327C367.438 52.9554 367.616 53.1632 367.809 53.3859C367.928 53.5195 368.047 53.6383 368.151 53.7719C368.344 53.9798 368.551 54.1876 368.759 54.3955L368.848 54.4845C368.937 54.5736 369.026 54.6627 369.116 54.7518C369.309 54.9448 369.531 55.1378 369.828 55.3902L369.947 55.4941L370.14 55.6574C370.511 55.9543 370.852 56.2364 371.224 56.4888C371.417 56.6224 371.61 56.756 371.803 56.8896C362.776 54.9151 357.075 46.0075 359.035 36.9959C360.431 30.6121 365.419 25.6239 371.803 24.2284C371.61 24.362 371.417 24.4956 371.224 24.6292L371.179 24.6886ZM371.209 54.7072C371.045 54.5736 370.897 54.4548 370.734 54.3212C370.57 54.1876 370.377 54.0095 370.199 53.8462C370.021 53.6829 369.902 53.5789 369.769 53.4305C369.635 53.282 369.442 53.089 369.279 52.9257C369.116 52.7624 369.012 52.6288 368.878 52.4803C368.744 52.3319 368.566 52.124 368.418 51.9459C368.269 51.7677 368.18 51.6341 368.047 51.4856C367.913 51.3372 367.765 51.0997 367.631 50.9067C367.512 50.7433 367.408 50.5949 367.304 50.4316C367.171 50.2386 367.052 50.0307 366.933 49.8229L366.889 49.7338C366.8 49.6002 366.725 49.4517 366.651 49.3181C366.532 49.1103 366.414 48.9024 366.324 48.6797L366.265 48.5461C366.206 48.4274 366.131 48.2938 366.072 48.1601C365.983 47.9523 365.894 47.7444 365.805 47.5514L365.731 47.3733C365.671 47.2397 365.612 47.1061 365.567 46.9725C365.493 46.7795 365.434 46.5865 365.359 46.3935L365.256 46.0965C365.211 45.9778 365.181 45.859 365.137 45.7551C365.077 45.5621 365.033 45.3691 364.973 45.1612L364.884 44.8495C364.855 44.7307 364.825 44.6119 364.795 44.508C364.751 44.3002 364.706 44.0775 364.677 43.8548L364.617 43.543C364.602 43.4391 364.573 43.3352 364.558 43.2313C364.513 42.964 364.498 42.6968 364.469 42.4296V42.3553C364.469 42.3553 364.469 42.2366 364.454 42.1772C364.439 42.1178 364.439 42.0139 364.424 41.9248C364.394 41.4794 364.38 41.034 364.38 40.6035C364.38 40.173 364.394 39.7276 364.424 39.2822C364.424 39.208 364.439 39.1189 364.454 39.0447V38.8665L364.469 38.7626C364.498 38.5102 364.528 38.243 364.558 37.9906C364.558 37.8867 364.587 37.7828 364.617 37.6788C364.617 37.6195 364.647 37.5601 364.662 37.4859V37.3522C364.721 37.1295 364.766 36.9217 364.81 36.699C364.84 36.5802 364.87 36.4615 364.899 36.3427L364.959 36.0903C365.018 35.8676 365.077 35.6598 365.137 35.4519C365.181 35.3332 365.211 35.2144 365.256 35.0808L365.345 34.8136C365.404 34.6206 365.478 34.4276 365.552 34.2346C365.597 34.101 365.656 33.9822 365.716 33.8486L365.805 33.6259C365.894 33.4329 365.968 33.2399 366.057 33.032C366.117 32.9133 366.176 32.7797 366.25 32.6609L366.324 32.5273C366.428 32.3194 366.547 32.0967 366.651 31.8889C366.74 31.7404 366.829 31.592 366.903 31.4435L366.933 31.3841C367.052 31.1763 367.171 30.9685 367.304 30.7755C367.438 30.5825 367.527 30.4488 367.631 30.3004C367.765 30.1074 367.898 29.9144 368.047 29.7214C368.195 29.5284 368.284 29.4096 368.403 29.2612C368.522 29.1127 368.7 28.89 368.863 28.7119C369.026 28.5337 369.13 28.4149 369.264 28.2665C369.398 28.118 369.591 27.925 369.754 27.7617C369.917 27.5984 370.036 27.4796 370.184 27.346C370.333 27.2124 370.541 27.0343 370.719 26.8709C370.897 26.7076 371.031 26.6037 371.194 26.4849C371.357 26.3662 371.565 26.188 371.758 26.0544C371.951 25.9208 372.085 25.8169 372.263 25.6981C372.426 25.5793 372.649 25.4309 372.857 25.2973C373.065 25.1637 373.213 25.0597 373.391 24.9558C373.569 24.8519 373.807 24.7183 374 24.5995C374.193 24.4807 374.371 24.3917 374.564 24.3026L374.623 24.2729C375.098 31.9037 380.295 38.4211 387.643 40.559C380.295 42.6968 375.084 49.229 374.623 56.8599L374.564 56.8302C374.371 56.7263 374.193 56.6224 374 56.5333C373.807 56.4442 373.584 56.2958 373.376 56.177C373.168 56.0582 373.02 55.9543 372.842 55.8355C372.664 55.7168 372.441 55.5831 372.248 55.4347C372.055 55.2862 371.907 55.1972 371.743 55.0784C371.58 54.9596 371.372 54.8112 371.179 54.6479L371.209 54.7072ZM392.78 47.1061C399.669 47.1061 405.904 51.0254 409.096 57.3647C401.45 57.8249 394.933 63.0359 392.78 70.3846C390.642 63.0359 384.11 57.8249 376.479 57.3647C379.671 51.0403 385.892 47.1061 392.78 47.1061ZM392.78 45.6363C386.233 45.6363 380.176 48.9321 376.449 54.4994C378.424 45.4879 387.332 39.7721 396.343 41.7318C402.727 43.1273 407.715 48.1156 409.111 54.4994C405.384 48.9321 399.327 45.6363 392.78 45.6363ZM392.78 34.1158C385.892 34.1158 379.656 30.1965 376.479 23.8572C384.125 23.397 390.642 18.186 392.795 10.8372C394.933 18.186 401.465 23.397 409.111 23.8572C405.919 30.1816 399.683 34.1158 392.795 34.1158H392.78ZM409.111 26.7225C407.151 35.734 398.243 41.4646 389.232 39.4901C382.848 38.0945 377.845 33.1063 376.464 26.7225C380.191 32.2897 386.248 35.5856 392.795 35.5856C399.342 35.5856 405.399 32.2897 409.126 26.7225H409.111ZM414.351 26.5146C414.515 26.6483 414.663 26.7819 414.826 26.9155C414.99 27.0491 415.183 27.2273 415.346 27.3906C415.509 27.5539 415.643 27.6726 415.791 27.8062C415.94 27.9399 416.118 28.1477 416.281 28.311C416.445 28.4743 416.549 28.6079 416.682 28.7564C416.816 28.9049 416.979 29.1127 417.128 29.2908V29.3205C417.261 29.469 417.38 29.6175 417.499 29.7659C417.647 29.9589 417.781 30.1371 417.914 30.3301L417.944 30.3746C418.048 30.5231 418.152 30.6715 418.241 30.82C418.375 31.013 418.493 31.2208 418.612 31.4287L418.672 31.5178C418.746 31.6514 418.835 31.785 418.909 31.9334C419.028 32.1413 419.132 32.3491 419.236 32.5718L419.295 32.6906C419.354 32.8242 419.429 32.9578 419.488 33.0914C419.592 33.2993 419.666 33.5071 419.755 33.715L419.83 33.908C419.889 34.0267 419.933 34.1603 419.978 34.2791C420.067 34.487 420.141 34.7096 420.216 34.9323L420.275 35.1253C420.319 35.2441 420.364 35.3777 420.394 35.5113C420.453 35.7192 420.512 35.9122 420.557 36.12L420.631 36.4169C420.661 36.5357 420.691 36.6545 420.72 36.7584C420.765 36.9662 420.809 37.1889 420.839 37.3968L420.869 37.5304C420.869 37.5304 420.898 37.664 420.913 37.7234C420.928 37.8273 420.958 37.9312 420.973 38.0352C421.017 38.3024 421.032 38.5696 421.062 38.822V39.0744C421.077 39.1634 421.106 39.2377 421.106 39.3268C421.136 39.7721 421.151 40.2175 421.151 40.6481C421.151 41.0786 421.136 41.524 421.106 41.9693C421.106 42.0584 421.091 42.1327 421.077 42.2217V42.3999L421.062 42.4741C421.032 42.7413 421.002 43.0086 420.973 43.2758C420.973 43.3797 420.943 43.4836 420.913 43.5876C420.913 43.6469 420.884 43.7212 420.869 43.7806L420.839 43.9142C420.795 44.122 420.765 44.3447 420.72 44.5526C420.691 44.6713 420.661 44.7901 420.631 44.9089L420.557 45.2206C420.512 45.4136 420.453 45.6215 420.394 45.8145C420.349 45.9332 420.319 46.0668 420.275 46.1856L420.186 46.4528C420.126 46.6458 420.052 46.8388 419.978 47.0318C419.933 47.1655 419.874 47.2991 419.815 47.4327L419.755 47.5811C419.666 47.8038 419.577 48.0117 419.473 48.2344C419.414 48.368 419.34 48.5016 419.28 48.6352L419.206 48.7688C419.102 48.9767 418.998 49.1845 418.879 49.3924C418.79 49.5408 418.701 49.6893 418.612 49.8377L418.582 49.8971C418.464 50.105 418.345 50.298 418.211 50.491C418.078 50.684 417.989 50.8176 417.885 50.9809C417.781 51.1442 417.617 51.3669 417.469 51.545C417.321 51.7232 417.231 51.8568 417.098 52.0201C416.964 52.1834 416.801 52.3764 416.652 52.5546C416.504 52.7327 416.385 52.8515 416.252 52.9999C416.118 53.1484 415.925 53.3414 415.762 53.5047C415.598 53.668 415.48 53.7868 415.331 53.9204C415.183 54.054 414.99 54.2322 414.812 54.3955C414.633 54.5588 414.5 54.6627 414.336 54.7963C414.173 54.9299 413.965 55.0932 413.772 55.2268C413.579 55.3605 413.446 55.4644 413.268 55.5831C413.089 55.7019 412.882 55.8504 412.674 55.984C412.466 56.1176 412.317 56.2215 412.139 56.3255C411.961 56.4294 411.724 56.563 411.516 56.6818H411.486C411.308 56.8005 411.13 56.8896 410.952 56.9787L410.892 57.0084C410.432 49.3627 405.221 42.8304 397.872 40.6777C405.221 38.5399 410.432 32.0077 410.892 24.3768L410.952 24.4065C411.13 24.4956 411.308 24.5995 411.486 24.7034H411.516C411.724 24.837 411.931 24.9558 412.124 25.0597C412.317 25.1637 412.481 25.2824 412.659 25.4012C412.837 25.52 413.06 25.6536 413.253 25.7872C413.446 25.9208 413.594 26.0247 413.757 26.1583C413.921 26.292 414.129 26.4404 414.307 26.5889L414.351 26.5146ZM414.411 56.5333C414.767 56.2809 415.123 55.9988 415.48 55.7019C415.554 55.6425 415.613 55.5831 415.673 55.5238L415.791 55.4198C416.088 55.1675 416.296 54.9745 416.504 54.7815C416.608 54.6924 416.697 54.5885 416.801 54.4994L416.86 54.44C417.068 54.2322 417.261 54.0243 417.469 53.8165C417.588 53.6977 417.707 53.5641 417.81 53.4305C418.003 53.2226 418.182 52.9999 418.36 52.7772L418.389 52.7476C418.493 52.6288 418.582 52.51 418.686 52.3764C418.879 52.124 419.058 51.8568 419.206 51.6638L419.295 51.5302C419.354 51.4411 419.414 51.3669 419.473 51.2778C419.651 51.0254 419.815 50.7434 420.023 50.387L420.082 50.2831L420.171 50.1347C420.394 49.7487 420.602 49.3478 420.794 48.947C420.824 48.8876 420.854 48.8134 420.884 48.754L420.943 48.6204C421.106 48.2641 421.225 47.982 421.329 47.7148C421.373 47.6108 421.418 47.5069 421.448 47.3881L421.507 47.2397C421.611 46.9725 421.7 46.7052 421.789 46.438C421.849 46.2747 421.893 46.0965 421.938 45.9332C422.012 45.666 422.086 45.4136 422.145 45.1464C422.19 44.9682 422.235 44.7901 422.264 44.6268C422.324 44.3596 422.368 44.0775 422.413 43.8103L422.442 43.6915C422.457 43.5579 422.487 43.4391 422.502 43.3055C422.546 42.9937 422.576 42.682 422.606 42.3999V42.2366C422.635 42.1475 422.65 42.0584 422.65 41.9545C422.68 41.4794 422.71 41.0192 422.71 40.5887C422.71 40.1581 422.695 39.7128 422.65 39.2228C422.65 39.1338 422.65 39.0447 422.621 38.9408V38.7775C422.576 38.4805 422.546 38.1688 422.502 37.8718C422.487 37.7382 422.457 37.6195 422.442 37.4859L422.413 37.3671C422.368 37.085 422.309 36.8178 422.264 36.5506C422.22 36.3724 422.19 36.1942 422.145 36.0309C422.086 35.7637 422.012 35.4965 421.938 35.2441C421.893 35.066 421.834 34.9026 421.789 34.7393C421.7 34.4721 421.611 34.2049 421.507 33.9377L421.463 33.804C421.418 33.7001 421.388 33.5813 421.344 33.4774C421.24 33.2102 421.121 32.943 420.958 32.5718C420.943 32.5273 420.913 32.4827 420.898 32.4382C420.884 32.3937 420.839 32.3046 420.809 32.2452C420.616 31.8444 420.409 31.4435 420.186 31.0575L420.097 30.9091L420.037 30.8051C419.844 30.4637 419.666 30.1816 419.503 29.9292C419.444 29.8402 419.369 29.7511 419.31 29.662L419.221 29.5432C419.058 29.3057 418.894 29.0682 418.716 28.8455C418.627 28.7267 418.523 28.6079 418.434 28.4892L418.389 28.4298C418.211 28.2071 418.033 27.9992 417.855 27.7914C417.736 27.6578 417.617 27.5242 417.499 27.3906C417.306 27.1827 417.113 26.9749 416.905 26.7819L416.845 26.7225C416.742 26.6186 416.638 26.5146 416.534 26.4256C416.341 26.2474 416.133 26.0544 415.851 25.8169L415.732 25.713L415.509 25.52C415.168 25.2379 414.841 24.9855 414.5 24.7331L414.426 24.6737C414.233 24.5401 414.04 24.4065 413.847 24.2729C422.873 26.2474 428.574 35.155 426.614 44.1666C425.219 50.5503 420.23 55.5386 413.847 56.9341C414.025 56.8154 414.218 56.6818 414.426 56.5333H414.411Z" fill="url(#paint45_linear_284_69664)"/>
<path d="M392.78 58.5776C394.414 58.5776 395.735 57.2563 395.735 55.6233C395.735 53.9902 394.414 52.6689 392.78 52.6689C391.147 52.6689 389.826 53.9902 389.826 55.6233C389.826 57.2563 391.147 58.5776 392.78 58.5776ZM391.296 55.6233C391.296 54.8067 391.964 54.1387 392.78 54.1387C393.597 54.1387 394.265 54.8067 394.265 55.6233C394.265 56.4398 393.597 57.1078 392.78 57.1078C391.964 57.1078 391.296 56.4398 391.296 55.6233Z" fill="url(#paint46_linear_284_69664)"/>
<path d="M392.78 22.3524C391.147 22.3524 389.826 23.6737 389.826 25.3067C389.826 26.9398 391.147 28.261 392.78 28.261C394.414 28.261 395.735 26.9398 395.735 25.3067C395.735 23.6737 394.414 22.3524 392.78 22.3524ZM394.265 25.3067C394.265 26.1232 393.597 26.7913 392.78 26.7913C391.964 26.7913 391.296 26.1232 391.296 25.3067C391.296 24.4902 391.964 23.8221 392.78 23.8221C393.597 23.8221 394.265 24.4902 394.265 25.3067Z" fill="url(#paint47_linear_284_69664)"/>
</g>
<path d="M517.078 77.7758C516.596 77.7758 516.13 77.6102 515.753 77.3092C507.054 70.4006 501.861 63.9436 500.025 61.4903C499.814 61.2193 499.588 60.9183 499.377 60.6022L499.272 60.4367C499.001 60.0303 498.76 59.5938 498.535 59.1573C498.083 58.9165 497.647 58.6606 497.225 58.3897C496.819 58.1188 496.488 57.893 496.157 57.6221C493.748 55.831 487.306 50.6383 480.383 41.9386C479.766 41.156 479.766 40.0723 480.383 39.3046C487.291 30.605 493.733 25.4123 496.187 23.5911C496.488 23.3503 496.804 23.1245 497.15 22.8987C497.632 22.5826 498.083 22.3268 498.535 22.086C498.76 21.6495 499.016 21.213 499.272 20.8066L499.377 20.641C499.588 20.34 499.799 20.039 500.025 19.753C501.846 17.3147 507.039 10.8727 515.738 3.94913C516.115 3.64811 516.581 3.48254 517.063 3.48254C517.544 3.48254 518.011 3.64811 518.387 3.94913C527.102 10.8727 532.28 17.2996 534.101 19.738C534.327 20.0239 534.552 20.34 534.778 20.6561L534.868 20.7765C535.124 21.1678 535.35 21.5592 535.561 21.9655C536.027 22.2064 536.494 22.4773 536.93 22.7633L537.081 22.8686C537.337 23.0342 537.653 23.275 537.969 23.5158C540.392 25.322 546.834 30.5147 553.773 39.2294C554.39 39.997 554.39 41.0807 553.773 41.8634C546.834 50.5781 540.392 55.7708 537.954 57.607C537.683 57.8328 537.367 58.0435 537.051 58.2693C536.554 58.6004 536.118 58.8563 535.681 59.0821C535.44 59.5486 535.169 60.0152 534.884 60.4668L534.793 60.6022C534.582 60.9183 534.357 61.2344 534.116 61.5354C532.295 63.9737 527.087 70.4157 518.417 77.3242C518.041 77.6253 517.575 77.7908 517.093 77.7908L517.078 77.7758ZM508.438 42.7363C506.391 42.7363 504.495 43.6695 503.261 45.2951L502.674 46.2132C501.62 47.9591 501.048 49.976 501.033 52.0381C501.033 54.2205 501.665 56.3427 502.869 58.1639L503.697 59.2777L503.788 59.4132C505.368 61.4451 509.913 66.984 517.093 72.9142C524.272 66.999 528.818 61.4451 530.473 59.2928L531.346 58.1037C531.602 57.7124 531.858 57.2458 532.084 56.7642C532.084 56.7642 532.144 56.6136 532.219 56.4782C532.821 55.1236 533.153 53.5883 533.153 52.0079C533.153 49.961 532.566 47.929 531.497 46.168L530.865 45.1897C530.353 44.5274 529.646 43.9254 528.833 43.4889C527.885 42.9772 526.816 42.7062 525.747 42.7062C523.339 42.7062 521.142 44.0157 519.998 46.1379C519.17 47.6732 518.989 49.4342 519.501 51.1049C519.923 52.5046 520.765 53.6786 521.939 54.5215C522.827 53.3325 523.58 52.0531 524.197 50.6834C524.528 49.9158 525.296 49.4191 526.139 49.4191C526.425 49.4191 526.711 49.4793 526.982 49.5997C528.05 50.0663 528.547 51.3156 528.095 52.3842C525.19 59.1272 518.959 63.462 518.267 63.9286C517.921 64.1694 517.514 64.2898 517.078 64.2898C516.641 64.2898 516.235 64.1694 515.889 63.9286C515.618 63.748 509.191 59.3229 506.211 52.3993C505.744 51.3306 506.241 50.0814 507.325 49.6148C507.596 49.4944 507.881 49.4342 508.167 49.4342C509.01 49.4342 509.778 49.9309 510.109 50.7135C510.696 52.0531 511.434 53.3174 512.307 54.5065C512.803 54.1452 513.255 53.7087 513.631 53.2121C515.814 50.3523 515.272 46.2584 512.412 44.0759C511.268 43.2029 509.898 42.7363 508.453 42.7363H508.438ZM515.076 57.7274C515.723 58.3596 516.385 58.9617 517.078 59.5336C517.77 58.9617 518.463 58.3746 519.095 57.7425C518.327 57.1404 517.65 56.4481 517.063 55.6654C516.491 56.433 515.814 57.1254 515.061 57.7274H515.076ZM484.778 40.6292C489.549 46.4239 494.094 50.5028 496.789 52.7304C496.698 50.6232 497.045 48.516 497.812 46.5293C496.307 45.0994 494.952 43.504 493.763 41.8032C493.267 41.0807 493.267 40.1475 493.763 39.4251C494.983 37.7393 496.337 36.189 497.842 34.7893C497.06 32.8025 496.713 30.6501 496.804 28.5129C494.064 30.7706 489.549 34.8344 484.778 40.6141V40.6292ZM536.283 46.4239C537.006 48.215 537.367 50.1115 537.367 52.0381C537.367 52.2488 537.367 52.4595 537.367 52.6702C540.061 50.4426 544.592 46.3637 549.393 40.5539C544.607 34.7441 540.061 30.6652 537.367 28.4376C537.472 30.5598 537.126 32.6971 536.374 34.6688C537.864 36.0987 539.218 37.6791 540.392 39.3799C540.889 40.1024 540.889 41.0355 540.392 41.758C539.173 43.4588 537.803 45.0091 536.298 46.4239H536.283ZM514.835 40.6292C515.693 41.2613 516.461 42.0289 517.093 42.8869C517.725 42.0289 518.493 41.2613 519.351 40.6292C518.493 39.997 517.725 39.2294 517.093 38.3715C516.461 39.2294 515.693 39.997 514.835 40.6292ZM498.188 40.6292C498.745 41.3366 499.347 41.9988 499.964 42.646C500.567 41.8784 501.274 41.2011 502.057 40.6141C501.289 40.0422 500.597 39.3799 499.995 38.6123C499.362 39.2595 498.76 39.9217 498.188 40.6141V40.6292ZM532.114 40.6292C532.867 41.1861 533.559 41.8483 534.146 42.5858C534.793 41.9386 535.41 41.2613 535.982 40.5539C535.425 39.8615 534.853 39.1993 534.236 38.5521C533.634 39.3347 532.912 40.0422 532.114 40.6292ZM521.879 26.7519C521.382 27.1131 520.931 27.5496 520.555 28.0463C519.501 29.431 519.034 31.1468 519.275 32.8627C519.516 34.5785 520.389 36.1138 521.774 37.1824C522.918 38.0554 524.287 38.522 525.732 38.522C527.779 38.522 529.676 37.5888 530.925 35.9633L531.512 35.0301C531.617 34.8645 531.723 34.6688 531.828 34.4581C531.828 34.3979 531.933 34.2023 532.054 34.0367C533.755 30.62 533.499 26.3906 531.316 23.0793L530.489 21.9655L530.398 21.8451C528.818 19.7831 524.257 14.2442 517.078 8.32906C509.883 14.2743 505.353 19.7982 503.697 21.9354L502.824 23.1245C501.65 24.9005 501.018 27.0228 501.018 29.2203C501.018 31.2823 501.605 33.2992 502.674 35.0752L503.291 36.0385C503.803 36.7008 504.51 37.3028 505.323 37.7393C506.271 38.2511 507.34 38.522 508.408 38.522C510.816 38.522 513.014 37.2125 514.158 35.0903C514.986 33.555 515.166 31.794 514.655 30.1234C514.233 28.7236 513.39 27.5496 512.216 26.7067C511.313 27.8958 510.561 29.1902 509.959 30.5598C509.627 31.3275 508.86 31.8392 508.017 31.8392C507.761 31.8392 507.505 31.794 507.264 31.7037L507.174 31.6736C506.662 31.4479 506.256 31.0415 506.045 30.5147C505.835 29.9879 505.85 29.4159 506.075 28.8891C508.965 22.1763 515.196 17.8264 515.904 17.3448C516.25 17.104 516.671 16.9836 517.093 16.9836C517.514 16.9836 517.921 17.104 518.282 17.3448C518.568 17.5405 525.01 21.9956 527.975 28.8891C528.442 29.9578 527.945 31.207 526.861 31.6736C526.59 31.794 526.304 31.8542 526.018 31.8542C525.175 31.8542 524.408 31.3576 524.077 30.5749C523.49 29.2353 522.752 27.971 521.879 26.782V26.7519ZM515.046 23.5309C515.814 24.1329 516.491 24.8253 517.078 25.608C517.65 24.8403 518.327 24.148 519.08 23.5459C518.447 22.9138 517.77 22.3117 517.078 21.7398C516.385 22.2967 515.708 22.8987 515.061 23.5309H515.046Z" fill="url(#paint48_linear_284_69664)"/>
<path d="M552.961 39.8727C546.082 31.2182 539.656 26.0707 537.323 24.3247C537.037 24.099 536.736 23.8882 536.435 23.6775L536.404 23.6474L536.359 23.6173C535.863 23.2862 535.336 23.0002 534.794 22.7293C534.553 22.2477 534.297 21.7811 533.996 21.3295L533.951 21.2693L533.906 21.2091C533.71 20.9081 533.485 20.6221 533.259 20.3211C531.498 17.958 526.35 11.5763 517.726 4.71289C517.319 4.39681 516.763 4.39681 516.356 4.71289C507.702 11.5913 502.554 18.0182 500.808 20.3361C500.597 20.6071 500.387 20.893 500.206 21.179C500.176 21.2242 500.161 21.2392 500.146 21.2543C500.131 21.2693 500.116 21.2994 500.101 21.3145C499.8 21.7961 499.514 22.2928 499.258 22.8046C498.731 23.0604 498.234 23.3464 497.738 23.6625L497.693 23.6926H497.662C497.346 23.9183 497.045 24.1291 496.759 24.3699C494.411 26.1158 488.015 31.2784 481.151 39.9028C480.835 40.3092 480.835 40.8661 481.151 41.2725C488.03 49.9119 494.426 55.0595 496.774 56.8205C497.06 57.0613 497.376 57.272 497.677 57.4828H497.708L497.753 57.5279C498.234 57.844 498.746 58.13 499.273 58.3858C499.529 58.8976 499.8 59.3943 500.116 59.8609L500.161 59.9361L500.221 60.0114C500.417 60.2973 500.612 60.5833 500.838 60.8542C502.584 63.1872 507.732 69.5991 516.386 76.4775C516.793 76.7936 517.35 76.7936 517.756 76.4775C526.38 69.6141 531.528 63.2173 533.289 60.8693C533.515 60.5833 533.725 60.2973 533.921 59.9963L533.966 59.9361L534.011 59.8759C534.342 59.3642 534.643 58.8374 534.899 58.2955C535.396 58.0547 535.893 57.7687 536.359 57.4677L536.42 57.4376L536.465 57.4075C536.766 57.2118 537.052 57.0011 537.338 56.7753C539.671 55.0294 546.082 49.8818 552.976 41.2123C553.292 40.8059 553.292 40.249 552.976 39.8426L552.961 39.8727ZM533.996 44.1473C533.063 42.6422 531.754 41.4381 530.188 40.6253C531.799 39.7975 533.153 38.5181 534.087 36.9678C535.246 38.0816 536.314 39.2857 537.277 40.5651C536.284 41.8444 535.185 43.0485 533.996 44.1623V44.1473ZM502.825 21.4048C502.825 21.4048 502.87 21.3446 502.885 21.2994C504.752 18.8762 509.508 13.1266 517.064 7.00069C524.619 13.1266 529.391 18.8912 531.257 21.3145C531.272 21.3446 531.287 21.3747 531.317 21.4048L532.145 22.5186C534.538 26.1309 534.809 30.7366 532.867 34.6048C532.807 34.6951 532.762 34.7854 532.717 34.8907C532.596 35.1316 532.476 35.3423 532.341 35.5681L531.708 36.5614C529.18 39.8727 524.454 40.5049 521.142 37.9763C517.831 35.4476 517.199 30.7215 519.728 27.4102C520.375 26.5674 521.173 25.875 522.106 25.3783C523.28 26.8233 524.243 28.4187 524.996 30.1195C525.236 30.6764 525.884 30.9323 526.44 30.6914C526.997 30.4506 527.253 29.8034 527.012 29.2465C524.168 22.6089 517.952 18.3343 517.696 18.1537C517.319 17.8978 516.838 17.8978 516.461 18.1537C516.191 18.3343 509.854 22.6239 506.994 29.2616C506.753 29.8185 506.994 30.4657 507.566 30.7065C507.702 30.7667 507.852 30.7968 508.003 30.7968C508.439 30.7968 508.846 30.5409 509.011 30.1345C509.779 28.4187 510.757 26.8082 511.961 25.3482C515.619 27.3199 517.003 31.8805 515.032 35.553C513.06 39.2105 508.499 40.5952 504.827 38.6235C503.894 38.1268 503.066 37.4194 502.419 36.5765L501.786 35.5831C500.612 33.6565 499.995 31.4591 499.98 29.2014C499.98 26.8232 500.673 24.4903 501.982 22.5035L502.81 21.3897L502.825 21.4048ZM512.894 40.6253C514.685 39.6921 516.145 38.2321 517.064 36.441C517.997 38.2321 519.442 39.6921 521.233 40.6253C519.442 41.5585 517.982 43.0184 517.064 44.8096C516.13 43.0184 514.685 41.5585 512.894 40.6253ZM520.676 57.5881C519.562 58.7621 518.343 59.8458 517.064 60.8241C515.784 59.8308 514.595 58.7471 513.496 57.5731C515.017 56.6399 516.251 55.3154 517.064 53.75C517.891 55.3455 519.141 56.67 520.676 57.6032V57.5881ZM513.451 23.6625C514.565 22.4885 515.769 21.4048 517.064 20.4264C518.343 21.4198 519.532 22.5035 520.631 23.6775C519.111 24.6107 517.876 25.9202 517.064 27.5006C516.236 25.9051 514.986 24.5806 513.451 23.6474V23.6625ZM500.086 44.2376C498.912 43.1238 497.843 41.9197 496.865 40.6253C497.858 39.3459 498.942 38.1569 500.116 37.0581C501.049 38.5783 502.373 39.8125 503.954 40.6253C502.358 41.4531 501.019 42.7024 500.086 44.2376ZM497.843 54.8638C497.843 54.8638 497.783 54.8187 497.753 54.8036C495.329 52.9373 489.565 48.166 483.439 40.6102C489.565 33.0545 495.314 28.2832 497.753 26.4169L497.843 26.3567L498.114 26.161C497.467 29.1411 497.798 32.2568 499.047 35.0413C497.391 36.5163 495.901 38.1719 494.592 39.9781C494.336 40.3544 494.336 40.836 494.592 41.1972C495.871 43.0335 497.361 44.7343 499.017 46.2394C497.783 49.0089 497.467 52.0944 498.114 55.0595L497.843 54.8488V54.8638ZM531.317 59.8308C531.317 59.8308 531.272 59.891 531.257 59.9211C529.391 62.3443 524.619 68.109 517.064 74.2349C509.508 68.109 504.737 62.3594 502.87 59.9211C502.855 59.891 502.825 59.8609 502.81 59.8308L501.982 58.717C500.673 56.7302 499.98 54.3972 499.98 52.0191C499.98 49.7765 500.612 47.5639 501.786 45.6374L502.419 44.644C504.947 41.3327 509.673 40.7006 512.985 43.2292C516.296 45.7578 516.928 50.4839 514.399 53.7952C513.752 54.6381 512.955 55.3304 512.021 55.8271C510.847 54.3822 509.884 52.7867 509.131 51.0859C508.891 50.5291 508.243 50.2732 507.687 50.514C507.13 50.7548 506.874 51.402 507.115 51.9589C509.959 58.5965 516.176 62.8711 516.431 63.0517C516.808 63.3076 517.289 63.3076 517.666 63.0517C517.937 62.8711 524.273 58.5815 527.133 51.9439C527.374 51.387 527.118 50.7398 526.561 50.499C526.004 50.2581 525.357 50.514 525.116 51.0709C524.348 52.7867 523.37 54.3972 522.166 55.8422C518.508 53.8704 517.124 49.3099 519.095 45.6374C521.067 41.9799 525.628 40.5952 529.3 42.5669C530.233 43.0787 531.061 43.771 531.708 44.6139L532.341 45.6073C533.5 47.5338 534.132 49.7313 534.147 51.974C534.147 53.6898 533.786 55.3906 533.078 56.956C533.048 57.0162 533.018 57.0914 532.988 57.1516C532.747 57.6784 532.461 58.1751 532.145 58.6568L531.317 59.7856V59.8308ZM536.374 54.7284C536.374 54.7284 536.314 54.7735 536.284 54.7886L536.028 54.9842C536.224 54.021 536.329 53.0276 536.329 52.0342C536.329 50.0023 535.893 48.0004 535.05 46.1491C536.721 44.659 538.211 43.0034 539.52 41.1822C539.776 40.8059 539.776 40.3243 539.52 39.963C538.241 38.1268 536.781 36.441 535.125 34.9359C536.359 32.1514 536.66 29.0508 535.998 26.0857L536.284 26.2965C536.284 26.2965 536.344 26.3416 536.374 26.3567C538.798 28.223 544.562 32.9943 550.673 40.535C544.562 48.0757 538.798 52.847 536.374 54.7133V54.7284Z" fill="url(#paint49_linear_284_69664)"/>
<defs>
<linearGradient id="paint0_linear_284_69664" x1="44.5091" y1="3.48251" x2="44.5091" y2="77.7607" gradientUnits="userSpaceOnUse">
<stop stop-color="#965A25"/>
<stop offset="1" stop-color="#F6977B"/>
</linearGradient>
<linearGradient id="paint1_linear_284_69664" x1="44.5095" y1="76.7504" x2="44.5095" y2="4.50413" gradientUnits="userSpaceOnUse">
<stop stop-color="#965A25"/>
<stop offset="1" stop-color="#F6977B"/>
</linearGradient>
<linearGradient id="paint2_linear_284_69664" x1="168.787" y1="3.49011" x2="168.787" y2="77.7833" gradientUnits="userSpaceOnUse">
<stop stop-color="#015DA6"/>
<stop offset="1" stop-color="#3EC4E4"/>
</linearGradient>
<linearGradient id="paint3_linear_284_69664" x1="168.787" y1="3.4903" x2="168.787" y2="77.7835" gradientUnits="userSpaceOnUse">
<stop stop-color="#015DA6"/>
<stop offset="1" stop-color="#3EC4E4"/>
</linearGradient>
<linearGradient id="paint4_linear_284_69664" x1="168.788" y1="3.49087" x2="168.788" y2="77.7827" gradientUnits="userSpaceOnUse">
<stop stop-color="#015DA6"/>
<stop offset="1" stop-color="#3EC4E4"/>
</linearGradient>
<linearGradient id="paint5_linear_284_69664" x1="168.787" y1="3.4914" x2="168.787" y2="77.7833" gradientUnits="userSpaceOnUse">
<stop stop-color="#015DA6"/>
<stop offset="1" stop-color="#3EC4E4"/>
</linearGradient>
<linearGradient id="paint6_linear_284_69664" x1="168.786" y1="3.49284" x2="168.786" y2="77.7847" gradientUnits="userSpaceOnUse">
<stop stop-color="#015DA6"/>
<stop offset="1" stop-color="#3EC4E4"/>
</linearGradient>
<linearGradient id="paint7_linear_284_69664" x1="168.788" y1="3.48883" x2="168.788" y2="77.7807" gradientUnits="userSpaceOnUse">
<stop stop-color="#015DA6"/>
<stop offset="1" stop-color="#3EC4E4"/>
</linearGradient>
<linearGradient id="paint8_linear_284_69664" x1="168.788" y1="3.49088" x2="168.788" y2="77.7828" gradientUnits="userSpaceOnUse">
<stop stop-color="#015DA6"/>
<stop offset="1" stop-color="#3EC4E4"/>
</linearGradient>
<linearGradient id="paint9_linear_284_69664" x1="168.787" y1="3.49129" x2="168.787" y2="77.7831" gradientUnits="userSpaceOnUse">
<stop stop-color="#015DA6"/>
<stop offset="1" stop-color="#3EC4E4"/>
</linearGradient>
<linearGradient id="paint10_linear_284_69664" x1="168.787" y1="3.48995" x2="168.787" y2="77.7818" gradientUnits="userSpaceOnUse">
<stop stop-color="#015DA6"/>
<stop offset="1" stop-color="#3EC4E4"/>
</linearGradient>
<linearGradient id="paint11_linear_284_69664" x1="168.786" y1="3.49121" x2="168.786" y2="77.7831" gradientUnits="userSpaceOnUse">
<stop stop-color="#015DA6"/>
<stop offset="1" stop-color="#3EC4E4"/>
</linearGradient>
<linearGradient id="paint12_linear_284_69664" x1="168.787" y1="3.4894" x2="168.787" y2="77.7813" gradientUnits="userSpaceOnUse">
<stop stop-color="#015DA6"/>
<stop offset="1" stop-color="#3EC4E4"/>
</linearGradient>
<linearGradient id="paint13_linear_284_69664" x1="168.787" y1="3.49181" x2="168.787" y2="77.7837" gradientUnits="userSpaceOnUse">
<stop stop-color="#015DA6"/>
<stop offset="1" stop-color="#3EC4E4"/>
</linearGradient>
<linearGradient id="paint14_linear_284_69664" x1="168.787" y1="3.49141" x2="168.787" y2="77.7833" gradientUnits="userSpaceOnUse">
<stop stop-color="#015DA6"/>
<stop offset="1" stop-color="#3EC4E4"/>
</linearGradient>
<linearGradient id="paint15_linear_284_69664" x1="168.788" y1="3.48868" x2="168.788" y2="77.7805" gradientUnits="userSpaceOnUse">
<stop stop-color="#015DA6"/>
<stop offset="1" stop-color="#3EC4E4"/>
</linearGradient>
<linearGradient id="paint16_linear_284_69664" x1="168.786" y1="3.49164" x2="168.786" y2="77.7835" gradientUnits="userSpaceOnUse">
<stop stop-color="#015DA6"/>
<stop offset="1" stop-color="#3EC4E4"/>
</linearGradient>
<linearGradient id="paint17_linear_284_69664" x1="168.787" y1="76.7614" x2="168.787" y2="4.51514" gradientUnits="userSpaceOnUse">
<stop stop-color="#015DA6"/>
<stop offset="1" stop-color="#3EC4E4"/>
</linearGradient>
<linearGradient id="paint18_linear_284_69664" x1="168.787" y1="76.7616" x2="168.787" y2="4.51533" gradientUnits="userSpaceOnUse">
<stop stop-color="#015DA6"/>
<stop offset="1" stop-color="#3EC4E4"/>
</linearGradient>
<linearGradient id="paint19_linear_284_69664" x1="168.788" y1="76.763" x2="168.788" y2="4.51806" gradientUnits="userSpaceOnUse">
<stop stop-color="#015DA6"/>
<stop offset="1" stop-color="#3EC4E4"/>
</linearGradient>
<linearGradient id="paint20_linear_284_69664" x1="168.787" y1="76.7615" x2="168.787" y2="4.51655" gradientUnits="userSpaceOnUse">
<stop stop-color="#015DA6"/>
<stop offset="1" stop-color="#3EC4E4"/>
</linearGradient>
<linearGradient id="paint21_linear_284_69664" x1="168.788" y1="76.7598" x2="168.788" y2="4.51488" gradientUnits="userSpaceOnUse">
<stop stop-color="#015DA6"/>
<stop offset="1" stop-color="#3EC4E4"/>
</linearGradient>
<linearGradient id="paint22_linear_284_69664" x1="168.788" y1="76.7617" x2="168.788" y2="4.51672" gradientUnits="userSpaceOnUse">
<stop stop-color="#015DA6"/>
<stop offset="1" stop-color="#3EC4E4"/>
</linearGradient>
<linearGradient id="paint23_linear_284_69664" x1="168.787" y1="76.7617" x2="168.787" y2="4.51676" gradientUnits="userSpaceOnUse">
<stop stop-color="#015DA6"/>
<stop offset="1" stop-color="#3EC4E4"/>
</linearGradient>
<linearGradient id="paint24_linear_284_69664" x1="168.786" y1="76.7625" x2="168.786" y2="4.51749" gradientUnits="userSpaceOnUse">
<stop stop-color="#015DA6"/>
<stop offset="1" stop-color="#3EC4E4"/>
</linearGradient>
<linearGradient id="paint25_linear_284_69664" x1="168.787" y1="76.7621" x2="168.787" y2="4.51719" gradientUnits="userSpaceOnUse">
<stop stop-color="#015DA6"/>
<stop offset="1" stop-color="#3EC4E4"/>
</linearGradient>
<linearGradient id="paint26_linear_284_69664" x1="168.786" y1="76.7619" x2="168.786" y2="4.51698" gradientUnits="userSpaceOnUse">
<stop stop-color="#015DA6"/>
<stop offset="1" stop-color="#3EC4E4"/>
</linearGradient>
<linearGradient id="paint27_linear_284_69664" x1="168.787" y1="76.7621" x2="168.787" y2="4.5172" gradientUnits="userSpaceOnUse">
<stop stop-color="#015DA6"/>
<stop offset="1" stop-color="#3EC4E4"/>
</linearGradient>
<linearGradient id="paint28_linear_284_69664" x1="168.787" y1="76.7622" x2="168.787" y2="4.51731" gradientUnits="userSpaceOnUse">
<stop stop-color="#015DA6"/>
<stop offset="1" stop-color="#3EC4E4"/>
</linearGradient>
<linearGradient id="paint29_linear_284_69664" x1="168.788" y1="76.7617" x2="168.788" y2="4.51676" gradientUnits="userSpaceOnUse">
<stop stop-color="#015DA6"/>
<stop offset="1" stop-color="#3EC4E4"/>
</linearGradient>
<linearGradient id="paint30_linear_284_69664" x1="168.787" y1="76.7615" x2="168.787" y2="4.51657" gradientUnits="userSpaceOnUse">
<stop stop-color="#015DA6"/>
<stop offset="1" stop-color="#3EC4E4"/>
</linearGradient>
<linearGradient id="paint31_linear_284_69664" x1="168.787" y1="76.7598" x2="168.787" y2="4.51486" gradientUnits="userSpaceOnUse">
<stop stop-color="#015DA6"/>
<stop offset="1" stop-color="#3EC4E4"/>
</linearGradient>
<linearGradient id="paint32_linear_284_69664" x1="280.78" y1="3.48182" x2="280.78" y2="77.7737" gradientUnits="userSpaceOnUse">
<stop stop-color="#DD1F27"/>
<stop offset="1" stop-color="#FDC66F"/>
</linearGradient>
<linearGradient id="paint33_linear_284_69664" x1="280.781" y1="3.48251" x2="280.781" y2="77.7757" gradientUnits="userSpaceOnUse">
<stop stop-color="#DD1F27"/>
<stop offset="1" stop-color="#FDC66F"/>
</linearGradient>
<linearGradient id="paint34_linear_284_69664" x1="280.78" y1="3.48162" x2="280.78" y2="77.7735" gradientUnits="userSpaceOnUse">
<stop stop-color="#DD1F27"/>
<stop offset="1" stop-color="#FDC66F"/>
</linearGradient>
<linearGradient id="paint35_linear_284_69664" x1="280.78" y1="76.7497" x2="280.78" y2="4.50479" gradientUnits="userSpaceOnUse">
<stop stop-color="#DD1F27"/>
<stop offset="1" stop-color="#FDC66F"/>
</linearGradient>
<linearGradient id="paint36_linear_284_69664" x1="280.781" y1="76.752" x2="280.781" y2="4.50579" gradientUnits="userSpaceOnUse">
<stop stop-color="#DD1F27"/>
<stop offset="1" stop-color="#FDC66F"/>
</linearGradient>
<linearGradient id="paint37_linear_284_69664" x1="280.78" y1="76.7499" x2="280.78" y2="4.50496" gradientUnits="userSpaceOnUse">
<stop stop-color="#DD1F27"/>
<stop offset="1" stop-color="#FDC66F"/>
</linearGradient>
<linearGradient id="paint38_linear_284_69664" x1="392.78" y1="3.97468" x2="392.78" y2="77.2533" gradientUnits="userSpaceOnUse">
<stop stop-color="#069046"/>
<stop offset="1" stop-color="#9AD3B5"/>
</linearGradient>
<linearGradient id="paint39_linear_284_69664" x1="392.781" y1="3.98666" x2="392.781" y2="77.2653" gradientUnits="userSpaceOnUse">
<stop stop-color="#069046"/>
<stop offset="1" stop-color="#9AD3B5"/>
</linearGradient>
<linearGradient id="paint40_linear_284_69664" x1="392.779" y1="3.98166" x2="392.779" y2="77.2616" gradientUnits="userSpaceOnUse">
<stop stop-color="#069046"/>
<stop offset="1" stop-color="#9AD3B5"/>
</linearGradient>
<linearGradient id="paint41_linear_284_69664" x1="392.78" y1="3.98318" x2="392.78" y2="77.2618" gradientUnits="userSpaceOnUse">
<stop stop-color="#069046"/>
<stop offset="1" stop-color="#9AD3B5"/>
</linearGradient>
<linearGradient id="paint42_linear_284_69664" x1="392.78" y1="3.98338" x2="392.78" y2="77.262" gradientUnits="userSpaceOnUse">
<stop stop-color="#069046"/>
<stop offset="1" stop-color="#9AD3B5"/>
</linearGradient>
<linearGradient id="paint43_linear_284_69664" x1="392.781" y1="76.2438" x2="392.781" y2="4.98423" gradientUnits="userSpaceOnUse">
<stop stop-color="#069046"/>
<stop offset="1" stop-color="#9AD3B5"/>
</linearGradient>
<linearGradient id="paint44_linear_284_69664" x1="392.781" y1="76.2499" x2="392.781" y2="4.99035" gradientUnits="userSpaceOnUse">
<stop stop-color="#069046"/>
<stop offset="1" stop-color="#9AD3B5"/>
</linearGradient>
<linearGradient id="paint45_linear_284_69664" x1="392.78" y1="76.2488" x2="392.78" y2="4.98792" gradientUnits="userSpaceOnUse">
<stop stop-color="#069046"/>
<stop offset="1" stop-color="#9AD3B5"/>
</linearGradient>
<linearGradient id="paint46_linear_284_69664" x1="392.78" y1="76.244" x2="392.78" y2="4.9844" gradientUnits="userSpaceOnUse">
<stop stop-color="#069046"/>
<stop offset="1" stop-color="#9AD3B5"/>
</linearGradient>
<linearGradient id="paint47_linear_284_69664" x1="392.78" y1="76.2425" x2="392.78" y2="4.98289" gradientUnits="userSpaceOnUse">
<stop stop-color="#069046"/>
<stop offset="1" stop-color="#9AD3B5"/>
</linearGradient>
<linearGradient id="paint48_linear_284_69664" x1="517.078" y1="3.48254" x2="517.078" y2="77.7758" gradientUnits="userSpaceOnUse">
<stop stop-color="#39BA99"/>
<stop offset="1" stop-color="#A7C8C8"/>
</linearGradient>
<linearGradient id="paint49_linear_284_69664" x1="517.079" y1="82.3624" x2="517.079" y2="4.50217" gradientUnits="userSpaceOnUse">
<stop stop-color="#2AAC8B"/>
<stop offset="0.438678" stop-color="#39BA99"/>
<stop offset="1" stop-color="#A7C8C8"/>
</linearGradient>
<clipPath id="clip0_284_69664">
<rect width="74.2781" height="74.2781" fill="white" transform="translate(355.641 3.49768)"/>
</clipPath>
</defs>
</svg>
