<svg width="131" height="130" viewBox="0 0 131 130" fill="none" xmlns="http://www.w3.org/2000/svg">
<circle cx="65.5469" cy="65" r="65" fill="#FDE5D7"/>
<circle cx="65.5479" cy="65.9609" r="39.0908" fill="#FFC76F"/>
<g clip-path="url(#clip0_284_60899)">
<path d="M104.506 65.9593C104.506 44.4427 87.0638 27 65.5472 27C44.0306 27 26.5879 44.4427 26.5879 65.9593C26.5879 87.4759 44.0306 104.919 65.5472 104.919" stroke="#985801" stroke-width="4.30122" stroke-linecap="round" stroke-linejoin="round"/>
<path d="M65.5491 43.0479V66.9666L55.3789 77.7614" stroke="#985801" stroke-width="3.6" stroke-linecap="round" stroke-linejoin="round"/>
<path d="M94.8662 60.3223H94.8672C94.8682 60.3205 94.8695 60.3185 94.8701 60.3174L94.8623 60.333C94.8506 60.3548 94.8287 60.3957 94.7998 60.4541C94.7414 60.5722 94.6542 60.7581 94.5586 60.9971C94.3642 61.4828 94.1506 62.1455 94.0459 62.8799C93.8412 64.3166 94.0558 65.8198 95.4736 67.0762L96.29 67.7871C100.302 71.2435 105.172 75.0536 108.193 80.8838L108.5 81.4941L108.508 81.5107L108.737 82.0117C109.855 84.5367 110.479 87.3261 110.479 90.249C110.479 101.496 101.374 110.596 90.1338 110.596C79.0753 110.596 70.0782 101.779 69.7998 90.7744L69.793 90.249C69.793 90.2139 69.7934 90.1786 69.7949 90.1436V90.1396C69.795 90.1381 69.7958 90.1361 69.7959 90.1338C69.7961 90.1288 69.7965 90.1215 69.7969 90.1133C69.7976 90.0969 69.7983 90.0736 69.7998 90.0449C69.8027 89.9871 69.8072 89.905 69.8135 89.8008C69.826 89.592 69.8458 89.2935 69.876 88.9248C69.9356 88.1961 70.0362 87.1835 70.1992 86.0312C70.2001 86.0241 70.2008 86.0153 70.2021 86.0049C70.2049 85.9836 70.209 85.9555 70.2139 85.9209C70.2236 85.8517 70.2377 85.7565 70.2568 85.6377C70.2951 85.4001 70.354 85.067 70.4395 84.6592C70.6099 83.8455 70.8887 82.7192 71.3281 81.4482C72.1928 78.9476 73.7497 75.6755 76.5137 73.1797L76.665 73.0527C77.4123 72.4778 78.4235 72.3734 79.2764 72.7861C80.6262 67.7435 84.0129 62.2225 91.2402 57.0527L91.4229 56.9336C92.3569 56.381 93.5536 56.4925 94.3711 57.2314C95.2413 58.0181 95.4463 59.3033 94.8662 60.3223Z" fill="white" stroke="#FDE5D7" stroke-width="5" stroke-linejoin="round"/>
<path d="M92.1855 58.2246C92.5591 58.0035 93.0382 58.0482 93.3652 58.3438C93.714 58.659 93.7961 59.1751 93.5625 59.583C93.5619 59.5842 93.5607 59.5858 93.5596 59.5879C93.5556 59.595 93.5484 59.6075 93.5391 59.625C93.5202 59.6602 93.4916 59.7161 93.4551 59.79C93.3817 59.9385 93.278 60.1598 93.166 60.4395C92.9408 61.0023 92.6866 61.7843 92.5605 62.6689C92.3104 64.4252 92.5658 66.5062 94.4824 68.2021L95.3203 68.9316C99.4059 72.457 103.999 76.0481 106.859 81.5693L107.149 82.1484L107.152 82.1543L107.366 82.6191C108.402 84.9586 108.979 87.5417 108.979 90.249C108.979 100.667 100.545 109.096 90.1338 109.096C79.8906 109.096 71.5565 100.929 71.2988 90.7354L71.293 90.249C71.293 90.2351 71.2934 90.221 71.2939 90.207V90.2002C71.2941 90.1962 71.2946 90.1898 71.2949 90.1826C71.2956 90.1683 71.2965 90.1475 71.2979 90.1211C71.3006 90.0677 71.3046 89.99 71.3105 89.8906C71.3225 89.6916 71.3419 89.4046 71.3711 89.0479C71.4295 88.3345 71.5276 87.3389 71.6885 86.208H71.6895C71.6898 86.2053 71.69 86.2024 71.6904 86.1992C71.6926 86.1825 71.695 86.1587 71.6992 86.1289C71.7076 86.0694 71.7199 85.9842 71.7373 85.876C71.7722 85.6592 71.827 85.3489 71.9072 84.9658C72.0675 84.2007 72.3314 83.1379 72.7461 81.9385C73.5699 79.5559 75.0189 76.5502 77.5186 74.293C77.833 74.009 78.2925 73.9536 78.665 74.1553C79.0375 74.357 79.2426 74.772 79.1768 75.1904V75.1914C79.1764 75.1935 79.1756 75.1974 79.1748 75.2031C79.1731 75.2146 79.1704 75.2333 79.167 75.2588C79.1601 75.3102 79.1499 75.3897 79.1387 75.4932C79.1162 75.7002 79.089 76.0044 79.0713 76.3799C79.0357 77.1338 79.0397 78.1623 79.1943 79.2705C79.373 80.5511 79.7418 81.867 80.4287 82.9951C80.062 80.944 79.7978 78.2461 80.2871 75.2178C81.1228 70.0463 84.1158 63.9925 92.1123 58.2725L92.1855 58.2246Z" fill="white" stroke="white" stroke-width="2" stroke-linejoin="round"/>
<path d="M92.6943 59.0859C92.6788 59.1132 89.3326 64.984 93.8213 68.9531C98.3326 72.9241 103.339 76.573 106.249 82.584C107.357 84.9143 107.979 87.5144 107.979 90.249C107.979 100.114 99.9931 108.096 90.1338 108.096C80.2805 108.096 72.2931 100.116 72.293 90.249C72.293 90.249 72.3638 88.5627 72.6787 86.3486C72.6826 86.3164 73.5519 79.2221 78.1885 75.0352C78.179 75.0958 76.9448 83.0519 82.1006 86.0078C81.3726 82.3954 77.0939 70.2451 92.6943 59.0859ZM95.0078 80.2822C100.71 89.555 94.9378 94.6257 91.957 96.5391C94.4918 93.5543 93.2812 89.1162 93.2812 89.1162C91.8485 95.6991 86.4414 97.4211 84.125 97.9395C89.9038 103.494 98.3724 100.626 100.817 96.2471C105.963 87.059 98.0294 81.7955 95.0078 80.2822Z" fill="url(#paint0_linear_284_60899)"/>
</g>
<defs>
<linearGradient id="paint0_linear_284_60899" x1="86.6637" y1="88.1885" x2="96.0541" y2="108.096" gradientUnits="userSpaceOnUse">
<stop stop-color="#E1590A"/>
<stop offset="1" stop-color="#C23102"/>
</linearGradient>
<clipPath id="clip0_284_60899">
<rect width="92" height="91" fill="white" transform="translate(19.4551 20.5)"/>
</clipPath>
</defs>
</svg>
