<svg width="131" height="130" viewBox="0 0 131 130" fill="none" xmlns="http://www.w3.org/2000/svg">
<circle cx="65.5469" cy="65" r="65" fill="#FDE5D7"/>
<path fill-rule="evenodd" clip-rule="evenodd" d="M56.959 27.7154C56.959 27.7154 62.6079 27.9413 62.6079 27.7154C62.8339 27.4894 66.4492 27.9413 67.8049 28.6192C69.1607 29.2971 70.7424 29.0711 71.4202 29.9749C72.0981 30.8788 73.0019 31.5566 73.6798 32.4605C74.3577 33.5902 74.5836 34.4941 74.5836 34.946C74.8096 35.3979 74.8096 35.3979 74.8096 36.3017C74.8096 36.9796 75.9394 37.4315 75.0355 38.7873C74.1317 40.143 73.6798 40.5949 72.776 40.5949C71.8721 40.5949 67.127 39.4651 66.4492 39.4651C65.7713 39.4651 63.5117 38.1094 62.8339 37.6575C62.156 37.2056 60.3483 35.6239 59.8964 34.72C59.4445 34.0422 56.959 27.7154 56.959 27.7154Z" fill="#9BD3B5"/>
<path fill-rule="evenodd" clip-rule="evenodd" d="M48.1465 47.5999C48.1465 47.5999 51.7618 47.5999 51.9878 47.5999C52.2137 47.5999 58.9924 48.0519 58.9924 48.0519L63.5116 49.6336L67.8047 51.6672C67.8047 51.6672 70.9681 54.1527 71.646 55.0565C72.3239 55.9604 74.3575 57.994 74.3575 58.8978C74.5834 59.8016 76.1651 58.6718 76.1651 58.6718L78.4247 55.7344L81.1362 53.4748L86.1073 52.797L90.8524 52.1191L93.7898 51.8931L94.2417 53.2489C94.2417 53.2489 91.7562 59.1237 91.7562 59.3497C91.5302 59.5757 87.237 62.5131 87.237 62.5131C87.237 62.5131 82.04 63.4169 81.3622 63.6429C80.6843 63.8688 76.1651 63.8688 76.1651 63.8688C76.1651 63.8688 71.872 64.0948 70.0643 64.0948C68.2567 64.0948 59.8962 62.965 59.6703 62.965C59.4443 62.965 55.1511 59.5757 55.1511 59.5757L50.632 53.4748L48.1465 47.5999Z" fill="#9BD3B5"/>
<path fill-rule="evenodd" clip-rule="evenodd" d="M75.7138 42.4033C76.1657 41.2735 79.555 36.3025 80.9108 34.9467C82.2665 33.591 87.0116 31.7833 87.0116 31.7833L95.372 30.4276C95.372 30.4276 101.473 29.5238 101.925 29.5238C102.377 29.5238 104.41 29.9757 104.41 29.9757L103.281 33.1391L100.343 39.014L96.7278 43.0812L93.1125 46.2446C93.1125 46.2446 88.1414 47.6003 87.9154 47.8263C87.6895 47.8263 80.4589 48.7301 80.4589 48.7301L74.584 47.8263L75.7138 42.4033Z" fill="#9BD3B5"/>
<path fill-rule="evenodd" clip-rule="evenodd" d="M40.69 70.6488L40.0122 97.3117H24.873V70.6488H40.69Z" fill="url(#paint0_linear_284_60867)"/>
<path fill-rule="evenodd" clip-rule="evenodd" d="M105.54 28.6199C105.314 28.6199 105.088 28.3939 105.088 28.3939C103.506 28.6199 101.925 28.6199 100.569 28.6199C93.7902 28.8458 86.3336 29.2978 81.5885 33.5909C80.4588 34.7207 79.329 35.8505 77.9732 37.4322C77.5213 38.1101 77.0694 38.7879 76.3915 39.4658C76.3915 39.2399 76.3915 39.2399 76.3915 39.0139C76.3915 37.2062 76.1656 35.1726 75.2617 33.365C74.5839 32.0092 73.68 30.4275 72.3243 29.2978C70.5166 27.7161 68.483 27.4901 66.6754 27.2641H66.4494L56.7333 26.5863C56.5073 26.5863 56.2814 26.5863 56.0554 26.8122C55.3775 27.0382 55.1516 27.942 55.3775 28.3939L58.315 34.2688C60.1226 37.4322 62.3822 39.0139 65.3196 39.9177C67.8052 40.5956 70.7426 40.5956 73.906 40.3696V55.5088C73.0022 53.9271 71.4205 52.3454 69.3869 50.5377C64.8677 46.6964 57.8631 46.4705 51.7622 46.2445C50.4065 46.2445 48.8248 46.0186 47.469 46.0186C47.2431 46.0186 47.0171 46.0186 47.0171 46.2445C46.5652 46.4705 46.3392 47.1484 46.5652 47.6003C49.9546 54.379 52.4401 59.1241 56.5073 61.8356C60.3486 64.547 65.5456 65.2249 74.132 64.3211V69.5181L65.3196 78.1045C65.3196 78.1045 66.6754 79.2342 67.5792 79.2342L75.2617 72.0036L84.7519 81.7198L87.0115 80.59L76.1656 69.744V64.0951C82.4924 64.773 86.1077 64.547 88.8192 62.7394C91.7566 60.9317 93.3383 57.7683 95.8238 52.3454C96.0498 51.8934 95.8238 51.2156 95.3719 50.9896C95.146 50.9896 94.92 50.9896 94.92 50.9896C93.3383 51.2156 91.7566 51.2156 90.4009 51.2156C84.0741 51.4415 80.2328 51.4415 76.1656 56.8645V48.7301C85.6558 49.6339 91.3047 48.956 95.3719 45.7926C99.6651 42.6292 102.377 37.6582 105.992 30.2016C106.444 29.5237 106.218 28.8458 105.54 28.6199ZM66.2235 37.6582C63.9639 36.9803 62.1562 35.6246 60.5745 33.139L58.5409 29.0718L66.2235 29.5237C67.8052 29.9756 69.3869 30.2016 70.5166 31.1054C71.6464 32.0092 72.3243 33.139 72.7762 34.4948C72.7762 34.7207 73.0022 34.9467 73.0022 35.1726C71.8724 34.4948 70.5166 34.0429 69.1609 33.5909C68.709 33.365 68.0311 33.8169 68.0311 34.2688C67.8052 34.7207 68.2571 35.3986 68.709 35.3986C70.0647 35.6245 70.9686 36.0765 71.8724 36.5284C72.3243 36.7543 72.7762 37.2062 73.0022 37.6582C70.5166 38.336 68.2571 38.336 66.2235 37.6582ZM60.8005 55.2828C63.0601 55.9607 65.3196 56.8645 67.1273 58.2202C68.709 59.35 70.2907 60.7058 71.6464 62.5134C64.8677 62.9653 60.5745 62.2875 57.4111 60.2539C54.0218 57.9943 51.7622 54.153 49.0507 48.5041C49.9546 48.5041 50.6324 48.5041 51.5363 48.7301C57.4111 48.956 64.1898 49.182 68.0311 52.5713C70.0647 54.379 71.6464 55.9607 72.5503 57.5424C73.2281 58.8981 73.4541 60.2539 73.68 62.0615C72.0983 59.8019 70.2907 58.2202 68.483 57.0905C66.2235 55.7347 63.9639 54.6049 61.4784 53.9271C61.0265 53.7011 60.3486 54.153 60.1226 54.6049C59.8967 54.6049 60.3486 55.2828 60.8005 55.2828ZM90.4009 53.0232C91.3047 53.0232 92.2085 53.0232 93.3383 53.0232C91.3047 57.0905 89.9489 59.576 87.6894 60.9317C85.4298 62.2875 82.4924 62.5134 77.2954 62.0615C78.1992 60.9317 79.329 59.8019 80.9107 59.1241C82.9443 58.2202 85.2038 57.5424 87.2375 57.0905C87.9153 57.0905 88.1413 56.4126 88.1413 55.9607C87.9153 55.5088 87.4634 55.0568 87.0115 55.0568C84.7519 55.5088 82.2664 56.1866 80.0068 57.3164C79.103 57.7683 78.1992 58.4462 77.2954 59.1241C80.6847 53.4751 84.3 53.2492 90.4009 53.0232ZM94.2421 43.985C90.6268 46.4705 85.6558 47.3743 77.0694 46.4705C78.1992 44.2109 79.7809 42.6292 81.5885 41.4994C83.8481 40.1437 86.5596 39.2399 89.723 38.562C90.4009 38.562 90.6268 37.8841 90.6268 37.4322C90.4009 36.9803 89.9489 36.5284 89.497 36.5284C85.8817 37.2062 82.9443 38.1101 80.4588 39.6918C78.8771 40.8216 77.5213 41.9513 76.3915 43.759V43.0811C77.5213 41.2735 78.4251 39.6918 79.5549 38.562C80.6847 37.2063 81.8145 36.0765 82.9443 35.1726C87.2375 31.3314 94.2421 31.1054 100.795 30.8795C101.699 30.8795 102.828 30.8795 103.732 30.6535C100.343 37.2063 97.8574 41.4994 94.2421 43.985Z" fill="#0D9146"/>
<path fill-rule="evenodd" clip-rule="evenodd" d="M98.9878 86.24C90.1754 92.1149 81.3631 96.86 72.3248 100.701C65.7721 104.317 59.2193 104.091 52.8925 100.249L43.4023 95.0523L43.8543 72.9085L54.0223 73.1345C57.8636 73.8124 61.4789 75.846 65.3202 78.1055C65.3202 78.1055 66.6759 79.2353 67.5797 79.2353L74.8104 79.4613C78.4257 79.6872 80.2333 83.3026 76.618 85.5621C73.6806 87.5957 70.0653 87.3698 66.45 86.9179C63.9644 86.6919 63.7385 90.0813 66.45 90.3072C67.3538 90.3072 68.4836 90.3072 69.3874 90.3072C74.1325 90.3072 77.9738 89.6294 80.4593 86.014L81.3631 83.0766L84.7525 81.4949L87.012 80.3651L93.3388 77.4277C99.4397 75.846 103.507 81.9468 98.9878 86.24Z" fill="white" stroke="#975A25" stroke-width="2.13511"/>
<defs>
<linearGradient id="paint0_linear_284_60867" x1="24.873" y1="83.9721" x2="40.6982" y2="83.9721" gradientUnits="userSpaceOnUse">
<stop stop-color="#E1590A"/>
<stop offset="1" stop-color="#C23102"/>
</linearGradient>
</defs>
</svg>
