<svg width="131" height="130" viewBox="0 0 131 130" fill="none" xmlns="http://www.w3.org/2000/svg">
<circle cx="65.582" cy="65" r="65" fill="#FDE5D7"/>
<g clip-path="url(#clip0_284_60840)">
<path d="M91.6329 48.5044C91.6329 46.496 93.3903 44.7386 95.3988 44.7386C97.4073 44.7386 99.1647 46.496 99.1647 48.5044V74.6146L101.926 71.853C103.935 69.8445 107.199 69.8445 109.207 71.853C111.216 73.8614 111.216 77.1252 109.207 79.1337L99.6668 88.674C96.403 91.6867 88.7066 98.6695 71.7429 91.9847L65.2189 89.4685C64.7736 89.7227 61.2811 91.1435 59.3092 91.9788C50.9052 95.539 36.1448 93.2715 34.4213 91.0436L20.2971 77.2978C18.8847 72.4048 23.2817 70.5089 25.6568 70.1726L31.9622 73.9559C32.1093 67.125 32.3153 52.984 31.9622 51.0672C31.5208 48.6711 32.0883 44.9509 35.4302 44.8878C38.1037 44.8374 39.1084 46.5062 39.2766 47.347C39.0243 38.7716 41.3572 38.3302 45.3297 39.0868C47.7252 39.5431 47.9782 43.6825 47.6605 47.1786C48.1964 45.5233 49.2997 44.0753 51.3829 44.3204C54.813 44.7239 55.2082 48.9864 54.977 51.0672C60.5762 47.3344 63.7144 51.029 63.8825 53.383V66.7084C63.8195 67.6543 67.2353 70.4464 67.1864 67.3784C67.0955 61.6793 67.252 56.3711 67.1864 53.5489C67.1207 50.7266 69.3997 49.671 72.3013 49.6054C74.6226 49.5529 75.7097 51.2462 75.9631 52.0995C75.9631 46.4549 76.8163 44.0921 79.7699 43.8952C82.1327 43.7377 83.5467 45.9589 83.9584 47.0892C83.9584 42.8541 83.9584 38.2559 87.7095 38.4979C90.7104 38.6915 91.5755 40.6761 91.6329 41.6441V48.5044Z" fill="white"/>
<path d="M39.4126 67.1468V48.0663C39.4126 46.0578 37.6551 44.3004 35.6467 44.3004C33.6382 44.3004 31.8808 46.0578 31.8808 48.0663V74.1765L29.1191 71.4148C27.1106 69.4064 23.8469 69.4064 21.8384 71.4148C19.8299 73.4233 19.8299 76.6871 21.8384 78.6956L31.3786 88.2358C34.6424 91.2485 41.6721 98.7803 58.7441 90.7464" stroke="#985801" stroke-width="2.74359" stroke-miterlimit="10" stroke-linejoin="round"/>
<path d="M54.9771 59.8682V47.5662C54.9771 45.5578 53.2197 43.8004 51.2112 43.8004C49.2027 43.8004 47.4453 45.5578 47.4453 47.5662V65.3915" stroke="#985801" stroke-width="2.74359" stroke-miterlimit="10" stroke-linejoin="round"/>
<path d="M62.5083 60.6196V52.8368C62.5083 50.8283 60.7509 49.0709 58.7425 49.0709C56.734 49.0709 54.9766 50.8283 54.9766 52.8368V59.6154" stroke="#985801" stroke-width="2.74359" stroke-miterlimit="10" stroke-linejoin="round"/>
<path d="M47.1958 65.1393V41.7908C47.1958 39.7823 45.6895 38.2759 43.681 38.2759H43.1789C41.1704 38.2759 39.6641 39.7823 39.6641 41.7908V66.8967" stroke="#985801" stroke-width="2.74359" stroke-miterlimit="10" stroke-linejoin="round"/>
<path d="M91.6343 67.1468V48.0662C91.6343 46.0578 93.3917 44.3004 95.4002 44.3004C97.4087 44.3004 99.1661 46.0578 99.1661 48.0662V74.1764L101.928 71.4148C103.936 69.4063 107.2 69.4063 109.208 71.4148C111.217 73.4232 111.217 76.687 109.208 78.6955L99.6682 88.2358C96.4044 91.2485 89.3748 98.7802 72.3027 90.7463" stroke="#985801" stroke-width="2.74359" stroke-miterlimit="10" stroke-linejoin="round"/>
<path d="M76.0684 59.8682V47.5663C76.0684 45.5578 77.8258 43.8004 79.8343 43.8004C81.8427 43.8004 83.6001 45.5578 83.6001 47.5663V65.3915" stroke="#985801" stroke-width="2.74359" stroke-miterlimit="10" stroke-linejoin="round"/>
<path d="M68.5352 60.6196V52.8368C68.5352 50.8283 70.2926 49.0709 72.301 49.0709C74.3095 49.0709 76.0669 50.8283 76.0669 52.8368V59.6154" stroke="#985801" stroke-width="2.74359" stroke-miterlimit="10" stroke-linejoin="round"/>
<path d="M83.8516 65.1393V41.7908C83.8516 39.7823 85.3579 38.2759 87.3664 38.2759H87.8685C89.877 38.2759 91.3833 39.7823 91.3833 41.7908V66.8967" stroke="#985801" stroke-width="2.74359" stroke-miterlimit="10" stroke-linejoin="round"/>
<path d="M62.5079 86.723C61.7547 85.9698 61.0015 85.2167 59.9973 84.4635C55.7293 80.6976 50.7081 75.6764 50.457 70.4042C50.457 68.6467 50.9592 66.8893 52.2144 65.634C53.4697 64.3787 55.2272 63.6256 57.2356 63.6256C60.4994 63.6256 61.7547 65.1319 64.0142 67.1404L64.5164 67.6425C64.7674 67.8936 64.7674 67.8936 65.0185 67.8936C65.2695 67.8936 65.2695 67.8936 65.5206 67.8936C65.7717 67.8936 66.2738 67.6425 66.5248 67.3915L67.027 66.6383C68.7844 64.6298 70.0397 63.3745 72.5503 63.1234C72.8013 63.1234 73.0524 63.1234 73.3034 63.1234C75.814 63.1234 78.3246 64.3787 79.5799 66.6383C80.8352 68.6467 81.0863 71.1573 79.831 73.4169C78.5757 75.4254 77.0693 77.4338 75.3119 79.1912C73.8056 80.6976 72.2992 82.204 71.0439 83.4593C70.2907 84.2124 69.5376 84.9656 69.0354 85.4677L65.2695 89.2336L62.5079 86.723Z" fill="url(#paint0_linear_284_60840)"/>
<path d="M78.5771 67.8949C79.0792 68.8991 80.0834 70.9076 78.8281 73.4182C77.5728 75.4267 76.3175 77.1841 74.5601 78.9415C73.3048 80.4479 71.7985 81.9542 70.2921 83.2095C69.5389 83.9627 68.7858 84.7159 68.2836 85.218L65.522 88.2307L63.5135 86.2222C62.7603 85.469 62.0072 84.7159 61.0029 83.9627C56.7349 79.9457 51.9648 75.6777 51.9648 70.6565C51.9648 69.1502 52.4669 67.8949 53.2201 66.8907C54.2243 65.8864 55.7307 65.3843 57.237 65.3843C59.7476 65.3843 61.0029 66.3885 63.0114 68.6481L63.5135 69.1502C63.7646 69.4012 64.2667 69.6523 64.5178 69.9034C64.7688 69.9034 65.0199 70.1544 65.522 70.1544C66.2752 70.1544 66.7773 69.9034 67.2794 69.4012L68.0326 68.6481C69.79 66.6396 70.7942 65.6354 72.8027 65.3843C75.0449 65.104 77.9904 66.7215 78.5771 67.8949ZM73.3048 62.3716C73.0538 62.3716 72.5517 62.3716 72.3006 62.3716C69.0368 62.6226 67.5305 64.6311 65.2709 66.8907C62.7603 64.3801 61.0029 62.3716 57.237 62.3716C52.969 62.3716 49.2031 65.6354 49.2031 70.4055C49.4542 77.4351 56.986 83.2095 61.505 87.7286L65.2709 91.4945L69.79 86.7243C71.5474 84.9669 73.807 82.7074 76.0665 80.4479C77.8239 78.6904 79.5813 76.682 80.8366 74.4224C83.8493 68.397 79.0792 62.3716 73.3048 62.3716Z" fill="#FFC76F"/>
</g>
<defs>
<linearGradient id="paint0_linear_284_60840" x1="50.4194" y1="76.6417" x2="80.6213" y2="76.6417" gradientUnits="userSpaceOnUse">
<stop stop-color="#E1590A"/>
<stop offset="1" stop-color="#C23102"/>
</linearGradient>
<clipPath id="clip0_284_60840">
<rect width="99.4211" height="99.4211" fill="white" transform="translate(15.8125 15.6812)"/>
</clipPath>
</defs>
</svg>
