<svg width="131" height="130" viewBox="0 0 131 130" fill="none" xmlns="http://www.w3.org/2000/svg">
<g clip-path="url(#clip0_284_60918)">
<path d="M65.9615 130.759C102.07 130.759 131.341 101.488 131.341 65.3795C131.341 29.2714 102.07 0 65.9615 0C29.8534 0 0.582031 29.2714 0.582031 65.3795C0.582031 101.488 29.8534 130.759 65.9615 130.759Z" fill="#FDE5D7"/>
<path fill-rule="evenodd" clip-rule="evenodd" d="M101.196 62.4006C97.6254 60.5371 94.0544 60.7354 91.0551 58.4272C89.7652 60.1405 88.2425 61.7384 86.1923 62.5103C85.4415 62.7972 84.3692 62.9415 83.2892 62.9473C82.2112 62.9415 81.1389 62.7972 80.3862 62.5103C78.3379 61.7384 76.8151 60.1405 75.5234 58.4272C72.526 60.7354 68.9549 60.5371 65.3819 62.4006C62.9448 63.6635 61.1082 65.6925 59.6875 67.993C60.5345 71.3042 71.8965 72.9713 83.2873 72.9771C94.6781 72.9694 106.04 71.3042 106.887 67.993C105.466 65.6925 103.63 63.6635 101.193 62.4006H101.196Z" fill="url(#paint0_linear_284_60918)" stroke="#FEC76F" stroke-width="1.89029" stroke-linecap="round" stroke-linejoin="round"/>
<path d="M94.6492 47.3544C94.2507 49.472 93.6732 50.8677 92.6837 50.7887C92.5027 50.7714 92.3641 50.7233 92.2236 50.6694C91.9444 53.3453 89.4168 57.6633 87.2125 59.1937C86.6658 60.0138 85.1103 60.6991 83.2892 60.6375C81.4623 60.6991 79.9106 60.0138 79.362 59.1937C77.1712 57.6633 74.6378 53.3453 74.3548 50.6694C74.2162 50.7233 74.0757 50.7714 73.8986 50.7887C72.9129 50.8677 72.3315 49.472 71.933 47.3544C71.5268 45.2444 72.0967 44.3839 72.9187 44.2549C73.1535 44.2184 73.3903 44.2338 73.6117 44.2915C74.9901 44.7266 77.408 43.5407 77.3637 41.3076C77.3137 39.0707 77.589 37.8886 78.0452 38.0253C78.5015 37.6596 80.2822 39.8022 83.0158 40.1218C85.7533 40.4413 90.4486 40.397 90.953 40.2122C91.4535 40.0313 91.0916 44.4686 93.0745 44.2549C93.267 44.2222 93.4691 44.2222 93.6655 44.2549C94.4913 44.382 95.0573 45.2444 94.6511 47.3544H94.6492Z" fill="white" stroke="#975B26" stroke-width="1.06595" stroke-linecap="round" stroke-linejoin="round"/>
<path d="M93.0732 44.2562C91.0903 44.4699 91.4522 40.0326 90.9517 40.2135C90.4473 40.3983 85.752 40.4426 83.0145 40.1231C80.2809 39.8035 78.5002 37.6609 78.0439 38.0266C77.5877 37.8919 77.3143 39.0739 77.3624 41.3089C77.4067 43.542 74.9907 44.7279 73.6104 44.2928C73.1676 40.5139 73.4834 35.3912 76.2074 34.8367C76.9043 32.3245 79.0604 31.1059 83.3649 31.1059C87.6694 31.1059 90.9902 33.4776 91.8565 35.3199C92.8787 37.503 93.3061 41.1973 93.0712 44.2543L93.0732 44.2562Z" fill="#FEC76F" stroke="#975B26" stroke-width="1.06595" stroke-linecap="round" stroke-linejoin="round"/>
<path d="M80.0371 53.2618H86.902V53.67C86.902 55.5643 85.3639 57.1024 83.4696 57.1024C81.5753 57.1024 80.0371 55.5643 80.0371 53.67V53.2618Z" stroke="#975B26" stroke-width="0.710636" stroke-linecap="round" stroke-linejoin="round"/>
<path d="M77.9785 45.3153C78.481 44.9399 79.5475 44.3123 80.5504 45.3153" stroke="#975B26" stroke-width="1.06595" stroke-linecap="round" stroke-linejoin="round"/>
<path d="M86.0332 45.3153C86.5357 44.9399 87.6022 44.3123 88.6051 45.3153" stroke="#975B26" stroke-width="1.06595" stroke-linecap="round" stroke-linejoin="round"/>
<path d="M79.2669 49.1314C79.7368 49.1314 80.1178 48.547 80.1178 47.8262C80.1178 47.1053 79.7368 46.5209 79.2669 46.5209C78.797 46.5209 78.416 47.1053 78.416 47.8262C78.416 48.547 78.797 49.1314 79.2669 49.1314Z" fill="#975B26"/>
<path d="M87.3177 49.1314C87.7876 49.1314 88.1686 48.547 88.1686 47.8262C88.1686 47.1053 87.7876 46.5209 87.3177 46.5209C86.8478 46.5209 86.4668 47.1053 86.4668 47.8262C86.4668 48.547 86.8478 49.1314 87.3177 49.1314Z" fill="#975B26"/>
<path fill-rule="evenodd" clip-rule="evenodd" d="M120.064 92.8835C119.217 96.1946 107.855 97.8618 96.4642 97.8676C94.2176 97.8676 91.9768 97.7983 89.813 97.6693L90.0036 97.4845L88.4404 95.4496C88.0303 94.9164 87.5183 94.0289 86.9715 93.0875C85.8242 91.1008 84.5266 88.8408 82.8326 87.5009C82.2801 87.0639 81.7122 86.6481 81.125 86.238C83.8163 85.3775 86.4248 85.0695 88.6983 83.3157C89.9882 85.0291 91.5109 86.6269 93.5611 87.3989C94.3119 87.6857 95.3842 87.8301 96.4642 87.8359C97.5422 87.8301 98.6145 87.6857 99.3672 87.3989C101.416 86.6269 102.938 85.0291 104.23 83.3157C107.227 85.6239 110.798 85.4256 114.371 87.2891C116.809 88.552 118.647 90.5811 120.066 92.8816L120.064 92.8835Z" fill="url(#paint1_linear_284_60918)" stroke="#FEC76F" stroke-width="1.89029" stroke-linecap="round" stroke-linejoin="round"/>
<path fill-rule="evenodd" clip-rule="evenodd" d="M49.9423 86.2048C49.3417 86.6206 48.7545 87.0576 48.1866 87.5023C46.4926 88.8402 45.195 91.0945 44.0477 93.0889C43.501 94.0303 42.9889 94.9197 42.5788 95.451L41.0156 97.4859L41.2139 97.6765C39.0906 97.8054 36.8979 97.867 34.6994 97.867C23.3086 97.8593 11.9467 96.1941 11.0996 92.883C12.5203 90.5825 14.3569 88.5534 16.7941 87.2905C20.3651 85.427 23.9362 85.6253 26.9355 83.3171C28.2253 85.0305 29.748 86.6283 31.7983 87.4003C32.5491 87.6871 33.6213 87.8315 34.7013 87.8373C35.7794 87.8315 36.8517 87.6871 37.6044 87.4003C39.6527 86.6283 41.1754 85.0305 42.4672 83.3171C44.7215 85.0517 47.2876 85.3731 49.9443 86.2048H49.9423Z" fill="url(#paint2_linear_284_60918)" stroke="#FEC76F" stroke-width="1.89029" stroke-linecap="round" stroke-linejoin="round"/>
<path d="M60.531 53.1537C59.4972 55.2251 55.5315 56.6824 51.4637 56.8229C51.4637 56.8229 45.2053 56.8095 43.3629 56.8229C39.2991 56.6786 35.3334 55.229 34.1764 53.2634C37.7224 49.675 33.3832 52.195 34.1417 43.1355C34.7443 35.9741 39.738 30.9381 42.7334 31.8178C44.1696 30.3605 45.6365 29.9871 47.4153 29.9871C54.0415 29.9871 59.605 35.308 60.7235 42.8371C61.7707 49.8791 57.0542 49.1129 60.529 53.1518L60.531 53.1537Z" fill="#FEC76F" stroke="#975B26" stroke-width="1.06595" stroke-linecap="round" stroke-linejoin="round"/>
<path fill-rule="evenodd" clip-rule="evenodd" d="M57.8758 45.9391C57.6371 48.2454 56.817 50.1146 56.045 50.1146C55.8948 50.1204 55.839 50.1397 55.814 50.2898C55.5637 51.5681 55.1864 52.7347 54.7225 53.6125C53.5809 55.7687 51.7193 57.4858 49.0242 58.947C47.7517 59.692 46.51 59.692 45.2375 58.947C42.5424 57.4858 40.6866 55.7687 39.5469 53.6125C38.8327 52.2785 38.3379 50.2975 38.1743 48.228C37.5602 43.4634 44.9949 44.5665 51.8772 39.6537C52.7608 39.0203 53.4577 38.7951 54.014 40.4179C54.3143 41.3073 54.4972 42.4681 55.017 43.1015C55.4059 43.5712 55.6754 43.1824 55.9507 42.6568C56.251 42.0928 56.584 41.7597 56.9094 41.7597C57.6871 41.7597 58.1126 43.6271 57.8738 45.941L57.8758 45.9391Z" fill="white" stroke="#975B26" stroke-width="1.06595" stroke-linecap="round" stroke-linejoin="round"/>
<path d="M44.541 53.4119H49.606V53.7122C49.606 55.1099 48.4721 56.2438 47.0744 56.2438C45.6768 56.2438 44.5429 55.1099 44.5429 53.7122V53.4119H44.541Z" stroke="#975B26" stroke-width="0.710636" stroke-linecap="round" stroke-linejoin="round"/>
<path d="M41.6074 45.7659C42.106 45.3905 43.1687 44.7668 44.1678 45.7659" stroke="#975B26" stroke-width="0.710636" stroke-linecap="round" stroke-linejoin="round"/>
<path d="M49.623 45.7659C50.1216 45.3905 51.1843 44.7668 52.1834 45.7659" stroke="#975B26" stroke-width="0.710636" stroke-linecap="round" stroke-linejoin="round"/>
<path d="M42.8861 49.5638C43.3539 49.5638 43.7332 48.982 43.7332 48.2643C43.7332 47.5467 43.3539 46.9649 42.8861 46.9649C42.4183 46.9649 42.0391 47.5467 42.0391 48.2643C42.0391 48.982 42.4183 49.5638 42.8861 49.5638Z" fill="#975B26"/>
<path d="M50.9017 49.5638C51.3695 49.5638 51.7488 48.982 51.7488 48.2643C51.7488 47.5467 51.3695 46.9649 50.9017 46.9649C50.4339 46.9649 50.0547 47.5467 50.0547 48.2643C50.0547 48.982 50.4339 49.5638 50.9017 49.5638Z" fill="#975B26"/>
<path fill-rule="evenodd" clip-rule="evenodd" d="M65.1672 62.4008C61.5961 60.5373 58.0251 60.7356 55.0258 58.4274C53.736 60.1407 52.2132 61.7385 50.163 62.5105C49.4122 62.7973 48.3399 62.9417 47.2599 62.9475C46.1819 62.9417 45.1096 62.7973 44.3569 62.5105C42.3086 61.7385 40.7858 60.1407 39.4941 58.4274C36.4967 60.7356 32.9256 60.5373 29.3526 62.4008C26.9155 63.6636 25.0789 65.6927 23.6582 67.9932C24.5052 71.3044 35.8672 72.9715 47.258 72.9773C58.6488 72.9696 70.0107 71.3044 70.8578 67.9932C69.4371 65.6927 67.6005 63.6636 65.1633 62.4008H65.1672Z" fill="url(#paint3_linear_284_60918)" stroke="#FEC76F" stroke-width="1.89029" stroke-linecap="round" stroke-linejoin="round"/>
<path fill-rule="evenodd" clip-rule="evenodd" d="M65.5102 91.9396C69.476 90.001 71.9497 87.7448 73.3069 85.2518C76.0675 86.4242 78.6741 87.9161 81.0343 89.7815C83.0152 91.3466 84.7035 95.3547 86.1396 97.2201C81.7927 101.5 49.2297 101.5 44.8828 97.2201C46.3189 95.3528 48.0073 91.3466 49.9882 89.7815C52.3484 87.9161 54.9549 86.4242 57.7155 85.2518C59.0727 87.7448 61.5465 90.001 65.5122 91.9396H65.5102Z" fill="url(#paint4_linear_284_60918)" stroke="#FEC76F" stroke-width="1.89029" stroke-linecap="round" stroke-linejoin="round"/>
<path fill-rule="evenodd" clip-rule="evenodd" d="M61.8135 52.8543C57.9287 53.838 54.4019 56.3946 52.7829 60.6394C52.2285 62.0948 51.9936 63.5983 51.8954 65.0941C51.391 72.885 52.6135 79.182 47.7969 86.6976C50.2764 84.9727 52.9446 83.5366 55.7341 82.3642L56.4425 82.0658C56.9507 82.6125 57.7708 83.5558 58.4523 83.8946C58.6929 84.0159 59.2435 82.5047 59.3879 81.5653C59.3879 81.5653 59.4341 81.6057 59.4418 81.6115C60.4428 82.472 61.5325 83.2247 62.6432 83.8426C64.5722 84.9765 66.4338 84.9765 68.3627 83.8426C69.4735 83.2266 70.5631 82.472 71.5641 81.6115C71.5718 81.6057 71.6181 81.5633 71.6181 81.5653C71.7624 82.5028 72.3149 84.014 72.5537 83.8946C73.2351 83.5539 74.0552 82.6125 74.5635 82.0658L75.2719 82.3642C78.0614 83.5366 80.7295 84.9727 83.2091 86.6976C78.1037 78.6044 79.6149 72.885 79.1105 65.0941C79.0143 63.5983 78.7794 62.0948 78.2231 60.6394C77.5146 58.7798 76.6734 57.2455 75.3008 56.025C73.9128 54.791 71.0251 53.0045 68.7651 53.8612C66.5647 52.7504 64.7204 52.1189 61.8135 52.8543Z" fill="#FEC76F" stroke="#975B26" stroke-width="1.06595" stroke-linecap="round" stroke-linejoin="round"/>
<path fill-rule="evenodd" clip-rule="evenodd" d="M56.0311 73.5629C56.2024 75.7036 56.7184 77.7558 57.4518 79.1457C58.6338 81.3808 60.5628 83.1557 63.358 84.6727C64.6767 85.4466 65.9627 85.4466 67.2814 84.6727C70.0766 83.1557 72.0036 81.3808 73.1876 79.1457C73.6727 78.2294 74.0616 77.0243 74.3195 75.6959C74.3484 75.5381 74.4081 75.5227 74.5583 75.515C75.3591 75.515 76.2081 73.5745 76.4583 71.1835C76.7067 68.7906 76.26 66.852 75.4592 66.852C75.1204 66.852 74.7719 67.1986 74.4658 67.7799C74.1771 68.3286 73.896 68.7271 73.4975 68.2439C72.9566 67.5836 72.7698 66.3842 72.4522 65.464C71.8727 63.7777 71.1547 64.0144 70.2383 64.669C63.1039 69.7666 55.392 68.6212 56.0292 73.5629H56.0311Z" fill="white" stroke="#975B26" stroke-width="1.06595" stroke-linecap="round" stroke-linejoin="round"/>
<path d="M62.584 77.9569H67.9723V78.2765C67.9723 79.7627 66.7653 80.9697 65.2791 80.9697C63.7929 80.9697 62.5859 79.7627 62.5859 78.2765V77.9569H62.584Z" stroke="#975B26" stroke-width="0.710636" stroke-linecap="round" stroke-linejoin="round"/>
<path d="M59.4648 69.8221C59.9962 69.4236 61.1243 68.7594 62.1869 69.8221" stroke="#975B26" stroke-width="0.710636" stroke-linecap="round" stroke-linejoin="round"/>
<path d="M67.9922 69.8221C68.5235 69.4236 69.6516 68.7594 70.7143 69.8221" stroke="#975B26" stroke-width="0.710636" stroke-linecap="round" stroke-linejoin="round"/>
<path d="M60.8267 73.8631C61.3243 73.8631 61.7277 73.2442 61.7277 72.4809C61.7277 71.7175 61.3243 71.0986 60.8267 71.0986C60.3291 71.0986 59.9258 71.7175 59.9258 72.4809C59.9258 73.2442 60.3291 73.8631 60.8267 73.8631Z" fill="#975B26"/>
<path d="M69.3502 73.8631C69.8477 73.8631 70.2511 73.2442 70.2511 72.4809C70.2511 71.7175 69.8477 71.0986 69.3502 71.0986C68.8526 71.0986 68.4492 71.7175 68.4492 72.4809C68.4492 73.2442 68.8526 73.8631 69.3502 73.8631Z" fill="#975B26"/>
<path d="M107.978 71.312C107.582 73.4257 107.01 74.8234 106.03 74.7425C105.88 74.7329 105.774 74.6809 105.654 74.6443C105.352 77.3202 102.763 81.619 100.505 83.1417C99.9446 83.9637 98.341 84.6491 96.4679 84.5875C94.5948 84.6491 92.997 83.9637 92.431 83.1417C90.1825 81.619 87.5817 77.3202 87.2813 74.6443C87.162 74.6848 87.0561 74.7329 86.9117 74.7425C85.9357 74.8234 85.3582 73.4257 84.9635 71.312C84.5612 69.2021 85.1214 68.3377 85.9395 68.2068C86.1648 68.1721 86.3881 68.1914 86.6076 68.2472L86.623 68.2877C87.8531 68.2877 88.7155 67.327 88.7155 66.4049C88.8041 66.2259 88.8176 64.8706 88.8233 64.5703C88.8445 63.6867 89.1487 63.6809 89.8687 63.8907C91.8323 64.4683 100.659 62.8262 102.757 61.8809C103.129 61.7173 103.471 61.6172 103.781 61.9887C103.951 62.1851 104.061 62.4719 104.141 62.7645C104.343 63.5461 104.378 64.6377 104.434 65.4539C104.446 65.6406 104.461 65.8043 104.469 65.9102C104.515 66.9651 104.717 68.2877 106.155 68.2877C106.18 68.2877 106.201 68.2838 106.222 68.2819C106.232 68.278 106.242 68.2761 106.249 68.2723C106.496 68.1991 106.748 68.1683 107 68.2068C107.818 68.3358 108.382 69.2002 107.978 71.312Z" fill="white" stroke="#975B26" stroke-width="1.06595" stroke-linecap="round" stroke-linejoin="round"/>
<path fill-rule="evenodd" clip-rule="evenodd" d="M106.222 68.2801V68.284C106.201 68.2879 106.18 68.2898 106.155 68.2898C104.719 68.2898 104.515 66.9672 104.468 65.9123C104.463 65.8083 104.447 65.6447 104.434 65.456C104.378 64.6398 104.345 63.5483 104.141 62.7667C104.06 62.4741 103.951 62.1891 103.781 61.9909C103.471 61.6193 103.129 61.7194 102.757 61.883C100.659 62.8283 91.8321 64.4704 89.8685 63.8928C89.1486 63.683 88.8444 63.6907 88.8232 64.5724C88.8174 64.8708 88.804 66.228 88.7154 66.407C88.7154 67.3292 87.8549 68.2898 86.6228 68.2898L86.6074 68.2493C86.644 68.259 86.6787 68.2686 86.7152 68.2801C86.6171 66.4802 86.5728 64.5551 86.7056 63.1228C86.9154 60.7992 88.3477 58.3389 89.7088 57.3514C91.8687 55.7824 95.2126 55.0566 96.4678 55.0566C97.7229 55.0566 101.067 55.7824 103.231 57.3514C104.59 58.3389 106.022 60.8011 106.236 63.1228C106.363 64.5532 106.319 66.4763 106.22 68.2801H106.222Z" fill="#FEC76F" stroke="#975B26" stroke-width="1.06595" stroke-linecap="round" stroke-linejoin="round"/>
<path d="M93.1094 76.307H99.8992V76.7113C99.8992 78.5844 98.3784 80.1052 96.5052 80.1052C94.6321 80.1052 93.1113 78.5844 93.1113 76.7113V76.307H93.1094Z" stroke="#975B26" stroke-width="0.710636" stroke-linecap="round" stroke-linejoin="round"/>
<path d="M91.0742 68.449C91.5709 68.0775 92.6258 67.4557 93.6173 68.449" stroke="#975B26" stroke-width="0.710636" stroke-linecap="round" stroke-linejoin="round"/>
<path d="M99.0391 68.449C99.5357 68.0775 100.591 67.4557 101.582 68.449" stroke="#975B26" stroke-width="0.710636" stroke-linecap="round" stroke-linejoin="round"/>
<path d="M92.3452 72.224C92.8098 72.224 93.1865 71.6457 93.1865 70.9323C93.1865 70.2189 92.8098 69.6406 92.3452 69.6406C91.8806 69.6406 91.5039 70.2189 91.5039 70.9323C91.5039 71.6457 91.8806 72.224 92.3452 72.224Z" fill="#975B26"/>
<path d="M100.31 72.224C100.775 72.224 101.151 71.6457 101.151 70.9323C101.151 70.2189 100.775 69.6406 100.31 69.6406C99.8454 69.6406 99.4688 70.2189 99.4688 70.9323C99.4688 71.6457 99.8454 72.224 100.31 72.224Z" fill="#975B26"/>
<path d="M46.0594 71.3037C45.6609 73.4213 45.0833 74.817 44.0938 74.7381C43.9129 74.7207 43.7743 74.6726 43.6337 74.6187C43.3546 77.2946 40.8269 81.6126 38.6227 83.1431C38.076 83.9631 36.5205 84.6485 34.6993 84.5869C32.8724 84.6485 31.3208 83.9631 30.7721 83.1431C28.5814 81.6126 26.048 77.2946 25.765 74.6187C25.6264 74.6726 25.4858 74.7207 25.3087 74.7381C24.3231 74.817 23.7417 73.4213 23.3432 71.3037C22.937 69.1938 23.5068 68.3333 24.3288 68.2043C24.5637 68.1677 24.8005 68.1831 25.0219 68.2409C26.4002 68.6759 28.8182 67.4901 28.7739 65.257C28.7238 63.02 28.9991 61.838 29.4554 61.9747C29.9116 61.6089 31.6923 63.7515 34.426 64.0711C37.1635 64.3907 41.8588 64.3464 42.3632 64.1616C42.8637 63.9806 42.5018 68.418 44.4846 68.2043C44.6771 68.1716 44.8793 68.1716 45.0756 68.2043C45.9015 68.3313 46.4675 69.1938 46.0613 71.3037H46.0594Z" fill="white" stroke="#975B26" stroke-width="1.06595" stroke-linecap="round" stroke-linejoin="round"/>
<path d="M44.4814 68.2042C42.4985 68.4179 42.8604 63.9806 42.3599 64.1615C41.8555 64.3463 37.1602 64.3906 34.4227 64.0711C31.6891 63.7515 29.9084 61.6089 29.4521 61.9746C28.9959 61.8399 28.7225 63.0219 28.7706 65.2569C28.8149 67.49 26.3989 68.6759 25.0186 68.2408C24.5758 64.4619 24.8916 59.3392 27.6156 58.7847C28.3125 56.2725 30.4686 55.0539 34.7731 55.0539C39.0776 55.0539 42.3984 57.4256 43.2647 59.2679C44.2869 61.451 44.7143 65.1453 44.4794 68.2023L44.4814 68.2042Z" fill="#FEC76F" stroke="#975B26" stroke-width="1.06595" stroke-linecap="round" stroke-linejoin="round"/>
<path d="M31.4473 77.209H38.3122V77.6172C38.3122 79.5115 36.774 81.0496 34.8797 81.0496C32.9854 81.0496 31.4473 79.5115 31.4473 77.6172V77.209Z" stroke="#975B26" stroke-width="0.710636" stroke-linecap="round" stroke-linejoin="round"/>
<path d="M29.3887 69.2639C29.8911 68.8885 30.9576 68.261 31.9606 69.2639" stroke="#975B26" stroke-width="0.710636" stroke-linecap="round" stroke-linejoin="round"/>
<path d="M37.4434 69.2639C37.9458 68.8885 39.0123 68.261 40.0153 69.2639" stroke="#975B26" stroke-width="0.710636" stroke-linecap="round" stroke-linejoin="round"/>
<path d="M30.6751 73.0799C31.145 73.0799 31.526 72.4956 31.526 71.7747C31.526 71.0538 31.145 70.4695 30.6751 70.4695C30.2052 70.4695 29.8242 71.0538 29.8242 71.7747C29.8242 72.4956 30.2052 73.0799 30.6751 73.0799Z" fill="#975B26"/>
<path d="M38.7298 73.0799C39.1997 73.0799 39.5807 72.4956 39.5807 71.7747C39.5807 71.0538 39.1997 70.4695 38.7298 70.4695C38.2599 70.4695 37.8789 71.0538 37.8789 71.7747C37.8789 72.4956 38.2599 73.0799 38.7298 73.0799Z" fill="#975B26"/>
</g>
<defs>
<linearGradient id="paint0_linear_284_60918" x1="59.6933" y1="65.7021" x2="106.893" y2="65.7021" gradientUnits="userSpaceOnUse">
<stop stop-color="#DD2228"/>
<stop offset="1" stop-color="#F15D58"/>
</linearGradient>
<linearGradient id="paint1_linear_284_60918" x1="81.1289" y1="90.5926" x2="120.064" y2="90.5926" gradientUnits="userSpaceOnUse">
<stop stop-color="#DD2228"/>
<stop offset="1" stop-color="#F15D58"/>
</linearGradient>
<linearGradient id="paint2_linear_284_60918" x1="11.1015" y1="90.5921" x2="49.9423" y2="90.5921" gradientUnits="userSpaceOnUse">
<stop stop-color="#DD2228"/>
<stop offset="1" stop-color="#F15D58"/>
</linearGradient>
<linearGradient id="paint3_linear_284_60918" x1="23.6621" y1="65.7023" x2="70.8616" y2="65.7023" gradientUnits="userSpaceOnUse">
<stop stop-color="#DD2228"/>
<stop offset="1" stop-color="#F15D58"/>
</linearGradient>
<linearGradient id="paint4_linear_284_60918" x1="44.8828" y1="92.8405" x2="86.1396" y2="92.8405" gradientUnits="userSpaceOnUse">
<stop stop-color="#DD2228"/>
<stop offset="1" stop-color="#F15D58"/>
</linearGradient>
<clipPath id="clip0_284_60918">
<rect width="130" height="130" fill="white" transform="translate(0.582031)"/>
</clipPath>
</defs>
</svg>
