<svg width="17" height="17" viewBox="0 0 17 17" fill="none" xmlns="http://www.w3.org/2000/svg">
<g clip-path="url(#clip0_284_67959)">
<circle cx="8.19336" cy="8.49805" r="7.5" fill="#D8A78B"/>
<mask id="mask0_284_67959" style="mask-type:alpha" maskUnits="userSpaceOnUse" x="3" y="4" width="10" height="9">
<rect x="3.94336" y="12.748" width="8.49951" height="8.49951" transform="rotate(-90 3.94336 12.748)" fill="#C4C4C4"/>
</mask>
<g mask="url(#mask0_284_67959)">
<path d="M6.96475 5.07052C7.05771 5.06924 7.14836 5.09817 7.22206 5.15261L11.2238 8.17148C11.2718 8.20774 11.3108 8.2539 11.3378 8.30657C11.3648 8.35924 11.3792 8.41707 11.38 8.47583C11.3807 8.53458 11.3677 8.59276 11.342 8.64609C11.3163 8.69942 11.2786 8.74655 11.2315 8.784L7.32339 11.8859C7.28191 11.9187 7.23412 11.9434 7.18275 11.9585C7.13137 11.9736 7.07743 11.9788 7.02399 11.9738C6.91605 11.9638 6.81673 11.9129 6.74787 11.8323C6.67901 11.7518 6.64625 11.6482 6.6568 11.5443C6.66734 11.4405 6.72033 11.3449 6.80411 11.2785L10.3197 8.48871L6.71729 5.77285C6.65071 5.72271 6.60198 5.6539 6.57783 5.57592C6.55368 5.49794 6.5553 5.41465 6.58247 5.33755C6.60963 5.26045 6.66101 5.19335 6.72949 5.14551C6.79797 5.09768 6.88017 5.07147 6.96475 5.07052Z" fill="white" stroke="white" stroke-width="0.16999"/>
</g>
</g>
<defs>
<clipPath id="clip0_284_67959">
<rect width="16" height="16" fill="white" transform="translate(0.193359 0.498047)"/>
</clipPath>
</defs>
</svg>
