<svg width="135" height="69" viewBox="0 0 135 69" fill="none" xmlns="http://www.w3.org/2000/svg">
<path d="M12.8867 22.8891C12.8867 19.331 15.5939 16.7109 19.2526 16.7109C21.0216 16.7109 22.603 17.3006 23.6952 18.4833L22.8777 19.2975C22.4113 18.8219 21.8512 18.4484 21.233 18.2004C20.6148 17.9524 19.9518 17.8354 19.2861 17.8568C16.3544 17.8568 14.1498 20.0111 14.1498 22.8824C14.1498 25.7538 16.3544 27.9081 19.2861 27.9081C19.9535 27.9311 20.6183 27.8131 21.2372 27.562C21.856 27.3109 22.415 26.9322 22.8777 26.4507L23.6952 27.2682C22.6197 28.4475 21.0149 29.054 19.2358 29.054C15.5939 29.0674 12.8867 26.4473 12.8867 22.8891Z" fill="#EF4040"/>
<path d="M34.0078 19.8369V28.9635H32.8284V27.2883C32.1851 28.3973 31.0058 29.0406 29.5483 29.0406C27.2231 29.0406 25.6953 27.7406 25.6953 25.1206V19.8369H26.9283V25.0066C26.9283 26.9499 27.9334 27.9416 29.6689 27.9416C31.5787 27.9416 32.7748 26.7087 32.7748 24.6247V19.8369H34.0078Z" fill="#EF4040"/>
<path d="M45.7745 23.6697V28.9634H44.5416V23.7937C44.5416 21.8672 43.5365 20.8755 41.8009 20.8755C39.8376 20.8755 38.608 22.0917 38.608 24.1756V28.9634H37.375V19.8368H38.5544V21.512C39.2244 20.403 40.4474 19.7598 42.0254 19.7598C44.2467 19.7665 45.7745 21.0497 45.7745 23.6697Z" fill="#EF4040"/>
<path d="M57.5255 19.8367V27.861C57.5255 31.0003 55.9809 32.4243 52.9622 32.4243C51.287 32.4243 49.662 31.9217 48.7071 31.0171L49.3337 30.0823C50.3414 30.9176 51.6167 31.3613 52.9253 31.332C55.2338 31.332 56.2925 30.2733 56.2925 28.0151V26.8558C55.5286 28.0184 54.2286 28.6282 52.7343 28.6282C50.1311 28.6282 48.1543 26.8056 48.1543 24.1855C48.1543 21.5655 50.1311 19.7764 52.7343 19.7764C54.2621 19.7764 55.5822 20.3995 56.3461 21.599V19.8367H57.5255ZM56.326 24.1922C56.326 22.2121 54.8686 20.8418 52.855 20.8418C50.8413 20.8418 49.404 22.182 49.404 24.1922C49.404 26.2025 50.8447 27.5427 52.855 27.5427C54.8652 27.5427 56.326 26.1523 56.326 24.1755V24.1922Z" fill="#EF4040"/>
<path d="M75.3996 18.4298H73.6808V28.9636H72.5015V27.1611C72.1348 27.76 71.6154 28.2506 70.9966 28.5827C70.3779 28.9147 69.6819 29.0763 68.9801 29.0507C66.3769 29.0507 64.4336 27.1611 64.4336 24.4003C64.4336 21.6396 66.3769 19.7667 68.9801 19.7667C69.6652 19.7436 70.3446 19.8977 70.9527 20.2141C71.5607 20.5305 72.0769 20.9984 72.4512 21.5726V18.4298H68.6283V17.5286H72.4478V16.0879H73.6775V17.5286H75.3962L75.3996 18.4298ZM72.4679 24.4003C72.4679 22.2661 71.0105 20.8422 69.084 20.8422C67.1575 20.8422 65.68 22.2661 65.68 24.4003C65.68 26.5346 67.1407 27.9585 69.084 27.9585C71.0273 27.9585 72.4679 26.5212 72.4679 24.4003Z" fill="#EF4040"/>
<path d="M85.2558 20.7211V28.9631H84.0764V27.2879C83.4365 28.3969 82.2538 29.0402 80.7964 29.0402C78.4712 29.0402 76.9434 27.7402 76.9434 25.1202V19.8365H78.1763V25.0063C78.1763 26.9495 79.1815 27.9412 80.9203 27.9412C82.8267 27.9412 84.0262 26.7083 84.0262 24.6243V19.8365H84.6661C84.8213 19.8496 84.9775 19.8283 85.1236 19.7742C85.2697 19.7202 85.4021 19.6347 85.5114 19.5237C85.6208 19.4128 85.7044 19.2791 85.7563 19.1323C85.8083 18.9854 85.8273 18.829 85.812 18.6739C85.8176 18.2775 85.7006 17.889 85.4769 17.5616L86.2911 17.25C86.5816 17.6796 86.7314 18.1889 86.7199 18.7074C86.7199 19.7494 86.2308 20.5133 85.2558 20.7211Z" fill="#EF4040"/>
<path d="M96.7486 24.4003C96.7653 25.0204 96.6575 25.6375 96.4318 26.2153C96.206 26.793 95.8667 27.3197 95.434 27.7642C95.0013 28.2087 94.4839 28.562 93.9124 28.8032C93.341 29.0444 92.7269 29.1687 92.1066 29.1687C91.4863 29.1687 90.8723 29.0444 90.3008 28.8032C89.7293 28.562 89.2119 28.2087 88.7792 27.7642C88.3465 27.3197 88.0072 26.793 87.7814 26.2153C87.5556 25.6375 87.4479 25.0204 87.4646 24.4003C87.4646 21.6931 89.4413 19.7666 92.115 19.7666C93.0497 19.7666 93.4317 19.8705 94.266 19.8705C95.2376 19.8705 95.6731 19.2976 95.6731 18.6543C95.6676 18.2605 95.5515 17.8762 95.3381 17.5453L96.1355 17.2337C96.4276 17.6648 96.5904 18.1705 96.6046 18.6911C96.6154 19.1667 96.4505 19.6296 96.1414 19.9912C95.8324 20.3528 95.4008 20.5878 94.9293 20.6511C95.5126 21.0829 95.9827 21.6493 96.2996 22.3022C96.6164 22.9551 96.7704 23.6749 96.7486 24.4003ZM95.4989 24.4003C95.4989 22.266 94.0582 20.8421 92.115 20.8421C90.1717 20.8421 88.7109 22.266 88.7109 24.4003C88.7109 26.5345 90.1717 27.9584 92.115 27.9584C94.0582 27.9584 95.4989 26.5211 95.4989 24.4003ZM92.0279 18.4298L89.2168 16.2788H90.8653L93.2407 18.4298H92.0279Z" fill="#EF4040"/>
<path d="M107.577 23.6697V28.9634H106.344V23.7937C106.344 21.8672 105.339 20.8755 103.604 20.8755C101.644 20.8755 100.411 22.0917 100.411 24.1756V28.9634H99.1777V19.8368H100.357V21.512C101.027 20.403 102.25 19.7598 103.828 19.7598C106.049 19.7665 107.577 21.0497 107.577 23.6697Z" fill="#EF4040"/>
<path d="M119.326 19.8367V27.861C119.326 31.0003 117.782 32.4243 114.763 32.4243C113.088 32.4243 111.466 31.9217 110.511 31.0171L111.134 30.0823C112.142 30.9176 113.417 31.3613 114.726 31.332C117.035 31.332 118.093 30.2733 118.093 28.0151V26.8558C117.329 28.0184 116.029 28.6282 114.535 28.6282C111.932 28.6282 109.955 26.8056 109.955 24.1855C109.955 21.5655 111.932 19.7764 114.535 19.7764C116.063 19.7764 117.383 20.3995 118.147 21.599V19.8367H119.326ZM118.13 24.1922C118.13 22.2121 116.669 20.8418 114.659 20.8418C112.649 20.8418 111.205 22.182 111.205 24.1922C111.205 26.2025 112.645 27.5427 114.659 27.5427C116.673 27.5427 118.13 26.1523 118.13 24.1755V24.1922Z" fill="#EF4040"/>
<path d="M15.6477 41.1627C15.7724 41.2618 15.8717 41.3891 15.9375 41.5342C16.0034 41.6792 16.0338 41.8378 16.0263 41.9969C15.9609 42.3496 15.8691 42.6968 15.7515 43.0356C15.6276 43.3907 15.4667 43.8129 15.2724 44.302L14.8704 45.3072C14.513 46.2654 13.8239 48.0858 12.8031 50.7684C11.7824 53.451 11.0006 55.5271 10.4578 56.9968C9.56439 59.3824 8.92222 61.176 8.53133 62.3777C8.32361 63.0042 8.13933 63.614 7.97516 64.1969C7.7893 64.8139 7.68566 65.4526 7.66692 66.0966C7.66574 66.2793 7.69171 66.4611 7.74398 66.6361C7.75821 66.7145 7.77837 66.7918 7.80429 66.8672L7.83444 66.9275C7.9029 67.04 7.96013 67.159 8.00532 67.2827L8.02207 67.2994C8.01831 67.325 8.01831 67.351 8.02207 67.3765C8.02985 67.3959 8.03547 67.4162 8.03882 67.4368C8.03882 67.4569 8.07568 67.5206 8.11588 67.6211C8.15609 67.7216 8.18289 67.7853 8.19294 67.8087C8.21562 67.8471 8.23042 67.8896 8.23646 67.9338C8.2425 67.9779 8.23966 68.0229 8.22812 68.0659C8.21657 68.109 8.19655 68.1493 8.16922 68.1846C8.1419 68.2198 8.10781 68.2492 8.06897 68.2711C7.89753 68.3738 7.69881 68.4217 7.4994 68.4084C6.90034 68.3765 6.33444 68.1234 5.91129 67.6981C5.46281 67.2691 5.13767 66.7276 4.96982 66.1301C4.75539 65.3696 4.8157 64.341 5.15744 63.0444C5.32161 62.4279 5.52934 61.7344 5.78733 60.9638C6.5825 58.5894 8.0444 54.6259 10.1731 49.0731C10.3506 48.6207 10.6053 47.944 10.947 47.0393C11.2887 46.1347 11.54 45.4546 11.7176 45.0023C11.0274 46.166 10.4612 47.1041 10.0189 47.8166C9.57667 48.5292 9.01827 49.3779 8.34371 50.363C7.67362 51.3458 7.02364 52.2214 6.39376 52.9897C5.42436 54.1825 4.57558 54.9843 3.84742 55.3953C3.4719 55.6325 3.01757 55.7108 2.58431 55.6131C2.45896 55.5862 2.33895 55.5386 2.22916 55.4724C2.13012 55.4278 2.03677 55.3716 1.95107 55.3049C1.78485 55.1854 1.63007 55.0508 1.48871 54.9028L1.31784 54.6884L1.35134 54.7185L1.25083 54.6113C1.21494 54.572 1.18138 54.5306 1.15032 54.4874C0.883507 54.1189 0.714095 53.6891 0.657803 53.2377C0.572268 52.3729 0.64493 51.4999 0.872231 50.6612C1.1245 49.6031 1.46061 48.5668 1.87736 47.562C2.14316 46.8919 2.57984 45.8231 3.18738 44.3556C3.79493 42.8881 4.24166 41.7713 4.52756 41.0052C4.56867 40.9044 4.63604 40.8164 4.72265 40.7504C4.80926 40.6844 4.91195 40.6428 5.02007 40.63C5.25226 40.583 5.49148 40.583 5.72367 40.63C5.93312 40.6718 6.13753 40.7359 6.33345 40.8209C6.65473 40.9699 6.93096 41.201 7.1342 41.491C7.23618 41.6114 7.30422 41.7569 7.33131 41.9124C7.3584 42.0678 7.34356 42.2277 7.28832 42.3755C6.79692 43.6331 6.31893 44.8158 5.85433 45.9236C5.14404 47.6279 4.40359 49.5611 3.63299 51.7233C3.42862 52.3297 3.29795 52.7049 3.27785 52.849C3.28009 52.8791 3.28009 52.9094 3.27785 52.9395C3.27478 52.9707 3.27478 53.0021 3.27785 53.0333C3.28003 53.0746 3.28003 53.1159 3.27785 53.1572C3.27226 53.1995 3.26215 53.2411 3.24769 53.2812L3.20079 53.5124C3.19894 53.5568 3.19105 53.6008 3.17733 53.6431C3.17733 53.7 3.15053 53.7436 3.14048 53.7737C3.13765 53.7892 3.13765 53.8051 3.14048 53.8206C3.1223 53.8701 3.11213 53.9221 3.11032 53.9748C3.09431 54.0453 3.08423 54.117 3.08017 54.1892C3.07084 54.2502 3.07084 54.3124 3.08017 54.3735C3.08017 54.4572 3.08017 54.5142 3.08017 54.5443C3.19409 54.4505 3.37166 54.2964 3.61959 54.082C4.51998 53.1935 5.35949 52.2454 6.13242 51.2441C7.14425 49.9308 8.0969 48.6219 8.99035 47.3174C9.08416 47.1935 9.4259 46.6942 10.0223 45.8198C10.6187 44.9453 11.0274 44.3489 11.2351 44.0306C11.4429 43.7124 11.7545 43.2332 12.1666 42.5967C12.5787 41.9601 12.9372 41.3771 13.2454 40.8544C13.2585 40.823 13.2806 40.7961 13.3091 40.7774C13.5536 40.4423 13.9791 40.3854 14.6492 40.5629C15.0312 40.6664 15.3769 40.8741 15.6477 41.1627Z" fill="#EF4040"/>
<path d="M26.0143 47.8098C26.0679 47.7595 26.1449 47.7595 26.2555 47.8098C26.3661 47.86 26.3962 47.9304 26.356 48.0041C25.0568 50.4513 23.2968 52.6243 21.1729 54.4035C20.6695 54.8248 20.0955 55.1537 19.4776 55.3751C19.3156 55.4323 19.1499 55.4781 18.9817 55.5124C18.927 55.5281 18.8709 55.5382 18.8142 55.5426C18.7639 55.5555 18.712 55.5612 18.66 55.5594C18.4085 55.5895 18.1543 55.5895 17.9028 55.5594L17.7789 55.5426C17.7376 55.5376 17.6971 55.5275 17.6583 55.5124C17.6882 55.5077 17.7188 55.5077 17.7487 55.5124L17.5812 55.4823C17.5289 55.4759 17.4773 55.4646 17.4271 55.4488C17.3475 55.4315 17.27 55.4056 17.1959 55.3717C16.6139 55.1534 16.0867 54.8104 15.6514 54.3666C15.2483 53.9642 14.9494 53.4697 14.7802 52.9259C14.5939 52.3725 14.5055 51.7909 14.5189 51.2071C14.5349 50.6372 14.5943 50.0694 14.6965 49.5085C15.0711 48.004 15.742 46.5893 16.6699 45.3472C17.8224 43.7211 18.8097 42.5798 19.6317 41.9231C20.2822 41.3852 21.0277 40.9738 21.8296 40.7102C22.2337 40.5743 22.6607 40.5196 23.086 40.5494C23.501 40.5776 23.9032 40.7052 24.2586 40.9213C24.6437 41.1265 24.9395 41.4664 25.0895 41.8762C25.3493 42.3369 25.4822 42.8583 25.4748 43.3872C25.4679 44.0542 25.3548 44.7158 25.1398 45.3472C24.7465 46.6038 24.065 47.7512 23.1496 48.6977C22.0083 49.8993 20.8211 50.4242 19.5881 50.2724C18.9087 50.202 18.2698 49.9155 17.7655 49.4549C17.3684 50.4111 17.1591 51.4349 17.149 52.4702C17.1166 53.0405 17.232 53.6095 17.484 54.122C17.484 54.122 17.484 54.1421 17.5075 54.1522L17.5611 54.189L17.6214 54.2426V54.2594H17.7018C17.7881 54.2754 17.8755 54.2855 17.9632 54.2895H18.1039C18.216 54.2851 18.3278 54.275 18.4389 54.2594H18.4925H18.5461L18.6098 54.2426H18.6533C18.9166 54.1653 19.175 54.0725 19.4273 53.9645C20.0611 53.6784 20.6602 53.3209 21.2131 52.8991C21.4208 52.745 21.6185 52.5875 21.8095 52.4233C22.0004 52.2592 22.1981 52.0883 22.4092 51.8672L22.9419 51.3512C23.0849 51.2105 23.2725 51.0128 23.5048 50.7582L23.9973 50.2087C24.0956 50.1015 24.2731 49.8938 24.53 49.5855C24.788 49.2773 24.9455 49.0863 24.9991 49.0126L25.5184 48.3827L26.0143 47.8098ZM17.7018 54.2862H17.6717V54.2694V54.2862H17.7018ZM17.8124 54.2862H17.7018H17.7588H17.8124ZM20.2314 45.3707C19.4307 46.4114 18.7243 47.5215 18.1206 48.6876C18.2949 48.8534 18.5063 48.9751 18.7371 49.0428C18.898 49.0704 19.0627 49.0653 19.2216 49.0279C19.3805 48.9905 19.5302 48.9215 19.6618 48.825C20.0624 48.5626 20.4045 48.2204 20.667 47.8198C20.9654 47.4365 21.2428 47.0372 21.4979 46.6237C22.0202 45.7702 22.4686 44.8734 22.838 43.9434C23.0182 43.4915 23.1682 43.0281 23.287 42.5563L23.1228 42.6401L22.9922 42.7071C22.0875 43.232 21.1673 44.1254 20.2314 45.3874V45.3707Z" fill="#EF4040"/>
<path d="M42.9969 47.87C43.0472 47.7996 43.141 47.7929 43.275 47.8465C43.409 47.9001 43.4526 47.9772 43.4124 48.071C42.8476 49.2822 42.1983 50.4522 41.4691 51.5722C40.9221 52.4863 40.293 53.3487 39.5895 54.1487C39.1204 54.6472 38.5669 55.059 37.9545 55.3649C37.3232 55.6348 36.6146 55.6622 35.9643 55.4419C35.5821 55.3387 35.2289 55.1483 34.9324 54.8858C34.8698 54.836 34.8125 54.7799 34.7615 54.7183C34.5653 54.5639 34.3985 54.3755 34.269 54.1621C33.9038 53.5573 33.7265 52.8576 33.7597 52.1518C33.7999 50.9077 34.2322 49.2012 35.0564 47.0323C35.1066 46.8983 35.187 46.6973 35.2942 46.4326C35.4015 46.1679 35.4819 45.9569 35.5355 45.8128C34.0803 48.3161 32.4514 50.7142 30.6606 52.9894C29.6912 54.1822 28.8424 54.984 28.1143 55.395C27.7387 55.6322 27.2844 55.7105 26.8511 55.6128C26.7258 55.5859 26.6058 55.5383 26.496 55.4721C26.397 55.4275 26.3036 55.3713 26.2179 55.3046C26.0517 55.1851 25.8969 55.0506 25.7555 54.9025L25.5847 54.6881L25.6182 54.7183C25.5825 54.6847 25.5489 54.6488 25.5177 54.611C25.4818 54.5717 25.4482 54.5303 25.4172 54.4871C25.1505 54.1182 24.9801 53.6887 24.9213 53.2374C24.839 52.3724 24.9128 51.4997 25.1391 50.6609C25.3913 49.6028 25.7274 48.5665 26.1442 47.5617C26.41 46.8916 26.8467 45.8228 27.4542 44.3553C28.0618 42.8878 28.5085 41.771 28.7944 41.0049C28.8346 40.9035 28.9017 40.8149 28.9885 40.7488C29.0753 40.6827 29.1784 40.6415 29.2869 40.6297C29.5189 40.5809 29.7585 40.5809 29.9905 40.6297C30.1999 40.6764 30.4041 40.7437 30.6003 40.8307C30.9306 40.9672 31.2193 41.1878 31.4379 41.4706C31.5399 41.5897 31.6081 41.734 31.6352 41.8884C31.6623 42.0428 31.6474 42.2017 31.592 42.3484C31.1006 43.606 30.6226 44.7887 30.158 45.8965C29.4477 47.6008 28.7073 49.534 27.9367 51.6962C27.7323 52.3026 27.6016 52.6778 27.5815 52.8219C27.5847 52.852 27.5847 52.8823 27.5815 52.9124C27.5794 52.9436 27.5794 52.9749 27.5815 53.0062C27.5837 53.0475 27.5837 53.0888 27.5815 53.1301C27.5759 53.1724 27.5658 53.214 27.5514 53.2541L27.5045 53.4853C27.5026 53.5297 27.4947 53.5737 27.481 53.616C27.481 53.6729 27.4542 53.7165 27.4442 53.7466C27.4413 53.7621 27.4413 53.778 27.4442 53.7935C27.426 53.843 27.4158 53.895 27.414 53.9476C27.398 54.0182 27.3879 54.0899 27.3839 54.1621C27.3745 54.2231 27.3745 54.2853 27.3839 54.3464C27.3839 54.4301 27.3839 54.4871 27.3839 54.5172C27.4978 54.4234 27.6753 54.2693 27.9233 54.0549C28.8237 53.1664 29.6632 52.2183 30.4361 51.217C31.4658 49.9193 32.4274 48.6193 33.3208 47.3171C33.4046 47.1932 33.7363 46.704 34.326 45.8496C34.9156 44.9953 35.311 44.4123 35.5221 44.1007C35.7332 43.7891 36.038 43.3201 36.4401 42.6969C36.8421 42.0737 37.1906 41.5075 37.4888 40.9915C37.529 40.8901 37.5961 40.8015 37.6829 40.7354C37.7697 40.6693 37.8728 40.6281 37.9813 40.6163C38.2124 40.5693 38.4505 40.5693 38.6815 40.6163C38.8911 40.6577 39.0956 40.7217 39.2913 40.8072C39.6138 40.9557 39.8913 41.1869 40.0954 41.4773C40.1968 41.5981 40.2644 41.7435 40.2915 41.8988C40.3186 42.0542 40.3041 42.2139 40.2495 42.3618C40.1356 42.6701 39.7079 43.7478 38.9663 45.595C38.2292 47.4411 37.6865 48.8617 37.3481 49.8568C37.223 50.2275 37.0488 50.7859 36.8254 51.532C36.7718 51.676 36.7048 51.9039 36.6244 52.2021C36.6224 52.2306 36.6168 52.2587 36.6076 52.2858C36.5997 52.3156 36.5896 52.3447 36.5775 52.3729V52.4165C36.5441 52.5263 36.5183 52.6382 36.5004 52.7515C36.4066 53.3278 36.3563 53.7031 36.3463 53.8773V54.0314V54.1989V54.1386C36.3436 54.1743 36.3436 54.2102 36.3463 54.2458C36.3501 54.2871 36.3501 54.3286 36.3463 54.3698C36.3463 54.3698 36.3228 54.3698 36.2994 54.3866H36.3161C36.3258 54.3826 36.3366 54.3826 36.3463 54.3866V54.4335C36.4131 54.4409 36.4805 54.4409 36.5473 54.4335C36.6766 54.4362 36.8058 54.425 36.9326 54.4C37.6257 54.203 38.2568 53.8316 38.7653 53.3211C39.3098 52.8385 39.8089 52.3069 40.2562 51.733C40.722 51.1366 41.2279 50.4364 41.7673 49.6356C42.3067 48.8349 42.6987 48.262 42.9969 47.87ZM36.3329 54.4402C36.3282 54.4216 36.3176 54.4052 36.3027 54.3933V54.3631C36.3126 54.3733 36.3204 54.3854 36.3255 54.3986C36.3307 54.4118 36.3332 54.426 36.3329 54.4402Z" fill="#EF4040"/>
<path d="M73.0571 36.0264C73.1201 36.1147 73.165 36.2147 73.1892 36.3205C73.2133 36.4263 73.2162 36.5359 73.1978 36.6429C73.1929 36.7526 73.1502 36.8573 73.0769 36.9391C73.0036 37.0209 72.9043 37.0749 72.7957 37.0918C72.5755 37.1449 72.3514 37.1808 72.1256 37.199C71.8777 37.2191 71.6733 37.2292 71.5058 37.2292C71.3383 37.2292 71.1071 37.2292 70.7989 37.2292H70.1489H68.9494C68.4134 37.2292 68.0113 37.2292 67.7433 37.2292H64.222H60.6973C60.6973 37.2593 60.6738 37.2995 60.6604 37.3531C60.6491 37.3896 60.6357 37.4254 60.6202 37.4604C58.7283 42.4994 57.3301 46.2877 56.4255 48.8251C55.7353 50.7482 55.1769 52.3877 54.7503 53.7435C54.4822 54.6079 54.3214 55.1741 54.2577 55.4422C54.0446 56.1035 53.9604 56.7996 54.0098 57.4926C54.0344 57.6446 54.0736 57.7939 54.1271 57.9382C54.184 58.0924 54.2544 58.2733 54.3415 58.4408C54.4286 58.6083 54.4956 58.7758 54.5358 58.8663C54.5585 58.9047 54.5733 58.9472 54.5793 58.9914C54.5854 59.0356 54.5825 59.0805 54.571 59.1235C54.5595 59.1666 54.5394 59.2069 54.5121 59.2422C54.4848 59.2774 54.4507 59.3068 54.4119 59.3287C54.2404 59.4314 54.0417 59.4793 53.8423 59.466C53.2846 59.4355 52.7551 59.2116 52.3446 58.8328C51.9071 58.4493 51.573 57.962 51.373 57.4156C51.1026 56.5378 51.0875 55.6012 51.3295 54.7151C51.5037 53.9881 51.7181 53.2141 51.9761 52.4033C52.6752 50.201 53.9964 46.4898 55.9397 41.2698C56.3864 40.0368 56.8901 38.69 57.4507 37.2292H54.5057H53.1655C52.4619 37.2292 51.8789 37.2292 51.4233 37.2057C50.9676 37.1823 50.5153 37.1521 50.0831 37.0985C49.6723 37.0989 49.2763 36.9446 48.9741 36.6663C48.8251 36.5403 48.71 36.379 48.6391 36.1972C48.6082 36.1229 48.5951 36.0424 48.601 35.9621C48.6068 35.8818 48.6313 35.804 48.6726 35.7349C48.727 35.6574 48.7979 35.5929 48.8801 35.546C48.9624 35.4991 49.0539 35.4709 49.1483 35.4635C49.9667 35.3525 50.7917 35.2966 51.6176 35.296L54.0065 35.2491C54.4688 35.2491 55.1735 35.239 56.1206 35.2189C57.0676 35.1988 57.7712 35.1988 58.2314 35.2189C58.6937 33.9659 59.0902 32.8758 59.4208 31.9489C59.4575 31.8475 59.5213 31.758 59.6051 31.6901C59.6889 31.6222 59.7897 31.5785 59.8965 31.5636C60.134 31.5133 60.3794 31.5133 60.6169 31.5636C60.8256 31.6088 61.0289 31.6762 61.2233 31.7646C61.54 31.9069 61.8138 32.1299 62.0174 32.4112C62.1175 32.5347 62.185 32.6813 62.2137 32.8376C62.2424 32.9939 62.2313 33.1549 62.1815 33.3058C62.0386 33.728 61.8152 34.35 61.5114 35.172H62.1145C62.3792 35.172 62.5802 35.172 62.7143 35.172L67.0162 35.1251C67.2641 35.1251 67.636 35.1251 68.1353 35.1251C68.6345 35.1251 69.0064 35.1251 69.2543 35.1251H69.8172L70.4471 35.1017C70.5978 35.1017 70.7821 35.1017 71.0032 35.1017C71.2075 35.1137 71.411 35.136 71.613 35.1687C71.9013 35.199 72.1797 35.2914 72.4289 35.4395C72.6782 35.5875 72.8924 35.7877 73.0571 36.0264Z" fill="#EF4040"/>
<path d="M73.3856 47.8703C73.4359 47.7999 73.5297 47.7932 73.6637 47.8468C73.7977 47.9004 73.8413 47.9775 73.8011 48.0713C73.2364 49.2976 72.5871 50.4832 71.8578 51.6194C71.3169 52.5573 70.6923 53.4443 69.9916 54.2696C69.364 54.9911 68.7631 55.3976 68.1891 55.4892C67.385 55.6232 66.668 55.2278 66.0281 54.3031C65.8734 54.1074 65.7491 53.8894 65.6595 53.6565C65.483 53.2297 65.3766 52.7771 65.3446 52.3163C65.3119 51.7956 65.3559 51.273 65.4752 50.7651C65.5992 50.1988 65.7098 49.7599 65.8103 49.4249C65.9108 49.0898 66.0582 48.6308 66.2626 48.0244C66.5396 47.2002 66.9975 45.9862 67.6363 44.3825C66.3267 46.043 65.1312 47.7903 64.058 49.6125C63.8748 49.9118 63.561 50.4434 63.1165 51.2073C62.6776 51.9746 62.3258 52.5475 62.0712 52.9562C61.9774 53.1037 61.8534 53.3114 61.6993 53.5895C61.5452 53.8676 61.4212 54.0786 61.3307 54.2227C61.2972 54.273 61.247 54.3634 61.1766 54.4907C61.1063 54.6181 61.0393 54.7286 60.9823 54.8258C60.927 54.9114 60.863 54.9911 60.7913 55.0637C60.756 55.1209 60.7078 55.1691 60.6506 55.2044C60.4788 55.2983 60.2785 55.3257 60.0877 55.2815C59.8913 55.2476 59.7074 55.162 59.555 55.0335C58.8492 54.4818 58.5409 53.3818 58.6303 51.7333C58.6934 51.0149 58.8178 50.3031 59.0022 49.6058C59.2769 48.4566 59.5148 47.5721 59.7091 46.9523C60.1559 45.5763 60.8092 43.7626 61.6691 41.5111C62.0712 40.4524 62.6977 38.8665 63.5487 36.7535C64.3997 34.6405 65.0274 33.0491 65.4317 31.9792C65.4726 31.8779 65.5399 31.7894 65.6264 31.7229C65.713 31.6563 65.8158 31.6141 65.9242 31.6006C66.1567 31.557 66.3953 31.557 66.6278 31.6006C66.8374 31.6435 67.0418 31.7087 67.2376 31.7949C67.5601 31.9447 67.8383 32.1756 68.045 32.465C68.1494 32.584 68.2195 32.7292 68.2478 32.885C68.2761 33.0408 68.2616 33.2013 68.2058 33.3495C67.9825 33.9459 67.3716 35.4781 66.3732 37.9463C65.6227 39.7957 64.928 41.5592 64.2892 43.2366C64.0658 43.8732 63.7375 44.7856 63.3042 45.9739C62.8708 47.1622 62.5671 48.0121 62.3928 48.5236C62.136 49.2451 61.6736 50.659 61.0058 52.7653C60.9561 52.8966 60.9147 53.0309 60.8818 53.1673C60.8846 53.1873 60.8846 53.2076 60.8818 53.2276C60.8708 53.2518 60.8651 53.2781 60.865 53.3047V53.3348C60.857 53.3495 60.8513 53.3653 60.8483 53.3818C60.788 53.6297 60.721 53.881 60.6506 54.139C60.6545 54.1486 60.6545 54.1594 60.6506 54.1691V54.2931C60.6707 54.2294 60.7076 54.1423 60.7578 54.0284C60.7855 53.9652 60.8168 53.9037 60.8516 53.8441C61.2939 52.8591 61.5385 52.3096 61.5921 52.1957C62.855 49.6192 64.2714 47.1209 65.8337 44.7142C66.4935 43.6423 67.241 42.627 68.0685 41.6787C68.3547 41.3619 68.6699 41.0725 69.01 40.8143C69.1485 40.714 69.3067 40.6442 69.4742 40.6095C69.6417 40.5749 69.8146 40.5761 69.9816 40.6132C70.2536 40.6527 70.5187 40.7305 70.7689 40.8444C71.0882 40.9902 71.3658 41.2137 71.5764 41.4944C71.6808 41.6121 71.751 41.7561 71.7794 41.9108C71.8077 42.0656 71.7932 42.2252 71.7372 42.3722C71.4022 43.1931 70.9331 44.4294 70.2731 46.0577C69.3796 48.2913 68.6961 50.2603 68.2226 51.9645C68.1331 52.2947 68.066 52.6305 68.0216 52.9697C67.9412 53.4957 67.8976 53.7972 67.8976 53.881V54.4036H67.9144C68.0048 54.3738 68.0923 54.3357 68.1757 54.2897C68.2663 54.2383 68.3536 54.1813 68.437 54.1188C68.5308 54.0518 68.6112 53.9949 68.6783 53.9413C68.7616 53.8768 68.841 53.8074 68.9161 53.7335C69.01 53.6464 69.0803 53.5794 69.1239 53.5325L69.3483 53.308L69.5494 53.1104C70.3639 52.2358 71.0963 51.2881 71.7372 50.2792C72.5994 48.9837 73.1489 48.1808 73.3856 47.8703Z" fill="#EF4040"/>
<path d="M90.37 47.8701C90.4202 47.7997 90.5107 47.793 90.6447 47.8466C90.7787 47.9002 90.8256 47.9773 90.7854 48.0711C90.2194 49.2817 89.57 50.4516 88.8421 51.5723C88.2954 52.4874 87.665 53.35 86.9592 54.1488C86.4914 54.6488 85.9376 55.0608 85.3242 55.365C84.6941 55.635 83.9865 55.6624 83.3374 55.4421C82.9541 55.3388 82.5998 55.1485 82.3021 54.8859C82.2413 54.8352 82.1853 54.7791 82.1346 54.7184H82.1178C81.9216 54.564 81.7548 54.3756 81.6253 54.1622C81.2586 53.558 81.0812 52.8579 81.116 52.1519C81.1562 50.9078 81.5885 49.2013 82.4127 47.0325C82.4629 46.8985 82.5433 46.6974 82.6505 46.4327C82.7578 46.1681 82.8382 45.957 82.8884 45.8129C81.4399 48.3164 79.8164 50.7146 78.0303 52.9896C77.0654 54.1823 76.2177 54.9842 75.4873 55.3952C75.3009 55.513 75.0931 55.593 74.8758 55.6303C74.6585 55.6677 74.4359 55.6618 74.2208 55.613C74.0965 55.586 73.9776 55.5385 73.869 55.4722C73.7696 55.4284 73.6762 55.3721 73.591 55.3047C73.4247 55.1853 73.2699 55.0507 73.1286 54.9027L72.9577 54.6882L72.9879 54.7184L72.8874 54.6112L72.7868 54.4872C72.5228 54.1173 72.3537 53.6881 72.2943 53.2375C72.212 52.3726 72.2858 51.4999 72.5121 50.661C72.7656 49.6033 73.1017 48.567 73.5172 47.5618C73.7853 46.8918 74.2231 45.823 74.8306 44.3555C75.4382 42.888 75.8905 41.7712 76.1875 41.005C76.2277 40.9036 76.2948 40.8151 76.3816 40.7489C76.4684 40.6828 76.5716 40.6416 76.6801 40.6298C76.9109 40.5811 77.1494 40.5811 77.3803 40.6298C77.5898 40.676 77.7941 40.7434 77.9901 40.8308C78.3087 40.9745 78.5854 41.1971 78.7942 41.4775C78.8956 41.5969 78.9633 41.7411 78.9904 41.8954C79.0175 42.0497 79.003 42.2085 78.9483 42.3553C78.4524 43.6128 77.9744 44.7955 77.5143 45.9034C76.804 47.6076 76.0636 49.5408 75.293 51.703C75.0852 52.3094 74.9579 52.6847 74.9378 52.8287C74.9378 52.8287 74.9378 52.8689 74.9211 52.9192C74.919 52.9504 74.919 52.9818 74.9211 53.013C74.9177 53.0546 74.9121 53.096 74.9043 53.137C74.8987 53.1793 74.8886 53.2208 74.8742 53.2609L74.8273 53.4921C74.8254 53.5365 74.8175 53.5805 74.8038 53.6228C74.8038 53.6798 74.777 53.7233 74.767 53.7535C74.7584 53.7679 74.7527 53.7838 74.7502 53.8004C74.732 53.8498 74.7218 53.9018 74.72 53.9545C74.704 54.025 74.694 54.0967 74.6899 54.1689C74.6802 54.23 74.6802 54.2921 74.6899 54.3532C74.6899 54.4381 74.6899 54.495 74.6899 54.5241L75.2293 54.0617C76.1297 53.1733 76.9692 52.2252 77.7421 51.2239C78.7696 49.9261 79.7312 48.6262 80.6269 47.324C80.7073 47.1989 81.0423 46.7097 81.632 45.8565C82.2183 45.0055 82.617 44.4191 82.8281 44.1075C83.0392 43.796 83.3441 43.3269 83.7428 42.7037C84.1415 42.0805 84.4933 41.5143 84.7915 40.9983C84.8329 40.8971 84.9007 40.8088 84.988 40.7428C85.0752 40.6767 85.1786 40.6354 85.2873 40.6231C85.5184 40.5762 85.7565 40.5762 85.9876 40.6231C86.1971 40.6645 86.4016 40.7285 86.5974 40.8141C86.9186 40.963 87.1949 41.1942 87.3981 41.4842C87.5007 41.6042 87.5692 41.7497 87.5963 41.9053C87.6234 42.0609 87.6082 42.221 87.5522 42.3687C87.4383 42.6769 87.0117 43.7546 86.2724 45.6018C85.533 47.449 84.9936 48.8696 84.6541 49.8636C84.529 50.2344 84.3548 50.7928 84.1314 51.5388C84.0778 51.6829 84.0108 51.9107 83.9304 52.2089C83.9284 52.2374 83.9228 52.2656 83.9137 52.2927C83.9057 52.3224 83.8956 52.3515 83.8835 52.3798V52.4233C83.8501 52.5331 83.8244 52.6451 83.8064 52.7584C83.7126 53.3347 83.6624 53.7099 83.6523 53.8841V54.0382V54.2058V54.1455C83.6491 54.1811 83.6491 54.217 83.6523 54.2527C83.6557 54.2939 83.6557 54.3354 83.6523 54.3766C83.6523 54.3766 83.6255 54.3766 83.6054 54.3934C83.6151 54.3895 83.6259 54.3895 83.6356 54.3934V54.4403H83.7059C83.7716 54.4476 83.8379 54.4476 83.9036 54.4403C84.0329 54.4432 84.1621 54.432 84.2889 54.4068C84.9834 54.2108 85.6157 53.8393 86.1249 53.328C86.6692 52.8461 87.1673 52.3144 87.6125 51.7398C88.0816 51.1435 88.5853 50.4443 89.1236 49.6425C89.6619 48.8406 90.0774 48.2498 90.37 47.8701ZM83.7059 54.4403C83.7013 54.4218 83.6907 54.4053 83.6758 54.3934V54.3632C83.6857 54.3734 83.6934 54.3855 83.6986 54.3987C83.7038 54.412 83.7063 54.4261 83.7059 54.4403Z" fill="#EF4040"/>
<path d="M103.587 47.7324C103.697 47.729 103.807 47.7477 103.91 47.7874C104.013 47.8271 104.107 47.887 104.187 47.9636C104.435 48.168 104.465 48.3288 104.281 48.4427C103.778 48.7587 103.233 49.0023 102.662 49.1664C101.635 49.4255 101.018 49.564 100.813 49.5819C100.655 49.602 100.404 49.6221 100.056 49.6455C99.7639 50.4435 99.3971 51.2119 98.9602 51.9406C98.0064 53.5466 96.8963 54.6634 95.6298 55.291C94.8412 55.6754 93.9533 55.8075 93.0869 55.6696C92.2252 55.5262 91.4164 55.1588 90.7415 54.6042C90.2784 54.2646 89.8978 53.825 89.6281 53.318C89.3584 52.811 89.2064 52.2497 89.1836 51.6759C89.2105 50.6879 89.4578 49.7183 89.9073 48.8381C90.2865 48.0353 90.7408 47.2702 91.2642 46.5531C91.0821 46.23 90.9681 45.8731 90.9292 45.5044C90.8616 44.9723 90.8997 44.4321 91.0411 43.9146C91.1825 43.3972 91.4246 42.9128 91.7534 42.489C92.3985 41.5812 93.3145 40.9009 94.3701 40.5457C95.402 40.1865 96.5264 40.1948 97.553 40.5692C98.5943 40.9178 99.4739 41.632 100.029 42.5795C100.771 43.8012 100.994 45.3179 100.699 47.1293C100.646 47.4824 100.574 47.8325 100.485 48.178C101.597 48.0608 102.632 47.9167 103.587 47.7324ZM95.5461 51.572C95.9815 50.9896 96.3735 50.376 96.7187 49.736C96.7337 49.6935 96.7516 49.6521 96.7723 49.612C96.7913 49.5694 96.8149 49.5289 96.8427 49.4914C96.2028 49.3775 95.67 49.2569 95.2378 49.1363C94.5573 48.9609 93.8995 48.7067 93.2778 48.3791L93.2477 48.4092C92.7756 49.174 92.3976 49.9929 92.1219 50.8483C92.1219 50.8785 92.1018 50.9153 92.0918 50.9555C92.0817 50.9958 92.0717 51.0326 92.0616 51.0628C92.0572 51.0826 92.0572 51.1032 92.0616 51.1231C92.0359 51.1931 92.0201 51.2664 92.0147 51.3408C91.9745 51.6089 91.9477 51.8099 91.9377 51.9406C91.9175 52.1411 91.9175 52.3431 91.9377 52.5437V52.5906V52.6207C91.9377 52.6542 91.9611 52.6978 91.9745 52.7547L92.0147 52.8854C92.0348 52.9357 92.0549 52.9926 92.075 53.0529C92.0922 53.0765 92.1057 53.1025 92.1152 53.13C92.1152 53.1735 92.142 53.1936 92.1521 53.1936C92.1674 53.21 92.1809 53.228 92.1923 53.2473C92.2028 53.2638 92.2107 53.2819 92.2157 53.3009L92.2928 53.3779V53.3947C92.3036 53.3988 92.3155 53.3988 92.3263 53.3947C92.3599 53.4194 92.3958 53.4407 92.4335 53.4583C92.4432 53.4544 92.454 53.4544 92.4637 53.4583L92.4938 53.4885H92.534H92.5709H92.8322C92.8529 53.4949 92.8751 53.4949 92.8959 53.4885C92.9113 53.4851 92.9273 53.4851 92.9428 53.4885L93.6832 53.2104C93.7033 53.1903 93.7167 53.1802 93.7268 53.1802C93.7268 53.1802 93.7368 53.1802 93.7268 53.1802L93.8172 53.1367C93.8513 53.12 93.8829 53.0985 93.9111 53.073C93.9312 53.073 94.0518 52.9759 94.2662 52.8117C94.5112 52.6223 94.7429 52.4163 94.9597 52.1952C95.1239 52.031 95.2412 51.9004 95.3149 51.8099C95.3886 51.7194 95.4221 51.6893 95.4858 51.6089C95.4974 51.5968 95.5075 51.5833 95.5159 51.5687L95.5461 51.572ZM92.1219 53.207C92.1219 53.207 92.142 53.2439 92.1856 53.2841L92.1219 53.207ZM94.8525 42.5359C94.1042 42.9901 93.5126 43.6624 93.1572 44.4624C93.304 44.3645 93.4732 44.3054 93.649 44.2908C93.8248 44.2761 94.0014 44.3064 94.1623 44.3786C94.54 44.4783 94.8722 44.7041 95.1038 45.0186C95.199 45.1427 95.2493 45.2956 95.2462 45.452C95.2432 45.6085 95.1871 45.7593 95.0871 45.8796C94.8913 46.0804 94.7067 46.2918 94.5342 46.5129L94.5175 46.5296C94.5058 46.5418 94.4957 46.5553 94.4873 46.5698C94.479 46.5834 94.4688 46.5958 94.4572 46.6067C94.4238 46.644 94.3925 46.6832 94.3634 46.7239L94.2729 46.8546C94.2394 46.8948 94.1958 46.9618 94.1322 47.0556L93.9948 47.2567L94.3634 47.4409C94.4432 47.4648 94.5206 47.4962 94.5946 47.5348L94.8559 47.6252C94.9195 47.6453 95.0201 47.6788 95.1641 47.719L95.4757 47.8095C95.9226 47.9267 96.3756 48.0196 96.8326 48.0876C96.9432 48.1077 97.1342 48.1311 97.4022 48.1512C97.4223 48.0876 97.4525 48.0038 97.4927 47.8966L97.5865 47.6554C97.6602 47.4409 97.7138 47.25 97.7574 47.0858C97.7704 47.043 97.7805 46.9993 97.7875 46.9551C97.7946 46.9109 97.8046 46.8673 97.8177 46.8245C97.8202 46.8079 97.8259 46.792 97.8344 46.7776C97.8378 46.7621 97.8378 46.7461 97.8344 46.7306C97.888 46.5062 97.945 46.1644 98.0053 45.7255C98.0863 45.0664 98.102 44.4009 98.0522 43.7387L98.0354 43.7052V43.675C98.039 43.645 98.039 43.6146 98.0354 43.5846C98.0269 43.5539 98.0213 43.5225 98.0187 43.4908C97.9865 43.3541 97.945 43.2198 97.8947 43.0887C97.8786 43.0544 97.8663 43.0185 97.8579 42.9815L97.8177 42.8575C97.8234 42.8436 97.8234 42.8279 97.8177 42.814L97.754 42.69L97.7071 42.6029C97.687 42.5694 97.6736 42.5392 97.6636 42.5191C97.6439 42.5025 97.6279 42.482 97.6166 42.4588L97.5396 42.3818C97.5136 42.3659 97.4918 42.3441 97.4759 42.3181C97.4589 42.2933 97.4432 42.2676 97.429 42.2411C97.4158 42.2273 97.4012 42.2149 97.3855 42.2042C97.3723 42.1922 97.356 42.1841 97.3386 42.1807H97.3084L97.2749 42.1506H97.2582H97.2749C97.2651 42.1539 97.2545 42.1539 97.2447 42.1506H97.2112L97.1509 42.1204L96.9499 42.0735L96.8192 42.0434C96.7758 42.0401 96.7321 42.0401 96.6886 42.0434H96.5512C96.3636 42.0635 96.1693 42.0903 95.9649 42.1204C95.5745 42.1919 95.2001 42.3326 94.8592 42.5359H94.8525ZM97.2715 42.1338C97.2844 42.1352 97.2963 42.1412 97.3051 42.1506L97.3352 42.1807L97.2582 42.1338H97.2715Z" fill="#EF4040"/>
<path d="M117.899 47.8698C117.952 47.7994 118.043 47.7927 118.177 47.8463C118.311 47.9 118.358 47.977 118.318 48.0708C117.752 49.2965 117.102 50.482 116.374 51.6189C115.831 52.5553 115.207 53.4421 114.508 54.2691C113.878 54.9895 113.279 55.3949 112.702 55.4887C111.912 55.6227 111.197 55.2274 110.558 54.3026C110.548 54.2788 110.533 54.2571 110.514 54.239C110.381 54.0609 110.276 53.8631 110.203 53.6527C109.938 52.8737 109.891 52.0375 110.065 51.2336C110.256 50.1672 110.556 49.1231 110.96 48.1177C111.197 47.4901 111.726 46.1745 112.548 44.1709C112.036 44.7539 111.506 45.4273 110.96 46.1812C110.414 46.935 109.955 47.5951 109.603 48.1546C109.251 48.7141 108.792 49.4378 108.246 50.3223C107.199 52.0176 106.529 53.1233 106.236 53.6393C106.062 53.9576 105.787 54.4099 105.418 54.9962C105.397 55.0431 105.365 55.0844 105.325 55.1168V55.1336C105.325 55.1637 105.284 55.1805 105.231 55.1805C104.923 55.3446 104.561 55.281 104.182 54.9928C104.01 54.8702 103.851 54.731 103.706 54.5774C103.674 54.5464 103.645 54.5128 103.619 54.4769C103.593 54.442 103.565 54.4084 103.535 54.3764L103.472 54.316C103.451 54.2996 103.436 54.2774 103.428 54.2524C103.139 53.8852 102.948 53.4506 102.872 52.9893C102.757 52.1401 102.799 51.2769 102.996 50.4429C103.222 49.4265 103.521 48.4277 103.891 47.4543C104.188 46.619 104.64 45.4463 105.248 43.9364C105.855 42.4265 106.25 41.4291 106.434 40.9444C106.475 40.8431 106.543 40.7547 106.63 40.6882C106.718 40.6217 106.821 40.5795 106.929 40.5658C107.16 40.5171 107.399 40.5171 107.63 40.5658C107.839 40.6126 108.043 40.6799 108.239 40.7669C108.559 40.9114 108.836 41.1337 109.047 41.4135C109.151 41.5314 109.221 41.6752 109.25 41.8298C109.279 41.9843 109.266 42.1438 109.211 42.2913C108.988 42.8363 108.666 43.6337 108.246 44.6835C107.826 45.7333 107.449 46.6815 107.114 47.5281C106.785 48.3746 106.497 49.1843 106.249 49.9571C106.189 50.1313 106.102 50.396 105.995 50.7512C105.887 51.1063 105.8 51.3744 105.74 51.5586C105.606 51.9976 105.503 52.4454 105.432 52.8988L105.385 53.2339L105.338 53.4483C105.341 53.4276 105.347 53.4074 105.355 53.388C105.356 53.398 105.356 53.4081 105.355 53.4181C105.352 53.428 105.352 53.4384 105.355 53.4483C105.304 53.7565 105.278 53.9374 105.278 53.9877V54.2356C105.341 54.0916 105.439 53.8738 105.573 53.5823C105.707 53.2908 105.804 53.0697 105.864 52.9122C106.237 52.059 106.88 50.8305 107.794 49.2267C108.605 47.7994 109.442 46.4224 110.307 45.0956C111.027 43.9267 111.848 42.8225 112.759 41.7955C113.063 41.4539 113.41 41.1531 113.791 40.9009C113.931 40.8025 114.089 40.7327 114.255 40.6953C114.422 40.6579 114.594 40.6538 114.763 40.6831C114.794 40.6879 114.826 40.6879 114.857 40.6831C114.884 40.6897 114.909 40.6998 114.934 40.7133L115.058 40.7602C115.077 40.753 115.098 40.753 115.118 40.7602C115.287 40.7989 115.452 40.8551 115.61 40.9277C115.928 41.0725 116.205 41.2949 116.415 41.5743C116.516 41.6944 116.584 41.8393 116.611 41.9941C116.638 42.1489 116.623 42.3081 116.569 42.4555C116.196 43.4204 115.696 44.6489 115.071 46.141C114.115 48.4327 113.386 50.3759 112.883 51.9707C112.789 52.2689 112.732 52.4633 112.712 52.5571C112.693 52.5944 112.683 52.6357 112.682 52.6777C112.669 52.7261 112.659 52.7753 112.652 52.8251C112.647 52.8741 112.647 52.9235 112.652 52.9725C112.65 53.0164 112.644 53.0601 112.635 53.1032C112.628 53.1474 112.618 53.191 112.605 53.2339C112.591 53.2661 112.581 53.2998 112.575 53.3344C112.567 53.3673 112.561 53.401 112.558 53.4349V53.465C112.538 53.57 112.518 53.704 112.498 53.8671V54.2356C112.499 54.2591 112.499 54.2826 112.498 54.306C112.496 54.3238 112.496 54.3418 112.498 54.3596C112.589 54.3292 112.678 54.2911 112.763 54.2457C112.843 54.1988 112.93 54.1418 113.024 54.0748C113.114 54.0078 113.195 53.9509 113.262 53.8972C113.329 53.8436 113.409 53.7766 113.503 53.6895L113.711 53.4885L113.932 53.264L114.133 53.0663C114.948 52.1911 115.681 51.2435 116.324 50.2352C117.137 48.9687 117.662 48.1803 117.899 47.8698Z" fill="#EF4040"/>
<path d="M133.681 47.9171C133.744 47.8745 133.815 47.8469 133.89 47.8364C133.965 47.826 134.041 47.8329 134.113 47.8568C134.284 47.8956 134.436 47.9927 134.542 48.1315C134.595 48.1853 134.624 48.2574 134.624 48.3325C134.624 48.4076 134.595 48.4798 134.542 48.5336C134.254 48.8686 133.956 49.1668 133.648 49.475C132.001 51.1614 129.56 53.146 126.324 55.4288C125.727 56.7957 125.198 57.9572 124.735 58.9132C123.592 61.2753 122.277 63.5508 120.802 65.7213C119.951 66.9788 118.985 67.745 117.904 68.0197C117.255 68.1847 116.575 68.1767 115.93 67.9963C115.29 67.8213 114.711 67.4736 114.255 66.9911C113.849 66.5882 113.575 66.072 113.468 65.5102C113.38 64.9513 113.472 64.379 113.729 63.8752C114.12 63.1046 114.882 62.2369 116.014 61.2719C118.048 59.6116 120.173 58.0668 122.38 56.645L122.749 55.8509L123.117 55.0569C124.044 53.0466 124.964 50.8978 125.878 48.6106L125.308 49.5521C124.529 50.8253 123.794 51.9242 123.104 52.8489C122.518 53.7023 121.811 54.4663 121.006 55.1172C120.726 55.3432 120.407 55.5158 120.065 55.6264C119.943 55.6534 119.82 55.6735 119.696 55.6867H119.666H119.633H119.556C119.247 55.7135 118.938 55.6543 118.661 55.5159L118.798 55.5929L118.396 55.4087C118.181 55.2873 117.98 55.1423 117.797 54.9764C117.618 54.8196 117.462 54.638 117.334 54.437C117.057 53.9763 116.883 53.4607 116.825 52.926C116.691 51.9611 116.914 50.8096 117.495 49.4717C118.033 48.2459 118.678 47.0699 119.422 45.9571C120.129 44.8523 120.929 43.8099 121.814 42.8412C122.171 42.4571 122.558 42.1009 122.97 41.7757C123.328 41.4876 123.623 41.2665 123.848 41.1056C124.127 40.9198 124.424 40.7626 124.735 40.6366C125.074 40.4877 125.438 40.4036 125.808 40.3886C126.255 40.3641 126.696 40.4956 127.057 40.7605C127.47 40.8951 127.825 41.167 128.062 41.5311C128.204 41.7329 128.304 41.9606 128.357 42.2012C128.408 42.0672 128.481 41.8662 128.582 41.6149L128.803 41.0286C128.841 40.9395 128.901 40.8619 128.978 40.8031C129.055 40.7444 129.146 40.7066 129.242 40.6935C129.454 40.6466 129.673 40.6466 129.885 40.6935C130.075 40.7346 130.26 40.794 130.438 40.8711C130.729 40.9992 130.982 41.2014 131.172 41.4574C131.262 41.5673 131.323 41.6986 131.349 41.8387C131.375 41.9788 131.365 42.1232 131.319 42.2582C131.245 42.4726 131.141 42.7943 131.001 43.2131C130.86 43.6319 130.756 43.9535 130.686 44.1713C129.381 47.9014 128.24 50.9526 127.262 53.3247C129.56 51.7188 131.708 49.9089 133.681 47.9171ZM119.77 61.8281C120.646 60.1506 121.139 59.2047 121.251 58.9903C119.794 60.0005 118.399 61.0969 117.073 62.2737C116.262 62.9352 115.599 63.7607 115.13 64.6961C115.086 64.786 115.049 64.8789 115.019 64.9742C114.996 65.0275 114.982 65.084 114.976 65.1417C114.957 65.2435 114.946 65.3465 114.942 65.4499C114.94 65.4834 114.94 65.517 114.942 65.5504C114.942 65.5973 114.942 65.6241 114.942 65.6375C114.96 65.6706 114.97 65.7072 114.972 65.7448C114.972 65.8051 114.989 65.8419 114.989 65.852L115.113 66.0999C115.347 66.4986 115.595 66.7063 115.853 66.7164C116.524 66.7477 117.223 66.177 117.951 65.0043C118.496 64.1421 119.102 63.0834 119.77 61.8281ZM124.916 47.964C125.095 47.6959 125.43 47.1766 125.921 46.406C126.413 45.6354 126.796 45.0446 127.071 44.6336C127.084 44.4027 127.084 44.1711 127.071 43.9401V43.5783C127.074 43.4258 127.064 43.2733 127.041 43.1226C127.016 42.8732 126.975 42.6258 126.917 42.3821L126.9 42.3654V42.3352C126.784 42.3657 126.672 42.4072 126.565 42.4592C126.34 42.5691 126.129 42.7039 125.935 42.8613C125.707 43.0355 125.369 43.3236 124.93 43.7223C124.571 44.0607 124.236 44.4223 123.925 44.8045L123.647 45.1396V45.1563L123.509 45.3406C123.301 45.6086 123.147 45.813 123.047 45.9571C122.613 46.5534 122.268 47.0627 122.012 47.4849C121.352 48.5058 120.775 49.5781 120.286 50.6912C119.894 51.6059 119.68 52.1252 119.636 52.2492C119.592 52.3648 119.556 52.4835 119.529 52.6043L119.452 52.8657C119.455 52.845 119.461 52.8248 119.469 52.8054C119.444 52.9718 119.408 53.1363 119.361 53.2979C119.349 53.3207 119.338 53.3442 119.328 53.3682C119.325 53.386 119.325 53.4041 119.328 53.4218C119.29 53.6256 119.264 53.8315 119.251 54.0383C119.251 54.0584 119.251 54.0886 119.251 54.1321C119.254 54.1678 119.254 54.2037 119.251 54.2394C119.244 54.2703 119.244 54.3022 119.251 54.3332H119.268C119.263 54.3542 119.263 54.3758 119.268 54.3968C119.276 54.4101 119.282 54.4249 119.284 54.4404C119.292 54.4372 119.3 54.4356 119.308 54.4356C119.316 54.4356 119.324 54.4372 119.331 54.4404C119.339 54.4408 119.347 54.4396 119.355 54.4367C119.362 54.4338 119.369 54.4293 119.375 54.4236C119.538 54.3592 119.695 54.2772 119.84 54.179C119.901 54.1355 120.092 53.9814 120.41 53.7133C121.038 53.1541 121.619 52.5433 122.146 51.8873C122.735 51.1637 123.194 50.5472 123.516 50.0915C123.838 49.6359 124.303 48.882 124.916 47.964Z" fill="#EF4040"/>
<path d="M22.1437 39.9229C21.92 39.8094 21.7172 39.6587 21.544 39.4772C21.3718 39.3102 21.2341 39.111 21.1386 38.8909C21.0615 38.7066 21.0649 38.5559 21.1386 38.4922L24.8241 35.5003C24.9212 35.4299 25.0686 35.44 25.2596 35.5304C25.4818 35.6389 25.6827 35.7864 25.8526 35.966C26.0576 36.1643 26.2096 36.4108 26.2949 36.683L26.965 39.6984C27.0018 39.8692 26.965 39.9731 26.841 40.0033C26.6608 40.0204 26.4806 39.9703 26.3351 39.8625C26.1173 39.7257 25.9228 39.5549 25.7588 39.3566C25.6038 39.1894 25.4892 38.9888 25.4238 38.7703L25.1993 37.8121L22.5525 39.9664C22.4788 40.0167 22.338 40.0066 22.1437 39.9229Z" fill="#EF4040"/>
<path d="M86.7203 39.1221L86.6902 39.5409C86.6814 39.6583 86.7048 39.7759 86.7579 39.881C86.8111 39.9861 86.8919 40.0747 86.9917 40.1373C87.1309 40.2235 87.2317 40.3598 87.2735 40.5181C87.3152 40.6763 87.2947 40.8446 87.2162 40.9883C86.724 41.9115 86.1804 42.8063 85.5879 43.6686L86.8142 43.8864C87.5958 43.0732 88.3074 42.1957 88.9417 41.263C89.0683 41.0804 89.152 40.8716 89.1866 40.652C89.2211 40.4325 89.2056 40.2081 89.1411 39.9954C89.0767 39.7827 88.965 39.5874 88.8144 39.424C88.6638 39.2606 88.4783 39.1333 88.2716 39.0517L87.3904 38.7133C87.3198 38.6833 87.243 38.6705 87.1665 38.6761C87.0899 38.6817 87.0158 38.7054 86.9503 38.7454C86.8847 38.7854 86.8297 38.8404 86.7897 38.9059C86.7497 38.9714 86.7259 39.0455 86.7203 39.1221Z" fill="#EF4040"/>
<path d="M100.326 39.1221L100.292 39.5409C100.286 39.658 100.311 39.7747 100.363 39.8793C100.416 39.984 100.496 40.0729 100.594 40.1372C100.733 40.2235 100.834 40.3597 100.876 40.518C100.917 40.6763 100.897 40.8446 100.818 40.9882C100.326 41.9106 99.7834 42.8054 99.1934 43.6686L100.416 43.8864C101.198 43.0732 101.91 42.1957 102.544 41.263C102.67 41.0804 102.754 40.8715 102.789 40.652C102.823 40.4325 102.808 40.208 102.743 39.9954C102.679 39.7827 102.567 39.5874 102.417 39.424C102.266 39.2606 102.08 39.1333 101.874 39.0517L100.979 38.6965C100.908 38.6687 100.832 38.6583 100.756 38.6661C100.68 38.6738 100.607 38.6996 100.543 38.7412C100.479 38.7828 100.426 38.8391 100.388 38.9053C100.351 38.9716 100.329 39.0459 100.326 39.1221Z" fill="#EF4040"/>
<path d="M21.9472 0.766331H16.9785V10.3218H21.7395C21.7395 10.3218 27.1773 10.3218 27.1773 5.44354C27.1773 5.44354 27.1773 0.75293 21.9472 0.75293V0.766331ZM24.6778 5.49715C24.6778 8.69347 21.1465 8.72362 21.1465 8.72362H19.2267V2.28073H21.2872C24.8152 2.28073 24.6778 5.51055 24.6778 5.51055" fill="#414142"/>
<path d="M36.5037 10.3216H38.9328L36.3262 2.31066C35.7935 0.76611 34.1182 0.76611 34.1182 0.76611C33.6732 0.711427 33.2231 0.711427 32.7781 0.76611C32.7781 0.76611 31.0794 0.76611 30.5567 2.31066L27.9199 10.3216H30.3188L31.1363 7.71827H35.6996L36.5037 10.3216ZM31.6121 6.19047L32.6373 2.91374C32.6855 2.74105 32.7888 2.58886 32.9316 2.48044C33.0744 2.37202 33.2488 2.31333 33.428 2.31333C33.6073 2.31333 33.7817 2.37202 33.9245 2.48044C34.0672 2.58886 34.1706 2.74105 34.2187 2.91374L35.2239 6.19047H31.6121Z" fill="#414142"/>
<path d="M49.7156 4.29395H44.834V5.82175H49.7156V4.29395Z" fill="#414142"/>
<path d="M43.0501 0.722656H40.7383V10.3217H43.0501V0.722656Z" fill="#414142"/>
<path d="M53.8972 0.722656H51.582V10.3217H53.8972V0.722656Z" fill="#414142"/>
<path d="M79.0412 0.722656H76.7227V10.3217H79.0412V0.722656Z" fill="#414142"/>
<path d="M96.2063 0.766113H93.8945V10.3216H96.2063V0.766113Z" fill="#414142"/>
<path d="M72.6047 0.722656V4.29422H68.1419V0.722656H65.8301V10.3217H68.1419V5.82202H72.6047V10.3217H74.9232V0.722656H72.6047Z" fill="#414142"/>
<path d="M92.3392 8.6899H87.6921C87.5232 8.69256 87.3553 8.66191 87.1982 8.5997C87.0411 8.53749 86.8978 8.44494 86.7765 8.32734C86.6551 8.20973 86.5581 8.06937 86.491 7.91428C86.424 7.75919 86.3881 7.5924 86.3855 7.42344V0.766113H84.0703V7.29277C84.0703 10.3082 86.811 10.3082 86.811 10.3082H92.3258V8.6899" fill="#414142"/>
<path d="M101.726 2.34762H106.38V0.722656H100.865C100.865 0.722656 98.1113 0.722656 98.1113 3.73805V10.3049H100.457V6.50216H106.082V4.97436H100.457V3.63419C100.457 3.46539 100.49 3.29825 100.555 3.14235C100.619 2.98644 100.714 2.84483 100.834 2.72563C100.953 2.60643 101.095 2.51198 101.251 2.44769C101.407 2.38339 101.574 2.35053 101.743 2.35097" fill="#414142"/>
<path d="M111.407 8.68994C111.069 8.69173 110.743 8.55962 110.501 8.32239C110.26 8.08517 110.122 7.76205 110.117 7.42347V6.16035H115.689V4.63255H110.117V3.62742C110.119 3.46116 110.153 3.29684 110.219 3.14424C110.285 2.99164 110.381 2.85388 110.502 2.73915C110.622 2.62443 110.764 2.53509 110.92 2.47645C111.075 2.41781 111.241 2.39107 111.407 2.39781H116.054V0.766148H110.539C110.539 0.766148 107.799 0.722592 107.799 3.73799V7.2928C107.799 10.3082 110.539 10.3082 110.539 10.3082H116.071L116.034 8.68659H111.407" fill="#414142"/>
<path d="M64.1989 0.756348H60.8685C57.9067 0.756348 55.5078 2.89728 55.5078 5.53742C55.5078 8.17757 57.9101 10.3219 60.8685 10.3219H64.219V8.70694H61.2036C60.3732 8.68145 59.5842 8.33862 58.999 7.74903C58.4138 7.15943 58.0768 6.36793 58.0575 5.53742C58.0768 4.70692 58.4138 3.91541 58.999 3.32582C59.5842 2.73623 60.3732 2.3934 61.2036 2.36791H64.219V0.756348" fill="#414142"/>
</svg>
