<svg width="289" height="294" viewBox="0 0 289 294" fill="none" xmlns="http://www.w3.org/2000/svg">
<g clip-path="url(#clip0_15398_40418)">
<path d="M264.866 294H23.8094C17.5012 293.945 11.4729 291.387 7.05056 286.888C2.62819 282.389 0.173881 276.318 0.22742 270.01V122.95H288.447V270.01C288.501 276.318 286.047 282.389 281.625 286.888C277.203 291.387 271.175 293.945 264.866 294V294Z" fill="url(#paint0_linear_15398_40418)"/>
<path d="M133.464 35.941L0.228516 122.949H288.447L160.211 35.941C156.484 32.7525 151.741 31.0002 146.837 31.0002C141.933 31.0002 137.19 32.7525 133.464 35.941V35.941Z" fill="#CC4D35"/>
<path d="M0.226562 134.031L145.457 207.4L288.574 134.032" stroke="white" stroke-opacity="0.84" stroke-dasharray="4 4"/>
<path opacity="0.996" d="M145.994 197.912L0.228516 122.949H288.449L145.994 197.912Z" fill="#CC4D35"/>
<path d="M264.866 293.999H23.8094C17.5012 293.944 11.4729 291.386 7.05056 286.887C2.62819 282.388 0.173881 276.317 0.22742 270.009L145.846 197.585L270.205 260.742L288.447 270.007C288.502 276.315 286.048 282.387 281.626 286.887C277.203 291.386 271.175 293.944 264.866 293.999Z" fill="#CE3929"/>
<path d="M196.366 229.856C196.373 229.763 195.655 229.683 195.501 229.645C195.488 229.643 195.476 229.639 195.464 229.632C193.782 228.987 148.455 225 148.455 225C148.455 225 103.142 228.987 101.47 229.632C101.455 229.638 101.438 229.642 101.421 229.645C101.269 229.682 100.547 229.762 100.551 229.856C97.867 230.614 95.5036 232.228 93.8205 234.452C92.1374 236.677 91.2266 239.39 91.2266 242.179C91.2266 244.968 92.1374 247.681 93.8205 249.906C95.5036 252.13 97.867 253.744 100.551 254.502C100.551 254.596 101.269 254.684 101.421 254.702C101.437 254.709 101.454 254.714 101.47 254.719C103.142 255.368 148.455 259.337 148.455 259.337C148.455 259.337 193.782 255.368 195.464 254.719C195.474 254.712 195.488 254.711 195.501 254.702C195.655 254.679 196.372 254.591 196.366 254.502C199.054 253.747 201.421 252.134 203.106 249.91C204.792 247.685 205.705 244.97 205.705 242.179C205.705 239.388 204.792 236.673 203.106 234.448C201.421 232.224 199.054 230.611 196.366 229.856" fill="white"/>
<path d="M106.093 237.722H101.371L101.361 246.807H105.894C105.894 246.807 111.065 246.797 111.065 242.169C111.065 242.169 111.065 237.722 106.093 237.722V237.722ZM108.693 242.232C108.693 245.272 105.336 245.301 105.336 245.301H103.506V239.165H105.465C105.885 239.126 106.309 239.177 106.707 239.315C107.106 239.454 107.47 239.676 107.775 239.967C108.081 240.258 108.32 240.611 108.478 241.002C108.635 241.393 108.707 241.814 108.688 242.235" fill="#E50019"/>
<path d="M119.932 246.807H122.241L119.761 239.191C119.596 238.764 119.307 238.396 118.93 238.134C118.554 237.872 118.109 237.729 117.65 237.722C117.223 237.67 116.792 237.67 116.364 237.722C115.906 237.728 115.46 237.872 115.084 238.134C114.708 238.395 114.418 238.763 114.252 239.191L111.773 246.807H114.054L114.831 244.334H119.169L119.933 246.807H119.932ZM115.282 242.881L116.258 239.765C116.306 239.602 116.404 239.46 116.539 239.358C116.675 239.257 116.839 239.202 117.008 239.202C117.178 239.202 117.342 239.257 117.477 239.358C117.613 239.46 117.711 239.602 117.758 239.765L118.717 242.881H115.282Z" fill="#E50019"/>
<path d="M132.489 241.077H127.848V242.528H132.489V241.077Z" fill="#E50019"/>
<path d="M126.158 237.683H123.959V246.806H126.158V237.683Z" fill="#E50019"/>
<path d="M136.462 237.683H134.262V246.806H136.462V237.683Z" fill="#E50019"/>
<path d="M160.366 237.683H158.162V246.806H160.366V237.683Z" fill="#E50019"/>
<path d="M176.681 237.722H174.484V246.807H176.681V237.722Z" fill="#E50019"/>
<path d="M154.248 237.683V241.077H150.007V237.683H147.807V246.806H150.007V242.526H154.248V246.804H156.448V237.683H154.248Z" fill="#E50019"/>
<path d="M173.007 245.257H168.59C168.429 245.258 168.27 245.227 168.121 245.166C167.972 245.105 167.836 245.015 167.722 244.902C167.608 244.788 167.517 244.653 167.455 244.505C167.393 244.356 167.36 244.197 167.36 244.036V237.722H165.16V243.929C165.129 244.291 165.173 244.656 165.289 245.001C165.406 245.346 165.592 245.663 165.837 245.932C166.082 246.201 166.379 246.417 166.711 246.566C167.043 246.715 167.402 246.793 167.766 246.797H173.007V245.257" fill="#E50019"/>
<path d="M181.93 239.228H186.352V237.683H181.114C180.75 237.687 180.39 237.766 180.058 237.915C179.725 238.064 179.428 238.28 179.183 238.55C178.938 238.82 178.751 239.137 178.635 239.482C178.518 239.828 178.475 240.193 178.506 240.556V246.798H180.706V243.177H186.055V241.728H180.706V240.446C180.706 240.286 180.738 240.127 180.8 239.979C180.861 239.831 180.951 239.696 181.065 239.583C181.179 239.47 181.314 239.381 181.462 239.32C181.611 239.259 181.77 239.228 181.93 239.229" fill="#E50019"/>
<path d="M191.131 245.257C190.97 245.258 190.811 245.227 190.662 245.165C190.513 245.104 190.378 245.015 190.264 244.901C190.15 244.788 190.059 244.653 189.998 244.504C189.936 244.356 189.904 244.197 189.904 244.036V242.853H195.204V241.398H189.904V240.445C189.903 240.286 189.935 240.128 189.997 239.982C190.059 239.835 190.151 239.703 190.265 239.592C190.38 239.482 190.516 239.396 190.664 239.339C190.813 239.283 190.972 239.257 191.131 239.263H195.549V237.722H190.306C189.944 237.72 189.585 237.795 189.254 237.94C188.922 238.085 188.624 238.297 188.379 238.564C188.135 238.831 187.948 239.146 187.832 239.489C187.716 239.832 187.673 240.195 187.706 240.556V243.929C187.674 244.291 187.718 244.656 187.834 245C187.95 245.344 188.136 245.661 188.38 245.93C188.624 246.199 188.921 246.415 189.253 246.565C189.584 246.714 189.942 246.793 190.306 246.797H195.566L195.53 245.257H191.13" fill="#E50019"/>
<path d="M146.254 237.713H143.09C142.449 237.639 141.8 237.702 141.185 237.897C140.57 238.092 140.003 238.414 139.521 238.844C139.04 239.273 138.654 239.799 138.391 240.388C138.127 240.977 137.99 241.615 137.99 242.26C137.99 242.905 138.127 243.543 138.391 244.132C138.654 244.721 139.04 245.247 139.521 245.677C140.003 246.106 140.57 246.429 141.185 246.623C141.8 246.818 142.449 246.881 143.09 246.807H146.271V245.272H143.395C142.606 245.258 141.854 244.934 141.3 244.371C140.747 243.807 140.437 243.049 140.437 242.26C140.437 241.47 140.747 240.712 141.3 240.149C141.854 239.585 142.606 239.261 143.395 239.247H146.254V237.713" fill="#E50019"/>
<path d="M118.035 272.471C117.225 272.767 116.371 272.919 115.509 272.92C114.95 272.974 114.386 272.905 113.857 272.717C113.328 272.53 112.846 272.228 112.446 271.835C112.046 271.441 111.736 270.965 111.54 270.439C111.344 269.913 111.265 269.351 111.309 268.791C111.289 268.213 111.392 267.637 111.61 267.101C111.829 266.565 112.159 266.082 112.577 265.683C112.996 265.283 113.495 264.977 114.04 264.785C114.586 264.592 115.166 264.517 115.743 264.564C116.445 264.548 117.143 264.677 117.794 264.942L117.529 265.803C116.96 265.55 116.34 265.43 115.718 265.452C115.277 265.417 114.834 265.479 114.419 265.632C114.004 265.785 113.627 266.027 113.314 266.34C113.002 266.653 112.76 267.03 112.608 267.445C112.455 267.86 112.394 268.303 112.429 268.744C112.383 269.176 112.432 269.613 112.573 270.024C112.713 270.436 112.942 270.811 113.242 271.126C113.542 271.44 113.908 271.684 114.312 271.843C114.717 272.002 115.151 272.07 115.585 272.044C116.064 272.071 116.543 271.997 116.991 271.826V269.387H115.343V268.537H118.043V272.471" fill="white"/>
<path d="M123.742 271.427C123.736 271.898 123.765 272.368 123.829 272.835H122.868L122.768 272.092H122.729C122.522 272.372 122.251 272.597 121.939 272.75C121.627 272.903 121.282 272.978 120.935 272.969C120.703 272.986 120.471 272.956 120.252 272.878C120.033 272.801 119.833 272.68 119.664 272.521C119.494 272.362 119.36 272.17 119.269 271.956C119.178 271.743 119.132 271.513 119.135 271.281C119.135 269.86 120.399 269.081 122.667 269.093V268.972C122.691 268.79 122.674 268.604 122.616 268.43C122.557 268.256 122.46 268.097 122.331 267.966C122.202 267.835 122.045 267.735 121.872 267.674C121.698 267.613 121.513 267.593 121.331 267.614C120.785 267.609 120.25 267.76 119.788 268.05L119.546 267.336C120.135 266.994 120.806 266.817 121.487 266.824C123.298 266.824 123.737 268.05 123.737 269.224V271.424L123.742 271.427ZM122.696 269.837C121.53 269.813 120.209 270.022 120.209 271.16C120.196 271.295 120.213 271.431 120.258 271.559C120.303 271.687 120.375 271.804 120.47 271.901C120.565 271.998 120.679 272.073 120.806 272.122C120.933 272.17 121.069 272.19 121.204 272.181C121.518 272.191 121.827 272.101 122.086 271.925C122.346 271.748 122.542 271.494 122.648 271.198C122.682 271.088 122.699 270.973 122.696 270.858V269.837ZM121.01 265.237C121.031 265.388 121.094 265.53 121.192 265.647C121.245 265.702 121.31 265.745 121.381 265.775C121.452 265.804 121.528 265.818 121.605 265.817C121.683 265.819 121.76 265.805 121.833 265.777C121.906 265.749 121.972 265.707 122.029 265.653C122.085 265.599 122.13 265.535 122.161 265.463C122.193 265.392 122.209 265.315 122.211 265.237H122.635C122.641 265.373 122.618 265.508 122.568 265.634C122.518 265.761 122.442 265.875 122.344 265.97C122.247 266.064 122.13 266.137 122.002 266.183C121.874 266.229 121.738 266.247 121.603 266.237C121.467 266.25 121.33 266.232 121.201 266.187C121.073 266.141 120.956 266.067 120.859 265.971C120.761 265.876 120.686 265.76 120.639 265.632C120.591 265.504 120.572 265.367 120.583 265.231L121.01 265.237Z" fill="white"/>
<path d="M122.552 263.482L121.519 264.7H120.998L121.74 263.482H122.552Z" fill="white"/>
<path d="M125.452 268.548C125.452 267.927 125.442 267.448 125.404 266.958H126.35L126.412 267.917H126.435C126.631 267.577 126.915 267.295 127.257 267.103C127.6 266.911 127.988 266.815 128.38 266.825C129.191 266.825 130.455 267.311 130.455 269.325V272.835H129.39V269.447C129.39 268.502 129.038 267.697 128.029 267.697C127.706 267.706 127.394 267.817 127.137 268.013C126.881 268.21 126.692 268.482 126.598 268.791C126.546 268.952 126.521 269.121 126.525 269.291V272.838H125.455V268.55" fill="white"/>
<path d="M134.766 264.215H135.835V267.895H135.859C136.062 267.551 136.356 267.268 136.709 267.08C137.061 266.891 137.459 266.802 137.859 266.824C139.318 266.824 140.336 268.038 140.336 269.812C140.336 271.925 139.001 272.97 137.689 272.97C137.29 272.991 136.893 272.898 136.545 272.703C136.197 272.507 135.911 272.217 135.722 271.865H135.7L135.636 272.836H134.719C134.755 272.436 134.767 271.836 134.767 271.317V264.217L134.766 264.215ZM135.836 270.483C135.829 270.613 135.841 270.743 135.873 270.869C135.961 271.227 136.166 271.545 136.456 271.772C136.746 271.999 137.104 272.123 137.473 272.122C138.602 272.122 139.26 271.211 139.26 269.864C139.26 268.672 138.653 267.664 137.511 267.664C137.134 267.674 136.772 267.808 136.48 268.046C136.188 268.283 135.983 268.611 135.898 268.978C135.856 269.124 135.835 269.275 135.836 269.427V270.483Z" fill="white"/>
<path d="M144.069 272.969C143.68 272.973 143.294 272.896 142.937 272.743C142.579 272.59 142.257 272.363 141.992 272.079C141.727 271.794 141.524 271.458 141.396 271.09C141.268 270.723 141.218 270.333 141.249 269.945C141.214 269.544 141.265 269.14 141.396 268.76C141.528 268.379 141.738 268.03 142.013 267.736C142.288 267.442 142.621 267.209 142.992 267.052C143.363 266.895 143.762 266.817 144.165 266.824C144.554 266.816 144.941 266.89 145.3 267.04C145.659 267.191 145.982 267.416 146.249 267.7C146.515 267.984 146.719 268.321 146.847 268.689C146.975 269.056 147.025 269.447 146.992 269.835C147.027 270.237 146.978 270.641 146.848 271.023C146.717 271.404 146.508 271.754 146.233 272.049C145.959 272.345 145.625 272.579 145.255 272.738C144.884 272.896 144.484 272.975 144.081 272.969H144.069V272.969ZM144.101 272.169C145.126 272.169 145.89 271.21 145.89 269.874C145.89 268.88 145.39 267.628 144.128 267.628C142.866 267.628 142.328 268.792 142.328 269.908C142.328 271.197 143.059 272.168 144.088 272.168L144.101 272.169Z" fill="white"/>
<path d="M145.682 265.029L144.65 266.242H144.125L144.864 265.029H145.682Z" fill="white"/>
<path d="M155.991 264.215V271.315C155.991 271.839 156.004 272.434 156.04 272.834H155.081L155.031 271.815H155.005C154.817 272.176 154.53 272.476 154.178 272.68C153.826 272.884 153.423 272.985 153.016 272.969C151.595 272.969 150.488 271.763 150.488 269.981C150.479 268.015 151.703 266.824 153.124 266.824C153.472 266.8 153.819 266.87 154.131 267.026C154.442 267.181 154.707 267.417 154.896 267.709H154.92V264.215H155.991V264.215ZM154.92 269.349C154.924 269.194 154.908 269.04 154.872 268.889C154.794 268.54 154.598 268.227 154.318 268.004C154.038 267.78 153.691 267.659 153.332 267.66C152.232 267.66 151.569 268.632 151.569 269.918C151.569 271.124 152.163 272.108 153.306 272.108C153.673 272.104 154.028 271.976 154.313 271.744C154.597 271.512 154.794 271.19 154.871 270.831C154.908 270.68 154.924 270.525 154.919 270.37L154.92 269.349Z" fill="white"/>
<path d="M161.908 271.427C161.902 271.898 161.93 272.368 161.99 272.835H161.031L160.936 272.092H160.895C160.688 272.372 160.416 272.598 160.103 272.751C159.789 272.904 159.443 272.979 159.095 272.969C158.864 272.986 158.631 272.955 158.413 272.878C158.194 272.801 157.994 272.679 157.824 272.52C157.655 272.361 157.521 272.169 157.43 271.956C157.339 271.743 157.293 271.513 157.295 271.281C157.295 269.86 158.558 269.081 160.83 269.093V268.973C160.854 268.791 160.837 268.605 160.779 268.431C160.721 268.257 160.623 268.098 160.494 267.967C160.366 267.836 160.208 267.736 160.035 267.674C159.862 267.613 159.677 267.593 159.494 267.614C158.949 267.608 158.414 267.76 157.953 268.05L157.706 267.336C158.297 266.994 158.968 266.817 159.651 266.824C161.461 266.824 161.901 268.05 161.901 269.224V271.424L161.908 271.427ZM160.854 269.832C159.69 269.809 158.366 270.017 158.366 271.155C158.353 271.29 158.37 271.427 158.415 271.556C158.46 271.684 158.533 271.801 158.628 271.898C158.724 271.995 158.839 272.071 158.966 272.119C159.094 272.167 159.23 272.186 159.366 272.176C159.68 272.185 159.988 272.095 160.248 271.919C160.507 271.742 160.704 271.488 160.811 271.193C160.844 271.083 160.86 270.968 160.858 270.853L160.854 269.832Z" fill="white"/>
<path d="M159.43 265.029L160.184 266.242H159.659L158.617 265.029H159.43Z" fill="white"/>
<path d="M164.133 265.877C163.951 265.874 163.778 265.799 163.652 265.668C163.525 265.537 163.456 265.361 163.459 265.179C163.462 264.997 163.538 264.824 163.669 264.698C163.799 264.571 163.975 264.502 164.157 264.505C164.247 264.502 164.337 264.517 164.421 264.55C164.505 264.583 164.581 264.633 164.644 264.697C164.708 264.76 164.758 264.837 164.791 264.92C164.824 265.004 164.839 265.094 164.836 265.184C164.84 265.276 164.824 265.368 164.791 265.453C164.757 265.539 164.706 265.616 164.641 265.682C164.576 265.747 164.499 265.798 164.413 265.831C164.328 265.865 164.236 265.88 164.144 265.877H164.133ZM163.622 266.958H164.69V272.835H163.622V266.958Z" fill="white"/>
<path d="M184.916 273C184.731 272.998 184.554 272.923 184.424 272.792C184.294 272.66 184.222 272.482 184.223 272.297C184.224 272.112 184.298 271.935 184.429 271.804C184.56 271.673 184.738 271.6 184.923 271.6C185.108 271.6 185.285 271.673 185.416 271.804C185.548 271.935 185.622 272.112 185.623 272.297C185.624 272.482 185.551 272.66 185.421 272.792C185.291 272.923 185.114 272.998 184.929 273H184.916Z" fill="white"/>
<path d="M170.101 264.215H169.033V272.836H170.101V264.215Z" fill="white"/>
<path d="M176.014 271.423C176.01 271.894 176.039 272.365 176.101 272.832H175.141L175.041 272.089H175.002C174.795 272.369 174.524 272.596 174.21 272.749C173.897 272.902 173.551 272.976 173.202 272.967C172.971 272.984 172.739 272.953 172.52 272.876C172.301 272.799 172.101 272.677 171.932 272.518C171.763 272.359 171.628 272.167 171.537 271.954C171.446 271.741 171.4 271.511 171.402 271.279C171.402 269.859 172.666 269.079 174.938 269.091V268.97C174.962 268.788 174.945 268.602 174.886 268.428C174.828 268.253 174.73 268.095 174.601 267.964C174.472 267.833 174.315 267.733 174.142 267.672C173.968 267.61 173.783 267.59 173.6 267.611C173.056 267.605 172.521 267.757 172.059 268.047L171.816 267.333C172.406 266.99 173.078 266.813 173.76 266.821C175.567 266.821 176.003 268.047 176.003 269.221V271.421L176.014 271.423ZM174.958 269.829C173.794 269.806 172.469 270.014 172.469 271.152C172.457 271.287 172.474 271.424 172.519 271.552C172.565 271.68 172.637 271.797 172.733 271.894C172.828 271.992 172.943 272.067 173.07 272.115C173.198 272.163 173.334 272.183 173.469 272.173C173.783 272.183 174.092 272.093 174.352 271.917C174.612 271.74 174.809 271.486 174.914 271.19C174.949 271.08 174.965 270.965 174.961 270.85L174.958 269.829ZM174.098 265.023L174.911 266.236H174.365L173.865 265.436H173.854L173.354 266.236H172.807L173.607 265.023H174.098Z" fill="white"/>
<path d="M182.645 271.235C182.645 271.84 182.655 272.373 182.694 272.835H181.747L181.685 271.876H181.66C181.464 272.215 181.18 272.496 180.839 272.688C180.497 272.88 180.11 272.977 179.718 272.969C178.797 272.969 177.689 272.447 177.689 270.394V266.957H178.76V270.199C178.76 271.316 179.11 272.081 180.07 272.081C180.376 272.076 180.674 271.98 180.925 271.804C181.175 271.629 181.368 271.383 181.477 271.097C181.548 270.924 181.582 270.738 181.577 270.552V266.952H182.644V271.229" fill="white"/>
<path d="M8.56132 224.43C6.60217 215.873 11.1097 206.041 13.4345 201.736C14.3024 200.05 14.7326 198.173 14.6855 196.277C15.4705 198.002 16.6758 199.503 18.191 200.641C22.1598 203.503 30.5019 210.394 32.4622 218.948C34.4644 227.684 32.255 232.76 27.5884 234.639C27.1616 234.813 26.6872 234.83 26.2488 234.689C25.8103 234.547 25.4356 234.256 25.1906 233.866C24.9767 233.522 24.6612 233.255 24.288 233.099C23.9148 232.944 23.5025 232.909 23.1084 232.999C22.7143 233.089 22.358 233.299 22.0892 233.601C21.8204 233.903 21.6523 234.281 21.6085 234.683C21.5582 235.142 21.3479 235.568 21.0144 235.887C20.681 236.206 20.2458 236.397 19.7854 236.427C18.5048 236.527 17.2185 236.332 16.0248 235.858C12.7078 234.524 10.0379 230.871 8.56132 224.43ZM-17.8153 220.402C-18.1127 220.05 -18.2763 219.604 -18.2775 219.143C-18.2787 218.682 -18.1174 218.236 -17.8218 217.882C-17.561 217.572 -17.4034 217.189 -17.371 216.785C-17.3385 216.382 -17.4329 215.978 -17.6409 215.631C-17.8489 215.283 -18.1602 215.01 -18.5312 214.848C-18.9023 214.686 -19.3147 214.644 -19.7108 214.728C-20.1612 214.82 -20.6299 214.751 -21.0347 214.533C-21.4395 214.315 -21.7546 213.961 -21.925 213.534C-23.8019 208.866 -21.6688 203.757 -13.978 199.153C-6.44909 194.645 4.29989 195.894 9.11287 196.776C10.9838 197.08 12.9011 196.91 14.6888 196.28C13.041 195.343 11.1843 194.836 9.28925 194.804C4.39498 194.82 -6.40763 194.148 -13.0176 188.38C-19.7738 182.49 -20.973 177.084 -18.3017 172.821C-18.0583 172.43 -17.6848 172.136 -17.2468 171.993C-16.8088 171.85 -16.3343 171.865 -15.9066 172.037C-15.5315 172.189 -15.1182 172.22 -14.7245 172.126C-14.3308 172.032 -13.9763 171.817 -13.7105 171.512C-13.4447 171.207 -13.2807 170.826 -13.2416 170.423C-13.2025 170.02 -13.2901 169.615 -13.4922 169.265C-13.7205 168.864 -13.8004 168.396 -13.718 167.943C-13.6356 167.489 -13.396 167.079 -13.0415 166.785C-9.18249 163.558 -3.6633 164.008 3.0916 169.899C9.70469 175.667 11.8393 186.275 12.4886 191.125C12.7781 192.998 13.533 194.769 14.684 196.276C13.2842 197.554 12.2278 199.164 11.6118 200.956C10.1166 205.616 6.14028 215.679 -1.38862 220.187C-6.89611 223.485 -11.2857 224.147 -14.5191 222.841C-15.8034 222.314 -16.9362 221.476 -17.8153 220.402V220.402ZM19.4912 199.153C18.1557 197.807 16.5037 196.818 14.6868 196.277C16.5712 196.065 18.3722 195.383 19.9247 194.294C23.8723 191.406 33.0038 185.601 41.7485 186.381C50.6757 187.176 54.8207 190.846 55.1645 195.865C55.1984 196.324 55.0693 196.781 54.7999 197.155C54.5306 197.529 54.1381 197.796 53.6915 197.909C53.2983 198.006 52.9453 198.224 52.6817 198.531C52.4182 198.838 52.2572 199.221 52.2213 199.624C52.1854 200.027 52.2764 200.432 52.4816 200.781C52.6868 201.13 52.9959 201.407 53.3657 201.572C53.7863 201.762 54.1264 202.094 54.326 202.51C54.5257 202.926 54.5721 203.399 54.4572 203.846C53.2316 208.724 48.5027 211.603 39.5742 210.809C37.5055 210.603 35.4786 210.094 33.5588 209.296C27.3212 206.772 22.0689 201.86 19.4912 199.153ZM14.4197 190.683C12.8919 186.034 10.1935 175.557 13.6342 167.484C17.1516 159.237 21.9237 156.432 26.8016 157.656C27.2491 157.766 27.6433 158.031 27.915 158.403C28.1866 158.775 28.3184 159.232 28.2872 159.691C28.2581 160.095 28.3559 160.498 28.5668 160.844C28.7778 161.189 29.0913 161.46 29.4638 161.619C29.8362 161.778 30.2489 161.816 30.6443 161.729C31.0397 161.642 31.398 161.434 31.6693 161.133C31.9794 160.792 32.3997 160.572 32.8565 160.51C33.3133 160.448 33.7772 160.549 34.1668 160.795C38.4287 163.469 39.706 168.857 36.1897 177.102C32.7484 185.173 23.3184 190.481 18.9067 192.596C17.2142 193.451 15.7632 194.716 14.6868 196.277C15.0674 194.42 14.9757 192.497 14.4202 190.685L14.4197 190.683Z" fill="#B9261D"/>
<path d="M21.293 179.726L14.3047 196.115L15.0341 196.426L22.0224 180.037L21.293 179.726Z" fill="#FEB1AB"/>
<path d="M22.6642 180.309C22.5793 180.508 22.4375 180.677 22.2566 180.795C22.0756 180.914 21.8632 180.975 21.6471 180.973C21.4309 180.971 21.2204 180.905 21.042 180.783C20.8635 180.661 20.7253 180.489 20.6447 180.288C20.5641 180.087 20.5444 179.868 20.5888 179.656C20.6332 179.445 20.7398 179.251 20.8942 179.1C21.0486 178.948 21.2443 178.846 21.4567 178.806C21.6692 178.766 21.8884 178.79 22.0872 178.875C22.2193 178.931 22.3392 179.013 22.4396 179.116C22.5401 179.218 22.6194 179.34 22.673 179.473C22.7265 179.606 22.7531 179.749 22.7516 179.892C22.7501 180.036 22.7205 180.177 22.6642 180.309V180.309Z" fill="#FEB1AB"/>
<path d="M15.9903 185.012C15.9238 185.168 15.8126 185.301 15.6707 185.394C15.5288 185.486 15.3626 185.535 15.1931 185.533C15.0236 185.531 14.8584 185.479 14.7185 185.383C14.5785 185.288 14.4701 185.153 14.4069 184.996C14.3437 184.838 14.3285 184.666 14.3634 184.5C14.3982 184.334 14.4812 184.182 14.6024 184.064C14.7235 183.945 14.8772 183.865 15.0438 183.834C15.2105 183.802 15.3827 183.821 15.5386 183.888C15.7475 183.977 15.9124 184.146 15.9971 184.356C16.0818 184.567 16.0793 184.803 15.9903 185.012V185.012Z" fill="#FEB1AB"/>
<path d="M15.5978 184.693L14.8066 184.657L14.2757 196.252L15.0668 196.288L15.5978 184.693Z" fill="#FEB1AB"/>
<path d="M21.8804 187.524C21.814 187.68 21.7951 187.852 21.8266 188.019C21.858 188.185 21.9383 188.339 22.057 188.46C22.1756 188.581 22.3275 188.664 22.4934 188.699C22.6593 188.734 22.8316 188.718 22.9889 188.655C23.1461 188.591 23.2809 188.483 23.3765 188.343C23.472 188.203 23.5239 188.038 23.5256 187.868C23.5273 187.699 23.4789 187.533 23.3861 187.391C23.2934 187.249 23.1608 187.138 23.0049 187.072C22.9013 187.028 22.7897 187.004 22.6771 187.003C22.5646 187.002 22.4533 187.023 22.3489 187.065C22.2445 187.107 22.1493 187.169 22.0689 187.248C21.9885 187.327 21.9245 187.421 21.8804 187.524V187.524Z" fill="#FEB1AB"/>
<path d="M22.3838 187.587L14.3848 195.998L14.9587 196.543L22.9576 188.133L22.3838 187.587Z" fill="#FEB1AB"/>
<path d="M1.50167 184.261L0.980469 184.859L14.4093 196.57L14.9305 195.972L1.50167 184.261Z" fill="#FEB1AB"/>
<path d="M1.96009 183.735C2.12327 183.877 2.24038 184.065 2.29707 184.274C2.35375 184.483 2.34746 184.704 2.27855 184.909C2.20963 185.114 2.08127 185.294 1.90998 185.426C1.7387 185.558 1.53184 185.637 1.31593 185.652C1.10003 185.666 0.885042 185.617 0.697319 185.509C0.509597 185.401 0.357768 185.241 0.261519 185.047C0.165269 184.853 0.128387 184.635 0.156063 184.42C0.183738 184.206 0.27467 184.004 0.416939 183.841C0.607591 183.623 0.877312 183.489 1.16664 183.469C1.45596 183.449 1.74142 183.545 1.96009 183.735V183.735Z" fill="#FEB1AB"/>
<path d="M4.37072 191.536C4.49851 191.648 4.59046 191.794 4.63484 191.958C4.67922 192.121 4.67377 192.295 4.61979 192.455C4.56581 192.616 4.46537 192.757 4.33123 192.861C4.19708 192.964 4.03556 193.026 3.86646 193.037C3.69737 193.049 3.52863 193.01 3.38157 192.926C3.23452 192.842 3.11572 192.716 3.04027 192.564C2.96482 192.412 2.93614 192.241 2.95773 192.073C2.97932 191.905 3.04998 191.747 3.16133 191.619C3.3108 191.448 3.52212 191.343 3.7488 191.328C3.97549 191.312 4.19925 191.387 4.37072 191.536V191.536Z" fill="#FEB1AB"/>
<path d="M14.8103 195.899L3.94727 191.811L3.66792 192.553L14.5309 196.641L14.8103 195.899Z" fill="#FEB1AB"/>
<path d="M8.5808 186.711C8.70859 186.822 8.86643 186.893 9.03454 186.915C9.20266 186.936 9.37322 186.907 9.525 186.832C9.67678 186.757 9.80296 186.638 9.88724 186.491C9.97152 186.344 10.0104 186.175 9.99882 186.006C9.9872 185.837 9.9255 185.675 9.8219 185.541C9.71829 185.406 9.57708 185.306 9.41641 185.252C9.25574 185.199 9.08307 185.193 8.91949 185.238C8.75591 185.282 8.60876 185.374 8.4974 185.502C8.42346 185.586 8.36713 185.685 8.33128 185.791C8.29544 185.898 8.28107 186.011 8.28879 186.123C8.2965 186.236 8.32625 186.346 8.37634 186.446C8.42644 186.547 8.49595 186.637 8.5808 186.711V186.711Z" fill="#FEB1AB"/>
<path d="M9.49232 185.876L8.79492 186.253L14.3226 196.461L15.02 196.083L9.49232 185.876Z" fill="#FEB1AB"/>
<path d="M14.4605 195.938L-0.820312 205.079L-0.413955 205.759L14.8669 196.617L14.4605 195.938Z" fill="#FEB1AB"/>
<path d="M-1.17822 204.487C-0.992741 204.376 -0.778508 204.323 -0.562663 204.333C-0.346818 204.344 -0.138736 204.419 0.0347576 204.548C0.208251 204.677 0.339668 204.854 0.412363 205.057C0.485058 205.261 0.495402 205.482 0.442809 205.691C0.390216 205.901 0.276843 206.09 0.11668 206.235C-0.0434829 206.38 -0.243077 206.475 -0.456854 206.506C-0.670632 206.538 -0.889062 206.506 -1.08444 206.413C-1.27981 206.321 -1.44321 206.173 -1.55436 205.988C-1.70332 205.739 -1.74739 205.441 -1.6768 205.159C-1.60622 204.878 -1.42702 204.636 -1.17822 204.487Z" fill="#FEB1AB"/>
<path d="M6.98571 204.604C7.13111 204.516 7.29919 204.474 7.46851 204.483C7.63783 204.491 7.80073 204.549 7.93688 204.65C8.07304 204.751 8.17591 204.891 8.23299 205.05C8.29008 205.21 8.2988 205.383 8.25756 205.547C8.21633 205.712 8.12703 205.86 8.00139 205.974C7.87574 206.088 7.71925 206.162 7.55155 206.187C7.38385 206.212 7.21258 206.186 7.05937 206.113C6.90615 206.041 6.77801 205.924 6.69094 205.779C6.57453 205.584 6.54012 205.351 6.59536 205.131C6.6506 204.91 6.79106 204.721 6.98571 204.604Z" fill="#FEB1AB"/>
<path d="M14.3607 196.021L7.11914 205.092L7.73888 205.587L14.9804 196.516L14.3607 196.021Z" fill="#FEB1AB"/>
<path d="M3.69707 199.108C3.84253 199.021 3.95892 198.892 4.03148 198.739C4.10404 198.586 4.12916 198.415 4.10436 198.247C4.07956 198.08 4.00565 197.923 3.89185 197.797C3.77804 197.671 3.62974 197.583 3.4653 197.542C3.30087 197.5 3.12805 197.509 2.96843 197.566C2.8088 197.623 2.66944 197.726 2.56844 197.862C2.46745 197.998 2.40912 198.161 2.4008 198.331C2.39248 198.5 2.43455 198.668 2.52171 198.813C2.57946 198.91 2.65574 198.994 2.74608 199.061C2.83643 199.128 2.93928 199.177 3.04843 199.204C3.15758 199.232 3.27074 199.237 3.38205 199.22C3.49336 199.204 3.60058 199.166 3.69707 199.108Z" fill="#FEB1AB"/>
<path d="M14.5984 195.879L3.18359 197.983L3.32732 198.763L14.7421 196.659L14.5984 195.879Z" fill="#FEB1AB"/>
<path d="M15.0571 196.182L14.2852 196.359L18.2655 213.726L19.0375 213.549L15.0571 196.182Z" fill="#FEB1AB"/>
<path d="M17.5873 213.883C17.539 213.672 17.5544 213.451 17.6313 213.249C17.7083 213.047 17.8433 212.873 18.0195 212.747C18.1957 212.622 18.4051 212.552 18.6212 212.546C18.8373 212.54 19.0507 212.598 19.2338 212.713C19.417 212.827 19.5617 212.994 19.6502 213.191C19.7386 213.389 19.7664 213.607 19.7304 213.821C19.6944 214.034 19.596 214.232 19.4476 214.389C19.2993 214.546 19.1076 214.656 18.8969 214.704C18.757 214.736 18.6121 214.74 18.4705 214.717C18.3289 214.693 18.1936 214.641 18.072 214.565C17.9503 214.489 17.8449 214.389 17.7618 214.272C17.6787 214.155 17.6192 214.023 17.5873 213.883V213.883Z" fill="#FEB1AB"/>
<path d="M20.2223 206.156C20.1844 205.991 20.1963 205.818 20.2565 205.659C20.3168 205.501 20.4223 205.364 20.5605 205.266C20.6986 205.167 20.8631 205.112 21.0326 205.107C21.202 205.102 21.3691 205.148 21.5127 205.238C21.6563 205.328 21.7699 205.459 21.8393 205.613C21.9087 205.768 21.931 205.939 21.9028 206.106C21.8745 206.274 21.797 206.429 21.6807 206.552C21.5644 206.675 21.4142 206.761 21.249 206.799C21.0275 206.85 20.7948 206.81 20.6023 206.69C20.4098 206.569 20.2734 206.377 20.2223 206.156V206.156Z" fill="#FEB1AB"/>
<path d="M15.002 196.053L14.3398 196.489L20.7256 206.182L21.3878 205.745L15.002 196.053Z" fill="#FEB1AB"/>
<path d="M13.9786 207.586C13.9408 207.421 13.8547 207.27 13.7314 207.154C13.6081 207.037 13.4531 206.96 13.2859 206.932C13.1188 206.904 12.9468 206.926 12.7922 206.995C12.6375 207.065 12.5074 207.179 12.4174 207.322C12.3273 207.466 12.2816 207.633 12.2866 207.802C12.2915 207.972 12.3469 208.136 12.4452 208.274C12.5434 208.412 12.6804 208.518 12.8388 208.578C12.9973 208.639 13.1701 208.651 13.3353 208.613C13.5567 208.562 13.749 208.425 13.8697 208.232C13.9903 208.04 14.0294 207.807 13.9786 207.586V207.586Z" fill="#FEB1AB"/>
<path d="M15.0635 196.322L14.2773 196.218L12.7505 207.724L13.5366 207.828L15.0635 196.322Z" fill="#FEB1AB"/>
<path d="M32.4596 197.452L14.707 195.872L14.6367 196.662L32.3892 198.242L32.4596 197.452Z" fill="#FEB1AB"/>
<path d="M32.3201 198.941C32.1048 198.921 31.9004 198.838 31.7322 198.702C31.564 198.567 31.4398 198.384 31.3753 198.178C31.3108 197.972 31.3088 197.751 31.3698 197.544C31.4307 197.337 31.5517 197.151 31.7175 197.013C31.8834 196.874 32.0868 196.788 32.3017 196.765C32.5166 196.742 32.7332 196.783 32.9247 196.883C33.1163 196.984 33.2741 197.138 33.3777 197.328C33.4814 197.517 33.5262 197.733 33.5071 197.949C33.4943 198.092 33.4534 198.231 33.3869 198.358C33.3203 198.486 33.2296 198.598 33.1194 198.69C33.0092 198.783 32.8816 198.852 32.7445 198.895C32.6074 198.938 32.4631 198.953 32.3201 198.941V198.941Z" fill="#FEB1AB"/>
<path d="M25.7861 194.048C25.6173 194.033 25.4566 193.968 25.3246 193.862C25.1926 193.756 25.0953 193.613 25.0447 193.451C24.994 193.289 24.992 193.116 25.0398 192.953C25.0875 192.791 25.1827 192.646 25.3128 192.537C25.4428 192.428 25.6021 192.361 25.7706 192.342C25.9392 192.324 26.1095 192.357 26.2597 192.435C26.4099 192.514 26.5332 192.635 26.6144 192.784C26.6957 192.933 26.7308 193.102 26.7157 193.271C26.6955 193.497 26.5863 193.706 26.4119 193.852C26.2375 193.998 26.0125 194.068 25.7861 194.048V194.048Z" fill="#FEB1AB"/>
<path d="M25.7584 192.812L14.5664 195.888L14.7766 196.653L25.9685 193.577L25.7584 192.812Z" fill="#FEB1AB"/>
<path d="M25.2179 200.424C25.0491 200.409 24.8793 200.444 24.7305 200.525C24.5817 200.607 24.4606 200.73 24.3821 200.881C24.3035 201.031 24.2713 201.201 24.2894 201.369C24.3076 201.538 24.3753 201.698 24.484 201.828C24.5927 201.958 24.7374 202.052 24.9 202.1C25.0627 202.148 25.2356 202.146 25.3974 202.096C25.5591 202.045 25.7024 201.947 25.8087 201.815C25.9151 201.683 25.98 201.523 25.9951 201.354C26.0154 201.127 25.9446 200.902 25.7988 200.728C25.6531 200.554 25.4443 200.444 25.2179 200.424V200.424Z" fill="#FEB1AB"/>
<path d="M14.8421 195.913L14.5 196.628L24.9711 201.636L25.3132 200.921L14.8421 195.913Z" fill="#FEB1AB"/>
<path d="M284.222 269.063C280.332 265.548 279.163 259.181 278.825 256.275C278.672 255.151 278.239 254.084 277.566 253.172C278.542 253.748 279.647 254.071 280.78 254.11C283.706 254.153 290.155 254.665 294.05 258.182C298.029 261.779 298.685 265.014 297.044 267.539C296.895 267.77 296.669 267.941 296.406 268.022C296.143 268.102 295.86 268.088 295.607 267.982C295.384 267.888 295.138 267.866 294.903 267.919C294.667 267.971 294.454 268.096 294.292 268.275C294.131 268.454 294.029 268.679 294.001 268.919C293.973 269.159 294.02 269.401 294.136 269.613C294.268 269.854 294.311 270.135 294.257 270.405C294.203 270.676 294.056 270.918 293.841 271.091C293.248 271.579 292.55 271.925 291.802 272.102C289.714 272.585 287.152 271.712 284.222 269.063ZM269.921 276.141C269.654 276.071 269.42 275.908 269.261 275.682C269.102 275.455 269.028 275.18 269.053 274.905C269.074 274.664 269.019 274.422 268.897 274.213C268.774 274.005 268.59 273.839 268.369 273.741C268.148 273.642 267.902 273.614 267.664 273.662C267.427 273.71 267.211 273.831 267.045 274.007C266.856 274.209 266.602 274.336 266.328 274.369C266.054 274.401 265.777 274.335 265.546 274.183C263.028 272.539 262.321 269.305 264.509 264.412C266.651 259.621 272.341 256.549 275.004 255.327C276.025 254.835 276.906 254.093 277.566 253.172C276.438 253.278 275.354 253.667 274.415 254.301C272.027 255.987 266.502 259.363 261.286 258.806C255.955 258.238 253.515 256.001 253.362 252.996C253.347 252.721 253.429 252.449 253.595 252.229C253.76 252.008 253.998 251.853 254.266 251.791C254.502 251.736 254.715 251.61 254.876 251.429C255.036 251.248 255.136 251.021 255.162 250.781C255.188 250.54 255.138 250.297 255.019 250.086C254.9 249.875 254.718 249.707 254.499 249.604C254.25 249.486 254.051 249.285 253.936 249.035C253.821 248.785 253.797 248.502 253.869 248.237C254.653 245.333 257.51 243.66 262.841 244.229C268.059 244.785 272.742 249.25 274.724 251.404C275.509 252.222 276.486 252.831 277.566 253.174V253.174C277.319 254.28 277.354 255.43 277.667 256.52C278.533 259.315 280.036 265.609 277.894 270.398C276.328 273.903 274.405 275.733 272.373 276.202C271.563 276.386 270.72 276.365 269.921 276.141ZM280.906 252.932C279.79 252.731 278.642 252.814 277.566 253.172C278.416 252.422 279.065 251.47 279.452 250.405C280.395 247.634 282.872 241.66 287.426 239.042C292.072 236.37 295.361 236.746 297.251 239.087C297.425 239.3 297.518 239.568 297.514 239.844C297.51 240.12 297.409 240.385 297.228 240.593C297.071 240.776 296.974 241.003 296.951 241.243C296.929 241.483 296.981 241.724 297.102 241.933C297.222 242.142 297.404 242.308 297.623 242.409C297.842 242.51 298.087 242.54 298.324 242.495C298.595 242.444 298.876 242.49 299.116 242.625C299.357 242.76 299.542 242.976 299.639 243.234C300.712 246.043 299.383 249.076 294.737 251.749C293.653 252.357 292.485 252.803 291.272 253.071C287.842 253.72 284.317 253.673 280.906 252.932V252.932ZM275.517 250.526C273.174 248.77 268.261 244.562 267.178 239.427C266.07 234.183 267.445 231.17 270.258 230.095C270.515 229.996 270.8 229.991 271.061 230.081C271.322 230.171 271.543 230.35 271.685 230.587C271.809 230.796 271.995 230.96 272.217 231.058C272.439 231.156 272.686 231.181 272.924 231.131C273.161 231.081 273.377 230.958 273.541 230.779C273.705 230.6 273.809 230.374 273.838 230.133C273.872 229.86 274 229.608 274.201 229.421C274.402 229.233 274.663 229.122 274.937 229.107C277.942 228.955 280.416 231.156 281.521 236.401C282.603 241.535 279.805 247.368 278.37 249.919C277.834 250.919 277.557 252.036 277.565 253.17C277.115 252.131 276.41 251.222 275.517 250.526V250.526Z" fill="#AA1D13"/>
<path d="M275.126 242.797L277.324 253.222L277.788 253.125L275.59 242.699L275.126 242.797Z" fill="#FEB1AB"/>
<path d="M275.997 242.613C276.023 242.74 276.012 242.871 275.964 242.991C275.915 243.111 275.833 243.213 275.726 243.286C275.62 243.359 275.494 243.399 275.365 243.4C275.235 243.402 275.109 243.365 275.001 243.295C274.893 243.224 274.808 243.123 274.757 243.004C274.706 242.886 274.692 242.754 274.716 242.627C274.739 242.501 274.8 242.384 274.89 242.291C274.98 242.199 275.096 242.135 275.222 242.109C275.392 242.073 275.568 242.107 275.713 242.201C275.858 242.296 275.96 242.444 275.997 242.613V242.613Z" fill="#FEB1AB"/>
<path d="M274.342 247.206C274.363 247.306 274.354 247.409 274.316 247.504C274.278 247.598 274.214 247.679 274.13 247.736C274.046 247.794 273.947 247.825 273.845 247.826C273.743 247.827 273.644 247.798 273.559 247.742C273.474 247.686 273.407 247.607 273.367 247.513C273.328 247.419 273.317 247.316 273.336 247.217C273.355 247.117 273.403 247.025 273.475 246.953C273.546 246.88 273.637 246.831 273.737 246.81C273.87 246.783 274.008 246.809 274.121 246.884C274.234 246.958 274.314 247.074 274.342 247.206V247.206Z" fill="#FEB1AB"/>
<path d="M274.041 247.185L273.641 247.439L277.358 253.301L277.758 253.047L274.041 247.185Z" fill="#FEB1AB"/>
<path d="M278.089 246.415C278.11 246.514 278.159 246.605 278.231 246.677C278.303 246.748 278.395 246.796 278.495 246.815C278.595 246.834 278.698 246.823 278.791 246.783C278.884 246.743 278.964 246.677 279.019 246.592C279.074 246.507 279.103 246.407 279.102 246.306C279.101 246.205 279.07 246.106 279.013 246.023C278.956 245.939 278.875 245.874 278.781 245.836C278.687 245.798 278.584 245.79 278.484 245.811C278.352 245.839 278.236 245.918 278.162 246.031C278.088 246.145 278.062 246.283 278.089 246.415V246.415Z" fill="#FEB1AB"/>
<path d="M278.356 246.275L277.322 253.139L277.791 253.209L278.824 246.346L278.356 246.275Z" fill="#FEB1AB"/>
<path d="M266.988 251.808L266.938 252.279L277.532 253.41L277.583 252.939L266.988 251.808Z" fill="#FEB1AB"/>
<path d="M267.031 251.393C267.16 251.407 267.281 251.46 267.38 251.543C267.479 251.626 267.552 251.736 267.588 251.861C267.624 251.985 267.623 252.118 267.584 252.241C267.545 252.364 267.47 252.473 267.369 252.554C267.268 252.635 267.145 252.684 267.016 252.695C266.887 252.706 266.758 252.679 266.644 252.616C266.531 252.554 266.439 252.459 266.379 252.344C266.32 252.229 266.296 252.099 266.31 251.97C266.33 251.798 266.416 251.641 266.551 251.533C266.686 251.425 266.859 251.375 267.031 251.393V251.393Z" fill="#FEB1AB"/>
<path d="M270.885 254.387C270.986 254.398 271.081 254.439 271.159 254.504C271.236 254.568 271.293 254.655 271.322 254.752C271.35 254.849 271.349 254.953 271.319 255.049C271.289 255.146 271.231 255.231 271.152 255.295C271.073 255.359 270.977 255.398 270.877 255.407C270.776 255.416 270.674 255.395 270.585 255.346C270.497 255.298 270.424 255.224 270.377 255.134C270.33 255.044 270.311 254.942 270.322 254.842C270.336 254.707 270.404 254.584 270.51 254.499C270.615 254.413 270.75 254.373 270.885 254.387V254.387Z" fill="#FEB1AB"/>
<path d="M277.495 252.944L270.771 254.667L270.889 255.126L277.613 253.403L277.495 252.944Z" fill="#FEB1AB"/>
<path d="M271.293 250.58C271.393 250.591 271.495 250.572 271.585 250.525C271.675 250.478 271.749 250.406 271.798 250.317C271.847 250.228 271.868 250.126 271.859 250.025C271.85 249.924 271.811 249.828 271.748 249.749C271.684 249.669 271.598 249.611 271.501 249.581C271.404 249.551 271.3 249.549 271.203 249.578C271.106 249.607 271.019 249.664 270.954 249.742C270.889 249.82 270.849 249.915 270.838 250.016C270.831 250.083 270.837 250.15 270.855 250.215C270.874 250.28 270.906 250.34 270.948 250.393C270.99 250.445 271.042 250.488 271.101 250.521C271.16 250.553 271.226 250.573 271.293 250.58Z" fill="#FEB1AB"/>
<path d="M271.452 249.859L271.24 250.282L277.449 253.386L277.661 252.962L271.452 249.859Z" fill="#FEB1AB"/>
<path d="M277.338 253.082L272.988 262.802L273.421 262.996L277.771 253.276L277.338 253.082Z" fill="#FEB1AB"/>
<path d="M272.607 262.633C272.66 262.515 272.747 262.415 272.856 262.346C272.966 262.277 273.093 262.243 273.222 262.246C273.351 262.25 273.476 262.291 273.582 262.366C273.687 262.441 273.769 262.545 273.815 262.666C273.861 262.787 273.87 262.919 273.842 263.045C273.813 263.171 273.748 263.285 273.654 263.374C273.56 263.463 273.442 263.522 273.315 263.544C273.187 263.566 273.056 263.55 272.938 263.497C272.78 263.426 272.656 263.296 272.593 263.133C272.531 262.971 272.536 262.791 272.607 262.633V262.633Z" fill="#FEB1AB"/>
<path d="M276.649 259.893C276.69 259.801 276.758 259.722 276.844 259.668C276.93 259.614 277.03 259.587 277.131 259.59C277.233 259.592 277.331 259.625 277.414 259.684C277.497 259.742 277.561 259.824 277.597 259.919C277.633 260.014 277.64 260.117 277.618 260.216C277.595 260.315 277.544 260.405 277.47 260.475C277.396 260.545 277.304 260.591 277.204 260.608C277.103 260.625 277 260.612 276.908 260.57C276.846 260.543 276.791 260.504 276.744 260.455C276.698 260.406 276.662 260.349 276.638 260.286C276.614 260.223 276.603 260.155 276.604 260.088C276.606 260.021 276.621 259.955 276.649 259.893Z" fill="#FEB1AB"/>
<path d="M277.317 253.158L276.881 260.085L277.354 260.115L277.79 253.187L277.317 253.158Z" fill="#FEB1AB"/>
<path d="M273.154 258.328C273.195 258.235 273.208 258.132 273.191 258.032C273.174 257.932 273.128 257.839 273.058 257.765C272.988 257.692 272.899 257.641 272.8 257.618C272.701 257.596 272.597 257.603 272.502 257.639C272.407 257.675 272.325 257.739 272.267 257.822C272.208 257.905 272.175 258.003 272.173 258.104C272.17 258.206 272.197 258.306 272.252 258.392C272.306 258.478 272.384 258.545 272.476 258.587C272.538 258.614 272.604 258.629 272.672 258.631C272.739 258.633 272.806 258.622 272.869 258.598C272.932 258.574 272.989 258.538 273.038 258.492C273.087 258.445 273.127 258.389 273.154 258.328V258.328Z" fill="#FEB1AB"/>
<path d="M277.388 253.006L272.518 257.952L272.855 258.285L277.725 253.339L277.388 253.006Z" fill="#FEB1AB"/>
<path d="M277.712 252.998L277.395 253.349L285.301 260.492L285.619 260.14L277.712 252.998Z" fill="#FEB1AB"/>
<path d="M285.026 260.801C284.93 260.714 284.861 260.601 284.83 260.476C284.798 260.35 284.805 260.218 284.848 260.096C284.892 259.974 284.97 259.868 285.074 259.791C285.178 259.714 285.303 259.669 285.432 259.663C285.561 259.656 285.689 259.688 285.8 259.755C285.911 259.821 286 259.919 286.055 260.036C286.111 260.153 286.13 260.284 286.111 260.412C286.092 260.54 286.036 260.659 285.949 260.755C285.891 260.819 285.822 260.871 285.744 260.907C285.667 260.944 285.582 260.965 285.497 260.97C285.411 260.974 285.325 260.961 285.244 260.932C285.164 260.903 285.089 260.858 285.026 260.801V260.801Z" fill="#FEB1AB"/>
<path d="M283.664 256.113C283.589 256.045 283.535 255.956 283.51 255.858C283.485 255.76 283.49 255.657 283.524 255.561C283.558 255.466 283.619 255.382 283.7 255.322C283.782 255.261 283.879 255.226 283.98 255.221C284.081 255.215 284.182 255.24 284.269 255.292C284.356 255.344 284.425 255.421 284.469 255.512C284.512 255.604 284.528 255.706 284.513 255.806C284.499 255.907 284.454 256 284.386 256.075C284.295 256.175 284.168 256.236 284.033 256.243C283.898 256.25 283.765 256.203 283.664 256.113V256.113Z" fill="#FEB1AB"/>
<path d="M277.641 252.952L277.467 253.393L283.919 255.951L284.094 255.51L277.641 252.952Z" fill="#FEB1AB"/>
<path d="M281.098 258.952C281.023 258.884 280.929 258.841 280.829 258.826C280.729 258.811 280.626 258.826 280.535 258.87C280.443 258.913 280.367 258.983 280.315 259.07C280.263 259.157 280.238 259.257 280.243 259.358C280.249 259.46 280.284 259.557 280.344 259.638C280.405 259.719 280.488 259.781 280.584 259.815C280.679 259.849 280.783 259.854 280.881 259.829C280.979 259.804 281.068 259.75 281.136 259.675C281.226 259.574 281.273 259.441 281.266 259.306C281.259 259.17 281.199 259.043 281.098 258.952V258.952Z" fill="#FEB1AB"/>
<path d="M277.766 253.064L277.346 253.282L280.544 259.442L280.965 259.224L277.766 253.064Z" fill="#FEB1AB"/>
<path d="M286.676 247.652L277.438 252.967L277.674 253.378L286.912 248.063L286.676 247.652Z" fill="#FEB1AB"/>
<path d="M287.118 248.427C287.006 248.492 286.877 248.521 286.748 248.513C286.619 248.504 286.495 248.457 286.393 248.378C286.291 248.299 286.214 248.192 286.172 248.069C286.131 247.947 286.127 247.814 286.161 247.69C286.195 247.565 286.265 247.453 286.362 247.368C286.46 247.283 286.58 247.229 286.708 247.212C286.836 247.195 286.967 247.217 287.083 247.274C287.199 247.332 287.295 247.422 287.359 247.534C287.446 247.685 287.468 247.863 287.423 248.03C287.378 248.198 287.268 248.341 287.118 248.427V248.427Z" fill="#FEB1AB"/>
<path d="M282.236 248.272C282.148 248.323 282.047 248.346 281.946 248.34C281.844 248.333 281.747 248.296 281.667 248.234C281.587 248.172 281.527 248.087 281.494 247.991C281.462 247.895 281.459 247.792 281.485 247.694C281.512 247.596 281.567 247.508 281.643 247.441C281.72 247.374 281.814 247.332 281.915 247.319C282.016 247.306 282.118 247.323 282.209 247.368C282.3 247.413 282.375 247.485 282.425 247.573C282.459 247.631 282.481 247.696 282.49 247.762C282.499 247.829 282.494 247.897 282.476 247.962C282.459 248.027 282.429 248.088 282.387 248.141C282.346 248.195 282.295 248.239 282.236 248.272V248.272Z" fill="#FEB1AB"/>
<path d="M281.8 247.678L277.373 253.023L277.738 253.326L282.165 247.98L281.8 247.678Z" fill="#FEB1AB"/>
<path d="M284.146 251.588C284.058 251.639 283.987 251.715 283.942 251.805C283.897 251.896 283.88 251.998 283.893 252.098C283.907 252.199 283.949 252.293 284.016 252.369C284.082 252.445 284.17 252.5 284.268 252.526C284.366 252.553 284.469 252.55 284.565 252.517C284.661 252.485 284.745 252.425 284.807 252.345C284.869 252.265 284.905 252.167 284.912 252.066C284.919 251.965 284.896 251.865 284.845 251.777C284.812 251.719 284.767 251.667 284.714 251.626C284.66 251.585 284.599 251.555 284.534 251.537C284.469 251.52 284.401 251.515 284.335 251.524C284.268 251.533 284.204 251.555 284.146 251.588Z" fill="#FEB1AB"/>
<path d="M277.514 252.94L277.592 253.407L284.439 252.269L284.361 251.801L277.514 252.94Z" fill="#FEB1AB"/>
<path d="M34.293 41.8041L34.293 141L145.647 200L254.293 141L254 41.8041C254 37.6126 252.34 33.5928 249.384 30.6289C246.429 27.6651 242.42 26 238.24 26H50.0525C45.8729 26.0003 41.8645 27.6654 38.9091 30.6292C35.9537 33.593 34.2932 37.6127 34.293 41.8041Z" fill="#FAF4F4"/>
</g>
<defs>
<linearGradient id="paint0_linear_15398_40418" x1="152.696" y1="111.661" x2="151.173" y2="353.885" gradientUnits="userSpaceOnUse">
<stop stop-color="#F55F40"/>
<stop offset="1" stop-color="#BF2026"/>
</linearGradient>
<clipPath id="clip0_15398_40418">
<rect width="289" height="294" fill="white"/>
</clipPath>
</defs>
</svg>
