<svg width="290" height="112" viewBox="0 0 290 112" fill="none" xmlns="http://www.w3.org/2000/svg">
<mask id="mask0" style="mask-type:alpha" maskUnits="userSpaceOnUse" x="0" y="0" width="290" height="112">
<rect width="290" height="112" fill="#C4C4C4"/>
</mask>
<g mask="url(#mask0)">
<path d="M37.9954 105H86C80.1881 96.6299 74.5227 94.5491 66.0956 95.8114C66.1631 95.2411 66.1976 94.6673 66.1989 94.093C66.1989 84.0951 56.1527 76 43.7594 76C31.5482 76 21.6222 83.867 21.3354 93.6524C18.9035 92.3419 16.1853 91.672 13.431 91.7044C6.39629 91.7044 0 99.9714 0 104.95C0 104.964 0 104.978 0 104.994H37.9938L37.9954 105Z" fill="url(#paint0_linear)"/>
<path d="M246.083 21.9967H207.023L207 21.9682C212.151 19.1859 217.939 17.8155 223.783 17.9946C223.729 17.5345 223.701 17.0716 223.7 16.6082C223.7 8.53885 231.874 2 241.958 2C251.893 2 259.97 8.35298 260.203 16.2582C262.182 15.2003 264.394 14.6596 266.634 14.6859C272.359 14.6859 277 17.9444 277 21.9648C277 21.9766 277 21.9866 277 22H246.083V21.9967Z" fill="url(#paint1_linear)"/>
<path d="M286.828 81.6897C286.828 67.5272 223.067 40.9999 144.414 40.9999C65.761 40.9999 2 67.5272 2 81.6897C2 81.6897 65.761 81.6897 144.414 81.6897C223.067 81.6897 286.828 81.6897 286.828 81.6897Z" fill="url(#paint2_linear)" fill-opacity="0.15"/>
</g>
<defs>
<linearGradient id="paint0_linear" x1="47.472" y1="70.983" x2="47.3938" y2="109.293" gradientUnits="userSpaceOnUse">
<stop stop-color="white"/>
<stop offset="1" stop-color="white" stop-opacity="0.24"/>
</linearGradient>
<linearGradient id="paint1_linear" x1="245.64" y1="-1.46" x2="245.594" y2="24.9609" gradientUnits="userSpaceOnUse">
<stop stop-color="white"/>
<stop offset="1" stop-color="white" stop-opacity="0.25"/>
</linearGradient>
<linearGradient id="paint2_linear" x1="143.947" y1="39.567" x2="143.947" y2="81.4814" gradientUnits="userSpaceOnUse">
<stop stop-color="#F78D8D"/>
<stop offset="1" stop-color="white"/>
</linearGradient>
</defs>
</svg>
