<svg width="267" height="107" viewBox="0 0 267 107" fill="none" xmlns="http://www.w3.org/2000/svg">
<path d="M256.397 34.6818C252.099 31.7134 247.091 29.9373 241.883 29.5343C246.106 27.0943 249.511 23.4593 251.672 19.0871C253.966 14.3268 256.545 5.95069 251.916 1.86621C247.287 -2.21827 242.265 5.73053 240.321 8.73283C236.669 14.654 234.903 22.5453 235.258 29.493C169.335 53.4072 97.1324 53.5549 31.1129 29.9105C33.2024 23.8725 33.4933 16.3575 31.9503 10.1573C30.9165 6.33192 28.3306 1.35476 23.8425 1.34902C19.6732 1.34076 17.8403 6.96764 18.2574 10.2919C19.2195 16.8629 21.8734 23.071 25.9584 28.307C18.3058 27.3025 3.244 27.2071 6.00351 35.9676C7.28564 40.0478 13.1666 39.9441 16.4703 39.5768C21.8632 39.0073 27.0198 35.7165 30.6937 31.8533C33.4231 32.8321 36.1449 33.7718 38.8589 34.6725C38.8294 34.7211 38.8039 34.7719 38.7826 34.8246L34.5267 52.2188C34.0826 54.041 35.8462 55.013 36.2903 53.1908L40.558 35.779C40.5513 35.7095 40.5376 35.6409 40.5173 35.5741C46.0653 37.3162 52.6691 38.8799 58.2906 40.3032C57.2513 46.1476 56.4528 52.0303 55.8952 57.9514C55.939 58.2929 56.0994 58.6088 56.3495 58.8454C56.5995 59.0821 56.9237 59.225 57.2671 59.2499C57.6105 59.2748 56.9519 59.1801 57.2335 58.982C57.515 58.7839 57.7194 58.4945 57.8119 58.1629C58.344 52.4193 59.112 46.6896 60.1161 40.9739C67.83 42.8485 76.6077 44.4062 84.4491 45.647C84.2118 51.2408 83.9705 56.8658 83.7253 62.522C83.7015 62.9201 83.8369 63.3113 84.1015 63.6095C84.3661 63.9078 84.7384 64.0888 85.1364 64.1126C85.5345 64.1363 85.9257 64.001 86.224 63.7364C86.5223 63.4718 85.7032 63.0995 85.727 62.7014C85.9681 57.1778 86.2141 51.6533 86.465 46.1278C92.998 47.1114 100.563 47.8756 107.161 48.4205C107.116 48.5883 107.095 48.7615 107.096 48.9353C107.477 54.6294 107.854 60.3293 108.227 66.0351C108.357 67.9107 110.219 67.3116 110.154 65.4537C109.777 59.8298 109.4 54.206 109.023 48.5821C116.541 49.1164 125.066 49.4011 132.597 49.4361C133.225 54.6653 133.827 59.8388 134.464 65.1119C134.687 66.9993 136.552 66.4149 136.391 64.5305C135.786 59.4944 135.192 54.4409 134.584 49.3902C142.572 49.3243 151.552 48.9405 159.525 48.2388C160.524 54.0331 161.528 59.8265 162.536 65.6189C162.613 66.007 162.842 66.3486 163.17 66.5684C163.499 66.7883 163.902 66.8686 164.29 66.7915C164.678 66.7144 165.02 66.4863 165.24 66.1573C165.46 65.8284 164.54 65.4256 164.463 65.0375C163.467 59.3339 162.488 53.6419 161.492 47.9383C167.461 47.3608 174.395 46.6077 180.295 45.679C181.689 51.9322 183.095 58.1884 184.511 64.4475C184.588 64.8355 184.816 65.1771 185.145 65.397C185.474 65.6169 185.876 65.6971 186.265 65.62C186.653 65.5429 186.994 65.3148 187.214 64.9859C187.434 64.6569 186.514 64.2541 186.437 63.866C185.027 57.6362 183.628 51.4093 182.239 45.1853C189.108 44.0336 196.931 42.6477 203.707 41.0277C205.661 47.5956 207.923 54.0567 210.494 60.4109C211.191 62.1585 212.802 60.8336 212.108 59.1006C209.627 52.9416 207.436 46.6844 205.535 40.3291C212.483 38.604 220.359 36.6193 227.163 34.3752C228.762 40.4658 230.841 46.4205 233.378 52.1836C234.145 53.9021 235.76 52.5917 234.993 50.8733C232.511 45.2403 230.489 39.416 228.947 33.4571C230.715 32.8625 233.491 32.2357 235.254 31.6119C235.331 31.7293 235.419 31.8391 235.516 31.9399C237.435 38.2881 241.202 43.9206 246.336 48.1187C251.276 51.9286 258.471 53.3129 262.758 48.0198C266.691 43.0861 259.975 37.2259 256.397 34.6818ZM20.2613 10.9423C19.9997 9.62537 21.4663 -0.499969 27.4117 5.62982C32.5572 10.935 31.1129 25 28.6401 27.029C25.5025 24.2497 23.715 21.2179 22.3179 18.002C21.3898 15.7263 20.7006 13.3604 20.2613 10.9423ZM9.71622 36.0513C4.8392 33.5523 13.1814 30.6684 14.1823 30.5C17.8082 29.9613 23.4201 30.5205 26.9814 31.3892C22.3179 36.0513 15.2804 38.8701 9.7075 36.0074L9.71622 36.0513ZM243.182 8.73283C243.915 7.59856 249.886 0.692664 251.672 7.00003C252.88 11.323 250.184 17.0453 247.991 20.5534C245.651 24.0908 242.021 26.4655 238.122 28.1368C237.985 23.8044 238.272 19.1304 239.754 15.0569C240.652 12.825 241.802 10.7032 243.182 8.73283ZM260.133 46.4424C256.995 52.5415 247.584 46.3154 244.682 43.5C241.737 40.3517 239.823 36.3747 238.474 32.2802C242.083 32.2716 245.795 32.7557 249.182 34C253.139 35.389 263.051 40.8432 260.189 46.4922L260.133 46.4424Z" fill="#DC9C77"/>
<path opacity="0.998" d="M38.0295 63.113C48.2724 61.0781 45.1357 45.2894 34.8928 47.3244C24.6499 49.3593 27.8598 65.1334 38.0295 63.113Z" fill="url(#paint0_linear)"/>
<path d="M59.795 67.2458C69.9647 65.2254 66.8309 49.4514 56.6612 51.4718C46.4915 53.4922 49.6253 69.2662 59.795 67.2458Z" fill="url(#paint1_linear)"/>
<path d="M87.348 71.3391C97.5908 69.3042 94.457 53.5302 84.2141 55.5651C73.9713 57.6 77.1051 73.3741 87.348 71.3391Z" fill="url(#paint2_linear)"/>
<path opacity="0.998" d="M110.387 74.6104L111.104 74.468C113.196 74.0524 115.037 72.8229 116.222 71.05C117.407 69.277 117.84 67.1058 117.424 65.0141C117.009 62.9223 115.779 61.0813 114.006 59.896C112.233 58.7108 110.062 58.2784 107.97 58.694L107.253 58.8364C105.161 59.252 103.32 60.4815 102.135 62.2544C100.95 64.0274 100.518 66.1986 100.933 68.2903C101.349 70.3821 102.578 72.2231 104.351 73.4084C106.124 74.5936 108.295 75.026 110.387 74.6104Z" fill="url(#paint3_linear)"/>
<path d="M164.107 74.9805C174.35 72.9456 171.216 57.1716 160.973 59.2065C150.73 61.2414 153.937 77.0009 164.107 74.9805Z" fill="url(#paint4_linear)"/>
<path opacity="0.998" d="M186.351 73.3295C196.521 71.3091 193.387 55.5351 183.217 57.5555C173.048 59.5759 176.181 75.3499 186.351 73.3295Z" fill="url(#paint5_linear)"/>
<path d="M212.61 68.5386C222.78 66.5181 219.643 50.7295 209.474 52.7499C199.304 54.7703 202.441 70.559 212.61 68.5386Z" fill="url(#paint6_linear)"/>
<path d="M236.693 61.29C246.936 59.255 243.802 43.481 233.559 45.5159C223.316 47.5509 226.523 63.3104 236.693 61.29Z" fill="url(#paint7_linear)"/>
<path d="M232.828 54.544C233.398 54.4307 233.901 54.0953 234.224 53.6118C234.547 53.1283 234.665 52.5362 234.552 51.9657C234.438 51.3952 234.103 50.8931 233.619 50.5698C233.136 50.2466 232.544 50.1287 231.973 50.242C231.403 50.3553 230.901 50.6907 230.577 51.1742C230.254 51.6577 230.136 52.2499 230.25 52.8203C230.363 53.3908 230.698 53.8929 231.182 54.2162C231.665 54.5394 232.257 54.6574 232.828 54.544Z" fill="white"/>
<path d="M208.609 61.0288C209.179 60.9155 209.681 60.5802 210.005 60.0966C210.328 59.6131 210.446 59.021 210.332 58.4505C210.219 57.88 209.884 57.3779 209.4 57.0547C208.917 56.7314 208.325 56.6135 207.754 56.7268C207.184 56.8401 206.681 57.1755 206.358 57.659C206.035 58.1425 205.917 58.7347 206.03 59.3051C206.144 59.8756 206.479 60.3777 206.963 60.701C207.446 61.0242 208.038 61.1422 208.609 61.0288Z" fill="white"/>
<path d="M182.037 65.5473C182.607 65.4339 183.109 65.0986 183.432 64.6151C183.756 64.1316 183.874 63.5394 183.76 62.9689C183.647 62.3985 183.312 61.8964 182.828 61.5731C182.345 61.2499 181.752 61.1319 181.182 61.2453C180.612 61.3586 180.109 61.6939 179.786 62.1775C179.463 62.661 179.345 63.2531 179.458 63.8236C179.572 64.3941 179.907 64.8962 180.391 65.2194C180.874 65.5427 181.466 65.6606 182.037 65.5473Z" fill="white"/>
<path d="M159.764 66.4433C160.335 66.33 160.837 65.9947 161.16 65.5111C161.484 65.0276 161.601 64.4355 161.488 63.865C161.375 63.2945 161.039 62.7924 160.556 62.4692C160.072 62.1459 159.48 62.028 158.91 62.1413C158.339 62.2547 157.837 62.59 157.514 63.0735C157.191 63.5571 157.073 64.1492 157.186 64.7197C157.299 65.2902 157.635 65.7923 158.118 66.1155C158.602 66.4388 159.194 66.5567 159.764 66.4433Z" fill="white"/>
<path d="M139.004 74.568C149.247 72.533 146.113 56.759 135.871 58.794C125.628 60.8289 128.835 76.5884 139.004 74.568Z" fill="url(#paint8_linear)"/>
<path d="M135.299 66.3301C135.87 66.2167 136.372 65.8814 136.695 65.3979C137.018 64.9144 137.136 64.3222 137.023 63.7517C136.909 63.1813 136.574 62.6792 136.091 62.3559C135.607 62.0327 135.015 61.9147 134.444 62.0281C133.874 62.1414 133.372 62.4767 133.049 62.9603C132.725 63.4438 132.607 64.0359 132.721 64.6064C132.834 65.1769 133.169 65.679 133.653 66.0022C134.137 66.3255 134.729 66.4434 135.299 66.3301Z" fill="white"/>
<path d="M106.235 65.8833C106.805 65.77 107.307 65.4347 107.631 64.9511C107.954 64.4676 108.072 63.8754 107.959 63.305C107.845 62.7345 107.51 62.2324 107.026 61.9091C106.543 61.5859 105.951 61.468 105.38 61.5813C104.81 61.6946 104.308 62.03 103.984 62.5135C103.661 62.997 103.543 63.5892 103.657 64.1596C103.77 64.7301 104.105 65.2322 104.589 65.5555C105.072 65.8787 105.664 65.9966 106.235 65.8833Z" fill="white"/>
<path d="M84.8126 61.1805C85.383 61.0671 85.8852 60.7318 86.2084 60.2483C86.5317 59.7647 86.6496 59.1726 86.5362 58.6021C86.4229 58.0316 86.0876 57.5295 85.6041 57.2063C85.1205 56.883 84.5284 56.7651 83.9579 56.8784C83.3874 56.9918 82.8853 57.3271 82.562 57.8106C82.2388 58.2942 82.1209 58.8863 82.2342 59.4568C82.3476 60.0273 82.6829 60.5294 83.1664 60.8526C83.6499 61.1759 84.2421 61.2938 84.8126 61.1805Z" fill="white"/>
<path d="M56.9393 58.2306C57.5098 58.1173 58.0119 57.782 58.3351 57.2984C58.6584 56.8149 58.7763 56.2228 58.6629 55.6523C58.5496 55.0818 58.2143 54.5797 57.7308 54.2565C57.2472 53.9332 56.6551 53.8153 56.0846 53.9286C55.5141 54.042 55.012 54.3773 54.6888 54.8608C54.3655 55.3443 54.2476 55.9365 54.3609 56.507C54.4743 57.0774 54.8096 57.5795 55.2931 57.9028C55.7766 58.226 56.3688 58.344 56.9393 58.2306Z" fill="white"/>
<path d="M33.9952 53.678C34.5657 53.5647 35.0677 53.2294 35.391 52.7458C35.7142 52.2623 35.8322 51.6701 35.7189 51.0997C35.6055 50.5292 35.2702 50.0271 34.7866 49.7038C34.3031 49.3806 33.711 49.2627 33.1405 49.376C32.57 49.4893 32.0679 49.8247 31.7447 50.3082C31.4214 50.7917 31.3035 51.3839 31.4168 51.9543C31.5302 52.5248 31.8655 53.0269 32.349 53.3502C32.8325 53.6734 33.4247 53.7913 33.9952 53.678Z" fill="white"/>
<defs>
<linearGradient id="paint0_linear" x1="34.6568" y1="43.7822" x2="36.4494" y2="65.8878" gradientUnits="userSpaceOnUse">
<stop stop-color="#FCBC96"/>
<stop offset="1" stop-color="#C68158"/>
</linearGradient>
<linearGradient id="paint1_linear" x1="28.199" y1="36.4653" x2="41.5032" y2="73.138" gradientUnits="userSpaceOnUse">
<stop stop-color="#FFC59A"/>
<stop offset="1" stop-color="#F95849"/>
</linearGradient>
<linearGradient id="paint2_linear" x1="81.2853" y1="56.5597" x2="89.3657" y2="75.3547" gradientUnits="userSpaceOnUse">
<stop stop-color="#FFBF74"/>
<stop offset="1" stop-color="#F4973B"/>
</linearGradient>
<linearGradient id="paint3_linear" x1="107.396" y1="55.2224" x2="109.367" y2="77.3123" gradientUnits="userSpaceOnUse">
<stop stop-color="#FCBC96"/>
<stop offset="1" stop-color="#C68158"/>
</linearGradient>
<linearGradient id="paint4_linear" x1="158.064" y1="60.1973" x2="166.15" y2="78.9879" gradientUnits="userSpaceOnUse">
<stop stop-color="#FFBF74"/>
<stop offset="1" stop-color="#F4973B"/>
</linearGradient>
<linearGradient id="paint5_linear" x1="182.966" y1="54.0197" x2="184.746" y2="76.1044" gradientUnits="userSpaceOnUse">
<stop stop-color="#FCBC96"/>
<stop offset="1" stop-color="#C68158"/>
</linearGradient>
<linearGradient id="paint6_linear" x1="181.008" y1="37.725" x2="194.329" y2="74.4291" gradientUnits="userSpaceOnUse">
<stop stop-color="#FFC59A"/>
<stop offset="1" stop-color="#F95849"/>
</linearGradient>
<linearGradient id="paint7_linear" x1="230.65" y1="46.5068" x2="238.736" y2="65.2974" gradientUnits="userSpaceOnUse">
<stop stop-color="#FFBF74"/>
<stop offset="1" stop-color="#F4973B"/>
</linearGradient>
<linearGradient id="paint8_linear" x1="107.29" y1="43.8111" x2="120.566" y2="80.4989" gradientUnits="userSpaceOnUse">
<stop stop-color="#FFC59A"/>
<stop offset="1" stop-color="#F95849"/>
</linearGradient>
</defs>
</svg>
