<svg width="287" height="101" viewBox="0 0 287 101" fill="none" xmlns="http://www.w3.org/2000/svg">
<path d="M287 81.9999C287 67.7294 222.753 40.9999 143.5 40.9999C64.2471 40.9999 0 67.7294 0 81.9999C0 81.9999 64.2471 81.9999 143.5 81.9999C222.753 81.9999 287 81.9999 287 81.9999Z" fill="url(#paint0_linear_1354_8112)" fill-opacity="0.15"/>
<path d="M181 92.8532C181 87.4114 161.972 84.9999 138.5 84.9999C115.028 84.9999 96 87.4114 96 92.8532C96 98.2951 115.028 101 138.5 101C161.972 101 181 98.2951 181 92.8532Z" fill="#F78D8D" fill-opacity="0.15"/>
<path d="M127.333 81.25C117.512 81.25 112.6 81.25 109.55 78.2C106.5 75.1458 106.5 70.2375 106.5 60.4167V39.5833C106.5 29.7625 106.5 24.85 109.55 21.8C112.6 18.75 117.512 18.75 127.333 18.75" stroke="url(#paint1_linear_1354_8112)" stroke-width="5"/>
<path d="M127.367 33.2667C127.367 26.8583 127.367 22.1958 127.954 18.6833H127.367C117.546 18.6833 112.633 18.6833 109.583 21.7333C106.533 24.7833 106.533 29.6959 106.533 39.5167V60.35C106.533 70.1709 106.533 75.0792 109.583 78.1334C112.633 81.1834 117.546 81.1834 127.367 81.1834H127.954C127.367 77.6709 127.367 73.0084 127.367 66.6V33.2667Z" fill="#FDE5D7"/>
<path d="M156.533 8.26666H152.367C140.583 8.26666 134.687 8.26666 131.029 11.9292C127.367 15.5875 127.367 21.4833 127.367 33.2667V66.6C127.367 78.3833 127.367 84.2792 131.029 87.9375C134.687 91.6 140.583 91.6 152.367 91.6H156.533C168.317 91.6 174.212 91.6 177.871 87.9375C181.533 84.2792 181.533 78.3833 181.533 66.6V33.2667C181.533 21.4833 181.533 15.5875 177.871 11.9292C174.212 8.26666 168.317 8.26666 156.533 8.26666Z" fill="#FEC770"/>
<path d="M127.333 66.6667C127.333 78.45 127.333 84.3458 130.996 88.0042C134.654 91.6667 140.55 91.6667 152.333 91.6667H156.5C168.283 91.6667 174.179 91.6667 177.837 88.0042C181.5 84.3458 181.5 78.45 181.5 66.6667V33.3333C181.5 21.55 181.5 15.6542 177.837 11.9958C174.179 8.33334 168.283 8.33334 156.5 8.33334H152.333C140.55 8.33334 134.654 8.33334 130.996 11.9958C127.333 15.6542 127.333 21.55 127.333 33.3333" stroke="url(#paint2_linear_1354_8112)" stroke-width="5" stroke-linecap="round"/>
<path d="M119 50H156.5M156.5 50L146.083 60.4167M156.5 50L146.083 39.5833" stroke="url(#paint3_linear_1354_8112)" stroke-width="5" stroke-linecap="round" stroke-linejoin="round"/>
<defs>
<linearGradient id="paint0_linear_1354_8112" x1="143.03" y1="39.556" x2="143.03" y2="81.7901" gradientUnits="userSpaceOnUse">
<stop stop-color="#F78D8D"/>
<stop offset="1" stop-color="white"/>
</linearGradient>
<linearGradient id="paint1_linear_1354_8112" x1="117.165" y1="35.7521" x2="90.891" y2="126.044" gradientUnits="userSpaceOnUse">
<stop stop-color="#FFC59A"/>
<stop offset="0.774583" stop-color="#FF826E"/>
<stop offset="1" stop-color="#FF7062"/>
</linearGradient>
<linearGradient id="paint2_linear_1354_8112" x1="67.3732" y1="-96.6732" x2="111.652" y2="97.7413" gradientUnits="userSpaceOnUse">
<stop stop-color="#FFC59A"/>
<stop offset="1" stop-color="#F95849"/>
</linearGradient>
<linearGradient id="paint3_linear_1354_8112" x1="156.5" y1="48.1061" x2="116.231" y2="46.0642" gradientUnits="userSpaceOnUse">
<stop stop-color="#2DAA00"/>
<stop offset="1" stop-color="#35C800"/>
</linearGradient>
</defs>
</svg>
