<svg width="20" height="20" viewBox="0 0 20 20" fill="none" xmlns="http://www.w3.org/2000/svg">
<mask id="mask0" style="mask-type:alpha" maskUnits="userSpaceOnUse" x="0" y="0" width="20" height="20">
<rect width="20" height="20" fill="#727272"/>
</mask>
<g mask="url(#mask0)">
<path d="M10.6918 18.6138L10.6236 18.5407L10.6919 18.6138C10.8877 18.4309 11.1339 18.2143 11.4208 17.9619L11.4214 17.9613L11.4235 17.9595C12.4548 17.0523 13.937 15.7485 15.1613 14.1612C16.3859 12.5735 17.3609 10.6915 17.3609 8.62847C17.3608 6.59357 16.5682 4.67993 15.1293 3.24097C13.6904 1.80203 11.7767 1.00937 9.74178 1.00937C7.70685 1.00937 5.79314 1.80203 4.35424 3.24097C2.91531 4.67993 2.12266 6.59357 2.12266 8.62847C2.12266 10.6915 3.09764 12.5735 4.32226 14.1612C5.54657 15.7485 7.02888 17.0525 8.06016 17.9596L8.06208 17.9613C8.34928 18.214 8.59568 18.4307 8.79168 18.6138C9.05825 18.8628 9.4003 18.9872 9.74175 18.9872C10.0833 18.9872 10.4252 18.8628 10.6918 18.6138ZM10.6015 17.0293C10.3088 17.2868 10.0544 17.5105 9.84443 17.7067C9.78697 17.7603 9.69647 17.7603 9.63901 17.7066C9.42954 17.5109 9.17588 17.2878 8.88406 17.0311L8.88196 17.0293C7.91121 16.1753 6.52994 14.96 5.39094 13.5116C4.25102 12.062 3.36398 10.3915 3.36398 8.6285C3.36398 5.11191 6.22509 2.2508 9.74171 2.2508C13.2583 2.2508 16.1194 5.11191 16.1194 8.6285C16.1194 10.3916 15.2324 12.062 14.0925 13.5116C12.9535 14.96 11.5723 16.1753 10.6015 17.0293Z" fill="#727272" stroke="#727272" stroke-width="0.2"/>
<path d="M9.74328 4.93125C7.86092 4.93125 6.32969 6.46245 6.32969 8.34481C6.32969 10.2272 7.86092 11.7584 9.74328 11.7584C11.6256 11.7584 13.1568 10.2272 13.1568 8.34481C13.1568 6.46245 11.6256 4.93125 9.74328 4.93125ZM9.74328 10.5169C8.54562 10.5169 7.57108 9.5424 7.57108 8.34477C7.57108 7.14715 8.54562 6.17261 9.74328 6.17261C10.9409 6.17261 11.9154 7.14715 11.9154 8.34477C11.9154 9.5424 10.9409 10.5169 9.74328 10.5169Z" fill="#727272" stroke="#727272" stroke-width="0.2"/>
</g>
</svg>
