<svg width="111" height="95" viewBox="0 0 111 95" fill="none" xmlns="http://www.w3.org/2000/svg">
<g clip-path="url(#clip0_26500_84429)">
<path d="M90.8896 79.1737H19.0912C17.2123 79.1572 15.4168 78.3877 14.0996 77.0343C12.7824 75.6809 12.0514 73.8544 12.0673 71.9567V27.7161H97.9131V71.9567C97.9292 73.8544 97.1982 75.6808 95.8811 77.0343C94.5639 78.3877 92.7685 79.1572 90.8896 79.1737Z" fill="url(#paint0_linear_26500_84429)"/>
<path d="M51.7514 1.54078L12.0676 27.7157H97.9128L59.718 1.54078C58.6081 0.581572 57.1954 0.0544434 55.7347 0.0544434C54.274 0.0544434 52.8613 0.581572 51.7514 1.54078Z" fill="#DD6E00" fill-opacity="0.6"/>
<path d="M12.0673 31.0496L55.3238 53.1214L97.951 31.0499" stroke="white" stroke-opacity="0.84" stroke-dasharray="4 4"/>
<path opacity="0.996" d="M55.4835 50.2672L12.0676 27.7158H97.9134L55.4835 50.2672Z" fill="#DD6E00" fill-opacity="0.6"/>
<path d="M22.2814 6.48793L22.1942 33.4071L55.4385 50.1353L87.702 33.6601V6.48793C87.702 5.2309 87.2076 4.02535 86.3276 3.1365C85.4475 2.24764 84.254 1.74829 83.0094 1.74829H26.974C25.7295 1.74837 24.536 2.24775 23.6559 3.13659C22.7759 4.02542 22.2815 5.23092 22.2814 6.48793Z" fill="#F5E2E2"/>
</g>
<g opacity="0.6" filter="url(#filter0_d_26500_84429)">
<path d="M90.9809 77.2898H19.0382C17.1555 77.2744 15.3564 76.5496 14.0366 75.2751C12.7168 74.0005 11.9843 72.2804 12.0003 70.4932L55.4598 49.9749L92.5743 67.8678L98.0186 70.4927C98.0348 72.2799 97.3025 74.0001 95.9827 75.2748C94.6629 76.5495 92.8637 77.2744 90.9809 77.2898Z" fill="#DD6E00" fill-opacity="0.6" shape-rendering="crispEdges"/>
</g>
<path d="M31 17.5522H61" stroke="#DE181F" stroke-width="2" stroke-linecap="round" stroke-linejoin="round"/>
<path d="M31 26.3254H78.5849" stroke="#C4C4C4" stroke-width="2" stroke-linecap="round" stroke-linejoin="round"/>
<path d="M31 32.0085H78.5849" stroke="#C4C4C4" stroke-width="2" stroke-linecap="round" stroke-linejoin="round"/>
<ellipse rx="3.56359" ry="3.66478" transform="matrix(0.992021 -0.126071 0.119101 0.992882 55.3207 58.7724)" fill="white"/>
<g filter="url(#filter1_d_26500_84429)">
<path d="M90.8225 78.9794H19.0241C17.1452 78.963 15.3497 78.1934 14.0325 76.84C12.7153 75.4866 11.9843 73.6602 12.0003 71.7624L55.3726 49.9749L92.4127 68.9746L97.8461 71.7618C97.8623 73.6597 97.1314 75.4862 95.8142 76.8398C94.4971 78.1933 92.7015 78.963 90.8225 78.9794Z" fill="url(#paint1_linear_26500_84429)"/>
</g>
<ellipse cx="87.7598" cy="66.6863" rx="14.713" ry="15.1675" fill="url(#paint2_linear_26500_84429)"/>
<rect width="15.157" height="3.67698" rx="1.83849" transform="matrix(-1 9.01237e-08 8.48028e-08 1 95.3398 64.6196)" fill="white"/>
<ellipse cx="89.4999" cy="68.502" rx="16.4999" ry="16.9832" fill="url(#paint3_linear_26500_84429)"/>
<ellipse cx="89.4999" cy="68.502" rx="16.4999" ry="16.9832" fill="url(#paint4_linear_26500_84429)"/>
<rect width="17.2487" height="3.46413" rx="1.73207" transform="matrix(0.696828 -0.717238 0.696828 0.717238 82.1025 73.2605)" fill="white"/>
<rect width="17.2487" height="3.46413" rx="1.73207" transform="matrix(-0.696828 -0.717238 -0.696828 0.717238 96.8955 73.2605)" fill="white"/>
<defs>
<filter id="filter0_d_26500_84429" x="0" y="41.9749" width="110.019" height="51.3149" filterUnits="userSpaceOnUse" color-interpolation-filters="sRGB">
<feFlood flood-opacity="0" result="BackgroundImageFix"/>
<feColorMatrix in="SourceAlpha" type="matrix" values="0 0 0 0 0 0 0 0 0 0 0 0 0 0 0 0 0 0 127 0" result="hardAlpha"/>
<feOffset dy="4"/>
<feGaussianBlur stdDeviation="6"/>
<feComposite in2="hardAlpha" operator="out"/>
<feColorMatrix type="matrix" values="0 0 0 0 0.866667 0 0 0 0 0.431373 0 0 0 0 0 0 0 0 0.25 0"/>
<feBlend mode="normal" in2="BackgroundImageFix" result="effect1_dropShadow_26500_84429"/>
<feBlend mode="normal" in="SourceGraphic" in2="effect1_dropShadow_26500_84429" result="shape"/>
</filter>
<filter id="filter1_d_26500_84429" x="0" y="41.9749" width="109.846" height="53.0046" filterUnits="userSpaceOnUse" color-interpolation-filters="sRGB">
<feFlood flood-opacity="0" result="BackgroundImageFix"/>
<feColorMatrix in="SourceAlpha" type="matrix" values="0 0 0 0 0 0 0 0 0 0 0 0 0 0 0 0 0 0 127 0" result="hardAlpha"/>
<feOffset dy="4"/>
<feGaussianBlur stdDeviation="6"/>
<feComposite in2="hardAlpha" operator="out"/>
<feColorMatrix type="matrix" values="0 0 0 0 0.866667 0 0 0 0 0.431373 0 0 0 0 0 0 0 0 0.25 0"/>
<feBlend mode="normal" in2="BackgroundImageFix" result="effect1_dropShadow_26500_84429"/>
<feBlend mode="normal" in="SourceGraphic" in2="effect1_dropShadow_26500_84429" result="shape"/>
</filter>
<linearGradient id="paint0_linear_26500_84429" x1="54.9902" y1="27.7161" x2="55.2464" y2="69.7149" gradientUnits="userSpaceOnUse">
<stop stop-color="#FFBF74"/>
<stop offset="0.729167" stop-color="#F7A64A"/>
<stop offset="1" stop-color="#F4973B"/>
</linearGradient>
<linearGradient id="paint1_linear_26500_84429" x1="54.9232" y1="49.9749" x2="55.0046" y2="73.6485" gradientUnits="userSpaceOnUse">
<stop stop-color="#FFBF74"/>
<stop offset="0.729167" stop-color="#F7A64A"/>
<stop offset="1" stop-color="#F4973B"/>
</linearGradient>
<linearGradient id="paint2_linear_26500_84429" x1="74.4624" y1="66.6863" x2="101.994" y2="66.9914" gradientUnits="userSpaceOnUse">
<stop stop-color="#EA553F"/>
<stop offset="1" stop-color="#D32A30"/>
</linearGradient>
<linearGradient id="paint3_linear_26500_84429" x1="74.5875" y1="68.502" x2="105.463" y2="68.8447" gradientUnits="userSpaceOnUse">
<stop stop-color="#EA553F"/>
<stop offset="1" stop-color="#D32A30"/>
</linearGradient>
<linearGradient id="paint4_linear_26500_84429" x1="74.5875" y1="68.502" x2="105.463" y2="68.8447" gradientUnits="userSpaceOnUse">
<stop stop-color="#EA553F"/>
<stop offset="1" stop-color="#D32A30"/>
</linearGradient>
<clipPath id="clip0_26500_84429">
<rect width="86.0189" height="79.1193" fill="white" transform="translate(12 0.0544434)"/>
</clipPath>
</defs>
</svg>
