<svg width="343" height="248" viewBox="0 0 343 248" fill="none" xmlns="http://www.w3.org/2000/svg">
<rect width="343" height="248" rx="8" fill="white"/>
<path d="M315 112.5C315 98.2295 250.753 71.5 171.5 71.5C92.2471 71.5 28 98.2295 28 112.5C28 112.5 92.2471 112.5 171.5 112.5C250.753 112.5 315 112.5 315 112.5Z" fill="url(#paint0_linear_23557_41737)" fill-opacity="0.15"/>
<path d="M216 123.853C216 118.411 196.972 116 173.5 116C150.028 116 131 118.411 131 123.853C131 129.295 150.028 132 173.5 132C196.972 132 216 129.295 216 123.853Z" fill="#F78D8D" fill-opacity="0.15"/>
<rect x="125.305" y="44.2941" width="66.4496" height="76.1503" rx="7" transform="rotate(-7.03859 125.305 44.2941)" fill="url(#paint1_linear_23557_41737)"/>
<path d="M126.311 52.1108C125.369 48.0604 128.144 44.0861 132.271 43.5765L184.176 37.168C188.357 36.6517 192.044 39.9192 192.034 44.1324L192.025 47.5083C192.019 50.0314 190.134 52.1545 187.63 52.4594L132.536 59.1659C130.001 59.4744 127.641 57.8232 127.062 55.336L126.311 52.1108Z" fill="#DD6E00" fill-opacity="0.6"/>
<path d="M126.596 52.5122C125.249 48.3308 128.041 43.9562 132.401 43.4179L184.03 37.0434C188.406 36.5031 192.186 40.095 191.869 44.4932L191.725 46.5019C191.553 48.8842 189.721 50.8126 187.35 51.1053L132.589 57.8666C130.207 58.1607 127.953 56.7216 127.217 54.4379L126.596 52.5122Z" fill="url(#paint2_linear_23557_41737)"/>
<circle cx="158.526" cy="49.1391" r="3.89249" transform="rotate(-7.03859 158.526 49.1391)" fill="white"/>
<path opacity="0.2" d="M161.063 58.9188C161.79 52.8161 167.798 48.8072 173.712 50.4786L176.496 51.2653C179.733 52.1801 182.293 54.6612 183.309 57.8681L197.859 103.793C200.137 110.984 193.938 118.012 186.519 116.649L164.111 112.532C158.92 111.578 155.364 106.755 155.989 101.514L161.063 58.9188Z" fill="#9D031B" fill-opacity="0.5"/>
<rect x="164.389" y="49.4935" width="51.019" height="62.5693" rx="8" transform="rotate(10.7778 164.389 49.4935)" fill="url(#paint3_linear_23557_41737)"/>
<path opacity="0.2" d="M149.874 65.6677C149.924 60.0193 154.64 55.5339 160.284 55.7659L181.062 56.6201C186.352 56.8376 190.555 61.1395 190.65 66.4324L191.376 106.936C191.475 112.458 187.079 117.014 181.557 117.114L159.678 117.506C154.05 117.607 149.448 113.046 149.499 107.418L149.874 65.6677Z" fill="#9D031B" fill-opacity="0.5"/>
<path opacity="0.2" d="M154.008 64.9649C154.279 59.4593 158.953 55.2108 164.46 55.4663L191.632 56.7272C194.121 56.8427 196.478 57.8834 198.24 59.6454L199.682 61.0882L200.959 62.4928C202.813 64.5317 203.743 67.2451 203.53 69.9924L200.43 109.983C200.013 115.361 195.407 119.439 190.019 119.201L161.468 117.941C155.931 117.697 151.649 112.996 151.921 107.46L154.008 64.9649Z" fill="#9D031B" fill-opacity="0.5"/>
<path d="M152.036 62.9727C152.252 58.5682 155.992 55.1694 160.397 55.3738L190.336 56.7631C192.327 56.8555 194.212 57.6881 195.622 59.0977L197.612 61.0882L199.566 63.2378C200.992 64.8065 201.738 66.8771 201.638 68.9948L199.619 111.94C199.411 116.36 195.655 119.772 191.236 119.555L157.348 117.89C152.935 117.674 149.533 113.921 149.75 109.508L152.036 62.9727Z" fill="#F5E2E2"/>
<path d="M201.773 68.6146C201.773 68.2801 201.355 66.1058 201.265 65.6876L199.921 64.0151L198.352 62.5803L198.129 62.3426L194.993 59.4156C194.993 59.4156 193.936 58.8296 193.201 58.5793C192.305 58.2742 190.901 56.9068 190.901 56.9068L192.574 66.9421L201.773 71.1234C201.922 69.5902 201.773 68.9491 201.773 68.6146Z" fill="#DD6E00" fill-opacity="0.1"/>
<path d="M201.773 68.1965C201.773 67.862 201.773 65.6876 200.937 64.8514L199.682 63.1788L198.218 61.7441L198.01 61.5063L195.083 58.5793C195.083 58.5793 193.678 57.5752 192.992 57.3249C192.156 57.0198 190.901 56.9068 190.901 56.9068L193.41 66.1058L201.773 70.7053V68.1965Z" fill="#FDB96C"/>
<rect x="163.028" y="74.4685" width="27.6469" height="2.45882" transform="rotate(1.90456 163.028 74.4685)" fill="#DE181F"/>
<rect x="156.975" y="82.9081" width="37.5631" height="2.45882" transform="rotate(1.90456 156.975 82.9081)" fill="#C4C4C4"/>
<rect x="156.696" y="88.678" width="37.5631" height="2.45882" transform="rotate(1.90456 156.696 88.678)" fill="#C4C4C4"/>
<circle cx="203.5" cy="110.5" r="16.5" fill="url(#paint4_linear_23557_41737)"/>
<rect width="16.998" height="4" rx="2" transform="matrix(-1 8.74228e-08 8.74228e-08 1 212 108.252)" fill="white"/>
<circle cx="203.448" cy="110.5" r="16.5" fill="url(#paint5_linear_23557_41737)"/>
<circle cx="203.448" cy="110.5" r="16.5" fill="url(#paint6_linear_23557_41737)"/>
<rect x="196.052" y="115.123" width="16.998" height="3.41379" rx="1.7069" transform="rotate(-45 196.052 115.123)" fill="white"/>
<rect width="16.998" height="3.41379" rx="1.7069" transform="matrix(-0.707107 -0.707107 -0.707107 0.707107 210.845 115.123)" fill="white"/>
<defs>
<linearGradient id="paint0_linear_23557_41737" x1="171.03" y1="70.0561" x2="171.03" y2="112.29" gradientUnits="userSpaceOnUse">
<stop stop-color="#F78D8D"/>
<stop offset="1" stop-color="white"/>
</linearGradient>
<linearGradient id="paint1_linear_23557_41737" x1="158.287" y1="53.7566" x2="158.287" y2="130.132" gradientUnits="userSpaceOnUse">
<stop stop-color="#FFBF74"/>
<stop offset="1" stop-color="#F4973B"/>
</linearGradient>
<linearGradient id="paint2_linear_23557_41737" x1="156.984" y1="34.9642" x2="159.986" y2="56.4222" gradientUnits="userSpaceOnUse">
<stop stop-color="#FFBF74"/>
<stop offset="1" stop-color="#F4973B"/>
</linearGradient>
<linearGradient id="paint3_linear_23557_41737" x1="193.021" y1="-24.3356" x2="189.557" y2="119.417" gradientUnits="userSpaceOnUse">
<stop stop-color="#FFC59A"/>
<stop offset="0.774583" stop-color="#FF826E"/>
<stop offset="1" stop-color="#FF7062"/>
</linearGradient>
<linearGradient id="paint4_linear_23557_41737" x1="188.587" y1="110.5" x2="219.463" y2="110.853" gradientUnits="userSpaceOnUse">
<stop stop-color="#EA553F"/>
<stop offset="1" stop-color="#D32A30"/>
</linearGradient>
<linearGradient id="paint5_linear_23557_41737" x1="188.536" y1="110.5" x2="219.411" y2="110.853" gradientUnits="userSpaceOnUse">
<stop stop-color="#EA553F"/>
<stop offset="1" stop-color="#D32A30"/>
</linearGradient>
<linearGradient id="paint6_linear_23557_41737" x1="188.536" y1="110.5" x2="219.411" y2="110.853" gradientUnits="userSpaceOnUse">
<stop stop-color="#EA553F"/>
<stop offset="1" stop-color="#D32A30"/>
</linearGradient>
</defs>
</svg>
