<svg width="288" height="121" viewBox="0 0 288 121" fill="none" xmlns="http://www.w3.org/2000/svg">
<path d="M287.318 91.0029C287.318 76.7324 223.071 50.0029 143.818 50.0029C64.5655 50.0029 0.318359 76.7324 0.318359 91.0029C0.318359 91.0029 64.5655 91.0029 143.818 91.0029C223.071 91.0029 287.318 91.0029 287.318 91.0029Z" fill="url(#paint0_linear_26578_49144)" fill-opacity="0.15"/>
<path d="M188.318 104.856C188.318 99.4144 168.395 97.0029 143.818 97.0029C119.242 97.0029 99.3184 99.4144 99.3184 104.856C99.3184 110.298 119.242 113.003 143.818 113.003C168.395 113.003 188.318 110.298 188.318 104.856Z" fill="#F78D8D" fill-opacity="0.15"/>
<g clip-path="url(#clip0_26578_49144)">
<path d="M112.819 86.8716C114.645 84.9427 120.067 80.2439 120.067 78.6992C120.197 76.0019 118.899 63.268 119.256 61.8914C119.613 60.5147 123.038 53.7916 123.687 51.4866C124.337 49.1815 126.431 41.3299 126.301 39.2729C126.561 36.3115 125.643 34.5107 125.903 34.1265C126.561 33.3261 130.862 31.2932 134.645 41.2018C135.456 45.5718 134.385 52.0068 133.833 54.1918C135.399 54.1918 136.308 52.9032 136.179 53.2874C136.049 53.6716 160.65 82.701 160.65 82.701C154.773 87.3352 139.636 97.3558 137.68 97.3558C136.244 97.6119 131.081 104.624 131.081 104.624C126.779 108.354 109.953 94.0749 112.819 86.8716Z" fill="url(#paint1_linear_26578_49144)"/>
<path d="M136.244 53.167C135.646 53.6501 134.934 53.9752 134.174 54.1114C133.695 55.2079 132.689 56.6806 132.819 59.1778C133.143 65.6528 134.442 71.7836 132.007 80.2836C131.195 84.4295 134.929 86.1583 137.153 85.47C140.188 85.0057 158.312 84.3174 145.545 92.6253C145.359 92.7453 145.383 92.9694 145.44 93.2095C150.707 89.904 157.241 85.3899 160.658 82.7007C160.658 82.7007 136.122 53.6232 136.252 53.231C136.26 53.223 136.26 53.167 136.244 53.167Z" fill="#F9AE84"/>
<path d="M134.929 95.6428C133.434 94.2261 132.424 92.3853 132.039 90.3764C131.942 88.8317 131.447 88.4475 130.667 88.3514C123.046 86.5506 121.082 81.4362 120.692 81.6283C121.179 86.7427 126.065 89.4399 128.711 90.7926C130.083 91.3608 130.286 92.6654 131.146 95.0345C131.958 97.1475 133.054 100.085 133.111 101.782C134.961 99.6287 136.966 97.4837 137.672 97.3556C137.997 97.3556 135.984 96.6273 134.929 95.6428Z" fill="#F9AE84"/>
<path d="M162.492 36.7432C166.599 34.046 174.131 29.9001 176.769 29.1237C179.512 28.1633 184.309 31.925 180.389 35.5907C179.22 36.8393 174.034 39.7366 171.461 40.8972C169.545 42.235 167.55 43.4591 165.487 44.5629C165.325 42.818 162.492 36.7432 162.492 36.7432Z" fill="#F4C392"/>
<path d="M173.855 36.1183C172.508 34.9498 172.232 32.5807 172.573 31.0439C169.781 32.5486 164.602 35.3579 162.492 36.7426C162.492 36.7426 165.325 42.8254 165.52 44.5622C167.583 43.4584 169.578 42.2344 171.493 40.8965C174.072 39.6776 176.561 38.2843 178.944 36.7266C176.664 37.5029 175.178 37.2708 173.855 36.1183Z" fill="#F9AE84"/>
<path d="M171.64 78.6347V15.0373C171.64 12.2569 169.354 10.0029 166.534 10.0029L139.596 10.0029C136.776 10.0029 134.491 12.2569 134.491 15.0373V78.6347C134.491 81.4151 136.776 83.6691 139.596 83.6691H166.534C169.354 83.6691 171.64 81.4151 171.64 78.6347Z" fill="#35322F"/>
<path d="M166.526 10.46H139.596C137.032 10.46 134.953 12.5097 134.953 15.0381V78.6275C134.953 81.156 137.032 83.2057 139.596 83.2057H166.526C169.09 83.2057 171.169 81.156 171.169 78.6275V15.0381C171.169 12.5097 169.09 10.46 166.526 10.46Z" fill="#5B5C5E"/>
<g style="mix-blend-mode:multiply" opacity="0.6">
<path d="M171.639 72.9114V47.8838C171.347 47.8838 171.079 47.8838 170.762 47.8838C170.762 48.8362 170.762 50.8692 170.762 50.8692C169.602 51.3974 164.156 55.4473 168.888 59.5852C167.013 61.0819 164.691 62.1384 166.12 65.4759C166.834 66.7085 167.281 67.4128 167.743 67.5009C166.12 68.8215 166.225 72.167 169.797 72.7833C170.407 72.8695 171.023 72.9123 171.639 72.9114Z" fill="#00737B"/>
</g>
<g style="mix-blend-mode:multiply" opacity="0.6">
<path d="M162.857 80.3551C160.857 76.6233 159.313 72.6714 158.255 68.5816C157.143 64.1156 155.82 60.1937 152.33 61.4983C148.84 62.8029 150.512 69.5981 151.031 71.583C151.551 73.5679 152.606 78.1301 152.987 79.7788C153.257 81.0423 153.615 82.2858 154.059 83.5005H163.669C163.458 82.9963 163.1 80.7873 162.857 80.3551Z" fill="#00737B"/>
</g>
<g style="mix-blend-mode:screen" opacity="0.35">
<path d="M166.534 10.46H139.596C138.365 10.4621 137.185 10.9451 136.315 11.8032C135.445 12.6613 134.955 13.8245 134.953 15.0381V15.4863C134.955 14.2727 135.445 13.1095 136.315 12.2514C137.185 11.3933 138.365 10.9103 139.596 10.9082H166.534C167.764 10.9124 168.943 11.3961 169.812 12.2537C170.682 13.1114 171.173 14.2734 171.177 15.4863V15.0381C171.173 13.8252 170.682 12.6632 169.812 11.8055C168.943 10.9479 167.764 10.4642 166.534 10.46V10.46Z" fill="white"/>
</g>
<path d="M150.245 13.2047C150.173 13.2137 150.099 13.2074 150.03 13.1864C149.961 13.1654 149.897 13.13 149.842 13.0827C149.788 13.0354 149.744 12.9772 149.714 12.912C149.684 12.8467 149.669 12.776 149.669 12.7044C149.669 12.6329 149.684 12.5621 149.714 12.4969C149.744 12.4317 149.788 12.3734 149.842 12.3261C149.897 12.2788 149.961 12.2435 150.03 12.2224C150.099 12.2014 150.173 12.1952 150.245 12.2042H156.478C156.55 12.1952 156.623 12.2014 156.693 12.2224C156.762 12.2435 156.826 12.2788 156.88 12.3261C156.935 12.3734 156.978 12.4317 157.008 12.4969C157.038 12.5621 157.054 12.6329 157.054 12.7044C157.054 12.776 157.038 12.8467 157.008 12.912C156.978 12.9772 156.935 13.0354 156.88 13.0827C156.826 13.13 156.762 13.1654 156.693 13.1864C156.623 13.2074 156.55 13.2137 156.478 13.2047H150.245Z" fill="#2B2B2B"/>
<path d="M158.142 13.2044C158.042 13.2044 157.945 13.1753 157.862 13.1207C157.78 13.0662 157.715 12.9887 157.677 12.898C157.639 12.8074 157.629 12.7076 157.648 12.6113C157.668 12.5151 157.716 12.4267 157.786 12.3573C157.856 12.2879 157.946 12.2406 158.044 12.2214C158.141 12.2023 158.243 12.2121 158.334 12.2497C158.426 12.2872 158.505 12.3508 158.56 12.4325C158.616 12.5141 158.645 12.61 158.645 12.7081C158.645 12.8398 158.592 12.966 158.498 13.059C158.403 13.1521 158.275 13.2044 158.142 13.2044V13.2044Z" fill="#2B2B2B"/>
<path d="M138.436 9.23828L166.937 9.23828C167.982 9.23828 168.985 9.65359 169.725 10.3929C170.465 11.1323 170.88 12.1351 170.881 13.181L170.881 81.4581C170.881 82.5043 170.466 83.5078 169.726 84.2476C168.986 84.9875 167.983 85.4031 166.937 85.4031L138.633 85.4031C137.589 85.4031 136.588 84.9891 135.848 84.2518C135.109 83.5146 134.692 82.5142 134.689 81.47L134.491 13.1929C134.49 12.674 134.591 12.16 134.789 11.6802C134.986 11.2005 135.277 10.7645 135.643 10.3971C136.009 10.0298 136.445 9.73835 136.924 9.53949C137.403 9.34064 137.917 9.23828 138.436 9.23828Z" fill="white"/>
<path d="M172.354 26.2611L172.354 14.0052C172.354 12.5188 171.772 11.0931 170.737 10.0408C169.702 8.98846 168.298 8.39537 166.832 8.3916L139.948 8.3916C138.425 8.39034 136.964 9.00166 135.885 10.0914C134.807 11.1812 134.199 12.6603 134.194 14.2043L134.194 18.7084C134.11 18.7084 134.029 18.7415 133.969 18.8007C133.908 18.86 133.872 18.9408 133.869 19.0261L133.869 21.3279C133.868 21.3721 133.875 21.4161 133.891 21.4573C133.906 21.4985 133.93 21.5361 133.96 21.5678C133.991 21.5995 134.027 21.6246 134.067 21.6416C134.108 21.6587 134.151 21.6673 134.194 21.6669L134.194 24.3955C134.108 24.3955 134.025 24.4302 133.965 24.492C133.904 24.5538 133.869 24.6376 133.869 24.725L133.869 29.6582C133.869 29.7456 133.904 29.8294 133.965 29.8912C134.025 29.953 134.108 29.9877 134.194 29.9877L134.194 31.6234C134.151 31.6234 134.108 31.6322 134.068 31.6492C134.028 31.6662 133.992 31.6911 133.962 31.7224C133.932 31.7538 133.908 31.7909 133.892 31.8318C133.876 31.8726 133.868 31.9162 133.869 31.96L133.869 36.8932C133.869 36.9806 133.904 37.0644 133.965 37.1262C134.025 37.188 134.108 37.2227 134.194 37.2227L134.194 81.2684C134.2 82.8132 134.808 84.2932 135.886 85.3849C136.964 86.4766 138.424 87.0915 139.948 87.0953L166.832 87.0953C168.298 87.0909 169.703 86.4983 170.74 85.447C171.777 84.3956 172.361 82.9709 172.365 81.4841L172.365 35.3595L172.475 35.3595C172.518 35.3595 172.56 35.3509 172.599 35.3343C172.639 35.3177 172.674 35.2934 172.704 35.2628C172.734 35.2322 172.758 35.1958 172.774 35.1559C172.79 35.1159 172.798 35.0731 172.798 35.03L172.798 26.5883C172.798 26.5015 172.764 26.4183 172.703 26.3569C172.643 26.2956 172.561 26.2611 172.475 26.2611L172.354 26.2611ZM157.899 10.8973C157.899 10.9911 157.872 11.0828 157.82 11.1607C157.769 11.2387 157.696 11.2995 157.611 11.3353C157.525 11.3712 157.431 11.3806 157.34 11.3623C157.25 11.344 157.166 11.2989 157.101 11.2326C157.036 11.1663 156.991 11.0818 156.973 10.9898C156.955 10.8978 156.964 10.8025 157 10.7159C157.035 10.6292 157.095 10.5552 157.172 10.5031C157.249 10.451 157.339 10.4232 157.432 10.4232C157.556 10.4232 157.675 10.4732 157.762 10.5621C157.85 10.651 157.899 10.7716 157.899 10.8973ZM151.466 10.8025L155.674 10.8025C155.713 10.7986 155.752 10.8026 155.79 10.8144C155.828 10.8261 155.863 10.8454 155.893 10.871C155.923 10.8966 155.948 10.928 155.966 10.9635C155.984 10.9989 155.995 11.0377 155.999 11.0775C155.995 11.1173 155.984 11.1561 155.966 11.1915C155.948 11.227 155.923 11.2584 155.893 11.284C155.863 11.3096 155.828 11.3288 155.79 11.3406C155.752 11.3523 155.713 11.3564 155.674 11.3525L151.466 11.3525C151.427 11.3564 151.387 11.3523 151.35 11.3405C151.312 11.3288 151.277 11.3095 151.247 11.2839C151.217 11.2582 151.193 11.2268 151.175 11.1913C151.157 11.1559 151.146 11.1172 151.143 11.0775C151.146 11.0378 151.157 10.9991 151.175 10.9636C151.193 10.9282 151.217 10.8967 151.247 10.8711C151.277 10.8455 151.312 10.8262 151.35 10.8144C151.387 10.8027 151.427 10.7986 151.466 10.8025ZM170.301 81.0171C170.301 82.9301 168.898 84.573 167.028 84.573L140.102 84.573C139.175 84.5555 138.291 84.176 137.633 83.5136C136.975 82.8511 136.595 81.9568 136.572 81.0171L136.572 13.7871C136.572 11.874 138.208 10.4682 140.102 10.4682L143.22 10.4682C143.877 10.4682 144.12 10.39 144.156 11.2363C144.169 11.6328 144.323 12.011 144.59 12.3007C144.867 12.596 145.214 12.8139 145.598 12.9337C145.878 13.0307 146.17 13.0858 146.465 13.0972L160.688 13.0972C160.985 13.0804 161.277 13.0189 161.556 12.9147C161.937 12.7995 162.284 12.5883 162.563 12.3007C162.831 12.0199 162.986 11.648 162.998 11.2577C163.038 10.4113 163.281 10.4682 163.933 10.4682L167.019 10.4682C167.452 10.4548 167.884 10.5314 168.287 10.6934C168.69 10.8554 169.056 11.0994 169.363 11.4103C169.669 11.7212 169.91 12.0925 170.07 12.5012C170.229 12.91 170.305 13.3476 170.292 13.7871L170.301 81.0171Z" fill="url(#paint2_linear_26578_49144)"/>
<path d="M154.9 11.7729L150.695 11.7729C150.656 11.7691 150.617 11.7731 150.579 11.7847C150.542 11.7963 150.507 11.8153 150.477 11.8405C150.447 11.8657 150.422 11.8967 150.405 11.9317C150.387 11.9666 150.376 12.0047 150.373 12.0438C150.376 12.083 150.387 12.1211 150.405 12.156C150.422 12.1909 150.447 12.2219 150.477 12.2472C150.507 12.2724 150.542 12.2914 150.579 12.303C150.617 12.3146 150.656 12.3186 150.695 12.3148L154.9 12.3148C154.939 12.3186 154.978 12.3147 155.016 12.3031C155.054 12.2915 155.088 12.2725 155.119 12.2473C155.149 12.2221 155.174 12.1911 155.192 12.1562C155.21 12.1213 155.221 12.0831 155.224 12.0438C155.221 12.0046 155.21 11.9664 155.192 11.9315C155.174 11.8966 155.149 11.8656 155.119 11.8404C155.088 11.8152 155.054 11.7962 155.016 11.7846C154.978 11.773 154.939 11.7691 154.9 11.7729V11.7729Z" fill="white"/>
<path d="M156.639 11.3955C156.547 11.3955 156.456 11.4229 156.379 11.4742C156.303 11.5256 156.243 11.5985 156.207 11.6839C156.172 11.7692 156.163 11.8632 156.181 11.9538C156.199 12.0444 156.243 12.1276 156.309 12.193C156.374 12.2583 156.457 12.3028 156.548 12.3208C156.638 12.3388 156.732 12.3296 156.818 12.2942C156.903 12.2589 156.976 12.199 157.027 12.1222C157.079 12.0453 157.106 11.955 157.106 11.8626C157.106 11.7388 157.057 11.6199 156.969 11.5323C156.882 11.4447 156.763 11.3955 156.639 11.3955Z" fill="white"/>
<path d="M171.679 46.3881C171.679 47.3406 171.679 49.3815 171.679 49.3815C170.519 49.9098 165.073 53.9516 169.805 58.0896C167.93 59.5863 165.608 60.6427 167.037 63.9883C167.751 65.2129 168.198 65.9172 168.66 66.0052C167.037 67.3258 167.142 70.6714 170.714 71.2877C171.947 71.4775 173.202 71.491 174.439 71.3277C175.997 71.0956 178.643 69.863 179.309 68.8305C179.788 67.8245 179.881 66.6813 179.57 65.6129C179.26 64.5444 178.567 63.6232 177.621 63.0198C179.406 60.8188 180.478 59.5863 178.514 54.8321C180.048 52.9832 180.421 46.2121 171.679 46.3881Z" fill="#F4C392"/>
<path d="M175.105 46.8209C173.995 46.4951 172.838 46.3518 171.68 46.3967C171.68 47.2771 171.68 49.3901 171.68 49.3901C171.81 48.7338 173.969 47.3892 175.105 46.8209ZM169.789 58.0902L169.61 58.2342C170.545 58.7184 171.634 58.8247 172.646 58.5304C173.62 58.3063 177.053 56.1293 178.595 55.2248C178.547 55.0888 178.498 54.9687 178.441 54.8326C178.384 54.6966 178.514 54.7446 178.555 54.6966L178.441 54.7446C177.459 55.2729 174.87 56.8496 172.825 57.2978C170.3 57.842 168.336 54.9607 168.101 53.2959C167.622 54.7286 167.857 56.4254 169.789 58.0902ZM169.7 67.1504C170.617 66.7022 175.633 64.7492 178.125 63.4286C177.944 63.2773 177.751 63.1408 177.548 63.0204L177.776 62.7483C176.057 63.7152 174.25 64.5192 172.378 65.1494C169.253 66.0298 166.875 63.0044 166.591 62.028C166.583 62.7155 166.73 63.3961 167.021 64.0209C167.736 65.2455 168.182 65.9498 168.645 66.0378C168.234 66.4053 167.934 66.8768 167.777 67.4008C167.62 67.9248 167.612 68.4814 167.753 69.0097C167.895 69.5381 168.181 70.018 168.58 70.3972C168.979 70.7764 169.476 71.0404 170.016 71.1602H170.162C168.718 69.9677 168.539 68.0308 169.7 67.1504Z" fill="#F9AE84"/>
<rect width="16.5407" height="32.1392" rx="8" transform="matrix(0.669653 -0.742361 -0.750353 -0.661416 130.151 110.564)" fill="url(#paint3_linear_26578_49144)"/>
<ellipse rx="1.79361" ry="1.7367" transform="matrix(0.482622 -0.87317 -0.89012 -0.461136 117.491 83.9299)" fill="white"/>
<rect x="140.318" y="25.0029" width="26.0002" height="5.45455" rx="1" fill="url(#paint4_linear_26578_49144)"/>
<path d="M141.131 33.1846H153.318" stroke="#DE181F" stroke-linecap="round" stroke-linejoin="round"/>
<path d="M141.131 35.9082H165.506" stroke="#C4C4C4" stroke-linecap="round" stroke-linejoin="round"/>
<path d="M141.131 38.6367H165.506" stroke="#C4C4C4" stroke-linecap="round" stroke-linejoin="round"/>
<rect x="140.318" y="44.0029" width="26.0002" height="5.45455" rx="1" fill="url(#paint5_linear_26578_49144)"/>
<path d="M141.131 52.1846H153.318" stroke="#DE181F" stroke-linecap="round" stroke-linejoin="round"/>
<path d="M141.131 54.9082H165.506" stroke="#C4C4C4" stroke-linecap="round" stroke-linejoin="round"/>
<path d="M141.131 57.6367H165.506" stroke="#C4C4C4" stroke-linecap="round" stroke-linejoin="round"/>
<rect width="15.0607" height="3.54968" rx="1.77484" transform="matrix(-1 8.75592e-08 8.72865e-08 1 178.502 76.6492)" fill="white"/>
<ellipse cx="169.525" cy="78.9682" rx="15.1588" ry="15.1825" fill="url(#paint6_linear_26578_49144)"/>
<rect width="15.6163" height="3.68062" rx="1.84031" transform="matrix(-1 8.75599e-08 8.72859e-08 1 177.334 76.9001)" fill="white"/>
<ellipse cx="171.318" cy="80.7856" rx="16.9999" ry="17" fill="url(#paint7_linear_26578_49144)"/>
<ellipse cx="171.318" cy="80.7856" rx="16.9999" ry="17" fill="url(#paint8_linear_26578_49144)"/>
<rect width="17.513" height="3.51723" rx="1.75861" transform="matrix(0.707104 -0.707109 0.707104 0.707109 163.696 85.5488)" fill="white"/>
<rect width="17.513" height="3.51723" rx="1.75861" transform="matrix(-0.707104 -0.707109 -0.707104 0.707109 178.938 85.5488)" fill="white"/>
</g>
<defs>
<linearGradient id="paint0_linear_26578_49144" x1="143.348" y1="48.559" x2="143.348" y2="90.7931" gradientUnits="userSpaceOnUse">
<stop stop-color="#F78D8D"/>
<stop offset="1" stop-color="white"/>
</linearGradient>
<linearGradient id="paint1_linear_26578_49144" x1="137.145" y1="52.9396" x2="121.192" y2="163.2" gradientUnits="userSpaceOnUse">
<stop stop-color="#FFC59A"/>
<stop offset="0.774583" stop-color="#FF826E"/>
<stop offset="1" stop-color="#FF7062"/>
</linearGradient>
<linearGradient id="paint2_linear_26578_49144" x1="153.333" y1="8.3916" x2="153.333" y2="87.0953" gradientUnits="userSpaceOnUse">
<stop stop-color="#EA6544"/>
<stop offset="1" stop-color="#D12A1E"/>
</linearGradient>
<linearGradient id="paint3_linear_26578_49144" x1="-18.3098" y1="-40.4979" x2="2.64309" y2="32.3443" gradientUnits="userSpaceOnUse">
<stop stop-color="#FFC59A"/>
<stop offset="1" stop-color="#F95849"/>
</linearGradient>
<linearGradient id="paint4_linear_26578_49144" x1="153.318" y1="25.0029" x2="153.328" y2="29.455" gradientUnits="userSpaceOnUse">
<stop stop-color="#FFBF74"/>
<stop offset="0.729167" stop-color="#F7A64A"/>
<stop offset="1" stop-color="#F4973B"/>
</linearGradient>
<linearGradient id="paint5_linear_26578_49144" x1="153.318" y1="44.0029" x2="153.328" y2="48.455" gradientUnits="userSpaceOnUse">
<stop stop-color="#FFBF74"/>
<stop offset="0.729167" stop-color="#F7A64A"/>
<stop offset="1" stop-color="#F4973B"/>
</linearGradient>
<linearGradient id="paint6_linear_26578_49144" x1="155.825" y1="78.9682" x2="184.19" y2="79.2917" gradientUnits="userSpaceOnUse">
<stop stop-color="#EA553F"/>
<stop offset="1" stop-color="#D32A30"/>
</linearGradient>
<linearGradient id="paint7_linear_26578_49144" x1="155.954" y1="80.7856" x2="187.765" y2="81.149" gradientUnits="userSpaceOnUse">
<stop stop-color="#EA553F"/>
<stop offset="1" stop-color="#D32A30"/>
</linearGradient>
<linearGradient id="paint8_linear_26578_49144" x1="155.954" y1="80.7856" x2="187.765" y2="81.149" gradientUnits="userSpaceOnUse">
<stop stop-color="#EA553F"/>
<stop offset="1" stop-color="#D32A30"/>
</linearGradient>
<clipPath id="clip0_26578_49144">
<rect width="90" height="120" fill="white" transform="translate(99.3184 0.00292969)"/>
</clipPath>
</defs>
</svg>
