<svg width="302" height="128" viewBox="0 0 302 128" fill="none" xmlns="http://www.w3.org/2000/svg">
<path d="M261.082 30.3084C261.497 23.1085 259.873 16.4689 256.222 10.3071C255.799 9.59298 255.559 8.75122 255.351 7.93843C255.196 7.3341 255.424 6.74738 255.893 6.29471C256.387 5.81391 256.844 5.76855 257.287 6.29793C257.8 6.89402 258.24 7.54921 258.597 8.2496C260.296 11.7355 261.134 15.4788 261.594 19.3087C261.999 22.7051 261.982 26.1002 261.342 29.4747C261.304 29.6778 261.257 29.8808 261.207 30.081C261.172 30.1605 261.131 30.2367 261.082 30.3084Z" fill="#FFC172"/>
<path d="M251.755 28.1302C250.426 27.125 249.145 26.0443 247.757 25.1319C245.089 23.3697 242.148 22.4927 238.919 22.7507C238.775 22.763 238.63 22.7742 238.484 22.777C238.034 22.7841 237.548 22.8807 237.363 22.2727C237.178 21.6647 237.342 20.9976 237.932 20.7951C238.596 20.5679 239.352 20.3992 240.038 20.4741C243.234 20.8211 246.099 21.994 248.477 24.2129C249.231 24.9184 249.9 25.7198 250.589 26.4887C251.047 26.9967 251.483 27.525 251.929 28.0441L251.755 28.1302Z" fill="#FFC172"/>
<path d="M276.2 15.7319C280.378 12.3289 285.036 10.8497 290.389 12.2854C290.882 12.438 291.342 12.6816 291.745 13.0035C292.193 13.3397 292.331 13.8461 292.128 14.4C291.893 15.0414 291.562 15.188 290.921 14.9467C285.464 12.8888 281.525 13.1097 276.2 15.7319Z" fill="#FFC172"/>
<path d="M247.779 35.3943C244.763 34.1791 241.673 33.7124 238.475 34.067C236.632 34.2721 234.94 34.9347 233.339 35.857C232.44 36.3724 232.187 36.3615 231.83 35.8519C231.413 35.2612 231.479 34.5116 232.134 34.0341C232.698 33.6143 233.325 33.2872 233.992 33.0653C238.868 31.5248 243.364 32.4905 247.584 35.2022C247.655 35.2598 247.721 35.3241 247.779 35.3943Z" fill="#FFC172"/>
<path d="M280.432 32.032C285.648 32.4391 289.924 34.4698 292.879 38.8813C293.206 39.359 293.435 39.8974 293.551 40.4649C293.618 40.9063 293.518 41.3567 293.271 41.7283C292.736 42.4453 291.959 42.2904 291.607 41.4402C290.878 39.6785 289.94 38.0486 288.553 36.7247C286.44 34.688 283.874 33.1819 281.066 32.3304C280.887 32.2765 280.709 32.2194 280.533 32.1578C280.503 32.1469 280.486 32.1001 280.432 32.032Z" fill="#FFC172"/>
<path d="M249.649 14.8113C248.037 13.0764 246.141 11.7323 244.033 10.6754C241.804 9.53626 239.3 9.04797 236.807 9.26649C236.686 9.27796 236.559 9.28117 236.435 9.28628C235.977 9.3077 235.5 9.38792 235.327 8.77944C235.154 8.17096 235.345 7.5045 235.912 7.29963C236.498 7.08711 237.161 6.92863 237.774 6.97975C241.9 7.329 245.292 9.14246 247.965 12.2903C248.617 13.0592 249.19 13.8951 249.799 14.6987L249.649 14.8113Z" fill="#FFC172"/>
<path d="M262.097 41.1291C265.694 40.7687 269.052 41.4738 272.029 43.532C274.812 45.4579 277.089 47.884 278.553 50.9811C278.86 51.6253 279.018 52.3492 279.201 53.0472C279.3 53.4201 279.258 53.8143 278.801 53.9703C278.307 54.1382 278.2 53.7094 278.049 53.4184C277.206 51.8039 276.472 50.1236 275.533 48.5685C272.604 43.7151 268.082 41.5793 262.584 41.197C262.46 41.1876 262.336 41.1819 262.212 41.1691C262.172 41.1601 262.134 41.1467 262.097 41.1291Z" fill="#FFC172"/>
<path d="M257.284 40.3338C255.355 39.8143 253.361 39.5733 251.364 39.6181C247.366 39.726 244.032 41.3602 241.167 44.0431C240.231 44.9214 239.385 45.8975 238.478 46.8019C238.194 47.0834 237.94 47.6444 237.432 47.3128C236.847 46.9307 237.202 46.4061 237.461 46.0016C237.805 45.4622 238.172 44.9181 238.628 44.4777C241.925 41.2921 245.792 39.281 250.427 38.9854C252.823 38.8347 255.118 39.3353 257.284 40.3338Z" fill="#FFC172"/>
<path d="M264.635 24.0659C265.058 22.8503 265.538 21.6511 265.895 20.4166C267.236 15.7822 267.445 11.0665 266.825 6.29592C266.758 5.68155 266.772 5.06104 266.867 4.45042C266.904 4.22545 267.195 3.89289 267.398 3.87209C267.602 3.85129 267.94 4.14971 267.997 4.36587C268.188 5.09977 268.391 5.85697 268.393 6.61159C268.41 11.4172 267.828 16.1393 266.178 20.6811C265.753 21.8451 265.215 22.9661 264.723 24.1052L264.635 24.0659Z" fill="#FFC172"/>
<path d="M276.133 24.733C277.064 24.3072 277.978 23.8405 278.929 23.463C283.677 21.5856 288.64 20.8562 293.717 20.821C294.302 20.8177 294.901 21.0009 295.468 21.1768C295.676 21.2412 295.974 21.5736 295.942 21.7207C295.892 21.9506 295.621 22.2412 295.395 22.2822C294.831 22.4023 294.253 22.439 293.679 22.3911C288.557 21.8351 283.536 22.2398 278.642 23.8952C277.812 24.1766 277.007 24.5348 276.19 24.8577C276.171 24.819 276.152 24.7766 276.133 24.733Z" fill="#FFC172"/>
<path d="M260.153 41.6547C261.737 42.6391 262.678 44.0995 263.237 45.8098C263.939 47.9536 264.295 50.1573 264.131 52.4211C264.108 52.7493 264.076 53.1057 263.93 53.3867C263.806 53.6249 263.502 53.9282 263.292 53.9193C263.028 53.9078 262.641 53.6575 262.549 53.4178C262.375 52.9675 262.33 52.4522 262.308 51.9597C262.245 50.4029 262.261 48.8504 262.166 47.2969C262.04 45.2339 261.492 43.2968 260.153 41.6547Z" fill="#FFC172"/>
<path d="M258.216 41.3357C256.38 41.8287 254.586 42.4546 253.045 43.5698C252.047 44.2728 251.133 45.0885 250.322 46.0007C249.205 47.2902 248.834 48.8472 249.278 50.5439C249.379 50.9278 249.527 51.4489 249.085 51.5834C248.835 51.6539 248.336 51.2903 248.136 50.9964C247.613 50.2305 247.708 49.3546 248.038 48.5453C249.185 45.7428 251.247 43.8013 253.93 42.4869C255.269 41.8245 256.725 41.4332 258.216 41.3357Z" fill="#FFC172"/>
<path d="M252.391 7.10833C251.94 6.21944 251.562 5.3734 251.094 4.57941C250.207 3.07555 248.969 1.94822 247.327 1.29116C247.029 1.17171 246.648 1.07704 246.812 0.604982C246.961 0.176842 247.294 0.0614897 247.705 0.130117C247.868 0.156554 248.026 0.211307 248.17 0.291911C250.792 1.78729 252.052 4.12466 252.391 7.10833Z" fill="#FFC172"/>
<path d="M261.679 40.0213C261.65 40.0543 261.596 39.9846 261.624 39.9502C264.24 36.7315 268.008 34.6577 272.131 34.1723C276.157 33.6895 280.131 33.8667 284.014 35.1096C284.779 35.3518 285.506 35.726 286.238 36.0711C286.515 36.2013 286.813 36.3742 286.984 36.6112C286.998 36.6311 287.013 36.6515 287.026 36.6722C287.313 37.1105 286.921 37.8913 286.416 37.7511C284.738 37.2844 283.084 36.7267 281.406 36.2588C278.553 35.4614 275.645 34.9466 272.674 35.0771C268.683 35.2516 265.244 36.8261 262.283 39.4792C262.086 39.6546 261.891 39.8315 261.694 40.0058C261.686 40.0134 261.687 40.0128 261.679 40.0213Z" fill="url(#paint0_linear)"/>
<path d="M260.824 38.6337C261.239 35.141 262.514 31.9879 264.818 29.3455C267.965 25.7385 271.623 22.7156 275.892 20.5051C276.93 19.9681 278.08 19.6334 279.205 19.2936C279.721 19.1388 280.433 19.0536 280.669 19.709C280.89 20.3335 280.225 20.5893 279.796 20.8224C277.801 21.8833 275.766 22.8727 273.774 23.9401C271.075 25.3672 268.561 27.1198 266.288 29.1587C263.638 31.5633 261.711 34.4865 260.824 38.6337Z" fill="url(#paint1_linear)"/>
<path d="M259.64 39.0938C259.734 36.3347 259.287 33.6833 258.17 31.1478C257.203 28.9589 255.776 27.0741 254.261 25.2537C251.982 22.5133 249.299 20.1918 246.6 17.8868C246.111 17.4698 245.661 17.0099 245.254 16.5125C245.105 16.3291 245.024 15.9114 245.132 15.7457C245.241 15.58 245.66 15.4262 245.887 15.4902C246.487 15.646 247.061 15.8855 247.593 16.2016C249.867 17.6386 251.709 19.5711 253.298 21.7044C254.856 23.797 256.354 25.9537 257.652 28.2126C259.576 31.5694 260.101 35.26 259.64 39.0938Z" fill="url(#paint2_linear)"/>
<path d="M255.473 34.8068C255.992 35.4334 255.476 35.7543 254.926 35.1546C252.474 32.4788 249.324 31.04 245.795 30.3276C242.602 29.6836 239.374 29.5705 236.14 29.573C235.684 29.5731 235.229 29.5289 234.782 29.4412C234.257 29.3365 234.134 28.9419 234.541 28.6017C234.863 28.3446 235.234 28.1558 235.631 28.0468C237.048 27.6398 238.505 27.665 239.952 27.8089C244.241 28.232 248.296 29.4373 251.962 31.7314C253.336 32.5922 254.501 33.6344 255.473 34.8068Z" fill="url(#paint3_linear)"/>
<path d="M-nan -nanL248.553 42.4583C246.896 44.4839 245.799 46.6902 245.062 49.0865C244.35 51.3562 244.26 53.7755 244.804 56.0915C244.846 56.2732 244.89 56.4552 244.922 56.6389C244.994 57.0465 245.13 57.4837 244.628 57.7253C244.127 57.9669 243.567 58.0171 243.194 57.5692C242.862 57.1774 242.629 56.7114 242.514 56.2105C242.158 54.4043 242.407 52.6038 242.855 50.8486C243.714 47.4793 245.684 44.8134 248.292 42.5814C248.304 42.5716 248.316 42.5628 248.33 42.5555C248.401 42.5161 248.476 42.4836 248.553 42.4583L-nan -nanZ" fill="url(#paint4_linear)"/>
<path d="M280.213 43.1965C279.672 42.7771 280.001 42.1117 280.614 42.4147C282.92 43.5546 284.917 45.1686 286.42 47.4858C287.037 48.4667 287.567 49.4995 288.004 50.5725C288.219 51.0831 288.243 51.7032 288.222 52.2731C288.199 52.8727 287.775 53.2326 287.181 53.3451C286.681 53.4396 286.328 53.2756 286.207 52.7422C286.063 52.1169 285.933 51.4881 285.758 50.871C284.841 47.6396 282.798 45.207 280.213 43.1965Z" fill="url(#paint5_linear)"/>
<path d="M279.601 28.1458C278.824 28.2323 278.568 27.4351 279.316 27.2063C281.898 26.4161 284.562 26.2678 287.36 27.0102C288.298 27.2652 289.213 27.6024 290.092 28.0178C290.534 28.2259 290.917 28.6326 291.239 29.0199C291.599 29.4478 291.528 29.9527 291.218 30.4072C290.908 30.8618 290.562 30.9548 290.056 30.6579C289.093 30.0923 288.127 29.5144 287.11 29.0615C284.71 27.9909 282.166 27.8619 279.601 28.1458Z" fill="url(#paint6_linear)"/>
<path d="M269.055 46.515C269.026 46.456 269.097 46.4022 269.142 46.4503C270.423 47.824 271.435 49.4271 272.124 51.1769C273.319 54.158 273.525 57.2118 272.683 60.3158C272.569 60.7387 272.305 61.1435 272.031 61.4969C271.695 61.9316 271.201 62.0139 270.678 61.8452C270.092 61.6569 269.916 61.3466 270.106 60.7548C270.319 60.085 270.609 59.4369 270.8 58.761C272.025 54.4254 271.017 50.4001 269.055 46.515Z" fill="url(#paint7_linear)"/>
<path d="M-nan -nanL257.194 22.5533C255.664 18.0703 253.163 14.1899 249.976 10.7334C249.08 9.75614 248.066 8.89329 247.129 7.95472C246.728 7.56903 246.373 7.13818 246.071 6.67076C245.82 6.25888 246.5 5.57227 246.907 5.83105C247.476 6.19755 248.051 6.60186 248.497 7.10438C251.099 10.0327 253.382 13.1961 255.052 16.7499C255.825 18.3948 256.382 20.1418 257.027 21.8459C257.098 22.0777 257.154 22.314 257.194 22.5533L-nan -nanZ" fill="url(#paint8_linear)"/>
<path d="M254.026 48.1073C254.354 47.5691 254.863 47.9324 254.612 48.5107C253.929 50.0422 253.783 51.7595 254.199 53.3839C254.272 53.6728 254.41 54.0281 253.978 54.1728C253.547 54.3174 253.199 54.1745 253.062 53.7659C252.909 53.3388 252.827 52.8895 252.82 52.436C252.835 50.8104 253.255 49.3717 254.026 48.1073Z" fill="url(#paint9_linear)"/>
<path d="M242.288 17.9776C240.907 17.5173 239.496 17.2436 238.03 17.2917C236.888 17.3364 235.771 17.638 234.762 18.174C234.468 18.3241 234.127 18.606 233.858 18.1307C233.588 17.6554 233.788 17.2332 234.197 17.0956C235.126 16.7837 236.083 16.4654 237.048 16.3818C238.977 16.213 240.704 16.8838 242.288 17.9776Z" fill="#FFC172"/>
<path d="M292.794 25.3574C295.676 25.053 298.088 25.726 300.075 27.6699C300.382 27.9957 300.604 28.3924 300.722 28.8246C300.772 28.9981 300.504 29.3224 300.305 29.4867C300.229 29.5483 299.856 29.4084 299.762 29.266C298.17 26.8575 295.8 25.8369 293.063 25.4508C293.022 25.4537 292.985 25.4263 292.794 25.3574Z" fill="#FFC172"/>
<path d="M27.5928 98.055C25.9447 92.0653 22.7874 87.0955 18.108 83.0748C17.566 82.6087 17.1376 81.9881 16.7435 81.3823C16.4504 80.9319 16.4743 80.3903 16.7322 79.8915C17.0025 79.3629 17.3629 79.1998 17.8704 79.5095C18.4535 79.8544 18.9934 80.2676 19.4786 80.7404C21.8268 83.1161 23.5433 85.9395 24.9753 88.9379C26.2427 91.5977 27.1663 94.3727 27.5753 97.3028C27.5998 97.4793 27.6174 97.6579 27.6318 97.835C27.6258 97.9094 27.6127 97.9831 27.5928 98.055Z" fill="#FFC172"/>
<path d="M19.3805 98.8513C18.0189 98.3977 16.6754 97.8693 15.2912 97.5077C12.628 96.8059 9.98592 96.9018 7.4224 98.0032C7.30769 98.0533 7.19281 98.1023 7.07477 98.1447C6.70883 98.2749 6.33933 98.4877 6.02042 98.0427C5.70151 97.5976 5.65172 97.0079 6.0768 96.68C6.55655 96.3112 7.12632 95.9652 7.707 95.8369C10.4104 95.2382 13.0719 95.4048 15.6254 96.559C16.4351 96.9268 17.2023 97.396 17.9764 97.8334C18.4906 98.1215 18.9921 98.4323 19.4991 98.7329L19.3805 98.8513Z" fill="#FFC172"/>
<path d="M35.9072 81.9888C38.3775 78.0591 41.7703 75.5668 46.5347 75.2612C46.979 75.2497 47.4215 75.3216 47.8394 75.473C48.2976 75.6238 48.5494 75.9991 48.5373 76.5069C48.5222 77.0952 48.2929 77.3061 47.7027 77.2862C42.6824 77.1126 39.5291 78.3797 35.9072 81.9888Z" fill="#FFC172"/>
<path d="M18.1411 105.876C15.3443 105.716 12.6945 106.188 10.1828 107.36C8.73487 108.036 7.53751 109.043 6.48541 110.238C5.89392 110.907 5.68457 110.967 5.25271 110.65C4.74894 110.283 4.59596 109.653 4.99879 109.083C5.34314 108.585 5.76487 108.145 6.24802 107.78C9.80188 105.177 13.7373 104.724 17.9289 105.773C18.0028 105.8 18.0738 105.835 18.1411 105.876Z" fill="#FFC172"/>
<path d="M43.8583 94.122C48.2265 93.015 52.276 93.4922 55.9045 96.2767C56.3037 96.5761 56.639 96.9523 56.8906 97.3832C57.0668 97.725 57.1094 98.1202 57.0101 98.4917C56.7719 99.2242 56.0952 99.3122 55.5734 98.7155C54.4917 97.4793 53.2766 96.4081 51.7796 95.7105C49.4937 94.6315 46.9842 94.1105 44.4577 94.1906C44.2965 94.1961 44.1359 94.1985 43.9755 94.1967C43.9477 94.1962 43.9206 94.1628 43.8583 94.122Z" fill="#FFC172"/>
<path d="M13.9874 88.5639C12.1931 87.593 10.2747 87.0195 8.26293 86.7387C6.13032 86.4241 3.9522 86.7166 1.9782 87.5828C1.88278 87.6255 1.77936 87.6634 1.68011 87.7016C1.31236 87.8454 0.945333 88.0425 0.636065 87.5938C0.326798 87.145 0.298457 86.5486 0.704746 86.2249C1.12449 85.8897 1.62194 85.5774 2.13609 85.45C5.59895 84.5966 8.86758 85.1404 11.9174 86.9714C12.6615 87.419 13.3599 87.9429 14.0789 88.4305L13.9874 88.5639Z" fill="#FFC172"/>
<path d="M31.4067 106.605C34.2428 105.318 37.1775 104.967 40.1747 105.825C42.9771 106.628 45.5042 107.98 47.5536 110.103C47.9816 110.544 48.3105 111.091 48.6521 111.611C48.8361 111.887 48.9105 112.221 48.5806 112.474C48.2243 112.747 48.0187 112.427 47.8145 112.231C46.6813 111.146 45.6191 109.978 44.4236 108.968C40.6944 105.816 36.4151 105.32 31.8233 106.526C31.719 106.552 31.6163 106.582 31.5115 106.606C31.4767 106.609 31.4415 106.609 31.4067 106.605Z" fill="#FFC172"/>
<path d="M27.26 107.284C25.5424 107.392 23.8492 107.746 22.2317 108.333C18.9989 109.525 16.7294 111.778 15.1318 114.758C14.6102 115.733 14.1891 116.763 13.6985 117.751C13.545 118.059 13.4921 118.587 12.986 118.457C12.4036 118.306 12.5482 117.78 12.648 117.379C12.7797 116.844 12.9293 116.298 13.1802 115.813C14.9915 112.304 17.592 109.596 21.2927 108.076C23.2058 107.292 25.2168 107.067 27.26 107.284Z" fill="#FFC172"/>
<path d="M28.7693 91.9808C28.7791 90.8722 28.8397 89.7611 28.7905 88.6552C28.6062 84.5034 27.4754 80.5978 25.6531 76.876C25.429 76.3931 25.2695 75.8828 25.1787 75.3583C25.1462 75.1647 25.2923 74.8129 25.4524 74.7398C25.6124 74.6668 25.9711 74.8169 26.0771 74.9776C26.4355 75.5237 26.81 76.0857 27.02 76.7008C28.3599 80.6175 29.1879 84.6315 29.0947 88.7929C29.0687 89.8602 28.9395 90.9232 28.8526 91.9883L28.7693 91.9808Z" fill="#FFC172"/>
<path d="M38.336 89.3524C38.9783 88.748 39.5953 88.115 40.2669 87.5447C43.6235 84.7024 47.4722 82.7377 51.6057 81.308C52.0819 81.1439 52.6209 81.1283 53.1327 81.1152C53.3197 81.1105 53.6551 81.2993 53.6696 81.4282C53.6921 81.6296 53.5506 81.9417 53.3779 82.0374C52.951 82.2909 52.4892 82.4805 52.0073 82.5999C47.6748 83.5593 43.6889 85.2752 40.1526 87.9763C39.5526 88.4351 38.9947 88.9494 38.4171 89.4383C38.3911 89.4119 38.3636 89.3827 38.336 89.3524Z" fill="#FFC172"/>
<path d="M29.9653 107.57C31.5298 107.936 32.7009 108.868 33.6286 110.11C34.7927 111.665 35.6916 113.365 36.1828 115.258C36.2545 115.532 36.3264 115.832 36.2845 116.101C36.249 116.33 36.0851 116.661 35.911 116.712C35.6928 116.775 35.3081 116.678 35.1667 116.508C34.9007 116.188 34.7214 115.78 34.5677 115.384C34.0864 114.131 33.6709 112.86 33.1649 111.619C32.493 109.97 31.5112 108.541 29.9653 107.57Z" fill="#FFC172"/>
<path d="M28.297 107.844C26.9343 108.753 25.6433 109.759 24.6939 111.094C24.0734 111.943 23.5527 112.861 23.1423 113.829C22.587 115.19 22.7139 116.562 23.5445 117.824C23.7329 118.11 23.9975 118.494 23.6733 118.726C23.4893 118.852 22.9815 118.694 22.7371 118.509C22.0993 118.028 21.9348 117.287 21.981 116.536C22.144 113.932 23.2905 111.779 25.117 109.966C26.0267 109.056 27.1075 108.335 28.297 107.844Z" fill="#FFC172"/>
<path d="M14.0994 81.5216C13.4856 80.9208 12.944 80.3347 12.3429 79.816C11.2043 78.8335 9.88317 78.2551 8.36211 78.172C8.08564 78.1569 7.74868 78.1847 7.75231 77.7542C7.75549 77.3639 7.99513 77.1779 8.34968 77.1204C8.49026 77.0969 8.63385 77.0982 8.77401 77.1241C11.3258 77.6209 12.9994 79.1804 14.0994 81.5216Z" fill="#FFC172"/>
<path d="M30.7603 105.816C30.7452 105.851 30.6821 105.809 30.6954 105.773C31.9418 102.425 34.4449 99.6928 37.6748 98.1592C40.8272 96.6542 44.1186 95.7024 47.63 95.6452C48.3212 95.6317 49.018 95.7363 49.7105 95.8159C49.972 95.8459 50.263 95.9048 50.4681 96.0509C50.4856 96.0631 50.5026 96.0758 50.5194 96.089C50.8742 96.3676 50.7697 97.113 50.3193 97.1377C48.8209 97.2201 47.318 97.2211 45.8195 97.3024C43.2714 97.439 40.7564 97.8213 38.3677 98.7477C35.1591 99.9913 32.7878 102.225 31.1033 105.207C30.991 105.405 30.8807 105.603 30.7683 105.799C30.7634 105.808 30.7642 105.807 30.7603 105.816Z" fill="url(#paint10_linear)"/>
<path d="M29.6792 104.92C29.0542 101.955 29.2247 99.0303 30.3758 96.2383C31.9486 92.4265 34.0991 88.9506 36.9727 85.9689C37.6717 85.2441 38.5174 84.6538 39.3421 84.0659C39.7207 83.7972 40.2782 83.5312 40.6515 84.001C41.0039 84.4496 40.5322 84.8418 40.2464 85.1503C38.9105 86.5668 37.5235 87.9354 36.1924 89.3562C34.3835 91.2656 32.8155 93.3894 31.5235 95.6803C30.0245 98.3738 29.2586 101.291 29.6792 104.92Z" fill="url(#paint11_linear)"/>
<path d="M28.84 105.622C28.1559 103.344 27.0592 101.304 25.4483 99.5435C24.0554 98.024 22.3705 96.8799 20.6318 95.8125C18.0166 94.2049 15.1862 93.0511 12.3474 91.915C11.8336 91.7097 11.3392 91.4586 10.8703 91.1648C10.6982 91.0563 10.5165 90.7379 10.5595 90.5727C10.6026 90.4075 10.9017 90.1664 11.1051 90.1559C11.637 90.1177 12.1716 90.1547 12.6932 90.2657C14.9454 90.8108 16.9818 91.8795 18.8666 93.1819C20.7155 94.4596 22.5329 95.8062 24.2155 97.2913C26.7121 99.4995 28.1589 102.366 28.84 105.622Z" fill="url(#paint12_linear)"/>
<path d="M24.2567 103.274C24.8533 103.642 24.5213 104.046 23.907 103.708C21.1671 102.201 18.2002 101.896 15.1237 102.289C12.3405 102.644 9.67481 103.443 7.03652 104.337C6.66464 104.463 6.28145 104.553 5.8923 104.604C5.43546 104.664 5.22602 104.376 5.46423 103.986C5.65588 103.687 5.90641 103.431 6.2005 103.232C7.24452 102.509 8.44033 102.128 9.66104 101.846C13.2773 101.008 16.9192 100.872 20.5436 101.733C21.9025 102.056 23.1402 102.585 24.2567 103.274Z" fill="url(#paint13_linear)"/>
<path d="M13.1381 108.659C13.1801 108.612 13.2414 108.71 13.2022 108.759C11.6902 110.666 10.6169 112.884 10.0599 115.255C9.64771 116.991 9.70141 118.728 10.0999 120.46C10.2895 121.283 10.2261 121.517 9.76292 121.685C9.15956 121.904 8.53372 121.696 8.32798 121.033C8.09358 120.307 7.97648 119.547 7.98108 118.784C8.08239 114.598 9.99218 111.308 13.1381 108.659Z" fill="url(#paint14_linear)"/>
<path d="M46.7597 103.293C46.2032 103.1 46.2875 102.466 46.8714 102.544C49.068 102.838 51.1428 103.604 53.0083 105.08C53.7824 105.71 54.5001 106.407 55.1532 107.162C55.4697 107.519 55.6603 108.019 55.7999 108.49C55.9467 108.985 55.6997 109.396 55.2461 109.652C54.8646 109.866 54.5313 109.83 54.2853 109.428C53.9949 108.958 53.7157 108.48 53.4023 108.025C51.7626 105.641 49.4239 104.22 46.7597 103.293Z" fill="url(#paint15_linear)"/>
<path d="M42.1075 91.1803C41.4973 91.4652 41.0689 90.8852 41.6158 90.4923C43.5051 89.1348 45.6375 88.2789 48.1255 88.1126C48.9618 88.0618 49.8009 88.0846 50.6331 88.1809C51.0515 88.2286 51.4763 88.4548 51.8458 88.6821C52.2571 88.9321 52.3388 89.3636 52.2113 89.82C52.0838 90.2764 51.8273 90.4478 51.332 90.3452C50.3902 90.1495 49.4427 89.9444 48.488 89.8554C46.2344 89.6439 44.1227 90.2407 42.1075 91.1803Z" fill="url(#paint16_linear)"/>
<path d="M38.5709 109.08C38.5308 109.039 38.5742 108.976 38.6241 109.003C40.0482 109.77 41.3164 110.799 42.3617 112.037C44.1594 114.14 45.1695 116.575 45.3394 119.34C45.3627 119.717 45.2591 120.12 45.1334 120.484C44.9788 120.931 44.5985 121.135 44.1256 121.141C43.5955 121.149 43.3662 120.945 43.3574 120.41C43.347 119.804 43.4048 119.195 43.3741 118.591C43.1767 114.715 41.2437 111.709 38.5709 109.08Z" fill="url(#paint17_linear)"/>
<path d="M-nan -nanL22.2803 92.7995C19.7947 89.5635 16.6827 87.0873 13.1291 85.1459C12.1278 84.5959 11.0624 84.1715 10.0385 83.6643C9.60482 83.4603 9.19627 83.2066 8.82099 82.9085C8.5027 82.6416 8.86802 81.8937 9.27147 81.9926C9.83701 82.1346 10.4177 82.3059 10.9204 82.5929C13.8521 84.2643 16.5877 86.2158 18.9312 88.6549C20.0154 89.784 20.9523 91.0558 21.9489 92.2683C22.0711 92.4378 22.1818 92.6152 22.2803 92.7995L-nan -nanZ" fill="url(#paint18_linear)"/>
<path d="M8.85395 93.1789C7.60013 93.1843 6.37328 93.3503 5.19003 93.7942C4.27077 94.1457 3.44262 94.7 2.7672 95.4158C2.56851 95.6195 2.36849 95.9434 2.0173 95.63C1.66612 95.3165 1.71286 94.9168 2.0085 94.6917C2.68085 94.1807 3.37366 93.6571 4.13822 93.3225C5.66517 92.6526 7.26008 92.7233 8.85395 93.1789Z" fill="#FFC172"/>
<path d="M52.1039 85.2645C54.3715 84.221 56.5258 84.1044 58.6833 85.1425C59.024 85.3236 59.3147 85.5859 59.5297 85.9063C59.6189 86.0339 59.489 86.3727 59.372 86.5617C59.3275 86.6327 58.984 86.6217 58.8683 86.5313C56.9049 85.0051 54.6896 84.8262 52.3495 85.2664C52.3169 85.2801 52.2789 85.268 52.1039 85.2645Z" fill="#FFC172"/>
<path d="M292.828 97.0887C292.828 82.9261 229.067 56.3989 150.414 56.3989C71.761 56.3989 8.00006 82.9261 8.00006 97.0887C8.00006 97.0887 71.761 97.0887 150.414 97.0887C229.067 97.0887 292.828 97.0887 292.828 97.0887Z" fill="url(#paint19_linear)" fill-opacity="0.15"/>
<path d="M187.63 107.86C187.63 102.459 168.747 100.066 145.452 100.066C122.158 100.066 103.274 102.459 103.274 107.86C103.274 113.261 122.158 115.945 145.452 115.945C168.747 115.945 187.63 113.261 187.63 107.86Z" fill="#F78D8D" fill-opacity="0.15"/>
<path d="M156.565 51.2677C145.377 40.0809 133.109 34.2104 129.163 38.1554C128.73 38.609 128.411 39.1591 128.233 39.7605L128.17 39.697L124.401 55.1419L120.648 70.5406L116.199 88.7742L113.383 100.322L130.056 94.0125L151.264 85.9883L168.182 79.5867L168.162 79.5664C168.728 79.3858 169.247 79.0795 169.678 78.6701C173.624 74.7237 167.754 62.4558 156.565 51.2677Z" fill="url(#paint20_linear)"/>
<path d="M156.565 51.2632C145.377 40.0754 133.109 34.2047 129.163 38.1506C125.217 42.0965 131.088 54.3647 142.276 65.5524C153.464 76.7402 165.732 82.6109 169.678 78.665C173.624 74.7191 167.753 62.4509 156.565 51.2632Z" fill="#F5E2E2"/>
<path d="M166.646 80.086C164.626 80.1214 162.622 79.7237 160.769 78.9197L146.94 84.1522L125.726 92.1691L114.35 96.4735L113.383 100.439L130.056 94.1294L151.264 86.1052L166.791 80.2304L166.646 80.086Z" fill="#DD6E00"/>
<path d="M184.112 68.6829C183.939 68.6824 183.768 68.6515 183.605 68.592C176.278 65.8467 168.356 65.077 160.637 66.3604L155.481 67.2192C154.692 67.3318 153.961 66.7833 153.848 65.9941C153.74 65.2316 154.249 64.518 155.005 64.3728L160.162 63.5067C168.382 62.141 176.816 62.96 184.619 65.8812C185.369 66.1507 185.758 66.9775 185.489 67.7277C185.281 68.3072 184.728 68.6908 184.112 68.6829Z" fill="#DD6E00"/>
<path d="M158.13 60.0222C157.333 60.0176 156.69 59.3675 156.695 58.5703C156.698 58.02 157.014 57.5195 157.509 57.2797L187.822 42.8452C188.542 42.5024 189.403 42.808 189.746 43.528C190.089 44.2479 189.783 45.1093 189.063 45.4521L158.751 59.8866C158.557 59.9773 158.345 60.0237 158.13 60.0222Z" fill="#DD6E00"/>
<path d="M141.25 57.1353C141.06 57.1357 140.871 57.098 140.696 57.0242C139.96 56.7173 139.613 55.8722 139.919 55.1364V55.1362L142.018 50.1C145.247 42.3839 146 33.8552 144.173 25.6927C143.986 24.9178 144.463 24.138 145.237 23.9507C146.012 23.7634 146.792 24.2399 146.979 25.0147C146.984 25.0318 146.987 25.0489 146.991 25.0663C148.948 33.8101 148.141 42.9461 144.681 51.2114L142.581 56.2476C142.357 56.7848 141.832 57.1348 141.25 57.1353Z" fill="#DD6E00"/>
<path d="M143.679 16.7195C142.085 16.7195 140.792 15.4269 140.792 13.8322C140.792 12.2375 142.085 10.9449 143.679 10.9449C145.274 10.9449 146.567 12.2375 146.567 13.8322C146.567 15.4269 145.274 16.7195 143.679 16.7195Z" fill="url(#paint21_linear)"/>
<path d="M191.33 74.4574C192.924 74.4574 194.217 73.1647 194.217 71.5701C194.217 69.9755 192.924 68.6829 191.33 68.6829C189.735 68.6829 188.442 69.9755 188.442 71.5701C188.442 73.1647 189.735 74.4574 191.33 74.4574Z" fill="#D83333"/>
<path d="M156.687 34.0408C158.282 34.0408 159.574 32.7481 159.574 31.1536C159.574 29.559 158.282 28.2663 156.687 28.2663C155.092 28.2663 153.8 29.559 153.8 31.1536C153.8 32.7481 155.092 34.0408 156.687 34.0408Z" fill="url(#paint22_linear)"/>
<path d="M184.113 26.8243C183.315 26.8243 182.669 26.1779 182.669 25.3807V23.937C182.669 23.1398 183.315 22.4934 184.113 22.4934C184.91 22.4934 185.556 23.1398 185.556 23.937V25.3807C185.556 26.1779 184.91 26.8243 184.113 26.8243Z" fill="url(#paint23_linear)"/>
<path d="M184.113 19.6062C183.315 19.6062 182.669 18.9598 182.669 18.1625V16.7189C182.669 15.9217 183.315 15.2753 184.113 15.2753C184.91 15.2753 185.556 15.9217 185.556 16.7189V18.1625C185.556 18.9598 184.91 19.6062 184.113 19.6062Z" fill="url(#paint24_linear)"/>
<path d="M188.444 22.4934H187C186.203 22.4934 185.557 21.847 185.557 21.0497C185.557 20.2525 186.203 19.6061 187 19.6061H188.444C189.241 19.6061 189.887 20.2525 189.887 21.0497C189.887 21.847 189.241 22.4934 188.444 22.4934Z" fill="url(#paint25_linear)"/>
<path d="M181.226 22.4934H179.782C178.985 22.4934 178.338 21.847 178.338 21.0497C178.338 20.2525 178.985 19.6061 179.782 19.6061H181.226C182.023 19.6061 182.669 20.2525 182.669 21.0497C182.669 21.847 182.023 22.4934 181.226 22.4934Z" fill="url(#paint26_linear)"/>
<path d="M124.611 58.8801C124.449 58.2623 124.249 56.5379 124.115 55.9028L122.13 64.3385L121.137 68.3082C121.766 75.814 130.263 86.7402 135.528 92.1266L150.76 86.2531C150.645 86.217 150.525 86.191 150.41 86.152C137.549 81.33 128.102 72.1636 124.611 58.8801Z" fill="url(#paint27_linear)"/>
<path d="M174.009 32.5663V39.8147H166.76V32.5663H174.009Z" fill="#D83333"/>
<path d="M148.026 58.5788C147.229 58.5786 146.583 57.9321 146.583 57.1349C146.583 56.7261 146.756 56.3365 147.06 56.0628L161.495 43.0718C162.097 42.5502 163.009 42.616 163.531 43.2188C164.038 43.8049 163.992 44.6868 163.426 45.2168L148.992 58.2078C148.727 58.4465 148.383 58.5786 148.026 58.5788Z" fill="#DD6E00"/>
<path d="M189.886 52.8054C189.089 52.8054 188.442 52.159 188.442 51.3618V49.9181C188.442 49.1209 189.089 48.4745 189.886 48.4745C190.683 48.4745 191.33 49.1209 191.33 49.9181V51.3618C191.33 52.159 190.683 52.8054 189.886 52.8054Z" fill="url(#paint28_linear)"/>
<path d="M194.99 50.6908C194.607 50.6918 194.24 50.5395 193.97 50.2678L192.949 49.2471C192.395 48.6736 192.411 47.7597 192.984 47.2058C193.544 46.6656 194.431 46.6656 194.99 47.2058L196.011 48.2265C196.575 48.7904 196.574 49.7044 196.011 50.2681C195.74 50.5386 195.373 50.6908 194.99 50.6908Z" fill="url(#paint29_linear)"/>
<path d="M197.104 45.588H195.66C194.863 45.588 194.216 44.9416 194.216 44.1443C194.216 43.3471 194.863 42.7007 195.66 42.7007H197.104C197.901 42.7007 198.547 43.3471 198.547 44.1443C198.547 44.9416 197.901 45.588 197.104 45.588Z" fill="url(#paint30_linear)"/>
<path d="M193.97 41.5061C193.172 41.5059 192.526 40.8595 192.526 40.0621C192.526 39.6793 192.678 39.3123 192.949 39.0418L193.97 38.0212C194.543 37.4672 195.457 37.483 196.011 38.0565C196.551 38.6159 196.551 39.5029 196.011 40.0624L194.99 41.0831C194.719 41.3538 194.352 41.5061 193.97 41.5061Z" fill="url(#paint31_linear)"/>
<path d="M189.886 39.8144C189.089 39.8144 188.442 39.168 188.442 38.3707V36.9271C188.442 36.1298 189.089 35.4835 189.886 35.4835C190.683 35.4835 191.33 36.1298 191.33 36.9271V38.3707C191.33 39.168 190.683 39.8144 189.886 39.8144Z" fill="url(#paint32_linear)"/>
<path d="M185.803 41.5061C185.42 41.5061 185.053 41.3538 184.782 41.0831L183.761 40.0625C183.208 39.489 183.223 38.575 183.797 38.0212C184.356 37.4809 185.243 37.4809 185.803 38.0212L186.823 39.0418C187.387 39.6057 187.387 40.5197 186.823 41.0835C186.552 41.354 186.185 41.5061 185.803 41.5061Z" fill="url(#paint33_linear)"/>
<path d="M120.6 16.7187L122.831 21.2381L127.818 21.9627L124.209 25.4804L125.061 30.4473L120.6 28.1017L116.14 30.4473L116.992 25.4804L113.383 21.9627L118.37 21.2381L120.6 16.7187Z" fill="url(#paint34_linear)"/>
<path d="M198.09 93.4611C197.404 91.028 195.823 88.9445 193.665 87.6281L193.07 86.736C189.735 81.7495 184.492 78.3588 178.576 77.3637C177.787 77.2512 177.056 77.7997 176.943 78.5889C176.835 79.3514 177.344 80.065 178.1 80.2102C182.367 80.9345 186.255 83.1022 189.115 86.3506C186.711 86.7831 184.608 88.2271 183.341 90.3158C181.787 93.1 182.783 96.6172 185.568 98.1718C188.352 99.7264 191.869 98.7295 193.424 95.9452C194.017 94.799 194.338 93.5307 194.36 92.2399C195.896 94.4706 196.019 97.3836 194.677 99.7357C194.27 100.421 194.496 101.307 195.182 101.714C195.867 102.12 196.753 101.894 197.159 101.209C197.172 101.187 197.185 101.164 197.197 101.142C198.508 98.8034 198.83 96.0378 198.09 93.4611ZM190.906 94.5364C190.136 95.9324 188.38 96.4394 186.984 95.669C185.588 94.8986 185.081 93.1424 185.851 91.7466C185.856 91.7389 185.86 91.7309 185.864 91.7232C186.716 90.3284 188.153 89.3934 189.773 89.1798C190.024 89.1729 190.273 89.2307 190.495 89.3472C191.713 90.0271 191.778 92.9746 190.906 94.5364Z" fill="url(#paint35_linear)"/>
<defs>
<linearGradient id="paint0_linear" x1="262.075" y1="40.2911" x2="269.487" y2="27.3674" gradientUnits="userSpaceOnUse">
<stop stop-color="#FFBF74"/>
<stop offset="1" stop-color="#F4973B"/>
</linearGradient>
<linearGradient id="paint1_linear" x1="261.108" y1="39.0938" x2="281.922" y2="29.2208" gradientUnits="userSpaceOnUse">
<stop stop-color="#FFBF74"/>
<stop offset="1" stop-color="#F4973B"/>
</linearGradient>
<linearGradient id="paint2_linear" x1="242.146" y1="36.6694" x2="262.98" y2="25.1439" gradientUnits="userSpaceOnUse">
<stop stop-color="#FFBF74"/>
<stop offset="1" stop-color="#F4973B"/>
</linearGradient>
<linearGradient id="paint3_linear" x1="233.824" y1="35.441" x2="240.884" y2="22.842" gradientUnits="userSpaceOnUse">
<stop stop-color="#FFBF74"/>
<stop offset="1" stop-color="#F4973B"/>
</linearGradient>
<linearGradient id="paint4_linear" x1="241.74" y1="57.868" x2="248.821" y2="57.2586" gradientUnits="userSpaceOnUse">
<stop stop-color="#FFBF74"/>
<stop offset="1" stop-color="#F4973B"/>
</linearGradient>
<linearGradient id="paint5_linear" x1="275.619" y1="51.758" x2="286.819" y2="42.7433" gradientUnits="userSpaceOnUse">
<stop stop-color="#FFBF74"/>
<stop offset="1" stop-color="#F4973B"/>
</linearGradient>
<linearGradient id="paint6_linear" x1="275.8" y1="28.9867" x2="278.495" y2="22.8426" gradientUnits="userSpaceOnUse">
<stop stop-color="#FFBF74"/>
<stop offset="1" stop-color="#F4973B"/>
</linearGradient>
<linearGradient id="paint7_linear" x1="266.508" y1="61.4787" x2="275.965" y2="59.6226" gradientUnits="userSpaceOnUse">
<stop stop-color="#FFBF74"/>
<stop offset="1" stop-color="#F4973B"/>
</linearGradient>
<linearGradient id="paint8_linear" x1="243.946" y1="20.697" x2="258.987" y2="11.6828" gradientUnits="userSpaceOnUse">
<stop stop-color="#FFBF74"/>
<stop offset="1" stop-color="#F4973B"/>
</linearGradient>
<linearGradient id="paint9_linear" x1="252.477" y1="54.2057" x2="255.968" y2="53.9806" gradientUnits="userSpaceOnUse">
<stop stop-color="#FFBF74"/>
<stop offset="1" stop-color="#F4973B"/>
</linearGradient>
<linearGradient id="paint10_linear" x1="31.1581" y1="105.927" x2="33.6395" y2="93.336" gradientUnits="userSpaceOnUse">
<stop stop-color="#FFBF74"/>
<stop offset="1" stop-color="#F4973B"/>
</linearGradient>
<linearGradient id="paint11_linear" x1="30.0379" y1="105.217" x2="44.298" y2="91.4171" gradientUnits="userSpaceOnUse">
<stop stop-color="#FFBF74"/>
<stop offset="1" stop-color="#F4973B"/>
</linearGradient>
<linearGradient id="paint12_linear" x1="13.8958" y1="108.471" x2="27.7163" y2="93.3171" gradientUnits="userSpaceOnUse">
<stop stop-color="#FFBF74"/>
<stop offset="1" stop-color="#F4973B"/>
</linearGradient>
<linearGradient id="paint13_linear" x1="6.76654" y1="109.765" x2="9.05104" y2="97.5355" gradientUnits="userSpaceOnUse">
<stop stop-color="#FFBF74"/>
<stop offset="1" stop-color="#F4973B"/>
</linearGradient>
<linearGradient id="paint14_linear" x1="8.59504" y1="122.135" x2="16.9343" y2="115.796" gradientUnits="userSpaceOnUse">
<stop stop-color="#FFBF74"/>
<stop offset="1" stop-color="#F4973B"/>
</linearGradient>
<linearGradient id="paint15_linear" x1="45.3734" y1="111.547" x2="52.0259" y2="101.1" gradientUnits="userSpaceOnUse">
<stop stop-color="#FFBF74"/>
<stop offset="1" stop-color="#F4973B"/>
</linearGradient>
<linearGradient id="paint16_linear" x1="39.238" y1="92.9152" x2="39.7419" y2="87.1579" gradientUnits="userSpaceOnUse">
<stop stop-color="#FFBF74"/>
<stop offset="1" stop-color="#F4973B"/>
</linearGradient>
<linearGradient id="paint17_linear" x1="40.6215" y1="121.993" x2="47.8265" y2="117.869" gradientUnits="userSpaceOnUse">
<stop stop-color="#FFBF74"/>
<stop offset="1" stop-color="#F4973B"/>
</linearGradient>
<linearGradient id="paint18_linear" x1="10.9574" y1="94.9403" x2="20.7436" y2="83.4344" gradientUnits="userSpaceOnUse">
<stop stop-color="#FFBF74"/>
<stop offset="1" stop-color="#F4973B"/>
</linearGradient>
<linearGradient id="paint19_linear" x1="149.947" y1="54.966" x2="149.947" y2="96.8804" gradientUnits="userSpaceOnUse">
<stop stop-color="#F78D8D"/>
<stop offset="1" stop-color="white"/>
</linearGradient>
<linearGradient id="paint20_linear" x1="99.3039" y1="-48.7989" x2="67.5714" y2="85.9305" gradientUnits="userSpaceOnUse">
<stop stop-color="#FFC59A"/>
<stop offset="1" stop-color="#F95849"/>
</linearGradient>
<linearGradient id="paint21_linear" x1="146.567" y1="13.3073" x2="140.355" y2="13.1323" gradientUnits="userSpaceOnUse">
<stop stop-color="#2DAA00"/>
<stop offset="1" stop-color="#35C800"/>
</linearGradient>
<linearGradient id="paint22_linear" x1="156.687" y1="28.2663" x2="156.687" y2="34.0408" gradientUnits="userSpaceOnUse">
<stop stop-color="#FFBF74"/>
<stop offset="1" stop-color="#F4973B"/>
</linearGradient>
<linearGradient id="paint23_linear" x1="184.113" y1="22.4934" x2="184.113" y2="26.8243" gradientUnits="userSpaceOnUse">
<stop stop-color="#FFBF74"/>
<stop offset="1" stop-color="#F4973B"/>
</linearGradient>
<linearGradient id="paint24_linear" x1="184.113" y1="15.2753" x2="184.113" y2="19.6062" gradientUnits="userSpaceOnUse">
<stop stop-color="#FFBF74"/>
<stop offset="1" stop-color="#F4973B"/>
</linearGradient>
<linearGradient id="paint25_linear" x1="187.722" y1="19.6061" x2="187.722" y2="22.4934" gradientUnits="userSpaceOnUse">
<stop stop-color="#FFBF74"/>
<stop offset="1" stop-color="#F4973B"/>
</linearGradient>
<linearGradient id="paint26_linear" x1="180.504" y1="19.6061" x2="180.504" y2="22.4934" gradientUnits="userSpaceOnUse">
<stop stop-color="#FFBF74"/>
<stop offset="1" stop-color="#F4973B"/>
</linearGradient>
<linearGradient id="paint27_linear" x1="131.558" y1="64.3385" x2="129.68" y2="121.673" gradientUnits="userSpaceOnUse">
<stop stop-color="#FFC59A"/>
<stop offset="0.774583" stop-color="#FF826E"/>
<stop offset="1" stop-color="#FF7062"/>
</linearGradient>
<linearGradient id="paint28_linear" x1="191.33" y1="50.2462" x2="188.222" y2="50.1879" gradientUnits="userSpaceOnUse">
<stop stop-color="#2DAA00"/>
<stop offset="1" stop-color="#35C800"/>
</linearGradient>
<linearGradient id="paint29_linear" x1="196.434" y1="48.392" x2="192.249" y2="48.2742" gradientUnits="userSpaceOnUse">
<stop stop-color="#2DAA00"/>
<stop offset="1" stop-color="#35C800"/>
</linearGradient>
<linearGradient id="paint30_linear" x1="198.547" y1="43.8819" x2="193.893" y2="43.6852" gradientUnits="userSpaceOnUse">
<stop stop-color="#2DAA00"/>
<stop offset="1" stop-color="#35C800"/>
</linearGradient>
<linearGradient id="paint31_linear" x1="196.416" y1="39.2073" x2="192.232" y2="39.0894" gradientUnits="userSpaceOnUse">
<stop stop-color="#2DAA00"/>
<stop offset="1" stop-color="#35C800"/>
</linearGradient>
<linearGradient id="paint32_linear" x1="191.33" y1="37.2552" x2="188.222" y2="37.1968" gradientUnits="userSpaceOnUse">
<stop stop-color="#2DAA00"/>
<stop offset="1" stop-color="#35C800"/>
</linearGradient>
<linearGradient id="paint33_linear" x1="187.246" y1="39.2074" x2="183.061" y2="39.0895" gradientUnits="userSpaceOnUse">
<stop stop-color="#2DAA00"/>
<stop offset="1" stop-color="#35C800"/>
</linearGradient>
<linearGradient id="paint34_linear" x1="120.6" y1="16.7187" x2="120.6" y2="30.4473" gradientUnits="userSpaceOnUse">
<stop stop-color="#FFBF74"/>
<stop offset="1" stop-color="#F4973B"/>
</linearGradient>
<linearGradient id="paint35_linear" x1="187.704" y1="77.3491" x2="187.704" y2="101.916" gradientUnits="userSpaceOnUse">
<stop stop-color="#FFBF74"/>
<stop offset="1" stop-color="#F4973B"/>
</linearGradient>
</defs>
</svg>
