<svg width="287" height="96" viewBox="0 0 287 96" fill="none" xmlns="http://www.w3.org/2000/svg">
<path d="M287 77C287 62.7295 222.753 36 143.5 36C64.2471 36 0 62.7295 0 77C0 77 64.2471 77 143.5 77C222.753 77 287 77 287 77Z" fill="url(#paint0_linear)" fill-opacity="0.15"/>
<path d="M181 87.8533C181 82.4115 161.972 80 138.5 80C115.028 80 96 82.4115 96 87.8533C96 93.2951 115.028 96 138.5 96C161.972 96 181 93.2951 181 87.8533Z" fill="#F78D8D" fill-opacity="0.15"/>
<path d="M122.309 17.2477H119.705C116.551 17.2477 118.631 17.2477 115.5 17.2477L101.308 17.2477C98.1766 17.2477 95 17.2478 95 21.2208V71.0459C95 72.2619 96.2692 73.2477 97.8347 73.2477H177V21.6514C177 19.2193 174.462 17.2478 171.331 17.2478L122.309 17.2477Z" fill="#DD6E00"/>
<rect x="119.233" width="53.2353" height="50.4079" rx="4" transform="rotate(10.5551 119.233 0)" fill="url(#paint1_linear)"/>
<rect opacity="0.2" x="107" y="16.6027" width="33.5219" height="48.1216" rx="2" transform="rotate(-9.19224 107 16.6027)" fill="#9D031B" fill-opacity="0.5"/>
<rect x="101.656" y="16.1438" width="36.9094" height="48.1216" rx="2" transform="rotate(-9.19224 101.656 16.1438)" fill="#F5E2E2"/>
<rect x="146.077" y="21.259" width="31.1288" height="6.7357" rx="2" transform="rotate(0.657661 146.077 21.259)" fill="white"/>
<path d="M91.3754 30.5921C91.1735 28.2557 93.0156 26.2477 95.3606 26.2477H178.623C180.974 26.2477 182.818 28.2655 182.607 30.6069L179.256 67.7673L178.489 77.038C178.318 79.1123 176.584 80.7085 174.503 80.7085H164.279L112 81.2477H99.5726C97.5179 81.2477 95.7974 79.691 95.5925 77.6466L94.5 66.7477L91.3754 30.5921Z" fill="url(#paint2_linear)"/>
<circle cx="171.5" cy="69.7476" r="16.5" fill="url(#paint3_linear)"/>
<rect x="164.104" y="74.3705" width="16.998" height="3.41379" rx="1.7069" transform="rotate(-45 164.104 74.3705)" fill="white"/>
<rect width="16.998" height="3.41379" rx="1.7069" transform="matrix(-0.707107 -0.707107 -0.707107 0.707107 178.896 74.3705)" fill="white"/>
<defs>
<linearGradient id="paint0_linear" x1="143.03" y1="34.5561" x2="143.03" y2="76.7901" gradientUnits="userSpaceOnUse">
<stop stop-color="#F78D8D"/>
<stop offset="1" stop-color="white"/>
</linearGradient>
<linearGradient id="paint1_linear" x1="149.11" y1="-59.4792" x2="147.433" y2="37.9769" gradientUnits="userSpaceOnUse">
<stop stop-color="#FFC59A"/>
<stop offset="1" stop-color="#FF7062"/>
</linearGradient>
<linearGradient id="paint2_linear" x1="137" y1="26.2477" x2="137" y2="81.2477" gradientUnits="userSpaceOnUse">
<stop stop-color="#FFBF74"/>
<stop offset="1" stop-color="#F4973B"/>
</linearGradient>
<linearGradient id="paint3_linear" x1="156.587" y1="69.7476" x2="187.463" y2="70.1003" gradientUnits="userSpaceOnUse">
<stop stop-color="#EA553F"/>
<stop offset="1" stop-color="#D32A30"/>
</linearGradient>
</defs>
</svg>
