<svg width="287" height="85" viewBox="0 0 287 85" fill="none" xmlns="http://www.w3.org/2000/svg">
<path d="M287 73.6011C287 59.3305 222.753 32.6011 143.5 32.6011C64.2471 32.6011 0 59.3305 0 73.6011C0 73.6011 64.2471 73.6011 143.5 73.6011C222.753 73.6011 287 73.6011 287 73.6011Z" fill="url(#paint0_linear_20751_53585)" fill-opacity="0.15"/>
<rect x="134.059" y="26.9685" width="26.8454" height="5.80886" rx="2" transform="rotate(0.657661 134.059 26.9685)" fill="#F8F7F7"/>
<path d="M162.302 39.8487L129.091 63.5621L92.2685 45.9758C92.2658 45.9569 92.2659 45.9376 92.2687 45.9187C92.2867 45.7881 94.0783 44.0021 96.8164 41.3499C96.842 41.3252 96.8641 41.3007 96.8904 41.275C105.872 32.5777 124.818 14.7204 124.818 14.7204C124.818 14.7204 146.579 29.0163 156.931 36.0213C160.136 38.1882 162.247 39.6578 162.288 39.7945C162.295 39.8118 162.3 39.8301 162.302 39.8487Z" fill="#C9C9C9"/>
<path d="M138.385 2.54179L100.604 5.84723C99.048 5.98361 97.6097 6.73245 96.6056 7.92909C95.6015 9.12574 95.1138 10.6722 95.2497 12.2284L100.247 69.3519C100.531 72.5925 104.291 57.7649 107.532 57.4814L153.969 70.5637C155.525 70.4276 156.964 69.6789 157.968 68.4824C158.972 67.2859 159.46 65.7395 159.324 64.1834L155.162 16.6193L138.385 2.54179Z" fill="#F5E2E2"/>
<path d="M106.886 29.3413C106.854 29.3442 106.825 29.3374 106.798 29.3208C106.777 29.2974 106.765 29.2699 106.762 29.2384L106.54 26.8487C106.538 26.8235 106.533 26.8049 106.525 26.7929L104.216 23.063C104.201 23.039 104.193 23.0207 104.192 23.0081C104.187 22.9577 104.22 22.9293 104.289 22.9228L105.479 22.8123C105.542 22.8065 105.589 22.8307 105.619 22.8851L107.033 25.288C107.056 25.3241 107.075 25.3223 107.09 25.2828L108.037 22.6606C108.057 22.6016 108.099 22.5691 108.162 22.5633L109.371 22.451C109.415 22.4469 109.444 22.4569 109.459 22.4809C109.48 22.498 109.483 22.5295 109.468 22.5754L107.866 26.6683C107.861 26.6815 107.86 26.7007 107.862 26.7259L108.084 29.1157C108.087 29.1471 108.077 29.1767 108.054 29.2042C108.037 29.2248 108.013 29.2366 107.981 29.2395L106.886 29.3413Z" fill="#E04138"/>
<path d="M115.42 22.9278C115.423 22.9593 115.413 22.9888 115.39 23.0163C115.373 23.037 115.349 23.0488 115.318 23.0517L112.219 23.3393C112.188 23.3423 112.174 23.3595 112.176 23.391L112.312 24.8551C112.315 24.8865 112.333 24.9008 112.364 24.8979L114.395 24.7093C114.426 24.7064 114.453 24.7167 114.474 24.7401C114.501 24.7567 114.516 24.7807 114.519 24.8122L114.604 25.7284C114.607 25.7599 114.597 25.7894 114.574 25.8169C114.557 25.8376 114.532 25.8494 114.501 25.8523L112.47 26.0408C112.439 26.0438 112.424 26.061 112.427 26.0924L112.569 27.6227C112.572 27.6541 112.59 27.6684 112.621 27.6655L115.719 27.3779C115.751 27.3749 115.777 27.3852 115.798 27.4086C115.825 27.4252 115.84 27.4492 115.843 27.4807L115.928 28.3969C115.931 28.4284 115.921 28.4579 115.898 28.4854C115.881 28.5061 115.857 28.5179 115.825 28.5208L111.461 28.926C111.43 28.9289 111.401 28.9221 111.374 28.9055C111.352 28.8821 111.34 28.8546 111.337 28.8231L110.745 22.4378C110.742 22.4063 110.749 22.3802 110.766 22.3596C110.789 22.3321 110.816 22.3168 110.847 22.3139L115.211 21.9088C115.243 21.9058 115.269 21.9161 115.29 21.9395C115.317 21.9561 115.332 21.9801 115.335 22.0116L115.42 22.9278ZM111.562 21.695C111.518 21.6991 111.485 21.6895 111.464 21.666C111.448 21.6357 111.451 21.6005 111.473 21.5604L112.07 20.5045C112.097 20.4512 112.139 20.422 112.196 20.4167L113.452 20.3001C113.509 20.2948 113.555 20.3159 113.591 20.3633L114.401 21.2885C114.422 21.3119 114.434 21.3331 114.436 21.352C114.44 21.4024 114.408 21.4308 114.339 21.4372L113.489 21.5161C113.432 21.5214 113.386 21.5003 113.349 21.4528L112.918 20.9117C112.896 20.8757 112.877 20.8775 112.861 20.917L112.537 21.5283C112.51 21.5816 112.469 21.6108 112.412 21.6161L111.562 21.695Z" fill="#E04138"/>
<path d="M119.743 28.2333C119.258 28.2783 118.821 28.2236 118.432 28.0692C118.049 27.9142 117.738 27.6763 117.499 27.3556C117.265 27.0279 117.127 26.6406 117.086 26.1935L116.686 21.8862C116.683 21.8547 116.69 21.8286 116.707 21.808C116.73 21.7805 116.757 21.7652 116.789 21.7623L117.894 21.6597C117.925 21.6568 117.952 21.667 117.973 21.6905C118 21.707 118.015 21.731 118.018 21.7625L118.419 26.0792C118.45 26.413 118.575 26.6744 118.796 26.8635C119.023 27.0457 119.303 27.1213 119.637 27.0904C119.97 27.0594 120.229 26.9338 120.411 26.7135C120.6 26.4864 120.679 26.206 120.648 25.8723L120.247 21.5556C120.244 21.5241 120.251 21.498 120.268 21.4774C120.291 21.4498 120.318 21.4346 120.35 21.4317L121.455 21.3291C121.486 21.3262 121.513 21.3364 121.534 21.3598C121.561 21.3764 121.576 21.4004 121.579 21.4319L121.979 25.7392C122.02 26.1863 121.953 26.5926 121.777 26.9583C121.608 27.317 121.346 27.6081 120.992 27.8315C120.644 28.0544 120.228 28.1883 119.743 28.2333Z" fill="#E04138"/>
<path d="M128.443 27.4255C127.952 27.4711 127.512 27.4167 127.123 27.2623C126.733 27.1016 126.422 26.8574 126.188 26.5297C125.954 26.2021 125.816 25.8116 125.774 25.3582L125.572 23.1762C125.53 22.7228 125.593 22.3136 125.763 21.9485C125.932 21.5835 126.194 21.2893 126.548 21.0659C126.902 20.8424 127.324 20.7079 127.815 20.6623C128.3 20.6173 128.734 20.6692 129.116 20.8179C129.504 20.9597 129.814 21.1881 130.047 21.5032C130.285 21.8113 130.424 22.1827 130.464 22.6172C130.47 22.6738 130.435 22.712 130.361 22.7316L129.262 22.9003L129.243 22.9021C129.18 22.9079 129.145 22.8762 129.139 22.8069C129.108 22.4732 128.979 22.2152 128.752 22.033C128.532 21.8502 128.255 21.7743 127.921 21.8053C127.581 21.8368 127.317 21.963 127.128 22.1838C126.945 22.404 126.869 22.681 126.9 23.0148L127.111 25.2912C127.142 25.6187 127.267 25.8738 127.487 26.0566C127.714 26.2388 127.997 26.3141 128.337 26.2826C128.671 26.2516 128.929 26.126 129.112 25.9058C129.301 25.6849 129.38 25.4108 129.35 25.0834C129.344 25.0141 129.378 24.976 129.454 24.9689L130.563 24.9136C130.595 24.9106 130.621 24.9177 130.641 24.9349C130.668 24.9514 130.683 24.9723 130.685 24.9975C130.726 25.432 130.657 25.8258 130.481 26.1788C130.31 26.5313 130.048 26.8161 129.693 27.0332C129.345 27.2497 128.928 27.3805 128.443 27.4255Z" fill="#E04138"/>
<path d="M136.387 26.6117C136.324 26.6176 136.281 26.5899 136.256 26.5286L135.887 25.6293C135.872 25.6053 135.855 25.5941 135.836 25.5959L133.512 25.8116C133.493 25.8134 133.479 25.8274 133.468 25.8538L133.28 26.8049C133.267 26.8696 133.229 26.9049 133.166 26.9108L131.967 27.0221C131.929 27.0256 131.9 27.0188 131.879 27.0017C131.858 26.9783 131.852 26.9439 131.86 26.8987L133.307 20.3239C133.321 20.2592 133.359 20.2239 133.422 20.218L134.905 20.0804C134.967 20.0745 135.011 20.1022 135.036 20.1634L137.669 26.3593C137.677 26.3713 137.681 26.3868 137.683 26.4057C137.688 26.4623 137.656 26.4939 137.587 26.5003L136.387 26.6117ZM133.704 24.6982C133.701 24.7365 133.716 24.7543 133.747 24.7513L135.41 24.597C135.447 24.5935 135.458 24.5734 135.442 24.5368L134.332 21.8103C134.323 21.7857 134.313 21.7772 134.301 21.7846C134.288 21.7858 134.279 21.7961 134.275 21.8156L133.704 24.6982ZM132.709 19.7316C132.665 19.7357 132.633 19.726 132.611 19.7026C132.596 19.6722 132.599 19.637 132.621 19.5969L133.218 18.5411C133.245 18.4878 133.287 18.4585 133.343 18.4532L134.6 18.3366C134.656 18.3313 134.703 18.3524 134.739 18.3999L135.549 19.325C135.57 19.3485 135.582 19.3696 135.583 19.3885C135.588 19.4389 135.556 19.4673 135.487 19.4737L134.636 19.5527C134.58 19.5579 134.533 19.5368 134.497 19.4894L134.066 18.9483C134.043 18.9122 134.025 18.914 134.009 18.9535L133.685 19.5648C133.658 19.6181 133.616 19.6474 133.56 19.6526L132.709 19.7316ZM136.208 18.1111C136.223 18.1351 136.231 18.1534 136.232 18.166C136.237 18.2164 136.208 18.2445 136.145 18.2503L135.351 18.324C135.295 18.3293 135.248 18.3082 135.212 18.2607L134.453 17.3689C134.438 17.3512 134.43 17.3298 134.428 17.3046C134.423 17.2542 134.452 17.2261 134.515 17.2202L135.469 17.1317C135.532 17.1258 135.582 17.1498 135.619 17.2035L136.208 18.1111Z" fill="#E04138"/>
<path d="M141.271 26.2345C140.786 26.2796 140.349 26.2249 139.96 26.0704C139.577 25.9154 139.266 25.6776 139.026 25.3568C138.793 25.0292 138.655 24.6418 138.614 24.1947L138.214 19.8874C138.211 19.8559 138.218 19.8299 138.235 19.8092C138.258 19.7817 138.285 19.7665 138.317 19.7636L139.422 19.661C139.453 19.658 139.48 19.6683 139.501 19.6917C139.528 19.7083 139.543 19.7323 139.546 19.7638L139.946 24.0805C139.977 24.4142 140.103 24.6757 140.324 24.8648C140.551 25.047 140.831 25.1226 141.164 25.0916C141.498 25.0606 141.756 24.935 141.939 24.7148C142.128 24.4877 142.207 24.2073 142.176 23.8735L141.775 19.5568C141.772 19.5253 141.779 19.4993 141.796 19.4786C141.819 19.4511 141.846 19.4359 141.878 19.4329L142.983 19.3303C143.014 19.3274 143.041 19.3377 143.062 19.3611C143.089 19.3776 143.104 19.4017 143.107 19.4332L143.507 23.7404C143.548 24.1875 143.481 24.5939 143.305 24.9595C143.135 25.3183 142.873 25.6094 142.519 25.8328C142.172 26.0556 141.755 26.1895 141.271 26.2345Z" fill="#E04138"/>
<rect x="107.085" y="36.8955" width="31.4879" height="1.7248" rx="0.862401" transform="rotate(-5 107.085 36.8955)" fill="#C9C9C9"/>
<rect x="107.536" y="42.05" width="19.0836" height="1.7248" rx="0.862401" transform="rotate(-5 107.536 42.05)" fill="#C9C9C9"/>
<rect x="107.987" y="47.2048" width="24.8086" height="1.7248" rx="0.862401" transform="rotate(-5 107.987 47.2048)" fill="#C9C9C9"/>
<path d="M139.221 12.1022C139.289 12.8728 139.507 13.6225 139.864 14.3085C140.221 14.9946 140.71 15.6036 141.303 16.1007C141.895 16.5979 142.58 16.9734 143.318 17.2059C144.055 17.4384 144.832 17.5233 145.602 17.4558L155.162 16.6195L138.385 2.54199L139.221 12.1022Z" fill="#C4C4C4"/>
<path d="M162.27 40.0692L165.209 73.6606C165.304 74.7916 164.949 75.9145 164.219 76.7839C163.489 77.6533 162.445 78.1985 161.315 78.3003L99.8045 83.6818C98.6747 83.7774 97.553 83.4213 96.6852 82.6914C95.8175 81.9615 95.2745 80.9173 95.1752 79.7878L92.2363 46.1963L129.059 63.7791L162.27 40.0692Z" fill="#FAAF40"/>
<path d="M164.317 76.4747L139.807 55.9067L129.095 63.5574L117.212 57.8836L96.6448 82.3944C97.0762 82.7811 97.5823 83.0754 98.1318 83.2592C98.6814 83.4429 99.2627 83.5122 99.84 83.4627L161.353 78.0811C161.93 78.029 162.491 77.8597 163.001 77.5835C163.511 77.3073 163.959 76.93 164.317 76.4747V76.4747Z" fill="#F5A537"/>
<defs>
<linearGradient id="paint0_linear_20751_53585" x1="143.03" y1="31.1572" x2="143.03" y2="73.3912" gradientUnits="userSpaceOnUse">
<stop stop-color="#F78D8D"/>
<stop offset="1" stop-color="white"/>
</linearGradient>
</defs>
</svg>
