<svg width="287" height="101" viewBox="0 0 287 101" fill="none" xmlns="http://www.w3.org/2000/svg">
<path d="M287 78C287 63.7295 222.753 37 143.5 37C64.2471 37 0 63.7295 0 78C0 78 64.2471 78 143.5 78C222.753 78 287 78 287 78Z" fill="url(#paint0_linear)" fill-opacity="0.15"/>
<path d="M200 88.8533C200 83.4115 172.466 81 138.5 81C104.534 81 77 83.4115 77 88.8533C77 94.2951 104.534 97 138.5 97C172.466 97 200 94.2951 200 88.8533Z" fill="#F78D8D" fill-opacity="0.15"/>
<path fill-rule="evenodd" clip-rule="evenodd" d="M192.237 55.5443L177.688 70.9058C177.688 70.9058 176.66 67.2141 171.712 64.0048L171.366 63.8578C171.366 63.8578 170.831 61.7177 168.381 59.5699C167.659 58.9456 166.875 58.3957 166.043 57.9288C166.043 57.9288 166.982 54.4034 163.368 52.2C166.687 50.5306 170.294 49.5098 173.996 49.1925C179.438 48.7288 186.178 49.8119 192.237 55.5443Z" fill="#E9802D"/>
<path fill-rule="evenodd" clip-rule="evenodd" d="M197.135 84.1925C196.042 82.7762 194.831 82.1334 193.795 81.8651C192.97 81.6412 192.103 81.6306 191.273 81.8341C189.131 78.0762 185.079 76.8364 185.079 76.8364L184.915 76.4996C182.174 72.3412 177.692 70.9024 177.692 70.9024L192.236 55.5441C199.787 62.6956 200.17 71.3071 199.198 77.2071C198.816 79.6152 198.123 81.9634 197.135 84.1925Z" fill="#DF6300"/>
<g style="mix-blend-mode:multiply" opacity="0.5">
<path fill-rule="evenodd" clip-rule="evenodd" d="M197.135 84.1927C196.042 82.7764 194.831 82.1335 193.794 81.8653C193.726 81.7417 191.486 77.697 184.239 70.3609C183.179 69.2898 182.096 68.3023 181.018 67.3997C177.212 64.185 172.954 61.5469 168.381 59.5699C167.658 58.9455 166.875 58.3957 166.042 57.9288C166.042 57.9288 166.982 54.4033 163.368 52.1999C166.686 50.5305 170.293 49.5098 173.995 49.1925L177.06 50.3846L186.395 61.6981L199.194 77.2105C198.813 79.6173 198.121 81.9644 197.135 84.1927Z" fill="#C76DA5"/>
</g>
<path fill-rule="evenodd" clip-rule="evenodd" d="M164.429 85.1334L194.973 53.1082C194.973 53.1082 195.529 52.9054 195.401 53.496L165.037 85.7074L164.429 85.1334Z" fill="#985801"/>
<path fill-rule="evenodd" clip-rule="evenodd" d="M197.136 84.1926C197.136 84.1926 197.141 84.1492 197.144 84.0686C197.165 83.3518 197.045 79.6252 192.606 77.4958C192.606 77.4958 192.415 72.2652 186.576 70.8143C186.576 70.8143 186.448 67.9326 183.289 64.9916C180.462 62.3464 177.509 62.1308 177.509 62.1308C174.95 55.6631 170.294 56.3694 170.294 56.3694C167.939 51.7717 164.018 52.1107 163.439 52.1898L163.369 52.1999C180.182 43.2919 191.685 54.9749 192.219 55.522L192.237 55.5442L192.455 55.7367C194.097 57.2449 204.236 67.4138 197.609 83.1322C197.474 83.4522 197.334 83.7735 197.184 84.0991C197.169 84.1304 197.155 84.1581 197.136 84.1926Z" fill="url(#paint1_radial)"/>
<path style="mix-blend-mode:multiply" opacity="0.5" fill-rule="evenodd" clip-rule="evenodd" d="M192.45 55.7398C186.032 53.8833 177.508 62.1307 177.508 62.1307C174.95 55.663 170.294 56.3693 170.294 56.3693C167.938 51.7715 164.017 52.1106 163.439 52.1897C168.157 51.4705 169.629 54.5424 169.629 54.5424C184.014 47.4937 191.78 55.0833 192.219 55.5218L192.236 55.5441C183.009 47.8476 171.232 56.1176 171.045 56.226C174.085 55.6168 177.714 59.8259 177.714 59.8259C186.741 53.4873 192.202 55.6337 192.449 55.7378L192.45 55.7398Z" fill="url(#paint2_linear)"/>
<path style="mix-blend-mode:multiply" opacity="0.5" fill-rule="evenodd" clip-rule="evenodd" d="M197.181 84.1044L197.149 84.0639C197.171 83.347 197.051 79.6205 192.612 77.4911C192.612 77.4911 192.421 72.2604 186.582 70.8095C186.582 70.8095 194.736 62.1151 192.664 55.9429C192.739 56.1004 195.051 61.2417 189.18 70.6587C189.18 70.6587 193.596 74.0681 193.143 77.1238C193.242 76.9336 200.556 64.52 192.67 55.9345C192.67 55.9345 201.344 63.2634 194.902 78.4511C194.902 78.4511 197.424 79.4934 197.615 83.1311C197.472 83.4575 197.331 83.7788 197.181 84.1044Z" fill="url(#paint3_linear)"/>
<path fill-rule="evenodd" clip-rule="evenodd" d="M172.907 1.336C172.907 1.336 166.079 47.9911 165.87 85.6074H113.315C113.315 85.6074 113.315 85.6074 113.315 85.5585C113.315 85.4051 113.262 84.896 113.2 84.073C112.819 78.9294 111.641 61.5771 111.634 42.5022C111.634 32.8323 111.923 22.7229 112.778 13.5377C113.088 10.1446 113.475 6.87714 113.956 3.80842C113.956 3.80842 142.272 -0.302977 170.484 0.0178446L172.907 1.336Z" fill="url(#paint4_linear)"/>
<path fill-rule="evenodd" clip-rule="evenodd" d="M170.239 0.0211212C170.239 0.0211212 164.81 36.5285 163.886 85.6141H165.629C165.629 85.6141 166.7 40.5841 172.663 1.34276L170.239 0.0211212Z" fill="#9D031B"/>
<g style="mix-blend-mode:multiply" opacity="0.5">
<path fill-rule="evenodd" clip-rule="evenodd" d="M165.842 1.76463L160.939 84.2226H112.966L114.514 6.22125L165.842 1.76463Z" fill="#D82F30"/>
</g>
<path fill-rule="evenodd" clip-rule="evenodd" d="M165.839 2.53533C165.49 4.19523 157.061 46.1008 160.074 83.6438L121.154 83.9925L112.962 84.0692H112.565C112.565 84.0692 109.587 76.0243 108.729 60.5412C108.412 54.5376 108.43 48.5211 108.781 42.5194C109.36 32.7811 110.615 23.0948 112.537 13.5304C113.002 11.1452 113.521 8.70416 114.096 6.20734C114.096 6.20734 134.021 2.94682 165.839 2.48651C165.839 2.50277 165.839 2.51907 165.839 2.53533Z" fill="url(#paint5_linear)"/>
<path style="mix-blend-mode:multiply" opacity="0.5" fill-rule="evenodd" clip-rule="evenodd" d="M123.992 4.89965C123.992 4.89965 122.468 8.47401 122.946 9.27258C123.424 10.0711 123.884 10.371 124.648 10.4199C125.412 10.4687 153.194 9.07032 154.003 8.89596C154.277 8.84603 154.53 8.71756 154.732 8.52623C154.934 8.3349 155.075 8.08897 155.14 7.81842C155.304 7.00591 155.614 2.73759 155.614 2.73759H155.028C155.028 2.73759 154.582 6.92222 153.501 7.58129C152.42 8.24037 125.467 9.54109 124.941 9.28653C124.414 9.03196 125.188 4.81595 125.188 4.81595L123.992 4.89965Z" fill="url(#paint6_linear)"/>
<path d="M124.906 9.56558C124.757 9.56762 124.608 9.56179 124.459 9.54814C123.668 9.44353 122.82 9.03553 122.82 8.38691C122.82 8.34158 123.535 3.50485 124.247 3.18752C124.613 3.03059 126.667 2.8388 127.535 2.76557L127.608 3.63388C126.426 3.73849 125.094 3.88147 124.682 3.98259C124.386 4.63121 123.762 7.77665 123.696 8.35901C123.947 8.5609 124.253 8.68242 124.574 8.70773C124.954 8.76004 127.654 8.6345 131.455 8.3904C131.61 8.38056 131.76 8.32473 131.884 8.22999C133.494 7.04294 135.431 6.3795 137.432 6.32947C139.471 6.33143 141.482 6.80904 143.304 7.72435C143.429 7.78919 143.568 7.82044 143.709 7.81501L145.103 7.75573C147.381 7.66506 152.12 7.47676 152.629 7.35122C152.922 7.29507 153.192 7.15203 153.404 6.94063C153.615 6.72923 153.758 6.45922 153.814 6.16557C153.989 5.41932 154.446 2.56331 154.554 1.60085C154.041 1.60343 153.528 1.63837 153.019 1.70546L152.915 0.837152C155.14 0.568639 155.356 0.812742 155.439 1.18587C155.523 1.559 154.78 5.87265 154.679 6.35388C154.587 6.80412 154.365 7.21761 154.041 7.5435C153.717 7.86939 153.305 8.09345 152.855 8.18814C152.304 8.32414 148.748 8.47409 145.152 8.61707L143.757 8.67635C143.466 8.68936 143.176 8.62563 142.917 8.49153C141.223 7.63555 139.354 7.18546 137.456 7.17686C135.643 7.22117 133.887 7.82263 132.428 8.89953C132.167 9.10302 131.851 9.2244 131.521 9.24825C129.47 9.36681 126.178 9.56558 124.906 9.56558Z" fill="url(#paint7_linear)"/>
<path fill-rule="evenodd" clip-rule="evenodd" d="M126.723 2.27032L126.433 2.73062C126.282 2.74008 126.139 2.80208 126.029 2.90589C125.919 3.0097 125.848 3.14878 125.83 3.29903C125.824 3.4354 125.852 3.57111 125.913 3.69321C125.974 3.81531 126.066 3.91972 126.179 3.99647V4.65904C126.179 4.65904 143.5 3.47688 153.149 2.89452L153.515 2.11339C153.515 2.11339 152.734 1.25903 153.26 0.784773L153.515 0.282618C153.515 0.282618 138.509 0.973082 126.723 2.27032Z" fill="#E26400"/>
<path style="mix-blend-mode:screen" fill-rule="evenodd" clip-rule="evenodd" d="M125.938 2.99263C125.938 2.99263 147.106 1.5036 152.971 1.24904C152.971 1.24904 152.992 0.900321 153.236 0.785244C153.236 0.785244 134.524 1.81048 126.423 2.71715C126.434 2.73109 126.04 2.77643 125.938 2.99263Z" fill="url(#paint8_radial)"/>
<path fill-rule="evenodd" clip-rule="evenodd" d="M149.215 7.2188C149.123 7.32624 149.053 7.45143 149.01 7.58676C148.967 7.72209 148.952 7.86472 148.966 8.00598C148.98 8.14724 149.023 8.28417 149.091 8.40842C149.16 8.53268 149.253 8.64167 149.365 8.72876C149.365 8.72876 152.619 8.83686 153.491 8.67296C154.362 8.50906 154.687 8.07316 154.851 7.14906C155.015 6.22496 155.287 3.75603 155.287 3.75603C155.074 3.60609 154.82 3.52561 154.559 3.52561C154.299 3.52561 154.045 3.60609 153.832 3.75603C153.832 3.75603 153.501 6.00526 153.424 6.35398C153.397 6.54424 153.308 6.72002 153.169 6.85335C153.031 6.98667 152.852 7.0699 152.661 7.08978C152.319 7.10373 149.215 7.2188 149.215 7.2188Z" fill="#E26400"/>
<path fill-rule="evenodd" clip-rule="evenodd" d="M128.289 9.72589C128.289 9.72589 127.759 9.25512 128.268 8.23687C128.268 8.23687 125.743 8.4182 124.997 8.3624C124.25 8.30661 124.209 7.88466 124.191 7.50456C124.257 6.84503 124.366 6.19042 124.516 5.54476C124.316 5.39858 124.076 5.31975 123.829 5.31975C123.581 5.31975 123.341 5.39858 123.142 5.54476C123.142 5.54476 122.681 7.95092 122.793 8.60651C122.904 9.2621 123.428 9.77471 124.341 9.84097C125.255 9.90723 128.289 9.72589 128.289 9.72589Z" fill="#E26400"/>
<path fill-rule="evenodd" clip-rule="evenodd" d="M128.267 8.23713L128.459 8.53703H128.288C128.206 8.82305 128.206 9.1263 128.288 9.41232H128.459C128.459 9.41232 128.459 9.52739 128.288 9.72616C128.19 9.63476 128.115 9.52202 128.069 9.39678C128.022 9.27154 128.005 9.1372 128.019 9.00431C128 8.72627 128.089 8.45155 128.267 8.23713Z" fill="url(#paint9_radial)"/>
<path style="mix-blend-mode:screen" fill-rule="evenodd" clip-rule="evenodd" d="M133.195 7.7108C133.195 7.7108 135.361 6.43448 139.587 6.72741C139.587 6.72741 135.598 5.61848 133.195 7.7108Z" fill="url(#paint10_radial)"/>
<g style="mix-blend-mode:screen" opacity="0.5">
<path fill-rule="evenodd" clip-rule="evenodd" d="M163.521 0.0282859C163.521 0.0282859 168.03 0.000388102 168.975 0.798954C169.92 1.59752 165.14 38.2339 165.234 57.0089C165.234 57.0089 168.076 12.9902 170.527 0.0213114C170.527 0.0213114 166.866 -0.0309963 163.521 0.0282859Z" fill="#FC947D"/>
</g>
<g style="mix-blend-mode:multiply" opacity="0.2">
<path fill-rule="evenodd" clip-rule="evenodd" d="M160.064 83.6436L112.555 84.083C112.555 84.083 109.58 76.038 108.719 60.5549C129.039 83.3542 156.267 68.7289 159.088 60.3178C159.844 30.328 165.504 3.82538 165.825 2.53512C165.49 4.19502 157.058 46.1075 160.064 83.6436Z" fill="#FB8B75"/>
</g>
<path fill-rule="evenodd" clip-rule="evenodd" d="M160.064 83.6436C160.064 83.6436 155.597 55.0487 165.832 2.53512C165.839 2.53512 157.198 46.1075 160.064 83.6436Z" fill="url(#paint11_linear)"/>
<path d="M137.536 81.4574L137.529 81.168L157.096 80.7774L157.099 81.0703L137.536 81.4574Z" fill="#B589B6"/>
<g style="mix-blend-mode:screen" opacity="0.5">
<path fill-rule="evenodd" clip-rule="evenodd" d="M163.886 85.6144C163.886 85.6144 162.463 52.3327 167.024 29.2824C167.01 29.2824 163.478 74.9262 163.886 85.6144Z" fill="#D82F30"/>
</g>
<path fill-rule="evenodd" clip-rule="evenodd" d="M115.938 47.4662L117.064 48.4252C117.064 48.4252 122.417 72.4867 99.4645 86.1077L97.4873 86.3134C97.4873 86.3134 114.306 63.4131 115.938 47.4662Z" fill="#985801"/>
<path fill-rule="evenodd" clip-rule="evenodd" d="M97.4868 86.3133C97.4868 86.3133 79.6394 77.0688 81.0831 49.3038L92.127 40C92.127 40 101.256 40.4185 115.938 47.4661C115.938 47.4661 121.273 72.7063 97.4868 86.3133Z" fill="url(#paint12_linear)"/>
<path fill-rule="evenodd" clip-rule="evenodd" d="M81.8713 50.1615C81.8713 50.1615 80.1068 72.1621 96.235 83.7082C96.235 83.7082 116.461 74.9693 114.483 48.5783C107.419 44.7683 99.6953 42.3364 91.7226 41.4121C91.7226 41.4121 84.811 46.9951 81.8713 50.1615Z" fill="url(#paint13_radial)"/>
<path fill-rule="evenodd" clip-rule="evenodd" d="M84.957 62.2279C85.0245 63.7551 85.3955 65.2535 86.0485 66.6357C87.6805 65.9433 89.3569 65.3608 91.0666 64.8921C93.9637 64.4408 96.9192 64.5283 99.7846 65.1501L100.58 60.5924C97.3258 59.6218 93.924 59.2438 90.5365 59.4765C90.5365 59.4765 87.0284 60.4913 84.957 62.2279Z" fill="url(#paint14_linear)"/>
<path fill-rule="evenodd" clip-rule="evenodd" d="M88.1975 54.249L90.3875 52.9517L94.4919 53.9979C94.4919 53.9979 93.8224 61.1257 94.7779 70.8933L92.2671 71.5907L90.5514 71.3954C90.5514 71.3954 87.6152 63.0646 88.1975 54.249Z" fill="url(#paint15_linear)"/>
<path style="mix-blend-mode:multiply" opacity="0.86" fill-rule="evenodd" clip-rule="evenodd" d="M91.9059 41.458C91.9059 41.458 85.4895 62.9496 97.2657 87.7714C97.2657 87.7714 119.856 77.0831 115.716 48.9241C115.716 48.9241 107.155 44.056 91.9059 41.458Z" fill="url(#paint16_linear)" fill-opacity="0.2"/>
<path d="M149.848 17.699C149.85 17.6644 149.636 17.6362 149.59 17.6224C149.586 17.6217 149.582 17.6201 149.579 17.6177C149.077 17.3816 135.575 15.9954 135.575 15.9954C135.575 15.9954 122.098 17.5707 121.602 17.8138C121.597 17.816 121.593 17.8177 121.588 17.8187C121.542 17.8328 121.328 17.864 121.329 17.8989C120.531 18.1849 119.831 18.7887 119.335 19.6185C118.839 20.4483 118.575 21.4585 118.582 22.4952C118.589 23.5319 118.868 24.5383 119.375 25.3611C119.883 26.1838 120.592 26.7778 121.393 27.0526C121.394 27.0875 121.608 27.1187 121.653 27.1251C121.658 27.1275 121.663 27.1296 121.667 27.1313C122.167 27.3688 135.664 28.7484 135.664 28.7484C135.664 28.7484 149.145 27.1797 149.644 26.9352C149.647 26.9326 149.651 26.9322 149.655 26.9288C149.701 26.9199 149.914 26.8857 149.912 26.8527C150.71 26.5667 151.41 25.9628 151.906 25.1331C152.402 24.3033 152.667 23.2931 152.66 22.2564C152.652 21.2197 152.374 20.2133 151.866 19.3905C151.358 18.5678 150.65 17.9738 149.848 17.699Z" fill="#9D031B"/>
<path d="M150.148 16.4944C150.15 16.4601 149.932 16.432 149.885 16.4183C149.882 16.4176 149.878 16.416 149.874 16.4136C149.363 16.179 135.623 14.8028 135.623 14.8028C135.623 14.8028 121.907 16.3714 121.402 16.6132C121.397 16.6154 121.392 16.6171 121.387 16.6181C121.341 16.6321 121.123 16.6632 121.124 16.6979C120.312 16.9823 119.6 17.5829 119.095 18.4081C118.59 19.2332 118.32 20.2377 118.328 21.2685C118.335 22.2993 118.618 23.3 119.135 24.1179C119.651 24.9359 120.372 25.5265 121.188 25.7995C121.188 25.8342 121.406 25.8652 121.452 25.8715C121.457 25.874 121.462 25.8761 121.467 25.8777C121.975 26.1138 135.711 27.4834 135.711 27.4834C135.711 27.4834 149.431 25.9214 149.939 25.6782C149.942 25.6755 149.946 25.6752 149.95 25.6718C149.997 25.663 150.214 25.629 150.212 25.5961C151.024 25.3116 151.737 24.711 152.242 23.8859C152.746 23.0608 153.016 22.0563 153.009 21.0254C153.001 19.9946 152.718 18.994 152.202 18.176C151.685 17.358 150.964 16.7675 150.148 16.4944Z" fill="#E50019"/>
<path d="M122.824 19.5907L121.394 19.6008L121.414 22.9558L122.787 22.9462C122.787 22.9462 124.354 22.9315 124.342 21.2224C124.342 21.2224 124.33 19.5802 122.824 19.5907ZM123.623 21.2507C123.631 22.3734 122.614 22.3912 122.614 22.3912L122.06 22.3951L122.044 20.1291L122.638 20.125C122.765 20.1096 122.893 20.1277 123.014 20.1779C123.135 20.2281 123.246 20.3094 123.339 20.4161C123.433 20.5229 123.506 20.6528 123.555 20.7969C123.603 20.9411 123.626 21.0962 123.622 21.2519" fill="#EFECF4"/>
<path d="M127.039 22.9162L127.738 22.9113L126.968 20.104C126.916 19.9466 126.828 19.8113 126.713 19.7154C126.598 19.6196 126.463 19.5675 126.324 19.566C126.195 19.5479 126.064 19.5489 125.935 19.5688C125.796 19.5721 125.661 19.626 125.548 19.7235C125.435 19.8209 125.348 19.9575 125.299 20.1157L124.568 22.9336L125.259 22.9287L125.487 22.0138L126.801 22.0046L127.039 22.9162L127.039 22.9162ZM125.62 21.4763L125.908 20.3235C125.922 20.2634 125.951 20.2105 125.992 20.1727C126.033 20.1349 126.082 20.1143 126.134 20.1139C126.185 20.1135 126.235 20.1335 126.276 20.1707C126.317 20.2079 126.348 20.2604 126.362 20.3203L126.661 21.469L125.62 21.4763Z" fill="#EFECF4"/>
<path d="M130.828 20.7738L129.422 20.7836L129.426 21.3195L130.831 21.3096L130.828 20.7738Z" fill="#EFECF4"/>
<path d="M128.901 19.5337L128.235 19.5384L128.259 22.9075L128.925 22.9028L128.901 19.5337Z" fill="#EFECF4"/>
<path d="M132.023 19.5119L131.356 19.5165L131.38 22.8856L132.046 22.8809L132.023 19.5119Z" fill="#EFECF4"/>
<path d="M139.263 19.4611L138.596 19.4658L138.619 22.8349L139.287 22.8302L139.263 19.4611Z" fill="#EFECF4"/>
<path d="M144.206 19.4409L143.54 19.4455L143.564 22.8006L144.229 22.7959L144.206 19.4409Z" fill="#EFECF4"/>
<path d="M137.41 19.474L137.419 20.7274L136.134 20.7364L136.125 19.483L135.459 19.4877L135.483 22.8568L136.149 22.8521L136.138 21.2715L137.423 21.2625L137.434 22.8424L138.1 22.8377L138.076 19.4694L137.41 19.474Z" fill="#EFECF4"/>
<path d="M143.112 22.2313L141.774 22.2407C141.726 22.2413 141.677 22.2302 141.632 22.208C141.587 22.1858 141.545 22.153 141.51 22.1113C141.475 22.0697 141.448 22.0201 141.428 21.9654C141.409 21.9106 141.399 21.8519 141.399 21.7924L141.382 19.4607L140.716 19.4653L140.732 21.7576C140.723 21.8915 140.738 22.0262 140.774 22.1532C140.81 22.2802 140.867 22.3969 140.942 22.4958C141.017 22.5947 141.108 22.6738 141.209 22.728C141.31 22.7823 141.418 22.8106 141.529 22.8112L143.116 22.8L143.112 22.2313Z" fill="#EFECF4"/>
<path d="M145.8 19.9859L147.14 19.9765L147.136 19.4059L145.549 19.417C145.439 19.4192 145.33 19.4491 145.23 19.5049C145.129 19.5607 145.04 19.6412 144.966 19.7414C144.893 19.8415 144.837 19.9591 144.803 20.0868C144.768 20.2145 144.756 20.3496 144.766 20.4836L144.782 22.7887L145.449 22.7841L145.439 21.4468L147.06 21.4355L147.056 20.9004L145.436 20.9117L145.432 20.4383C145.432 20.3791 145.441 20.3204 145.46 20.2656C145.478 20.2107 145.505 20.1609 145.539 20.1189C145.573 20.0769 145.614 20.0436 145.659 20.0208C145.703 19.998 145.751 19.9863 145.8 19.9862" fill="#EFECF4"/>
<path d="M148.602 22.1928C148.553 22.1934 148.505 22.1823 148.46 22.16C148.415 22.1378 148.373 22.1049 148.339 22.0633C148.304 22.0216 148.276 21.972 148.257 21.9173C148.238 21.8626 148.228 21.8039 148.227 21.7445L148.224 21.3076L149.83 21.2964L149.826 20.7591L148.221 20.7703L148.218 20.4184C148.218 20.3596 148.227 20.3013 148.245 20.2471C148.264 20.1928 148.291 20.1437 148.325 20.1027C148.36 20.0617 148.401 20.0296 148.446 20.0084C148.49 19.9872 148.538 19.9772 148.587 19.9793L149.925 19.9699L149.921 19.4008L148.333 19.4119C148.223 19.4121 148.115 19.4403 148.015 19.4946C147.915 19.5488 147.825 19.628 147.751 19.7271C147.678 19.8261 147.622 19.9428 147.588 20.0697C147.554 20.1966 147.542 20.3309 147.553 20.464L147.561 21.7097C147.553 21.8434 147.567 21.978 147.603 22.1049C147.639 22.2318 147.696 22.3484 147.771 22.4473C147.845 22.5462 147.936 22.6253 148.037 22.6797C148.137 22.7341 148.246 22.7625 148.356 22.7633L149.95 22.7521L149.935 22.1835L148.602 22.1928" fill="#EFECF4"/>
<path d="M134.989 19.5021L134.03 19.5088C133.836 19.483 133.639 19.5075 133.454 19.5807C133.268 19.654 133.097 19.7744 132.952 19.9339C132.807 20.0935 132.692 20.2887 132.614 20.5067C132.535 20.7247 132.496 20.9606 132.497 21.1989C132.499 21.4371 132.542 21.6724 132.623 21.8893C132.705 22.1062 132.823 22.2997 132.97 22.4573C133.117 22.6148 133.289 22.7328 133.476 22.8034C133.663 22.8741 133.86 22.8958 134.054 22.8672L135.017 22.8605L135.013 22.2936L134.142 22.2997C133.9 22.3014 133.667 22.1858 133.495 21.9783C133.322 21.7709 133.224 21.4885 133.222 21.1934C133.22 20.8983 133.314 20.6146 133.484 20.4047C133.653 20.1949 133.885 20.076 134.127 20.0743L134.993 20.0683L134.989 19.5021Z" fill="#EFECF4"/>
<path d="M117.416 35.4906L150.364 34.6236V37.2247H117.416V35.4906Z" fill="#C4C4C4"/>
<path d="M118.283 42.427L151.231 41.56V44.1611H118.283V42.427Z" fill="#C4C4C4"/>
<defs>
<linearGradient id="paint0_linear" x1="143.03" y1="35.5561" x2="143.03" y2="77.7901" gradientUnits="userSpaceOnUse">
<stop stop-color="#F78D8D"/>
<stop offset="1" stop-color="white"/>
</linearGradient>
<radialGradient id="paint1_radial" cx="0" cy="0" r="1" gradientUnits="userSpaceOnUse" gradientTransform="translate(190.831 57.5907) rotate(134.084) scale(10.7355 23.6404)">
<stop stop-color="#FFBF74"/>
<stop offset="1" stop-color="#EE8D2D"/>
</radialGradient>
<linearGradient id="paint2_linear" x1="171.975" y1="60.2703" x2="183.917" y2="47.659" gradientUnits="userSpaceOnUse">
<stop offset="0.02" stop-color="white"/>
<stop offset="1" stop-color="#D13392"/>
</linearGradient>
<linearGradient id="paint3_linear" x1="1085.83" y1="1840" x2="1831.23" y2="1250.89" gradientUnits="userSpaceOnUse">
<stop offset="0.02" stop-color="white"/>
<stop offset="1" stop-color="#D13392"/>
</linearGradient>
<linearGradient id="paint4_linear" x1="141.799" y1="-38.2619" x2="142.941" y2="85.6012" gradientUnits="userSpaceOnUse">
<stop stop-color="#FFB59A"/>
<stop offset="1" stop-color="#F75A4A"/>
</linearGradient>
<linearGradient id="paint5_linear" x1="154.46" y1="85.6629" x2="124.505" y2="2.46907" gradientUnits="userSpaceOnUse">
<stop offset="0.02" stop-color="#E2DCEB"/>
<stop offset="1" stop-color="white"/>
</linearGradient>
<linearGradient id="paint6_linear" x1="122.842" y1="6.57698" x2="155.597" y2="6.57698" gradientUnits="userSpaceOnUse">
<stop stop-color="#D9D4FF"/>
<stop offset="0.99" stop-color="#530E68"/>
</linearGradient>
<linearGradient id="paint7_linear" x1="122.82" y1="5.14034" x2="155.45" y2="5.14034" gradientUnits="userSpaceOnUse">
<stop stop-color="white"/>
<stop offset="0.21" stop-color="#D0CDDE"/>
<stop offset="1" stop-color="white"/>
</linearGradient>
<radialGradient id="paint8_radial" cx="0" cy="0" r="1" gradientUnits="userSpaceOnUse" gradientTransform="translate(139.587 1.89766) scale(9.68043)">
<stop stop-color="white"/>
<stop offset="1"/>
</radialGradient>
<radialGradient id="paint9_radial" cx="0" cy="0" r="1" gradientUnits="userSpaceOnUse" gradientTransform="translate(195.166 71.5804) scale(0.701804 2.35266)">
<stop stop-color="#5178FE"/>
<stop offset="0.99" stop-color="#713592"/>
</radialGradient>
<radialGradient id="paint10_radial" cx="0" cy="0" r="1" gradientUnits="userSpaceOnUse" gradientTransform="translate(1248.99 53.7595) scale(42.2512 8.44099)">
<stop stop-color="white"/>
<stop offset="1"/>
</radialGradient>
<linearGradient id="paint11_linear" x1="1839.05" y1="20818.2" x2="1839.05" y2="1953.19" gradientUnits="userSpaceOnUse">
<stop offset="0.02" stop-color="#AB9CE3"/>
<stop offset="1" stop-color="#AEB3F3"/>
</linearGradient>
<linearGradient id="paint12_linear" x1="2796.41" y1="11315" x2="932.476" y2="5593.52" gradientUnits="userSpaceOnUse">
<stop stop-color="#B2C9FF"/>
<stop offset="0.21" stop-color="#8E7BBB"/>
<stop offset="1" stop-color="#F6ECF2"/>
</linearGradient>
<radialGradient id="paint13_radial" cx="0" cy="0" r="1" gradientUnits="userSpaceOnUse" gradientTransform="translate(98.217 62.5601) rotate(91.0326) scale(14.0153 10.8703)">
<stop stop-color="#FFBF74"/>
<stop offset="1" stop-color="#EE8D2D"/>
</radialGradient>
<linearGradient id="paint14_linear" x1="92.7614" y1="66.6357" x2="92.7614" y2="59.4067" gradientUnits="userSpaceOnUse">
<stop offset="0.02" stop-color="#EEEBF4"/>
<stop offset="1" stop-color="white"/>
</linearGradient>
<linearGradient id="paint15_linear" x1="316.648" y1="3918.87" x2="316.648" y2="2924.11" gradientUnits="userSpaceOnUse">
<stop offset="0.02" stop-color="#E2DCEB"/>
<stop offset="1" stop-color="white"/>
</linearGradient>
<linearGradient id="paint16_linear" x1="90.1624" y1="64.613" x2="116.222" y2="64.613" gradientUnits="userSpaceOnUse">
<stop offset="0.02" stop-color="#E6AC4A"/>
<stop offset="1" stop-color="white"/>
</linearGradient>
</defs>
</svg>
